<svg width="181" height="756" viewBox="0 0 181 756" fill="none" xmlns="http://www.w3.org/2000/svg">
<path d="M109.376 739.262C111.654 746.012 108.03 753.435 101.015 754.679C91.9556 756.285 82.6689 756.433 73.5104 755.088C60.0826 753.117 47.3119 747.996 36.2425 740.144C25.173 732.292 16.1191 721.931 9.82098 709.909C3.52287 697.888 0.159384 684.546 0.00552652 670.975C-0.148331 657.404 2.91181 643.99 8.93574 631.828C14.9597 619.666 23.7764 609.103 34.665 601.002C45.5535 592.901 58.2049 587.492 71.5845 585.217C80.7101 583.665 89.9978 583.602 99.0915 585.002C106.133 586.087 109.924 593.426 107.8 600.226C105.675 607.026 98.4194 610.666 91.3228 610.036C86.1973 609.581 81.017 609.783 75.9092 610.652C66.5434 612.244 57.6875 616.031 50.0655 621.701C42.4435 627.372 36.2718 634.767 32.055 643.28C27.8383 651.793 25.6962 661.183 25.8039 670.682C25.9116 680.182 28.266 689.521 32.6747 697.937C37.0834 706.352 43.4211 713.604 51.1697 719.101C58.9183 724.597 67.8578 728.182 77.2573 729.562C82.3835 730.314 87.5671 730.399 92.6809 729.828C99.7614 729.037 107.098 732.511 109.376 739.262Z" fill="#4B7BD8"/>
<path d="M71.6242 593.262C69.3459 600.012 72.9698 607.435 79.9848 608.679C89.0444 610.285 98.3311 610.433 107.49 609.088C120.917 607.117 133.688 601.996 144.758 594.144C155.827 586.292 164.881 575.931 171.179 563.909C177.477 551.888 180.841 538.546 180.994 524.975C181.148 511.404 178.088 497.99 172.064 485.828C166.04 473.666 157.224 463.103 146.335 455.002C135.446 446.901 122.795 441.492 109.415 439.217C100.29 437.665 91.0022 437.602 81.9085 439.002C74.8671 440.087 71.0759 447.426 73.2005 454.226C75.3251 461.026 82.5806 464.666 89.6772 464.036C94.8027 463.581 99.983 463.783 105.091 464.652C114.457 466.244 123.313 470.031 130.935 475.701C138.557 481.372 144.728 488.767 148.945 497.28C153.162 505.793 155.304 515.183 155.196 524.682C155.088 534.182 152.734 543.521 148.325 551.937C143.917 560.352 137.579 567.604 129.83 573.101C122.082 578.597 113.142 582.182 103.743 583.562C98.6165 584.314 93.4329 584.399 88.3191 583.828C81.2386 583.037 73.9024 586.511 71.6242 593.262Z" fill="url(#paint0_linear_1_4447)"/>
<path d="M109.376 447.262C111.654 454.012 108.03 461.435 101.015 462.679C91.9556 464.285 82.6689 464.433 73.5104 463.088C60.0826 461.117 47.3119 455.996 36.2425 448.144C25.173 440.292 16.1191 429.931 9.82098 417.909C3.52287 405.888 0.159384 392.546 0.00552652 378.975C-0.148331 365.404 2.91181 351.99 8.93574 339.828C14.9597 327.666 23.7764 317.103 34.665 309.002C45.5535 300.901 58.2049 295.492 71.5845 293.217C80.7101 291.665 89.9978 291.602 99.0915 293.002C106.133 294.087 109.924 301.426 107.8 308.226C105.675 315.026 98.4194 318.666 91.3228 318.036C86.1973 317.581 81.017 317.783 75.9092 318.652C66.5434 320.244 57.6875 324.031 50.0655 329.701C42.4435 335.372 36.2718 342.767 32.055 351.28C27.8383 359.793 25.6962 369.183 25.8039 378.682C25.9116 388.182 28.266 397.521 32.6747 405.937C37.0834 414.352 43.4211 421.604 51.1697 427.101C58.9183 432.597 67.8578 436.182 77.2573 437.562C82.3835 438.314 87.5671 438.399 92.6809 437.828C99.7614 437.037 107.098 440.511 109.376 447.262Z" fill="url(#paint1_linear_1_4447)"/>
<path d="M71.6242 301.262C69.3459 308.012 72.9698 315.435 79.9848 316.679C89.0444 318.285 98.3311 318.433 107.49 317.088C120.917 315.117 133.688 309.996 144.758 302.144C155.827 294.292 164.881 283.931 171.179 271.909C177.477 259.888 180.841 246.546 180.994 232.975C181.148 219.404 178.088 205.99 172.064 193.828C166.04 181.666 157.224 171.103 146.335 163.002C135.446 154.901 122.795 149.492 109.415 147.217C100.29 145.665 91.0022 145.602 81.9085 147.002C74.8671 148.087 71.0759 155.426 73.2005 162.226C75.3251 169.026 82.5806 172.666 89.6772 172.036C94.8027 171.581 99.983 171.783 105.091 172.652C114.457 174.244 123.313 178.031 130.935 183.701C138.557 189.372 144.728 196.767 148.945 205.28C153.162 213.793 155.304 223.183 155.196 232.682C155.088 242.182 152.734 251.521 148.325 259.937C143.917 268.352 137.579 275.604 129.83 281.101C122.082 286.597 113.142 290.182 103.743 291.562C98.6165 292.314 93.4329 292.399 88.3191 291.828C81.2386 291.037 73.9024 294.511 71.6242 301.262Z" fill="url(#paint2_linear_1_4447)"/>
<path d="M109.376 155.262C111.654 162.012 108.03 169.435 101.015 170.679C91.9556 172.285 82.6689 172.433 73.5104 171.088C60.0826 169.117 47.3119 163.996 36.2425 156.144C25.173 148.292 16.1191 137.931 9.82098 125.909C3.52287 113.888 0.159384 100.546 0.00552652 86.975C-0.148331 73.4041 2.91181 59.9896 8.93574 47.828C14.9597 35.6665 23.7764 25.1033 34.665 17.0021C45.5535 8.90088 58.2049 3.49169 71.5845 1.21678C80.7101 -0.334819 89.9978 -0.398336 99.0915 1.00226C106.133 2.08678 109.924 9.42585 107.8 16.2261C105.675 23.0264 98.4194 26.6657 91.3228 26.0358C86.1973 25.5808 81.017 25.7833 75.9092 26.6517C66.5434 28.2442 57.6875 32.0306 50.0655 37.7015C42.4435 43.3723 36.2718 50.7665 32.055 59.2796C27.8383 67.7927 25.6962 77.1829 25.8039 86.6825C25.9116 96.182 28.266 105.521 32.6747 113.937C37.0834 122.352 43.4211 129.604 51.1697 135.101C58.9183 140.597 67.8578 144.182 77.2573 145.562C82.3835 146.314 87.5671 146.399 92.6809 145.828C99.7614 145.037 107.098 148.511 109.376 155.262Z" fill="url(#paint3_linear_1_4447)"/>
<defs>
<linearGradient id="paint0_linear_1_4447" x1="95" y1="438" x2="95" y2="610" gradientUnits="userSpaceOnUse">
<stop offset="0.130208" stop-color="#7174C2"/>
<stop offset="1" stop-color="#467CDB"/>
</linearGradient>
<linearGradient id="paint1_linear_1_4447" x1="86" y1="292" x2="86" y2="464" gradientUnits="userSpaceOnUse">
<stop stop-color="#A66AA4"/>
<stop offset="1" stop-color="#6C75C5"/>
</linearGradient>
<linearGradient id="paint2_linear_1_4447" x1="95" y1="146" x2="95" y2="318" gradientUnits="userSpaceOnUse">
<stop stop-color="#CB658F"/>
<stop offset="1" stop-color="#A36BA6"/>
</linearGradient>
<linearGradient id="paint3_linear_1_4447" x1="86" y1="0" x2="86" y2="172" gradientUnits="userSpaceOnUse">
<stop offset="0.583333" stop-color="#E16282"/>
<stop offset="1" stop-color="#C56692"/>
</linearGradient>
</defs>
</svg>
