<svg width="1430" height="224" viewBox="0 0 1430 224" fill="none" xmlns="http://www.w3.org/2000/svg">
<rect x="-10" width="1453" height="260" fill="#0C4A32"/>
<path fill-rule="evenodd" clip-rule="evenodd" d="M196.313 214.625L232.425 214.625L232.425 415.25L236.438 415.25L236.438 214.625L252.488 214.625L252.487 415.25L256.5 415.25L256.5 214.625L272.55 214.625L272.55 415.25L276.562 415.25L276.563 214.625L292.613 214.625L292.612 415.25L296.625 415.25L296.625 214.625L497.25 214.625L497.25 210.612L296.625 210.612L296.625 194.562L497.25 194.562L497.25 190.55L296.625 190.55L296.625 174.5L497.25 174.5L497.25 170.487L296.625 170.487L296.625 154.437L497.25 154.438L497.25 150.425L296.625 150.425L296.625 114.312C296.625 58.9114 251.714 14 196.313 14C140.911 14 96 58.9114 96 114.312C96 169.714 140.911 214.625 196.313 214.625ZM276.563 194.562L292.613 194.562L292.613 210.612L276.563 210.612L276.563 194.562ZM272.55 194.562L256.5 194.562L256.5 210.612L272.55 210.612L272.55 194.562ZM252.488 194.562L236.438 194.562L236.438 210.612L252.488 210.612L252.488 194.562ZM232.425 194.562L232.425 210.612L196.313 210.612C143.127 210.612 100.013 167.497 100.013 114.312C100.013 61.1274 143.128 18.0125 196.313 18.0125C249.498 18.0125 292.613 61.1275 292.613 114.312L292.613 150.425L276.563 150.425L276.563 114.312C276.563 69.9916 240.633 34.0625 196.313 34.0625C151.992 34.0625 116.063 69.9916 116.063 114.312C116.063 158.633 151.992 194.562 196.313 194.562L232.425 194.562ZM276.563 154.437L292.613 154.437L292.613 170.487L276.563 170.487L276.563 154.437ZM272.55 150.425L272.55 114.312C272.55 72.2077 238.417 38.075 196.313 38.075C154.208 38.075 120.075 72.2077 120.075 114.312C120.075 156.417 154.208 190.55 196.313 190.55L232.425 190.55L232.425 174.5L196.313 174.5C163.072 174.5 136.125 147.553 136.125 114.312C136.125 81.0718 163.072 54.125 196.313 54.125C229.553 54.125 256.5 81.0718 256.5 114.312L256.5 150.425L272.55 150.425ZM252.488 174.5L236.438 174.5L236.438 190.55L252.488 190.55L252.488 174.5ZM256.5 190.55L256.5 174.5L272.55 174.5L272.55 190.55L256.5 190.55ZM256.5 170.487L256.5 154.437L272.55 154.437L272.55 170.487L256.5 170.487ZM252.488 114.312L252.488 150.425L236.438 150.425L236.438 114.312C236.438 92.152 218.473 74.1875 196.313 74.1875C174.152 74.1875 156.188 92.152 156.188 114.312C156.188 136.473 174.152 154.437 196.313 154.437L232.425 154.437L232.425 170.487L196.313 170.487C165.288 170.487 140.138 145.337 140.138 114.312C140.138 83.2879 165.288 58.1375 196.313 58.1375C227.337 58.1375 252.488 83.2879 252.488 114.312ZM232.425 114.312C232.425 94.3681 216.257 78.2 196.313 78.2C176.368 78.2 160.2 94.3681 160.2 114.312C160.2 134.257 176.368 150.425 196.313 150.425L232.425 150.425L232.425 114.312ZM236.438 154.437L236.438 170.487L252.488 170.487L252.488 154.437L236.438 154.437ZM276.563 174.5L292.613 174.5L292.613 190.55L276.563 190.55L276.563 174.5Z" fill="url(#paint0_linear_1_4447)"/>
<g opacity="0.7">
<path d="M1189.36 119.093C1186.21 118.231 1185.73 116.722 1188.63 115.788C1191.54 114.854 1196.62 114.71 1199.76 115.573C1202.91 116.435 1203.39 117.944 1200.49 118.878C1197.59 119.812 1192.75 119.956 1189.36 119.093Z" fill="#2BB786"/>
<path d="M1158.62 129.368C1155.47 128.506 1154.99 126.997 1157.89 126.063C1160.8 125.129 1165.88 124.985 1169.03 125.847C1172.17 126.71 1172.66 128.219 1169.75 129.153C1166.85 130.087 1162.01 130.23 1158.62 129.368Z" fill="#1DB27E"/>
<path d="M1097.39 149.846C1094.24 148.984 1093.76 147.475 1096.66 146.541C1099.57 145.607 1104.65 145.463 1107.8 146.325C1110.94 147.188 1111.43 148.697 1108.52 149.631C1105.62 150.637 1100.54 150.708 1097.39 149.846Z" fill="#2BB786"/>
<path d="M1066.65 160.049C1063.51 159.187 1063.02 157.678 1065.93 156.744C1068.83 155.81 1073.92 155.666 1077.06 156.529C1080.21 157.391 1080.69 158.9 1077.79 159.834C1074.88 160.84 1069.8 160.912 1066.65 160.049Z" fill="#1DB27E"/>
<path d="M1190.08 137.631C1186.94 136.769 1186.45 135.26 1189.36 134.326C1192.26 133.392 1197.34 133.248 1200.49 134.111C1203.64 134.973 1204.12 136.482 1201.22 137.416C1198.31 138.422 1193.23 138.494 1190.08 137.631Z" fill="#2BB786"/>
<path d="M1159.35 147.835C1156.2 146.972 1155.72 145.463 1158.62 144.529C1161.53 143.595 1166.61 143.452 1169.75 144.314C1172.9 145.176 1173.38 146.685 1170.48 147.619C1167.58 148.625 1162.49 148.697 1159.35 147.835Z" fill="#2BB786"/>
<path d="M1128.61 158.109C1125.46 157.247 1124.98 155.738 1127.88 154.804C1130.79 153.87 1135.87 153.726 1139.02 154.589C1142.16 155.451 1142.65 156.96 1139.74 157.894C1136.84 158.9 1132 158.972 1128.61 158.109Z" fill="#1DB27E"/>
<path d="M1221.3 145.894C1218.16 145.032 1217.67 143.523 1220.58 142.589C1223.48 141.655 1228.56 141.511 1231.71 142.374C1234.86 143.236 1235.34 144.745 1232.44 145.679C1229.53 146.685 1224.69 146.757 1221.3 145.894Z" fill="#1DB27E"/>
<path d="M1190.57 156.097C1187.42 155.235 1186.94 153.726 1189.84 152.792C1192.75 151.858 1197.83 151.714 1200.97 152.577C1204.12 153.439 1204.6 154.948 1201.7 155.882C1198.8 156.816 1193.96 156.96 1190.57 156.097Z" fill="#2BB786"/>
<path d="M1160.07 166.372C1156.93 165.51 1156.44 164.001 1159.35 163.067C1162.25 162.133 1167.33 161.989 1170.48 162.852C1173.63 163.714 1174.11 165.223 1171.21 166.157C1168.3 167.163 1163.22 167.235 1160.07 166.372Z" fill="#2BB786"/>
<path d="M1129.34 176.647C1126.19 175.785 1125.71 174.276 1128.61 173.342C1131.51 172.408 1136.6 172.264 1139.74 173.127C1142.89 173.989 1143.37 175.498 1140.47 176.432C1137.57 177.366 1132.48 177.509 1129.34 176.647Z" fill="#2BB786"/>
<path d="M1283.26 143.883C1280.11 143.02 1279.63 141.512 1282.53 140.577C1285.44 139.643 1290.52 139.5 1293.67 140.362C1296.81 141.224 1297.3 142.733 1294.39 143.667C1291.49 144.673 1286.65 144.745 1283.26 143.883Z" fill="#1DB27E"/>
<path d="M1222.03 164.432C1218.88 163.57 1218.4 162.061 1221.3 161.127C1224.21 160.193 1229.29 160.049 1232.44 160.912C1235.58 161.774 1236.07 163.283 1233.16 164.217C1230.26 165.151 1225.18 165.295 1222.03 164.432Z" fill="#2BB786"/>
<path d="M1191.29 174.636C1188.15 173.773 1187.66 172.264 1190.57 171.33C1193.47 170.396 1198.55 170.253 1201.7 171.115C1204.85 171.977 1205.33 173.486 1202.43 174.42C1199.52 175.426 1194.44 175.498 1191.29 174.636Z" fill="#1DB27E"/>
</g>
<defs>
<linearGradient id="paint0_linear_1_4447" x1="132.113" y1="36.0687" x2="497.25" y2="423.275" gradientUnits="userSpaceOnUse">
<stop stop-color="#42BB84"/>
<stop offset="1" stop-color="white" stop-opacity="0"/>
</linearGradient>
</defs>
</svg>
