<svg width="1401" height="717" viewBox="0 0 1401 717" fill="none" xmlns="http://www.w3.org/2000/svg">
<circle cx="385.087" cy="385.087" r="384.458" stroke="#FF4241" stroke-opacity="0.7" stroke-width="1.25845"/>
<circle cx="917.413" cy="385.087" r="384.458" stroke="#FF4241" stroke-opacity="0.4" stroke-width="1.25845"/>
<path d="M1131 598.272V566.951L1218.32 528.06V560.948L1162.69 582.351L1163.63 580.785V584.439L1162.69 582.873L1218.32 604.276V637.163L1131 598.272Z" fill="#FF4241"/>
<path d="M1299.1 497L1260.37 657H1232.9L1271.63 497H1299.1Z" fill="#FF4241"/>
<path d="M1401 598.272L1313.68 637.163V604.276L1369.31 582.873L1368.37 584.439V580.785L1369.31 582.351L1313.68 560.948V528.06L1401 566.951V598.272Z" fill="#FF4241"/>
<circle cx="36.0989" cy="258.604" r="21.0989" stroke="#FF4241" stroke-width="10"/>
<circle cx="108.901" cy="258.604" r="21.0989" stroke="#FF4241" stroke-width="10"/>
<circle cx="36.0989" cy="342.396" r="21.0989" stroke="#FF4241" stroke-width="10"/>
<line x1="35.6044" y1="280.582" x2="35.6044" y2="328.659" stroke="#FF4241" stroke-width="10"/>
<path d="M37.4725 301.187H91.044C99.9725 301.187 108.901 296.242 108.901 276.461" stroke="#FF4241" stroke-width="10"/>
</svg>
