<svg width="266" height="266" viewBox="0 0 266 266" fill="none" xmlns="http://www.w3.org/2000/svg">
<path d="M111.221 200.265C126.517 200.279 141.555 196.327 154.867 188.794L191.797 225.723C196.296 230.222 202.398 232.75 208.76 232.75C215.123 232.75 221.224 230.222 225.723 225.723C230.222 221.224 232.75 215.123 232.75 208.76C232.75 202.398 230.222 196.296 225.723 191.797L188.794 154.868C199.354 136.118 202.766 114.178 198.398 93.1075C194.029 72.0366 182.176 53.2613 165.032 40.2558C147.888 27.2503 126.613 20.8951 105.145 22.3661C83.676 23.8371 63.4669 33.0347 48.2568 48.257C35.8034 60.71 27.3225 76.5762 23.8865 93.8493C20.4506 111.122 22.2139 129.026 28.9536 145.297C35.6933 161.568 47.1066 175.475 61.7501 185.259C76.3937 195.043 93.6098 200.265 111.221 200.265ZM63.9287 63.9289C74.8695 52.9931 89.2635 46.189 104.658 44.6758C120.053 43.1627 135.497 47.034 148.357 55.6304C161.218 64.2267 170.7 77.0161 175.188 91.8197C179.677 106.623 178.894 122.525 172.972 136.816C167.051 151.107 156.358 162.903 142.715 170.194C129.072 177.485 113.323 179.82 98.1509 176.801C82.9792 173.783 69.3235 165.597 59.5103 153.639C49.697 141.681 44.3335 126.691 44.3333 111.221C44.3065 102.434 46.0248 93.7285 49.3886 85.6102C52.7523 77.4918 57.6946 70.1223 63.9287 63.9289Z" fill="white"/>
</svg>
