<svg width="266" height="266" viewBox="0 0 266 266" fill="none" xmlns="http://www.w3.org/2000/svg">
<g clip-path="url(#clip0_406_7864)">
<path d="M203.534 121.695C220.846 138.996 220.846 167.07 203.534 184.382L140.836 247.081C136.513 251.403 129.486 251.403 125.164 247.081L62.4656 184.382C45.1534 167.07 45.1534 138.996 62.4656 121.684C79.7777 104.372 107.852 104.372 125.164 121.684L132.989 129.52L140.836 121.684C158.148 104.372 186.222 104.383 203.534 121.695ZM133 11.0835C157.494 11.0835 177.333 30.9227 177.333 55.4168C177.333 79.911 157.494 99.7502 133 99.7502C108.506 99.7502 88.6666 79.911 88.6666 55.4168C88.6666 30.9227 108.506 11.0835 133 11.0835Z" fill="white"/>
</g>
<defs>
<clipPath id="clip0_406_7864">
<rect width="266" height="266" fill="white"/>
</clipPath>
</defs>
</svg>
