<svg width="266" height="266" viewBox="0 0 266 266" fill="none" xmlns="http://www.w3.org/2000/svg">
<path d="M200.592 95.6199C199.868 114.403 192.761 132.379 180.446 146.58C176.799 150.644 174.017 155.407 172.27 160.58V175.098C172.27 178.625 170.869 182.008 168.375 184.502C165.88 186.997 162.497 188.398 158.97 188.398H107.03C103.503 188.398 100.12 186.997 97.6255 184.502C95.1312 182.008 93.73 178.625 93.73 175.098V160.58C91.9821 155.407 89.2004 150.644 85.554 146.58C73.2284 132.383 66.1121 114.407 65.38 95.6199C65.3796 80.014 70.7771 64.8883 80.6572 52.8081C90.5373 40.728 104.292 32.4371 119.588 29.3417C134.883 26.2462 150.779 28.5368 164.579 35.8248C178.379 43.1129 189.232 54.9498 195.3 69.328C198.827 77.6536 200.637 86.6059 200.62 95.6479L200.592 95.6199ZM187.292 95.6199C187.292 81.2208 181.572 67.4114 171.39 57.2297C161.209 47.048 147.399 41.328 133 41.328C118.601 41.328 104.791 47.048 94.6098 57.2297C84.428 67.4114 78.708 81.2208 78.708 95.6199C78.708 128.702 107.03 143.346 107.03 160.58V175.098H158.97V160.58C158.97 143.346 187.292 128.702 187.292 95.6199ZM165.62 204.008C165.622 204.882 165.451 205.749 165.118 206.557C164.784 207.366 164.295 208.1 163.677 208.719C163.06 209.338 162.326 209.829 161.518 210.164C160.71 210.499 159.844 210.672 158.97 210.672H107.03C105.266 210.672 103.575 209.971 102.328 208.724C101.081 207.477 100.38 205.786 100.38 204.022C100.38 202.258 101.081 200.567 102.328 199.32C103.575 198.073 105.266 197.372 107.03 197.372H158.97C160.731 197.372 162.421 198.071 163.667 199.315C164.914 200.559 165.616 202.247 165.62 204.008ZM156.66 221.676C156.887 222.331 156.903 223.041 156.707 223.706C156.512 224.371 156.113 224.958 155.568 225.386C149.013 230.476 140.95 233.24 132.65 233.24C124.35 233.24 116.287 230.476 109.732 225.386C109.181 224.963 108.777 224.379 108.576 223.714C108.375 223.05 108.388 222.339 108.612 221.683C108.836 221.026 109.261 220.456 109.826 220.053C110.391 219.65 111.068 219.434 111.762 219.436H153.524C154.217 219.436 154.892 219.651 155.457 220.053C156.022 220.454 156.433 221.021 156.66 221.676Z" fill="white" stroke="white" stroke-width="0.076"/>
</svg>
