<svg width="219" height="266" viewBox="0 0 219 266" fill="none" xmlns="http://www.w3.org/2000/svg">
<path fill-rule="evenodd" clip-rule="evenodd" d="M109.287 88.327C119.017 88.327 126.903 95.7919 126.903 105.004C126.903 114.214 119.017 121.681 109.287 121.681C99.5559 121.681 91.6695 114.214 91.6695 105.004C91.6695 95.7919 99.5559 88.327 109.287 88.327ZM65.3464 105.004V107.993L77.5009 109.706C77.8424 111.887 78.4563 113.972 79.259 115.976L69.6481 123.215L72.8064 128.387L84.2438 124.136C85.6775 125.817 87.2993 127.352 89.0916 128.71L84.5852 139.537L90.0477 142.526L97.6952 133.428C99.8119 134.205 102.014 134.77 104.318 135.109L106.145 146.598H112.444L114.27 135.109C116.558 134.77 118.777 134.205 120.876 133.428L128.541 142.526L133.987 139.537L129.497 128.71C131.272 127.351 132.894 125.817 134.327 124.136L145.765 128.387L148.923 123.215L139.313 115.976C140.132 113.972 140.729 111.888 141.088 109.706L153.242 107.978V105.004V102.015L141.088 100.286C140.729 98.1199 140.132 96.0191 139.313 94.0322L148.923 86.7761L145.765 81.6215L134.327 85.8711C132.894 84.1907 131.272 82.6548 129.497 81.2988L133.987 70.472L128.541 67.4823L120.876 76.579C118.776 75.8036 116.558 75.2392 114.27 74.8992L112.444 63.394H106.145L104.318 74.8992C102.014 75.2392 99.8119 75.8036 97.6952 76.579L90.0477 67.4823L84.5852 70.472L89.0916 81.2988C87.2993 82.6554 85.6775 84.1907 84.2438 85.8711L72.8064 81.6215L69.6481 86.7761L79.259 94.0322C78.457 96.0197 77.8424 98.1199 77.5009 100.286L65.3464 102.015V105.004ZM200.854 53.3258C201.844 52.7771 203.124 53.0997 203.704 54.0371C204.285 54.9895 203.944 56.2021 202.936 56.7509L184.278 66.948C183.271 67.4979 181.99 67.1747 181.411 66.2373C180.83 65.2843 181.172 64.0717 182.179 63.5224L200.854 53.3258ZM216.473 104.551C217.634 104.551 218.574 105.44 218.574 106.539C218.574 107.639 217.635 108.527 216.473 108.527H194.913C193.752 108.527 192.812 107.639 192.812 106.539C192.812 105.44 193.751 104.551 194.913 104.551H216.473ZM54.7117 18.324C54.1313 17.3716 54.4728 16.1584 55.4631 15.6097C56.4698 15.0597 57.7508 15.3836 58.3311 16.3366L69.102 34.0158C69.6824 34.952 69.3415 36.1652 68.3513 36.714C67.3445 37.264 66.0635 36.9401 65.4832 35.986L54.7117 18.324ZM15.6365 56.7515C14.6298 56.2027 14.2877 54.9901 14.8687 54.0377C15.449 53.1003 16.7294 52.7771 17.7367 53.3264L36.3946 63.5229C37.4013 64.0723 37.7434 65.2849 37.1625 66.2379C36.5822 67.1753 35.3024 67.4991 34.3116 66.9486L15.6365 56.7515ZM2.10019 108.526C0.939526 108.526 0 107.638 0 106.539C0 105.44 0.938915 104.551 2.10019 104.551H23.6604C24.821 104.551 25.7599 105.44 25.7599 106.539C25.7599 107.638 24.821 108.526 23.6604 108.526H2.10019ZM105.684 1.95511C105.701 0.872022 106.64 0 107.801 0C108.945 0.0156131 109.867 0.921175 109.867 2.00369L109.611 19.3909C109.594 20.4896 108.655 21.3623 107.494 21.3461C106.351 21.3461 105.412 20.4411 105.429 19.343L105.684 1.95511ZM53.1411 257.516C51.9805 257.516 51.0415 256.628 51.0415 255.529C51.0415 254.429 51.9805 253.541 53.1411 253.541H129.908C131.051 253.541 132.008 254.429 132.008 255.529C132.008 256.628 131.052 257.516 129.908 257.516H53.1411ZM93.4105 266C92.2499 266 91.311 265.111 91.311 264.028C91.311 262.929 92.2492 262.04 93.4105 262.04H154.336C155.497 262.04 156.436 262.929 156.436 264.028C156.436 265.111 155.497 266 154.336 266H93.4105ZM160.566 266C159.406 266 158.467 265.111 158.467 264.028C158.467 262.929 159.405 262.04 160.566 262.04H168.197C169.34 262.04 170.279 262.929 170.279 264.028C170.279 265.111 169.34 266 168.197 266H160.566ZM38.3922 265.645C37.2315 265.645 36.292 264.756 36.292 263.657C36.292 262.558 37.2309 261.669 38.3922 261.669H67.2584C68.4191 261.669 69.3586 262.558 69.3586 263.657C69.3586 264.756 68.4197 265.645 67.2584 265.645H38.3922ZM62.854 185.785C63.6561 185.785 64.4759 185.284 64.7489 184.669C65.449 183.328 64.3739 181.809 62.854 181.809H58.6549C57.8693 181.809 57.0501 182.294 56.777 182.925C56.077 184.25 57.1527 185.785 58.6549 185.785H62.854ZM155.53 185.785C156.316 185.785 157.152 185.284 157.408 184.669C158.108 183.328 157.05 181.809 155.53 181.809H151.332C150.546 181.809 149.709 182.294 149.454 182.925C148.754 184.25 149.812 185.785 151.332 185.785H155.53ZM172.312 185.785C173.097 185.785 173.933 185.284 174.189 184.669C174.889 183.328 173.83 181.809 172.312 181.809H168.112C167.327 181.809 166.491 182.294 166.235 182.925C165.535 184.25 166.593 185.785 168.112 185.785H172.312ZM41.8913 181.809C41.0892 181.809 40.2694 182.294 39.9963 182.925C39.2969 184.25 40.372 185.785 41.8913 185.785H46.0733C46.8754 185.785 47.6952 185.284 47.9689 184.669C48.6683 183.328 47.5932 181.809 46.0733 181.809H41.8913ZM62.854 175.653C63.6561 175.653 64.4759 175.168 64.7489 174.538C65.449 173.213 64.3739 171.678 62.854 171.678H58.6549C57.8693 171.678 57.0501 172.163 56.777 172.793C56.077 174.118 57.1527 175.653 58.6549 175.653H62.854ZM155.53 175.653C156.316 175.653 157.152 175.168 157.408 174.538C158.108 173.213 157.05 171.678 155.53 171.678H151.332C150.546 171.678 149.709 172.163 149.454 172.793C148.754 174.118 149.812 175.653 151.332 175.653H155.53ZM172.312 175.653C173.097 175.653 173.933 175.168 174.189 174.538C174.889 173.213 173.83 171.678 172.312 171.678H168.112C167.327 171.678 166.491 172.163 166.235 172.793C165.535 174.118 166.593 175.653 168.112 175.653H172.312ZM41.8913 171.678C41.0892 171.678 40.2694 172.163 39.9963 172.793C39.2969 174.118 40.372 175.653 41.8913 175.653H46.0733C46.8754 175.653 47.6952 175.168 47.9689 174.538C48.6683 173.213 47.5932 171.678 46.0733 171.678H41.8913ZM160.242 16.3366C160.823 15.3842 162.103 15.0597 163.11 15.6097C164.1 16.1584 164.442 17.3716 163.878 18.324L153.09 35.986C152.509 36.9395 151.229 37.264 150.239 36.714C149.232 36.1652 148.891 34.952 149.471 34.0158L160.242 16.3366ZM78.628 206.097H139.963V219.945H78.628V206.097ZM84.4319 233.777H134.142V223.92H84.4319V233.777ZM124.138 237.753V247.626H94.435V237.753H124.138ZM109.287 40.8342C147.541 40.8342 178.558 70.1956 178.558 106.409C178.558 128.87 166.627 148.698 148.429 160.511L135.575 200.829C135.439 201.249 135.353 201.685 135.285 202.121H83.2877C83.2364 201.685 83.1509 201.249 83.0141 200.829L70.143 160.511C51.9627 148.698 40.0128 128.87 40.0128 106.409C40.0134 70.1961 71.0306 40.8342 109.287 40.8342Z" fill="white"/>
</svg>
