<svg width="266" height="266" viewBox="0 0 266 266" fill="none" xmlns="http://www.w3.org/2000/svg">
<path fill-rule="evenodd" clip-rule="evenodd" d="M99.75 133H74.6178C70.7851 139.626 63.6215 144.083 55.4167 144.083C43.1744 144.083 33.25 134.159 33.25 121.917C33.25 109.674 43.1744 99.75 55.4167 99.75C63.6215 99.75 70.7851 104.208 74.6178 110.833H99.75V55.4167C99.75 43.1744 109.674 33.25 121.917 33.25H210.583C222.826 33.25 232.75 43.1744 232.75 55.4167V210.583C232.75 222.826 222.826 232.75 210.583 232.75H121.917C109.674 232.75 99.75 222.826 99.75 210.583V133ZM121.917 133V210.583H210.583V55.4167H121.917V110.833H147.049C150.882 104.208 158.045 99.75 166.25 99.75C178.492 99.75 188.417 109.674 188.417 121.917C188.417 134.159 178.492 144.083 166.25 144.083C158.045 144.083 150.882 139.626 147.049 133H121.917Z" fill="white"/>
</svg>
