<svg width="2535" height="2157" viewBox="0 0 2535 2157" fill="none" xmlns="http://www.w3.org/2000/svg">
<path d="M35.916 1149.13C91.3076 1209.34 113.808 1257.54 201.872 1274.41C290.005 1291.35 257.195 1326.7 234.064 1400.48C226.925 1423.22 208.667 1442.71 201.872 1465.56C184.026 1525.94 251.498 1580.87 319.519 1604.48C387.609 1628.03 465.652 1637.31 520.151 1679.07C651.664 1779.82 559.687 1991.71 689.072 2094.55C710.762 2111.78 748.376 2129.7 791.481 2145.77L1488.96 2157C1623.91 2134.38 1779.06 2148.2 1916.48 2145.77C2051.49 2143.39 2152.49 2145.77 2310.53 2145.77H2535V0H2003.98H1420.46C1244.06 132.132 1456.96 0 1277.96 0C1239.93 116.877 1151.08 -4.36172 1050.59 82.1214C961.089 159.034 829.439 185.542 708.359 219.706C587.212 253.986 459.131 308.857 414.927 410.073C379.647 490.988 406.554 584.837 366.812 664.244C327.481 742.723 294.878 822.972 201.872 855.802C108.866 888.631 143.941 923.021 70.1538 981.083C-3.6333 1039.09 -25.9277 1081.85 35.916 1149.13Z" fill="#C9E8FF"/>
</svg>
