<svg width="715" height="614" viewBox="0 0 715 614" fill="none" xmlns="http://www.w3.org/2000/svg">
<g clip-path="url(#clip0_455_836)">
<path d="M666.961 517.316L625.447 485.978L525.702 410.683L486.806 381.321C464.907 364.791 453.822 340.101 457.13 315.225L466.416 245.416C470.475 214.902 464.969 184.009 450.468 155.933L378.038 15.6869C373.293 6.49851 357.302 9.4054 357.302 19.4584V345.207C357.302 373.065 368.669 400.043 389.429 421.451L439.943 473.542L524.8 561.049L565.871 603.838L666.961 517.316Z" fill="#EFBBAB"/>
<path d="M48.0376 517.334L89.5521 485.996L189.297 410.701L228.193 381.339C250.091 364.809 261.177 340.119 257.868 315.243L248.583 245.434C244.524 214.92 250.03 184.027 264.531 155.951L336.764 15.7073C341.509 6.51889 357.302 9.42579 357.302 19.4788V345.227C357.302 373.085 346.131 400.064 325.373 421.471L274.957 473.562L190.198 561.069L148.722 603.839L48.0376 517.334Z" fill="#EFBBAB"/>
<path d="M336.764 15.705L319.014 337.799C319.014 365.657 307.844 392.636 287.085 414.043L236.67 466.135L151.91 553.641L123.908 582.518L148.724 603.838L190.199 561.068L274.958 473.561L325.374 421.47C346.133 400.063 357.303 373.085 357.303 345.226V19.4765C357.302 9.42587 341.509 6.51658 336.764 15.705Z" fill="#EDA08E"/>
<path d="M377.831 15.705L395.581 337.799C395.581 365.657 406.751 392.636 427.51 414.043L477.925 466.135L562.685 553.641L590.687 582.518L565.872 603.838L524.396 561.068L439.637 473.561L389.221 421.47C368.462 400.063 357.292 373.085 357.292 345.226V19.4765C357.293 9.42587 373.086 6.51658 377.831 15.705Z" fill="#EDA08E"/>
<path d="M230.993 528.422L132.179 443.568C119.663 432.819 119.663 415.389 132.179 404.64C144.696 393.891 164.994 393.891 177.511 404.64L276.324 489.495C288.841 500.244 288.841 517.674 276.324 528.423C263.805 539.171 243.51 539.171 230.993 528.422Z" fill="#FFDB6C"/>
<path d="M276.324 489.494L233.933 453.089C246.449 463.838 246.449 481.268 233.933 492.017C221.416 502.766 201.118 502.766 188.602 492.017L230.993 528.42C243.51 539.169 263.808 539.169 276.324 528.42C288.841 517.673 288.841 500.242 276.324 489.494Z" fill="#FFB04C"/>
<path d="M185.662 567.349L86.8484 482.494C74.3318 471.746 74.3318 454.315 86.8484 443.567C99.3651 432.818 119.663 432.818 132.18 443.567L230.993 528.422C243.51 539.17 243.51 556.601 230.993 567.349C218.474 578.1 198.179 578.1 185.662 567.349Z" fill="#FFDB6C"/>
<path d="M230.993 528.422L188.602 492.018C201.118 502.767 201.118 520.197 188.602 530.946C176.085 541.695 155.787 541.695 143.271 530.946L185.662 567.349C198.179 578.098 218.476 578.098 230.993 567.349C243.51 556.601 243.51 539.171 230.993 528.422Z" fill="#FFB04C"/>
<path d="M476.294 528.422L575.108 443.566C587.624 432.818 587.624 415.387 575.108 404.639C562.591 393.89 542.293 393.89 529.777 404.639L430.963 489.494C418.447 500.243 418.447 517.673 430.963 528.422C443.481 539.171 463.778 539.171 476.294 528.422Z" fill="#FFDB6C"/>
<path d="M430.963 489.494L473.356 453.089C460.839 463.838 460.839 481.268 473.356 492.017C485.873 502.766 506.17 502.766 518.687 492.017L476.296 528.42C463.779 539.169 443.481 539.169 430.965 528.42C418.444 517.673 418.444 500.242 430.963 489.494Z" fill="#FFB04C"/>
<path d="M521.627 567.349L620.44 482.494C632.957 471.746 632.957 454.315 620.44 443.567C607.924 432.818 587.626 432.818 575.109 443.567L476.296 528.422C463.779 539.17 463.779 556.601 476.296 567.349C488.812 578.1 509.109 578.1 521.627 567.349Z" fill="#FFDB6C"/>
<path d="M476.294 528.422L518.686 492.018C506.169 502.767 506.169 520.197 518.686 530.946C531.202 541.695 551.5 541.695 564.017 530.946L521.625 567.349C509.109 578.098 488.811 578.098 476.294 567.349C463.778 556.601 463.778 539.171 476.294 528.422Z" fill="#FFB04C"/>
<path d="M674.774 509.702L636.494 480.807C639.869 475.404 641.66 469.338 641.66 463.033C641.66 452.966 637.093 443.502 628.805 436.386C620.517 429.266 609.496 425.347 597.774 425.347C597.278 425.347 596.787 425.364 596.294 425.378C596.309 424.953 596.33 424.531 596.33 424.106C596.33 414.039 591.763 404.576 583.475 397.457C575.186 390.338 564.165 386.419 552.443 386.419C541.758 386.419 531.665 389.685 523.684 395.651L494.619 373.71C475.639 359.383 466.02 337.958 468.889 316.399L478.174 246.59C482.468 214.304 476.629 181.538 461.288 151.834L388.855 11.5856C384.469 3.09636 374.017 -1.48943 363.439 0.436503C361.252 0.833443 359.212 1.49541 357.335 2.35884C355.461 1.49301 353.424 0.829845 351.239 0.430507C340.727 -1.48224 330.326 3.10595 325.944 11.5952L253.716 151.83C238.375 181.535 232.536 214.3 236.829 246.586L246.114 316.396C248.982 337.954 239.363 359.379 220.384 373.706L187.303 398.676L185.878 397.453C177.589 390.335 166.568 386.416 154.846 386.416C143.124 386.416 132.101 390.337 123.814 397.453C115.525 404.573 110.96 414.036 110.96 424.102C110.96 424.528 110.981 424.95 110.996 425.374C110.505 425.361 110.012 425.343 109.516 425.343C97.7938 425.343 86.7714 429.265 78.4847 436.381C70.1952 443.499 65.6301 452.962 65.6301 463.03C65.6301 470.849 68.398 478.299 73.5119 484.575L40.2296 509.698C35.321 513.403 34.8406 519.825 39.1543 524.037C41.4934 526.324 44.7612 527.491 48.0457 527.491C50.8191 527.491 53.6051 526.658 55.8534 524.962L89.7641 499.364L168.787 567.223L139.628 597.337C135.45 601.652 136.137 608.058 141.16 611.646C143.371 613.224 146.052 613.994 148.721 613.994C152.114 613.994 155.485 612.747 157.826 610.329L186.586 580.626C193.138 583.846 200.579 585.571 208.329 585.571C220.051 585.571 231.074 581.65 239.362 574.533C248.298 566.858 252.557 556.67 252.158 546.595C252.658 546.609 253.158 546.626 253.658 546.626C264.897 546.626 276.135 542.953 284.69 535.606C292.98 528.486 297.545 519.023 297.545 508.957C297.545 498.89 292.978 489.426 284.69 482.308L283.093 480.936C283.431 480.662 283.753 480.369 284.058 480.055L334.466 427.973C343.983 418.159 351.66 407.191 357.362 395.5C363.091 407.162 370.794 418.13 380.339 427.973L428.292 477.421L422.598 482.311C414.309 489.429 409.745 498.892 409.745 508.96C409.745 519.026 414.311 528.489 422.598 535.609C431.154 542.956 442.392 546.628 453.631 546.628C454.131 546.628 454.631 546.611 455.13 546.597C454.732 556.674 458.99 566.861 467.929 574.536C476.485 581.884 487.723 585.556 498.962 585.556C508.357 585.556 517.747 582.979 525.576 577.843L556.744 610.302C559.083 612.738 562.468 613.999 565.88 613.999C568.53 613.999 571.196 613.237 573.401 611.677C578.444 608.107 579.16 601.703 575.003 597.373L542.644 563.675L621.137 496.271L659.153 524.967C661.402 526.665 664.186 527.496 666.961 527.496C670.246 527.496 673.513 526.328 675.852 524.042C680.163 519.827 679.683 513.406 674.774 509.702ZM222.625 560.165C218.806 563.445 213.727 565.252 208.327 565.252C202.926 565.252 197.847 563.446 194.028 560.166V560.165L95.2145 475.31C91.3952 472.03 89.2921 467.668 89.2921 463.031C89.2921 458.392 91.3952 454.031 95.2145 450.752C99.0339 447.472 104.113 445.665 109.513 445.665C114.913 445.665 119.992 447.471 123.812 450.752L183.099 501.664L222.625 535.606C222.628 535.609 222.632 535.612 222.635 535.615C230.508 542.388 230.505 553.398 222.625 560.165ZM267.956 521.236C260.073 528.008 247.246 528.009 239.359 521.236L140.546 436.381C136.728 433.102 134.623 428.741 134.623 424.102C134.623 419.465 136.726 415.103 140.547 411.823C144.365 408.543 149.444 406.737 154.846 406.737C160.247 406.737 165.326 408.545 169.144 411.824L267.958 496.68C271.776 499.958 273.88 504.32 273.88 508.958C273.88 513.596 271.776 517.956 267.956 521.236ZM316.273 414.975L266.349 466.558L204.071 413.078L236.009 388.97C260.805 370.251 273.373 342.257 269.628 314.09L260.343 244.281C256.526 215.588 261.717 186.468 275.355 160.06L345.472 23.9291V105.533C315.362 134.058 297.198 166.821 292.92 200.576C292.069 207.282 291.751 214.13 291.971 220.926C292.15 226.439 297.411 230.804 303.793 230.804C303.903 230.804 304.016 230.803 304.129 230.801C310.662 230.645 315.811 225.97 315.628 220.36C315.436 214.483 315.713 208.566 316.446 202.775C319.712 177.01 331.828 155.211 345.471 138.147V345.224C345.469 370.787 335.102 395.556 316.273 414.975ZM398.523 414.968C379.571 395.423 369.135 370.655 369.135 345.225L369.137 137.658C382.94 154.792 395.259 176.763 398.558 202.774C399.292 208.57 399.569 214.488 399.376 220.358C399.193 225.968 404.339 230.642 410.873 230.8C410.986 230.802 411.1 230.803 411.211 230.803C417.592 230.803 422.852 226.438 423.032 220.926C423.254 214.133 422.935 207.288 422.084 200.575C417.787 166.673 399.482 133.772 369.137 105.16V23.5286L439.652 160.069C453.286 186.467 458.475 215.588 454.658 244.279L445.373 314.087C441.627 342.257 454.193 370.249 478.992 388.967L506.824 409.977L445.093 462.988L398.523 414.968ZM439.329 521.237C435.511 517.957 433.407 513.595 433.407 508.958C433.407 504.32 435.51 499.958 439.329 496.68L538.143 411.823C541.961 408.543 547.04 406.737 552.441 406.737C557.843 406.737 562.922 408.545 566.74 411.824C570.558 415.104 572.662 419.466 572.662 424.103C572.662 428.742 570.559 433.103 566.74 436.382L467.928 521.237C460.045 528.006 447.215 528.008 439.329 521.237ZM513.009 560.359C505.661 567.16 492.465 566.866 484.663 560.164C476.779 553.394 476.779 542.376 484.663 535.606L583.475 450.752C587.418 447.367 592.596 445.674 597.774 445.674C602.952 445.674 608.13 447.367 612.072 450.752C615.892 454.031 617.995 458.392 617.995 463.031C617.995 467.668 615.892 472.031 612.072 475.31C612.072 475.31 515.139 558.388 513.009 560.359Z" fill="black"/>
</g>
<defs>
<clipPath id="clip0_455_836">
<rect width="715" height="614" fill="white"/>
</clipPath>
</defs>
</svg>
