
<svg width="201" height="121" viewBox="0 0 201 121" fill="none" xmlns="http://www.w3.org/2000/svg">
<path d="M0.5 0.5H200.5V120.5H0.5V0.5Z" fill="white"/>
<path d="M115.679 40H81.3214C80.5905 40 80 40.5484 80 41.2273V65.7727C80 66.4516 80.5905 67 81.3214 67H115.679C116.409 67 117 66.4516 117 65.7727V41.2273C117 40.5484 116.409 40 115.679 40ZM114.027 64.2386H82.9732V42.7614H114.027V64.2386ZM102.559 52.1193H107.655C107.709 52.1193 107.75 51.9813 107.75 51.8125V49.9716C107.75 49.8028 107.709 49.6648 107.655 49.6648H102.559C102.506 49.6648 102.464 49.8028 102.464 49.9716V51.8125C102.464 51.9813 102.506 52.1193 102.559 52.1193ZM102.757 57.642H110.426C110.587 57.642 110.719 57.504 110.719 57.3352V55.4943C110.719 55.3256 110.587 55.1875 110.426 55.1875H102.757C102.596 55.1875 102.464 55.3256 102.464 55.4943V57.3352C102.464 57.504 102.596 57.642 102.757 57.642ZM86.6071 59.6747H88.42C88.5934 59.6747 88.7338 59.5482 88.7462 59.3871C88.9031 57.4503 90.6458 55.9162 92.76 55.9162C94.8743 55.9162 96.617 57.4503 96.7739 59.3871C96.7863 59.5482 96.9267 59.6747 97.1001 59.6747H98.9129C98.9578 59.6748 99.0021 59.6664 99.0433 59.65C99.0845 59.6336 99.1217 59.6096 99.1526 59.5795C99.1835 59.5494 99.2075 59.5137 99.2231 59.4747C99.2387 59.4357 99.2455 59.3941 99.2433 59.3526C99.1277 57.3084 97.9219 55.5288 96.1627 54.5163C96.9385 53.7243 97.3672 52.6914 97.3644 51.6207C97.3644 49.2467 95.3038 47.3253 92.7642 47.3253C90.2246 47.3253 88.164 49.2467 88.164 51.6207C88.164 52.7368 88.6182 53.7493 89.3656 54.5163C88.4701 55.0318 87.7221 55.7408 87.1857 56.583C86.6492 57.4252 86.3402 58.3754 86.285 59.3526C86.2685 59.529 86.4172 59.6747 86.6071 59.6747ZM92.76 49.6264C93.9369 49.6264 94.895 50.52 94.895 51.6207C94.895 52.7214 93.9369 53.6151 92.76 53.6151C91.5831 53.6151 90.6251 52.7214 90.6251 51.6207C90.6251 50.52 91.5831 49.6264 92.76 49.6264Z" fill="#ABABAB"/>
<path d="M60.0795 73H59.0227C58.9602 72.696 58.8509 72.429 58.6946 72.1989C58.5412 71.9688 58.3537 71.7756 58.1321 71.6193C57.9134 71.4602 57.6705 71.3409 57.4034 71.2614C57.1364 71.1818 56.858 71.142 56.5682 71.142C56.0398 71.142 55.5611 71.2756 55.1321 71.5426C54.706 71.8097 54.3665 72.2031 54.1136 72.723C53.8636 73.2429 53.7386 73.8807 53.7386 74.6364C53.7386 75.392 53.8636 76.0298 54.1136 76.5497C54.3665 77.0696 54.706 77.4631 55.1321 77.7301C55.5611 77.9972 56.0398 78.1307 56.5682 78.1307C56.858 78.1307 57.1364 78.0909 57.4034 78.0114C57.6705 77.9318 57.9134 77.8139 58.1321 77.6577C58.3537 77.4986 58.5412 77.304 58.6946 77.0739C58.8509 76.8409 58.9602 76.5739 59.0227 76.2727H60.0795C60 76.7187 59.8551 77.1179 59.6449 77.4702C59.4347 77.8224 59.1733 78.1222 58.8608 78.3693C58.5483 78.6136 58.1974 78.7997 57.8082 78.9276C57.4219 79.0554 57.0085 79.1193 56.5682 79.1193C55.8239 79.1193 55.1619 78.9375 54.5824 78.5739C54.0028 78.2102 53.5469 77.6932 53.2145 77.0227C52.8821 76.3523 52.7159 75.5568 52.7159 74.6364C52.7159 73.7159 52.8821 72.9205 53.2145 72.25C53.5469 71.5795 54.0028 71.0625 54.5824 70.6989C55.1619 70.3352 55.8239 70.1534 56.5682 70.1534C57.0085 70.1534 57.4219 70.2173 57.8082 70.3452C58.1974 70.473 58.5483 70.6605 58.8608 70.9077C59.1733 71.152 59.4347 71.4503 59.6449 71.8026C59.8551 72.152 60 72.5511 60.0795 73ZM61.6509 79V72.4545H62.6566V79H61.6509ZM62.1623 71.3636C61.9663 71.3636 61.7972 71.2969 61.6552 71.1634C61.516 71.0298 61.4464 70.8693 61.4464 70.6818C61.4464 70.4943 61.516 70.3338 61.6552 70.2003C61.7972 70.0668 61.9663 70 62.1623 70C62.3583 70 62.5259 70.0668 62.6651 70.2003C62.8072 70.3338 62.8782 70.4943 62.8782 70.6818C62.8782 70.8693 62.8072 71.0298 62.6651 71.1634C62.5259 71.2969 62.3583 71.3636 62.1623 71.3636ZM67.3452 72.4545V73.3068H63.9531V72.4545H67.3452ZM64.9418 70.8864H65.9474V77.125C65.9474 77.4091 65.9886 77.6222 66.071 77.7642C66.1563 77.9034 66.2642 77.9972 66.3949 78.0455C66.5284 78.0909 66.669 78.1136 66.8168 78.1136C66.9276 78.1136 67.0185 78.108 67.0895 78.0966C67.1605 78.0824 67.2173 78.071 67.2599 78.0625L67.4645 78.9659C67.3963 78.9915 67.3011 79.017 67.179 79.0426C67.0568 79.071 66.902 79.0852 66.7145 79.0852C66.4304 79.0852 66.152 79.0241 65.8793 78.902C65.6094 78.7798 65.3849 78.5938 65.206 78.3438C65.0298 78.0938 64.9418 77.7784 64.9418 77.3977V70.8864ZM68.858 79V72.4545H69.8636V79H68.858ZM69.3693 71.3636C69.1733 71.3636 69.0043 71.2969 68.8622 71.1634C68.723 71.0298 68.6534 70.8693 68.6534 70.6818C68.6534 70.4943 68.723 70.3338 68.8622 70.2003C69.0043 70.0668 69.1733 70 69.3693 70C69.5653 70 69.733 70.0668 69.8722 70.2003C70.0142 70.3338 70.0852 70.4943 70.0852 70.6818C70.0852 70.8693 70.0142 71.0298 69.8722 71.1634C69.733 71.2969 69.5653 71.3636 69.3693 71.3636ZM71.5181 79V78.233L75.234 73.4602V73.392H71.6374V72.4545H76.5295V73.2557L72.9158 77.9943V78.0625H76.6488V79H71.5181ZM80.7546 79.1364C80.1239 79.1364 79.5799 78.9972 79.1225 78.7188C78.668 78.4375 78.3171 78.0455 78.07 77.5426C77.8256 77.0369 77.7035 76.4489 77.7035 75.7784C77.7035 75.108 77.8256 74.517 78.07 74.0057C78.3171 73.4915 78.6609 73.0909 79.1012 72.804C79.5444 72.5142 80.0614 72.3693 80.6523 72.3693C80.9933 72.3693 81.3299 72.4261 81.6623 72.5398C81.9947 72.6534 82.2972 72.8381 82.57 73.0938C82.8427 73.3466 83.06 73.6818 83.2219 74.0994C83.3839 74.517 83.4648 75.0312 83.4648 75.642V76.0682H78.4194V75.1989H82.4421C82.4421 74.8295 82.3683 74.5 82.2205 74.2102C82.0756 73.9205 81.8683 73.6918 81.5984 73.5241C81.3313 73.3565 81.016 73.2727 80.6523 73.2727C80.2518 73.2727 79.9052 73.3722 79.6126 73.571C79.3228 73.767 79.0998 74.0227 78.9435 74.3381C78.7873 74.6534 78.7092 74.9915 78.7092 75.3523V75.9318C78.7092 76.4261 78.7944 76.8452 78.9648 77.1889C79.1381 77.5298 79.3782 77.7898 79.685 77.9688C79.9918 78.1449 80.3484 78.233 80.7546 78.233C81.0188 78.233 81.2575 78.196 81.4705 78.1222C81.6864 78.0455 81.8725 77.9318 82.0288 77.7812C82.185 77.6278 82.3058 77.4375 82.391 77.2102L83.3626 77.483C83.2603 77.8125 83.0884 78.1023 82.8469 78.3523C82.6055 78.5994 82.3072 78.7926 81.9521 78.9318C81.5969 79.0682 81.1978 79.1364 80.7546 79.1364ZM86.0004 75.0625V79H84.9947V72.4545H85.9663V73.4773H86.0515C86.2049 73.1449 86.4379 72.8778 86.7504 72.6761C87.0629 72.4716 87.4663 72.3693 87.9606 72.3693C88.4038 72.3693 88.7915 72.4602 89.1239 72.642C89.4563 72.821 89.7148 73.0938 89.8995 73.4602C90.0842 73.8239 90.1765 74.2841 90.1765 74.8409V79H89.1708V74.9091C89.1708 74.3949 89.0373 73.9943 88.7702 73.7074C88.5032 73.4176 88.1367 73.2727 87.6708 73.2727C87.3498 73.2727 87.0629 73.3423 86.81 73.4815C86.56 73.6207 86.3626 73.8239 86.2177 74.0909C86.0728 74.358 86.0004 74.6818 86.0004 75.0625ZM96.6506 73.9205L95.7472 74.1761C95.6903 74.0256 95.6065 73.8793 95.4957 73.7372C95.3878 73.5923 95.2401 73.473 95.0526 73.3793C94.8651 73.2855 94.625 73.2386 94.3324 73.2386C93.9318 73.2386 93.598 73.331 93.331 73.5156C93.0668 73.6974 92.9347 73.929 92.9347 74.2102C92.9347 74.4602 93.0256 74.6577 93.2074 74.8026C93.3892 74.9474 93.6733 75.0682 94.0597 75.1648L95.0312 75.4034C95.6165 75.5455 96.0526 75.7628 96.3395 76.0554C96.6264 76.3452 96.7699 76.7187 96.7699 77.1761C96.7699 77.5511 96.6619 77.8864 96.446 78.1818C96.233 78.4773 95.9347 78.7102 95.5511 78.8807C95.1676 79.0511 94.7216 79.1364 94.2131 79.1364C93.5455 79.1364 92.9929 78.9915 92.5554 78.7017C92.1179 78.4119 91.8409 77.9886 91.7244 77.4318L92.679 77.1932C92.7699 77.5455 92.9418 77.8097 93.1946 77.9858C93.4503 78.1619 93.7841 78.25 94.196 78.25C94.6648 78.25 95.0369 78.1506 95.3125 77.9517C95.5909 77.75 95.7301 77.5085 95.7301 77.2273C95.7301 77 95.6506 76.8097 95.4915 76.6562C95.3324 76.5 95.0881 76.3835 94.7585 76.3068L93.6676 76.0511C93.0682 75.9091 92.6278 75.6889 92.3466 75.3906C92.0682 75.0895 91.929 74.7131 91.929 74.2614C91.929 73.892 92.0327 73.5653 92.2401 73.2812C92.4503 72.9972 92.7358 72.7741 93.0966 72.6122C93.4602 72.4503 93.8722 72.3693 94.3324 72.3693C94.9801 72.3693 95.4886 72.5114 95.858 72.7955C96.2301 73.0795 96.4943 73.4545 96.6506 73.9205ZM99.2894 75.0625V79H98.2837V70.2727H99.2894V73.4773H99.3746C99.5281 73.1392 99.7582 72.8707 100.065 72.6719C100.375 72.4702 100.787 72.3693 101.301 72.3693C101.747 72.3693 102.137 72.4588 102.473 72.6378C102.808 72.8139 103.068 73.0852 103.252 73.4517C103.44 73.8153 103.534 74.2784 103.534 74.8409V79H102.528V74.9091C102.528 74.3892 102.393 73.9872 102.123 73.7031C101.856 73.4162 101.485 73.2727 101.011 73.2727C100.681 73.2727 100.386 73.3423 100.125 73.4815C99.8661 73.6207 99.6616 73.8239 99.511 74.0909C99.3633 74.358 99.2894 74.6818 99.2894 75.0625ZM105.374 79V72.4545H106.379V79H105.374ZM105.885 71.3636C105.689 71.3636 105.52 71.2969 105.378 71.1634C105.239 71.0298 105.169 70.8693 105.169 70.6818C105.169 70.4943 105.239 70.3338 105.378 70.2003C105.52 70.0668 105.689 70 105.885 70C106.081 70 106.249 70.0668 106.388 70.2003C106.53 70.3338 106.601 70.4943 106.601 70.6818C106.601 70.8693 106.53 71.0298 106.388 71.1634C106.249 71.2969 106.081 71.3636 105.885 71.3636ZM108.221 81.4545V72.4545H109.193V73.4943H109.312C109.386 73.3807 109.488 73.2358 109.619 73.0597C109.752 72.8807 109.943 72.7216 110.19 72.5824C110.44 72.4403 110.778 72.3693 111.204 72.3693C111.755 72.3693 112.241 72.5071 112.662 72.7827C113.082 73.0582 113.41 73.4489 113.646 73.9545C113.882 74.4602 114 75.0568 114 75.7443C114 76.4375 113.882 77.0384 113.646 77.5469C113.41 78.0526 113.083 78.4446 112.666 78.723C112.248 78.9986 111.767 79.1364 111.221 79.1364C110.801 79.1364 110.464 79.0668 110.211 78.9276C109.958 78.7855 109.764 78.625 109.627 78.446C109.491 78.2642 109.386 78.1136 109.312 77.9943H109.227V81.4545H108.221ZM109.21 75.7273C109.21 76.2216 109.282 76.6577 109.427 77.0355C109.572 77.4105 109.784 77.7045 110.062 77.9176C110.341 78.1278 110.681 78.233 111.085 78.233C111.505 78.233 111.856 78.1222 112.137 77.9006C112.422 77.6761 112.635 77.375 112.777 76.9972C112.922 76.6165 112.994 76.1932 112.994 75.7273C112.994 75.267 112.923 74.8523 112.781 74.483C112.642 74.1108 112.43 73.8168 112.146 73.6009C111.865 73.3821 111.511 73.2727 111.085 73.2727C110.676 73.2727 110.332 73.3764 110.054 73.5838C109.775 73.7884 109.565 74.0753 109.423 74.4446C109.281 74.8111 109.21 75.2386 109.21 75.7273ZM119.045 79V70.2727H122.096C122.704 70.2727 123.206 70.3778 123.6 70.5881C123.995 70.7955 124.289 71.0753 124.483 71.4276C124.676 71.777 124.772 72.1648 124.772 72.5909C124.772 72.9659 124.706 73.2756 124.572 73.5199C124.441 73.7642 124.268 73.9574 124.052 74.0994C123.839 74.2415 123.608 74.3466 123.358 74.4148V74.5C123.625 74.517 123.893 74.6108 124.163 74.7812C124.433 74.9517 124.659 75.196 124.841 75.5142C125.022 75.8324 125.113 76.2216 125.113 76.6818C125.113 77.1193 125.014 77.5128 124.815 77.8622C124.616 78.2116 124.302 78.4886 123.873 78.6932C123.444 78.8977 122.886 79 122.199 79H119.045ZM120.102 78.0625H122.199C122.889 78.0625 123.379 77.929 123.669 77.6619C123.961 77.392 124.108 77.0653 124.108 76.6818C124.108 76.3864 124.032 76.1136 123.882 75.8636C123.731 75.6108 123.517 75.4091 123.238 75.2585C122.96 75.1051 122.63 75.0284 122.25 75.0284H120.102V78.0625ZM120.102 74.108H122.062C122.38 74.108 122.667 74.0455 122.923 73.9205C123.181 73.7955 123.386 73.6193 123.537 73.392C123.69 73.1648 123.767 72.8977 123.767 72.5909C123.767 72.2074 123.633 71.8821 123.366 71.6151C123.099 71.3452 122.676 71.2102 122.096 71.2102H120.102V74.108ZM128.64 79.1534C128.225 79.1534 127.848 79.0753 127.51 78.919C127.172 78.7599 126.904 78.5312 126.705 78.233C126.506 77.9318 126.407 77.5682 126.407 77.142C126.407 76.767 126.48 76.4631 126.628 76.2301C126.776 75.9943 126.973 75.8097 127.221 75.6761C127.468 75.5426 127.74 75.4432 128.039 75.3778C128.34 75.3097 128.642 75.2557 128.946 75.2159C129.344 75.1648 129.667 75.1264 129.914 75.1009C130.164 75.0724 130.346 75.0256 130.459 74.9602C130.576 74.8949 130.634 74.7812 130.634 74.6193V74.5852C130.634 74.1648 130.519 73.8381 130.289 73.6051C130.061 73.3722 129.716 73.2557 129.253 73.2557C128.773 73.2557 128.397 73.3608 128.124 73.571C127.851 73.7812 127.659 74.0057 127.549 74.2443L126.594 73.9034C126.765 73.5057 126.992 73.196 127.276 72.9744C127.563 72.75 127.875 72.5937 128.213 72.5057C128.554 72.4148 128.89 72.3693 129.219 72.3693C129.429 72.3693 129.671 72.3949 129.944 72.446C130.219 72.4943 130.485 72.5952 130.74 72.7486C130.999 72.902 131.213 73.1335 131.384 73.4432C131.554 73.7528 131.64 74.1676 131.64 74.6875V79H130.634V78.1136H130.583C130.515 78.2557 130.401 78.4077 130.242 78.5696C130.083 78.7315 129.871 78.8693 129.607 78.983C129.343 79.0966 129.02 79.1534 128.64 79.1534ZM128.793 78.25C129.191 78.25 129.526 78.1719 129.799 78.0156C130.074 77.8594 130.282 77.6577 130.421 77.4105C130.563 77.1634 130.634 76.9034 130.634 76.6307V75.7102C130.591 75.7614 130.498 75.8082 130.353 75.8509C130.211 75.8906 130.046 75.9261 129.858 75.9574C129.674 75.9858 129.493 76.0114 129.317 76.0341C129.144 76.054 129.003 76.071 128.895 76.0852C128.634 76.1193 128.39 76.1747 128.162 76.2514C127.938 76.3253 127.756 76.4375 127.617 76.5881C127.48 76.7358 127.412 76.9375 127.412 77.1932C127.412 77.5426 127.542 77.8068 127.8 77.9858C128.061 78.1619 128.392 78.25 128.793 78.25ZM136.134 79.1364C135.521 79.1364 134.992 78.9915 134.549 78.7017C134.106 78.4119 133.765 78.0128 133.526 77.5043C133.288 76.9957 133.168 76.4148 133.168 75.7614C133.168 75.0966 133.29 74.5099 133.535 74.0014C133.782 73.4901 134.126 73.0909 134.566 72.804C135.009 72.5142 135.526 72.3693 136.117 72.3693C136.577 72.3693 136.992 72.4545 137.362 72.625C137.731 72.7955 138.033 73.0341 138.269 73.3409C138.505 73.6477 138.651 74.0057 138.708 74.4148H137.702C137.626 74.1165 137.455 73.8523 137.191 73.6222C136.93 73.3892 136.577 73.2727 136.134 73.2727C135.742 73.2727 135.398 73.375 135.103 73.5795C134.81 73.7812 134.582 74.0668 134.417 74.4361C134.255 74.8026 134.174 75.233 134.174 75.7273C134.174 76.233 134.254 76.6733 134.413 77.0483C134.575 77.4233 134.802 77.7145 135.094 77.9219C135.39 78.1293 135.737 78.233 136.134 78.233C136.396 78.233 136.633 78.1875 136.846 78.0966C137.059 78.0057 137.239 77.875 137.387 77.7045C137.535 77.5341 137.64 77.3295 137.702 77.0909H138.708C138.651 77.4773 138.511 77.8253 138.286 78.1349C138.065 78.4418 137.771 78.6861 137.404 78.8679C137.04 79.0469 136.617 79.1364 136.134 79.1364ZM141.116 76.6136L141.099 75.3693H141.303L144.167 72.4545H145.411L142.36 75.5398H142.275L141.116 76.6136ZM140.178 79V70.2727H141.184V79H140.178ZM144.337 79L141.781 75.7614L142.496 75.0625L145.616 79H144.337Z" fill="black"/>
</svg>
