<svg height="200px" width="200px" version="1.1" id="Layer_1" xmlns="http://www.w3.org/2000/svg" xmlns:xlink="http://www.w3.org/1999/xlink" viewBox="0 0 512.001 512.001" xml:space="preserve" fill="#000000"><g id="SVGRepo_bgCarrier" stroke-width="0"></g><g id="SVGRepo_tracerCarrier" stroke-linecap="round" stroke-linejoin="round"></g><g id="SVGRepo_iconCarrier"> <g> <path style="fill:#82C35F;" d="M345.366,72.629c-3.814,0.429-7.819,1.316-11.662,0.94c-4.6-0.451-8.917-2.298-12.744-4.832 c-4.896-1.011-9.849-2.203-14.435-4.239c-8.912-3.957-15.974-14.011-22.915-20.613c-8.313-7.906-17.178-17.101-27.518-22.359 c-7.701-3.917-16.086,5.014-21.54,9.591c-9.358,7.853-18.157,16.403-26.704,25.125c-3.754,3.83-7.059,7.027-12.246,9.023 c-5.76,4.935-13.197,9.136-21.039,8.255c-4.033-0.453-8.308-1.41-12.365-1.388c-9.498,1.333-19.011,2.589-28.448,4.311 c-15.003,2.737-34.279,6.275-45.036,18.159c-2.663,2.941-5.668,5.593-9.021,7.724c-0.683,0.434-7.692,3.693-7.689,3.758 c0.055,1.111,0.11,2.223,0.165,3.334c0.302,6.103,0.604,12.206,0.906,18.309c1.044,21.107,2.089,42.214,3.133,63.32 c1.997,40.365,3.793,80.343,3.793,120.761c0,10.458,2.35,20.635,3.183,31.09c0.66,8.288,0.774,16.421,3.59,24.321 c5.739,16.102,16.637,30.444,27.703,43.244c25.697,29.725,60.839,54.007,96.881,69.582c15.126,6.537,32.124,12.077,48.824,10.789 c20.421-1.575,39.762-12.036,57.583-21.328c32.501-16.944,62.029-44.182,83.512-73.809c7.601-10.482,15.137-22.307,17.871-35.151 c3.549-16.674,1.122-33.959,7.954-50.083c1.618-3.818,4.896-7.16,4.896-11.265c0-5.248,0-10.495,0-15.743 c0-5.487-0.233-11.026,0.038-16.507c0.225-4.544,0.45-9.087,0.674-13.631c2.038-41.195,4.076-82.389,6.114-123.584 c0.385-7.774,0.77-15.548,1.154-23.322c0.087-1.768-19.2-7.174-21.087-7.84C394.384,89.924,369.875,81.276,345.366,72.629z"></path> <path style="fill:#82C35F;" d="M418.893,98.571c-15.899-5.61-31.798-11.22-47.697-16.83L368,86.001l-87.999,231.997h-47.999 L144.003,86.001l-7.521-10.027c-0.909,0.157-1.82,0.301-2.729,0.466c-15.003,2.737-34.279,6.275-45.036,18.159 c-2.663,2.941-5.668,5.593-9.021,7.724c-0.683,0.434-7.692,3.693-7.689,3.758c0.055,1.111,0.11,2.223,0.165,3.334 c0.302,6.103,0.604,12.206,0.906,18.309c1.044,21.107,2.089,42.214,3.133,63.32c1.997,40.365,3.793,80.343,3.793,120.761 c0,10.458,2.35,20.635,3.183,31.09c0.66,8.287,0.774,16.421,3.59,24.321c5.739,16.102,16.636,30.444,27.703,43.244 c25.697,29.725,60.839,54.007,96.881,69.582c15.126,6.537,32.124,12.077,48.824,10.789c20.421-1.575,39.762-12.036,57.583-21.328 c32.501-16.944,62.029-44.182,83.512-73.809c7.601-10.482,15.137-22.307,17.871-35.151c3.549-16.674,1.122-33.959,7.954-50.083 c1.618-3.818,4.896-7.16,4.896-11.265c0-5.248,0-10.495,0-15.743c0-5.487-0.233-11.026,0.038-16.507 c0.225-4.544,0.45-9.087,0.674-13.631c2.038-41.195,4.076-82.389,6.114-123.584c0.385-7.774,0.77-15.548,1.154-23.322 C440.067,104.644,420.781,99.237,418.893,98.571z"></path> </g> <path style="fill:#96CD78;" d="M333.706,73.569c-2.307-0.226-4.542-0.804-6.681-1.643c-28.085,13.638-52.295,30.077-71.022,30.077 c-18.726,0-42.933-16.436-71.013-30.072c-3.308,1.318-6.82,1.993-10.422,1.589l-38.085,2.456l7.521,10.027L232.003,318h47.999 l87.999-231.997l3.195-4.26L333.706,73.569z"></path> <path style="fill:#73AF55;" d="M85.003,349.999c0,2.78,0,5.56,0,8.34c0,44.479,102.477,133.437,166.998,133.437 S419,402.819,419,358.339c0-2.78,0-5.56,0-8.34H85.003z"></path> <path style="fill:#F0E178;" d="M411.762,373.999c-0.842,0-1.698-0.086-2.561-0.258c-39.64-8.094-114.576-15.742-154.201-15.742 s-114.562,7.648-154.202,15.742c-7.723,1.547-15.155-4.195-16.567-12.883c-1.405-8.688,3.729-17.023,11.474-18.602 c41.679-8.508,117.603-16.258,159.295-16.258s117.617,7.75,159.294,16.258c7.745,1.578,12.879,9.914,11.474,18.602 C424.515,368.585,418.518,373.999,411.762,373.999z"></path> <g> <path style="fill:#96CD78;" d="M135.115,202.502c-4.746,52.756-24.974,92.638-64.541,89.078 c-39.568-3.56-67.795-49.212-63.049-101.969c4.746-52.755,40.67-92.638,80.236-89.078 C127.329,104.093,139.861,149.747,135.115,202.502z"></path> <path style="fill:#96CD78;" d="M374.888,202.502c4.747,52.756,24.975,92.638,64.541,89.078 c39.567-3.56,67.795-49.212,63.049-101.969c-4.747-52.755-40.669-92.638-80.236-89.078 C382.674,104.093,370.142,149.747,374.888,202.502z"></path> </g> <circle style="fill:#F0E178;" cx="78.111" cy="188.708" r="40"></circle> <circle style="fill:#464655;" cx="78.111" cy="188.708" r="24"></circle> <circle style="fill:#F0E178;" cx="430.056" cy="188.708" r="40"></circle> <circle style="fill:#464655;" cx="430.056" cy="188.708" r="24"></circle> <g> <path style="fill:#96A087;" d="M178.095,210.024c12.008,41.289,23.351,80.296,41.625,102.218c3.164,3.797,7.711,5.758,12.297,5.758 c3.609,0,7.242-1.219,10.234-3.711c6.789-5.656,7.703-15.742,2.047-22.531c-13.992-16.789-24.914-54.351-35.477-90.671 c-14.275-49.08-28.929-99.442-56.025-127.637c-6.362,0.898-12.72,1.838-19.042,2.991c-7.521,1.373-16.117,2.947-24.176,5.673 c1.39,1.198,2.997,2.189,4.814,2.872C145.08,96.486,162.619,156.807,178.095,210.024z"></path> <path style="fill:#96A087;" d="M267.706,291.758c-5.656,6.789-4.742,16.875,2.047,22.531c2.992,2.492,6.625,3.711,10.234,3.711 c4.586,0,9.133-1.961,12.297-5.758c18.273-21.922,29.617-60.929,41.625-102.218c14.257-49.025,30.265-104.076,56.689-121.437 c-11.405-4.024-22.811-8.048-34.216-12.072c-25.307,28.682-39.429,77.224-53.2,124.572 C292.62,237.407,281.698,274.969,267.706,291.758z"></path> </g> <g> <ellipse style="fill:#F0E178;" cx="351.997" cy="285.997" rx="8" ry="16"></ellipse> <path style="fill:#F0E178;" d="M256.001,497.998c-6.625,0-12-5.375-12-12v-79.999c0-6.625,5.375-12,12-12c6.625,0,12,5.375,12,12 v79.999C268.001,492.623,262.626,497.998,256.001,497.998z"></path> </g> <path d="M110.09,188.71c0-17.632-14.345-31.978-31.978-31.978s-31.978,14.345-31.978,31.978s14.345,31.978,31.978,31.978 S110.09,206.342,110.09,188.71z M62.136,188.71c0-8.81,7.167-15.978,15.978-15.978s15.978,7.167,15.978,15.978 c0,8.811-7.167,15.978-15.978,15.978S62.136,197.52,62.136,188.71z"></path> <path d="M156.096,307.959c7.399,0,11.996-7.659,11.996-19.989s-4.597-19.989-11.996-19.989c-7.399,0-11.996,7.659-11.996,19.989 S148.697,307.959,156.096,307.959z"></path> <path d="M511.445,188.895c-2.339-26.004-11.978-50.176-27.138-68.065c-15.585-18.39-35.527-28.518-56.152-28.518 c-0.002,0-0.005,0-0.007,0c-14.709-18.842-47.802-23.451-77.212-27.542c-17.087-2.377-36.454-5.072-41.156-10.068 c-2.925-3.107-12.799-13.249-23.228-22.732C266.514,13.749,260.275,12.223,256,12.223c-4.275,0-10.514,1.526-30.553,19.748 c-10.429,9.483-20.304,19.625-23.228,22.732c-4.702,4.996-24.069,7.69-41.156,10.068c-29.41,4.091-62.503,8.701-77.212,27.542 c-0.002,0-0.005,0-0.007,0c-20.625,0-40.567,10.128-56.152,28.518c-15.16,17.889-24.798,42.062-27.138,68.065 c-2.45,27.228,3.258,53.635,16.071,74.357c10.576,17.105,24.965,28.758,41.364,33.773c0.694,0.85,1.569,1.575,2.614,2.097 c15.991,7.996,17.493,28.777,19.083,50.778c0.161,2.229,0.321,4.448,0.497,6.644c1.834,22.921,26.348,57.964,62.453,89.276 c18.707,16.224,67.201,53.957,113.363,53.957s94.656-37.735,113.363-53.957c36.105-31.312,60.619-66.354,62.453-89.276 c0.176-2.196,0.336-4.415,0.497-6.644c1.59-22.001,3.092-42.782,19.083-50.778c1.045-0.522,1.92-1.247,2.614-2.097 c16.398-5.015,30.788-16.668,41.363-33.773C508.187,242.531,513.895,216.123,511.445,188.895z M16.492,190.329 c4.138-45.99,33.724-82.016,67.354-82.016c1.394,0,2.806,0.064,4.198,0.189c15.435,1.389,26.739,10.667,33.598,27.575 c6.648,16.389,8.897,39.111,6.504,65.709c-2.218,24.66-11.7,82.016-51.736,82.016c-1.341,0-2.727-0.064-4.119-0.189 C37.18,280.454,12.148,238.607,16.492,190.329z M415.869,355.267c-1.47,18.375-24.904,50.641-56.986,78.464 c-36.135,31.337-74.594,50.045-102.881,50.045s-66.746-18.709-102.881-50.045c-32.083-27.824-55.516-60.089-56.986-78.464 c-0.172-2.156-0.33-4.334-0.488-6.521c-1.232-17.051-2.591-35.69-11.614-49.47c33.192-4.514,54.911-38.946,60.049-96.058 c2.62-29.123-0.013-54.42-7.614-73.157c-7.003-17.262-18.147-28.897-32.642-34.294c2.374-1.492,5.048-2.833,7.96-4.041 c1.275-0.308,6.195-0.412,12.986,3.864c11.252,7.083,31.263,28.636,38.863,93.406c9.652,82.256,28.836,108.741,39.412,117.207 c1.476,1.181,3.241,1.755,4.995,1.755c2.346,0,4.67-1.027,6.25-3.001c2.761-3.449,2.203-8.484-1.246-11.245 c-5.44-4.355-23.937-24.912-33.521-106.581c-7.359-62.707-26.363-90.311-42.387-102.422c8.717-1.668,17.75-2.927,26.131-4.093 c23.486-3.268,42.037-5.849,50.602-14.949c12.936-13.745,35.149-34.444,42.129-37.271c6.98,2.828,29.193,23.526,42.128,37.271 c8.566,9.101,27.116,11.682,50.602,14.949c8.381,1.166,17.415,2.425,26.131,4.093c-16.024,12.111-35.028,39.715-42.387,102.422 c-9.584,81.669-28.08,102.226-33.521,106.581c-3.449,2.761-4.007,7.796-1.246,11.245c1.58,1.974,3.905,3.001,6.25,3.001 c1.754,0,3.519-0.574,4.995-1.755c10.576-8.466,29.76-34.951,39.412-117.207c7.601-64.77,27.611-86.323,38.863-93.406 c6.789-4.274,11.708-4.172,12.985-3.864c2.912,1.208,5.586,2.548,7.961,4.041c-14.494,5.397-25.639,17.032-32.642,34.294 c-7.601,18.737-10.234,44.034-7.614,73.157c5.138,57.109,26.857,91.541,60.049,96.057c-9.023,13.781-10.382,32.42-11.614,49.471 C416.199,350.934,416.041,353.112,415.869,355.267z M439.712,283.613c-1.392,0.125-2.776,0.189-4.114,0.189 c-0.001,0-0.003,0-0.004,0c-40.038-0.004-49.52-57.357-51.738-82.016c-2.393-26.599-0.144-49.32,6.504-65.709 c6.859-16.909,18.164-26.187,33.598-27.575c1.392-0.125,2.805-0.189,4.198-0.189c33.631,0,63.216,36.026,67.354,82.016 C499.854,238.607,474.823,280.454,439.712,283.613z"></path> <path d="M430.056,156.733c-17.632,0-31.978,14.345-31.978,31.978s14.345,31.978,31.978,31.978s31.978-14.345,31.978-31.978 S447.688,156.733,430.056,156.733z M430.056,204.687c-8.81,0-15.978-7.167-15.978-15.978c0-8.811,7.167-15.978,15.978-15.978 s15.978,7.167,15.978,15.978C446.034,197.52,438.866,204.687,430.056,204.687z"></path> <path d="M401.601,348.096c-38.097-8.465-107.495-16.175-145.599-16.175s-107.503,7.71-145.599,16.175 c-4.313,0.958-7.033,5.232-6.074,9.545c0.829,3.729,4.134,6.267,7.802,6.267c0.574,0,1.159-0.063,1.743-0.192 c36.535-8.119,105.607-15.794,142.128-15.794s105.594,7.676,142.128,15.794c0.584,0.13,1.168,0.192,1.743,0.192 c3.667,0,6.974-2.538,7.802-6.267C408.634,353.328,405.914,349.055,401.601,348.096z"></path> <path d="M304.057,364.474c-11.475,4.638-33.445,7.409-48.055,7.409c-14.611,0-36.582-2.771-48.055-7.409 c-4.095-1.653-8.759,0.323-10.415,4.419c-1.656,4.097,0.323,8.759,4.419,10.415c13.929,5.63,37.735,8.575,54.051,8.575 c16.317,0,40.124-2.945,54.051-8.575c4.096-1.656,6.075-6.318,4.419-10.415C312.816,364.796,308.154,362.819,304.057,364.474z"></path> <path d="M355.907,307.959c7.399,0,11.996-7.659,11.996-19.989s-4.597-19.989-11.996-19.989c-7.399,0-11.996,7.659-11.996,19.989 S348.507,307.959,355.907,307.959z"></path> </g></svg>