<?xml version="1.0" encoding="utf-8"?>
<!-- Generator: Adobe Illustrator 27.5.0, SVG Export Plug-In . SVG Version: 6.00 Build 0)  -->
<svg version="1.1" xmlns="http://www.w3.org/2000/svg" xmlns:xlink="http://www.w3.org/1999/xlink" x="0px" y="0px"
	 viewBox="0 0 650 500" style="enable-background:new 0 0 650 500;" xml:space="preserve">
<g id="OBJECTS">
	<g>
		<path style="fill:#E3EFFF;" d="M57.577,363.051c7.007,7.571,14.583,14.389,22.606,20.578c2.362,1.822,13.364,0,16.178,0
			c37.654,0,75.308,0,112.963,0c54.741,0,109.481,0,164.222,0c49.308,0,98.617,0,147.925,0c15.58,0,31.16,0,46.74,0
			c3.991,0,11.499,1.378,15.201-0.234c7.798-3.395,4.242-18.966,3.532-26.068c-1.101-11.008-3.68-22.016-9.571-31.509
			c-16.088-25.921-44.226-35.177-66.379-54.363c-21.645-18.746-36.648-43.788-54.436-66.227
			c-13.888-17.519-29.609-33.585-46.823-47.851c-10.972-9.092-22.844-17.604-36.495-21.69c-11.944-3.575-24.694-3.577-37.08-2.159
			c-36.298,4.156-71.076,20.614-97.303,46.048c-29.611,28.715-54.192,71.324-93.265,88.118c-21.4,9.198-45.544,10.433-66.993,19.515
			c-21.449,9.082-40.999,31.065-34.977,53.565C45.91,349.325,51.564,356.555,57.577,363.051z"/>
		<path style="fill:#E3EFFF;" d="M568.694,292.969c4.14,0.694,8.573,0.673,12.323-1.215c1.878-0.945,3.65-2.567,3.83-4.661
			c0.081-0.94-0.17-1.877-0.477-2.769c-2.585-7.514-9.031-12.966-15.459-17.638c-4.799-3.488-10.027-6.868-15.934-7.424
			c-12.46-1.173-16.087,8.666-9.677,17.639C549.264,285.252,558.543,291.267,568.694,292.969z"/>
		<g>
			<path style="fill:#6D89C9;" d="M218.493,227.389c-36.799-9.347-47.142-28.784-47.142-28.784H167.1h-33.964h-13.481
				c0,0-10.344,19.438-47.142,28.784c0,0-24.39,96.973,69.61,155.617h6.76C242.883,324.363,218.493,227.389,218.493,227.389z"/>
			<path style="fill:#5872B4;" d="M206.908,237.454c-30.958-7.863-39.66-24.216-39.66-24.216h-3.576h-28.574h-11.341
				c0,0-8.702,16.353-39.66,24.216c0,0-20.519,81.583,58.562,130.919h5.687C227.428,319.037,206.908,237.454,206.908,237.454z"/>
			<path style="fill:#BED1F9;" d="M201.942,241.769c-28.454-7.227-36.453-22.257-36.453-22.257h-3.287H135.94h-10.424
				c0,0-7.998,15.03-36.453,22.257c0,0-18.86,74.985,53.826,120.331h5.227C220.802,316.754,201.942,241.769,201.942,241.769z"/>
			
				<ellipse transform="matrix(0.2269 -0.9739 0.9739 0.2269 -163.6472 360.924)" style="fill:#A1BAF0;" cx="145.503" cy="283.534" rx="48.941" ry="48.941"/>
			
				<ellipse transform="matrix(0.9925 -0.1222 0.1222 0.9925 -33.5529 19.9023)" style="fill:#DDE8FA;" cx="145.503" cy="283.534" rx="41.224" ry="41.224"/>
			<polygon style="fill:#6D89C9;" points="125.484,286.185 143.229,297.116 165.801,258.329 169.857,261.06 146.422,308.74 
				121.149,294.849 			"/>
		</g>
		<g>
			<g>
				<polygon style="fill:#6D89C9;" points="532.235,221.2 540.752,217.711 543.044,210.475 538.091,202.717 546.608,199.228 
					548.9,191.992 543.947,184.235 552.464,180.746 556.093,169.29 553.444,148.145 540.228,143.958 526.515,159.918 
					483.362,296.115 512.941,305.487 537.188,228.958 				"/>
				<path style="fill:#5672B3;" d="M488.505,279.883l-5.143,16.232l29.579,9.372l5.636-17.787
					c-8.629-4.975-18.631-7.836-29.307-7.836C489.013,279.864,488.761,279.88,488.505,279.883z"/>
				
					<rect x="443.348" y="228.59" transform="matrix(0.302 -0.9533 0.9533 0.302 140.0365 652.4067)" style="fill:#5672B3;" width="144.414" height="3.961"/>
				<path style="fill:#486096;" d="M495.634,300.004l5.963-18.821c-1.296-0.278-2.606-0.515-3.931-0.705l-5.808,18.33
					L495.634,300.004z"/>
			</g>
			<path style="fill:#BED1F9;" d="M489.27,286.558c-28.522,0-51.644,23.122-51.644,51.644c0,19.507,10.818,36.482,26.779,45.268
				h49.729c15.961-8.786,26.779-25.761,26.779-45.268C540.914,309.68,517.792,286.558,489.27,286.558z M489.27,365.766
				c-15.223,0-27.564-12.341-27.564-27.564c0-15.223,12.341-27.564,27.564-27.564c15.223,0,27.564,12.341,27.564,27.564
				C516.834,353.425,504.493,365.766,489.27,365.766z"/>
			<path style="fill:#A1BAF0;" d="M489.27,381.398c23.856,0,43.196-19.339,43.196-43.196c0-23.857-19.339-43.196-43.196-43.196
				c-23.856,0-43.196,19.339-43.196,43.196C446.074,362.059,465.414,381.398,489.27,381.398z M489.27,308.091
				c16.63,0,30.111,13.481,30.111,30.111c0,16.63-13.481,30.111-30.111,30.111c-16.63,0-30.111-13.481-30.111-30.111
				C459.159,321.572,472.64,308.091,489.27,308.091z"/>
			<path style="fill:#6D89C9;" d="M489.27,377.744c21.838,0,39.541-17.703,39.541-39.541s-17.703-39.542-39.541-39.542
				c-21.838,0-39.542,17.703-39.542,39.542S467.432,377.744,489.27,377.744z M489.27,310.638c15.223,0,27.564,12.341,27.564,27.564
				c0,15.223-12.341,27.564-27.564,27.564c-15.223,0-27.564-12.341-27.564-27.564C461.706,322.979,474.047,310.638,489.27,310.638z"
				/>
		</g>
		<g>
			<path style="fill:#BED1F9;" d="M598.408,336.25c0-0.62-0.041-1.229-0.093-1.835l5.878-2.832l-2.451-7.543l-6.428,1.165
				c-0.635-1.051-1.351-2.044-2.152-2.967l3.093-5.75l-6.416-4.662l-4.496,4.7c-1.12-0.475-2.296-0.838-3.505-1.118l-0.878-6.467
				h-7.931l-0.878,6.467c-1.208,0.28-2.384,0.643-3.505,1.118l-4.496-4.7l-6.417,4.662l3.093,5.75
				c-0.8,0.923-1.516,1.916-2.152,2.967l-6.428-1.165l-2.451,7.543l5.878,2.832c-0.052,0.606-0.093,1.216-0.093,1.835
				c0,0.62,0.041,1.229,0.093,1.835l-5.878,2.832l2.451,7.543l6.428-1.165c0.635,1.051,1.351,2.044,2.152,2.967l-3.093,5.75
				l6.417,4.662l4.496-4.7c1.12,0.475,2.296,0.838,3.505,1.118l0.878,6.467h7.931l0.878-6.467c1.208-0.28,2.384-0.643,3.505-1.118
				l4.496,4.7l6.416-4.662l-3.093-5.75c0.8-0.923,1.516-1.916,2.152-2.967l6.428,1.165l2.451-7.543l-5.878-2.832
				C598.367,337.479,598.408,336.87,598.408,336.25z M576.995,348.216c-6.609,0-11.966-5.357-11.966-11.966
				c0-6.609,5.357-11.966,11.966-11.966c6.609,0,11.966,5.357,11.966,11.966C588.961,342.859,583.604,348.216,576.995,348.216z"/>
			<path style="fill:#A1BAF0;" d="M576.995,353.748c9.664,0,17.498-7.834,17.498-17.498c0-9.664-7.834-17.498-17.498-17.498
				c-9.664,0-17.498,7.834-17.498,17.498C559.497,345.914,567.331,353.748,576.995,353.748z M576.995,324.284
				c6.609,0,11.966,5.357,11.966,11.966c0,6.609-5.358,11.966-11.966,11.966c-6.609,0-11.966-5.357-11.966-11.966
				C565.029,329.641,570.386,324.284,576.995,324.284z"/>
		</g>
		<g>
			<rect x="522.103" y="259.718" style="fill:#FFBA53;" width="45.249" height="8.686"/>
			<rect x="519.519" y="242.346" style="fill:#FFBA53;" width="45.248" height="8.686"/>
			<rect x="523.703" y="233.66" style="fill:#FFD353;" width="45.248" height="8.686"/>
			<rect x="514.976" y="251.032" style="fill:#FFD353;" width="45.248" height="8.686"/>
		</g>
		<g>
			<path style="fill:#6D89C9;" d="M419.195,160.988l-38.165-9.381c-2.093-0.514-3.372-2.628-2.858-4.72l5.145-20.932
				c0.514-2.093,2.628-3.372,4.72-2.858l38.165,9.381c2.093,0.514,3.372,2.628,2.858,4.72l-5.145,20.932
				C423.401,160.223,421.288,161.502,419.195,160.988z"/>
			<circle style="fill:#B1C9F1;" cx="403.616" cy="142.043" r="13.324"/>
			<path style="fill:#FFFFFF;" d="M396.395,146.553l2.847-11.581c0.245-0.999,1.448-1.4,2.244-0.749l10.55,8.629
				c0.905,0.74,0.557,2.198-0.585,2.449l-13.396,2.952C397.042,148.477,396.147,147.56,396.395,146.553z"/>
		</g>
		<path style="fill:#B1C9F1;" d="M367.236,142.603l-20.223-4.971c-1.053-0.259-1.696-1.322-1.438-2.374l2.784-11.327
			c0.259-1.052,1.322-1.696,2.374-1.437l20.223,4.971c1.053,0.259,1.696,1.322,1.438,2.374l-2.784,11.327
			C369.352,142.218,368.289,142.861,367.236,142.603z"/>
		<path style="fill:#BED1F9;" d="M419.051,117.889l-16.598-4.08c-1.053-0.259-1.696-1.322-1.438-2.374l2.223-9.044
			c0.259-1.053,1.322-1.696,2.374-1.437l16.598,4.08c1.053,0.259,1.696,1.322,1.438,2.374l-2.223,9.044
			C421.167,117.504,420.104,118.147,419.051,117.889z"/>
		<g>
			<path style="fill:#6D89C9;" d="M381.777,265.941l-93.491-22.979c-3.122-0.768-5.031-3.921-4.264-7.043l21.121-85.932
				c0.767-3.122,3.921-5.031,7.043-4.264l93.491,22.979c3.122,0.768,5.031,3.921,4.264,7.043l-21.121,85.932
				C388.053,264.799,384.9,266.708,381.777,265.941z"/>
			<path style="fill:#5672B3;" d="M379.901,261.667l-87.97-21.622c-2.507-0.616-4.039-3.148-3.423-5.654l19.902-80.97
				c0.616-2.507,3.148-4.039,5.654-3.423l87.97,21.622c2.507,0.616,4.039,3.148,3.423,5.654l-19.902,80.97
				C384.939,260.75,382.407,262.283,379.901,261.667z"/>
			<path style="fill:#E3EDF7;" d="M378.325,259.271l-83.888-20.619c-2.507-0.616-4.039-3.148-3.423-5.654l18.971-77.182
				c0.616-2.507,3.147-4.039,5.654-3.423l83.888,20.619c2.506,0.616,4.039,3.148,3.423,5.654l-18.971,77.182
				C383.363,258.355,380.832,259.887,378.325,259.271z"/>
			<path style="fill:#FFFFFF;" d="M391.454,188.729c0,6.342-5.141,11.483-11.483,11.483c-6.342,0-11.483-5.141-11.483-11.483
				c0-6.342,5.141-11.483,11.483-11.483C386.313,177.246,391.454,182.387,391.454,188.729z"/>
			<path style="fill:#A7BDE3;" d="M332.992,188.077c-9.516-3.683-36.33,20.309-36.33,20.309v0l-5.765,23.454
				c-0.594,2.418,0.884,4.86,3.302,5.454l60.353,14.834l9.514-5.048l-15.915-24.036C348.151,223.045,340.43,190.955,332.992,188.077
				z"/>
			<path style="fill:#B1C9F1;" d="M369.061,208.731c-8.495,0.415-41.341,25.17-49.585,36.075l59.372,14.593
				c2.218,0.545,4.457-0.811,5.002-3.029l7.012-28.526C386.005,221.202,375.753,208.405,369.061,208.731z"/>
			<path style="fill:#BED1F1;" d="M305.462,241.362c0,0,30.521-28.444,39.343-30.516c8.821-2.072,22.361,45.682,22.361,45.682
				L305.462,241.362z"/>
			<path style="fill:#C9D9F5;" d="M317.005,208.725c-1.833-1.337-12.618,5.934-23.453,13.949l-2.538,10.324
				c-0.616,2.507,0.917,5.038,3.423,5.654l29.94,7.359l0,0C324.378,246.012,320.87,211.546,317.005,208.725z"/>
			<path style="fill:#C9D9F5;" d="M379.288,231.886c-4.717-0.454-33.271,19.444-33.271,19.444l0,0l32.308,7.941
				c2.507,0.616,5.038-0.916,5.654-3.423l3.446-14.019C384.996,236.724,382.598,232.205,379.288,231.886z"/>
		</g>
		<g>
			<circle style="fill:#FFD353;" cx="249.302" cy="191.476" r="59.295"/>
			<path style="fill:#FFE692;" d="M307.827,200.989l-46.304-9.842l45.9-11.444c-0.365-1.81-0.818-3.587-1.343-5.333l-45.888,11.441
				l36.189-30.366c-1.117-1.457-2.297-2.861-3.541-4.207l-36.182,30.361l19.204-43.133c-1.633-0.82-3.31-1.564-5.025-2.234
				l-18.785,42.193v-46.174c-0.912-0.042-1.827-0.07-2.75-0.07s-1.838,0.028-2.75,0.07v47.2l-20.7-42.442
				c-1.69,0.729-3.341,1.529-4.945,2.405l20.703,42.448l-37.218-29.078c-1.197,1.388-2.329,2.831-3.395,4.326l37.227,29.085
				l-46.266-9.834c-0.463,1.762-0.84,3.557-1.142,5.379l46.264,9.834l-45.94,11.454c0.358,1.811,0.803,3.59,1.321,5.338
				l45.949-11.456l-36.298,30.458c1.112,1.46,2.288,2.869,3.528,4.218l36.305-30.464l-19.288,43.322
				c1.632,0.823,3.307,1.57,5.021,2.242l18.873-42.39v46.405c0.912,0.042,1.827,0.07,2.75,0.07s1.838-0.028,2.75-0.07V203.27
				l20.793,42.632c1.688-0.731,3.338-1.535,4.941-2.414l-20.791-42.628l37.337,29.171c1.193-1.391,2.32-2.838,3.381-4.337
				l-37.333-29.168l46.328,9.847C307.164,204.61,307.533,202.812,307.827,200.989z"/>
			<circle style="fill:#EE9F53;" cx="249.302" cy="191.476" r="49.886"/>
			
				<ellipse transform="matrix(0.9282 -0.372 0.372 0.9282 -53.3375 106.4828)" style="fill:#FFBA53;" cx="249.302" cy="191.476" rx="46.744" ry="46.744"/>
		</g>
		<polygon style="fill:#E38F6F;" points="427.266,362.191 425.353,376.776 417.622,376.218 418.818,361.713 		"/>
		<path style="fill:#5A4868;" d="M436.703,178.291c-1.646-2.487-2.137-5.705-1.307-8.57c0.829-2.864,2.964-5.323,5.683-6.546
			c1.266-0.57,2.733-0.876,4.043-0.413c1.182,0.418,2.08,1.401,3.217,1.927c1.885,0.873,4.242,0.417,5.998,1.527
			c1.358,0.859,2.039,2.471,2.398,4.037c0.359,1.566,0.482,3.201,1.1,4.684c0.813,1.952,2.407,3.462,4.028,4.82
			c0.739,0.619,1.504,1.232,2.047,2.028c0.915,1.341,1.086,3.157,0.438,4.646c-1.172,2.693-1.131,5.773-0.572,8.657
			c1.04,5.371,3.116,10.478,5.181,15.545c0.611,1.5,0.801,3.021,0.984,4.63c0.105,0.92,0.09,1.979-0.592,2.606
			c-0.642,0.59-1.666,0.585-2.328,1.153c-0.832,0.713-0.771,1.983-1.012,3.051c-0.357,1.579-1.564,2.94-3.09,3.482
			c-1.526,0.542-3.321,0.248-4.594-0.752c-1.692-1.33-2.293-3.579-2.88-5.649c-1.509-5.319-3.571-10.462-5.629-15.593
			c-1.621-4.04-2.417-8.442-3.622-12.626c-0.745-2.586-1.505-5.208-2.91-7.503C441.877,181.139,439.333,178.862,436.703,178.291z"/>
		<polygon style="fill:#E38F6F;" points="502.55,299.548 517.231,299.628 517.201,307.379 502.649,307.175 		"/>
		<path style="fill:#58B9D6;" d="M525.87,327.876l-2.096-30.691c0,0-2.694-0.854-5.486,0.375c-2.792,1.229-4.165,1.003-3.728,2.731
			c0.437,1.728,2.293,2,1.601,3.565c-0.692,1.565-1.326,2.806-0.683,4.041c0.643,1.234,3.314,2.603,4.825,7.818
			c1.702,5.875,2.357,8.518,2.588,9.489C523.565,328.034,525.87,327.876,525.87,327.876z"/>
		<path style="fill:#B7E6F1;" d="M523.372,326.385c0.925,1.573,2.498,1.491,2.498,1.491l-2.096-30.691c0,0-1.005-0.312-2.416-0.283
			L523.372,326.385z"/>
		<path style="fill:#4E4C71;" d="M457.072,240.015c0,0,3.233,7.658,0,27.256c-2.55,15.461,0,32.516,0,32.516
			s38.414-2.71,50.847-0.797v9.763c0,0-31.719,1.714-42.08,2.192c-10.361,0.478-17.215,0.159-19.287-4.463
			c-2.072-4.622-4.463-26.778-4.463-26.778s-4.144,12.114-5.579,15.78c-1.434,3.666-1.434,3.347-1.594,4.463
			c-0.159,1.116,1.116,18.012-3.188,41.283c-4.304,23.272-3.985,26.3-3.985,26.3s-7.173,1.594-10.839-1.594
			c0,0,3.029-45.427,4.463-56.904c1.435-11.477,3.507-30.923,5.26-39.37c1.753-8.448,3.958-28.691,3.892-30.604
			C430.453,237.146,457.072,240.015,457.072,240.015z"/>
		<path style="fill:#58B9D6;" d="M446.744,188.954c0,0,9.85,6.83,12.241,10.536c2.391,3.706,1.674,8.189,0.299,13.449
			c-1.375,5.26-1.733,18.828-1.494,23.371c0.239,4.543,0.239,4.543,0.239,4.543s0.167,0.478-5.535,1.315
			c-5.702,0.837-10.126-1.554-13.353-1.315c-3.228,0.239-10.161-0.239-10.161-0.239s0.717-10.879,0-11.357
			c-0.717-0.478-14.345,1.076-25.941-1.554l0.956-5.977c0,0,10.64,0.837,14.345,0.239c3.706-0.598,11.118-1.196,11.118-1.196
			s-0.359-3.826-0.598-6.694c-0.239-2.869,0.12-8.368,0.12-8.368s-9.205,8.249-11.476,9.085c-2.271,0.837-17.014-0.668-17.014-0.668
			l1.467-5.967c0,0,8.733-0.418,12.439-0.777c0,0,11.118-11.524,14.226-13.198c3.108-1.674,11.476-5.228,11.476-5.228H446.744z"/>
		<path style="fill:#C8776F;" d="M447.051,182.766c0,0-0.499,5.546-0.439,5.964c0.06,0.418,1.435,1.016,1.375,1.973
			c-0.06,0.956-3.168,8.727-6.396,7.83c-3.228-0.897-3.945-7.83-3.168-8.727c0.777-0.897,1.614-1.554,1.435-5.081
			C439.678,181.199,447.051,182.766,447.051,182.766z"/>
		<path style="fill:#E38F6F;" d="M436.63,176.696c0,0-0.12,8.169,4.582,9.564c4.702,1.395,7.651-7.173,7.85-7.771
			c0.199-0.598,0.518,0.319,1.395-1.076c0.877-1.395,0.598-3.865-0.239-3.945c-0.837-0.08-1.514-0.119-1.833,1.076
			c-0.319,1.195-0.359,3.547-1.155,3.188c-0.797-0.359-0.478-3.945-0.757-4.104c-0.816-0.467-1.931-0.005-2.804-0.353
			c-0.506-0.202-0.88-0.686-1.412-0.804c-0.644-0.143-1.255,0.29-1.874,0.52c-0.965,0.36-2.105,0.207-2.942-0.394
			c-0.363,0.326-0.476,0.841-0.56,1.322C436.717,174.852,436.721,175.753,436.63,176.696z"/>
		<path style="fill:#59A5CE;" d="M447.989,226.746c-5.019,1.793-20.087,2.412-20.087,2.412l-0.001,0.002
			c0.585,0.004,0.975,0.028,1.078,0.096c0.355,0.237,0.358,3.022,0.271,5.775c5.468-1.593,14.227-3.88,18.738-5.873
			c6.537-2.887,11.116-18.79,11.116-18.79S453.008,224.953,447.989,226.746z"/>
		<path style="fill:#59A5CE;" d="M439.22,217.541c-1.473,0.508-6.529,0.562-10.01,0.535c0.138,1.526,0.247,2.692,0.247,2.692
			s7.89-1.054,11.118-1.005c0,0,6.455-6.167,9.803-14.536C450.378,205.228,441.531,216.744,439.22,217.541z"/>
		<path style="fill:#383752;" d="M438.583,257.07c0,0,2.232,23.909-2.072,38.414c1.435-3.666,5.579-15.78,5.579-15.78
			S442.249,266.794,438.583,257.07z"/>
		<path style="fill:#E38F6F;" d="M403.994,221.725c0,0-2.909-0.956-3.268-1.554c-0.359-0.598-1.133-2.405-1.133-2.405l-0.533,2.168
			c0,0-2.478-0.48-5.666-1.636c-3.188-1.156-5.3-2.627-5.938-2.648c-0.637-0.021-1.076,0.656-0.956,1.094
			c0.119,0.438,0.119,0.438,0.119,0.438s-2.438-1.362-3.012-1.04c-0.574,0.322-0.813,0.8-0.455,1.279
			c0.359,0.478,6.894,3.666,7.292,3.826c0.399,0.159-6.575-2.431-7.173-2.271c-0.598,0.16-1.016,1.036-0.289,1.395
			c0.727,0.359,7.008,2.391,7.008,2.391s-2.734-0.638-3.213-0.478c-0.478,0.16-0.678,0.598-0.279,1.156
			c0.398,0.558,4.304,2.271,5.858,2.471c1.554,0.199,5.579-0.12,6.176,0c0.598,0.12,4.619,1.069,4.619,1.069L403.994,221.725z"/>
		<path style="fill:#58B9D6;" d="M396.582,383.47h30.763c0,0,1.036-2.63,0-5.499c-1.036-2.869-0.717-4.224-2.471-3.905
			c-1.753,0.319-2.152,2.152-3.666,1.355c-1.514-0.797-2.71-1.514-3.985-0.956c-1.275,0.558-2.823,3.128-8.129,4.281
			c-5.977,1.298-8.658,1.771-9.643,1.936C396.582,381.159,396.582,383.47,396.582,383.47z"/>
		<path style="fill:#B7E6F1;" d="M398.24,381.079c-1.632,0.816-1.658,2.391-1.658,2.391h30.763c0,0,0.38-0.981,0.447-2.391H398.24z"
			/>
		<g>
			<path style="fill:#18D5E4;" d="M380.385,116.4l-33.8-8.308c-2.093-0.514-3.372-2.628-2.858-4.72l4.076-16.584
				c0.514-2.093,2.628-3.372,4.72-2.858l33.8,8.308c2.092,0.514,3.372,2.628,2.857,4.72l-4.076,16.584
				C384.591,115.635,382.477,116.914,380.385,116.4z"/>
			<path style="fill:#FFFFFF;" d="M376.977,93.456l-13.612-3.552l-1.311-0.342l-0.382,1.465l-3.299,12.642
				c-0.553-0.597-1.34-1.086-2.288-1.333c-2.087-0.545-4.103,0.257-4.503,1.79c-0.4,1.533,0.967,3.217,3.054,3.762
				c2.087,0.545,4.103-0.257,4.503-1.79l3.843-14.729l13.612,3.552l-2.438,9.342c-0.553-0.597-1.34-1.086-2.288-1.333
				c-2.087-0.545-4.103,0.257-4.503,1.79c-0.4,1.533,0.967,3.218,3.054,3.762c2.087,0.544,4.103-0.257,4.503-1.79
				c0.037-0.142,0.044-0.286,0.051-0.429l0.053,0.028l2.877-11.028l0.382-1.465L376.977,93.456z"/>
		</g>
		<g>
			<polygon style="fill:#D7EAFF;" points="494.298,159.927 480.084,150.512 494.298,141.097 508.511,150.512 			"/>
			<polygon style="fill:#CEE1F5;" points="480.084,165.551 494.298,174.966 494.298,159.927 480.084,150.512 			"/>
			<polygon style="fill:#B9D3F0;" points="508.511,165.551 494.298,174.966 494.298,159.927 508.511,150.512 			"/>
		</g>
		<g>
			<polygon style="fill:#D7EAFF;" points="120.521,161.186 103.25,149.745 120.521,138.305 137.792,149.745 			"/>
			<polygon style="fill:#CEE1F5;" points="103.25,168.019 120.521,179.46 120.521,161.186 103.25,149.745 			"/>
			<polygon style="fill:#B9D3F0;" points="137.792,168.019 120.521,179.46 120.521,161.186 137.792,149.745 			"/>
		</g>
		<path style="fill:#FFF3D3;" d="M275.071,195.807c-0.654-4.33-3.175-6.939-7.378-8.009c-0.48-0.122-1.038-0.018-1.461-0.472
			c0.09-0.115,0.16-0.262,0.276-0.343c2.63-1.837,3.706-4.397,3.715-7.557c0.014-4.832-2.727-8.524-7.351-9.84
			c-2.365-0.673-4.769-0.907-7.206-0.884c-0.9,0.009-1.321-0.216-1.361-1.23c-0.092-2.386-0.352-4.765-0.474-7.15
			c-0.015-0.287-0.063-0.506-0.135-0.693l-5.823,0.426c0.001,0.068-0.008,0.122,0,0.2c0.255,2.492,0.422,4.994,0.673,7.486
			c0.07,0.695-0.108,1.035-0.82,1.098c-0.897,0.079-1.797,0.161-2.682,0.319c-0.951,0.169-1.212-0.194-1.25-1.121
			c-0.1-2.424-0.33-4.843-0.47-7.267c-0.009-0.15-0.033-0.268-0.064-0.377l-5.568,0.407c-0.035,0.152-0.046,0.33-0.026,0.549
			c0.206,2.26,0.339,4.526,0.53,6.788c0.145,1.716,0.092,1.807-1.561,1.975c-0.156,0.016-0.313,0.019-0.47,0.032
			c-2.807,0.232-5.614,0.469-8.422,0.695c-0.053,0.004-0.102,0.01-0.152,0.015l0.612,6.285c1.027-0.112,2.058-0.198,3.09-0.265
			c1.942-0.126,3.045,0.719,3.338,2.663c0.198,1.315,0.25,2.653,0.37,3.98c0.645,7.141,1.298,14.281,1.933,21.422
			c0.139,1.564-0.511,2.33-2.086,2.508c-0.855,0.097-1.713,0.182-2.571,0.231c-0.092,1.355-0.302,4.382-0.518,7.112
			c3.015-0.248,6.046-0.287,9.05-0.674c0.863-0.111,1.123,0.184,1.165,1.073c0.119,2.527,0.374,5.046,0.554,7.57l5.957-0.335
			c-0.003-0.041,0.004-0.066,0-0.109c-0.245-2.376-0.357-4.765-0.569-7.145c-0.079-0.883,0.085-1.416,1.117-1.426
			c0.779-0.008,1.565-0.107,2.333-0.249c0.904-0.167,1.257,0.119,1.305,1.065c0.124,2.463,0.352,4.92,0.508,7.381
			c0.005,0.084,0.023,0.143,0.033,0.217l6.005-0.338c-0.001-0.007,0.001-0.011,0-0.018c-0.218-2.453-0.276-4.92-0.494-7.373
			c-0.097-1.092,0.281-1.52,1.338-1.677c2.488-0.371,4.913-1.028,7.238-1.992c3.473-1.44,6.241-3.644,7.384-7.39
			C275.435,200.9,275.455,198.353,275.071,195.807z M246.214,188.031c-0.276-3.389-0.583-6.775-0.9-10.161
			c-0.062-0.659,0.052-0.933,0.832-0.986c3.16-0.217,6.325-0.617,9.431,0.327c3.907,1.188,5.295,5.634,2.608,8.313
			c-1.044,1.041-2.346,1.675-3.446,1.968c-2.719,0.904-5.219,1.06-7.717,1.232C246.493,188.761,246.261,188.608,246.214,188.031z
			 M260.819,204.775c-0.785,0.45-1.592,0.844-2.285,1.03c-3.358,1.166-6.692,1.331-9.995,1.686c-0.56,0.06-0.781-0.201-0.829-0.722
			c-0.347-3.777-0.697-7.554-1.057-11.33c-0.047-0.488-0.018-0.799,0.611-0.855c3.35-0.296,6.692-0.751,10.065-0.312
			c1.134,0.147,2.22,0.424,3.264,0.912c2.013,0.941,3.064,2.523,3.116,4.713C263.762,202.093,262.706,203.694,260.819,204.775z"/>
		<g>
			<path style="fill:#6D89C9;" d="M296.767,99.162c3.706,11.847-2.894,24.455-14.741,28.16c-11.847,3.706-24.455-2.894-28.16-14.741
				c-3.706-11.847,2.894-24.455,14.741-28.16C280.454,80.715,293.062,87.315,296.767,99.162z"/>
			<path style="fill:#A1BAF0;" d="M293.275,100.254c3.102,9.918-2.423,20.473-12.341,23.576
				c-9.918,3.102-20.473-2.423-23.576-12.341c-3.102-9.918,2.423-20.473,12.341-23.576
				C279.617,84.811,290.173,90.336,293.275,100.254z"/>
			<path style="fill:#BED1F9;" d="M290.864,101.008c2.686,8.586-2.098,17.724-10.684,20.41c-8.586,2.686-17.724-2.098-20.41-10.684
				c-2.686-8.586,2.098-17.724,10.684-20.41C279.04,87.638,288.178,92.422,290.864,101.008z"/>
			<path style="fill:#FFFFFF;" d="M283.589,110.556c0.248-1.796-0.406-3.11-1.874-3.992c-0.168-0.101-0.391-0.12-0.499-0.347
				c0.047-0.036,0.09-0.087,0.143-0.107c1.205-0.446,1.905-1.349,2.27-2.606c0.558-1.924-0.055-3.692-1.654-4.719
				c-0.817-0.525-1.7-0.88-2.624-1.135c-0.341-0.094-0.475-0.23-0.374-0.638c0.238-0.96,0.412-1.936,0.639-2.9
				c0.027-0.116,0.034-0.209,0.028-0.291l-2.251-0.463c-0.008,0.027-0.017,0.048-0.023,0.08c-0.189,1.021-0.412,2.035-0.603,3.055
				c-0.053,0.285-0.159,0.4-0.436,0.348c-0.348-0.066-0.698-0.131-1.051-0.165c-0.379-0.036-0.436-0.209-0.344-0.582
				c0.24-0.977,0.43-1.965,0.654-2.946c0.014-0.061,0.018-0.111,0.019-0.157l-2.152-0.443c-0.03,0.057-0.055,0.126-0.073,0.216
				c-0.181,0.923-0.39,1.84-0.577,2.762c-0.142,0.7-0.172,0.73-0.817,0.617c-0.061-0.011-0.121-0.026-0.181-0.038
				c-1.088-0.213-2.177-0.423-3.265-0.639c-0.02-0.004-0.039-0.007-0.059-0.011L268,98.025c0.401,0.067,0.801,0.145,1.199,0.23
				c0.749,0.161,1.069,0.617,0.957,1.424c-0.076,0.545-0.209,1.084-0.316,1.626c-0.573,2.915-1.144,5.83-1.721,8.744
				c-0.126,0.638-0.46,0.873-1.076,0.772c-0.334-0.054-0.669-0.113-0.999-0.188c-0.19,0.53-0.616,1.713-1.01,2.777
				c1.169,0.229,2.32,0.543,3.5,0.715c0.339,0.049,0.404,0.195,0.318,0.554c-0.244,1.019-0.436,2.051-0.657,3.076l2.291,0.514
				c0.004-0.016,0.009-0.026,0.012-0.043c0.179-0.973,0.41-1.937,0.603-2.908c0.071-0.36,0.194-0.555,0.586-0.447
				c0.296,0.081,0.604,0.127,0.911,0.154c0.361,0.032,0.462,0.184,0.372,0.566c-0.235,0.994-0.43,1.998-0.653,2.995
				c-0.007,0.034-0.008,0.06-0.012,0.09l2.31,0.518c0.001-0.003,0.001-0.004,0.002-0.007c0.199-1.001,0.459-1.99,0.657-2.991
				c0.088-0.445,0.28-0.575,0.698-0.523c0.983,0.123,1.976,0.125,2.966-0.007c1.478-0.196,2.777-0.773,3.638-2.141
				C283.143,112.624,283.443,111.612,283.589,110.556z M273.565,104.321c0.284-1.38,0.555-2.762,0.823-4.146
				c0.052-0.269,0.126-0.366,0.428-0.303c1.22,0.257,2.463,0.442,3.529,1.155c1.341,0.898,1.358,2.82,0.035,3.595
				c-0.514,0.301-1.079,0.412-1.529,0.41c-1.132,0.065-2.095-0.145-3.06-0.348C273.587,104.642,273.517,104.557,273.565,104.321z
				 M277.172,112.579c-0.348,0.094-0.699,0.163-0.982,0.162c-1.404,0.099-2.683-0.197-3.973-0.415
				c-0.219-0.037-0.272-0.165-0.231-0.378c0.301-1.542,0.601-3.085,0.897-4.628c0.038-0.2,0.085-0.32,0.329-0.274
				c1.301,0.246,2.617,0.428,3.843,0.969c0.412,0.182,0.791,0.41,1.13,0.718c0.654,0.593,0.87,1.338,0.639,2.216
				C278.592,111.831,278.01,112.354,277.172,112.579z"/>
		</g>
		<g>
			<polygon style="fill:#E38F6F;" points="182.058,362.31 181.061,375.879 188.593,376.656 188.993,374.357 189.948,363.207 			"/>
			<polygon style="fill:#E38F6F;" points="230.055,360.597 235.355,374.016 241.85,370.639 237.228,356.373 			"/>
			<path style="fill:#5A4868;" d="M166.509,168.644c0,0,1.681-2.986,0.605-6.334c-1.076-3.347-3.826-3.467-5.439-4.304
				c-1.614-0.837-6.276-1.614-8.368,0.418c-2.092,2.032-2.989,3.527-3.826,4.005c-0.837,0.478-1.554,2.69-0.897,4.842
				c0.658,2.152,2.391,2.63,2.63,4.363c0.239,1.733,1.494,3.168,3.108,3.826c1.614,0.658,3.826-0.179,3.945-0.478
				C158.388,174.684,166.509,168.644,166.509,168.644z"/>
			<path style="fill:#4E4C71;" d="M171.614,232.447c0,0,1.119,11.035,5.811,20.359c4.692,9.324,9.235,22.475,9.474,24.148
				c0.239,1.674-1.435,19.605-0.598,35.027c0.837,15.421-3.586,47.46-5.738,51.883c0,0,5.499,3.228,10.759,1.674
				c0,0,5.021-34.071,7.292-46.264c2.271-12.194,3.586-45.308,3.586-45.308s3.347,6.216,4.901,11.357
				c1.554,5.14,6.575,30.245,13.628,49.372c7.053,19.127,8.01,27.137,8.01,27.137s8.009-1.315,10.879-3.706
				c0,0-10.321-26.141-18.769-63.758c0,0-4.463-24.228-6.695-29.807c-2.232-5.579-19.605-43.515-21.04-44.949
				C191.681,218.178,171.614,232.447,171.614,232.447z"/>
			<path style="fill:#FC736B;" d="M158.866,181.079c0,0-5.858,5.858-7.352,9.803c-1.494,3.945,3.347,11.357,5.021,15.362
				c1.674,4.005,4.184,9.922,8.607,9.683c0,0,3.646,9.026,3.347,12.672c-0.299,3.646-0.299,4.483-0.299,4.483
				s14.824-2.451,18.828-5.499c4.005-3.048,8.308-8.308,8.308-8.308s-1.853-0.897-2.451-1.913c-0.598-1.016-3.168-7.173-3.168-7.173
				s11.357-3.646,15.122-5.798c3.766-2.152,4.543-2.57,4.543-2.57l-2.092-4.483c0,0-11.596,4.124-20.084,6.157l-3.586-9.145
				c0,0,4.244,2.212,5.14,2.391c0.897,0.179,1.614,0.179,1.614,0.179s-0.538-7.173-0.179-9.205c0,0-5.722-2.63-9.884-5.738
				c-4.162-3.108-4.342-3.228-5.358-3.407c-1.016-0.179-9.982,0.956-9.982,0.956L158.866,181.079z"/>
			<path style="fill:#C8776F;" d="M166.009,179.04c0,0-1.345-2.772-1.375-5.223l-6.586,1.686c0,0,1.177,4.082,0.818,5.577
				c-0.359,1.494,6.336,1.943,7.442,1.016C167.413,181.169,166.009,179.04,166.009,179.04z"/>
			<path style="fill:#E38F6F;" d="M166.457,167.73c0,0,0.916,10.042-3.945,9.803c-4.861-0.239-7.332-6.057-7.332-6.057
				c-0.671,0.31-1.522-0.046-2.057-0.556c-0.535-0.51-0.824-1.225-1.023-1.937c-0.12-0.43-0.183-0.967,0.159-1.253
				c0.216-0.181,0.535-0.193,0.802-0.102c0.267,0.091,0.494,0.269,0.715,0.444c0.349,0.277,0.699,0.553,1.049,0.83
				c0.137,0.109,0.301,0.224,0.472,0.186c0.218-0.048,0.306-0.306,0.346-0.525c0.201-1.091,0.16-2.226-0.117-3.3
				c1.868-0.047,3.818-0.051,5.385-1.069c0.422,0.491,1.1,0.699,1.747,0.696c0.647-0.003,1.277-0.192,1.896-0.379
				c0.263,0.847,0.589,1.675,0.975,2.474C165.704,167.35,166.061,167.827,166.457,167.73z"/>
			<path style="fill:#D5616B;" d="M167.45,222.606c7.804-4.4,18.858-9.972,22.517-11.801c-0.16-0.381-0.258-0.616-0.258-0.616
				s-15.8,5.32-24.567,5.738C165.142,215.927,166.463,219.204,167.45,222.606z"/>
			<path style="fill:#D5616B;" d="M169.605,205.028c-3.427-7.173-7.89-11.795-7.89-11.795c3.029,4.304,7.175,13.968,7.175,13.968
				c8.846-0.877,18.308-3.707,18.308-3.707L169.605,205.028z"/>
			<path style="fill:#E38F6F;" d="M207.46,197.665c0,0,2.003-0.716,2.72-1.881c0.717-1.165,1.883-1.704,2.152-1.524
				c0.269,0.179-0.06,1.106,0.209,0.986c0.269-0.12,4.812-3.407,5.619-3.676c0.807-0.269,1.166,0.09,0.897,0.478
				c-0.269,0.389-4.214,3.048-4.214,3.048s5.111-2.779,5.678-2.929c0.568-0.149,0.747,0.478,0.747,0.717
				c0,0.239-5.858,3.497-5.858,3.497s3.915-1.614,4.274-1.524c0.359,0.09,0.538,0.359,0.239,0.807
				c-0.299,0.448-4.244,2.122-4.244,2.122s1.853-0.418,2.032-0.269c0.179,0.149,0,0.717-0.478,0.956
				c-0.478,0.239-1.345,0.867-3.347,1.046c-2.002,0.179-5.068,1.056-5.068,1.056L207.46,197.665z"/>
			<path style="fill:#383752;" d="M204.397,278.426c1.122-4.983,2.638-15.024-1.84-20.098c-6.099-6.911-11.355-24.052-11.355-24.052
				c2.271,13.748,10.865,28.779,11.343,30.811c0.478,2.032-0.345,8.878-0.345,8.878S203.222,275.864,204.397,278.426z"/>
			<g>
				<path style="fill:#75ADD3;" d="M180.296,383.47h28.133c0,0,0.666-1.076-2.084-2.391s-7.002-1.195-14.174-4.304
					c0,0-1.116-0.319-2.152-1.753c-1.036-1.434-2.55-0.239-3.028,0c-0.478,0.239-1.833,0.797-3.347-0.08
					c-1.514-0.877-2.789-0.558-3.347,0.239c-0.558,0.797-0.638,2.63-0.478,3.108C179.977,378.768,180.455,382.354,180.296,383.47z"
					/>
				<path style="fill:#608EAD;" d="M180.296,383.47h28.133c0,0,0.578-0.991-1.792-2.231h-26.402
					C180.317,382.141,180.361,383.013,180.296,383.47z"/>
			</g>
			<g>
				<path style="fill:#75ADD3;" d="M234.767,379.497l27.301-6.792c0,0,0.386-1.205-2.599-1.817
					c-2.986-0.612-7.083,0.53-14.794-0.755c0,0-1.16-0.04-2.511-1.182c-1.352-1.142-2.533,0.383-2.939,0.731
					c-0.406,0.347-1.587,1.216-3.268,0.731c-1.681-0.485-2.842,0.132-3.191,1.04c-0.349,0.908,0.016,2.706,0.286,3.132
					C233.322,375.011,234.652,378.376,234.767,379.497z"/>
				<path style="fill:#608EAD;" d="M234.767,379.497l27.301-6.791c0,0,0.322-1.102-2.278-1.733l-25.622,6.374
					C234.467,378.202,234.72,379.038,234.767,379.497z"/>
			</g>
		</g>
		<g>
			<circle style="fill:#18D5E4;" cx="187.198" cy="112.675" r="29.652"/>
			<circle style="fill:#18BFD5;" cx="187.198" cy="112.675" r="24.824"/>
			<circle style="fill:#E9F3FF;" cx="187.198" cy="112.675" r="21.985"/>
			<g>
				<polygon style="fill:#18BCD8;" points="187.175,91.909 187.175,121.933 200.106,113.035 				"/>
				<polygon style="fill:#18B0D8;" points="187.175,108.036 187.175,121.933 200.106,113.035 				"/>
				<polygon style="fill:#18D5E4;" points="187.175,91.909 187.175,121.933 174.244,113.035 				"/>
				<polygon style="fill:#18BCD8;" points="187.175,108.036 187.175,121.933 174.244,113.035 				"/>
				<g>
					<polygon style="fill:#18BCD8;" points="187.175,133.44 200.594,115.061 187.175,124.597 					"/>
					<polygon style="fill:#18D5E4;" points="187.221,133.44 173.802,115.061 187.221,124.597 					"/>
				</g>
			</g>
		</g>
		<g>
			<g>
				<path style="fill:#6D89C9;" d="M353.723,347.885h-61.382c-1.602,0-2.901-1.299-2.901-2.901v-61.382
					c0-1.602,1.299-2.901,2.901-2.901h61.382c1.602,0,2.901,1.299,2.901,2.901v61.382
					C356.625,346.586,355.326,347.885,353.723,347.885z"/>
				<rect x="295.893" y="287.153" style="fill:#EE9F53;" width="54.279" height="54.279"/>
				<rect x="299.542" y="290.802" style="fill:#FFBA53;" width="46.981" height="46.981"/>
				<g>
					<g>
						<path style="fill:#556A9C;" d="M300.079,267.67L300.079,267.67c-1.034,0-1.873,0.838-1.873,1.873v11.158h3.746v-11.158
							C301.952,268.509,301.114,267.67,300.079,267.67z"/>
						<path style="fill:#556A9C;" d="M311.556,267.67L311.556,267.67c-1.034,0-1.873,0.838-1.873,1.873v11.158h3.746v-11.158
							C313.429,268.509,312.59,267.67,311.556,267.67z"/>
						<path style="fill:#556A9C;" d="M323.032,267.67L323.032,267.67c-1.034,0-1.873,0.838-1.873,1.873v11.158h3.746v-11.158
							C324.905,268.509,324.067,267.67,323.032,267.67z"/>
						<path style="fill:#556A9C;" d="M334.509,267.67L334.509,267.67c-1.034,0-1.873,0.838-1.873,1.873v11.158h3.746v-11.158
							C336.382,268.509,335.543,267.67,334.509,267.67z"/>
						<path style="fill:#556A9C;" d="M345.985,267.67L345.985,267.67c-1.034,0-1.873,0.838-1.873,1.873v11.158h3.746v-11.158
							C347.858,268.509,347.019,267.67,345.985,267.67z"/>
					</g>
					<g>
						<path style="fill:#556A9C;" d="M345.985,360.916L345.985,360.916c1.034,0,1.873-0.839,1.873-1.873v-11.158h-3.746v11.158
							C344.112,360.077,344.951,360.916,345.985,360.916z"/>
						<path style="fill:#556A9C;" d="M334.509,360.916L334.509,360.916c1.034,0,1.873-0.839,1.873-1.873v-11.158h-3.746v11.158
							C332.636,360.077,333.474,360.916,334.509,360.916z"/>
						<path style="fill:#556A9C;" d="M323.032,360.916L323.032,360.916c1.034,0,1.873-0.839,1.873-1.873v-11.158h-3.746v11.158
							C321.159,360.077,321.998,360.916,323.032,360.916z"/>
						<path style="fill:#556A9C;" d="M311.556,360.916L311.556,360.916c1.034,0,1.873-0.839,1.873-1.873v-11.158h-3.746v11.158
							C309.683,360.077,310.521,360.916,311.556,360.916z"/>
						<path style="fill:#556A9C;" d="M300.079,360.916L300.079,360.916c1.034,0,1.873-0.839,1.873-1.873v-11.158h-3.746v11.158
							C298.207,360.077,299.045,360.916,300.079,360.916z"/>
					</g>
					<g>
						<path style="fill:#556A9C;" d="M369.655,291.34L369.655,291.34c0-1.034-0.839-1.873-1.873-1.873h-11.158v3.746h11.158
							C368.816,293.213,369.655,292.375,369.655,291.34z"/>
						<path style="fill:#556A9C;" d="M369.655,302.816L369.655,302.816c0-1.034-0.839-1.873-1.873-1.873h-11.158v3.746h11.158
							C368.816,304.689,369.655,303.851,369.655,302.816z"/>
						<path style="fill:#556A9C;" d="M369.655,314.293L369.655,314.293c0-1.034-0.839-1.873-1.873-1.873h-11.158v3.746h11.158
							C368.816,316.166,369.655,315.327,369.655,314.293z"/>
						<path style="fill:#556A9C;" d="M369.655,325.769L369.655,325.769c0-1.034-0.839-1.873-1.873-1.873h-11.158v3.746h11.158
							C368.816,327.642,369.655,326.804,369.655,325.769z"/>
						<path style="fill:#556A9C;" d="M369.655,337.246L369.655,337.246c0-1.034-0.839-1.873-1.873-1.873h-11.158v3.746h11.158
							C368.816,339.119,369.655,338.28,369.655,337.246z"/>
					</g>
					<g>
						<path style="fill:#556A9C;" d="M276.41,337.246L276.41,337.246c0,1.034,0.838,1.873,1.873,1.873h11.158v-3.746h-11.158
							C277.248,335.373,276.41,336.211,276.41,337.246z"/>
						<path style="fill:#556A9C;" d="M276.41,325.769L276.41,325.769c0,1.034,0.838,1.873,1.873,1.873h11.158v-3.746h-11.158
							C277.248,323.897,276.41,324.735,276.41,325.769z"/>
						<path style="fill:#556A9C;" d="M276.41,314.293L276.41,314.293c0,1.034,0.838,1.873,1.873,1.873h11.158v-3.746h-11.158
							C277.248,312.42,276.41,313.259,276.41,314.293z"/>
						<path style="fill:#556A9C;" d="M276.41,302.816L276.41,302.816c0,1.034,0.838,1.873,1.873,1.873h11.158v-3.746h-11.158
							C277.248,300.944,276.41,301.782,276.41,302.816z"/>
						<path style="fill:#556A9C;" d="M276.41,291.34L276.41,291.34c0,1.034,0.838,1.873,1.873,1.873h11.158v-3.746h-11.158
							C277.248,289.467,276.41,290.306,276.41,291.34z"/>
					</g>
				</g>
				<g>
					<rect x="332.636" y="278.001" style="fill:#3D4C70;" width="3.746" height="2.699"/>
					<rect x="321.159" y="278.001" style="fill:#3D4C70;" width="3.746" height="2.699"/>
					<rect x="298.207" y="278.001" style="fill:#3D4C70;" width="3.746" height="2.699"/>
					<rect x="309.683" y="278.001" style="fill:#3D4C70;" width="3.746" height="2.699"/>
					<rect x="356.625" y="289.467" style="fill:#3D4C70;" width="2.699" height="3.746"/>
					<rect x="356.625" y="335.373" style="fill:#3D4C70;" width="2.699" height="3.746"/>
					<rect x="356.625" y="300.944" style="fill:#3D4C70;" width="2.699" height="3.746"/>
					<rect x="356.625" y="312.42" style="fill:#3D4C70;" width="2.699" height="3.746"/>
					<rect x="356.625" y="323.897" style="fill:#3D4C70;" width="2.699" height="3.746"/>
					<rect x="298.207" y="347.885" style="fill:#3D4C70;" width="3.746" height="2.699"/>
					<rect x="286.741" y="312.42" style="fill:#3D4C70;" width="2.699" height="3.746"/>
					<rect x="286.741" y="300.944" style="fill:#3D4C70;" width="2.699" height="3.746"/>
					<rect x="286.741" y="289.467" style="fill:#3D4C70;" width="2.699" height="3.746"/>
					<rect x="286.741" y="323.897" style="fill:#3D4C70;" width="2.699" height="3.746"/>
					<rect x="286.741" y="335.373" style="fill:#3D4C70;" width="2.699" height="3.746"/>
					<rect x="344.112" y="278.001" style="fill:#3D4C70;" width="3.746" height="2.699"/>
					<rect x="321.159" y="347.885" style="fill:#3D4C70;" width="3.746" height="2.699"/>
					<rect x="332.636" y="347.885" style="fill:#3D4C70;" width="3.746" height="2.699"/>
					<rect x="309.683" y="347.885" style="fill:#3D4C70;" width="3.746" height="2.699"/>
					<rect x="344.112" y="347.885" style="fill:#3D4C70;" width="3.746" height="2.699"/>
				</g>
			</g>
			<g>
				<g>
					<path style="fill:#6D89C9;" d="M406.874,283.351h-15.622c-0.12,0-0.234,0.058-0.305,0.154l-8.334,11.321h-10.807
						c-0.209,0-0.379,0.17-0.379,0.379s0.17,0.379,0.379,0.379h10.997h11.716c0.208,0,0.379-0.17,0.379-0.379
						s-0.17-0.379-0.379-0.379h-10.967l7.89-10.718h15.431c0.208,0,0.378-0.17,0.378-0.379S407.083,283.351,406.874,283.351z"/>
					<path style="fill:#6D89C9;" d="M400.578,307.539c0.208,0,0.379-0.17,0.379-0.379c0-0.209-0.17-0.379-0.379-0.379h-28.771
						c-0.209,0-0.379,0.17-0.379,0.379c0,0.208,0.17,0.379,0.379,0.379H400.578z"/>
					<path style="fill:#6D89C9;" d="M403.287,326.228h-13.89l-4.352-7.385c-0.068-0.115-0.192-0.186-0.327-0.186h-14.345
						c-0.208,0-0.379,0.17-0.379,0.379s0.17,0.379,0.379,0.379h14.13l4.352,7.385c0.068,0.115,0.192,0.186,0.327,0.186h14.106
						c0.208,0,0.379-0.17,0.379-0.379S403.495,326.228,403.287,326.228z"/>
					<path style="fill:#6D89C9;" d="M396.195,335.951h-21.2c-0.208,0-0.379,0.17-0.379,0.379s0.17,0.379,0.379,0.379h21.2
						c0.208,0,0.378-0.17,0.378-0.379S396.403,335.951,396.195,335.951z"/>
				</g>
				<g>
					<path style="fill:#6D89C9;" d="M273.061,296.431c0.105,0,0.189-0.084,0.189-0.189c0-0.105-0.084-0.189-0.189-0.189h-14.713
						l-3.771-6.678c-0.033-0.059-0.096-0.096-0.164-0.096h-6.694c-0.105,0-0.189,0.084-0.189,0.189c0,0.105,0.084,0.189,0.189,0.189
						h6.584l3.613,6.396h-16.827l-3.894-2.993c-0.083-0.062-0.201-0.049-0.266,0.035c-0.063,0.083-0.047,0.201,0.036,0.265
						l3.945,3.033c0.033,0.025,0.074,0.038,0.115,0.038H273.061z"/>
					<path style="fill:#6D89C9;" d="M273.061,309.561h-23.749c-0.105,0-0.189,0.084-0.189,0.189c0,0.105,0.084,0.189,0.189,0.189
						h23.749c0.105,0,0.189-0.084,0.189-0.189C273.251,309.645,273.167,309.561,273.061,309.561z"/>
					<path style="fill:#6D89C9;" d="M273.061,324.066h-17.791c-0.105,0-0.189,0.084-0.189,0.189v7.103h-10.252
						c-0.105,0-0.189,0.084-0.189,0.189c0,0.105,0.084,0.189,0.189,0.189h10.442c0.105,0,0.189-0.084,0.189-0.189v-7.102h17.602
						c0.105,0,0.189-0.084,0.189-0.189S273.167,324.066,273.061,324.066z"/>
					<path style="fill:#6D89C9;" d="M271.389,341.243h-17.912c-0.105,0-0.189,0.084-0.189,0.189c0,0.105,0.084,0.189,0.189,0.189
						h17.912c0.105,0,0.189-0.084,0.189-0.189C271.578,341.327,271.494,341.243,271.389,341.243z"/>
				</g>
				<g>
					<path style="fill:#FFBA53;" d="M410.619,283.729c0,1.012-0.821,1.833-1.833,1.833c-1.012,0-1.833-0.821-1.833-1.833
						c0-1.012,0.821-1.833,1.833-1.833C409.799,281.896,410.619,282.717,410.619,283.729z"/>
					<path style="fill:#FFBA53;" d="M398.187,295.205c0,1.012-0.821,1.833-1.833,1.833c-1.012,0-1.833-0.821-1.833-1.833
						c0-1.012,0.821-1.833,1.833-1.833C397.366,293.372,398.187,294.193,398.187,295.205z"/>
					<path style="fill:#FFBA53;" d="M404.244,307.12c0,1.012-0.821,1.833-1.833,1.833c-1.012,0-1.833-0.821-1.833-1.833
						c0-1.012,0.821-1.833,1.833-1.833C403.423,305.287,404.244,306.108,404.244,307.12z"/>
					<circle style="fill:#FFBA53;" cx="398.027" cy="336.329" r="1.833"/>
					<path style="fill:#FFBA53;" d="M406.953,326.606c0,1.012-0.821,1.833-1.833,1.833c-1.012,0-1.833-0.821-1.833-1.833
						c0-1.012,0.821-1.833,1.833-1.833C406.133,324.773,406.953,325.594,406.953,326.606z"/>
				</g>
				<g>
					<path style="fill:#FFBA53;" d="M237.576,291.952c0,1.012-0.821,1.833-1.833,1.833c-1.013,0-1.833-0.821-1.833-1.833
						c0-1.012,0.82-1.833,1.833-1.833C236.755,290.119,237.576,290.939,237.576,291.952z"/>
					<path style="fill:#FFBA53;" d="M247.718,289.467c0,1.012-0.821,1.833-1.833,1.833c-1.012,0-1.833-0.821-1.833-1.833
						c0-1.012,0.821-1.833,1.833-1.833C246.898,287.634,247.718,288.455,247.718,289.467z"/>
					<path style="fill:#FFBA53;" d="M244.829,331.547c0,1.012-0.821,1.833-1.833,1.833c-1.012,0-1.833-0.821-1.833-1.833
						c0-1.012,0.821-1.833,1.833-1.833C244.008,329.714,244.829,330.535,244.829,331.547z"/>
					<path style="fill:#FFBA53;" d="M253.477,341.432c0,1.012-0.821,1.833-1.833,1.833s-1.833-0.821-1.833-1.833
						c0-1.012,0.821-1.833,1.833-1.833S253.477,340.42,253.477,341.432z"/>
					<circle style="fill:#FFBA53;" cx="247.679" cy="309.75" r="1.833"/>
				</g>
			</g>
		</g>
		
			<text transform="matrix(1 0 0 1 302.7303 321.0676)" style="fill:#FFFFFF; font-family:'Montserrat-ExtraBold'; font-size:18.171px;">NFT</text>
	</g>
</g>
</svg>
