
<svg width="512" height="512" viewBox="0 0 512 512" fill="none" xmlns="http://www.w3.org/2000/svg">
<g clip-path="url(#clip0_438_14636)">
<path d="M256 512C397.385 512 512 397.385 512 256C512 114.615 397.385 0 256 0C114.615 0 0 114.615 0 256C0 397.385 114.615 512 256 512Z" fill="#273B7A"/>
<path d="M304.752 507.344C419.659 485.187 507.187 386.209 511.79 265.959L399.563 153.733L351.964 212.734L202.842 236.18L143.524 176.862L124.061 187.85L178.135 241.924L49.9307 252.523L304.752 507.344Z" fill="#121149"/>
<path d="M131.036 180.874L145.756 186.458C154.793 189.885 164.45 191.376 174.1 190.835L246.707 186.756L380.773 304.406C385.945 308.945 385.631 317.091 380.127 321.219L377.891 322.895C373.948 325.851 368.508 325.776 364.65 322.711L268.989 246.72C267.463 245.508 265.271 245.632 263.891 247.011L262.433 248.469C260.833 250.069 260.959 252.701 262.705 254.141L339.141 317.138C344.183 321.294 344.428 328.935 339.66 333.405C335.797 337.027 329.882 337.325 325.674 334.112L244.723 272.31C243.09 271.064 240.765 271.326 239.45 272.903C238.059 274.573 238.331 277.066 240.053 278.394L304.925 328.449C310.626 332.848 310.529 341.48 304.734 345.752L304.148 346.183C300.305 349.015 295.061 348.998 291.238 346.142L225.111 296.761C223.478 295.54 221.175 295.813 219.87 297.378L219.863 297.387C218.465 299.066 218.748 301.571 220.487 302.895L265.35 337.021C270.367 340.836 271.08 348.111 266.902 352.829L265.319 354.617C261.904 358.473 256.244 359.392 251.785 356.813L89.8643 263.215L131.036 180.874Z" fill="#FFEDB5"/>
<path d="M89.8652 263.216L251.786 356.812C256.246 359.389 261.905 358.472 265.32 354.616L266.903 352.828C271.082 348.11 270.368 340.835 265.351 337.02L220.488 302.894C218.749 301.572 218.466 299.065 219.864 297.386L219.871 297.377C221.176 295.812 223.477 295.539 225.112 296.76L291.239 346.141C295.064 348.998 300.307 349.015 304.149 346.182L304.735 345.751C304.84 345.673 304.93 345.584 305.032 345.504L120.16 202.628L89.8652 263.216Z" fill="#FEE187"/>
<path d="M390.808 174.013L434.919 255.374L372.183 297.036L269.255 207.341L204.831 232.251C199.244 234.411 192.919 233.275 188.431 229.307C179.818 221.689 181.794 207.748 192.184 202.821L277.869 162.194C281.722 160.367 286.194 160.374 290.042 162.211L340.895 186.499C346.498 189.175 352.928 189.54 358.798 187.516L390.808 174.013Z" fill="#FFC61B"/>
<path d="M330.733 260.915L372.183 297.036L434.919 255.374L411.393 211.98L330.733 260.915Z" fill="#EAA22F"/>
<path d="M49.9218 252.513L91.4502 274.625L143.509 176.854L101.981 154.742L49.9218 252.513Z" fill="#FF7F4F"/>
<path d="M49.9307 252.523L91.4637 274.637L117.763 225.242L77.1117 201.476L49.9307 252.523Z" fill="#D35933"/>
<path d="M399.575 153.742L360.733 180.291L423.238 271.738L462.08 245.189L399.575 153.742Z" fill="#D35933"/>
<path d="M462.069 245.182L431.173 199.98L390.885 224.422L423.222 271.734L462.069 245.182Z" fill="#B54324"/>
</g>
<defs>
<clipPath id="clip0_438_14636">
<rect width="512" height="512" fill="white"/>
</clipPath>
</defs>
</svg>
