<svg width="512" height="512" viewBox="0 0 512 512" fill="none" xmlns="http://www.w3.org/2000/svg">
<g clip-path="url(#clip0_438_14665)">
<path d="M256 512C397.385 512 512 397.385 512 256C512 114.615 397.385 0 256 0C114.615 0 0 114.615 0 256C0 397.385 114.615 512 256 512Z" fill="#FFEDB5"/>
<path d="M512 256C512 252.378 511.905 248.78 511.757 245.196L367.875 101.314L262.68 120.458L256 113.778L252.542 122.303L143.084 142.223V222.385L142.438 221.739L142.223 398.224L256 512C397.384 512 512 397.384 512 256Z" fill="#FEE187"/>
<path d="M292.363 398.234L405.165 383.317L367.873 101.311L255.071 116.227L292.363 398.234Z" fill="#C92F00"/>
<path d="M367.875 101.314L306.907 109.378L347.988 390.866L405.176 383.302L367.875 101.314Z" fill="#930000"/>
<path d="M256 113.778H142.222V398.222H256V113.778Z" fill="#386895"/>
<path d="M256 113.778H198.973V398.222H256V113.778Z" fill="#273B7A"/>
<path d="M199.111 369.778C214.82 369.778 227.555 357.043 227.555 341.334C227.555 325.624 214.82 312.89 199.111 312.89C183.402 312.89 170.667 325.624 170.667 341.334C170.667 357.043 183.402 369.778 199.111 369.778Z" fill="#273B7A"/>
<path d="M199.111 312.889C199.063 312.889 199.016 312.896 198.968 312.896V369.771C199.016 369.771 199.063 369.778 199.111 369.778C214.821 369.778 227.555 357.044 227.555 341.334C227.555 325.624 214.821 312.889 199.111 312.889Z" fill="#121149"/>
<path d="M341.333 369.777C357.042 369.777 369.777 357.042 369.777 341.333C369.777 325.623 357.042 312.889 341.333 312.889C325.623 312.889 312.889 325.623 312.889 341.333C312.889 357.042 325.623 369.777 341.333 369.777Z" fill="#D35933"/>
<path d="M369.778 341.333C369.778 325.623 357.044 312.889 341.334 312.889C339.741 312.889 338.19 313.053 336.669 313.304L344.875 369.534C358.909 367.787 369.778 355.84 369.778 341.333Z" fill="#B54324"/>
<path d="M227.556 142.222H170.667V284.444H227.556V142.222Z" fill="#71E2EF"/>
<path d="M227.561 142.222H198.973V284.444H227.561V142.222Z" fill="#38C6D9"/>
<path d="M304.775 283.771L361.127 276L341.7 135.118L285.348 142.889L304.775 283.771Z" fill="#FEE187"/>
<path d="M341.699 135.125L311.275 139.319L331.816 280.055L361.122 276.015L341.699 135.125Z" fill="#FFC61B"/>
</g>
<defs>
<clipPath id="clip0_438_14665">
<rect width="512" height="512" fill="white"/>
</clipPath>
</defs>
</svg>

