
<svg width="512" height="512" viewBox="0 0 512 512" fill="none" xmlns="http://www.w3.org/2000/svg">
<g clip-path="url(#clip0_438_14681)">
<path d="M256 512C397.385 512 512 397.385 512 256C512 114.615 397.385 0 256 0C114.615 0 0 114.615 0 256C0 397.385 114.615 512 256 512Z" fill="#273B7A"/>
<path d="M506.38 309.517L300.129 103.265L237.899 216.638L240.216 261.418L322.746 343.948L319.374 347.32L283.536 311.482L237.927 314.354H173.253L106.557 419.817L190.184 503.444C211.185 509.016 233.243 512 256 512C379.028 512 481.771 425.208 506.38 309.517Z" fill="#121149"/>
<path d="M401.606 290.287C398.303 285.696 392.299 283.89 387.005 285.877C386.929 285.906 386.853 285.932 386.777 285.958L297.158 315.794C297.177 316.515 297.163 317.239 297.115 317.968C296.367 329.413 287.516 338.607 276.144 339.76L222.134 345.37C218.717 345.727 215.662 343.244 215.307 339.829C214.95 336.412 217.433 333.278 220.848 333.002L274.858 327.392C280.188 326.811 284.353 322.532 284.705 317.157C284.896 314.223 283.933 311.391 281.993 309.182C280.054 306.972 277.369 305.65 274.435 305.458L202.724 300.783C194.67 300.261 186.674 302.038 179.603 305.931L85.0283 358.01L110.64 409.655L134.397 388.93C144.487 380.129 157.852 376.337 171.064 378.533L250.474 391.73C265.025 393.664 279.613 390.035 291.562 381.512L399.68 307.051C404.513 302.83 405.371 295.517 401.606 290.287Z" fill="#FFEDB5"/>
<path d="M274.856 327.394C280.186 326.813 284.351 322.534 284.703 317.159C284.894 314.225 283.931 311.393 281.991 309.184C280.052 306.974 277.367 305.652 274.433 305.46L258.485 304.42V329.093L274.856 327.394Z" fill="#FEE187"/>
<path d="M401.606 290.287C398.303 285.696 392.299 283.89 387.005 285.877C386.929 285.906 386.853 285.932 386.777 285.958L297.158 315.794C297.177 316.515 297.163 317.239 297.115 317.968C296.367 329.413 287.516 338.607 276.144 339.76L258.491 341.594V392.235C270.303 392.163 281.814 388.47 291.564 381.514L399.682 307.055C404.513 302.83 405.371 295.517 401.606 290.287Z" fill="#FEE187"/>
<path d="M317.433 145.984C317.433 111.235 288.583 83.2271 253.531 84.5991C222.125 85.8301 196.401 111.107 194.663 142.491C193.47 164.047 203.398 183.346 219.23 195.191C229.337 202.752 235.521 214.438 235.521 227.059V248.373C235.521 259.682 244.689 268.851 255.999 268.851C267.308 268.851 276.477 259.683 276.477 248.373V227.4C276.477 214.607 282.724 202.758 292.942 195.06C307.815 183.851 317.433 166.043 317.433 145.984Z" fill="#FFC61B"/>
<path d="M255.426 84.5729V268.821C255.619 268.826 255.807 268.85 256 268.85C267.309 268.85 276.478 259.682 276.478 248.372V227.4C276.478 214.607 282.725 202.758 292.943 195.06C307.817 183.851 317.435 166.043 317.435 145.984C317.433 111.866 289.616 84.2629 255.426 84.5729Z" fill="#EAA22F"/>
<path d="M235.522 227.895V248.373C235.522 259.682 244.69 268.851 256 268.851C267.309 268.851 276.478 259.683 276.478 248.373V227.893L235.522 227.895Z" fill="#A6A8AA"/>
<path d="M255.426 227.893V268.82C255.619 268.825 255.807 268.849 256 268.849C267.309 268.849 276.478 259.681 276.478 248.371V227.891L255.426 227.893Z" fill="#808183"/>
<path d="M244.205 183.837C243.062 183.837 241.909 183.489 240.914 182.761C238.423 180.942 237.88 177.448 239.7 174.957L256.791 151.569H244.21C242.107 151.569 240.183 150.388 239.23 148.513C238.278 146.637 238.461 144.388 239.701 142.69L263.281 110.422C265.1 107.931 268.592 107.384 271.085 109.208C273.576 111.027 274.119 114.521 272.299 117.012L255.207 140.4H267.788C269.891 140.4 271.815 141.581 272.768 143.456C273.72 145.332 273.537 147.581 272.297 149.279L248.716 181.547C247.625 183.044 245.927 183.837 244.205 183.837Z" fill="#FF5419"/>
<path d="M272.3 117.01C274.12 114.519 273.577 111.025 271.086 109.206C268.595 107.382 265.101 107.929 263.282 110.42L255.426 121.17V140.102L272.3 117.01Z" fill="#C92F00"/>
<path d="M267.79 140.398H255.426V151.567H256.791L255.426 153.436V172.366L272.3 149.276C273.541 147.578 273.722 145.327 272.771 143.453C271.819 141.581 269.893 140.398 267.79 140.398Z" fill="#C92F00"/>
<path d="M66.0791 355.147L98.6191 332.903L139.099 397.572L106.556 419.816L66.0791 355.147Z" fill="#D35933"/>
<path d="M139.099 397.572L118.574 364.784L86.1758 387.256L106.556 419.816L139.099 397.572Z" fill="#B54324"/>
</g>
<defs>
<clipPath id="clip0_438_14681">
<rect width="512" height="512" fill="white"/>
</clipPath>
</defs>
</svg>
