
<svg width="512" height="512" viewBox="0 0 512 512" fill="none" xmlns="http://www.w3.org/2000/svg">
<g clip-path="url(#clip0_438_14595)">
<path d="M256 512C397.385 512 512 397.385 512 256C512 114.615 397.385 0 256 0C114.615 0 0 114.615 0 256C0 397.385 114.615 512 256 512Z" fill="#273B7A"/>
<path d="M490.394 359.046L292.914 161.566L282.602 178.995L203.871 101.011L160.575 130.192L155.372 144.204L235.011 223.845L221.866 234.223L316.614 328.971L314.881 330.005L281.992 297.116L221.855 296.557L146.819 328.26L111.725 411.773L207.309 507.357C223.075 510.392 239.349 512 256 512C360.722 512 450.743 449.112 490.394 359.046Z" fill="#121149"/>
<path d="M388.051 142.953L375.849 149.943L342.759 189.66L496.833 342.984C505.496 319.004 510.669 293.361 511.764 266.663L388.051 142.953Z" fill="#121149"/>
<path d="M401.606 278.219C398.303 273.628 392.299 271.822 387.005 273.809C386.929 273.838 386.853 273.864 386.777 273.89L297.158 303.726C297.177 304.447 297.163 305.171 297.115 305.9C296.367 317.345 287.516 326.539 276.144 327.692L222.134 333.302C218.717 333.659 215.662 331.176 215.307 327.761C214.95 324.344 217.433 321.21 220.848 320.934L274.858 315.324C280.188 314.743 284.353 310.464 284.705 305.089C284.896 302.155 283.933 299.323 281.993 297.114C280.054 294.904 277.369 293.582 274.435 293.39L202.724 288.715C194.67 288.193 186.674 289.97 179.603 293.863L85.0283 345.942L110.64 397.587L134.397 376.862C144.487 368.061 157.852 364.269 171.064 366.465L250.474 379.661C265.025 381.595 279.613 377.966 291.562 369.443L399.68 294.982C404.513 290.763 405.371 283.45 401.606 278.219Z" fill="#FFEDB5"/>
<path d="M274.856 315.326C280.186 314.745 284.351 310.466 284.703 305.091C284.894 302.157 283.931 299.325 281.991 297.116C280.052 294.906 277.367 293.584 274.433 293.392L258.485 292.352V317.025L274.856 315.326Z" fill="#FEE187"/>
<path d="M401.606 278.219C398.303 273.628 392.299 271.822 387.005 273.809C386.929 273.838 386.853 273.864 386.777 273.89L297.158 303.726C297.177 304.447 297.163 305.171 297.115 305.9C296.367 317.345 287.516 326.539 276.144 327.692L258.491 329.526V380.167C270.303 380.095 281.814 376.402 291.564 369.446L399.682 294.987C404.513 290.763 405.371 283.45 401.606 278.219Z" fill="#FEE187"/>
<path d="M256 247.38C284.086 247.38 306.855 224.611 306.855 196.525C306.855 168.438 284.086 145.67 256 145.67C227.913 145.67 205.145 168.438 205.145 196.525C205.145 224.611 227.913 247.38 256 247.38Z" fill="#FFC61B"/>
<path d="M256 145.67C255.99 145.67 255.981 145.67 255.971 145.67V247.38C255.981 247.38 255.99 247.38 256 247.38C284.086 247.38 306.855 224.611 306.855 196.525C306.855 168.439 284.086 145.67 256 145.67Z" fill="#EAA22F"/>
<path d="M256 231.484C275.307 231.484 290.959 215.833 290.959 196.525C290.959 177.218 275.307 161.566 256 161.566C236.693 161.566 221.041 177.218 221.041 196.525C221.041 215.833 236.693 231.484 256 231.484Z" fill="#EAA22F"/>
<path d="M256 161.566C255.99 161.566 255.981 161.566 255.971 161.566V231.484C255.981 231.484 255.99 231.484 256 231.484C275.308 231.484 290.959 215.833 290.959 196.525C290.959 177.217 275.306 161.566 256 161.566Z" fill="#FF5419"/>
<path d="M180.786 156.445C198.757 156.445 213.325 141.877 213.325 123.906C213.325 105.935 198.757 91.3672 180.786 91.3672C162.815 91.3672 148.247 105.935 148.247 123.906C148.247 141.877 162.815 156.445 180.786 156.445Z" fill="#FFC61B"/>
<path d="M180.795 91.3672C180.788 91.3672 180.783 91.3672 180.776 91.3672V156.444C180.783 156.444 180.788 156.444 180.795 156.444C198.765 156.444 213.334 141.875 213.334 123.905C213.334 105.935 198.765 91.3672 180.795 91.3672Z" fill="#EAA22F"/>
<path d="M180.786 146.274C193.139 146.274 203.154 136.26 203.154 123.906C203.154 111.553 193.139 101.538 180.786 101.538C168.432 101.538 158.418 111.553 158.418 123.906C158.418 136.26 168.432 146.274 180.786 146.274Z" fill="#EAA22F"/>
<path d="M180.795 101.538C180.788 101.538 180.783 101.538 180.776 101.538V146.273C180.783 146.273 180.788 146.273 180.795 146.273C193.149 146.273 203.163 136.259 203.163 123.905C203.163 111.551 193.148 101.538 180.795 101.538Z" fill="#FF5419"/>
<path d="M365.675 199.103C383.646 199.103 398.214 184.535 398.214 166.564C398.214 148.594 383.646 134.025 365.675 134.025C347.704 134.025 333.136 148.594 333.136 166.564C333.136 184.535 347.704 199.103 365.675 199.103Z" fill="#FFC61B"/>
<path d="M365.684 134.034C365.677 134.034 365.672 134.034 365.665 134.034V199.111C365.672 199.111 365.677 199.111 365.684 199.111C383.654 199.111 398.223 184.542 398.223 166.572C398.223 148.602 383.653 134.034 365.684 134.034Z" fill="#EAA22F"/>
<path d="M365.675 188.932C378.028 188.932 388.043 178.918 388.043 166.564C388.043 154.211 378.028 144.196 365.675 144.196C353.321 144.196 343.307 154.211 343.307 166.564C343.307 178.918 353.321 188.932 365.675 188.932Z" fill="#EAA22F"/>
<path d="M365.684 144.205C365.677 144.205 365.672 144.205 365.665 144.205V188.94C365.672 188.94 365.677 188.94 365.684 188.94C378.037 188.94 388.052 178.926 388.052 166.572C388.051 154.219 378.037 144.205 365.684 144.205Z" fill="#FF5419"/>
<path d="M97.5044 321.09L64.9609 343.334L111.734 411.765L144.278 389.522L97.5044 321.09Z" fill="#D35933"/>
<path d="M144.268 389.529L120.077 354.133L87.8232 376.799L111.726 411.772L144.268 389.529Z" fill="#B54324"/>
</g>
<defs>
<clipPath id="clip0_438_14595">
<rect width="512" height="512" fill="white"/>
</clipPath>
</defs>
</svg>
