
<svg width="512" height="512" viewBox="0 0 512 512" fill="none" xmlns="http://www.w3.org/2000/svg">
<g clip-path="url(#clip0_438_14648)">
<path d="M256 512C397.385 512 512 397.385 512 256C512 114.615 397.385 0 256 0C114.615 0 0 114.615 0 256C0 397.385 114.615 512 256 512Z" fill="#B54324"/>
<path d="M283.462 510.531C411.932 496.828 512 388.106 512 256C512 209.582 499.645 166.048 478.046 128.51L383.491 33.9553L341 144.333L202.321 5.6543L197.029 181.656L279.568 264.195L170.667 275.824L246.803 351.962L244.765 352.629L157.73 265.594L153.555 269.376L153.703 269.524L151.636 271.688L235.583 355.635L198.119 367.904L141.38 311.163L139.104 311.492L138.632 311.02L117.747 313.175L157.628 353.056L140.653 367.718L283.462 510.531Z" fill="#930000"/>
<path d="M127.936 34.2943L200.776 291.246H285.156L202.321 5.6543C175.768 11.3213 150.738 21.0943 127.936 34.2943Z" fill="#386895"/>
<path d="M229.743 291.247H310.53L383.487 33.9562C361.614 21.3702 337.7 11.9372 312.372 6.24219L229.743 291.247Z" fill="#273B7A"/>
<path d="M390.465 315.475H374.929C372.548 315.475 370.619 313.546 370.619 311.165C370.619 308.784 372.548 306.855 374.929 306.855H390.465C392.846 306.855 394.775 308.784 394.775 311.165C394.775 313.546 392.845 315.475 390.465 315.475Z" fill="#FFC61B"/>
<path d="M137.071 315.475H121.535C119.154 315.475 117.225 313.546 117.225 311.165C117.225 308.784 119.154 306.855 121.535 306.855H137.071C139.452 306.855 141.381 308.784 141.381 311.165C141.381 313.546 139.452 315.475 137.071 315.475Z" fill="#FEE187"/>
<path d="M368.302 368.983C367.199 368.983 366.097 368.562 365.254 367.721L354.269 356.736C352.585 355.052 352.585 352.325 354.269 350.642C355.953 348.959 358.68 348.958 360.363 350.642L371.348 361.627C373.032 363.311 373.032 366.038 371.348 367.721C370.507 368.562 369.404 368.983 368.302 368.983Z" fill="#FFC61B"/>
<path d="M154.684 272.951C153.581 272.951 152.479 272.53 151.636 271.689L140.653 260.704C138.969 259.02 138.969 256.291 140.653 254.61C142.337 252.926 145.064 252.926 146.747 254.61L157.73 265.595C159.414 267.279 159.414 270.008 157.73 271.689C156.889 272.531 155.786 272.951 154.684 272.951Z" fill="#FEE187"/>
<path d="M357.316 272.951C356.213 272.951 355.111 272.53 354.268 271.689C352.584 270.005 352.584 267.278 354.268 265.595L365.253 254.61C366.937 252.926 369.664 252.926 371.347 254.61C373.03 256.294 373.031 259.021 371.347 260.704L360.362 271.689C359.522 272.531 358.419 272.951 357.316 272.951Z" fill="#FFC61B"/>
<path d="M143.698 368.983C142.595 368.983 141.493 368.562 140.65 367.721C138.966 366.037 138.966 363.31 140.65 361.627L151.635 350.642C153.319 348.958 156.046 348.958 157.729 350.642C159.412 352.326 159.413 355.053 157.729 356.736L146.744 367.721C145.904 368.562 144.801 368.983 143.698 368.983Z" fill="#FEE187"/>
<path d="M341.334 218.936H170.667V275.825H341.334V218.936Z" fill="#EAA22F"/>
<path d="M341.333 218.936H256.293V275.825H341.333V218.936Z" fill="#E09112"/>
<path d="M256 398.222C303.128 398.222 341.333 360.017 341.333 312.889C341.333 265.761 303.128 227.556 256 227.556C208.872 227.556 170.667 265.761 170.667 312.889C170.667 360.017 208.872 398.222 256 398.222Z" fill="#FFEDB5"/>
<path d="M341.333 312.889C341.333 265.857 303.283 227.719 256.288 227.563V398.216C303.283 398.058 341.333 359.92 341.333 312.889Z" fill="#FEE187"/>
<path d="M256 369.778C287.419 369.778 312.889 344.308 312.889 312.889C312.889 281.47 287.419 256 256 256C224.581 256 199.111 281.47 199.111 312.889C199.111 344.308 224.581 369.778 256 369.778Z" fill="#FFC61B"/>
<path d="M312.889 312.889C312.889 281.567 287.573 256.164 256.288 256.007V369.771C287.573 369.614 312.889 344.211 312.889 312.889Z" fill="#EAA22F"/>
</g>
<defs>
<clipPath id="clip0_438_14648">
<rect width="512" height="512" fill="white"/>
</clipPath>
</defs>
</svg>
