
<svg width="512" height="512" viewBox="0 0 512 512" fill="none" xmlns="http://www.w3.org/2000/svg">
<g clip-path="url(#clip0_438_14621)">
<path d="M256 512C397.385 512 512 397.385 512 256C512 114.615 397.385 0 256 0C114.615 0 0 114.615 0 256C0 397.385 114.615 512 256 512Z" fill="#FEE187"/>
<path d="M306.048 507.095C423.471 483.821 512 380.256 512 256C512 251.835 511.891 247.696 511.695 243.581L404.952 136.838L308.867 232.439V232.746L158.387 359.434L306.048 507.095Z" fill="#FFC61B"/>
<path d="M184.889 501.982C207.467 508.499 231.324 512 256 512C280.676 512 304.533 508.499 327.111 501.982V341.333H184.889V501.982Z" fill="#273B7A"/>
<path d="M255.426 341.333V511.99C255.617 511.99 255.809 512 256 512C280.676 512 304.533 508.499 327.111 501.982V341.333H255.426Z" fill="#121149"/>
<path d="M256 398.222C334.547 398.222 398.222 334.547 398.222 256C398.222 177.453 334.547 113.778 256 113.778C177.453 113.778 113.778 177.453 113.778 256C113.778 334.547 177.453 398.222 256 398.222Z" fill="#D35933"/>
<path d="M256 113.778C255.807 113.778 255.619 113.792 255.426 113.792V398.207C255.619 398.207 255.807 398.221 256 398.221C334.546 398.221 398.222 334.545 398.222 255.999C398.222 177.453 334.546 113.778 256 113.778Z" fill="#B54324"/>
<path d="M256 359.434C313.125 359.434 359.434 313.125 359.434 256C359.434 198.875 313.125 152.566 256 152.566C198.875 152.566 152.566 198.875 152.566 256C152.566 313.125 198.875 359.434 256 359.434Z" fill="white"/>
<path d="M256 152.566C255.807 152.566 255.619 152.58 255.426 152.58V359.419C255.619 359.421 255.807 359.433 256 359.433C313.125 359.433 359.434 313.124 359.434 255.999C359.434 198.874 313.125 152.566 256 152.566Z" fill="#D0D1D3"/>
<path d="M256 318.923C290.752 318.923 318.923 290.752 318.923 256C318.923 221.249 290.752 193.077 256 193.077C221.249 193.077 193.077 221.249 193.077 256C193.077 290.752 221.249 318.923 256 318.923Z" fill="#D35933"/>
<path d="M256 193.077C255.807 193.077 255.617 193.089 255.426 193.091V318.907C255.617 318.909 255.807 318.921 256 318.921C290.75 318.921 318.923 290.749 318.923 255.998C318.923 221.247 290.751 193.077 256 193.077Z" fill="#B54324"/>
<path d="M256 282.721C270.758 282.721 282.721 270.758 282.721 256C282.721 241.243 270.758 229.279 256 229.279C241.243 229.279 229.279 241.243 229.279 256C229.279 270.758 241.243 282.721 256 282.721Z" fill="white"/>
<path d="M256 229.279C255.807 229.279 255.619 229.303 255.426 229.308V282.69C255.619 282.693 255.807 282.719 256 282.719C270.757 282.719 282.721 270.755 282.721 255.998C282.721 241.243 270.757 229.279 256 229.279Z" fill="#D0D1D3"/>
<path d="M256.005 264.62C253.476 264.62 250.971 263.513 249.27 261.384C246.296 257.667 246.898 252.242 250.616 249.27L392.838 135.492C396.548 132.518 401.978 133.116 404.952 136.838C407.926 140.555 407.324 145.98 403.606 148.952L261.384 262.73C259.796 264.002 257.895 264.62 256.005 264.62Z" fill="#273B7A"/>
<path d="M404.394 136.268L249.18 261.246C249.214 261.291 249.235 261.341 249.27 261.384C250.971 263.513 253.476 264.62 256.005 264.62C257.894 264.62 259.796 264.003 261.384 262.731L403.606 148.953C407.324 145.979 407.926 140.556 404.952 136.839C404.783 136.626 404.58 136.459 404.394 136.268Z" fill="#121149"/>
</g>
<defs>
<clipPath id="clip0_438_14621">
<rect width="512" height="512" fill="white"/>
</clipPath>
</defs>
</svg>
