<svg width="512" height="512" viewBox="0 0 512 512" fill="none" xmlns="http://www.w3.org/2000/svg">
<g clip-path="url(#clip0_438_14704)">
<path d="M256 512C397.385 512 512 397.385 512 256C512 114.615 397.385 0 256 0C114.615 0 0 114.615 0 256C0 397.385 114.615 512 256 512Z" fill="#273B7A"/>
<path d="M268.163 512C399.807 500.989 504.147 399.092 512 272.385L330.048 98.6051L282.089 111.804L256.161 87.04L243.229 103.247L223.521 127.173L184.022 153.728L218.415 186.577L193.716 224.635L227.704 257.098L226.928 257.408L292.051 318.554L330.048 289.92L206.065 205.606L199.112 216.32L162.478 225.623L137.978 258.422L75.5195 308.677L112.894 344.373L105.611 356.75L268.163 512Z" fill="#121149"/>
<g clip-path="url(#clip1_438_14704)">
<path d="M256 139C256 139 160 166.2 160 171V268.067C160 317.133 230.933 360.333 250.667 372.067C252.245 373.121 254.101 373.684 256 373.684C257.899 373.684 259.755 373.121 261.333 372.067C281.6 360.867 352 317.133 352 268.067V171C352 166.2 256 139 256 139ZM306.133 226.467L247.467 285.133C246.517 286.168 245.364 286.994 244.078 287.559C242.793 288.124 241.404 288.416 240 288.416C238.596 288.416 237.207 288.124 235.922 287.559C234.636 286.994 233.483 286.168 232.533 285.133L206.4 259C204.475 257.19 203.217 254.784 202.83 252.171C202.443 249.557 202.949 246.89 204.267 244.6C205.185 243.305 206.381 242.232 207.767 241.458C209.154 240.685 210.695 240.23 212.279 240.128C213.863 240.026 215.45 240.278 216.925 240.868C218.399 241.457 219.723 242.367 220.8 243.533L240 262.733L291.2 211.533C293.254 209.993 295.795 209.245 298.356 209.427C300.917 209.609 303.327 210.709 305.142 212.524C306.958 214.34 308.058 216.749 308.24 219.311C308.422 221.872 307.674 224.413 306.133 226.467Z" fill="white"/>
</g>
</g>
<defs>
<clipPath id="clip0_438_14704">
<rect width="512" height="512" fill="white"/>
</clipPath>
<clipPath id="clip1_438_14704">
<rect width="256" height="256" fill="white" transform="translate(128 128)"/>
</clipPath>
</defs>
</svg>
