
<svg width="466" height="416" viewBox="0 0 466 416" fill="none" xmlns="http://www.w3.org/2000/svg">
<path d="M452.504 300.895C444.883 283.568 430.245 269.108 412.661 261.99C394.349 254.579 373.32 257.278 354.031 254.794C337.272 252.638 325.192 245.163 315.187 231.872C305.603 219.138 297.011 205.035 281.352 199.144C268.969 194.488 254.892 195.781 242.584 200.629C219.905 209.568 202.779 228.57 188.354 247.502C175.183 264.784 164.432 283.714 140.083 284.33C115.735 284.946 92.4992 271.055 67.9546 274.731C35.5077 279.598 8.49349 306.584 2.84588 338.725C-2.46021 368.84 10.8525 398.047 33.7243 415.213H426.837C455.666 384.653 470.778 342.436 452.504 300.895Z" fill="#F7F0E3"/>
<path d="M97.1287 415.21H98.2102C105.89 406.706 111.723 396.704 115.343 385.835C121.395 367.847 121.142 348.969 114.625 332.679C111.33 324.461 106.574 316.774 101.976 309.353C97.3121 301.827 92.4899 294.046 89.217 285.708C87.8422 282.182 86.851 278.519 86.2604 274.782L85.4478 274.684C86.0403 278.554 87.0572 282.348 88.4803 285.996C91.7784 294.403 96.6228 302.216 101.306 309.77C105.885 317.16 110.622 324.802 113.891 332.973C120.336 349.092 120.586 367.771 114.593 385.582C110.932 396.58 104.98 406.678 97.1287 415.21Z" fill="white"/>
<path d="M424.936 380.942C433.038 382.668 440.842 384.213 448.393 385.187C448.523 384.937 448.646 384.687 448.776 384.438C441.165 383.47 433.281 381.909 425.104 380.168C412.645 377.516 399.174 374.643 385.786 374.643C377.504 374.643 369.267 375.746 361.342 378.679C358.329 379.798 355.432 381.205 352.691 382.883C345.535 379.836 338.341 376.508 331.217 372.854C336.386 368.96 341.611 365.167 346.891 361.475C386.102 334.114 422.277 318.601 457.231 314.198C457.162 313.942 457.089 313.686 457.016 313.43C421.967 317.855 385.707 333.418 346.439 360.84C341.047 364.589 335.715 368.459 330.445 372.452C322.345 368.29 314.466 363.711 306.839 358.735C292.926 349.632 276.407 336.639 261.969 319.372C317.923 313.098 374.889 305.194 421.411 274.115C423.175 272.936 425.132 271.545 427.159 269.965C426.935 269.807 426.71 269.649 426.483 269.494C424.541 270.998 422.666 272.338 420.971 273.457C374.462 304.527 317.388 312.371 261.361 318.655C251.16 306.328 242.044 291.83 235.707 275.057C225.838 248.927 226.36 223.288 237.136 204.707C237.604 203.901 238.101 203.107 238.61 202.32C238.158 202.526 237.712 202.741 237.266 202.952C236.992 203.401 236.721 203.853 236.453 204.308C225.556 223.095 225.016 248.981 234.967 275.332C241.269 292.017 250.303 306.448 260.425 318.756C257.181 319.118 253.94 319.478 250.702 319.834C239.037 321.12 226.986 322.451 215.257 323.943C210.982 324.493 206.634 325.134 202.292 325.94C193.03 306.395 182.842 287.304 169.672 270.935L169.102 271.491C182.159 287.737 192.284 306.682 201.502 326.114C182.63 329.711 164.306 336.471 154.522 352.215C145.383 366.912 145.393 387.232 154.547 412.609C154.863 413.487 155.18 414.35 155.521 415.21H156.365C156.005 414.262 155.644 413.313 155.29 412.34C146.221 387.203 146.19 367.114 155.192 352.629C164.862 337.078 183.086 330.403 201.853 326.85C205.129 333.772 208.291 340.757 211.434 347.692L211.776 348.444C222.695 372.535 233.987 395.784 248.773 415.21H249.759C234.837 395.747 223.482 372.361 212.497 348.118L212.155 347.366C209.037 340.485 205.9 333.567 202.669 326.702C206.912 325.918 211.178 325.289 215.371 324.749C227.071 323.244 239.138 321.904 250.803 320.624C254.208 320.251 257.62 319.874 261.039 319.492C275.616 337.025 292.344 350.201 306.419 359.408C313.961 364.325 321.747 368.854 329.749 372.98C316.301 383.148 303.219 393.841 290.447 404.271C286.02 407.891 281.552 411.532 277.043 415.194H278.307C282.562 411.745 286.778 408.308 290.956 404.884C303.816 394.365 316.99 383.594 330.534 373.366C337.62 377.01 344.763 380.319 351.891 383.376C342.154 389.567 334.217 399.151 329.42 410.788C328.82 412.245 328.295 413.718 327.808 415.194H328.643C329.101 413.819 329.591 412.447 330.151 411.085C334.964 399.413 342.964 389.839 352.776 383.749C372.672 392.197 392.224 398.468 409.024 403.436L409.657 403.623C416.74 405.715 423.981 407.861 430.385 411.303C430.565 411.101 430.745 410.899 430.922 410.693C424.411 407.163 417.066 405.004 409.881 402.864L409.249 402.678C392.619 397.76 373.289 391.565 353.595 383.243C356.148 381.72 358.834 380.434 361.621 379.4C382.127 371.823 404.872 376.669 424.936 380.942Z" fill="white"/>
<path d="M35.6942 329.758C39.1726 344.044 37.6263 359.468 31.419 372.086C27.3525 380.351 21.4804 387.829 14.2485 394.255C14.3908 394.476 14.5395 394.697 14.6849 394.921C22.0338 388.414 28.0007 380.822 32.1273 372.437C38.4169 359.658 39.9948 344.032 36.4595 329.572C33.6989 318.272 28.1462 308.711 20.4748 301.758L19.9657 302.365C27.5106 309.198 32.9716 318.626 35.6942 329.758Z" fill="white"/>
<path d="M214.615 148.791C221.502 155.827 224.589 167.676 220.791 178.603C217.113 189.181 209.053 197.943 199.371 203.572C191.579 208.104 181.416 210.604 173.757 205.86C168.03 202.314 165.061 195.354 164.903 188.622C164.745 181.89 167.003 175.347 169.801 169.206C173.748 160.574 179.057 152.202 186.969 146.952C197.862 139.72 207.994 142.031 214.615 148.791Z" fill="#F7F0E3"/>
<path d="M123.324 25.4623H66.3008V0H123.324V25.4623ZM67.4866 24.277H122.141V1.18525H67.4866V24.277Z" fill="#E9DDCA"/>
<path d="M86.2286 49.8153H29.2024V24.3372H86.2286V49.8153ZM30.3882 48.63H85.0428V25.535H30.3882V48.63Z" fill="#E9DDCA"/>
<path d="M447.792 76.9463C444.103 64.6766 437.609 53.3962 428.31 43.105C419.011 32.8139 406.311 24.3044 390.21 17.5764C374.114 10.8505 353.666 7.48755 328.864 7.48755C309.077 7.48755 288.911 10.1541 268.365 15.4872C247.82 20.8203 229.97 28.4417 214.814 38.3514L234.508 92.3987L223.953 100.933L239.261 105.43C254.37 97.5264 268.136 91.7856 280.559 88.2077C292.982 84.6298 306.167 82.8525 320.114 82.8756C334.07 82.8756 344.636 86.2386 351.811 92.9645C358.987 99.6904 362.571 107.803 362.563 117.302C362.563 128.781 358.883 138.973 351.524 147.878C344.164 156.782 336.016 165.788 327.077 174.895C320.886 181.216 314.878 187.749 309.053 194.491C303.241 201.22 298.08 208.486 293.641 216.189C289.11 224.059 285.502 232.424 282.889 241.12C280.163 250.029 278.807 260.021 278.82 271.096C278.82 274.674 278.895 278.925 279.104 283.872C279.139 284.785 279.186 285.676 279.24 286.555H264.767L280.559 297.229H357.339C356.919 294.478 356.723 291.698 356.754 288.916V281.773C356.779 274.94 358.162 268.18 360.824 261.886C363.562 255.314 366.976 249.044 371.012 243.178C375.116 237.19 379.687 231.535 384.682 226.265C389.718 220.911 394.567 215.861 399.228 211.113C405.419 204.792 411.813 198.066 418.41 190.936C424.896 183.957 430.739 176.409 435.868 168.381C440.998 160.27 445.189 151.603 448.362 142.546C451.656 133.249 453.31 123.057 453.323 111.97C453.336 100.882 451.492 89.2075 447.792 76.9463Z" fill="#E49B31"/>
<path d="M303.857 79.1113C290.049 79.1113 277.019 80.8318 264.767 84.2727C252.515 87.7136 238.91 93.269 223.953 100.939L199.794 36.0315C214.745 26.4547 232.379 19.0798 252.697 13.9069C273.015 8.73394 292.944 6.14746 312.484 6.14746C336.997 6.14746 357.207 9.40189 373.115 15.9107C389.023 22.4196 401.578 30.6552 410.782 40.6176C419.972 50.5864 426.391 61.5033 430.04 73.3684C433.689 85.2335 435.51 96.5308 435.504 107.26C435.504 118.006 433.869 127.87 430.6 136.85C427.463 145.632 423.325 154.023 418.267 161.857C413.188 169.64 407.412 176.946 401.011 183.685C394.502 190.588 388.184 197.098 382.057 203.215C377.453 207.812 372.663 212.7 367.685 217.877C362.753 222.968 358.231 228.44 354.161 234.243C350.182 239.911 346.807 245.98 344.093 252.35C341.465 258.428 340.097 264.975 340.07 271.596V278.499C340.039 281.191 340.233 283.882 340.649 286.542H264.757C263.928 282.279 263.445 277.956 263.315 273.615C263.11 268.827 263.034 264.712 263.034 261.254C263.034 250.535 264.376 240.865 267.059 232.242C269.646 223.812 273.213 215.714 277.687 208.114C282.086 200.65 287.186 193.623 292.92 187.127C298.664 180.62 304.603 174.305 310.735 168.182C319.549 159.37 327.602 150.653 334.894 142.031C342.154 133.408 345.791 123.545 345.803 112.441C345.803 103.239 342.26 95.3835 335.172 88.8746C328.085 82.3658 317.647 79.1113 303.857 79.1113Z" fill="#FBC343"/>
<path d="M362.594 371.71C362.594 385.547 358.113 396.229 349.149 403.755C340.185 411.282 330.051 415.051 318.745 415.061C307.418 415.061 297.278 411.293 288.325 403.755C279.372 396.218 274.896 385.536 274.898 371.71C274.898 357.887 279.375 347.205 288.328 339.664C302.121 328.026 322.533 325.441 338.685 333.601C353.023 340.849 362.594 355.574 362.594 371.71Z" fill="#E49B31"/>
<path d="M347.574 371.71C347.574 385.547 343.092 396.229 334.129 403.755C325.165 411.282 315.031 415.051 303.728 415.061C292.401 415.061 282.261 411.293 273.308 403.755C264.355 396.218 259.879 385.536 259.881 371.71C259.881 357.887 264.357 347.205 273.308 339.664C282.259 332.122 292.399 328.354 303.728 328.358C315.038 328.358 325.171 332.126 334.129 339.664C343.086 347.201 347.568 357.883 347.574 371.71Z" fill="#FBC343"/>
<path d="M120.268 175.568C121.109 171.081 118.153 166.762 113.664 165.921C109.176 165.08 104.855 168.035 104.013 172.521C103.171 177.008 106.128 181.327 110.616 182.168C115.105 183.009 119.426 180.054 120.268 175.568Z" fill="#D3DFFF"/>
<path d="M124.207 191.063C124.68 188.539 123.003 186.107 120.461 185.631C117.919 185.155 115.474 186.815 115.001 189.339C114.528 191.863 116.206 194.295 118.748 194.771C121.29 195.247 123.734 193.587 124.207 191.063Z" fill="#D3DFFF"/>
<path d="M114.755 155.426C127.469 142.718 127.469 122.113 114.755 109.404C102.04 96.696 81.4258 96.696 68.7113 109.404C55.9968 122.113 55.9968 142.718 68.7113 155.426C81.4258 168.135 102.04 168.135 114.755 155.426Z" fill="#D3DFFF"/>
<path d="M79.2309 136.515C81.496 136.515 83.3323 134.68 83.3323 132.416C83.3323 130.152 81.496 128.317 79.2309 128.317C76.9659 128.317 75.1296 130.152 75.1296 132.416C75.1296 134.68 76.9659 136.515 79.2309 136.515Z" fill="white"/>
<path d="M91.7309 136.515C93.996 136.515 95.8323 134.68 95.8323 132.416C95.8323 130.152 93.996 128.317 91.7309 128.317C89.4659 128.317 87.6296 130.152 87.6296 132.416C87.6296 134.68 89.4659 136.515 91.7309 136.515Z" fill="white"/>
<path d="M104.234 136.515C106.499 136.515 108.335 134.68 108.335 132.416C108.335 130.152 106.499 128.317 104.234 128.317C101.969 128.317 100.133 130.152 100.133 132.416C100.133 134.68 101.969 136.515 104.234 136.515Z" fill="white"/>
<path d="M68.4067 398.771L71.4487 410.491C72.2424 413.55 75.2022 415.614 78.4718 415.393C88.4453 414.714 109.17 412.274 121.066 403.509L117.683 386.615C101.331 385.692 86.0357 386.615 72.78 391.059C69.4755 392.175 67.5592 395.497 68.4067 398.771Z" fill="#142170"/>
<path d="M87.4682 408.101C87.3818 408.101 87.298 408.072 87.2295 408.02C87.1609 407.967 87.1115 407.894 87.0887 407.811L83.0032 393.186C82.9751 393.085 82.9883 392.977 83.0399 392.886C83.0915 392.795 83.1773 392.728 83.2783 392.7C83.3794 392.671 83.4875 392.685 83.5788 392.736C83.6701 392.788 83.7372 392.873 83.7653 392.974L87.8508 407.593C87.8647 407.643 87.8687 407.695 87.8624 407.746C87.8561 407.798 87.8397 407.848 87.8142 407.893C87.7886 407.938 87.7544 407.978 87.7135 408.01C87.6726 408.042 87.6258 408.065 87.5757 408.079C87.541 408.091 87.5048 408.099 87.4682 408.101Z" fill="white"/>
<path d="M96.297 406.126C96.2106 406.126 96.1265 406.098 96.0578 406.045C95.9892 405.993 95.9399 405.919 95.9176 405.835L91.8321 391.217C91.8182 391.167 91.8142 391.115 91.8205 391.063C91.8268 391.012 91.8432 390.962 91.8688 390.917C91.8943 390.872 91.9285 390.832 91.9694 390.8C92.0103 390.768 92.0571 390.744 92.1072 390.731C92.1572 390.717 92.2095 390.713 92.2611 390.719C92.3126 390.725 92.3624 390.742 92.4076 390.767C92.4529 390.793 92.4926 390.827 92.5246 390.868C92.5566 390.909 92.5802 390.955 92.5942 391.005L96.6765 405.624C96.6909 405.673 96.6953 405.726 96.6894 405.777C96.6836 405.829 96.6675 405.878 96.6422 405.924C96.6169 405.969 96.5829 406.009 96.5421 406.041C96.5013 406.073 96.4545 406.096 96.4045 406.11C96.3695 406.12 96.3334 406.125 96.297 406.126Z" fill="white"/>
<path d="M106.549 335.406L68.5396 346.68L96.7681 385.341L137.294 388.562L193.192 364.936L171.948 332.991L106.549 335.406Z" fill="#FBC343"/>
<path d="M153.409 340.776C236.889 316.076 250.297 389.814 120.057 403.237C115.456 398.063 110.081 389.087 107.946 381.583L176.726 349.812L153.409 340.776Z" fill="#FBC343"/>
<path d="M156.957 393.622C153.051 392.358 149.311 389.906 149.311 389.906L135.897 394.109L138.97 408.699L152.906 411.543C157.159 403.765 157.399 397.393 156.957 393.622Z" fill="#F9B384"/>
<path d="M108.244 382.096L107.649 381.068C121.996 372.734 158.75 352.711 190.064 346.807L190.283 347.97C159.151 353.842 122.54 373.789 108.244 382.096Z" fill="#E49B31"/>
<path d="M106.565 335.406C28.8673 320.64 8.74651 395.276 138.986 408.699C143.827 403.309 147.365 396.879 149.326 389.906C129.319 376.523 106.953 363.808 82.4373 351.693L106.565 335.406Z" fill="#FBC343"/>
<path d="M148.991 390.405C145.298 388.053 141.446 385.569 137.367 382.936C116.902 369.728 93.7009 354.756 73.9912 346.219L74.4624 345.132C94.2638 353.706 117.506 368.707 138.022 381.941C142.098 384.57 145.946 387.055 149.639 389.406L148.991 390.405Z" fill="#E49B31"/>
<path d="M49.5445 372.411L48.5042 371.839C51.4228 366.561 56.0933 362.989 62.3892 361.257L62.7054 362.401C56.6435 364.08 52.3398 367.354 49.5445 372.411Z" fill="#E49B31"/>
<path d="M211.709 367.917C208.914 362.86 204.607 359.585 198.545 357.907L198.861 356.766C205.16 358.508 209.831 362.07 212.746 367.345L211.709 367.917Z" fill="#E49B31"/>
<path d="M131.694 408.041L130.828 407.232C137.041 400.595 140.861 393.556 142.496 385.759L143.656 386.002C141.981 394.018 138.063 401.227 131.694 408.041Z" fill="#E49B31"/>
<path d="M195.705 389.28C185.751 383.132 166.452 393.752 161.608 394.289C160.195 394.447 158.563 394.138 156.956 393.623C157.399 397.393 157.153 403.765 152.906 411.528L155.274 412.008C155.274 412.008 171.638 418.013 188.999 414.515C205.021 411.294 203.532 394.109 195.705 389.28Z" fill="#142170"/>
<path d="M182.14 409.385C182.099 409.385 182.059 409.378 182.02 409.366C181.971 409.35 181.925 409.325 181.885 409.292C181.846 409.259 181.813 409.218 181.789 409.172C181.765 409.127 181.751 409.077 181.747 409.025C181.742 408.974 181.748 408.922 181.764 408.873C182.946 405.127 183.462 397.763 180.037 392.82C179.998 392.736 179.989 392.641 180.013 392.552C180.036 392.463 180.09 392.384 180.165 392.331C180.24 392.277 180.332 392.251 180.424 392.258C180.516 392.265 180.603 392.304 180.67 392.368C184.259 397.548 183.731 405.219 182.5 409.119C182.474 409.195 182.426 409.26 182.361 409.308C182.297 409.355 182.22 409.382 182.14 409.385Z" fill="white"/>
<path d="M174.329 410.867C174.289 410.867 174.248 410.86 174.209 410.848C174.109 410.816 174.026 410.746 173.978 410.653C173.93 410.56 173.921 410.452 173.953 410.352C175.136 406.61 175.651 399.245 172.227 394.302C172.167 394.216 172.145 394.11 172.163 394.007C172.181 393.904 172.239 393.812 172.325 393.752C172.367 393.722 172.415 393.701 172.466 393.689C172.517 393.678 172.569 393.677 172.62 393.686C172.671 393.695 172.72 393.714 172.764 393.742C172.808 393.77 172.845 393.807 172.875 393.85C176.464 399.03 175.936 406.698 174.706 410.601C174.679 410.679 174.628 410.747 174.56 410.795C174.493 410.842 174.412 410.868 174.329 410.867Z" fill="white"/>
<path d="M92.8029 239.177C92.8029 239.177 112.37 222.545 111.646 219.385C111.128 217.125 105.587 220.437 105.587 220.437C105.587 220.437 113.36 211.218 112.965 210.099C112.256 208.098 106.881 211.828 106.881 211.828C106.881 211.828 110.514 206.6 108.778 205.747C107.042 204.893 103.254 208.117 103.254 208.117C103.254 208.117 105.467 205.216 104.427 204.454C103.387 203.692 98.9026 206.824 98.9026 206.824C98.9026 206.824 100.512 203.164 97.0907 204.552C93.6693 205.939 69.697 227.941 69.697 227.941L92.8029 239.177Z" fill="#F9B384"/>
<path d="M100.809 219.448C100.716 219.447 100.626 219.412 100.556 219.35C97.1981 216.281 95.7151 215.538 92.0185 214.397C91.969 214.382 91.9229 214.357 91.883 214.324C91.8431 214.291 91.8101 214.25 91.786 214.205C91.7619 214.159 91.7471 214.109 91.7425 214.057C91.7379 214.005 91.7436 213.953 91.7592 213.904C91.7899 213.804 91.8591 213.72 91.9516 213.671C92.0441 213.622 92.1523 213.611 92.2525 213.642C96.0914 214.824 97.6282 215.592 101.107 218.765C101.145 218.8 101.176 218.842 101.198 218.89C101.221 218.937 101.233 218.988 101.235 219.04C101.238 219.092 101.23 219.144 101.212 219.192C101.194 219.241 101.167 219.286 101.132 219.325C101.091 219.369 101.041 219.403 100.985 219.424C100.929 219.446 100.869 219.454 100.809 219.448Z" fill="#E28B6D"/>
<path d="M94.9151 228.471H94.8582C94.8068 228.465 94.7573 228.447 94.7125 228.421C94.6678 228.395 94.6287 228.36 94.5975 228.319C94.5663 228.277 94.5437 228.23 94.5309 228.18C94.5181 228.129 94.5154 228.077 94.523 228.026C94.9056 225.276 95.7721 223.557 97.1697 222.773C98.365 222.103 99.9176 222.169 101.79 222.978C101.839 222.998 101.883 223.027 101.921 223.065C101.959 223.102 101.988 223.146 102.008 223.195C102.028 223.244 102.038 223.297 102.038 223.349C102.037 223.402 102.026 223.455 102.005 223.503C101.984 223.552 101.953 223.595 101.915 223.632C101.876 223.668 101.831 223.696 101.781 223.715C101.732 223.734 101.679 223.742 101.626 223.74C101.573 223.738 101.521 223.725 101.473 223.702C99.8417 222.997 98.5231 222.918 97.5555 223.462C96.4045 224.094 95.6582 225.674 95.3009 228.136C95.2867 228.229 95.2401 228.313 95.1695 228.375C95.0988 228.436 95.0087 228.47 94.9151 228.471Z" fill="#E28B6D"/>
<path d="M93.9917 211.843C93.9124 211.843 93.8349 211.82 93.7693 211.775C93.7036 211.731 93.6528 211.668 93.6235 211.594C93.5942 211.521 93.5877 211.44 93.6048 211.363C93.622 211.285 93.662 211.215 93.7197 211.161L98.6306 206.537C98.6678 206.498 98.7124 206.468 98.7617 206.447C98.811 206.427 98.864 206.416 98.9174 206.417C98.9709 206.417 99.0237 206.428 99.0727 206.45C99.1217 206.471 99.1658 206.502 99.2024 206.541C99.239 206.58 99.2673 206.626 99.2856 206.676C99.304 206.726 99.3119 206.78 99.309 206.833C99.3061 206.886 99.2924 206.939 99.2687 206.987C99.245 207.034 99.2119 207.077 99.1713 207.112L94.2636 211.736C94.1901 211.805 94.0927 211.844 93.9917 211.843Z" fill="#E28B6D"/>
<path d="M98.5357 213.424C98.4853 213.424 98.4353 213.415 98.3886 213.396C98.342 213.377 98.2995 213.349 98.2638 213.313C98.2271 213.277 98.198 213.233 98.1781 213.186C98.1582 213.138 98.1479 213.087 98.1479 213.035C98.1479 212.983 98.1582 212.932 98.1781 212.884C98.198 212.837 98.2271 212.793 98.2638 212.757L102.982 207.845C103.017 207.805 103.06 207.772 103.108 207.748C103.156 207.725 103.209 207.711 103.262 207.709C103.316 207.706 103.37 207.715 103.42 207.734C103.47 207.753 103.516 207.782 103.555 207.819C103.593 207.856 103.624 207.901 103.645 207.95C103.666 207.999 103.676 208.052 103.676 208.106C103.676 208.16 103.664 208.213 103.643 208.262C103.621 208.311 103.59 208.355 103.551 208.392L98.8362 213.304C98.7969 213.343 98.75 213.374 98.6984 213.395C98.6467 213.415 98.5914 213.425 98.5357 213.424Z" fill="#E28B6D"/>
<path d="M103.181 216.189C103.082 216.189 102.986 216.152 102.912 216.085C102.874 216.05 102.844 216.007 102.822 215.96C102.8 215.912 102.788 215.861 102.787 215.809C102.785 215.757 102.793 215.706 102.812 215.657C102.83 215.608 102.858 215.564 102.893 215.526L106.593 211.559C106.628 211.518 106.67 211.485 106.718 211.462C106.766 211.438 106.818 211.424 106.871 211.421C106.924 211.418 106.977 211.426 107.028 211.444C107.078 211.462 107.124 211.49 107.163 211.526C107.202 211.562 107.233 211.606 107.255 211.655C107.276 211.703 107.288 211.756 107.289 211.809C107.29 211.863 107.28 211.915 107.26 211.965C107.24 212.014 107.21 212.059 107.172 212.096L103.472 216.063C103.435 216.103 103.39 216.135 103.34 216.157C103.29 216.179 103.236 216.19 103.181 216.189Z" fill="#E28B6D"/>
<path d="M166.721 350.416L95.1808 353.182L87.2754 287.993C87.2754 287.993 111.226 265.287 120.44 256.924L135.998 256.127C184.259 278.056 176.356 305.443 166.721 350.416Z" fill="#3A6BEA"/>
<path d="M135.995 256.127C135.995 256.127 191.212 260.846 208.62 298.66C225.654 335.662 155.654 348.836 155.654 348.836L135.995 256.127Z" fill="#3A6BEA"/>
<path d="M72.875 264.231L95.6931 236.478L74.358 223.551C65.4566 229.736 48.245 243.747 33.658 259.614C30.4389 263.116 27.9218 267.199 26.657 271.713C25.5984 275.402 25.3695 279.28 25.9866 283.069C27.5677 292.76 35.1948 300.235 45.3738 301.426C54.0665 302.444 87.2723 299.846 114.151 291.944L122.056 261.447C117.993 259.143 87.8004 258.745 72.875 264.231Z" fill="#3A6BEA"/>
<g opacity="0.8">
<path d="M182.074 271.134L182.431 271.052C182.181 270.904 181.931 270.761 181.681 270.616C177.634 271.548 173.46 272.512 169.349 272.996C166.876 273.293 158.614 273.84 156.198 268.334C154.996 265.597 155.907 262.553 157.263 260.417C157.067 260.356 156.868 260.303 156.672 260.246C155.281 262.509 154.389 265.685 155.654 268.574C158.234 274.453 166.845 273.894 169.422 273.584C173.65 273.081 177.934 272.089 182.074 271.134Z" fill="white"/>
<path d="M207.845 313.781C205.205 312.763 202.469 311.711 199.623 311.98C194.596 312.454 190.295 317.422 190.036 323.042C189.859 326.882 191.326 330.906 194.121 334.446L194.627 334.129C191.892 330.691 190.456 326.787 190.627 323.067C190.877 317.719 194.934 313.004 199.677 312.558C202.403 312.305 204.945 313.282 207.636 314.322C208.585 314.691 209.575 315.068 210.568 315.384C210.618 315.194 210.669 315.001 210.713 314.808C209.739 314.511 208.784 314.145 207.845 313.781Z" fill="white"/>
<path d="M68.4733 294.934C65.0265 292.089 59.6698 291.321 53.7787 292.845C48.5296 294.201 44.0267 296.89 40.9341 300.446C41.1365 300.513 41.3357 300.585 41.5412 300.645C44.5516 297.273 48.8869 294.722 53.9274 293.417C59.6192 291.944 64.7957 292.665 68.0938 295.392C69.6107 296.698 70.8017 298.34 71.5722 300.187L72.1856 300.118C71.3785 298.119 70.1058 296.342 68.4733 294.934Z" fill="white"/>
<path d="M37.3135 255.739C43.7738 254.136 50.0759 251.883 55.8911 248.536C58.1046 247.271 60.5679 245.656 62.3134 243.289C64.1696 240.76 64.7863 237.77 63.9641 235.267C63.6398 234.307 63.0875 233.439 62.3546 232.739L61.8992 233.115C62.5854 233.76 63.1004 234.566 63.3981 235.46C64.1633 237.783 63.5783 240.583 61.836 242.947C60.1569 245.226 57.7252 246.797 55.5939 248.03C50.1107 251.19 44.1785 253.371 38.0882 254.949L37.3135 255.739Z" fill="white"/>
</g>
<path d="M141.048 241.636V242.647L140.887 258.365L140.868 260.069C140.757 262.59 139.676 264.972 137.852 266.717C136.027 268.462 133.6 269.436 131.074 269.436C128.549 269.436 126.122 268.462 124.297 266.717C122.473 264.972 121.392 262.59 121.281 260.069L121.092 240.646L141.048 241.636Z" fill="#F9B384"/>
<path d="M141.032 242.647L140.871 258.365C132.131 254.809 128.538 245.353 128.538 245.353L141.032 242.647Z" fill="#142170"/>
<path d="M144.51 215.219C147.644 218.974 156.789 240.261 147.518 247.524C137.082 255.697 121.208 242.265 121.208 242.265L119.077 217.472L132.861 213.841L144.51 215.219Z" fill="#F9B384"/>
<path d="M112.041 213.854C112.041 213.854 81.4761 229.78 106.4 275.72C109.6 281.615 116.684 284.197 122.755 281.318C124.292 280.585 125.661 279.543 126.777 278.258C127.893 276.972 128.733 275.471 129.243 273.847C129.753 272.223 129.924 270.512 129.743 268.819C129.563 267.127 129.035 265.49 128.194 264.01C124.115 256.772 120.181 247.448 121.869 240.514L112.041 213.854Z" fill="#142170"/>
<path d="M120.774 227.239C124.003 224.011 124.003 218.778 120.774 215.55C117.545 212.322 112.309 212.322 109.08 215.55C105.851 218.778 105.85 224.011 109.08 227.239C112.309 230.467 117.545 230.467 120.774 227.239Z" fill="#FBC343"/>
<path d="M125.101 231.326C124.206 226.171 123.662 222.634 128.877 219.976C128.877 219.976 147.252 223.317 150.759 216.385C154.266 209.454 148.922 198.521 137.731 206.119C109.082 200.525 105.24 227.321 113.926 236.256L122.499 234.941C122.909 234.878 123.302 234.734 123.655 234.517C124.009 234.3 124.316 234.015 124.558 233.679C124.801 233.342 124.973 232.961 125.066 232.557C125.16 232.153 125.171 231.734 125.101 231.326Z" fill="#142170"/>
<path d="M139.328 232.562C140.002 232.562 140.548 232.015 140.548 231.342C140.548 230.668 140.002 230.122 139.328 230.122C138.653 230.122 138.107 230.668 138.107 231.342C138.107 232.015 138.653 232.562 139.328 232.562Z" fill="#142170"/>
<path d="M147.597 228.491C148.271 228.491 148.817 227.944 148.817 227.271C148.817 226.597 148.271 226.051 147.597 226.051C146.922 226.051 146.376 226.597 146.376 227.271C146.376 227.944 146.922 228.491 147.597 228.491Z" fill="#142170"/>
<path d="M146.749 235.1C146.705 235.1 146.661 235.091 146.621 235.074C146.58 235.058 146.543 235.033 146.512 235.002C146.48 234.97 146.454 234.932 146.437 234.89C146.419 234.848 146.41 234.804 146.41 234.758C146.41 234.713 146.419 234.668 146.437 234.626C146.454 234.584 146.48 234.547 146.512 234.515C147.002 234 147.54 233.276 147.312 232.748C147.084 232.22 146.088 231.967 145.636 231.967C144.662 231.967 144.194 230.235 144.109 229.888C144.093 229.842 144.087 229.793 144.091 229.745C144.096 229.697 144.11 229.65 144.133 229.608C144.157 229.565 144.189 229.528 144.227 229.499C144.266 229.469 144.31 229.448 144.357 229.437C144.404 229.426 144.453 229.424 144.501 229.433C144.548 229.442 144.594 229.461 144.634 229.488C144.674 229.515 144.708 229.55 144.733 229.591C144.759 229.632 144.776 229.678 144.782 229.726C144.959 230.457 145.361 231.275 145.636 231.275C146.101 231.275 147.533 231.496 147.948 232.476C148.248 233.175 147.948 234.022 147.015 235.005C146.98 235.038 146.938 235.064 146.892 235.08C146.846 235.096 146.798 235.103 146.749 235.1Z" fill="#142170"/>
<path d="M146.812 239.73C146.744 239.73 146.677 239.71 146.62 239.673C144.321 238.121 141.997 239.423 141.974 239.436C141.935 239.458 141.891 239.473 141.846 239.479C141.801 239.484 141.756 239.481 141.712 239.469C141.668 239.457 141.627 239.436 141.591 239.409C141.555 239.381 141.526 239.346 141.503 239.306C141.48 239.267 141.465 239.224 141.459 239.179C141.453 239.134 141.456 239.088 141.467 239.044C141.479 239 141.5 238.959 141.528 238.924C141.555 238.888 141.59 238.858 141.63 238.835C141.74 238.772 144.352 237.309 147.005 239.098C147.081 239.149 147.134 239.228 147.152 239.318C147.17 239.408 147.151 239.502 147.1 239.578C147.069 239.625 147.026 239.664 146.976 239.69C146.925 239.717 146.869 239.731 146.812 239.73Z" fill="#142170"/>
<path d="M138.793 226.051C139.489 227.359 138.275 227.631 136.858 228.377C135.441 229.123 133.987 229.404 133.655 228.781C133.323 228.159 134.205 227.04 135.622 226.288C137.038 225.535 138.256 225.039 138.793 226.051Z" fill="#142170"/>
<path d="M143.966 223.693C144.283 224.859 145.143 224.347 146.408 224.009C147.672 223.67 148.697 223.041 148.551 222.485C148.406 221.929 147.261 221.746 145.996 222.074C144.732 222.403 143.729 222.789 143.966 223.693Z" fill="#142170"/>
<path opacity="0.4" d="M136.139 239.663C137.601 238.315 137.693 236.038 136.344 234.576C134.995 233.115 132.717 233.023 131.255 234.371C129.793 235.719 129.701 237.997 131.049 239.458C132.398 240.92 134.677 241.011 136.139 239.663Z" fill="#EB5D60"/>
<path d="M124.397 240.449C126.043 238.316 125.413 235.072 122.989 233.203C120.566 231.333 117.266 231.546 115.62 233.678C113.974 235.811 114.604 239.055 117.027 240.924C119.451 242.794 122.75 242.581 124.397 240.449Z" fill="#F9B384"/>
<path d="M122.154 238.857C122.062 238.857 121.975 238.821 121.91 238.757C121.846 238.692 121.809 238.604 121.809 238.513C121.812 238.015 121.692 237.523 121.46 237.082C121.228 236.641 120.891 236.264 120.478 235.984C120.154 235.75 119.777 235.598 119.381 235.543C118.984 235.488 118.58 235.531 118.204 235.668C118.162 235.692 118.115 235.706 118.066 235.711C118.018 235.715 117.969 235.709 117.923 235.693C117.877 235.677 117.835 235.652 117.8 235.618C117.765 235.585 117.737 235.544 117.718 235.5C117.699 235.455 117.69 235.406 117.692 235.358C117.693 235.309 117.705 235.261 117.726 235.218C117.747 235.174 117.777 235.135 117.814 235.104C117.852 235.073 117.895 235.05 117.942 235.036C118.422 234.853 118.939 234.791 119.449 234.856C119.959 234.92 120.445 235.109 120.864 235.406C121.37 235.748 121.785 236.209 122.071 236.75C122.356 237.29 122.504 237.892 122.502 238.503C122.503 238.55 122.495 238.596 122.478 238.639C122.461 238.682 122.436 238.721 122.403 238.754C122.371 238.787 122.332 238.814 122.289 238.831C122.246 238.849 122.2 238.858 122.154 238.857Z" fill="#142170"/>
<path d="M72.5858 263.954L60.1062 277.448L60.6867 277.984L73.1663 264.49L72.5858 263.954Z" fill="#142170"/>
<path d="M160.511 321.955L160.28 321.199C169.368 318.434 178.184 315.121 186.175 305.134L186.807 305.627C178.662 315.791 169.722 319.151 160.511 321.955Z" fill="#142170"/>
<path d="M166.035 291.356H88.7458C85.9663 291.356 83.7148 293.793 83.7148 296.799V351.956C83.7148 354.961 85.9663 357.398 88.7458 357.398H166.035C168.815 357.398 171.069 354.961 171.069 351.956V296.786C171.072 293.793 168.815 291.356 166.035 291.356Z" fill="#D3DFFF"/>
<path d="M131.473 320.889C131.619 320.896 131.757 320.96 131.857 321.068C131.956 321.176 132.009 321.318 132.004 321.465V327.29C132.009 327.436 131.956 327.578 131.856 327.685C131.757 327.793 131.619 327.856 131.473 327.862H123.324C123.178 327.856 123.04 327.793 122.94 327.685C122.84 327.578 122.787 327.436 122.793 327.29V321.465C122.787 321.318 122.84 321.176 122.94 321.068C123.039 320.96 123.177 320.896 123.324 320.889H131.485M131.485 319.309H123.324C122.758 319.316 122.218 319.546 121.822 319.95C121.426 320.355 121.206 320.899 121.212 321.465V327.29C121.206 327.855 121.426 328.399 121.822 328.803C122.218 329.206 122.758 329.436 123.324 329.442H131.485C132.051 329.436 132.591 329.206 132.987 328.803C133.383 328.399 133.603 327.855 133.598 327.29V321.465C133.603 320.899 133.383 320.355 132.987 319.95C132.591 319.546 132.051 319.316 131.485 319.309Z" fill="#1F3C88"/>
<path d="M466 414.42H0V416H466V414.42Z" fill="#142170"/>
</svg>
