<svg width="631" height="417" viewBox="0 0 631 417" fill="none" xmlns="http://www.w3.org/2000/svg">
<path d="M62.9816 346.731C66.1396 335.855 63.7936 324.127 60.0636 313.434C59.1666 310.864 58.1406 308.239 56.2206 306.31C55.2386 305.323 53.8796 304.514 52.5146 304.791C50.5126 305.197 49.6706 307.582 49.4446 309.613C48.0196 322.433 56.4676 334.184 58.6046 346.905" fill="#B5D0FF"/>
<path d="M71.9748 341.271C72.5918 338.042 73.4538 334.827 74.9868 331.92C76.5198 329.012 78.7698 326.412 81.6778 324.879C82.9688 324.199 84.6908 323.79 85.7818 324.758C86.9808 325.822 86.5948 327.783 85.8858 329.221C82.0058 337.095 72.0918 340.624 68.3208 348.551" fill="#B5D0FF"/>
<path d="M67.3986 347.695C69.8586 343.103 72.2336 338.413 73.5906 333.384C74.9486 328.354 75.2376 322.912 73.5396 317.986C73.0156 316.466 71.7126 314.728 70.1936 315.252C69.6336 315.445 69.2206 315.917 68.8626 316.389C66.0326 320.114 64.9466 324.872 64.4346 329.522C63.9226 334.172 63.9076 338.893 62.8856 343.458C62.7336 344.138 62.5426 344.846 62.0636 345.352C61.5846 345.859 60.7306 346.078 60.1826 345.647C59.8756 345.405 59.7246 345.018 59.6056 344.646C58.9556 342.612 48.8686 321.668 39.7296 320.197C38.9906 320.078 38.2336 319.996 37.4926 320.119C26.0336 322.024 51.8496 345.97 52.0436 349.535C42.7026 341.528 40.7236 340.053 36.4716 339.286C33.1946 338.695 27.4856 341.601 29.3636 345.607C30.6626 348.378 33.9056 349.616 36.9066 350.215C40.1856 350.869 43.5556 351.079 46.7716 351.992C49.9876 352.905 53.1516 354.665 54.7886 357.58" fill="#B5D0FF"/>
<path d="M41.6057 351.617C43.3537 351.617 45.0287 351.916 46.5987 352.446C46.9767 339.396 57.6667 328.931 70.8087 328.931C84.1897 328.931 95.0367 339.778 95.0367 353.159C95.0367 353.771 95.0067 354.376 94.9617 354.977C97.2997 351.033 101.587 348.381 106.504 348.381C113.916 348.381 119.925 354.39 119.925 361.803C119.925 362.854 119.792 363.872 119.564 364.854C120.948 364.083 122.54 363.64 124.237 363.64C129.552 363.64 133.86 367.948 133.86 373.263C133.86 378.578 129.552 382.886 124.237 382.886C118.923 382.886 48.3747 382.886 41.6067 382.886C32.9727 382.886 25.9727 375.886 25.9727 367.252C25.9727 358.618 32.9717 351.617 41.6057 351.617Z" fill="#9999F1"/>
<path opacity="0.2" d="M25.9716 382.885C25.9716 382.885 -37.4954 308.917 33.9986 228.424C91.6266 163.542 73.2266 138.45 70.5696 94.6978C68.3206 57.6638 110.318 2.90276 173.167 0.16976C276.181 -4.31024 305.415 81.3878 360.108 79.0458C414.801 76.7038 435.913 4.96476 499.439 12.5098C617.32 26.5098 601.432 138.234 584.252 221.743C567.072 305.251 618.693 333.765 581.546 382.952" fill="#B5D0FF"/>
<path opacity="0.2" d="M367.539 67.556C372.046 68.541 376.739 68.025 381.057 66.4C387.459 63.991 398.116 58.973 406.512 50.03C419.392 36.31 423.027 35.937 426.378 30.617C429.729 25.297 426.369 13.257 402.569 22.777C380.505 31.602 340.889 61.731 367.539 67.556Z" fill="#B5D0FF"/>
<path opacity="0.2" d="M17.4877 241.604C21.3327 237.12 25.3087 232.741 29.3687 228.451C35.7257 221.735 44.0927 211.678 45.0927 204.363C46.7287 192.393 34.7897 193.25 23.9697 203.897C5.65473 221.92 -1.16627 263.359 17.4877 241.604Z" fill="#B5D0FF"/>
<path d="M156.437 339.59C159.553 331.582 160.114 322.757 159.357 314.265C158.746 307.415 157.569 300.12 154.968 293.731C152.662 288.067 148.111 290.515 143.719 288.262C140.913 286.822 139.927 283.271 139.926 280.117C139.924 277.073 140.569 273.963 139.892 270.951C139.392 268.728 137.816 266.173 135.52 265.468C132.667 264.592 130.224 267.426 127.562 265.152C126.321 264.092 125.659 262.509 125.198 260.943C124.114 257.26 122.956 253.686 121.256 250.227C119.72 247.101 117.033 243.69 113.591 244.228C110.289 244.744 108.696 248.591 108.368 251.917C107.577 259.923 110.553 267.955 115.161 274.548C116.418 276.346 117.817 278.1 118.523 280.178C119.228 282.256 119.084 284.796 117.523 286.339C116.683 287.17 115.535 287.622 114.654 288.409C112.211 290.594 112.593 294.634 114.214 297.483C118.387 304.817 127.331 303.88 133.377 308.831C140.231 314.444 148.347 325.317 147.023 334.795" fill="#B5D0FF"/>
<path opacity="0.5" d="M149.326 326.501C149.423 314.913 145.682 303.081 138.855 293.384C134.601 287.342 129.243 282.174 124.76 276.302C120.277 270.429 114.894 262.339 114.894 250.429" stroke="white" stroke-width="0.891" stroke-miterlimit="10" stroke-linecap="round" stroke-linejoin="round"/>
<path d="M292.938 382.874C225.783 382.84 129.92 383.086 67.4324 382.84C65.3324 382.832 58.6194 380.631 70.0244 373.276C79.6834 367.048 110.213 372.651 110.213 372.651C110.213 372.651 103.106 369.802 103.139 366.125C103.172 362.448 105.959 359.217 109.305 357.691C112.651 356.166 116.462 356.055 120.133 356.265C127.603 356.693 135.002 358.348 141.942 361.145C138.997 359.334 138.099 354.894 140.108 352.081C142.118 349.268 146.609 348.678 149.277 350.876C144.588 344.525 137.338 316.381 159.619 303.978C187.546 288.432 208.755 301.225 213.281 310.582C215.577 301.398 226.114 294.444 233.055 292.72C248.884 288.79 259.195 289.955 273.972 296.856C279.2 299.297 286.199 307.635 289.674 312.241C295.117 319.454 295.965 329.047 296.265 338.078C296.49 344.857 296.521 351.642 296.356 358.422" fill="#B5D0FF"/>
<path d="M313.16 382.874C380.315 382.84 476.178 383.086 538.666 382.84C540.766 382.832 547.479 380.631 536.074 373.276C526.415 367.048 495.885 372.651 495.885 372.651C495.885 372.651 502.992 369.802 502.959 366.125C502.926 362.448 500.139 359.217 496.793 357.691C493.447 356.166 489.637 356.055 485.965 356.265C478.495 356.693 471.096 358.348 464.156 361.145C467.101 359.334 467.999 354.894 465.99 352.081C463.98 349.268 459.489 348.678 456.821 350.876C461.51 344.525 468.76 316.381 446.479 303.978C418.552 288.432 397.343 301.225 392.817 310.582C390.521 301.398 379.984 294.444 373.043 292.72C357.214 288.79 346.903 289.955 332.126 296.856C326.898 299.297 319.899 307.635 316.423 312.241C310.98 319.454 310.132 329.047 309.832 338.078C309.607 344.857 309.576 351.642 309.741 358.422" fill="#B5D0FF"/>
<path d="M266.028 382.885C266.028 382.885 228.613 382.885 219.543 382.885C210.473 382.885 211.945 372.129 237.179 376.914C230.988 374.084 230.952 370.295 231.477 369.284C231.96 368.355 233.727 367.758 234.77 367.848C237.979 368.124 240.416 370.091 243.228 371.662C238.14 368.353 234.978 362.28 235.184 356.215C235.241 354.547 235.601 352.759 236.827 351.627C238.205 350.355 240.456 349.508 242.296 349.873C245.701 350.549 251.961 356.234 254.456 358.648C241.741 346.953 236.9 328.524 245.04 324.32C258.744 317.243 269.096 357.335 269.096 357.335C269.096 357.335 262.28 327.208 273.713 327.031C285.146 326.854 275.85 362.03 275.85 362.03" fill="#9FC1F4"/>
<path d="M347.605 382.885C347.605 382.885 390.805 382.885 401.277 382.885C411.75 382.885 410.05 370.466 380.915 375.991C388.063 372.724 388.105 368.349 387.499 367.181C386.942 366.109 384.901 365.419 383.697 365.522C379.991 365.84 377.178 368.112 373.931 369.926C379.805 366.105 383.456 359.094 383.219 352.09C383.154 350.164 382.737 348.1 381.322 346.793C379.731 345.324 377.131 344.346 375.007 344.768C371.075 345.549 363.848 352.113 360.967 354.9C375.647 341.396 381.237 320.119 371.839 315.265C356.017 307.093 344.064 353.385 344.064 353.385C344.064 353.385 351.934 318.6 338.734 318.396C325.533 318.192 336.266 358.806 336.266 358.806" fill="#9FC1F4"/>
<path d="M547.896 360.807C547.896 360.807 499.5 295.43 514.687 281.468C529.873 267.505 552.066 316.688 547.896 360.807Z" fill="#D6D4FF"/>
<path d="M519.22 289.21C527.856 302.49 534.804 316.752 539.85 331.772C542.043 338.299 543.921 344.926 545.473 351.635C546.929 357.929 547.879 364.308 549.184 370.629C549.253 370.961 549.81 370.892 549.783 370.548C548.73 357.241 545.075 343.677 540.801 331.082C535.735 316.153 528.866 301.797 519.828 288.855C519.571 288.49 518.97 288.827 519.22 289.21Z" fill="#7878C4"/>
<path d="M517.967 298.164C522.061 301.064 525.932 304.367 530.081 307.16C530.342 307.336 530.58 306.963 530.398 306.749C527.29 303.095 522.572 299.729 518.272 297.643C517.92 297.471 517.65 297.939 517.967 298.164Z" fill="#7878C4"/>
<path d="M519.465 302.078C523.559 304.978 527.43 308.282 531.579 311.074C531.84 311.25 532.078 310.876 531.896 310.663C528.788 307.009 524.07 303.643 519.77 301.557C519.418 301.386 519.148 301.854 519.465 302.078Z" fill="#7878C4"/>
<path d="M557.778 353.321C557.778 353.321 604.438 286.693 588.889 273.135C573.34 259.576 552.448 309.327 557.778 353.321Z" fill="#D6D4FF"/>
<path d="M583.948 280.648C574.651 294.764 567.854 310.412 563.128 326.615C559.217 340.021 556.074 354.409 555.603 368.418C555.592 368.753 556.149 368.844 556.201 368.499C557.209 361.872 557.896 355.212 559.096 348.61C560.402 341.429 562.072 334.318 564.097 327.306C568.805 311.005 575.67 295.456 584.556 281.002C584.794 280.615 584.196 280.273 583.948 280.648Z" fill="#7878C4"/>
<path d="M559.134 321.414C558.899 326.735 559.006 332.801 560.224 338.011C560.293 338.307 560.727 338.229 560.738 337.941C560.842 335.367 560.496 332.743 560.332 330.174C560.146 327.256 560.048 324.321 559.738 321.414C559.698 321.034 559.152 321.018 559.134 321.414Z" fill="#0E7C74"/>
<path d="M554.129 329.696C554.129 329.696 507.17 263.28 522.657 249.652C538.145 236.024 559.26 285.679 554.129 329.696Z" fill="#A29EE5"/>
<path d="M527.025 257.499C543.319 283.591 552.379 313.418 555.472 343.92C556.093 350.041 556.353 356.177 556.814 362.308C556.843 362.695 557.414 362.705 557.423 362.308C557.705 350.526 556.205 338.511 554.21 326.924C551.617 311.862 547.47 297.028 541.458 282.964C537.611 273.964 533.034 265.309 527.632 257.144C527.384 256.77 526.783 257.113 527.025 257.499Z" fill="#7878C4"/>
<path d="M551.313 349.07C551.313 349.07 580.212 309.354 570.973 300.998C561.733 292.642 548.576 322.45 551.313 349.07Z" fill="#8C8CDD"/>
<path d="M567.786 305.413C560.566 315.859 555.662 327.778 552.634 340.079C550.383 349.221 548.537 359.272 548.936 368.736C548.953 369.137 549.499 369.117 549.545 368.736C550.71 359.178 551.388 349.775 553.718 340.378C556.76 328.107 561.661 316.473 568.393 305.768C568.637 305.381 568.04 305.045 567.786 305.413Z" fill="#7878C4"/>
<path d="M570.684 347.156L570.456 348.674L569.978 351.901L565.362 382.885H537.825L533.209 351.901L532.731 348.674L532.503 347.156H570.684Z" fill="#BFB8F4"/>
<path d="M570.456 348.674L569.978 351.901H533.209L532.731 348.674H570.456Z" fill="#7878C4"/>
<path d="M571.22 350.066H531.965C530.707 350.066 529.688 349.046 529.688 347.788C529.688 346.53 530.707 345.51 531.965 345.51H571.22C572.478 345.51 573.498 346.53 573.498 347.788C573.497 349.047 572.478 350.066 571.22 350.066Z" fill="#A29EE5"/>
<path d="M342.949 373.542H263.76L272.361 339.724L274.311 332.055L278.095 317.203H328.613L332.398 332.055L334.347 339.724L342.949 373.542Z" fill="#6F3FBA"/>
<path d="M334.347 339.724H272.361L274.311 332.055H332.398L334.347 339.724Z" fill="#5730A0"/>
<path d="M470.976 130.811V323.927C470.976 328.521 467.247 332.25 462.653 332.25H144.066C139.46 332.25 135.743 328.521 135.743 323.927V130.811C135.743 126.217 139.46 122.488 144.066 122.488H462.653C467.247 122.488 470.976 126.217 470.976 130.811Z" fill="#854DCE"/>
<path d="M373.337 382.885H233.367C230.008 382.885 227.286 380.162 227.286 376.804C227.286 373.445 230.009 370.723 233.367 370.723H373.337C376.696 370.723 379.418 373.446 379.418 376.804C379.418 380.162 376.695 382.885 373.337 382.885Z" fill="#774CC9"/>
<path d="M464.223 128.597H141.875V298.834H464.223V128.597Z" fill="#9999F1"/>
<path d="M303.335 322.729C299.084 322.729 295.606 319.251 295.606 315C295.606 310.749 299.084 307.271 303.335 307.271C307.586 307.271 311.064 310.749 311.064 315C311.064 319.252 307.586 322.729 303.335 322.729Z" fill="#5730A0"/>
<path opacity="0.5" d="M349.926 276.563H344.195V289.07H349.926V276.563Z" fill="#5146AF"/>
<path opacity="0.5" d="M356.449 276.563H350.718V289.07H356.449V276.563Z" fill="#5146AF"/>
<path opacity="0.5" d="M362.973 276.563H357.242V289.07H362.973V276.563Z" fill="#5146AF"/>
<path d="M245.555 276.563H239.824V289.07H245.555V276.563Z" fill="#5146AF"/>
<path d="M252.078 276.563H246.347V289.07H252.078V276.563Z" fill="#5146AF"/>
<path d="M258.601 276.563H252.87V289.07H258.601V276.563Z" fill="#5146AF"/>
<path d="M265.125 276.563H259.394V289.07H265.125V276.563Z" fill="#5146AF"/>
<path d="M271.648 276.563H265.917V289.07H271.648V276.563Z" fill="#5146AF"/>
<path d="M278.171 276.563H272.44V289.07H278.171V276.563Z" fill="#5146AF"/>
<path d="M284.694 276.563H278.963V289.07H284.694V276.563Z" fill="#5146AF"/>
<path d="M291.217 276.563H285.486V289.07H291.217V276.563Z" fill="#5146AF"/>
<path opacity="0.5" d="M297.741 276.563H292.01V289.07H297.741V276.563Z" fill="#5146AF"/>
<path opacity="0.5" d="M304.264 276.563H298.533V289.07H304.264V276.563Z" fill="#5146AF"/>
<path opacity="0.5" d="M310.787 276.563H305.056V289.07H310.787V276.563Z" fill="#5146AF"/>
<path opacity="0.5" d="M317.31 276.563H311.579V289.07H317.31V276.563Z" fill="#5146AF"/>
<path opacity="0.5" d="M323.833 276.563H318.102V289.07H323.833V276.563Z" fill="#5146AF"/>
<path opacity="0.5" d="M330.357 276.563H324.626V289.07H330.357V276.563Z" fill="#5146AF"/>
<path opacity="0.5" d="M336.88 276.563H331.149V289.07H336.88V276.563Z" fill="#5146AF"/>
<path opacity="0.5" d="M343.403 276.563H337.672V289.07H343.403V276.563Z" fill="#5146AF"/>
<path d="M364.627 275.15H238.629V290.484H364.627V275.15Z" stroke="#5146AF" stroke-width="0.75" stroke-miterlimit="10"/>
<path opacity="0.25" d="M245.709 141.415C244.135 141.415 242.86 142.691 242.86 144.264V264.365C242.86 265.939 244.136 267.214 245.709 267.214H366.008C367.582 267.214 368.857 265.938 368.857 264.365V180.635L329.636 141.414L245.709 141.415Z" fill="#5146AF"/>
<path d="M241.478 137.184C239.904 137.184 238.629 138.46 238.629 140.033V260.134C238.629 261.708 239.905 262.983 241.478 262.983H361.777C363.351 262.983 364.626 261.707 364.626 260.134V176.404L325.405 137.183H241.478V137.184Z" fill="#5146AF"/>
<path d="M328.256 176.404H364.627L325.406 137.183V173.554C325.407 175.128 326.682 176.404 328.256 176.404Z" fill="#332E99"/>
<path d="M303.388 162.299L285.635 180.577H292.414V210.597H314.363V180.577H321.142L303.388 162.299Z" fill="#9F9FF4"/>
<path d="M335.509 204.625V228.346H271.268V204.625H281.6V218.305H325.177V204.625H335.509Z" fill="#9F9FF4"/>
<path opacity="0.2" d="M327.046 332.096H304.404L363.952 122.488H386.594L327.046 332.096Z" fill="url(#paint0_linear_458_13836)"/>
<path opacity="0.2" d="M383.933 332.096H335.896L395.444 122.488H443.481L383.933 332.096Z" fill="url(#paint1_linear_458_13836)"/>
<path d="M10.6646 382.885H596.054" stroke="#DFDBF8" stroke-miterlimit="10"/>
<path opacity="0.5" d="M185.593 416.831C210.593 416.831 230.86 413.747 230.86 409.944C230.86 406.14 210.593 403.057 185.593 403.057C160.592 403.057 140.326 406.14 140.326 409.944C140.326 413.747 160.592 416.831 185.593 416.831Z" fill="#B5D0FF"/>
<path d="M186.967 391.626C186.901 393.934 185.597 397.342 185.597 397.342L186.455 402.078L189.168 402.827L195.412 395.494C195.412 395.494 195.301 391.816 195.182 391.914L186.967 391.626Z" fill="#F9DACA"/>
<path d="M210.47 409.058C210.379 409.159 210.258 409.25 210.106 409.351C208.609 410.251 204.279 410.666 201.194 410.615C197.795 410.554 194.123 409.3 192.646 408.723C191.169 408.146 185.535 408.5 184.907 407.762C184.28 407.024 184.583 404.667 184.583 404.667C184.027 401.784 184.684 397.303 185.19 397.08C185.706 396.857 185.989 398.729 186.424 399.326C186.839 399.943 188.134 400.671 189.621 399.761C191.098 398.851 191.391 396.595 193.151 395.947C194.901 395.3 195.7 395.532 195.7 395.532C197.774 396.463 201.274 400.276 203.57 401.682C205.866 403.088 209.134 403.928 209.771 404.383C210.408 404.838 210.307 406.082 210.307 406.082C210.307 406.082 211.441 407.945 210.47 409.058Z" fill="#5146AF"/>
<path d="M210.47 409.058C210.379 409.159 210.258 409.25 210.106 409.351C208.609 410.251 204.279 410.666 201.194 410.615C197.795 410.554 194.123 409.3 192.646 408.723C191.169 408.146 185.535 408.5 184.907 407.762C184.28 407.024 184.583 404.667 184.583 404.667C186.323 404.495 190.612 405.254 192.858 405.79C195.104 406.326 196.014 407.813 202.69 407.843C209.366 407.883 210.307 406.083 210.307 406.083C210.307 406.083 211.441 407.945 210.47 409.058Z" fill="#363193"/>
<path d="M160.113 389.22C160.035 391.915 158.667 398.641 158.667 398.641L159.669 404.172L162.837 405.047L170.129 396.484C170.129 396.484 170.687 390.903 170.549 391.017L160.113 389.22Z" fill="#F9DACA"/>
<path d="M187.717 412.323C187.611 412.441 187.469 412.548 187.292 412.666C185.543 413.717 180.487 414.202 176.884 414.143C172.915 414.072 168.626 412.607 166.902 411.934C165.177 411.261 158.597 411.674 157.864 410.812C157.132 409.95 157.486 407.197 157.486 407.197C156.836 403.83 157.604 398.597 158.195 398.337C158.798 398.077 159.128 400.263 159.636 400.96C160.12 401.681 161.633 402.531 163.369 401.468C165.094 400.405 165.436 397.77 167.492 397.014C169.536 396.258 170.469 396.53 170.469 396.53C172.891 397.617 176.978 402.071 179.66 403.713C182.342 405.355 186.157 406.336 186.902 406.867C187.646 407.399 187.528 408.852 187.528 408.852C187.528 408.852 188.851 411.024 187.717 412.323Z" fill="#5146AF"/>
<path d="M187.716 412.323C187.61 412.441 187.468 412.548 187.291 412.666C185.542 413.717 180.486 414.202 176.883 414.143C172.914 414.072 168.625 412.607 166.901 411.934C165.176 411.261 158.596 411.674 157.863 410.812C157.131 409.95 157.485 407.197 157.485 407.197C159.517 406.996 164.526 407.882 167.149 408.508C169.772 409.134 170.835 410.871 178.632 410.906C186.429 410.953 187.528 408.85 187.528 408.85C187.528 408.85 188.85 411.024 187.716 412.323Z" fill="#363193"/>
<path d="M203.238 213.659C203.238 213.659 207.726 210.694 204.083 205.631C202.214 203.033 203.742 201.875 202.912 199.778C202.083 197.68 201.205 197.583 201.595 195.437C201.985 193.291 201.595 193.193 200.814 192.218C200.034 191.243 202.444 189.478 201.03 187.917C199.615 186.356 198.487 187.149 198.18 186.169C197.618 184.378 199.546 183.828 198.18 182.315C196.814 180.803 196.57 181.339 195.887 179.096C195.204 176.852 195.435 174.281 193.749 171.673C191.81 168.673 192.472 169.027 189.984 166.783C187.496 164.539 188.749 163.32 186.359 161.174C183.579 158.678 179.741 159.048 177.595 160.267C177.36 160.4 177.147 160.521 176.952 160.63C175.927 161.204 174.706 161.293 173.615 160.858C172.83 160.545 171.809 160.302 170.766 160.511C168.571 160.95 169.791 162.511 167.595 163.535C164.923 164.782 163.336 162.994 162.568 168.109C162.461 168.821 162.106 169.484 161.586 169.982C159.765 171.723 158.572 171.372 158.669 174.316C158.766 177.292 160.376 177.487 159.644 179.535C158.912 181.584 157.742 182.345 157.108 184.94C156.474 187.535 158.132 186.852 157.986 189.291C157.84 191.73 156.572 191.779 157.937 193.437C159.303 195.096 159.742 195.535 159.254 196.998C158.766 198.461 157.595 199.632 157.693 201.047C157.79 202.462 158.573 202.266 156.963 204.657C155.352 207.047 155.108 211.779 156.035 215.242" fill="#383493"/>
<path d="M158.943 273.677C158.943 273.677 201.193 282.457 197.974 272.506C194.755 262.555 195.89 254.922 195.89 254.922L162.068 253.775C162.103 254.302 162.127 254.829 162.15 255.356C162.302 260.109 161.635 264.37 160.874 267.578C159.973 271.347 158.943 273.677 158.943 273.677Z" fill="#F9DACA"/>
<path d="M160.874 267.577C169.877 266.389 169.877 256.877 169.877 256.877L166.365 256.338L162.151 255.355C162.303 260.108 161.635 264.37 160.874 267.577Z" fill="#F4CCBA"/>
<path d="M170.192 205.394C170.192 205.394 163.055 207.342 155.702 210.269C155.702 210.269 160.386 223.78 157.323 232.787C157.323 232.787 162.186 250.262 161.285 256.387C161.285 256.387 174.158 261.163 196.597 256.48C196.597 256.48 197.135 236.345 199.973 231.481C199.973 231.481 196.055 217.97 199.973 208.377L183.435 205.048" fill="#7762EF"/>
<path d="M156.117 289.559C156.359 297.96 159.097 327.557 160.067 335.104C158.49 348.98 159.376 390.475 159.376 390.475C168.236 393.294 173.109 391.626 173.109 391.626C173.109 391.626 177.347 349.128 179.341 336.723C180.068 328.933 179.335 296.25 179.335 296.25C181.644 303.787 190.238 334.065 190.238 334.065C190.238 334.065 189.056 340.635 188.466 344.599C186.695 356.552 184.211 390.705 184.211 390.705C189.661 393.762 198.325 393.024 198.325 393.024C198.325 393.024 209.632 338.436 209.632 333.081C209.632 328.552 207.655 315.349 207.653 315.318C206.544 296.427 198.799 274.188 197.798 270.899C190.304 271.669 171.857 273.144 159.672 270.488C157.093 275.901 155.98 284.963 156.117 289.559Z" fill="#5146AF"/>
<path d="M197.432 272.084C192.767 272.267 188.134 273.336 183.451 273.584C180.071 273.764 176.681 273.796 173.3 273.603C170.667 273.452 168.037 273.189 165.434 272.757C163.82 272.489 161.897 271.714 160.262 271.873C160.048 271.894 159.952 272.164 160.15 272.288C161.522 273.149 163.66 273.248 165.227 273.51C167.803 273.941 170.401 274.224 173.01 274.346C176.619 274.516 180.239 274.435 183.839 274.14C188.283 273.776 193.186 273.503 197.436 272.107C197.447 272.103 197.446 272.084 197.432 272.084Z" fill="#2B269B"/>
<path d="M182.117 275.206C182.078 280.397 182.55 285.559 182.183 290.753C182.169 290.959 182.489 290.958 182.503 290.753C182.871 285.63 182.758 280.317 182.257 275.206C182.249 275.118 182.118 275.114 182.117 275.206Z" fill="#2B269B"/>
<path d="M182.317 290.655C181.336 291.034 180.214 291.131 179.277 291.606C179.161 291.665 179.218 291.848 179.342 291.846C180.386 291.833 181.516 291.38 182.395 290.841C182.489 290.783 182.428 290.612 182.317 290.655Z" fill="#2B269B"/>
<path d="M180.131 274.093C180.131 274.093 179.897 281.197 179.662 288.3C179.563 291.852 179.485 295.406 179.457 298.071C179.423 300.736 179.456 302.514 179.456 302.514C179.456 302.514 179.36 300.739 179.3 298.072C179.235 295.406 179.188 291.851 179.162 288.295C179.146 281.184 179.131 274.072 179.131 274.072L180.131 274.093Z" fill="#2B269B"/>
<path d="M200.213 280.797C197.654 280.657 195.546 280.191 193.619 278.383C192.035 276.897 191.712 275.052 191.073 273.084C191.007 272.881 190.702 272.914 190.697 273.135C190.59 278.106 195.722 281.415 200.213 280.836C200.238 280.833 200.239 280.799 200.213 280.797Z" fill="#2B269B"/>
<path d="M157.312 281.1C161.805 281.68 166.935 278.374 166.828 273.399C166.823 273.18 166.519 273.143 166.452 273.348C165.817 275.303 165.5 277.178 163.906 278.647C161.952 280.446 159.899 280.92 157.312 281.061C157.286 281.063 157.288 281.097 157.312 281.1Z" fill="#2B269B"/>
<path d="M199.964 208.385C199.964 208.385 204.067 209.135 205.148 220.049C205.922 227.862 202.278 257.878 202.278 257.878C202.278 257.878 197.769 254.993 196.452 250.164C195.135 245.335 196.525 237.213 195.94 233.701C195.355 230.189 194.947 223.509 195.145 219.704C195.343 215.899 195.921 210.691 199.964 208.385Z" fill="#F9DACA"/>
<path d="M167.887 206.069C167.887 206.069 170.896 211.056 177.721 210.67C184.312 210.307 187.555 205.882 187.555 205.882L186.864 205.73C185.272 205.391 184.019 204.161 183.668 202.581C183.574 202.171 183.492 201.785 183.41 201.41C182.86 198.752 182.684 197.149 182.684 197.149L180.038 196.529L171.27 194.457C172.148 198.648 171.937 201.329 171.481 202.992C171.106 204.362 170.053 205.439 168.683 205.837L167.887 206.069Z" fill="#F9DACA"/>
<path d="M173.167 196.492C173.167 196.492 178.049 199.969 183.411 201.409C182.861 198.751 182.685 197.148 182.685 197.148L180.039 196.528L177.838 196.294L173.167 196.492Z" fill="#E2BDAC"/>
<path d="M187.667 170.941C187.667 170.941 191.18 184.992 189.559 190.397C187.938 195.801 185.506 199.449 184.019 200.057C182.533 200.665 171.116 196.004 169.832 194.585C168.549 193.166 163.009 179.993 163.955 174.386C164.901 168.779 182.127 159.997 187.667 170.941Z" fill="#F9DACA"/>
<path d="M241.973 201.959L165.854 209.749L173.644 285.867L249.762 278.077L241.973 201.959Z" fill="#F8D846"/>
<path d="M238.752 205.683L169.763 212.743L175.872 272.444L244.861 265.384L238.752 205.683Z" fill="white"/>
<path d="M203.945 257.323L221.848 236.314L243.813 254.981L244.877 265.369L205.184 269.433L203.945 257.323Z" fill="#F4A34A"/>
<path d="M174.811 261.921L197.723 230.539L239.612 265.908L175.887 272.433L174.811 261.921Z" fill="#F7C148"/>
<path d="M224.77 220.882C225.245 225.524 221.868 229.671 217.226 230.147C212.584 230.622 208.436 227.245 207.961 222.603C207.486 217.961 210.863 213.813 215.505 213.338C220.147 212.863 224.295 216.24 224.77 220.882Z" fill="#F8D846"/>
<path d="M155.715 210.264C155.715 210.264 149.861 214.069 151.764 225.922C153.666 237.775 155.422 248.897 155.715 252.555C156.008 256.213 158.349 266.311 162.446 265.579C166.544 264.847 168.08 259.725 168.373 257.018C168.666 254.311 167.568 247.579 167.861 246.847C168.154 246.115 171.102 243.701 171.468 242.457C171.834 241.213 175.977 242.944 176.928 235.261C176.928 235.261 181.092 236.315 182.409 234.632C183.726 232.949 177.298 231.693 175.677 231.23C173.628 230.645 167.055 230.75 166.251 230.933C165.446 231.116 165.3 233.384 164.897 235.506C164.495 237.628 163.055 242.434 163.055 242.434L160.934 228.116C160.934 228.116 161.422 214.02 155.715 210.264Z" fill="#F9DACA"/>
<path d="M245.954 230.495C245.186 230.613 244.3 230.271 244.111 230.188C244.087 230.176 244.076 230.176 244.076 230.176C242.576 229.573 241.004 226.986 241.004 226.986C241.004 226.986 238.689 226.726 236.267 224.635C233.763 222.485 234.306 219.803 236.61 218.362C238.914 216.921 243.816 217.145 243.816 217.145C245.801 217.204 245.954 217.771 247.1 221.705C247.1 221.717 247.1 221.717 247.1 221.728C248.069 227.86 246.805 230.353 245.954 230.495Z" fill="#F9DACA"/>
<path d="M164.898 235.508C164.898 235.508 164.694 236.573 164.337 238.156C164.149 238.945 163.952 239.872 163.705 240.855C163.461 241.839 163.2 242.888 162.94 243.937C162.664 244.982 162.388 246.027 162.129 247.007C161.863 247.985 161.615 248.898 161.402 249.68C161.189 250.463 161.012 251.115 160.888 251.571C160.771 252.03 160.703 252.292 160.703 252.292C160.703 252.292 160.806 251.209 161.128 249.616C161.295 248.821 161.471 247.889 161.708 246.903C161.947 245.917 162.201 244.865 162.456 243.814C162.739 242.77 163.021 241.725 163.286 240.746C163.552 239.767 163.838 238.864 164.066 238.085C164.539 236.531 164.898 235.508 164.898 235.508Z" fill="#DDA692"/>
<path d="M172.312 166.441C172.312 166.441 173.387 170.994 175.143 171.799C176.899 172.604 178.345 171.58 179.232 172.677C180.119 173.775 180.704 176.335 182.46 175.823C184.216 175.311 185.753 174.713 186.558 175.89C187.363 177.067 187.656 180.36 191.317 180.579C194.23 180.754 189.85 173.335 189.85 173.335C189.85 173.335 187.289 169.254 186.923 168.953C186.557 168.652 184.161 165.79 184.019 165.716C183.877 165.643 180.693 164.854 180.117 164.928C179.54 165.001 175.727 164.928 175.727 164.928L172.312 166.441Z" fill="#383493"/>
<path d="M173.848 168.636C173.848 168.636 175.143 171.799 172.824 173.429C171.633 174.266 169.259 178.068 169.396 180.165C169.533 182.263 170.118 182.555 169.826 183.726C169.533 184.897 168.824 187.904 164.556 187.075C163.831 186.934 164.509 182.751 164.509 182.458C164.509 182.165 163.336 178.1 163.385 177.319C163.434 176.539 162.942 171.417 164.26 170.392C165.577 169.368 168.897 168.294 169.093 168.002C169.288 167.709 172.312 166.441 172.312 166.441" fill="#383493"/>
<path d="M159.348 173.209C158.172 175.583 159.18 178.048 157.756 180.554C156.886 182.086 155.527 183.585 155.669 185.478C155.737 186.384 156.253 186.879 156.541 187.694C157.395 190.11 156.242 190.773 156.531 192.693C156.823 194.634 159.15 196.32 160.458 197.615C160.578 197.734 160.745 197.558 160.641 197.432C159.758 196.363 158.391 195.31 157.697 194.124C156.19 191.548 157.21 191.812 157.391 189.851C157.517 188.491 156.881 188.094 156.441 186.877C155.129 183.254 157.888 181.914 158.852 179.116C159.507 177.215 158.974 175.171 159.353 173.209C159.353 173.209 159.349 173.207 159.348 173.209Z" fill="#383493"/>
<path d="M193.188 173.4C194.582 173.874 195.868 174.871 196.474 176.286C196.782 177.006 196.583 177.869 196.775 178.621C196.921 179.193 197.007 179.651 197.359 180.146C198.02 181.075 199.225 181.384 199.627 182.562C200.152 184.103 199.734 186.361 199.854 188.005C199.861 188.106 200.004 188.106 200.011 188.005C200.12 186.338 200.498 184.11 199.957 182.471C199.297 180.472 197.683 180.494 197.113 177.806C196.623 175.495 196.122 173.28 193.196 173.346C193.163 173.346 193.158 173.39 193.188 173.4Z" fill="#383493"/>
<path opacity="0.5" d="M485.099 416.831C515.718 416.831 540.539 413.748 540.539 409.944C540.539 406.141 515.718 403.057 485.099 403.057C454.481 403.057 429.659 406.141 429.659 409.944C429.659 413.748 454.481 416.831 485.099 416.831Z" fill="#B5D0FF"/>
<path d="M492.068 174.655L475.699 175.256C475.699 175.256 475.917 177.285 475.711 180.12C475.646 181.102 475.522 182.175 475.307 183.299C475.286 183.426 474.86 185.724 474.292 186.735C473.942 187.357 473.053 188.012 471.271 187.904C471.271 187.904 471.455 192.721 478.951 193.598C486.229 194.449 488.529 190.795 488.529 190.795C488.529 190.795 488.435 190.732 488.292 190.611C487.583 190.016 487.123 189.204 486.935 188.32C486.835 187.852 488.841 178.579 492.068 174.655Z" fill="#FBAB99"/>
<path d="M486.803 178.457C483.394 181.631 477.192 182.967 475.309 183.299C475.524 182.176 475.648 181.102 475.713 180.12C480.895 178.41 489.707 175.739 486.803 178.457Z" fill="#EF998B"/>
<path d="M472.131 154.872C471.595 155.745 471.212 156.695 470.894 157.669C469.399 162.253 464.43 178.508 468.285 180.851C472.781 183.584 480.951 181.484 485.108 179.331C493.005 175.24 495.411 174.191 496.444 165.34C497.877 153.055 479.077 143.559 472.131 154.872Z" fill="#FBAB99"/>
<path d="M465.131 152.392C465.131 152.392 471.545 162.525 484.579 158.762C484.579 158.762 482.614 161.666 483.063 164.39C483.512 167.115 484.464 168.79 484.272 170.448L485.597 170.219C485.597 170.219 487.025 166.451 490.206 168.003C493.387 169.554 489.435 177.658 490.132 177.855C490.829 178.051 495.257 173.854 497.68 168.084C500.103 162.313 500.692 157.876 495.038 155.924C495.038 155.924 493.925 150.578 488.326 148.811C482.726 147.044 465.131 152.392 465.131 152.392Z" fill="#003051"/>
<path d="M470.831 389.206C470.905 391.777 472.21 398.191 472.21 398.191L471.255 403.467L468.234 404.301L461.279 396.133C461.279 396.133 461.381 390.484 461.513 390.593L470.831 389.206Z" fill="#F9DACA"/>
<path d="M444.505 411.241C444.606 411.354 444.742 411.455 444.911 411.568C446.579 412.571 451.401 413.033 454.838 412.977C458.624 412.909 462.714 411.512 464.359 410.87C466.004 410.228 472.28 410.622 472.979 409.8C473.678 408.977 473.34 406.352 473.34 406.352C473.96 403.141 473.227 398.149 472.664 397.901C472.089 397.653 471.774 399.738 471.289 400.402C470.827 401.089 469.385 401.901 467.729 400.886C466.084 399.872 465.757 397.359 463.797 396.638C461.848 395.917 460.958 396.176 460.958 396.176C458.648 397.213 454.75 401.461 452.192 403.027C449.634 404.593 445.995 405.528 445.285 406.035C444.575 406.542 444.688 407.928 444.688 407.928C444.688 407.928 443.423 410.001 444.505 411.241Z" fill="#5146AF"/>
<path d="M444.505 411.241C444.606 411.354 444.742 411.455 444.911 411.568C446.579 412.571 451.401 413.033 454.838 412.977C458.624 412.909 462.714 411.512 464.359 410.87C466.004 410.228 472.28 410.622 472.979 409.8C473.678 408.977 473.34 406.352 473.34 406.352C471.402 406.16 466.625 407.006 464.123 407.603C461.622 408.2 460.608 409.856 453.171 409.89C445.734 409.935 444.687 407.929 444.687 407.929C444.687 407.929 443.423 410.001 444.505 411.241Z" fill="#363193"/>
<path d="M520.474 383.829C521.172 386.304 523.999 392.208 523.999 392.208L524.357 397.557L521.63 399.101L512.896 392.872C512.896 392.872 511.62 387.368 511.774 387.442L520.474 383.829Z" fill="#F9DACA"/>
<path d="M500.304 411.611C500.43 411.696 500.586 411.761 500.777 411.829C502.639 412.396 507.428 411.67 510.748 410.778C514.404 409.791 518.03 407.44 519.47 406.416C520.91 405.392 527.092 404.247 527.57 403.279C528.047 402.311 527.08 399.847 527.08 399.847C526.899 396.581 524.974 391.918 524.367 391.815C523.749 391.714 523.951 393.813 523.643 394.576C523.362 395.355 522.161 396.493 520.307 395.913C518.465 395.33 517.536 392.972 515.459 392.75C513.393 392.525 512.593 392.993 512.593 392.993C510.605 394.561 507.858 399.63 505.758 401.772C503.659 403.914 500.356 405.707 499.791 406.371C499.226 407.036 499.673 408.352 499.673 408.352C499.673 408.352 498.953 410.672 500.304 411.611Z" fill="#5146AF"/>
<path d="M500.304 411.611C500.43 411.696 500.586 411.761 500.777 411.829C502.639 412.396 507.428 411.67 510.748 410.778C514.404 409.791 518.03 407.44 519.47 406.416C520.91 405.392 527.092 404.247 527.57 403.279C528.047 402.311 527.08 399.847 527.08 399.847C525.154 400.133 520.726 402.116 518.445 403.304C516.164 404.492 515.584 406.346 508.379 408.189C501.177 410.043 499.672 408.353 499.672 408.353C499.672 408.353 498.953 410.672 500.304 411.611Z" fill="#363193"/>
<path d="M411.684 144.215C411.706 143.531 412.605 143.794 412.873 144.337C412.909 144.41 412.965 144.58 413.033 144.811C412.869 143.699 412.749 142.79 412.756 142.565C412.777 141.916 413.604 142.095 413.918 142.579C413.866 142.13 413.835 141.791 413.837 141.646C413.849 140.814 414.756 141.091 415.032 141.756C415.094 141.905 415.197 142.329 415.317 142.884C415.282 142.588 415.261 142.361 415.264 142.257C415.286 141.573 416.08 141.688 416.347 142.232C416.435 142.41 416.499 142.741 416.682 143.531C416.837 144.204 417.086 144.921 417.229 145.6C417.359 146.216 418.329 149.087 419.809 149.278C422.077 149.571 420.344 145.81 421.844 144.81C422.315 144.496 423.087 147.46 423.265 149.157C423.443 150.854 423.522 151.706 423.445 152.72C423.389 153.733 422.952 155.196 423.08 155.796C423.286 156.762 424.592 158.674 424.592 158.674L419.067 160.421C419.067 160.421 417.48 157.436 416.74 156.773C414.889 155.209 413.657 153.34 412.832 151.024C412.315 149.573 412.052 148.036 411.812 146.52C411.814 146.522 411.677 144.439 411.684 144.215Z" fill="#FFB6AC"/>
<path d="M468.573 188.413C468.573 188.413 453.859 184.346 440.061 178.163C431.43 167.965 422.966 156.593 422.316 155.527C420.842 156.235 417.695 158.001 417.695 158.001C417.695 158.001 429.707 181.655 434.119 186.548C439.159 190.757 446.526 199.967 463.426 202.844C470.601 193.087 468.573 188.413 468.573 188.413Z" fill="#FFB6AC"/>
<path d="M456.448 330.16C455.415 316.661 460.084 274.338 460.539 270.697C460.977 267.055 463.555 266.591 465.512 265.993C475.275 263.057 486.854 278.2 483.77 291.8C483.727 292.018 485.239 293.311 485.178 293.545C483.343 301.421 475.934 328.079 474.581 332.885C479.108 350.007 474.515 379.526 472.574 392.871C467.114 393.641 459.911 392.358 459.911 392.358C459.911 392.358 457.481 343.659 456.448 330.16Z" fill="#5643B9"/>
<path d="M462.105 256.288C462.105 256.288 465.815 257.205 473.202 257.012C482.584 256.766 494.483 252.017 494.483 252.017C506.452 264.97 499.872 280.138 500.287 285.126C500.702 290.114 503.092 315.411 504.163 328.613C515.692 345.906 522.556 386.196 522.599 386.385C516.812 389.455 510.951 389.933 510.951 389.933C510.951 389.933 490.17 346.327 486.015 334.078C482.245 322.966 472.507 289.235 472.326 289.266L459.91 291.39C459.883 269.901 462.105 256.288 462.105 256.288Z" fill="#5643B9"/>
<path d="M502.748 270.842C500.411 271.276 498.135 271.616 495.906 271.879C474.822 274.511 458.939 270.61 458.939 270.61C458.939 270.61 457.143 219.34 464.992 192.094C466.401 187.187 468.908 186.196 473.8 186.645C478.238 194.503 487.298 187.799 487.298 187.799C491.044 189.656 497.025 192.265 499.884 194.639C501.786 196.217 498.426 219.084 499.265 232.033C499.822 240.628 501.556 263.319 502.748 270.842Z" fill="#B0B2FF"/>
<path d="M470.146 186.706C470.146 186.706 458.079 183.876 451.106 182.149C445.739 188.413 446.34 198.506 446.34 198.506C446.34 198.506 457.508 205.604 465.672 206.287C467.423 194.388 470.146 186.706 470.146 186.706Z" fill="#B0B2FF"/>
<path d="M468.573 188.413C468.573 188.413 463.542 194.778 461.889 205.601C456.259 204.505 447.452 199.636 446.34 198.506C448.819 199.308 459.396 203.242 460.844 199.985C463.542 193.916 468.573 188.413 468.573 188.413Z" fill="#7A86DD"/>
<path d="M470.738 283.764C470.738 283.764 470.983 284.486 471.412 285.749C471.821 287.018 472.445 288.82 473.127 291.001C473.805 293.183 474.641 295.716 475.463 298.451C476.292 301.184 477.176 304.099 478.06 307.014C478.913 309.938 479.766 312.862 480.566 315.603C481.379 318.34 482.071 320.915 482.714 323.107C483.976 327.5 484.817 330.429 484.817 330.429C484.817 330.429 484.536 329.72 484.043 328.479C483.587 327.225 482.902 325.444 482.177 323.275C481.455 321.106 480.581 318.584 479.736 315.854C478.896 313.123 477.999 310.211 477.103 307.298C476.262 304.369 475.421 301.44 474.632 298.694C473.846 295.948 473.187 293.363 472.588 291.157C471.993 288.95 471.557 287.094 471.225 285.802C470.916 284.506 470.738 283.764 470.738 283.764Z" fill="#2B269B"/>
<path d="M531.351 210.021L461.162 204.479L455.621 274.668L525.81 280.209L531.351 210.021Z" fill="#F8D846"/>
<path d="M527.819 212.859L464.204 207.837L459.858 262.887L523.473 267.909L527.819 212.859Z" fill="white"/>
<path d="M487.748 253.861L507.43 237.807L524.223 258.338L523.466 267.917L486.866 265.027L487.748 253.861Z" fill="#F4A34A"/>
<path d="M460.617 253.202L486.549 228.587L518.611 267.534L459.852 262.894L460.617 253.202Z" fill="#F7C148"/>
<path d="M512.628 224.322C512.29 228.602 508.547 231.798 504.267 231.46C499.987 231.122 496.791 227.379 497.129 223.099C497.467 218.819 501.21 215.623 505.49 215.961C509.771 216.298 512.966 220.042 512.628 224.322Z" fill="#F8D846"/>
<path d="M493.479 217.871C493.479 217.871 498.986 234.671 500.199 236.351C501.412 238.031 507.946 238.218 508.599 234.298C509.252 230.378 506.547 215.725 506.547 215.725" fill="#FBAB99"/>
<path d="M499.885 194.639C499.885 194.639 506.36 201.631 508.6 219.178C508.6 219.178 502.05 221.499 494.227 221.558C494.227 221.558 490.12 216.044 488.16 206.287C486.2 196.529 492.431 190.774 499.885 194.639Z" fill="#B0B2FF"/>
<path d="M498.633 231.614C498.633 231.614 496.984 249.627 495.729 262.181C495.357 265.907 494.922 268.996 494.331 271.375C494.331 271.375 495.581 272.708 499.063 272.343C499.063 272.343 509.37 240.783 508.702 232.453" fill="#FBAB99"/>
<path d="M494.697 269.712C494.697 269.712 492.769 271.635 492.119 272.065C491.469 272.495 489.904 275.212 489.875 275.419C489.845 275.626 490.694 275.751 491.204 275.419C491.713 275.087 493.197 273.647 493.419 273.536C493.64 273.425 496.187 273.451 496.697 272.065" fill="#FBAB99"/>
<path d="M495.218 271.833C495.218 271.833 494.116 274.737 493.739 275.624C493.362 276.511 492.018 277.237 491.992 277.614C491.965 277.99 495.783 279.239 498.229 278.97C499.956 278.78 501.014 276.025 500.702 273.528C500.572 272.488 499.465 271.055 500.077 269.43" fill="#FBAB99"/>
<path d="M629.279 203.008H532.854C532.334 203.008 531.912 202.586 531.912 202.066V127.935C531.912 126.306 533.232 124.986 534.861 124.986H625.85C628.264 124.986 630.221 126.943 630.221 129.357V202.066C630.22 202.587 629.799 203.008 629.279 203.008Z" fill="#D6D4FF"/>
<path d="M586.805 196.927H541.123C539.977 196.927 539.048 195.998 539.048 194.852V182.724C539.048 181.578 539.977 180.649 541.123 180.649H586.805C587.951 180.649 588.88 181.578 588.88 182.724V194.852C588.88 195.998 587.951 196.927 586.805 196.927Z" fill="white"/>
<path opacity="0.31" d="M587.423 137.752H540.506C539.701 137.752 539.049 137.1 539.049 136.295C539.049 135.49 539.701 134.838 540.506 134.838H587.423C588.228 134.838 588.88 135.49 588.88 136.295C588.88 137.1 588.228 137.752 587.423 137.752Z" fill="white"/>
<path opacity="0.31" d="M587.423 143.775H540.506C539.701 143.775 539.049 143.123 539.049 142.318C539.049 141.513 539.701 140.861 540.506 140.861H587.423C588.228 140.861 588.88 141.513 588.88 142.318C588.88 143.122 588.228 143.775 587.423 143.775Z" fill="white"/>
<path opacity="0.31" d="M587.423 149.798H540.506C539.701 149.798 539.049 149.146 539.049 148.341C539.049 147.536 539.701 146.884 540.506 146.884H587.423C588.228 146.884 588.88 147.536 588.88 148.341C588.88 149.146 588.228 149.798 587.423 149.798Z" fill="white"/>
<path opacity="0.31" d="M587.423 155.821H540.506C539.701 155.821 539.049 155.169 539.049 154.364C539.049 153.559 539.701 152.906 540.506 152.906H587.423C588.228 152.906 588.88 153.558 588.88 154.364C588.88 155.169 588.228 155.821 587.423 155.821Z" fill="white"/>
<path opacity="0.31" d="M587.423 161.844H540.506C539.701 161.844 539.049 161.192 539.049 160.387C539.049 159.582 539.701 158.93 540.506 158.93H587.423C588.228 158.93 588.88 159.582 588.88 160.387C588.88 161.191 588.228 161.844 587.423 161.844Z" fill="white"/>
<path opacity="0.31" d="M580.089 167.869H540.506C539.701 167.869 539.049 167.217 539.049 166.412C539.049 165.607 539.701 164.955 540.506 164.955H580.089C580.894 164.955 581.546 165.607 581.546 166.412C581.546 167.217 580.894 167.869 580.089 167.869Z" fill="white"/>
<path d="M595.67 186.549L596.397 188.023L598.024 188.259L596.847 189.407L597.125 191.027L595.67 190.262L594.215 191.027L594.492 189.407L593.315 188.259L594.942 188.023L595.67 186.549Z" fill="#F7C148"/>
<path d="M602.886 186.549L603.613 188.023L605.241 188.259L604.063 189.407L604.341 191.027L602.886 190.262L601.431 191.027L601.709 189.407L600.532 188.259L602.158 188.023L602.886 186.549Z" fill="#F7C148"/>
<path d="M610.103 186.549L610.831 188.023L612.458 188.259L611.281 189.407L611.559 191.027L610.103 190.262L608.648 191.027L608.926 189.407L607.749 188.259L609.376 188.023L610.103 186.549Z" fill="#F7C148"/>
<path d="M617.319 186.549L618.046 188.023L619.673 188.259L618.496 189.407L618.774 191.027L617.319 190.262L615.864 191.027L616.142 189.407L614.964 188.259L616.591 188.023L617.319 186.549Z" fill="#F7C148"/>
<path d="M624.536 186.549L625.264 188.023L626.891 188.259L625.713 189.407L625.991 191.027L624.536 190.262L623.081 191.027L623.359 189.407L622.182 188.259L623.809 188.023L624.536 186.549Z" fill="#F7C148"/>
<path d="M629.224 122.488H532.908C532.358 122.488 531.912 122.934 531.912 123.484V130.859H630.22V123.483C630.22 122.934 629.774 122.488 629.224 122.488Z" fill="#854DCE"/>
<path d="M615.631 126.674C615.631 127.176 615.225 127.582 614.723 127.582C614.221 127.582 613.815 127.175 613.815 126.674C613.815 126.172 614.222 125.766 614.723 125.766C615.225 125.765 615.631 126.172 615.631 126.674Z" fill="white"/>
<path d="M620.146 126.674C620.146 127.176 619.739 127.582 619.237 127.582C618.735 127.582 618.329 127.175 618.329 126.674C618.329 126.172 618.736 125.766 619.237 125.766C619.738 125.766 620.146 126.172 620.146 126.674Z" fill="white"/>
<path d="M624.659 126.674C624.659 127.176 624.252 127.582 623.751 127.582C623.249 127.582 622.842 127.175 622.842 126.674C622.842 126.172 623.249 125.766 623.751 125.766C624.252 125.765 624.659 126.172 624.659 126.674Z" fill="white"/>
<path d="M626.457 135.781V166.917C626.457 167.444 626.031 167.869 625.505 167.869H594.705C594.19 167.869 593.764 167.443 593.764 166.917V135.781C593.764 135.266 594.19 134.84 594.705 134.84H625.505C626.032 134.84 626.457 135.266 626.457 135.781Z" fill="white"/>
<path d="M626.457 161.082V166.917C626.457 167.444 626.031 167.869 625.505 167.869H610.228L610.878 161.082L618.068 153.13L626.457 161.082Z" fill="#6C3DB7"/>
<path d="M622.179 167.869H594.705C594.19 167.869 593.764 167.443 593.764 166.917V161.082L604.516 149.798L622.179 167.869Z" fill="#854DCE"/>
<path d="M618.343 147.566C620.436 147.566 622.134 145.869 622.134 143.775C622.134 141.681 620.436 139.984 618.343 139.984C616.249 139.984 614.552 141.681 614.552 143.775C614.552 145.869 616.249 147.566 618.343 147.566Z" fill="#854DCE"/>
<path d="M57.3318 181.993H127.262L119.194 176.024V152.49C119.194 151.473 118.369 150.648 117.352 150.648H57.3308C56.3138 150.648 55.4888 151.473 55.4888 152.49V180.152C55.4908 181.169 56.3148 181.993 57.3318 181.993Z" fill="white" stroke="#D6D4FF" stroke-width="0.75" stroke-miterlimit="10"/>
<path opacity="0.24" d="M59.4069 158.475H91.4199V155.412H59.4069V158.475Z" fill="#A4A4F7"/>
<path opacity="0.24" d="M59.4069 163.05H91.4199V159.987H59.4069V163.05Z" fill="#A4A4F7"/>
<path opacity="0.24" d="M59.4069 167.627H91.4199V164.564H59.4069V167.627Z" fill="#A4A4F7"/>
<path opacity="0.24" d="M59.4069 172.085H91.4199V169.022H59.4069V172.085Z" fill="#A4A4F7"/>
<path opacity="0.24" d="M59.4069 177.419H81.7319V174.356H59.4069V177.419Z" fill="#A4A4F7"/>
<path opacity="0.24" d="M115.782 155.855V176.78C115.782 177.134 115.496 177.42 115.142 177.42H94.4426C94.0966 177.42 93.8105 177.134 93.8105 176.78V155.855C93.8105 155.509 94.0966 155.223 94.4426 155.223H115.142C115.496 155.222 115.782 155.508 115.782 155.855Z" fill="#A4A4F7"/>
<path d="M115.782 172.858V176.78C115.782 177.134 115.496 177.42 115.142 177.42H104.875L105.311 172.859L110.143 167.515L115.782 172.858Z" fill="#6C3DB7"/>
<path d="M112.907 177.419H94.4426C94.0966 177.419 93.8105 177.133 93.8105 176.779V172.857L101.037 165.274L112.907 177.419Z" fill="#854DCE"/>
<path d="M112.875 161.227C112.875 162.634 111.734 163.774 110.327 163.774C108.92 163.774 107.779 162.633 107.779 161.227C107.779 159.82 108.92 158.679 110.327 158.679C111.735 158.68 112.875 159.82 112.875 161.227Z" fill="#854DCE"/>
<path d="M507.15 118.27C506.011 121.127 502.772 122.519 499.915 121.38C497.058 120.241 495.666 117.002 496.805 114.145C497.944 111.288 501.183 109.896 504.04 111.035C506.897 112.174 508.289 115.413 507.15 118.27Z" fill="#9999F1"/>
<path d="M499.604 115.542L500.853 118.328L505.038 115.742" stroke="white" stroke-width="1.0564" stroke-miterlimit="10" stroke-linecap="round" stroke-linejoin="round"/>
<path d="M147.109 101.928C148.067 104.851 146.474 107.996 143.551 108.954C140.628 109.912 137.483 108.319 136.525 105.396C135.567 102.473 137.16 99.3278 140.083 98.3698C143.006 97.4128 146.151 99.0058 147.109 101.928Z" fill="#9999F1"/>
<path d="M139.57 104.673L142.316 106.011L143.868 101.342" stroke="white" stroke-width="1.0564" stroke-miterlimit="10" stroke-linecap="round" stroke-linejoin="round"/>
<path d="M576.582 234.059C576.237 238.749 572.154 242.272 567.463 241.926C562.772 241.58 559.25 237.498 559.596 232.807C559.942 228.117 564.024 224.594 568.715 224.94C573.406 225.286 576.928 229.368 576.582 234.059Z" fill="#9999F1"/>
<path d="M564.322 233.555L567.428 237.044L572.339 231.344" stroke="white" stroke-width="1.6155" stroke-miterlimit="10" stroke-linecap="round" stroke-linejoin="round"/>
<path d="M550.456 233.131C550.456 234.262 549.539 235.179 548.408 235.179C547.277 235.179 546.36 234.262 546.36 233.131C546.36 232 547.277 231.083 548.408 231.083C549.539 231.083 550.456 231.999 550.456 233.131Z" fill="#9999F1"/>
<path opacity="0.3" d="M481.505 92.2907C481.505 93.4217 480.588 94.3387 479.457 94.3387C478.326 94.3387 477.409 93.4217 477.409 92.2907C477.409 91.1597 478.326 90.2427 479.457 90.2427C480.588 90.2427 481.505 91.1597 481.505 92.2907Z" fill="#9999F1"/>
<path d="M118.627 205.399C118.627 207.204 117.164 208.667 115.359 208.667C113.554 208.667 112.091 207.204 112.091 205.399C112.091 203.594 113.554 202.131 115.359 202.131C117.164 202.13 118.627 203.594 118.627 205.399Z" fill="#9999F1"/>
<path opacity="0.3" d="M441.174 89.0177C441.174 91.7937 438.924 94.0447 436.148 94.0447C433.372 94.0447 431.121 91.7937 431.121 89.0177C431.121 86.2417 433.372 83.9907 436.148 83.9907C438.924 83.9907 441.174 86.2417 441.174 89.0177Z" fill="#9999F1"/>
<path opacity="0.3" d="M95.1077 242.674C95.1077 245.45 92.8577 247.701 90.0817 247.701C87.3057 247.701 85.0547 245.45 85.0547 242.674C85.0547 239.898 87.3057 237.647 90.0817 237.647C92.8567 237.648 95.1077 239.898 95.1077 242.674Z" fill="#9999F1"/>
<path opacity="0.3" d="M294.486 89.0175C294.486 90.8225 293.023 92.2855 291.218 92.2855C289.413 92.2855 287.95 90.8225 287.95 89.0175C287.95 87.2125 289.413 85.7495 291.218 85.7495C293.023 85.7495 294.486 87.2125 294.486 89.0175Z" fill="#9999F1"/>
<path opacity="0.3" d="M324.41 110.638C324.41 112.443 322.947 113.906 321.142 113.906C319.337 113.906 317.874 112.443 317.874 110.638C317.874 108.833 319.337 107.37 321.142 107.37C322.947 107.37 324.41 108.833 324.41 110.638Z" fill="#9999F1"/>
<path opacity="0.2" d="M375.394 92.2856C375.394 94.0906 373.931 95.5536 372.126 95.5536C370.321 95.5536 368.858 94.0906 368.858 92.2856C368.858 90.4806 370.321 89.0176 372.126 89.0176C373.931 89.0176 375.394 90.4806 375.394 92.2856Z" fill="#9999F1"/>
<path d="M86.0851 198.438C85.7251 198.438 85.4321 198.145 85.4321 197.785V193.178C85.4321 192.818 85.7251 192.525 86.0851 192.525C86.4461 192.525 86.7381 192.817 86.7381 193.178V197.785C86.7381 198.145 86.4461 198.438 86.0851 198.438Z" fill="#9999F1"/>
<path d="M88.3899 196.134H83.7819C83.4219 196.134 83.1289 195.841 83.1289 195.481C83.1289 195.121 83.4219 194.828 83.7819 194.828H88.3899C88.7499 194.828 89.0429 195.121 89.0429 195.481C89.0429 195.841 88.7499 196.134 88.3899 196.134Z" fill="#9999F1"/>
<g opacity="0.3">
<path d="M122.235 82.6547C121.875 82.6547 121.582 82.3617 121.582 82.0017V77.3947C121.582 77.0347 121.875 76.7417 122.235 76.7417C122.595 76.7417 122.888 77.0337 122.888 77.3947V82.0017C122.889 82.3627 122.596 82.6547 122.235 82.6547Z" fill="#9999F1"/>
<path d="M124.54 80.3509H119.932C119.572 80.3509 119.279 80.0579 119.279 79.6979C119.279 79.3379 119.572 79.0449 119.932 79.0449H124.54C124.9 79.0449 125.193 79.3379 125.193 79.6979C125.193 80.0589 124.9 80.3509 124.54 80.3509Z" fill="#9999F1"/>
</g>
<path d="M505.545 137.794C505.185 137.794 504.892 137.501 504.892 137.141V132.534C504.892 132.174 505.185 131.881 505.545 131.881C505.905 131.881 506.198 132.174 506.198 132.534V137.141C506.198 137.501 505.905 137.794 505.545 137.794Z" fill="#9999F1"/>
<path d="M507.849 135.49H503.241C502.881 135.49 502.588 135.197 502.588 134.837C502.588 134.477 502.881 134.184 503.241 134.184H507.849C508.209 134.184 508.502 134.477 508.502 134.837C508.502 135.197 508.21 135.49 507.849 135.49Z" fill="#9999F1"/>
<path d="M238.628 97.0009C238.268 97.0009 237.975 96.7079 237.975 96.3479V91.7409C237.975 91.3809 238.268 91.0879 238.628 91.0879C238.988 91.0879 239.281 91.3809 239.281 91.7409V96.3479C239.281 96.7089 238.989 97.0009 238.628 97.0009Z" fill="#9999F1"/>
<path d="M240.933 94.6981H236.325C235.965 94.6981 235.672 94.4051 235.672 94.0451C235.672 93.6851 235.965 93.3921 236.325 93.3921H240.933C241.293 93.3921 241.586 93.6851 241.586 94.0451C241.586 94.4051 241.293 94.6981 240.933 94.6981Z" fill="#9999F1"/>
<path d="M508.232 43.7568H486.571C485.809 43.7568 485.193 44.3728 485.193 45.1348V66.7958C485.193 67.5578 485.809 68.1738 486.571 68.1738H508.232C508.994 68.1738 509.61 67.5578 509.61 66.7958V45.1348C509.61 44.3728 508.994 43.7568 508.232 43.7568ZM501.725 55.7078V63.4248H493.079V55.7078H490.413L497.402 48.5058L504.391 55.7078H501.725Z" fill="#9999F1"/>
<path d="M278.443 57.724V78.209C278.443 78.523 278.342 78.814 278.174 79.038C277.917 79.419 277.48 79.654 276.998 79.654H246.904C246.512 79.654 246.165 79.497 245.907 79.262V60.244C245.907 59.55 246.478 58.99 247.173 58.99H268.319C269.013 58.99 269.573 58.419 269.573 57.724C269.573 57.03 270.133 56.458 270.827 56.458H277.177C277.872 56.458 278.443 57.029 278.443 57.724Z" fill="#383493"/>
<path d="M278.174 79.0369C277.917 79.4179 277.48 79.6529 276.998 79.6529H246.904C246.512 79.6529 246.165 79.4959 245.907 79.2609C245.784 79.1379 245.672 78.9919 245.605 78.8349C245.583 78.8009 245.571 78.7679 245.56 78.7339L238.862 63.4459C238.515 62.6509 239.097 61.7549 239.971 61.7549H269.808C270.29 61.7549 270.727 62.0349 270.917 62.4719L277.189 76.7859L278.174 79.0369Z" fill="#5146AF"/>
<path opacity="0.3" d="M173.482 47.3518C173.447 47.1898 173.413 47.0168 173.367 46.8548C173.228 46.1848 173.044 45.5378 172.824 44.9028C172.327 43.4588 171.646 42.1078 170.803 40.8608L172.778 38.8978L168.054 34.1738L167.962 34.2658L166.091 36.1488C164.162 34.8438 161.968 33.9198 159.6 33.4578V30.6748H152.924V33.4578C150.556 33.9198 148.362 34.8438 146.433 36.1488L144.47 34.1738L139.746 38.8978L141.721 40.8608C140.416 42.7898 139.492 44.9838 139.03 47.3518H136.247V54.0268H139.042C139.492 56.3948 140.416 58.5888 141.721 60.5178L139.746 62.4808L144.47 67.2048L146.433 65.2298C148.362 66.5348 150.556 67.4588 152.924 67.9088V70.7038H159.6V67.9098C161.967 67.4598 164.162 66.5358 166.091 65.2308L167.962 67.1128L168.054 67.2048L170.895 64.3638L172.777 62.4808L170.895 60.6098L170.803 60.5178C170.838 60.4718 170.861 60.4258 170.895 60.3788C172.154 58.4848 173.043 56.3368 173.482 54.0268H176.277V47.3518H173.482ZM156.262 61.8348C150.106 61.8348 145.117 56.8458 145.117 50.6898C145.117 44.5338 150.106 39.5448 156.262 39.5448C162.418 39.5448 167.407 44.5338 167.407 50.6898C167.407 56.8448 162.418 61.8348 156.262 61.8348Z" fill="#9999F1"/>
<path d="M200.241 86.4888L182.487 104.767H189.266V134.786H211.215V104.767H217.994L200.241 86.4888Z" fill="#5146AF"/>
<path d="M602.887 222.129L591.263 234.097H595.701V253.753H610.073V234.097H614.511L602.887 222.129Z" fill="#854DCE"/>
<path d="M391.25 120.058C392.24 120.058 393.188 120.228 394.077 120.527C394.291 113.138 400.344 107.213 407.784 107.213C415.36 107.213 421.501 113.354 421.501 120.93C421.501 121.277 421.484 121.619 421.459 121.959C422.783 119.726 425.21 118.224 427.994 118.224C432.191 118.224 435.593 121.626 435.593 125.823C435.593 126.418 435.518 126.995 435.388 127.55C436.172 127.114 437.073 126.863 438.034 126.863C441.043 126.863 443.482 129.302 443.482 132.311C443.482 135.32 441.043 137.759 438.034 137.759C435.025 137.759 395.082 137.759 391.25 137.759C386.361 137.759 382.398 133.796 382.398 128.907C382.398 124.021 386.361 120.058 391.25 120.058Z" fill="#5146AF"/>
<path d="M408.367 115.542L402.3 121.788H404.617V132.047H412.117V121.788H414.434L408.367 115.542Z" fill="white"/>
<path d="M81.7319 270.044L70.1079 282.012H74.5459V301.667H88.9179V282.012H93.3559L81.7319 270.044Z" fill="#9999F1"/>
<defs>
<linearGradient id="paint0_linear_458_13836" x1="345.499" y1="120.244" x2="345.499" y2="331.158" gradientUnits="userSpaceOnUse">
<stop stop-color="white"/>
<stop offset="1" stop-color="white" stop-opacity="0"/>
</linearGradient>
<linearGradient id="paint1_linear_458_13836" x1="389.689" y1="120.244" x2="389.689" y2="331.158" gradientUnits="userSpaceOnUse">
<stop stop-color="white"/>
<stop offset="1" stop-color="white" stop-opacity="0"/>
</linearGradient>
</defs>
</svg>
