<?xml version="1.0" ?>

<!-- Uploaded to: SVG Repo, www.svgrepo.com, Generator: SVG Repo Mixer Tools -->
<svg fill="#000000" width="800px" height="800px" viewBox="0 0 512 512" version="1.1" xml:space="preserve" xmlns="http://www.w3.org/2000/svg" xmlns:xlink="http://www.w3.org/1999/xlink">

<g id="Paint_Roller">

<g id="XMLID_244_">

<path d="M249,297.82c0-31.312-23.952-56.82-55.265-56.82h-57.783C108.485,241,85,218.686,85,191.22v-79.701    c0-26.645,19.797-48.565,45.404-50.647c0.327,0.143,0.596,0.267,0.596,0.375V69h24V34h-24v6.859    c-16,0.755-33.499,8.113-46.028,20.93C71.851,75.211,65,92.872,65,111.519v79.701C65,229.673,97.499,261,135.952,261h57.783    C214.061,261,229,277.494,229,297.82V338h-11v52h45v-52h-14V297.82z" id="XMLID_268_"/>

<rect height="99" id="XMLID_275_" width="141" x="240" y="2"/>

<path d="M194.467,101H220V2h-25.533C184.512,2,175,10.029,175,19.985v4.31v53.879v4.31    C175,92.44,184.512,101,194.467,101z" id="XMLID_331_"/>

<path d="M429.381,2H400v99h29.381C439.337,101,446,92.44,446,82.485v-62.5C446,10.029,439.337,2,429.381,2z" id="XMLID_355_"/>

<path d="M387.628,121H304v59.545c0,9.361,8.256,16.977,17.595,16.977c9.339,0,17.266-7.616,17.266-16.977    c0-5.502,4.068-9.963,9.57-9.963c5.502,0,9.57,4.46,9.57,9.963v32.328c0,9.361,7.161,16.977,16.5,16.977s16.5-7.616,16.5-16.977    v-91.442c0,0.033,0.334,0.318-0.002,0.318C389.43,121.749,388.948,122,387.628,121z" id="XMLID_356_"/>

<path d="M218,487.658c0,12.333,10.168,22.365,22.499,22.365c12.333,0,22.501-10.033,22.501-22.365V410h-45    V487.658z" id="XMLID_357_"/>

</g>

</g>

<g id="Layer_1"/>

</svg>
