<svg width="409" height="262" viewBox="0 0 409 262" fill="none" xmlns="http://www.w3.org/2000/svg">
<g opacity="0.34">
<g opacity="0.6">
<path d="M356.286 168.525C359.129 182.097 358.648 194.529 354.855 207.823C350.109 224.458 339.408 239.93 324.118 249.457C318.752 252.801 312.991 255.315 306.992 257.102C306.013 258.788 304.953 260.421 303.828 261.999H355.034C368.057 245.238 375.518 223.748 376.693 201.881C377.01 195.966 376.869 190.024 376.252 184.14C373.863 161.338 364.516 139.612 350.483 122.377C350.275 123.588 350.098 124.803 349.969 126.023C348.439 140.543 353.367 154.59 356.286 168.525Z" fill="#53D0F7"/>
</g>
<g opacity="0.41">
<path d="M197.748 258.623C194.745 254.134 192.395 248.413 189.208 243.83C182.384 245.33 175.645 247.52 168.83 249.408C154.883 253.272 140.514 256.147 126.121 256.36C110.129 256.597 93.8218 253.264 79.9122 244.379C69.3048 237.604 59.9765 227.251 54.9326 214.891C56.3406 231.938 62.0573 248.562 71.6902 262H200.171C199.331 260.904 198.522 259.779 197.748 258.623Z" fill="#53D0F7"/>
</g>
<g opacity="0.41">
<path d="M218.007 24.7456C221.893 24.603 226.071 24.3513 230.63 23.9783C251.903 22.2369 272.976 27.4778 293.41 34.7156C295.381 35.4136 297.342 36.1655 299.288 36.9675C290.489 26.5011 279.268 18.3585 266.922 13.7321C242.485 4.57633 212.85 8.21644 191.325 22.6343C200.169 22.6587 209.071 23.3805 218.007 24.7456Z" fill="#53D0F7"/>
</g>
<g opacity="0.35">
<path d="M79.3937 244.553C93.2635 253.236 109.556 256.554 125.549 256.411C139.943 256.282 154.324 253.575 168.288 249.906C175.112 248.113 181.861 246.028 188.691 244.611C185.901 240.683 182.458 237.607 177.337 236.949C157.525 234.403 136.678 243.233 116.955 244.734C103.702 245.742 89.6234 243.799 78.9121 235.23C71.9638 229.671 66.8938 221.661 63.4378 213.052C56.2668 195.189 56.0744 174.692 62.132 156.433C66.2311 144.076 76.1912 134.686 79.6752 122.096C82.5855 111.58 79.2126 100.604 80.1639 89.9747C80.3581 87.8069 80.7316 85.6539 81.3753 83.5221C84.7868 72.2229 101.171 55.898 111.212 50.4433C135.278 37.3706 160.394 31.0112 186.006 30.362C171.447 27.7287 157.667 22.9932 133.261 17.3869C104.272 10.7276 71.7049 33.7324 54.5994 60.4942C52.8548 63.2232 51.3209 66.0895 49.9985 69.058C44.0823 82.3426 42.4125 97.6864 45.1553 112.054C48.3797 128.945 58.3464 141.962 54.7841 159.944C52.6143 170.896 52.0371 181.051 50.9124 191.893C50.0335 200.368 51.4807 208.469 54.5465 215.846C59.5346 227.85 68.8172 237.93 79.3937 244.553Z" fill="#53D0F7"/>
</g>
<g opacity="0.47">
<path d="M230.631 23.9782C226.071 24.3512 221.893 24.6029 218.008 24.7455C231.206 26.7624 244.48 30.1829 257.757 34.9043C257.759 34.9049 307.37 52.5481 307.37 52.5481C330.687 60.8403 346.141 85.0048 344.689 111.499C344.679 111.673 344.669 111.848 344.659 112.022C343.73 127.38 338.994 142.434 331.171 155.058C324.087 166.488 314.312 179.273 311.864 193.301C309.914 204.48 314.126 215.78 314.638 227.157C315.126 237.973 312.136 248.236 306.992 257.101C312.992 255.314 318.752 252.8 324.118 249.456C339.408 239.929 350.109 224.458 354.855 207.823C358.648 194.529 359.129 182.097 356.286 168.524C353.367 154.589 348.439 140.542 349.969 126.023C350.097 124.803 350.275 123.588 350.483 122.376C351.996 113.544 355.222 104.915 354.532 95.9912C354.011 89.2484 351.265 82.9224 347.908 77.2121C336.762 58.2571 318.781 44.9989 299.289 36.9667C297.343 36.1647 295.382 35.4128 293.41 34.7149C272.977 27.4783 251.904 22.2368 230.631 23.9782Z" fill="#53D0F7"/>
</g>
<g opacity="0.7">
<path d="M81.1491 78.1734C80.5155 80.3771 80.1515 82.6014 79.9675 84.8398C79.0654 95.8147 82.4882 107.125 79.6266 117.994C76.2009 131.006 66.2847 140.753 62.2426 153.529C56.2693 172.407 56.5561 193.562 63.8102 211.957C67.3061 220.822 72.4129 229.062 79.3873 234.76C90.1384 243.544 104.225 245.47 117.473 244.356C137.19 242.698 157.995 233.468 177.819 235.985C182.943 236.635 186.4 239.791 189.208 243.83C192.394 248.412 194.745 254.133 197.748 258.622C198.522 259.779 199.33 260.904 200.169 261.999H303.827C304.953 260.42 306.012 258.788 306.991 257.101C312.136 248.237 315.125 237.973 314.638 227.157C314.125 215.78 309.913 204.48 311.863 193.301C314.31 179.273 324.086 166.488 331.17 155.058C338.993 142.434 343.729 127.38 344.658 112.022C344.669 111.848 344.679 111.674 344.688 111.499C346.141 85.0048 330.686 60.8397 307.369 52.5482C307.369 52.5482 257.758 34.905 257.756 34.9043C244.479 30.1829 231.205 26.7624 218.007 24.7455C209.071 23.3798 200.169 22.658 191.325 22.6343C189.391 22.6292 187.461 22.6638 185.533 22.7255C159.923 23.539 134.838 30.242 110.833 43.8682C100.816 49.5534 84.5078 66.4928 81.1491 78.1734Z" fill="#53D0F7"/>
</g>
<g opacity="0.35">
<path d="M172.766 17.4448C177.221 17.4448 180.833 13.5396 180.833 8.7224C180.833 3.90515 177.221 0 172.766 0C168.311 0 164.7 3.90515 164.7 8.7224C164.7 13.5396 168.311 17.4448 172.766 17.4448Z" fill="#53D0F7"/>
</g>
<g opacity="0.35">
<path d="M390.784 132.161C400.845 132.161 409 123.342 409 112.464C409 101.585 400.845 92.7666 390.784 92.7666C380.724 92.7666 372.568 101.585 372.568 112.464C372.568 123.342 380.724 132.161 390.784 132.161Z" fill="#53D0F7"/>
</g>
<g opacity="0.35">
<path d="M37.2918 165.36C45.0302 158.409 46.0921 145.99 39.6635 137.623C33.2349 129.255 21.7502 128.107 14.0117 135.058C6.27327 142.009 5.21142 154.428 11.64 162.796C18.0686 171.163 29.5533 172.312 37.2918 165.36Z" fill="#53D0F7"/>
</g>
<g opacity="0.35">
<path d="M315.072 33.097C318.128 33.097 320.605 30.418 320.605 27.1132C320.605 23.8084 318.128 21.1294 315.072 21.1294C312.015 21.1294 309.538 23.8084 309.538 27.1132C309.538 30.418 312.015 33.097 315.072 33.097Z" fill="#53D0F7"/>
</g>
</g>
<path d="M381.641 259.547H38.9541C38.5717 259.547 38.2617 259.211 38.2617 258.798V258.515C38.2617 258.102 38.5717 257.767 38.9541 257.767H381.64C382.023 257.767 382.333 258.102 382.333 258.515V258.798C382.333 259.211 382.023 259.547 381.641 259.547Z" fill="#233863" stroke="#233863" stroke-width="3" stroke-miterlimit="10"/>
<g opacity="0.57">
<path d="M136.816 202.837C136.488 202.837 136.223 202.55 136.223 202.195C136.223 180.221 144.728 158.993 159.559 143.955C162.181 141.296 165.007 138.822 167.959 136.604C168.228 136.402 168.598 136.473 168.786 136.765C168.973 137.056 168.906 137.457 168.637 137.659C165.733 139.841 162.952 142.276 160.371 144.893C145.78 159.689 137.411 180.575 137.411 202.196C137.41 202.55 137.145 202.837 136.816 202.837Z" fill="#3AAED5"/>
<path d="M283.274 202.837C282.945 202.837 282.68 202.55 282.68 202.195C282.68 193.228 281.294 184.435 278.56 176.059C278.451 175.724 278.614 175.358 278.923 175.24C279.233 175.125 279.571 175.298 279.68 175.631C282.458 184.145 283.867 193.082 283.867 202.195C283.867 202.55 283.601 202.837 283.274 202.837Z" fill="#3AAED5"/>
<path d="M277.538 172.065C277.306 172.065 277.087 171.918 276.991 171.673C271.281 157.048 261.721 144.758 249.343 136.131C249.067 135.939 248.988 135.542 249.165 135.244C249.343 134.946 249.71 134.859 249.986 135.052C262.566 143.82 272.282 156.311 278.084 171.175C278.212 171.502 278.071 171.878 277.768 172.015C277.693 172.049 277.615 172.065 277.538 172.065Z" fill="#3AAED5"/>
<path d="M173.104 134.453C172.9 134.453 172.702 134.339 172.591 134.135C172.426 133.829 172.521 133.436 172.804 133.257C184.055 126.134 196.933 122.369 210.044 122.369C220.965 122.369 231.478 124.887 241.293 129.853C241.59 130.003 241.718 130.385 241.579 130.707C241.44 131.027 241.086 131.166 240.789 131.016C231.133 126.131 220.789 123.654 210.044 123.654C197.144 123.654 184.474 127.358 173.403 134.365C173.31 134.425 173.206 134.453 173.104 134.453Z" fill="#3AAED5"/>
<path d="M123.782 202.837C123.454 202.837 123.188 202.55 123.188 202.195C123.188 164.957 143.559 131.199 175.084 116.193C175.388 116.048 175.735 116.198 175.867 116.522C176 116.846 175.863 117.226 175.563 117.368C144.468 132.17 124.376 165.467 124.376 202.195C124.376 202.55 124.11 202.837 123.782 202.837Z" fill="#3AAED5"/>
<path d="M296.308 202.837C295.979 202.837 295.714 202.55 295.714 202.195C295.714 172.991 282.744 145.155 261.021 127.736C260.758 127.525 260.702 127.123 260.897 126.838C261.093 126.553 261.465 126.494 261.729 126.704C272.402 135.263 281.251 146.522 287.318 159.265C293.677 172.623 296.902 187.066 296.902 202.194C296.902 202.55 296.636 202.837 296.308 202.837Z" fill="#3AAED5"/>
<path d="M256.234 124.045C256.125 124.045 256.015 124.013 255.917 123.945C254.16 122.738 252.34 121.586 250.506 120.522C250.217 120.354 250.108 119.965 250.264 119.652C250.419 119.34 250.778 119.222 251.067 119.39C252.927 120.47 254.772 121.638 256.553 122.861C256.83 123.051 256.912 123.448 256.736 123.747C256.623 123.939 256.431 124.045 256.234 124.045Z" fill="#3AAED5"/>
<path d="M246.985 118.522C246.9 118.522 246.814 118.502 246.731 118.459C235.224 112.554 222.88 109.56 210.044 109.56C200.657 109.56 191.43 111.191 182.62 114.408C182.305 114.521 181.971 114.341 181.867 114.005C181.762 113.669 181.929 113.304 182.239 113.191C191.172 109.929 200.527 108.275 210.044 108.275C223.057 108.275 235.572 111.312 247.24 117.3C247.536 117.452 247.663 117.834 247.522 118.155C247.421 118.386 247.207 118.522 246.985 118.522Z" fill="#3AAED5"/>
<path d="M310.757 202.837C310.428 202.837 310.163 202.55 310.163 202.195C310.163 190.274 308.383 178.558 304.871 167.374C304.766 167.039 304.933 166.674 305.243 166.559C305.555 166.446 305.892 166.625 305.997 166.961C309.549 178.278 311.351 190.132 311.351 202.194C311.351 202.55 311.084 202.837 310.757 202.837Z" fill="#3AAED5"/>
<path d="M303.333 161.726C303.099 161.726 302.877 161.576 302.783 161.327C295.713 142.586 283.932 126.38 268.712 114.461C268.446 114.253 268.387 113.851 268.58 113.564C268.771 113.277 269.142 113.212 269.408 113.42C284.807 125.481 296.728 141.879 303.883 160.842C304.007 161.171 303.861 161.546 303.557 161.679C303.484 161.711 303.408 161.726 303.333 161.726Z" fill="#3AAED5"/>
<path d="M263.284 110.379C263.177 110.379 263.069 110.348 262.971 110.283C247.121 99.5889 228.819 93.9357 210.044 93.9357C201.583 93.9357 193.175 95.0793 185.057 97.3344C184.741 97.4217 184.416 97.2163 184.334 96.8721C184.252 96.5286 184.444 96.1786 184.761 96.09C192.976 93.808 201.483 92.6509 210.044 92.6509C229.042 92.6509 247.561 98.3708 263.6 109.192C263.878 109.38 263.963 109.776 263.789 110.076C263.677 110.272 263.483 110.379 263.284 110.379Z" fill="#3AAED5"/>
<path d="M165.762 105.001C165.542 105.001 165.331 104.868 165.228 104.641C165.084 104.323 165.205 103.938 165.5 103.782C168.596 102.141 171.802 100.657 175.031 99.3706C175.338 99.2486 175.68 99.4181 175.794 99.7514C175.906 100.085 175.75 100.453 175.441 100.576C172.251 101.847 169.082 103.313 166.023 104.935C165.939 104.979 165.849 105.001 165.762 105.001Z" fill="#3AAED5"/>
<path d="M109.333 202.837C109.005 202.837 108.74 202.55 108.74 202.195C108.74 182.743 113.516 163.637 122.551 146.943C131.32 130.741 143.87 117.154 158.844 107.652C159.127 107.473 159.491 107.575 159.656 107.88C159.822 108.187 159.728 108.58 159.445 108.759C128.901 128.142 109.927 163.945 109.927 202.196C109.927 202.55 109.661 202.837 109.333 202.837Z" fill="#3AAED5"/>
</g>
<g opacity="0.22">
<path d="M98.7047 197.418C98.213 197.418 97.814 196.986 97.814 196.455C97.814 179.383 101.027 162.876 107.364 147.391C113.487 132.433 122.209 119.15 133.29 107.913C137.28 103.868 141.577 100.108 146.062 96.7366C146.466 96.4329 147.021 96.5401 147.302 96.978C147.583 97.4147 147.483 98.015 147.079 98.3181C142.665 101.636 138.436 105.337 134.51 109.318C112.321 131.817 99.5954 163.577 99.5954 196.454C99.5954 196.986 99.1964 197.418 98.7047 197.418Z" fill="#3AAED5"/>
<path d="M321.385 197.418C320.893 197.418 320.494 196.986 320.494 196.455C320.494 182.821 318.387 169.448 314.231 156.711C314.068 156.209 314.311 155.659 314.775 155.482C315.238 155.308 315.748 155.568 315.912 156.07C320.134 169.014 322.276 182.602 322.276 196.455C322.276 196.986 321.877 197.418 321.385 197.418Z" fill="#3AAED5"/>
<path d="M312.666 150.631C312.319 150.631 311.988 150.41 311.845 150.042C303.163 127.804 288.626 109.116 269.804 95.9967C269.39 95.7083 269.27 95.1125 269.537 94.6656C269.805 94.2174 270.358 94.0902 270.768 94.3779C289.893 107.707 304.664 126.697 313.485 149.294C313.677 149.784 313.465 150.349 313.011 150.556C312.898 150.607 312.781 150.631 312.666 150.631Z" fill="#3AAED5"/>
<path d="M153.877 93.4423C153.572 93.4423 153.274 93.2715 153.108 92.9659C152.86 92.5068 153.002 91.9167 153.427 91.6483C170.533 80.8204 190.111 75.0967 210.044 75.0967C226.646 75.0967 242.63 78.9243 257.552 86.4742C257.997 86.6996 258.189 87.273 257.981 87.7546C257.773 88.2368 257.243 88.4442 256.797 88.2188C242.114 80.7896 226.384 77.023 210.044 77.023C190.428 77.023 171.161 82.6549 154.327 93.3107C154.186 93.4 154.031 93.4423 153.877 93.4423Z" fill="#3AAED5"/>
<path d="M78.8858 197.418C78.3942 197.418 77.9951 196.986 77.9951 196.455C77.9951 139.841 108.965 88.5187 156.894 65.7046C157.346 65.4908 157.871 65.7117 158.069 66.1984C158.267 66.6851 158.062 67.254 157.612 67.4685C110.329 89.975 79.7766 140.605 79.7766 196.455C79.7766 196.986 79.3775 197.418 78.8858 197.418Z" fill="#3AAED5"/>
<path d="M341.203 197.418C340.711 197.418 340.312 196.986 340.312 196.455C340.312 152.045 320.592 109.719 287.559 83.2336C287.164 82.9164 287.081 82.3135 287.374 81.8858C287.667 81.4582 288.225 81.3689 288.62 81.6855C304.848 94.6972 318.3 111.815 327.524 131.188C337.192 151.495 342.094 173.454 342.094 196.454C342.094 196.986 341.695 197.418 341.203 197.418Z" fill="#3AAED5"/>
<path d="M280.275 77.6172C280.112 77.6172 279.946 77.569 279.798 77.4669C277.122 75.6292 274.354 73.8782 271.57 72.262C271.136 72.0103 270.973 71.4266 271.207 70.9579C271.44 70.4892 271.981 70.3145 272.412 70.5649C275.235 72.2029 278.041 73.9784 280.754 75.8411C281.169 76.1262 281.291 76.7215 281.028 77.1703C280.858 77.4592 280.57 77.6172 280.275 77.6172Z" fill="#3AAED5"/>
<path d="M266.212 69.2195C266.084 69.2195 265.954 69.1893 265.83 69.1264C248.332 60.1465 229.563 55.5933 210.044 55.5933C195.77 55.5933 181.739 58.0738 168.342 62.9654C167.877 63.1355 167.371 62.8645 167.214 62.3611C167.056 61.8571 167.307 61.3106 167.773 61.1405C181.354 56.1815 195.576 53.667 210.044 53.667C229.829 53.667 248.855 58.2825 266.595 67.3863C267.039 67.6142 267.228 68.1883 267.018 68.6692C266.865 69.0159 266.546 69.2195 266.212 69.2195Z" fill="#3AAED5"/>
<path d="M363.172 197.418C362.68 197.418 362.281 196.986 362.281 196.455C362.281 178.326 359.574 160.511 354.236 143.508C354.078 143.004 354.327 142.456 354.793 142.286C355.259 142.115 355.765 142.385 355.923 142.888C361.324 160.093 364.063 178.115 364.063 196.455C364.063 196.986 363.664 197.418 363.172 197.418Z" fill="#3AAED5"/>
<path d="M351.886 134.91C351.535 134.91 351.202 134.684 351.061 134.311C340.309 105.815 322.394 81.173 299.253 63.0476C298.855 62.7356 298.766 62.1333 299.054 61.7024C299.342 61.2709 299.901 61.1759 300.298 61.4873C323.71 79.824 341.833 104.754 352.711 133.583C352.897 134.076 352.678 134.638 352.223 134.839C352.112 134.887 351.998 134.91 351.886 134.91Z" fill="#3AAED5"/>
<path d="M290.994 56.8397C290.833 56.8397 290.67 56.7928 290.523 56.6933C266.423 40.4326 238.594 31.8379 210.045 31.8379C197.178 31.8379 184.395 33.5768 172.05 37.0056C171.573 37.1392 171.088 36.8271 170.966 36.3128C170.844 35.7978 171.13 35.2726 171.607 35.1403C184.096 31.671 197.029 29.9116 210.045 29.9116C238.929 29.9116 267.083 38.6077 291.466 55.0598C291.883 55.341 292.011 55.9356 291.75 56.3864C291.581 56.6792 291.291 56.8397 290.994 56.8397Z" fill="#3AAED5"/>
<path d="M142.715 48.662C142.385 48.662 142.07 48.4636 141.915 48.1227C141.698 47.6449 141.88 47.0677 142.322 46.8339C147.025 44.34 151.9 42.0836 156.812 40.1271C157.274 39.9441 157.786 40.199 157.955 40.698C158.126 41.1969 157.889 41.751 157.427 41.9347C152.572 43.8681 147.754 46.0981 143.106 48.5631C142.981 48.6306 142.847 48.662 142.715 48.662Z" fill="#3AAED5"/>
<path d="M56.9176 197.418C56.4259 197.418 56.0269 196.986 56.0269 196.455C56.0269 166.88 63.2881 137.834 77.0243 112.453C90.3567 87.8201 109.437 67.1635 132.203 52.7174C132.626 52.449 133.173 52.6012 133.422 53.0603C133.67 53.5187 133.529 54.1095 133.104 54.3785C86.6602 83.8513 57.8083 138.292 57.8083 196.455C57.8083 196.986 57.4093 197.418 56.9176 197.418Z" fill="#3AAED5"/>
</g>
<path d="M239.853 210.487C239.173 210.487 238.496 210.33 237.859 210.017C236.673 209.435 235.77 208.384 235.317 207.056L233.864 202.802C230.678 203.383 227.48 203.282 224.344 202.502L222.598 206.663C222.056 207.957 221.085 208.946 219.865 209.451C218.643 209.956 217.316 209.915 216.13 209.333C213.685 208.133 212.606 204.983 213.727 202.311L215.473 198.149C212.863 196.111 210.686 193.576 208.993 190.601L205.076 192.22C203.853 192.726 202.527 192.684 201.341 192.102C200.155 191.52 199.252 190.468 198.799 189.141C197.865 186.406 199.154 183.334 201.672 182.294L205.598 180.67C205.09 177.199 205.21 173.71 205.955 170.282L202.157 168.42C199.712 167.22 198.634 164.07 199.754 161.398C200.297 160.105 201.268 159.115 202.488 158.611C203.71 158.106 205.037 158.146 206.223 158.729L210.022 160.592C211.916 157.728 214.265 155.333 217.015 153.461L215.558 149.197C214.624 146.461 215.913 143.39 218.431 142.349C219.655 141.843 220.98 141.885 222.165 142.467C223.352 143.048 224.255 144.1 224.709 145.428L226.161 149.681C229.346 149.1 232.544 149.201 235.681 149.983L237.427 145.82C238.548 143.149 241.451 141.951 243.896 143.152C245.081 143.733 245.985 144.785 246.438 146.112C246.891 147.438 246.842 148.879 246.299 150.172L244.553 154.334C247.162 156.371 249.339 158.906 251.033 161.882L254.95 160.263C256.173 159.757 257.498 159.799 258.685 160.381C259.871 160.963 260.774 162.014 261.227 163.342C262.161 166.076 260.872 169.148 258.355 170.188L254.428 171.812C254.936 175.284 254.816 178.773 254.071 182.2L257.869 184.063C260.315 185.263 261.393 188.412 260.273 191.084C259.151 193.756 256.249 194.954 253.804 193.753L250.005 191.89C248.111 194.754 245.761 197.149 243.013 199.021L244.469 203.286C245.403 206.021 244.114 209.093 241.596 210.133C241.029 210.37 240.44 210.487 239.853 210.487ZM234.632 201.344L236.431 206.611C236.773 207.614 237.455 208.409 238.349 208.847C239.244 209.288 240.247 209.318 241.169 208.936C243.083 208.145 244.062 205.811 243.352 203.733L241.558 198.477L241.978 198.202C244.905 196.294 247.371 193.778 249.311 190.724L249.592 190.28L254.293 192.585C256.141 193.494 258.337 192.581 259.189 190.556C260.04 188.529 259.226 186.142 257.377 185.235L252.676 182.929L252.8 182.407C253.649 178.818 253.775 175.154 253.175 171.515L253.089 170.992L257.928 168.991C259.841 168.2 260.821 165.866 260.111 163.788C259.769 162.784 259.087 161.99 258.192 161.551C257.298 161.112 256.296 161.083 255.372 161.463L250.522 163.469L250.267 163.001C248.541 159.829 246.254 157.164 243.47 155.081L243.062 154.776L245.216 149.642C245.628 148.659 245.666 147.564 245.323 146.558C244.98 145.555 244.298 144.76 243.404 144.322C241.555 143.413 239.358 144.325 238.507 146.352L236.354 151.485L235.873 151.354C232.588 150.46 229.229 150.354 225.886 151.04L225.392 151.14L223.593 145.873C223.25 144.87 222.569 144.075 221.674 143.637C220.78 143.198 219.778 143.167 218.854 143.548C216.94 144.339 215.961 146.673 216.671 148.752L218.466 154.008L218.046 154.282C215.118 156.191 212.651 158.707 210.713 161.761L210.432 162.205L205.731 159.899C204.835 159.459 203.835 159.428 202.91 159.81C201.984 160.193 201.247 160.945 200.835 161.928C199.985 163.955 200.797 166.343 202.647 167.25L207.347 169.555L207.224 170.077C206.375 173.665 206.249 177.33 206.848 180.969L206.935 181.492L202.095 183.492C200.181 184.283 199.202 186.617 199.912 188.696C200.254 189.7 200.936 190.494 201.83 190.932C202.726 191.372 203.728 191.402 204.65 191.021L209.501 189.015L209.756 189.483C211.48 192.654 213.768 195.318 216.553 197.402L216.961 197.707L214.807 202.842C213.956 204.868 214.769 207.255 216.619 208.163C217.515 208.602 218.516 208.633 219.44 208.251C220.366 207.867 221.103 207.115 221.515 206.132L223.67 200.999L224.151 201.13C227.434 202.023 230.795 202.128 234.138 201.444L234.632 201.344ZM229.835 195.907C227.368 195.907 224.868 195.354 222.484 194.185C218.1 192.033 214.762 188.144 213.085 183.234C211.408 178.325 211.592 172.983 213.602 168.192C215.613 163.401 219.208 159.733 223.728 157.865C228.25 155.995 233.155 156.151 237.539 158.3C246.587 162.739 250.572 174.398 246.422 184.292C243.364 191.58 236.732 195.907 229.835 195.907ZM230.17 157.852C228.143 157.852 226.11 158.256 224.152 159.065C219.927 160.812 216.564 164.243 214.685 168.724C212.804 173.205 212.632 178.201 214.199 182.789C215.766 187.376 218.883 191.008 222.975 193.015C231.428 197.163 241.46 193.01 245.34 183.763C249.22 174.514 245.501 163.617 237.049 159.471C234.853 158.393 232.516 157.852 230.17 157.852Z" fill="white"/>
<path d="M181.213 201.074C180.319 201.074 179.479 200.704 178.842 200.029C178.191 199.34 177.832 198.416 177.827 197.428L177.816 194.631C175.818 194.211 173.944 193.406 172.234 192.232L170.408 194.248C169.766 194.957 168.911 195.355 167.999 195.371C167.057 195.404 166.222 195.016 165.572 194.327C164.921 193.638 164.561 192.714 164.557 191.725C164.553 190.739 164.904 189.806 165.544 189.098L167.371 187.081C166.25 185.256 165.467 183.247 165.037 181.097L162.451 181.142C161.551 181.138 160.674 180.786 160.024 180.098C159.373 179.409 159.013 178.485 159.009 177.496C159.001 175.462 160.525 173.779 162.406 173.746L165.003 173.701C165.414 171.533 166.18 169.493 167.288 167.626L165.45 165.679C164.8 164.99 164.439 164.066 164.435 163.077C164.431 162.09 164.782 161.157 165.423 160.449C166.064 159.741 166.92 159.343 167.832 159.327C168.769 159.323 169.608 159.682 170.259 160.371L172.096 162.318C173.8 161.081 175.67 160.21 177.667 159.721L177.655 156.913C177.647 154.878 179.171 153.196 181.052 153.163C181.975 153.162 182.829 153.519 183.479 154.207C184.13 154.895 184.489 155.82 184.494 156.809L184.506 159.605C186.503 160.025 188.377 160.831 190.087 162.005L191.913 159.988V159.989C192.555 159.28 193.41 158.881 194.323 158.866C195.24 158.834 196.099 159.22 196.75 159.909C198.09 161.329 198.102 163.674 196.777 165.138L194.95 167.155C196.071 168.982 196.855 170.991 197.284 173.14L199.87 173.095C200.801 173.103 201.647 173.45 202.297 174.139C202.948 174.827 203.308 175.752 203.312 176.741C203.321 178.775 201.797 180.458 199.915 180.491L197.318 180.536C196.907 182.705 196.141 184.744 195.033 186.611L196.871 188.557C198.212 189.978 198.223 192.324 196.898 193.787C196.257 194.496 195.401 194.894 194.489 194.91C193.58 194.935 192.713 194.555 192.062 193.866L190.225 191.919C188.52 193.156 186.65 194.027 184.654 194.515L184.666 197.323C184.675 199.359 183.151 201.041 181.269 201.073C181.251 201.073 181.232 201.074 181.213 201.074ZM172.075 190.573L172.485 190.873C174.301 192.205 176.326 193.075 178.503 193.459L178.999 193.547L179.015 197.422C179.018 198.066 179.251 198.665 179.673 199.112C180.086 199.55 180.632 199.79 181.213 199.79C181.226 199.79 181.238 199.79 181.251 199.79C182.485 199.769 183.485 198.665 183.479 197.33L183.462 193.468L183.944 193.365C186.118 192.905 188.137 191.964 189.944 190.568L190.349 190.256L192.893 192.949C193.315 193.396 193.872 193.651 194.47 193.627C195.067 193.617 195.628 193.355 196.049 192.89C196.916 191.933 196.912 190.401 196.039 189.477L193.495 186.783L193.777 186.339C195.029 184.357 195.858 182.154 196.239 179.794L196.324 179.271L199.896 179.209C201.131 179.188 202.13 178.085 202.124 176.75C202.121 176.106 201.888 175.505 201.466 175.058C201.053 174.621 200.508 174.381 199.926 174.381C199.913 174.381 199.901 174.382 199.889 174.382L196.306 174.444L196.215 173.91C195.815 171.566 194.969 169.395 193.7 167.457L193.413 167.019L195.928 164.243C196.795 163.285 196.791 161.754 195.918 160.83C195.497 160.383 194.945 160.112 194.342 160.153C193.744 160.163 193.184 160.425 192.763 160.89V160.89L190.247 163.666L189.837 163.366C188.02 162.034 185.995 161.164 183.819 160.78L183.323 160.692L183.307 156.817C183.304 156.174 183.07 155.573 182.649 155.126C182.236 154.689 181.69 154.449 181.109 154.449C181.096 154.449 181.084 154.449 181.071 154.449C179.837 154.47 178.838 155.574 178.843 156.909L178.859 160.771L178.378 160.874C176.204 161.334 174.185 162.275 172.377 163.671L171.972 163.984L169.428 161.289C169.006 160.843 168.449 160.599 167.852 160.612C167.254 160.623 166.694 160.884 166.273 161.349C165.851 161.814 165.621 162.425 165.624 163.072C165.626 163.715 165.86 164.315 166.282 164.762L168.826 167.457L168.545 167.901C167.292 169.884 166.463 172.087 166.082 174.446L165.997 174.968L162.425 175.031C161.191 175.053 160.191 176.156 160.197 177.491C160.2 178.134 160.433 178.734 160.855 179.181C161.276 179.628 161.83 179.856 162.432 179.858L166.014 179.796L166.105 180.33C166.506 182.675 167.353 184.846 168.621 186.783L168.907 187.221L166.392 189.997C165.971 190.462 165.74 191.074 165.743 191.72C165.746 192.363 165.98 192.964 166.401 193.41C166.823 193.857 167.373 194.109 167.978 194.087C168.575 194.077 169.136 193.816 169.557 193.351L172.075 190.573ZM181.023 190.211C177.863 190.211 174.895 188.905 172.643 186.521C167.901 181.497 167.863 173.192 172.559 168.008C174.833 165.498 177.866 164.085 181.098 164.028C184.353 163.961 187.38 165.282 189.678 167.716C191.976 170.151 193.251 173.418 193.266 176.915C193.28 180.411 192.036 183.718 189.761 186.229C187.488 188.74 184.455 190.153 181.223 190.209C181.157 190.21 181.09 190.211 181.023 190.211ZM181.297 165.31C181.237 165.31 181.178 165.311 181.117 165.312C178.2 165.363 175.461 166.64 173.408 168.908C169.169 173.586 169.199 181.076 173.474 185.604C175.543 187.796 178.284 188.959 181.204 188.926C184.121 188.875 186.858 187.599 188.913 185.33H188.913C190.967 183.063 192.092 180.076 192.078 176.922C192.065 173.77 190.917 170.826 188.847 168.634C186.82 166.486 184.145 165.31 181.297 165.31Z" fill="white"/>
<path d="M191.392 253.536C190.911 253.536 190.424 253.447 189.948 253.259C188.896 252.842 188.059 252.009 187.596 250.911C187.131 249.813 187.094 248.584 187.492 247.449L188.707 243.981C186.441 242.47 184.504 240.537 182.937 238.222L179.791 239.777C177.678 240.823 175.178 239.832 174.222 237.568C173.757 236.471 173.721 235.242 174.118 234.107C174.515 232.975 175.297 232.074 176.319 231.568L179.465 230.013C178.871 227.218 178.786 224.367 179.212 221.525L175.991 220.251C174.938 219.835 174.102 219.001 173.638 217.904C173.174 216.806 173.137 215.577 173.534 214.442C174.353 212.107 176.783 210.905 178.951 211.763L182.182 213.042C183.611 210.591 185.432 208.492 187.605 206.788L186.186 203.433C185.722 202.335 185.685 201.106 186.082 199.972C186.479 198.84 187.26 197.939 188.283 197.433C190.396 196.387 192.895 197.378 193.852 199.642L195.271 202.997C197.884 202.336 200.544 202.22 203.192 202.654L204.413 199.175C205.23 196.839 207.661 195.642 209.829 196.497C210.882 196.913 211.718 197.748 212.182 198.845C212.647 199.943 212.683 201.172 212.286 202.306L211.07 205.774C213.336 207.286 215.274 209.22 216.841 211.533L219.987 209.978C221.009 209.472 222.151 209.423 223.203 209.839C224.256 210.256 225.092 211.09 225.556 212.187C226.02 213.285 226.057 214.514 225.659 215.649C225.263 216.78 224.481 217.682 223.458 218.187L220.313 219.742C220.906 222.538 220.991 225.388 220.566 228.23L223.787 229.504C224.84 229.921 225.676 230.756 226.14 231.854C226.604 232.952 226.64 234.181 226.243 235.315C225.425 237.649 222.996 238.848 220.826 237.993L217.595 236.714C216.167 239.163 214.346 241.264 212.173 242.968L213.592 246.323C214.056 247.42 214.093 248.649 213.695 249.784C213.299 250.916 212.517 251.817 211.495 252.323C210.47 252.829 209.329 252.877 208.278 252.462C207.226 252.045 206.389 251.211 205.926 250.114L204.506 246.758C201.894 247.421 199.233 247.536 196.585 247.102L195.366 250.581C194.726 252.404 193.105 253.536 191.392 253.536ZM183.34 236.612L183.623 237.052C185.235 239.555 187.293 241.608 189.739 243.153L190.172 243.428L188.603 247.906C188.319 248.717 188.345 249.595 188.676 250.378C189.008 251.161 189.605 251.756 190.357 252.054C191.916 252.672 193.666 251.806 194.256 250.127L195.821 245.66L196.305 245.752C199.108 246.284 201.93 246.161 204.693 245.388L205.175 245.252L207.005 249.581C207.337 250.364 207.933 250.959 208.686 251.257C209.441 251.557 210.263 251.52 211 251.157C211.736 250.793 212.299 250.144 212.584 249.33C212.869 248.519 212.843 247.641 212.512 246.858L210.682 242.53L211.091 242.224C213.439 240.471 215.371 238.243 216.834 235.602L217.087 235.146L221.234 236.788C222.794 237.407 224.544 236.54 225.132 234.861C225.417 234.05 225.39 233.172 225.06 232.388C224.728 231.605 224.132 231.01 223.378 230.712L219.219 229.066L219.311 228.532C219.83 225.52 219.741 222.494 219.045 219.538L218.923 219.018L222.964 217.02C223.701 216.656 224.264 216.008 224.549 215.194C224.833 214.383 224.807 213.505 224.476 212.722C224.145 211.939 223.548 211.343 222.795 211.045C222.04 210.746 221.219 210.782 220.481 211.146L216.439 213.145L216.155 212.705C214.543 210.202 212.485 208.149 210.038 206.603L209.605 206.328L211.175 201.85C211.459 201.039 211.434 200.162 211.103 199.379C210.771 198.596 210.174 198 209.421 197.702C207.862 197.083 206.112 197.95 205.524 199.63L203.957 204.096L203.474 204.004C200.67 203.471 197.847 203.596 195.086 204.368L194.604 204.503L192.774 200.175C192.089 198.557 190.297 197.848 188.779 198.6C188.042 198.964 187.479 199.613 187.194 200.426C186.909 201.237 186.935 202.115 187.267 202.898L189.097 207.226L188.688 207.532C186.339 209.285 184.407 211.514 182.944 214.155L182.692 214.61L178.544 212.969C176.984 212.351 175.234 213.215 174.646 214.896C174.362 215.707 174.387 216.586 174.719 217.369C175.051 218.152 175.647 218.746 176.4 219.044L180.558 220.69L180.467 221.224C179.947 224.236 180.037 227.261 180.733 230.217L180.855 230.737L176.814 232.735C176.077 233.099 175.514 233.747 175.229 234.561C174.945 235.372 174.97 236.25 175.302 237.033C175.987 238.652 177.779 239.357 179.296 238.609L183.34 236.612ZM199.785 241.323C193.995 241.323 188.47 237.782 185.932 231.78C182.452 223.549 185.882 213.757 193.578 209.952C201.275 206.146 210.367 209.748 213.847 217.978C215.534 221.967 215.666 226.434 214.221 230.558C212.777 234.679 209.929 237.963 206.202 239.805C204.119 240.835 201.933 241.323 199.785 241.323ZM199.995 209.718C198.012 209.718 195.995 210.168 194.071 211.119C186.97 214.63 183.804 223.658 187.011 231.245C190.22 238.833 198.607 242.147 205.707 238.638C209.148 236.937 211.777 233.906 213.11 230.103C214.442 226.303 214.32 222.187 212.766 218.512C210.428 212.98 205.335 209.718 199.995 209.718Z" fill="white"/>
<path d="M146.541 87.9531L129.181 83.4969C128.357 83.285 127.847 82.3912 128.043 81.5006L131.318 66.5857C131.513 65.6944 132.34 65.1435 133.164 65.3554L150.524 69.8116C151.348 70.0229 151.858 70.9167 151.662 71.8079L148.388 86.7228C148.192 87.6134 147.366 88.1644 146.541 87.9531Z" fill="#FFB44F"/>
<path d="M146.895 88.9611C146.711 88.9611 146.524 88.938 146.337 88.8898H146.336L128.976 84.4336C127.676 84.0997 126.868 82.6845 127.177 81.2776L130.452 66.3621C130.761 64.9565 132.073 64.0839 133.37 64.4172L150.731 68.8734C152.031 69.2073 152.838 70.6231 152.53 72.0293L149.254 86.9442C148.99 88.1482 147.993 88.9611 146.895 88.9611ZM146.747 87.0155C147.096 87.1041 147.439 86.8723 147.521 86.4999L150.796 71.585C150.878 71.2119 150.664 70.8363 150.319 70.7483L132.959 66.2921C132.615 66.2009 132.266 66.4353 132.184 66.8084L128.91 81.7226C128.828 82.0957 129.042 82.4707 129.387 82.5593L146.747 87.0155Z" fill="#233863"/>
<path d="M138.441 80.1786C138.341 80.1786 138.239 80.1664 138.139 80.1432C137.771 80.0566 137.457 79.8196 137.254 79.4761L135.071 75.7686C134.808 75.3197 134.93 74.7245 135.345 74.4388C135.758 74.1543 136.31 74.2853 136.574 74.7341L138.552 78.0943L145.921 72.9581C146.332 72.6691 146.884 72.7975 147.152 73.2457C147.418 73.6926 147.299 74.2885 146.885 74.5768L139.199 79.9352C138.97 80.0957 138.708 80.1786 138.441 80.1786Z" fill="white"/>
<path d="M296.158 89.3585L278.425 91.4896C277.583 91.5911 276.825 90.9349 276.731 90.025L275.166 74.7897C275.072 73.8798 275.679 73.0598 276.52 72.9584L294.254 70.8272C295.096 70.7258 295.854 71.382 295.947 72.2919L297.513 87.5272C297.607 88.4377 297 89.2577 296.158 89.3585Z" fill="#3AAED5"/>
<path d="M278.251 92.4638C277.704 92.4638 277.176 92.2641 276.742 91.8891C276.236 91.4519 275.917 90.8277 275.846 90.1317L274.28 74.8958C274.133 73.4587 275.094 72.1604 276.423 72.0011L294.155 69.87C295.488 69.7088 296.684 70.7497 296.834 72.1848L298.399 87.4214C298.547 88.8584 297.586 90.1567 296.257 90.316L278.524 92.4471C278.432 92.4581 278.341 92.4638 278.251 92.4638ZM294.424 71.7802C294.4 71.7802 294.376 71.7815 294.353 71.7847L276.619 73.9159C276.267 73.9583 276.012 74.3024 276.052 74.6832L277.618 89.9192C277.636 90.1034 277.721 90.2691 277.854 90.3853C277.989 90.5015 278.158 90.5529 278.327 90.533L296.06 88.4019C296.413 88.3595 296.667 88.0153 296.628 87.6345L295.062 72.3992C295.026 72.0435 294.747 71.7802 294.424 71.7802Z" fill="#233863"/>
<path d="M285.629 85.0811C285.319 85.0811 285.02 84.9706 284.771 84.7619L281.562 82.0683C281.173 81.7421 281.103 81.1366 281.404 80.7167C281.705 80.2967 282.265 80.2203 282.654 80.5465L285.564 82.9897L290.9 75.4694C291.2 75.0475 291.758 74.9672 292.149 75.2915C292.539 75.6151 292.613 76.22 292.313 76.6418L286.746 84.4878C286.517 84.8107 286.185 85.0175 285.811 85.0695C285.751 85.0766 285.69 85.0811 285.629 85.0811Z" fill="white"/>
<path d="M82.7446 108.54C85.4217 108.54 87.5919 106.193 87.5919 103.298C87.5919 100.403 85.4217 98.0566 82.7446 98.0566C80.0675 98.0566 77.8972 100.403 77.8972 103.298C77.8972 106.193 80.0675 108.54 82.7446 108.54Z" fill="#3AAED5"/>
<path d="M209.768 36.1164C212.445 36.1164 214.615 33.7696 214.615 30.8748C214.615 27.98 212.445 25.6333 209.768 25.6333C207.091 25.6333 204.92 27.98 204.92 30.8748C204.92 33.7696 207.091 36.1164 209.768 36.1164Z" fill="#3AAED5"/>
<path d="M113.744 102.121C113.744 103.22 112.92 104.112 111.903 104.112C110.886 104.112 110.062 103.221 110.062 102.121C110.062 101.021 110.886 100.129 111.903 100.129C112.92 100.129 113.744 101.021 113.744 102.121Z" fill="#3D85FD"/>
<path d="M325.728 84.6714C325.728 85.7706 324.903 86.6625 323.886 86.6625C322.869 86.6625 322.045 85.7713 322.045 84.6714C322.045 83.5721 322.869 82.6802 323.886 82.6802C324.903 82.6802 325.728 83.5714 325.728 84.6714Z" fill="#3D85FD"/>
<path d="M148.907 47.1396C149.924 47.1396 150.749 46.2481 150.749 45.1484C150.749 44.0487 149.924 43.1572 148.907 43.1572C147.89 43.1572 147.066 44.0487 147.066 45.1484C147.066 46.2481 147.89 47.1396 148.907 47.1396Z" fill="#3D85FD"/>
<path d="M88.2902 141.237C89.3072 141.237 90.1316 140.346 90.1316 139.246C90.1316 138.146 89.3072 137.255 88.2902 137.255C87.2732 137.255 86.4487 138.146 86.4487 139.246C86.4487 140.346 87.2732 141.237 88.2902 141.237Z" fill="#FFB44F"/>
<path d="M335.665 158.381C336.682 158.381 337.507 157.49 337.507 156.39C337.507 155.29 336.682 154.399 335.665 154.399C334.648 154.399 333.824 155.29 333.824 156.39C333.824 157.49 334.648 158.381 335.665 158.381Z" fill="#FFB44F"/>
<path d="M366.332 181.115C366.332 183.14 364.814 184.782 362.941 184.782C361.068 184.782 359.55 183.14 359.55 181.115C359.55 179.09 361.068 177.448 362.941 177.448C364.814 177.448 366.332 179.09 366.332 181.115Z" fill="#FFB44F"/>
<path d="M259.027 62.7914C259.027 65.1865 257.232 67.1282 255.017 67.1282C252.802 67.1282 251.006 65.1865 251.006 62.7914C251.006 60.3963 252.802 58.4546 255.017 58.4546C257.232 58.4552 259.027 60.3963 259.027 62.7914Z" fill="#FFB44F"/>
<path d="M157.126 245.597L93.5356 245.742C88.6555 245.753 84.6538 241.444 84.6437 236.167L84.5564 191.392C84.5463 186.115 88.5308 181.788 93.4108 181.777L157.002 181.632C161.882 181.621 165.883 185.93 165.894 191.207L165.981 235.982C165.992 241.259 162.006 245.586 157.126 245.597Z" fill="#3D85FD"/>
<path d="M93.5164 246.705C88.1418 246.705 83.7642 241.983 83.7529 236.169L83.6668 191.394C83.6549 185.572 88.026 180.826 93.4102 180.813L157.001 180.668C157.008 180.668 157.014 180.668 157.021 180.668C162.396 180.668 166.774 185.391 166.785 191.204L166.871 235.98C166.877 238.789 165.864 241.439 164.019 243.443C162.173 245.446 159.726 246.553 157.128 246.559L93.5372 246.703C93.5301 246.705 93.5236 246.705 93.5164 246.705ZM157.02 182.595C157.015 182.595 157.009 182.595 157.004 182.595L93.4131 182.74C89.0117 182.75 85.4381 186.631 85.4476 191.39L85.5337 236.166C85.5432 240.919 89.1228 244.779 93.5159 244.779C93.5218 244.779 93.5277 244.779 93.5331 244.779L157.124 244.635C159.246 244.629 161.246 243.724 162.756 242.085C164.265 240.446 165.094 238.28 165.089 235.985L165.003 191.209C164.994 186.456 161.415 182.595 157.02 182.595Z" fill="#233863"/>
<path opacity="0.24" d="M157.126 245.597L93.5356 245.742C88.6555 245.753 84.6538 241.444 84.6437 236.167L84.5564 191.392C84.5463 186.115 88.5308 181.788 93.4108 181.777L157.002 181.632C161.882 181.621 165.883 185.93 165.894 191.207L165.981 235.982C165.992 241.259 162.006 245.586 157.126 245.597Z" fill="#233863"/>
<path d="M153.551 235.607L125.549 206.578C125.247 206.264 125.237 205.745 125.526 205.418L161.873 164.423C162.163 164.097 162.644 164.086 162.946 164.399L190.948 193.428C191.25 193.741 191.26 194.261 190.971 194.588L154.623 235.582C154.334 235.909 153.853 235.92 153.551 235.607Z" fill="white"/>
<path d="M154.075 236.798C153.648 236.798 153.244 236.623 152.935 236.302C152.934 236.302 152.934 236.302 152.934 236.302L124.932 207.273C124.615 206.943 124.434 206.5 124.425 206.024C124.415 205.547 124.579 205.096 124.884 204.752L161.23 163.757C161.861 163.046 162.905 163.024 163.563 163.704L191.564 192.733C192.22 193.415 192.243 194.545 191.613 195.256L155.266 236.25C154.961 236.593 154.551 236.789 154.11 236.798C154.098 236.798 154.087 236.798 154.075 236.798ZM154.167 234.911C154.167 234.911 154.167 234.911 154.167 234.911V234.911ZM126.261 205.981L154.072 234.813L190.235 194.025L162.424 165.193L126.261 205.981Z" fill="#233863"/>
<path d="M182.68 194.362C182.532 194.362 182.384 194.302 182.269 194.183L171.727 183.254C171.491 183.009 171.482 182.602 171.71 182.346C171.937 182.091 172.313 182.082 172.55 182.327L183.092 193.257C183.328 193.502 183.336 193.908 183.109 194.165C182.992 194.296 182.836 194.362 182.68 194.362Z" fill="#FFB44F"/>
<path d="M177.381 201.885C177.234 201.885 177.086 201.825 176.971 201.706L155.886 179.848C155.649 179.602 155.641 179.196 155.869 178.94C156.096 178.685 156.472 178.676 156.708 178.921L177.793 200.78C178.029 201.025 178.038 201.431 177.81 201.688C177.694 201.818 177.538 201.885 177.381 201.885Z" fill="#233863"/>
<path d="M170.509 209.636C170.361 209.636 170.213 209.577 170.098 209.458L149.013 187.599C148.777 187.354 148.768 186.947 148.996 186.691C149.223 186.436 149.598 186.427 149.835 186.673L170.92 208.531C171.156 208.776 171.165 209.183 170.937 209.439C170.821 209.57 170.665 209.636 170.509 209.636Z" fill="#233863"/>
<path d="M164.041 216.932C163.893 216.932 163.745 216.872 163.63 216.753L142.544 194.895C142.308 194.649 142.3 194.243 142.527 193.987C142.754 193.732 143.13 193.723 143.367 193.968L164.452 215.827C164.689 216.072 164.697 216.478 164.469 216.735C164.352 216.866 164.196 216.932 164.041 216.932Z" fill="#233863"/>
<path d="M157.167 224.684C157.019 224.684 156.871 224.624 156.756 224.505L135.671 202.647C135.435 202.401 135.426 201.995 135.654 201.739C135.881 201.484 136.256 201.476 136.493 201.72L157.579 223.579C157.815 223.824 157.823 224.231 157.596 224.487C157.48 224.617 157.323 224.684 157.167 224.684Z" fill="#233863"/>
<path d="M137.427 198.598L101.516 214.461C101.128 214.633 100.685 214.432 100.527 214.012L80.665 161.438C80.5065 161.019 80.6923 160.54 81.0801 160.369L116.991 144.506C117.379 144.335 117.822 144.536 117.98 144.955L137.842 197.529C138.001 197.948 137.815 198.426 137.427 198.598Z" fill="white"/>
<path d="M101.229 215.487C101.013 215.487 100.796 215.44 100.59 215.346C100.184 215.162 99.8684 214.818 99.7021 214.377L79.8401 161.803C79.6732 161.363 79.6756 160.877 79.846 160.438C80.0164 159.998 80.3353 159.657 80.7439 159.477L116.654 143.614C117.499 143.243 118.461 143.681 118.805 144.59L138.667 197.164C139.011 198.074 138.606 199.117 137.764 199.489C137.764 199.49 137.764 199.49 137.764 199.49L101.852 215.353C101.651 215.443 101.44 215.487 101.229 215.487ZM81.539 161.207L101.301 213.516L136.968 197.761L117.205 145.451L81.539 161.207Z" fill="#233863"/>
<path d="M111.903 164.455C111.67 164.455 111.447 164.305 111.353 164.056C111.229 163.728 111.375 163.353 111.679 163.218L117.854 160.49C118.154 160.355 118.504 160.513 118.628 160.842C118.752 161.17 118.607 161.545 118.303 161.679L112.128 164.408C112.055 164.44 111.978 164.455 111.903 164.455Z" fill="#233863"/>
<path d="M94.7941 183.613C94.5602 183.613 94.3381 183.463 94.2443 183.214C94.1202 182.886 94.2656 182.511 94.5697 182.376L121.609 170.431C121.91 170.296 122.259 170.454 122.384 170.783C122.508 171.111 122.362 171.486 122.058 171.621L95.0186 183.566C94.9456 183.598 94.869 183.613 94.7941 183.613Z" fill="#233863"/>
<path d="M113.642 183.18C113.408 183.18 113.185 183.029 113.092 182.78C112.968 182.452 113.113 182.077 113.417 181.943L124.165 177.196C124.468 177.06 124.815 177.219 124.94 177.548C125.064 177.876 124.918 178.251 124.614 178.385L113.866 183.133C113.792 183.165 113.716 183.18 113.642 183.18Z" fill="#FFB44F"/>
<path d="M97.3493 190.377C97.1159 190.377 96.8939 190.227 96.7994 189.978C96.6753 189.65 96.8208 189.275 97.1249 189.14L103.704 186.234C104.005 186.099 104.354 186.257 104.478 186.586C104.602 186.914 104.457 187.289 104.153 187.423L97.5738 190.33C97.5007 190.362 97.4241 190.377 97.3493 190.377Z" fill="#FFB44F"/>
<path d="M99.4716 198.263C99.2377 198.263 99.0156 198.113 98.9218 197.864C98.7976 197.536 98.9431 197.161 99.2472 197.027L115.902 189.669C116.203 189.535 116.552 189.692 116.676 190.021C116.8 190.349 116.655 190.724 116.351 190.859L99.6961 198.216C99.6231 198.249 99.5464 198.263 99.4716 198.263Z" fill="#233863"/>
<path d="M108.87 169.328L94.5109 176.055C93.9076 176.338 93.2069 176.038 92.9456 175.386L86.2717 158.73C86.0104 158.078 86.2877 157.32 86.8904 157.037L101.25 150.31C101.853 150.027 102.554 150.327 102.815 150.979L109.489 167.635C109.751 168.288 109.473 169.045 108.87 169.328Z" fill="#FFB44F"/>
<path d="M94.0389 176.804C93.8168 176.804 93.5947 176.759 93.3827 176.668C92.9391 176.478 92.5912 176.114 92.4017 175.64L85.7278 158.984C85.539 158.511 85.5307 157.987 85.7058 157.508C85.881 157.028 86.2183 156.652 86.6559 156.447L101.015 149.72C101.918 149.298 102.971 149.746 103.361 150.723L110.035 167.38C110.224 167.852 110.232 168.377 110.057 168.856C109.882 169.335 109.545 169.712 109.107 169.916C109.107 169.917 109.107 169.917 109.107 169.917L94.7479 176.644C94.5199 176.751 94.2794 176.804 94.0389 176.804ZM101.722 150.846C101.643 150.846 101.563 150.863 101.486 150.899L87.1268 157.627C86.9808 157.695 86.8679 157.821 86.8097 157.981C86.7509 158.141 86.7533 158.316 86.8169 158.475L93.4914 175.131C93.5543 175.289 93.6707 175.41 93.8192 175.474C93.9664 175.538 94.1286 175.534 94.2758 175.466L108.635 168.738C108.781 168.67 108.893 168.544 108.952 168.384C109.011 168.224 109.008 168.049 108.945 167.891L102.271 151.234C102.173 150.991 101.953 150.846 101.722 150.846Z" fill="#233863"/>
<path d="M93.5561 160.504C93.3816 160.504 93.2064 160.468 93.0395 160.397C92.6904 160.248 92.416 159.961 92.267 159.588L91.4843 157.635C91.4196 157.472 91.4885 157.284 91.6387 157.213C91.7901 157.142 91.9641 157.217 92.0294 157.38L92.8121 159.333C92.8982 159.548 93.0561 159.714 93.2575 159.8C93.4605 159.887 93.6797 159.882 93.8774 159.789L94.0098 159.727C94.3263 159.579 94.4724 159.179 94.3352 158.837L92.3543 153.893C92.2129 153.539 91.8311 153.378 91.5033 153.53L91.2783 153.636C90.9303 153.798 90.7699 154.237 90.9202 154.613L90.9689 154.734C91.0342 154.897 90.9659 155.086 90.8157 155.156C90.6666 155.228 90.4903 155.154 90.4249 154.991L90.3757 154.869C90.0942 154.166 90.3935 153.349 91.0419 153.046L91.267 152.94C91.8929 152.648 92.6268 152.959 92.8988 153.637L94.8798 158.581C95.1464 159.248 94.8625 160.027 94.2456 160.316L94.1131 160.378C93.935 160.462 93.7456 160.504 93.5561 160.504Z" fill="#233863"/>
<path d="M101.98 153.208C102.468 153.746 102.46 154.609 101.963 155.137C101.466 155.665 100.667 155.656 100.179 155.119C99.6909 154.582 99.6986 153.718 100.196 153.19C100.693 152.662 101.491 152.67 101.98 153.208Z" fill="white"/>
<path d="M171.367 156.443L135.66 172.835C135.274 173.012 134.829 172.817 134.665 172.4L114.142 120.124C113.978 119.707 114.158 119.226 114.544 119.049L150.251 102.657C150.637 102.48 151.082 102.674 151.246 103.092L171.769 155.367C171.933 155.784 171.753 156.266 171.367 156.443Z" fill="white"/>
<path d="M135.364 173.863C135.155 173.863 134.946 173.82 134.746 173.733C134.338 173.554 134.018 173.214 133.846 172.776L113.321 120.5C112.966 119.596 113.358 118.547 114.195 118.162L149.903 101.771C150.308 101.584 150.756 101.581 151.166 101.758C151.574 101.937 151.894 102.277 152.066 102.716L172.59 154.991C172.762 155.43 172.766 155.914 172.601 156.356C172.436 156.798 172.122 157.143 171.716 157.33L136.009 173.721C135.801 173.816 135.583 173.863 135.364 173.863ZM115.013 119.879L135.434 171.892L170.898 155.611L150.477 103.599L115.013 119.879Z" fill="#233863"/>
<path d="M145.408 122.679C145.177 122.679 144.957 122.532 144.861 122.288C144.733 121.961 144.873 121.585 145.176 121.446L151.316 118.627C151.615 118.49 151.966 118.64 152.095 118.967C152.223 119.294 152.082 119.67 151.78 119.809L145.64 122.628C145.564 122.663 145.485 122.679 145.408 122.679Z" fill="#233863"/>
<path d="M128.542 142.088C128.311 142.088 128.091 141.941 127.995 141.696C127.866 141.37 128.007 140.993 128.309 140.855L155.196 128.512C155.495 128.374 155.847 128.525 155.975 128.852C156.104 129.178 155.962 129.555 155.661 129.694L128.774 142.037C128.698 142.071 128.619 142.088 128.542 142.088Z" fill="#233863"/>
<path d="M147.382 141.377C147.151 141.377 146.932 141.23 146.836 140.985C146.707 140.659 146.848 140.282 147.15 140.143L157.837 135.237C158.136 135.099 158.487 135.251 158.616 135.577C158.744 135.904 158.603 136.28 158.301 136.419L147.614 141.326C147.539 141.36 147.46 141.377 147.382 141.377Z" fill="#FFB44F"/>
<path d="M131.182 148.813C130.951 148.813 130.732 148.666 130.636 148.422C130.507 148.096 130.648 147.719 130.95 147.58L137.492 144.577C137.792 144.44 138.143 144.59 138.271 144.917C138.4 145.243 138.259 145.621 137.957 145.76L131.415 148.763C131.339 148.797 131.26 148.813 131.182 148.813Z" fill="#FFB44F"/>
<path d="M133.404 156.668C133.173 156.668 132.953 156.522 132.857 156.277C132.729 155.951 132.869 155.574 133.172 155.435L149.733 147.832C150.033 147.695 150.383 147.847 150.511 148.173C150.64 148.499 150.499 148.876 150.197 149.015L133.636 156.618C133.56 156.652 133.482 156.668 133.404 156.668Z" fill="#233863"/>
<path d="M153.114 212.195L114.761 205.903C114.347 205.835 114.062 205.417 114.125 204.97L122.004 148.821C122.067 148.373 122.453 148.065 122.867 148.133L161.22 154.425C161.634 154.493 161.919 154.911 161.856 155.359L153.978 211.508C153.915 211.955 153.529 212.264 153.114 212.195Z" fill="#3AAED5"/>
<path d="M153.231 213.168C153.148 213.168 153.065 213.162 152.981 213.148L114.628 206.856C114.193 206.784 113.808 206.534 113.547 206.149C113.286 205.765 113.178 205.295 113.245 204.823L121.122 148.675C121.188 148.205 121.42 147.789 121.775 147.507C122.13 147.226 122.565 147.109 123 147.179L161.354 153.472C161.789 153.543 162.173 153.794 162.434 154.178C162.695 154.562 162.803 155.032 162.737 155.503L154.858 211.652C154.793 212.123 154.561 212.538 154.206 212.82C153.92 213.049 153.581 213.168 153.231 213.168ZM115.026 204.972L153.117 211.221L160.956 155.355L122.863 149.106L115.026 204.972Z" fill="#233863"/>
<path d="M135.18 158.142C135.15 158.142 135.12 158.139 135.09 158.134L127.728 156.926C127.404 156.874 127.181 156.546 127.23 156.195C127.28 155.844 127.583 155.601 127.907 155.657L135.269 156.865C135.593 156.917 135.816 157.245 135.767 157.596C135.721 157.914 135.469 158.142 135.18 158.142Z" fill="white"/>
<path d="M154.293 169.903C154.263 169.903 154.233 169.9 154.204 169.895L145.749 168.508C145.425 168.455 145.202 168.128 145.252 167.777C145.301 167.426 145.602 167.184 145.928 167.239L154.382 168.626C154.706 168.678 154.929 169.006 154.88 169.357C154.835 169.675 154.582 169.903 154.293 169.903Z" fill="#233863"/>
<path d="M139.853 167.535C139.824 167.535 139.793 167.532 139.764 167.527L125.324 165.158C125 165.106 124.777 164.778 124.827 164.427C124.876 164.076 125.176 163.833 125.503 163.889L139.942 166.258C140.267 166.311 140.489 166.638 140.44 166.989C140.395 167.307 140.142 167.535 139.853 167.535Z" fill="white"/>
<path d="M140.376 178.482C140.346 178.482 140.316 178.48 140.286 178.474L123.834 175.776C123.51 175.723 123.287 175.396 123.337 175.044C123.386 174.694 123.688 174.452 124.013 174.506L140.465 177.205C140.789 177.258 141.012 177.585 140.962 177.936C140.917 178.254 140.664 178.482 140.376 178.482Z" fill="#233863"/>
<path d="M151.401 190.513C151.372 190.513 151.341 190.511 151.312 190.506L122.432 185.768C122.108 185.716 121.886 185.388 121.935 185.037C121.984 184.686 122.286 184.445 122.611 184.499L151.49 189.236C151.815 189.289 152.037 189.616 151.988 189.968C151.943 190.285 151.69 190.513 151.401 190.513Z" fill="white"/>
<path d="M137.272 199.057C137.242 199.057 137.212 199.054 137.182 199.049L120.942 196.386C120.618 196.333 120.396 196.006 120.445 195.654C120.494 195.304 120.79 195.063 121.121 195.116L137.361 197.78C137.685 197.832 137.908 198.16 137.859 198.511C137.815 198.829 137.561 199.057 137.272 199.057Z" fill="white"/>
<path d="M159.475 253.588L91.1863 253.742C87.5978 253.751 84.656 250.583 84.6483 246.702L84.5515 196.847C84.5438 192.967 87.4737 189.785 91.0622 189.777L159.351 189.622C162.939 189.614 165.881 192.782 165.889 196.662L165.985 246.517C165.993 250.398 163.063 253.579 159.475 253.588Z" fill="white"/>
<path d="M91.1726 254.385C89.2842 254.385 87.5034 253.587 86.156 252.136C84.8051 250.681 84.0592 248.751 84.0551 246.703L83.9583 196.848C83.9541 194.801 84.6928 192.868 86.0384 191.407C87.3834 189.946 89.1678 189.14 91.0615 189.135L159.35 188.98C159.355 188.98 159.36 188.98 159.365 188.98C163.284 188.98 166.475 192.422 166.483 196.661L166.58 246.517C166.588 250.76 163.401 254.221 159.476 254.23L91.1874 254.385C91.1827 254.385 91.1767 254.385 91.1726 254.385ZM159.364 190.265C159.36 190.265 159.356 190.265 159.352 190.265L91.0633 190.419C89.4867 190.423 88.0004 191.096 86.8793 192.313C85.7575 193.531 85.1418 195.14 85.1453 196.846L85.2421 246.701C85.2457 248.406 85.8674 250.013 86.9933 251.226C88.1168 252.436 89.6001 253.101 91.172 253.101C91.1761 253.101 91.1809 253.101 91.1845 253.101L159.473 252.945C162.743 252.938 165.398 250.055 165.392 246.519L165.295 196.664C165.288 193.133 162.629 190.265 159.364 190.265Z" fill="#233863"/>
<path d="M160.033 177.627L142.809 177.667C139.615 177.674 137.007 180.505 137.014 183.959L137.031 192.872L93.4047 192.971C88.5247 192.982 84.5396 197.308 84.5503 202.586L84.637 247.361C84.6471 252.638 88.6488 256.946 93.5289 256.936L157.12 256.791C162 256.78 165.984 252.453 165.974 247.176L165.889 203.318L165.887 202.401L165.852 183.894C165.845 180.44 163.227 177.62 160.033 177.627Z" fill="#3D85FD"/>
<path d="M93.511 257.898C88.1364 257.898 83.7582 253.176 83.7469 247.363L83.6602 202.587C83.6483 196.767 88.0194 192.02 93.4036 192.007L136.14 191.91L136.124 183.96C136.12 182.033 136.815 180.215 138.081 178.841C139.346 177.466 141.025 176.708 142.808 176.703L160.032 176.664C160.037 176.664 160.042 176.664 160.046 176.664C163.732 176.664 166.735 179.902 166.743 183.891L166.866 247.174C166.877 252.995 162.506 257.742 157.123 257.754L93.5312 257.899C93.5241 257.898 93.5176 257.898 93.511 257.898ZM160.034 178.591L142.81 178.63C141.503 178.633 140.272 179.191 139.342 180.2C138.412 181.21 137.901 182.544 137.904 183.957L137.922 192.87C137.922 193.125 137.829 193.37 137.661 193.552C137.495 193.733 137.269 193.835 137.033 193.835L93.4059 193.934C89.0046 193.944 85.4309 197.825 85.4404 202.584L85.5271 247.36C85.5366 252.112 89.1162 255.973 93.5099 255.973C93.5152 255.973 93.5205 255.973 93.5259 255.973L157.117 255.828C161.518 255.818 165.092 251.938 165.083 247.178L164.96 183.895C164.954 180.967 162.75 178.59 160.044 178.59C160.042 178.591 160.038 178.591 160.034 178.591Z" fill="#233863"/>
<path opacity="0.12" d="M159.434 184.769L144.023 184.804C141.166 184.81 138.833 187.344 138.838 190.435L138.854 198.411L99.8192 198.5C95.4529 198.51 91.8876 202.382 91.8965 207.105L91.9743 247.176C91.9832 251.898 95.5633 255.754 99.9303 255.744L156.828 255.615C161.195 255.605 164.76 251.733 164.751 247.01L164.675 207.76L164.673 206.939L164.641 190.376C164.635 187.286 162.292 184.762 159.434 184.769Z" fill="white"/>
<path d="M160.33 247.558C160.33 249.29 159.032 250.693 157.431 250.693C155.829 250.693 154.531 249.29 154.531 247.558C154.531 245.826 155.829 244.422 157.431 244.422C159.032 244.422 160.33 245.826 160.33 247.558Z" fill="white"/>
<path d="M162.357 194.557C162.029 194.557 161.763 194.27 161.763 193.915V185.38C161.763 183.948 160.588 182.783 159.144 182.783H153.393C153.065 182.783 152.799 182.496 152.799 182.141C152.799 181.786 153.065 181.499 153.393 181.499H159.144C161.243 181.499 162.951 183.24 162.951 185.38V193.915C162.951 194.27 162.685 194.557 162.357 194.557Z" fill="white"/>
<path d="M119.881 219.878C119.498 219.878 119.114 219.718 118.823 219.398C118.248 218.766 118.256 217.75 118.84 217.128L125.818 209.711L132.686 217.138C133.266 217.765 133.266 218.781 132.686 219.407C132.106 220.035 131.166 220.035 130.587 219.407L125.8 214.231L120.922 219.417C120.633 219.725 120.257 219.878 119.881 219.878Z" fill="white"/>
<path d="M125.759 229.823C124.939 229.823 124.275 229.105 124.275 228.218V211.972C124.275 211.085 124.939 210.367 125.759 210.367C126.58 210.367 127.244 211.085 127.244 211.972V228.218C127.244 229.105 126.58 229.823 125.759 229.823Z" fill="white"/>
<path d="M136.689 237.538H114.656C112.896 237.538 111.464 235.989 111.464 234.086V225.43C111.464 224.543 112.128 223.825 112.948 223.825C113.768 223.825 114.433 224.543 114.433 225.43V234.086C114.433 234.219 114.533 234.327 114.656 234.327H136.689C136.907 234.327 137.085 234.135 137.085 233.899V225.43C137.085 224.543 137.749 223.825 138.569 223.825C139.389 223.825 140.054 224.543 140.054 225.43V233.899C140.054 235.905 138.544 237.538 136.689 237.538Z" fill="white"/>
<path d="M321.595 245.597L258.004 245.742C253.124 245.753 249.122 241.444 249.112 236.167L249.025 191.392C249.015 186.115 253 181.788 257.88 181.777L321.47 181.632C326.35 181.621 330.352 185.93 330.362 191.207L330.449 235.982C330.459 241.259 326.475 245.586 321.595 245.597Z" fill="#3D85FD"/>
<path d="M257.984 246.705C255.394 246.705 252.95 245.61 251.103 243.62C249.25 241.625 248.226 238.978 248.221 236.169L248.134 191.394C248.123 185.572 252.494 180.826 257.877 180.813L321.469 180.668C321.475 180.668 321.482 180.668 321.488 180.668C326.863 180.668 331.241 185.391 331.252 191.204L331.339 235.98C331.35 241.8 326.98 246.547 321.596 246.559L258.004 246.703C257.998 246.705 257.991 246.705 257.984 246.705ZM321.488 182.595C321.483 182.595 321.478 182.595 321.472 182.595L257.881 182.74C253.48 182.75 249.906 186.631 249.915 191.39L250.003 236.166C250.007 238.461 250.845 240.623 252.36 242.256C253.872 243.883 255.868 244.779 257.985 244.779C257.991 244.779 257.997 244.779 258.002 244.779L321.593 244.635C323.715 244.629 325.715 243.724 327.225 242.085C328.735 240.446 329.564 238.28 329.559 235.985L329.472 191.209C329.462 186.456 325.882 182.595 321.488 182.595Z" fill="#233863"/>
<path d="M321.595 245.597L258.004 245.742C253.124 245.753 249.122 241.444 249.112 236.167L249.025 191.392C249.015 186.115 253 181.788 257.88 181.777L321.47 181.632C326.35 181.621 330.352 185.93 330.362 191.207L330.449 235.982C330.459 241.259 326.475 245.586 321.595 245.597Z" fill="#FFB44F"/>
<path d="M257.984 246.705C255.394 246.705 252.95 245.61 251.103 243.62C249.25 241.625 248.226 238.978 248.221 236.169L248.134 191.394C248.123 185.572 252.494 180.826 257.877 180.813L321.469 180.668C321.475 180.668 321.482 180.668 321.488 180.668C326.863 180.668 331.241 185.391 331.252 191.204L331.339 235.98C331.35 241.8 326.98 246.547 321.596 246.559L258.004 246.703C257.998 246.705 257.991 246.705 257.984 246.705ZM321.488 182.595C321.483 182.595 321.478 182.595 321.472 182.595L257.881 182.74C253.48 182.75 249.906 186.631 249.915 191.39L250.003 236.166C250.007 238.461 250.845 240.623 252.36 242.256C253.872 243.883 255.868 244.779 257.985 244.779C257.991 244.779 257.997 244.779 258.002 244.779L321.593 244.635C323.715 244.629 325.715 243.724 327.225 242.085C328.735 240.446 329.564 238.28 329.559 235.985L329.472 191.209C329.462 186.456 325.882 182.595 321.488 182.595Z" fill="#233863"/>
<path opacity="0.24" d="M321.595 245.597L258.004 245.742C253.124 245.753 249.122 241.444 249.112 236.167L249.025 191.392C249.015 186.115 253 181.788 257.88 181.777L321.47 181.632C326.35 181.621 330.352 185.93 330.362 191.207L330.449 235.982C330.459 241.259 326.475 245.586 321.595 245.597Z" fill="#233863"/>
<path d="M323.943 249.59L255.655 249.744C252.066 249.753 249.124 246.585 249.117 242.704L249.02 192.849C249.012 188.969 251.942 185.788 255.53 185.779L323.819 185.624C327.407 185.616 330.349 188.784 330.357 192.664L330.454 242.519C330.461 246.4 327.532 249.581 323.943 249.59Z" fill="white"/>
<path d="M255.64 250.386C251.722 250.386 248.531 246.945 248.523 242.706L248.426 192.85C248.418 188.606 251.604 185.146 255.529 185.137L323.818 184.982C323.823 184.982 323.828 184.982 323.833 184.982C327.751 184.982 330.943 188.424 330.95 192.663L331.047 242.518C331.055 246.762 327.868 250.223 323.944 250.232L255.655 250.386C255.65 250.386 255.646 250.386 255.64 250.386ZM323.942 248.947C327.212 248.94 329.866 246.057 329.86 242.521L329.763 192.666C329.756 189.135 327.097 186.267 323.833 186.267C323.829 186.267 323.825 186.267 323.821 186.267L255.532 186.422C252.262 186.429 249.607 189.312 249.614 192.848L249.711 242.704C249.718 246.235 252.377 249.103 255.641 249.103C255.646 249.103 255.649 249.103 255.654 249.103L323.942 248.947Z" fill="#233863"/>
<path d="M323.943 253.588L255.655 253.742C252.066 253.751 249.124 250.583 249.117 246.702L249.02 196.847C249.012 192.967 251.942 189.785 255.53 189.777L323.819 189.622C327.407 189.614 330.349 192.782 330.357 196.662L330.454 246.517C330.461 250.398 327.532 253.579 323.943 253.588Z" fill="white"/>
<path d="M255.64 254.385C251.722 254.385 248.531 250.943 248.523 246.703L248.426 196.848C248.422 194.801 249.161 192.868 250.506 191.407C251.851 189.946 253.636 189.14 255.529 189.135L323.818 188.98C323.823 188.98 323.828 188.98 323.833 188.98C327.751 188.98 330.943 192.422 330.95 196.661L331.047 246.517C331.055 250.76 327.868 254.221 323.944 254.23L255.655 254.385C255.65 254.385 255.646 254.385 255.64 254.385ZM323.833 190.265C323.828 190.265 323.824 190.265 323.82 190.265L255.532 190.419C253.955 190.423 252.469 191.096 251.348 192.313C250.226 193.531 249.61 195.14 249.614 196.846L249.71 246.701C249.718 250.232 252.377 253.101 255.64 253.101C255.645 253.101 255.649 253.101 255.653 253.101L323.942 252.945C327.212 252.938 329.866 250.055 329.86 246.519L329.763 196.664C329.756 193.133 327.096 190.265 323.833 190.265Z" fill="#233863"/>
<path d="M324.501 177.627L307.276 177.667C304.083 177.674 301.475 180.505 301.482 183.959L301.499 192.872L257.873 192.971C252.993 192.982 249.008 197.308 249.019 202.586L249.105 247.361C249.115 252.638 253.117 256.946 257.997 256.936L321.588 256.791C326.468 256.78 330.453 252.453 330.442 247.176L330.357 203.318L330.356 202.401L330.32 183.894C330.313 180.44 327.695 177.62 324.501 177.627Z" fill="#FFB44F"/>
<path d="M257.979 257.898C252.603 257.898 248.226 253.176 248.215 247.363L248.128 202.587C248.117 196.767 252.488 192.02 257.872 192.007L300.607 191.91L300.592 183.96C300.588 182.033 301.283 180.215 302.549 178.841C303.814 177.466 305.493 176.708 307.276 176.703L324.5 176.664C324.505 176.664 324.51 176.664 324.514 176.664C326.292 176.664 327.967 177.415 329.235 178.78C330.505 180.148 331.207 181.963 331.211 183.891L331.334 247.174C331.34 249.983 330.327 252.634 328.481 254.638C326.635 256.641 324.188 257.748 321.59 257.754L257.999 257.899C257.992 257.898 257.986 257.898 257.979 257.898ZM324.502 178.591L307.278 178.63C305.972 178.633 304.74 179.191 303.81 180.2C302.88 181.21 302.37 182.544 302.373 183.957L302.389 192.87C302.39 193.402 301.992 193.834 301.5 193.835L257.874 193.934C253.473 193.944 249.899 197.825 249.909 202.584L249.995 247.36C250.004 252.112 253.584 255.973 257.978 255.973C257.983 255.973 257.989 255.973 257.994 255.973L321.585 255.828C323.707 255.823 325.707 254.918 327.217 253.278C328.726 251.64 329.555 249.473 329.55 247.178L329.428 183.895C329.425 182.482 328.909 181.15 327.976 180.145C327.045 179.143 325.815 178.59 324.513 178.59C324.51 178.591 324.507 178.591 324.502 178.591Z" fill="#233863"/>
<path opacity="0.12" d="M323.735 184.769L308.324 184.804C305.466 184.81 303.133 187.344 303.139 190.435L303.155 198.411L264.12 198.5C259.754 198.51 256.188 202.382 256.197 207.105L256.275 247.176C256.284 251.898 259.865 255.754 264.231 255.744L321.129 255.615C325.495 255.605 329.061 251.733 329.052 247.01L328.976 207.76L328.974 206.939L328.942 190.376C328.936 187.286 326.593 184.762 323.735 184.769Z" fill="white"/>
<path d="M324.631 247.558C324.631 249.29 323.333 250.693 321.732 250.693C320.13 250.693 318.832 249.29 318.832 247.558C318.832 245.826 320.13 244.422 321.732 244.422C323.333 244.422 324.631 245.826 324.631 247.558Z" fill="white"/>
<path d="M326.657 194.557C326.329 194.557 326.064 194.27 326.064 193.915V185.38C326.064 183.948 324.888 182.783 323.445 182.783H317.693C317.365 182.783 317.099 182.496 317.099 182.141C317.099 181.786 317.365 181.499 317.693 181.499H323.445C325.543 181.499 327.251 183.24 327.251 185.38V193.915C327.251 194.27 326.986 194.557 326.657 194.557Z" fill="white"/>
<path d="M292.02 230.478L285.152 223.051C284.572 222.424 284.572 221.408 285.152 220.781C285.732 220.154 286.671 220.154 287.251 220.781L292.038 225.957L296.916 220.771C297.501 220.15 298.44 220.16 299.016 220.791C299.59 221.423 299.582 222.439 298.998 223.061L292.02 230.478Z" fill="white"/>
<path d="M292.079 229.823C291.258 229.823 290.594 229.104 290.594 228.217V211.971C290.594 211.085 291.258 210.366 292.079 210.366C292.899 210.366 293.563 211.085 293.563 211.971V228.217C293.563 229.104 292.899 229.823 292.079 229.823Z" fill="white"/>
<path d="M303.009 237.537H280.976C279.216 237.537 277.784 235.988 277.784 234.085V225.429C277.784 224.543 278.448 223.824 279.268 223.824C280.088 223.824 280.753 224.543 280.753 225.429V234.085C280.753 234.218 280.853 234.327 280.976 234.327H303.009C303.227 234.327 303.405 234.135 303.405 233.898V225.429C303.405 224.543 304.069 223.824 304.889 223.824C305.709 223.824 306.374 224.543 306.374 225.429V233.898C306.374 235.905 304.864 237.537 303.009 237.537Z" fill="white"/>
<path d="M284.883 171.49L255.546 148.626C255.207 148.362 255.13 147.849 255.375 147.481L284.023 104.502C284.268 104.134 284.742 104.051 285.082 104.316L314.419 127.18C314.758 127.445 314.836 127.958 314.59 128.325L285.942 171.305C285.697 171.672 285.223 171.756 284.883 171.49Z" fill="white"/>
<path d="M285.323 172.608C284.98 172.608 284.646 172.493 284.363 172.272L255.026 149.408C254.289 148.832 254.122 147.716 254.653 146.919L283.301 103.939C283.559 103.553 283.939 103.298 284.375 103.221C284.807 103.146 285.244 103.256 285.603 103.535L314.939 126.399C315.676 126.973 315.844 128.09 315.314 128.888L286.665 171.868C286.407 172.254 286.026 172.509 285.591 172.585C285.502 172.6 285.412 172.608 285.323 172.608ZM285.404 170.709L285.403 170.708L285.404 170.709ZM256.175 147.929L285.297 170.626L313.79 127.878L284.668 105.182L256.175 147.929Z" fill="#233863"/>
<path d="M284.883 171.49L255.546 148.626C255.207 148.362 255.13 147.849 255.375 147.481L284.023 104.502C284.268 104.134 284.742 104.051 285.082 104.316L314.419 127.18C314.758 127.445 314.836 127.958 314.59 128.325L285.942 171.305C285.697 171.672 285.223 171.756 284.883 171.49Z" fill="#3AAED5"/>
<path d="M285.323 172.608C284.98 172.608 284.646 172.493 284.363 172.272L255.026 149.408C254.289 148.832 254.122 147.716 254.653 146.919L283.301 103.939C283.559 103.553 283.939 103.298 284.375 103.221C284.807 103.146 285.244 103.256 285.603 103.535L314.939 126.399C315.676 126.973 315.844 128.09 315.314 128.888L286.665 171.868C286.407 172.254 286.026 172.509 285.591 172.585C285.502 172.6 285.412 172.608 285.323 172.608ZM285.404 170.709L285.403 170.708L285.404 170.709ZM256.175 147.929L285.297 170.626L313.79 127.878L284.668 105.182L256.175 147.929Z" fill="#233863"/>
<path d="M302.842 136.997C302.722 136.997 302.601 136.958 302.496 136.876L297.437 132.933C297.171 132.726 297.111 132.325 297.302 132.038C297.493 131.749 297.864 131.683 298.132 131.892L303.19 135.834C303.456 136.042 303.516 136.443 303.324 136.731C303.209 136.905 303.026 136.997 302.842 136.997Z" fill="#233863"/>
<path d="M297.414 145.141C297.294 145.141 297.173 145.102 297.067 145.02L274.917 127.757C274.651 127.549 274.591 127.148 274.782 126.861C274.973 126.573 275.344 126.507 275.611 126.715L297.762 143.978C298.028 144.186 298.088 144.587 297.896 144.875C297.781 145.048 297.599 145.141 297.414 145.141Z" fill="#233863"/>
<path d="M293.721 150.682C293.601 150.682 293.479 150.643 293.374 150.561L284.57 143.699C284.304 143.492 284.244 143.09 284.435 142.803C284.626 142.516 284.997 142.45 285.264 142.657L294.068 149.519C294.334 149.726 294.394 150.128 294.203 150.415C294.088 150.589 293.905 150.682 293.721 150.682Z" fill="#FFB44F"/>
<path d="M276.96 137.618C276.84 137.618 276.718 137.579 276.613 137.497L271.224 133.297C270.958 133.09 270.898 132.688 271.09 132.401C271.281 132.113 271.652 132.047 271.919 132.255L277.308 136.455C277.574 136.663 277.634 137.064 277.443 137.352C277.326 137.526 277.144 137.618 276.96 137.618Z" fill="#FFB44F"/>
<path d="M280.483 149.777C280.363 149.777 280.241 149.738 280.136 149.656L266.492 139.023C266.226 138.815 266.166 138.414 266.357 138.126C266.549 137.838 266.92 137.772 267.187 137.981L280.831 148.613C281.097 148.821 281.157 149.222 280.965 149.51C280.849 149.684 280.667 149.777 280.483 149.777Z" fill="#233863"/>
<path d="M287.784 166.314L251.578 151.254C251.187 151.092 250.992 150.617 251.142 150.194L269.998 97.1889C270.149 96.7664 270.587 96.5551 270.979 96.7182L307.184 111.778C307.575 111.941 307.771 112.415 307.62 112.838L288.764 165.844C288.613 166.266 288.175 166.477 287.784 166.314Z" fill="white"/>
<path d="M288.053 167.332C287.857 167.332 287.657 167.294 287.464 167.213L251.258 152.153C250.408 151.799 249.984 150.765 250.311 149.847L269.166 96.8434C269.494 95.9258 270.449 95.4667 271.298 95.8186L307.504 110.879C308.353 111.232 308.777 112.266 308.452 113.183L289.596 166.188C289.343 166.897 288.716 167.332 288.053 167.332ZM252.021 150.407L287.98 165.365L306.742 112.626L270.783 97.6685L252.021 150.407Z" fill="#233863"/>
<path d="M287.784 166.314L251.578 151.254C251.187 151.092 250.992 150.617 251.142 150.194L269.998 97.1889C270.149 96.7664 270.587 96.5551 270.979 96.7182L307.184 111.778C307.575 111.941 307.771 112.415 307.62 112.838L288.764 165.844C288.613 166.266 288.175 166.477 287.784 166.314Z" fill="white"/>
<path d="M288.053 167.332C287.857 167.332 287.657 167.294 287.464 167.213L251.258 152.153C250.408 151.799 249.984 150.765 250.311 149.847L269.166 96.8434C269.494 95.9258 270.449 95.4667 271.298 95.8186L307.504 110.879C308.353 111.232 308.777 112.266 308.452 113.183L289.596 166.188C289.343 166.897 288.716 167.332 288.053 167.332ZM252.021 150.407L287.98 165.365L306.742 112.626L270.783 97.6685L252.021 150.407Z" fill="#233863"/>
<path d="M277.379 116.379C277.309 116.379 277.236 116.365 277.166 116.336L270.94 113.747C270.634 113.62 270.482 113.248 270.599 112.917C270.717 112.586 271.061 112.421 271.367 112.549L277.593 115.138C277.899 115.265 278.052 115.637 277.934 115.968C277.843 116.223 277.618 116.379 277.379 116.379Z" fill="#233863"/>
<path d="M293.904 135.323C293.833 135.323 293.761 135.309 293.691 135.28L266.428 123.94C266.123 123.813 265.97 123.441 266.088 123.111C266.206 122.779 266.548 122.614 266.855 122.742L294.118 134.082C294.423 134.209 294.576 134.581 294.458 134.911C294.367 135.166 294.142 135.323 293.904 135.323Z" fill="#233863"/>
<path d="M291.477 142.142C291.407 142.142 291.334 142.128 291.264 142.099L280.428 137.592C280.122 137.464 279.97 137.093 280.087 136.762C280.205 136.431 280.548 136.266 280.855 136.393L291.691 140.901C291.997 141.028 292.15 141.4 292.032 141.731C291.941 141.985 291.715 142.142 291.477 142.142Z" fill="#FFB44F"/>
<path d="M270.849 133.562C270.778 133.562 270.706 133.548 270.636 133.519L264.003 130.759C263.697 130.632 263.544 130.261 263.662 129.93C263.779 129.599 264.122 129.434 264.43 129.561L271.063 132.32C271.368 132.448 271.521 132.819 271.403 133.15C271.312 133.405 271.087 133.562 270.849 133.562Z" fill="#FFB44F"/>
<path d="M277.555 145.103C277.484 145.103 277.412 145.09 277.341 145.061L260.549 138.076C260.244 137.949 260.091 137.577 260.209 137.246C260.327 136.916 260.669 136.75 260.976 136.878L277.768 143.862C278.074 143.989 278.227 144.361 278.109 144.692C278.018 144.947 277.793 145.103 277.555 145.103Z" fill="#233863"/>
<path d="M220.906 143.073L178.026 127.242C177.535 127.061 177.274 126.484 177.441 125.954L197.439 62.6213C197.606 62.0909 198.14 61.8077 198.63 61.9888L241.51 77.82C242 78.001 242.262 78.5776 242.095 79.108L222.097 142.44C221.929 142.971 221.396 143.254 220.906 143.073Z" fill="#FFB44F"/>
<path d="M221.207 144.09C221.012 144.09 220.813 144.056 220.618 143.984L177.738 128.153C177.276 127.983 176.903 127.628 176.687 127.153C176.472 126.679 176.44 126.142 176.598 125.642L196.596 62.3094C196.755 61.8092 197.083 61.406 197.522 61.1729C197.96 60.9404 198.456 60.9051 198.919 61.0766L241.798 76.9077C242.26 77.0785 242.633 77.4336 242.849 77.9081C243.064 78.3826 243.096 78.9195 242.938 79.4197L222.94 142.751C222.68 143.572 221.968 144.09 221.207 144.09ZM198.331 62.8982C198.311 62.8982 198.288 62.913 198.282 62.9323L178.284 126.265C178.276 126.288 178.292 126.322 178.314 126.33L221.193 142.161H221.194C221.214 142.168 221.247 142.152 221.254 142.129L241.252 78.7968C241.26 78.7737 241.243 78.739 241.222 78.7313L198.343 62.9001C198.339 62.8989 198.335 62.8982 198.331 62.8982Z" fill="#233863"/>
<path d="M229.805 138.853L184.64 134.941C184.123 134.896 183.738 134.407 183.779 133.848L188.72 67.1393C188.762 66.5807 189.214 66.1639 189.731 66.2089L234.896 70.1206C235.413 70.1656 235.798 70.6548 235.757 71.2135L230.816 137.922C230.774 138.481 230.322 138.897 229.805 138.853Z" fill="white"/>
<path d="M229.883 139.819C229.833 139.819 229.783 139.817 229.733 139.813L184.568 135.901C184.081 135.858 183.638 135.614 183.321 135.212C183.004 134.81 182.851 134.297 182.89 133.771L187.831 67.063C187.912 65.9752 188.796 65.1623 189.801 65.249L234.966 69.1607C235.971 69.2481 236.723 70.2029 236.643 71.29L231.702 137.999C231.662 138.526 231.437 139.005 231.064 139.348C230.732 139.654 230.317 139.819 229.883 139.819ZM189.656 67.1689C189.631 67.1689 189.61 67.1895 189.608 67.2171L184.667 133.925C184.665 133.95 184.688 133.979 184.711 133.981L229.876 137.893C229.904 137.887 229.926 137.87 229.928 137.846L234.869 71.1365C234.871 71.1083 234.852 71.0832 234.825 71.0806L189.659 67.1689C189.658 67.1689 189.657 67.1689 189.656 67.1689Z" fill="#233863"/>
<path d="M228.28 81.3613C228.265 81.3613 228.248 81.3607 228.232 81.3594L216.791 80.368C216.464 80.3397 216.22 80.0302 216.246 79.6764C216.272 79.3233 216.549 79.0587 216.886 79.0876L228.327 80.079C228.654 80.1073 228.898 80.4168 228.871 80.7706C228.847 81.1064 228.587 81.3613 228.28 81.3613Z" fill="#FFB44F"/>
<path d="M227.988 85.3134C227.972 85.3134 227.956 85.3127 227.94 85.3115L216.498 84.3207C216.172 84.2924 215.927 83.9829 215.954 83.6291C215.98 83.276 216.263 83.0108 216.593 83.0403L228.035 84.0317C228.361 84.06 228.605 84.3695 228.579 84.7233C228.554 85.0585 228.295 85.3134 227.988 85.3134Z" fill="#FFB44F"/>
<path d="M201.201 127.81C201.185 127.81 201.169 127.809 201.153 127.808L189.711 126.816C189.384 126.788 189.14 126.479 189.166 126.125C189.193 125.772 189.478 125.506 189.806 125.536L201.248 126.527C201.574 126.555 201.818 126.864 201.792 127.218C201.767 127.555 201.507 127.81 201.201 127.81Z" fill="#FFB44F"/>
<path d="M201.702 106.312C201.687 106.312 201.67 106.311 201.654 106.31L191.481 105.429C191.155 105.401 190.911 105.091 190.937 104.737C190.963 104.385 191.244 104.116 191.576 104.149L201.749 105.03C202.076 105.058 202.32 105.368 202.294 105.722C202.269 106.057 202.009 106.312 201.702 106.312Z" fill="#233863"/>
<path d="M207.938 121.608C207.922 121.608 207.906 121.608 207.89 121.606L190.395 120.092C190.068 120.063 189.824 119.754 189.851 119.401C189.877 119.047 190.158 118.779 190.49 118.812L207.985 120.327C208.311 120.355 208.555 120.664 208.529 121.017C208.504 121.353 208.245 121.608 207.938 121.608Z" fill="#233863"/>
<path d="M204.23 113.909C204.215 113.909 204.198 113.908 204.182 113.907L190.938 112.76C190.611 112.731 190.367 112.422 190.393 112.068C190.419 111.715 190.696 111.45 191.033 111.479L204.277 112.627C204.605 112.655 204.848 112.964 204.822 113.318C204.797 113.654 204.537 113.909 204.23 113.909Z" fill="#233863"/>
<path d="M226.228 101.653C226.213 101.653 226.196 101.652 226.18 101.651L191.928 98.6841C191.601 98.6559 191.357 98.3464 191.383 97.9926C191.409 97.6394 191.687 97.3697 192.023 97.4038L226.275 100.37C226.601 100.399 226.846 100.708 226.819 101.062C226.794 101.398 226.535 101.653 226.228 101.653Z" fill="#233863"/>
<path d="M224.822 115.635C224.806 115.635 224.79 115.634 224.774 115.633L208.407 114.215C208.081 114.187 207.837 113.878 207.863 113.524C207.889 113.171 208.167 112.904 208.502 112.935L224.869 114.353C225.195 114.381 225.439 114.691 225.413 115.044C225.388 115.38 225.129 115.635 224.822 115.635Z" fill="#233863"/>
<path d="M226.489 108.458C226.472 108.458 226.455 108.457 226.439 108.456L205.45 106.541C205.122 106.511 204.88 106.2 204.908 105.847C204.936 105.493 205.225 105.236 205.549 105.26L226.538 107.176C226.866 107.205 227.108 107.516 227.08 107.87C227.054 108.205 226.794 108.458 226.489 108.458Z" fill="#233863"/>
</svg>
