<svg width="432" height="405" viewBox="0 0 432 405" fill="none" xmlns="http://www.w3.org/2000/svg">
<mask id="mask0_465_2306" style="mask-type:luminance" maskUnits="userSpaceOnUse" x="0" y="0" width="432" height="405">
<path d="M0 0H431.25V404.5H0V0Z" fill="white"/>
</mask>
<g mask="url(#mask0_465_2306)">
<path d="M4.93393 387.286C-7.55106 385.817 -20.0361 384.348 -32.5211 382.879C-35.7051 382.504 -38.9641 382.108 -41.8291 380.669C-47.3891 377.878 -50.3851 371.776 -52.5191 365.932C-59.2221 347.576 -61.2191 327.88 -62.7401 308.397C-64.6161 284.375 -65.8521 260.304 -66.4461 236.216C-67.0471 211.837 -66.9871 187.374 -64.1211 163.157C-62.0571 145.717 -58.5101 128.351 -51.9871 112.046C-35.3061 70.3531 -6.77209 36.2821 35.0079 17.8291C88.2939 -5.70587 154.526 15.0491 195.151 54.2191C232.266 90.0041 235.017 146.542 272.215 182.2C298.416 207.317 336.943 215.365 365.129 238.231C386.812 255.822 401.065 281.332 409.003 308.102C416.941 334.872 418.982 363.024 419.587 390.939L4.93393 387.286Z" fill="#FFE300"/>
</g>
<path d="M204.594 335.312L241.938 358.029L283.221 331.617L248.032 310.211L204.594 335.312Z" fill="url(#paint0_linear_465_2306)"/>
<path d="M115.403 341.299L152.747 364.015L194.03 337.603L158.841 316.197L115.403 341.299Z" fill="url(#paint1_linear_465_2306)"/>
<path d="M25.2001 297.79L115.82 352.915L215.997 288.822L130.606 236.879L25.2001 297.79Z" fill="url(#paint2_linear_465_2306)"/>
<path d="M0.180847 307.479L48.2449 338.026L89.5269 311.613L43.6188 282.377L0.180847 307.479Z" fill="url(#paint3_linear_465_2306)"/>
<path d="M214.433 179.739V158.16C214.434 145.546 223.343 130.179 234.335 123.831C245.327 117.485 254.237 122.566 254.237 135.179V156.758L252.045 158.024V136.445C252.044 130.83 250.064 126.9 246.858 125.07C243.65 123.243 239.229 123.523 234.335 126.348C229.441 129.174 225.021 133.998 221.812 139.53C218.605 145.063 216.626 151.279 216.625 156.895V178.475L214.433 179.739Z" fill="#CCE7FF"/>
<path d="M255.563 155.992C255.563 154.457 254.479 153.839 253.141 154.611C251.803 155.383 250.719 157.254 250.719 158.789C250.719 160.324 251.804 160.942 253.141 160.17C254.479 159.398 255.563 157.527 255.563 155.992Z" fill="#CCE7FF"/>
<path d="M217.951 177.708C217.951 176.173 216.867 175.555 215.529 176.327C214.191 177.099 213.107 178.97 213.107 180.505C213.107 182.04 214.191 182.658 215.529 181.886C216.867 181.113 217.951 179.243 217.951 177.708Z" fill="#CCE7FF"/>
<path d="M193.711 185.726L276.947 137.67L280.131 148.157L300.227 151.11L216.991 199.166L211.875 187.564L193.711 185.726Z" fill="#0057C0"/>
<path d="M193.711 280.752L276.947 232.696L280.131 243.183L300.227 246.137L216.991 294.193L211.875 282.591L193.711 280.752Z" fill="#C9EAFF"/>
<path d="M193.711 280.753V185.727L211.875 187.565V282.592L193.711 280.753Z" fill="#598CE5"/>
<path d="M216.991 199.166V294.193L211.875 282.591V187.564L216.991 199.166Z" fill="#79AEFF"/>
<path d="M300.227 151.11L216.991 199.166V294.193L300.227 246.137V151.11Z" fill="#CCE7FF"/>
<path d="M238.23 192.72V171.141C238.231 158.527 247.14 143.16 258.132 136.812C269.124 130.467 278.034 135.547 278.034 148.16V169.739L275.842 171.005V149.425C275.841 143.81 273.861 139.88 270.655 138.05C267.447 136.223 263.026 136.503 258.132 139.328C253.238 142.154 248.818 146.978 245.609 152.51C242.403 158.043 240.423 164.259 240.422 169.875V191.455L238.23 192.72Z" fill="#CCE7FF"/>
<path d="M279.36 168.974C279.36 167.439 278.276 166.821 276.938 167.593C275.6 168.365 274.516 170.236 274.516 171.771C274.516 173.306 275.6 173.924 276.938 173.152C278.275 172.379 279.36 170.509 279.36 168.974Z" fill="#CCE7FF"/>
<path d="M241.748 190.689C241.748 189.154 240.664 188.536 239.326 189.308C237.988 190.08 236.904 191.951 236.904 193.486C236.904 195.021 237.988 195.639 239.326 194.867C240.663 194.095 241.748 192.224 241.748 190.689Z" fill="#CCE7FF"/>
<path d="M108.934 115.738V340.211C108.934 346.07 110.911 350.174 114.034 351.877V351.886L121.561 356.228C118.64 354.419 116.796 350.395 116.796 344.748V120.282C116.796 109.719 123.22 97.4541 131.136 92.8831L213.626 45.2581C216.9 43.3701 219.918 43.0871 222.336 44.1641L215.753 40.3611C213.167 38.5081 209.647 38.4731 205.755 40.7141L123.274 88.3391C115.349 92.9091 108.934 105.184 108.934 115.738Z" fill="#79AEFF"/>
<path d="M116.797 120.28V344.75C116.797 350.39 118.637 354.42 121.557 356.23C121.667 356.3 121.787 356.36 121.897 356.42C124.397 357.8 127.617 357.62 131.137 355.59L135.997 352.78L213.627 307.97C221.537 303.4 227.967 291.13 227.967 280.57V56.1003C227.967 49.9203 225.757 45.6803 222.337 44.1603C219.917 43.0903 216.897 43.3703 213.627 45.2603L131.137 92.8803C123.217 97.4503 116.797 109.72 116.797 120.28Z" fill="#C9EAFF"/>
<path d="M120.309 120.394V339.356C120.309 343.215 123.03 344.767 126.394 342.825L217.533 290.206C220.896 288.264 223.618 283.57 223.618 279.71V60.7479C223.618 56.8889 220.897 55.3369 217.533 57.2789L182.535 77.4849C180.134 78.8709 177.788 81.3159 176.243 84.3099C175.22 86.2969 173.682 88.0749 171.964 89.0669C170.245 90.0589 168.708 90.0569 167.685 89.2509C166.14 88.0399 163.793 88.3059 161.393 89.6919L126.395 109.898C123.03 111.84 120.309 116.534 120.309 120.394Z" fill="#0057C0"/>
<path opacity="0.26" d="M135.997 287.22V352.78L213.627 307.97C221.537 303.4 227.967 291.13 227.967 280.57V228.16L141.197 278.26C138.327 279.92 135.997 283.93 135.997 287.22Z" fill="#003860"/>
<path d="M175.181 79.6917C175.181 77.9167 173.927 77.2027 172.381 78.0957C170.835 78.9887 169.581 81.1507 169.581 82.9257C169.581 84.7007 170.835 85.4147 172.381 84.5217C173.927 83.6287 175.181 81.4657 175.181 79.6917Z" fill="#0057C0"/>
<path d="M173.676 80.5599C173.676 79.7389 173.096 79.4079 172.38 79.8209C171.664 80.2339 171.085 81.2339 171.085 82.0559C171.085 82.8769 171.665 83.2079 172.38 82.7949C173.095 82.3819 173.676 81.3819 173.676 80.5599Z" fill="#00368D"/>
<path d="M287.309 238.032C287.309 225.72 296.007 210.717 306.737 204.522C312.118 201.415 316.987 201.115 320.505 203.139L327.394 207.116C323.884 205.155 319.057 205.478 313.728 208.555C302.998 214.75 294.3 229.753 294.3 242.065C294.3 247.829 296.207 251.981 299.336 254.132L293.596 250.818C293.154 250.607 292.731 250.364 292.328 250.086L292.319 250.081L292.32 250.08C289.206 247.924 287.309 243.78 287.309 238.032Z" fill="#79AEFF"/>
<path d="M327.667 207.274L327.662 207.277C327.625 207.255 327.59 207.231 327.553 207.209L327.667 207.274Z" fill="#00337D"/>
<path d="M294.331 242.085C294.331 254.417 303.043 259.383 313.79 253.179C324.538 246.974 333.25 231.947 333.25 219.615C333.25 207.282 324.538 202.315 313.79 208.52C303.043 214.725 294.331 229.751 294.331 242.085Z" fill="#CCE7FF"/>
<path d="M323.924 226.612L316.759 238.972L302.601 230.9L305.586 225.751L316.759 232.121L320.939 224.911L323.924 226.612Z" fill="#0057C0"/>
<path d="M167.104 169.797V165.235C167.104 164.675 167.5 163.993 167.987 163.711C168.475 163.429 168.87 163.655 168.87 164.215V168.777C168.873 170.735 170.255 171.522 171.962 170.54C173.67 169.55 175.051 167.167 175.055 165.206V146.956C175.052 144.998 173.67 144.21 171.962 145.193C170.254 146.182 168.873 148.565 168.87 150.527V157.371C168.871 158.07 169.365 158.351 169.974 158.001C170.584 157.647 171.077 156.797 171.079 156.096V149.252C171.079 148.692 171.475 148.01 171.962 147.728C172.45 147.446 172.845 147.672 172.845 148.232V155.076C172.845 156.896 171.56 159.112 169.973 160.029C168.387 160.944 167.102 160.212 167.102 158.392V151.548C167.102 148.468 169.277 144.716 171.961 143.166C174.645 141.617 176.82 142.857 176.82 145.937V164.187C176.82 167.267 174.645 171.018 171.961 172.569C169.279 174.117 167.104 172.877 167.104 169.797Z" fill="#79AEFF"/>
<path d="M160.035 161.205C159.547 161.487 159.152 161.261 159.152 160.701V156.139C159.152 155.579 159.548 154.897 160.035 154.615C160.523 154.333 160.919 154.559 160.919 155.119V159.681C160.919 160.241 160.523 160.923 160.035 161.205Z" fill="#79AEFF"/>
<path d="M159.881 178.867C159.408 177.606 159.152 176.104 159.152 174.388V165.263C159.152 164.703 159.548 164.021 160.035 163.739C160.523 163.457 160.918 163.683 160.918 164.243V173.368C160.918 174.852 161.139 176.144 161.547 177.229C161.71 177.663 161.469 178.381 161.009 178.834C160.549 179.287 160.044 179.301 159.881 178.867Z" fill="#79AEFF"/>
<path d="M163.73 180.193C165.756 181.618 168.689 181.554 171.963 179.665C175.236 177.775 178.171 174.451 180.195 170.687C180.521 170.082 181.079 169.724 181.443 169.887C181.807 170.05 181.838 170.674 181.512 171.279C179.169 175.637 175.754 179.504 171.963 181.692C168.171 183.881 164.757 183.958 162.414 182.305C162.089 182.076 162.119 181.417 162.483 180.834C162.846 180.251 163.405 179.964 163.73 180.193Z" fill="#79AEFF"/>
<path d="M183.891 154.529C184.379 154.247 184.774 154.473 184.774 155.033V159.595C184.774 161.311 184.518 163.11 184.046 164.916C183.884 165.538 183.379 166.106 182.919 166.186C182.459 166.265 182.217 165.825 182.38 165.204C182.787 163.648 183.008 162.101 183.008 160.617V156.055C183.008 155.492 183.403 154.81 183.891 154.529Z" fill="#79AEFF"/>
<path d="M184.774 150.47C184.774 151.03 184.379 151.712 183.89 151.994C183.402 152.276 183.006 152.05 183.006 151.49V142.365C183.005 138.862 181.771 136.413 179.771 135.271C177.77 134.132 175.014 134.306 171.961 136.068C171.473 136.35 171.078 136.124 171.078 135.564C171.078 135.004 171.473 134.322 171.961 134.04C179.037 129.955 184.772 133.225 184.773 141.344L184.774 150.47Z" fill="#79AEFF"/>
<path d="M160.42 151.8C159.96 151.879 159.719 151.439 159.881 150.817C161.169 145.894 164.05 140.924 167.692 137.343C168.152 136.891 168.657 136.876 168.82 137.31C168.983 137.744 168.742 138.462 168.281 138.915C165.145 141.997 162.654 146.293 161.547 150.531C161.385 151.152 160.88 151.72 160.42 151.8Z" fill="#79AEFF"/>
<path d="M156.059 166.035C156.547 165.753 156.942 165.979 156.942 166.539V175.79C156.943 180.148 158.359 183.3 160.695 184.973C161.019 185.205 160.985 185.865 160.62 186.447C160.255 187.029 159.697 187.314 159.373 187.082C156.762 185.214 155.174 181.678 155.174 176.81V167.559C155.176 166.999 155.571 166.317 156.059 166.035Z" fill="#79AEFF"/>
<path d="M164.45 186.311C166.632 186.485 169.156 185.848 171.852 184.291L172.128 184.131C176.233 181.76 179.941 177.714 182.632 173.074C185.322 168.433 186.982 163.22 186.983 158.509V140.069C186.982 135.695 185.566 132.528 183.228 130.836C182.905 130.603 182.94 129.942 183.306 129.36C183.672 128.778 184.23 128.496 184.553 128.729C187.164 130.615 188.751 134.166 188.75 139.048V157.488C188.75 168.022 181.309 180.857 172.128 186.158L171.852 186.317C168.842 188.055 166.011 188.771 163.571 188.576C163.148 188.542 163.001 188.007 163.244 187.381C163.487 186.757 164.027 186.277 164.45 186.311Z" fill="#79AEFF"/>
<path d="M179.472 129.476C177.263 129.285 174.702 129.925 171.963 131.506C167.813 133.903 164.063 137.994 161.342 142.686C158.623 147.378 156.943 152.651 156.942 157.414V161.976C156.942 162.536 156.547 163.218 156.058 163.5C155.57 163.782 155.175 163.556 155.175 162.996V158.434C155.175 147.795 162.691 134.832 171.962 129.478C175.018 127.714 177.888 126.995 180.357 127.209C180.78 127.245 180.924 127.783 180.679 128.409C180.435 129.035 179.895 129.512 179.472 129.476Z" fill="#79AEFF"/>
<path d="M172.847 161.919V166.481C172.847 167.041 172.452 167.723 171.963 168.005C171.475 168.287 171.079 168.061 171.079 167.501V162.938C171.079 162.378 171.475 161.696 171.963 161.414C172.451 161.133 172.847 161.359 172.847 161.919Z" fill="#79AEFF"/>
<path d="M171.963 138.603C176.843 135.786 180.798 138.041 180.799 143.641C180.799 144.201 180.404 144.883 179.916 145.165C179.428 145.447 179.032 145.221 179.032 144.661C179.031 142.418 178.242 140.853 176.962 140.121C175.68 139.392 173.919 139.503 171.964 140.631C170.009 141.76 168.248 143.683 166.966 145.892C165.685 148.102 164.896 150.579 164.896 152.823C164.896 153.383 164.501 154.065 164.012 154.347C163.524 154.629 163.128 154.403 163.128 153.843C163.128 148.242 167.083 141.421 171.963 138.603Z" fill="#79AEFF"/>
<path d="M179.915 147.699C180.403 147.417 180.798 147.643 180.798 148.203V161.89C180.798 165.641 179.021 169.947 176.381 173.222C175.959 173.746 175.418 173.893 175.174 173.549C174.93 173.205 175.074 172.502 175.496 171.978C177.61 169.352 179.031 165.914 179.031 162.911V149.224C179.032 148.663 179.427 147.981 179.915 147.699Z" fill="#79AEFF"/>
<path d="M171.963 177.13C167.083 179.947 163.128 177.692 163.128 172.092V158.405C163.128 157.845 163.524 157.163 164.011 156.881C164.499 156.599 164.894 156.825 164.894 157.385V171.072C164.895 173.315 165.684 174.88 166.964 175.612C168.246 176.341 170.007 176.23 171.962 175.102C172.45 174.82 172.846 175.046 172.846 175.606C172.847 176.166 172.451 176.848 171.963 177.13Z" fill="#79AEFF"/>
<path d="M135.308 247.462L206.851 206.157C210.354 204.135 213.194 198.709 213.194 194.038C213.194 189.367 210.354 187.221 206.851 189.243L135.308 230.548C131.805 232.57 128.965 237.996 128.965 242.667C128.966 247.338 131.805 249.485 135.308 247.462Z" fill="white"/>
<path d="M201.545 200.763L199.84 202.829L200.423 203.659L202.158 201.49L202.143 203.713L203.28 203.057L203.265 200.868L204.985 201.025L205.583 199.512L203.863 199.424L205.583 197.349L204.985 196.51L203.265 198.67L203.28 196.464L202.143 197.12L202.158 199.325L200.423 199.143L199.84 200.664L201.545 200.763Z" fill="#00337D"/>
<path d="M189.243 207.866L187.538 209.932L188.121 210.762L189.856 208.593L189.841 210.816L190.978 210.16L190.963 207.971L192.683 208.128L193.281 206.615L191.561 206.527L193.281 204.452L192.683 203.613L190.963 205.773L190.978 203.567L189.841 204.223L189.856 206.429L188.121 206.247L187.538 207.768L189.243 207.866Z" fill="#00337D"/>
<path d="M176.942 214.968L175.237 217.034L175.82 217.864L177.555 215.695L177.54 217.918L178.677 217.262L178.662 215.073L180.382 215.23L180.98 213.717L179.26 213.629L180.98 211.554L180.382 210.715L178.662 212.875L178.677 210.669L177.54 211.325L177.555 213.531L175.82 213.349L175.237 214.87L176.942 214.968Z" fill="#00337D"/>
<path d="M164.64 222.07L162.935 224.136L163.518 224.966L165.253 222.797L165.238 225.02L166.375 224.364L166.36 222.176L168.08 222.333L168.678 220.82L166.958 220.732L168.678 218.657L168.08 217.818L166.36 219.978L166.375 217.772L165.238 218.428L165.253 220.634L163.518 220.452L162.935 221.973L164.64 222.07Z" fill="#00337D"/>
<path d="M152.339 229.173L150.634 231.239L151.217 232.069L152.952 229.9L152.937 232.123L154.074 231.467L154.059 229.278L155.779 229.435L156.377 227.922L154.657 227.834L156.377 225.759L155.779 224.92L154.059 227.08L154.074 224.874L152.937 225.53L152.952 227.736L151.217 227.554L150.634 229.075L152.339 229.173Z" fill="#00337D"/>
<path d="M140.037 236.275L138.332 238.341L138.915 239.171L140.65 237.002L140.635 239.225L141.772 238.569L141.757 236.38L143.477 236.537L144.075 235.024L142.355 234.936L144.075 232.861L143.477 232.022L141.757 234.182L141.772 231.976L140.635 232.632L140.65 234.838L138.915 234.656L138.332 236.177L140.037 236.275Z" fill="#00337D"/>
<path d="M64.6392 106.152L77.2942 113.457C96.7302 99.1241 106.785 87.7951 119.388 70.8841L106.74 63.5791C94.1302 80.4901 84.0822 91.8191 64.6392 106.152Z" fill="#FFAF00"/>
<path d="M106.74 63.5789L119.388 70.8839C131.998 73.2439 142.046 72.9599 161.489 64.8519L148.834 57.5469C129.398 65.6539 119.343 65.9389 106.74 63.5789Z" fill="#FFC200"/>
<path d="M64.6392 106.152C64.6392 116.964 65.6951 127.948 68.7151 137.336C71.7271 146.724 76.7022 154.517 84.5322 158.915L96.3481 165.733C81.3701 156.622 77.2942 134.684 77.2942 113.457L64.6392 106.152Z" fill="#D37C00"/>
<path d="M82.3762 114.581C83.5902 135.972 89.8692 149.369 101.13 154.644C105.333 156.615 110.234 157.454 115.816 157.154C117.037 155.805 118.229 154.442 119.39 153.063C136.968 132.106 146.91 107.373 149.038 79.3129C149.128 78.2039 149.203 77.0879 149.263 75.9639C135.132 81.0289 125.691 81.6729 115.816 80.3399C105.941 93.0769 96.5072 103.327 82.3762 114.581Z" fill="#FFC200"/>
<path d="M119.39 70.8837C131.993 73.2437 142.048 72.9597 161.484 64.8447C161.484 94.3877 153.587 134.422 119.39 169.727C85.1944 173.908 77.2894 143.001 77.2894 113.457C96.7324 99.1157 106.78 87.7947 119.39 70.8837ZM119.39 159.215C139.935 136.595 151.159 109.337 152.83 78.0247C151.526 78.4887 150.26 78.9237 149.039 79.3137C136.953 83.1947 128.352 83.6147 119.391 82.4007C109.516 95.1377 100.075 105.388 85.9443 116.642C87.0303 135.658 92.1103 148.351 101.132 154.645C106.053 158.076 112.137 159.604 119.39 159.215Z" fill="#FFE300"/>
<path d="M115.816 157.154L119.39 159.215C139.935 136.595 151.159 109.337 152.83 78.0249C151.526 78.4889 150.26 78.9239 149.039 79.3139C146.911 107.374 136.968 132.107 119.391 153.064C118.229 154.442 117.037 155.806 115.816 157.154Z" fill="#D37C00"/>
<path d="M101.13 154.644C106.053 158.076 112.137 159.604 119.39 159.214L115.816 157.153C110.234 157.454 105.334 156.615 101.13 154.644Z" fill="#FFC200"/>
<path d="M96.3481 117.812C98.3371 116.666 100.898 114.087 102.076 112.059C102.714 110.96 102.797 110.264 102.438 110.024L102.45 110.006L123.537 122.088L130.049 110.857C131.297 110.137 133.31 110.109 134.469 110.775C135.258 111.229 135.463 111.893 135.128 112.5C135.133 112.5 135.142 112.5 135.142 112.5C135.142 112.5 125.13 129.867 124.587 130.845C124.043 131.823 122.612 132.687 121.063 131.853C121.06 131.851 121.059 131.848 121.056 131.846C120.916 131.795 120.778 131.739 120.645 131.663L96.3481 117.812Z" fill="#FFE300"/>
<path d="M102.076 112.059C100.898 114.087 98.337 116.666 96.348 117.812L100.608 110.464C101.519 109.939 102.135 109.821 102.439 110.024C102.797 110.264 102.714 110.96 102.076 112.059Z" fill="#FFAF00"/>
<path d="M150.497 273.295V360.345C150.497 363.635 152.827 364.955 155.697 363.305L280.287 291.375C283.157 289.715 285.477 285.705 285.477 282.415V195.375C285.477 192.075 283.157 190.755 280.287 192.405L155.697 264.345C152.827 265.995 150.497 270.005 150.497 273.295Z" fill="#FFC200"/>
<path d="M150.497 299.695V360.345C150.497 363.635 152.827 364.955 155.697 363.305L280.287 291.375C283.157 289.715 285.477 285.705 285.477 282.415V221.755L150.497 299.695Z" fill="#E98A00"/>
<path d="M161.363 279.698L187.502 264.607C188.505 264.028 189.317 262.627 189.317 261.476V253.165C189.317 252.014 188.504 251.551 187.502 252.13L161.363 267.222C160.36 267.801 159.548 269.202 159.548 270.353V278.664C159.548 279.814 160.36 280.277 161.363 279.698Z" fill="white"/>
<path d="M258.614 251.178L272.047 243.423C273.902 242.352 275.405 239.759 275.405 237.631V225.735C275.405 223.607 273.902 222.749 272.047 223.82L258.614 231.575C256.759 232.646 255.256 235.239 255.256 237.367V249.263C255.256 251.392 256.759 252.249 258.614 251.178Z" fill="#FFE300"/>
<path d="M258.705 248.603V248.325L272.168 240.552V226.423L258.947 234.056V248.463L258.705 248.603V248.325V248.603L258.463 248.743V233.78L272.652 225.588V240.828L258.463 249.02V248.743L258.705 248.603Z" fill="#E0A900"/>
<path d="M262.301 242.673V242.395L268.571 238.775V232.353L262.543 235.833V242.533L262.301 242.673V242.395V242.673L262.059 242.813V235.557L269.055 231.518V239.051L262.059 243.091V242.813L262.301 242.673Z" fill="#E0A900"/>
<path d="M265.572 227.558V229.953L265.088 230.233V227.837" fill="#E0A900"/>
<path d="M265.572 244.638V247.033L265.088 247.313V244.918" fill="#E0A900"/>
<path d="M268.813 231.658L275.405 227.852V228.407L268.813 232.213" fill="#E0A900"/>
<path d="M268.813 235.147L275.405 231.341V231.897L268.813 235.702" fill="#E0A900"/>
<path d="M268.813 238.636L275.405 234.83V235.385L268.813 239.191" fill="#E0A900"/>
<path d="M255.71 239.223L262.301 235.418V235.973L255.71 239.779" fill="#E0A900"/>
<path d="M255.71 242.712L262.301 238.906V239.462L255.71 243.268" fill="#E0A900"/>
<path d="M255.71 246.201L262.301 242.395V242.951L255.71 246.756" fill="#E0A900"/>
<path d="M267.478 228.853V232.706L266.994 232.986V229.132" fill="#E0A900"/>
<path d="M263.757 231.001V234.855L263.273 235.134V231.281" fill="#E0A900"/>
<path d="M267.478 239.684V243.538L266.994 243.817V239.964" fill="#E0A900"/>
<path d="M263.757 241.833V245.686L263.273 245.966V242.112" fill="#E0A900"/>
<path d="M216.183 307.479L225.622 302.029V300.018L216.183 305.468V307.479Z" fill="white"/>
<path d="M216.183 311.545L225.622 306.095V304.084L216.183 309.533V311.545Z" fill="white"/>
<path d="M194.928 316.836L213.08 306.356V313.336L194.928 323.816V316.836Z" fill="white"/>
<path d="M237.482 299.248L275.405 277.353V286.23L237.482 308.125V299.248Z" fill="white"/>
<path d="M275.186 262.376L273.534 263.331V264.447L278.147 261.784V260.667L276.295 261.736V255.508L278.042 254.955V253.803L276.295 254.331L275.186 254.972V262.376Z" fill="white"/>
<path d="M267.029 267.086V268.202L271.861 265.412V264.068C270.727 264.007 269.878 263.748 269.311 263.293C268.745 262.838 268.461 262.194 268.461 261.362C268.461 260.346 268.894 259.588 269.758 259.089C270.111 258.885 270.381 258.83 270.571 258.922C270.761 259.015 270.856 259.246 270.856 259.619L271.974 258.973C271.974 258.497 271.884 258.141 271.705 257.904C271.526 257.667 271.264 257.56 270.921 257.579C270.578 257.599 270.166 257.748 269.684 258.026C268.903 258.477 268.317 259.029 267.926 259.68C267.536 260.332 267.341 261.087 267.341 261.947C267.341 262.815 267.579 263.508 268.057 264.027C268.535 264.545 269.259 264.888 270.228 265.057V265.237L267.029 267.086Z" fill="white"/>
<path d="M261.595 267.187C261.33 267.54 261.125 267.917 260.98 268.319C260.835 268.721 260.764 269.128 260.764 269.539C260.764 270.043 260.864 270.417 261.065 270.662C261.265 270.906 261.558 271.012 261.94 270.978C262.324 270.945 262.786 270.772 263.326 270.46C265.007 269.49 265.847 268.169 265.847 266.496L264.729 267.142C264.729 268.078 264.275 268.808 263.369 269.332C262.899 269.603 262.533 269.69 262.274 269.592C262.014 269.494 261.884 269.221 261.884 268.773C261.884 268.277 262.079 267.781 262.469 267.283C262.859 266.786 263.411 266.331 264.122 265.921L264.289 265.824L264.415 264.971C263.624 265.316 263.038 265.453 262.66 265.381C262.282 265.309 262.093 265.055 262.093 264.619C262.093 264.271 262.199 263.939 262.412 263.622C262.625 263.305 262.926 263.034 263.317 262.809C263.718 262.578 264.027 262.5 264.245 262.576C264.462 262.653 264.572 262.876 264.572 263.248L265.69 262.602C265.69 262.126 265.593 261.774 265.398 261.546C265.202 261.319 264.919 261.224 264.545 261.261C264.172 261.299 263.724 261.468 263.201 261.77C262.49 262.18 261.941 262.662 261.554 263.216C261.167 263.769 260.974 264.352 260.974 264.964C260.974 265.292 261.038 265.558 261.168 265.761C261.297 265.965 261.478 266.097 261.712 266.158C261.945 266.219 262.216 266.207 262.522 266.122V266.248C262.169 266.522 261.861 266.834 261.595 267.187Z" fill="white"/>
<path d="M254.353 272.557V273.613L255.053 273.208V275.117L256.11 274.506V272.598L259.834 270.449L259.818 270.44L258.777 264.926L257.71 265.542L258.584 270.114L256.11 271.542V265.985L255.053 266.595V272.152L254.353 272.557Z" fill="white"/>
<path d="M242.516 277.509C242.131 278.205 241.938 279.016 241.938 279.94C241.938 280.544 242.04 281.002 242.243 281.315C242.447 281.627 242.745 281.782 243.136 281.781C243.527 281.78 243.998 281.619 244.552 281.299C245.062 281.005 245.497 280.655 245.859 280.25C246.222 279.845 246.497 279.4 246.685 278.915C246.873 278.431 246.968 277.924 246.968 277.396L245.849 278.042C245.849 278.486 245.736 278.897 245.51 279.273C245.283 279.65 244.961 279.96 244.542 280.201C244.068 280.475 243.702 280.532 243.444 280.373C243.186 280.214 243.057 279.854 243.057 279.294C243.057 278.142 243.576 277.266 244.615 276.666C245.086 276.394 245.525 276.273 245.933 276.302L246.518 275.964L246.414 271.583L242.408 273.896V275.012L245.367 273.304L245.472 275.338C245.123 275.375 244.716 275.528 244.249 275.798C243.479 276.242 242.902 276.813 242.516 277.509Z" fill="white"/>
<path d="M236.243 281.266C235.89 281.93 235.714 282.681 235.714 283.521C235.714 284.125 235.809 284.588 235.999 284.91C236.189 285.233 236.466 285.402 236.83 285.418C237.194 285.434 237.635 285.292 238.151 284.994C238.705 284.674 239.178 284.273 239.568 283.792C239.959 283.311 240.255 282.767 240.46 282.158C240.663 281.551 240.765 280.901 240.765 280.208V279.92C240.765 278.292 240.405 277.262 239.683 276.831C238.962 276.399 237.865 276.566 236.394 277.332L236.29 278.532C237.402 277.942 238.232 277.772 238.778 278.022C239.325 278.272 239.602 278.94 239.604 280.026L239.51 280.08C239.405 279.701 239.198 279.478 238.888 279.413C238.577 279.348 238.196 279.446 237.742 279.708C237.095 280.084 236.595 280.603 236.243 281.266ZM237.173 283.99C236.947 283.811 236.833 283.439 236.833 282.875C236.833 282.383 236.952 281.936 237.191 281.531C237.429 281.128 237.77 280.797 238.213 280.542C238.655 280.286 238.999 280.233 239.241 280.381C239.483 280.529 239.604 280.867 239.604 281.396C239.604 282.5 239.116 283.334 238.141 283.897C237.723 284.139 237.4 284.169 237.173 283.99Z" fill="white"/>
<path d="M229.074 281.595L231.626 288.643L232.85 287.936L230.648 281.862L233.425 280.259V282.071L234.523 281.437V278.448L229.074 281.595Z" fill="white"/>
<path d="M223.59 289.535C223.305 290.065 223.164 290.616 223.164 291.188C223.164 291.704 223.263 292.089 223.462 292.342C223.662 292.595 223.95 292.71 224.328 292.686C224.706 292.661 225.162 292.495 225.695 292.187C226.228 291.879 226.685 291.518 227.063 291.106C227.441 290.693 227.73 290.246 227.928 289.763C228.127 289.281 228.226 288.781 228.226 288.265C228.226 287.693 228.082 287.306 227.795 287.104C227.508 286.902 227.097 286.893 226.563 287.077V286.987C227.034 286.595 227.394 286.164 227.644 285.694C227.893 285.224 228.017 284.741 228.017 284.245C228.017 283.793 227.926 283.457 227.746 283.237C227.564 283.018 227.3 282.924 226.951 282.955C226.602 282.987 226.184 283.143 225.695 283.425C225.207 283.707 224.789 284.033 224.44 284.404C224.091 284.776 223.827 285.175 223.645 285.604C223.464 286.033 223.373 286.473 223.373 286.926C223.373 287.418 223.498 287.755 223.747 287.937C223.997 288.119 224.353 288.138 224.816 287.994V288.084C224.283 288.521 223.875 289.004 223.59 289.535ZM224.652 291.315C224.406 291.211 224.283 290.933 224.283 290.481C224.283 290.001 224.406 289.556 224.652 289.146C224.898 288.736 225.246 288.401 225.695 288.142C226.145 287.882 226.493 287.815 226.739 287.941C226.985 288.068 227.108 288.37 227.108 288.85C227.108 289.302 226.985 289.722 226.739 290.11C226.493 290.498 226.145 290.822 225.695 291.082C225.246 291.342 224.898 291.42 224.652 291.315ZM226.582 286.172C226.371 286.498 226.075 286.77 225.695 286.99C225.315 287.209 225.02 287.278 224.809 287.196C224.598 287.114 224.492 286.889 224.492 286.521C224.492 286.109 224.597 285.729 224.806 285.383C225.015 285.036 225.312 284.752 225.695 284.531C226.079 284.309 226.375 284.251 226.585 284.356C226.794 284.461 226.898 284.72 226.898 285.132C226.897 285.5 226.792 285.846 226.582 286.172Z" fill="white"/>
<path d="M212.433 298.607L210.781 299.561V300.678L215.393 298.014V296.898L213.542 297.967V291.738L215.288 291.186V290.034L213.542 290.562L212.433 291.202V298.607Z" fill="white"/>
<path d="M204.276 303.317V304.433L209.108 301.643V300.299C207.975 300.237 207.124 299.979 206.558 299.524C205.992 299.069 205.708 298.425 205.708 297.593C205.708 296.577 206.141 295.819 207.005 295.32C207.358 295.116 207.628 295.061 207.818 295.153C208.008 295.246 208.104 295.478 208.104 295.85L209.222 295.204C209.222 294.728 209.132 294.372 208.953 294.135C208.774 293.898 208.512 293.79 208.169 293.81C207.826 293.83 207.414 293.979 206.932 294.257C206.151 294.708 205.565 295.26 205.174 295.911C204.784 296.563 204.589 297.318 204.589 298.178C204.589 299.046 204.827 299.739 205.305 300.258C205.783 300.776 206.507 301.119 207.476 301.288V301.468L204.276 303.317Z" fill="white"/>
<path d="M198.843 303.418C198.578 303.771 198.373 304.148 198.228 304.55C198.083 304.952 198.012 305.359 198.012 305.77C198.012 306.274 198.112 306.648 198.313 306.893C198.514 307.137 198.806 307.243 199.188 307.209C199.572 307.176 200.034 307.003 200.574 306.691C202.255 305.721 203.095 304.4 203.095 302.727L201.977 303.373C201.977 304.309 201.523 305.039 200.617 305.563C200.147 305.834 199.781 305.921 199.522 305.823C199.262 305.725 199.132 305.452 199.132 305.004C199.132 304.508 199.327 304.012 199.717 303.514C200.108 303.017 200.659 302.562 201.37 302.152L201.537 302.055L201.663 301.202C200.872 301.547 200.286 301.684 199.908 301.612C199.53 301.54 199.341 301.286 199.341 300.85C199.341 300.502 199.447 300.17 199.66 299.853C199.873 299.536 200.174 299.265 200.565 299.04C200.966 298.809 201.275 298.731 201.493 298.807C201.71 298.884 201.82 299.108 201.82 299.48L202.939 298.834C202.939 298.358 202.842 298.006 202.647 297.778C202.451 297.551 202.168 297.456 201.794 297.493C201.42 297.531 200.973 297.7 200.45 298.002C199.739 298.412 199.19 298.894 198.803 299.448C198.416 300.001 198.223 300.584 198.223 301.196C198.223 301.524 198.287 301.79 198.417 301.993C198.546 302.197 198.727 302.329 198.961 302.39C199.194 302.451 199.465 302.439 199.771 302.354V302.48C199.417 302.752 199.108 303.064 198.843 303.418Z" fill="white"/>
<path d="M191.6 308.787V309.843L192.3 309.439V311.347L193.357 310.737V308.829L197.08 306.679L197.064 306.67L196.023 301.156L194.957 301.772L195.831 306.345L193.357 307.773V302.216L192.3 302.826V308.383L191.6 308.787Z" fill="white"/>
<path d="M179.763 313.74C179.378 314.436 179.185 315.247 179.185 316.171C179.185 316.775 179.287 317.233 179.49 317.546C179.694 317.858 179.992 318.013 180.383 318.012C180.774 318.011 181.245 317.85 181.799 317.53C182.309 317.236 182.744 316.886 183.106 316.481C183.469 316.076 183.744 315.631 183.932 315.146C184.12 314.662 184.215 314.155 184.215 313.627L183.096 314.273C183.096 314.717 182.983 315.128 182.757 315.504C182.53 315.881 182.208 316.191 181.789 316.432C181.315 316.705 180.949 316.763 180.691 316.603C180.433 316.444 180.304 316.084 180.304 315.524C180.304 314.372 180.823 313.496 181.862 312.896C182.333 312.624 182.771 312.503 183.18 312.532L183.765 312.194L183.661 307.813L179.655 310.126V311.242L182.614 309.534L182.719 311.568C182.37 311.605 181.963 311.758 181.496 312.028C180.726 312.473 180.149 313.043 179.763 313.74Z" fill="white"/>
<path d="M173.491 317.496C173.138 318.16 172.962 318.911 172.962 319.751C172.962 320.355 173.058 320.818 173.248 321.14C173.438 321.463 173.715 321.632 174.079 321.647C174.443 321.663 174.884 321.522 175.4 321.224C175.954 320.904 176.427 320.503 176.817 320.022C177.208 319.54 177.504 318.996 177.709 318.388C177.912 317.781 178.014 317.131 178.014 316.438V316.15C178.014 314.522 177.654 313.492 176.932 313.061C176.211 312.629 175.114 312.796 173.643 313.562L173.539 314.762C174.651 314.172 175.481 314.002 176.027 314.252C176.575 314.502 176.851 315.17 176.853 316.256L176.759 316.31C176.654 315.931 176.447 315.708 176.137 315.644C175.826 315.579 175.445 315.677 174.991 315.939C174.343 316.314 173.842 316.833 173.491 317.496ZM174.421 320.22C174.195 320.041 174.082 319.669 174.082 319.105C174.082 318.613 174.201 318.166 174.44 317.761C174.678 317.358 175.02 317.027 175.462 316.772C175.905 316.517 176.248 316.463 176.49 316.611C176.732 316.759 176.853 317.097 176.853 317.626C176.853 318.73 176.365 319.564 175.389 320.127C174.97 320.368 174.648 320.399 174.421 320.22Z" fill="white"/>
<path d="M166.321 317.825L168.872 324.873L170.097 324.166L167.895 318.093L170.672 316.49V318.302L171.77 317.667V314.679L166.321 317.825Z" fill="white"/>
<path d="M160.838 325.765C160.554 326.295 160.412 326.846 160.412 327.418C160.412 327.934 160.511 328.319 160.71 328.572C160.909 328.825 161.198 328.94 161.576 328.916C161.954 328.891 162.41 328.725 162.943 328.417C163.476 328.109 163.933 327.748 164.311 327.336C164.689 326.923 164.978 326.476 165.176 325.993C165.374 325.511 165.474 325.011 165.474 324.495C165.474 323.923 165.33 323.536 165.043 323.334C164.756 323.132 164.345 323.123 163.811 323.307V323.217C164.282 322.825 164.642 322.394 164.892 321.924C165.141 321.455 165.265 320.971 165.265 320.475C165.265 320.023 165.174 319.687 164.994 319.467C164.812 319.248 164.548 319.154 164.199 319.185C163.85 319.217 163.432 319.373 162.944 319.655C162.456 319.937 162.038 320.263 161.689 320.634C161.34 321.006 161.075 321.405 160.894 321.834C160.713 322.263 160.622 322.703 160.622 323.156C160.622 323.648 160.747 323.985 160.996 324.167C161.246 324.349 161.602 324.368 162.065 324.224V324.314C161.531 324.751 161.123 325.234 160.838 325.765ZM161.9 327.545C161.654 327.441 161.531 327.163 161.531 326.711C161.531 326.231 161.654 325.786 161.9 325.376C162.146 324.966 162.494 324.631 162.943 324.372C163.393 324.112 163.741 324.045 163.987 324.171C164.233 324.297 164.356 324.6 164.356 325.08C164.356 325.532 164.233 325.952 163.987 326.34C163.741 326.728 163.393 327.052 162.943 327.312C162.493 327.572 162.146 327.65 161.9 327.545ZM163.829 322.402C163.618 322.728 163.322 323.001 162.942 323.22C162.562 323.439 162.267 323.508 162.056 323.425C161.845 323.343 161.739 323.118 161.739 322.75C161.739 322.338 161.844 321.958 162.053 321.612C162.262 321.265 162.559 320.981 162.942 320.76C163.326 320.538 163.622 320.48 163.832 320.585C164.041 320.69 164.145 320.95 164.145 321.361C164.145 321.73 164.04 322.076 163.829 322.402Z" fill="white"/>
<path d="M35.9189 323.289H35.9449C36.1389 327.736 39.1389 332.916 44.9629 336.349C57.1399 343.514 77.0038 343.629 89.3398 336.596C95.2438 333.234 98.3409 328.848 98.6409 324.392H98.6589V324.057C98.6679 323.863 98.6679 323.66 98.6589 323.466L98.6938 316.574C98.4468 321.066 95.3319 325.513 89.3759 328.902C77.0399 335.935 57.1758 335.82 45.0068 328.655C39.1118 325.187 36.1029 320.704 35.9709 316.195H35.9529L35.9189 323.289Z" fill="#D37C00"/>
<path d="M35.9719 316.194C36.1039 320.703 39.1129 325.186 45.0079 328.654C57.1769 335.819 77.0399 335.934 89.3769 328.901C95.3329 325.512 98.4479 321.065 98.6949 316.573V316.547C98.9509 311.755 95.9419 306.902 89.6679 303.205C77.4899 296.04 57.6269 295.925 45.2899 302.949C38.9279 306.576 35.8129 311.394 35.9719 316.194Z" fill="#FFFF00"/>
<path d="M43.0089 316.599C43.3019 319.938 45.6279 323.233 49.9989 325.806C59.4469 331.37 74.8728 331.458 84.4468 326.002C88.9148 323.458 91.3189 320.159 91.6539 316.795C92.0359 312.948 89.7129 309.021 84.6719 306.051C75.2199 300.487 59.7979 300.399 50.2239 305.855C45.0779 308.788 42.6669 312.724 43.0089 316.599Z" fill="#D37C00"/>
<path d="M43.0088 317.166C43.3018 320.505 45.6278 323.8 49.9988 326.373C59.4468 331.937 74.8728 332.025 84.4468 326.569C88.9148 324.025 91.3188 320.726 91.6538 317.362C91.3648 314.019 89.0388 310.729 84.6638 308.151C75.2118 302.587 59.7898 302.5 50.2158 307.955C45.7478 310.499 43.3438 313.802 43.0088 317.166Z" fill="#FFDB00"/>
<path d="M56.989 311.679L56.997 310.278L56.108 309.753L56.847 309.333L59.001 310.602L59.009 309.201C61.127 308.213 63.163 307.668 65.117 307.571C67.074 307.474 68.733 307.824 70.089 308.624C71.357 309.371 72.029 310.22 72.103 311.173C72.125 311.457 72.092 311.765 72.006 312.101C71.801 312.884 71.292 313.802 70.486 314.857L69.897 315.614L69.889 317.01L74.256 319.58C75.108 319.025 75.964 318.329 76.821 317.482C77.67 316.635 78.311 315.858 78.735 315.152L78.743 313.756L82.46 315.942C82.238 316.265 81.984 316.584 81.702 316.898C80.707 318.005 79.333 319.081 77.57 320.132L77.562 321.528L79.185 322.486L78.442 322.906L75.558 321.209C73.411 322.225 71.335 322.782 69.342 322.866C67.345 322.959 65.598 322.565 64.103 321.684C63.277 321.199 62.744 320.672 62.487 320.098C62.451 320.022 62.424 319.942 62.4 319.857C62.429 319.745 62.465 319.629 62.506 319.509C62.774 318.758 63.481 317.65 64.63 316.176L64.638 314.78L60.49 312.335C59.06 313.303 57.905 314.385 57.022 315.585L53.306 314.644C54.241 313.612 55.471 312.623 56.989 311.679ZM68.082 320.033C68.088 320.321 68.259 320.562 68.602 320.764C69.491 321.285 70.688 321.244 72.204 320.632L72.212 319.235L68.706 317.17C68.347 317.712 68.144 318.155 68.098 318.499C68.09 318.551 68.085 318.603 68.089 318.651L68.082 320.033ZM62.49 312.655L65.796 314.603C66.163 314.069 66.354 313.638 66.376 313.318L66.384 311.922C66.406 311.598 66.215 311.317 65.801 311.07C65.007 310.601 63.899 310.663 62.499 311.259L62.49 312.655Z" fill="#D37C00"/>
<path d="M54.9028 309.046L56.1078 309.753L56.8468 309.333L58.9998 310.602L59.0078 309.202L56.8548 307.933L54.9028 309.046Z" fill="#D37C00"/>
<path d="M52.392 314.41L53.3071 314.643C54.2411 313.612 55.4711 312.622 56.9891 311.679L56.9971 310.278C56.6041 310.524 56.23 310.77 55.876 311.02C54.354 312.1 53.195 313.226 52.392 314.41Z" fill="#D37C00"/>
<path d="M62.4007 319.857C62.4297 319.745 62.4657 319.629 62.5067 319.509C62.7747 318.758 63.4817 317.65 64.6307 316.176L64.6387 314.78C64.3727 315.123 64.1267 315.445 63.9087 315.752C63.1827 316.752 62.7217 317.538 62.5147 318.113C62.2827 318.76 62.2437 319.344 62.4007 319.857Z" fill="#D37C00"/>
<path d="M69.8957 315.614L69.8877 317.01L74.2547 319.58L74.2627 318.184L70.6337 316.046L69.8957 315.614Z" fill="#D37C00"/>
<path d="M74.2627 318.184L74.2547 319.581C75.1067 319.026 75.9627 318.33 76.8197 317.483C77.6687 316.636 78.3097 315.859 78.7337 315.153L78.7417 313.757C78.3177 314.463 77.6767 315.239 76.8277 316.087C75.9707 316.929 75.1147 317.628 74.2627 318.184Z" fill="#D37C00"/>
<path d="M77.569 320.131L77.561 321.528L79.1851 322.485L80.3931 321.796L78.71 320.806L77.569 320.131Z" fill="#D37C00"/>
<path d="M56.9887 311.679L56.9967 310.278L56.1077 309.753L56.8467 309.333L59.0007 310.602C61.1187 309.614 63.1547 309.065 65.1087 308.968C67.0657 308.871 68.7247 309.225 70.0807 310.025C71.1377 310.643 71.7777 311.335 72.0057 312.101C71.8007 312.884 71.2917 313.802 70.4857 314.857L69.8967 315.614L69.8887 317.01L74.2557 319.58C75.1077 319.025 75.9637 318.329 76.8207 317.482C77.6697 316.635 78.3107 315.858 78.7347 315.152L81.7017 316.898C80.7067 318.005 79.3327 319.081 77.5697 320.132L77.5617 321.528L79.1847 322.486L78.4417 322.906L75.5577 321.209C73.4107 322.225 71.3347 322.782 69.3417 322.866C67.3447 322.959 65.5977 322.565 64.1027 321.684C63.2767 321.199 62.7437 320.672 62.4867 320.098C62.4507 320.022 62.4237 319.942 62.3997 319.857C62.4287 319.745 62.4647 319.629 62.5057 319.509C62.7737 318.758 63.4807 317.65 64.6297 316.176L64.6377 314.78L60.4897 312.335C59.0597 313.303 57.9047 314.385 57.0217 315.585L53.3057 314.644C54.2407 313.612 55.4707 312.623 56.9887 311.679ZM68.0817 320.033C68.0877 320.321 68.2587 320.562 68.6017 320.764C69.4907 321.285 70.6877 321.244 72.2037 320.632L72.2117 319.235L68.7057 317.17C68.3467 317.712 68.1437 318.155 68.0977 318.499C68.0897 318.551 68.0847 318.603 68.0887 318.651L68.0817 320.033ZM62.4897 312.655L65.7957 314.603C66.1627 314.069 66.3537 313.638 66.3757 313.318L66.3837 311.922C66.4057 311.598 66.2147 311.317 65.8007 311.07C65.0067 310.601 63.8987 310.663 62.4987 311.259L62.4897 312.655Z" fill="#FFC700"/>
<path d="M62.4977 311.258L62.4897 312.655L65.7957 314.602L65.8037 313.202L64.0847 312.192L62.4977 311.258Z" fill="#D37C00"/>
<path d="M65.8038 313.202L65.7958 314.602C66.1628 314.068 66.3538 313.637 66.3758 313.317L66.3838 311.921C66.3708 312.133 66.2808 312.397 66.1108 312.704C66.0298 312.859 65.9248 313.022 65.8038 313.202Z" fill="#D37C00"/>
<path d="M68.0899 318.653L68.0819 320.033C68.0879 320.321 68.2589 320.562 68.6019 320.764C69.4909 321.285 70.6879 321.244 72.2039 320.632L72.2119 319.235C71.6259 319.472 71.0889 319.621 70.5969 319.686C69.8159 319.794 69.1569 319.686 68.6099 319.362C68.5019 319.301 68.4149 319.237 68.3429 319.169C68.1799 319.018 68.0969 318.845 68.0899 318.653Z" fill="#D37C00"/>
<path d="M78.7417 313.756L78.7337 315.152C78.7627 315.008 78.7417 313.756 78.7417 313.756Z" fill="url(#paint4_linear_465_2306)"/>
<path d="M30.9111 312.78H30.9371C31.1311 317.227 34.131 322.407 39.955 325.84C52.132 333.005 71.996 333.12 84.332 326.087C90.235 322.725 93.3331 318.339 93.6331 313.883H93.6511V313.548C93.6601 313.354 93.6601 313.151 93.6511 312.957L93.686 306.065C93.439 310.557 90.324 315.004 84.368 318.393C72.032 325.426 52.168 325.311 39.999 318.146C34.104 314.678 31.0951 310.195 30.9631 305.686H30.9451L30.9111 312.78Z" fill="#E98A00"/>
<path d="M30.9641 305.685C31.0961 310.194 34.1051 314.677 40.0001 318.145C52.1691 325.31 72.032 325.425 84.369 318.392C90.325 315.004 93.4401 310.556 93.6871 306.064V306.038C93.9431 301.246 90.9341 296.393 84.6601 292.696C72.4821 285.531 52.6191 285.416 40.2821 292.44C33.9201 296.067 30.8051 300.885 30.9641 305.685Z" fill="#FFFF00"/>
<path d="M38.001 306.09C38.294 309.429 40.62 312.724 44.991 315.297C54.439 320.861 69.865 320.949 79.439 315.493C83.907 312.949 86.3111 309.65 86.6461 306.286C87.0281 302.439 84.7061 298.512 79.6641 295.542C70.2121 289.978 54.7901 289.89 45.2161 295.346C40.0701 298.279 37.658 302.215 38.001 306.09Z" fill="#D37C00"/>
<path d="M38.001 306.657C38.294 309.996 40.62 313.291 44.991 315.864C54.439 321.428 69.865 321.516 79.439 316.06C83.907 313.516 86.311 310.217 86.646 306.853C86.357 303.51 84.031 300.22 79.656 297.642C70.204 292.078 54.782 291.991 45.208 297.446C40.739 299.99 38.336 303.293 38.001 306.657Z" fill="#FFDB00"/>
<path d="M51.9811 301.17L51.9892 299.77L51.1002 299.245L51.8392 298.825L53.9932 300.094L54.0012 298.693C56.1192 297.705 58.1552 297.16 60.1092 297.063C62.0662 296.966 63.7252 297.316 65.0812 298.116C66.3492 298.864 67.0212 299.712 67.0952 300.665C67.1172 300.949 67.0842 301.257 66.9982 301.593C66.7942 302.376 66.2841 303.294 65.4781 304.349L64.8892 305.106L64.8812 306.502L69.2482 309.072C70.1002 308.517 70.9562 307.821 71.8132 306.974C72.6622 306.126 73.3032 305.35 73.7272 304.644L73.7352 303.248L77.4521 305.434C77.2301 305.757 76.9762 306.076 76.6942 306.39C75.6992 307.497 74.3252 308.573 72.5622 309.624L72.5541 311.021L74.1772 311.978L73.4341 312.398L70.5502 310.701C68.4032 311.717 66.3272 312.274 64.3342 312.358C62.3372 312.451 60.5902 312.057 59.0952 311.176C58.2692 310.691 57.7362 310.164 57.4792 309.59C57.4432 309.514 57.4162 309.434 57.3922 309.349C57.4212 309.237 57.4572 309.121 57.4982 309.001C57.7662 308.25 58.4732 307.142 59.6222 305.668L59.6302 304.272L55.4822 301.827C54.0522 302.795 52.8972 303.877 52.0142 305.077L48.2982 304.136C49.2332 303.103 50.4631 302.114 51.9811 301.17ZM63.0742 309.524C63.0802 309.812 63.2512 310.053 63.5942 310.255C64.4832 310.776 65.6802 310.735 67.1962 310.123L67.2042 308.726L63.6982 306.661C63.3392 307.203 63.1361 307.646 63.0901 307.99C63.0821 308.042 63.0772 308.094 63.0812 308.142L63.0742 309.524ZM57.4822 302.146L60.7881 304.094C61.1551 303.56 61.3462 303.129 61.3682 302.809L61.3762 301.413C61.3982 301.089 61.2072 300.808 60.7932 300.561C59.9992 300.092 58.8911 300.154 57.4911 300.75L57.4822 302.146Z" fill="#D37C00"/>
<path d="M49.895 298.537L51.1 299.244L51.838 298.824L53.992 300.093L54 298.693L51.846 297.424L49.895 298.537Z" fill="#D37C00"/>
<path d="M47.3842 303.901L48.2993 304.134C49.2333 303.103 50.4632 302.114 51.9812 301.17L51.9893 299.77C51.5963 300.016 51.2222 300.262 50.8682 300.512C49.3462 301.591 48.1872 302.717 47.3842 303.901Z" fill="#D37C00"/>
<path d="M57.3929 309.348C57.4219 309.236 57.4578 309.12 57.4988 309C57.7668 308.249 58.4739 307.141 59.6229 305.667L59.6309 304.271C59.3649 304.614 59.1189 304.936 58.9009 305.243C58.1749 306.243 57.7138 307.029 57.5068 307.604C57.2748 308.251 57.2359 308.835 57.3929 309.348Z" fill="#D37C00"/>
<path d="M64.8879 305.105L64.8799 306.501L69.2469 309.071L69.2549 307.675L65.6259 305.537L64.8879 305.105Z" fill="#D37C00"/>
<path d="M69.2549 307.675L69.2469 309.072C70.0989 308.517 70.9549 307.821 71.8119 306.974C72.6609 306.126 73.3019 305.35 73.7259 304.644L73.7339 303.248C73.3099 303.954 72.6689 304.73 71.8199 305.578C70.9629 306.42 70.1069 307.119 69.2549 307.675Z" fill="#D37C00"/>
<path d="M72.5612 309.622L72.5532 311.019L74.1772 311.976L75.3853 311.287L73.7022 310.297L72.5612 309.622Z" fill="#D37C00"/>
<path d="M51.9808 301.17L51.9889 299.77L51.0999 299.245L51.8389 298.825L53.9929 300.094C56.1109 299.106 58.1469 298.557 60.1009 298.46C62.0579 298.363 63.7169 298.717 65.0729 299.517C66.1299 300.135 66.7699 300.827 66.9979 301.593C66.7939 302.376 66.2838 303.294 65.4778 304.349L64.8889 305.106L64.8809 306.502L69.2479 309.072C70.0999 308.517 70.9559 307.821 71.8129 306.974C72.6619 306.126 73.3029 305.35 73.7269 304.644L76.6938 306.39C75.6988 307.497 74.3249 308.573 72.5619 309.624L72.5538 311.021L74.1769 311.978L73.4338 312.398L70.5499 310.701C68.4029 311.717 66.3269 312.274 64.3339 312.358C62.3369 312.451 60.5898 312.057 59.0948 311.176C58.2688 310.691 57.7359 310.164 57.4789 309.59C57.4429 309.514 57.4158 309.434 57.3918 309.349C57.4208 309.237 57.4569 309.121 57.4979 309.001C57.7659 308.25 58.4729 307.142 59.6219 305.668L59.6299 304.272L55.4819 301.827C54.0519 302.795 52.8969 303.877 52.0139 305.077L48.2979 304.136C49.2329 303.103 50.4628 302.114 51.9808 301.17ZM63.0739 309.524C63.0799 309.812 63.2509 310.053 63.5939 310.255C64.4829 310.776 65.6799 310.735 67.1959 310.123L67.2039 308.726L63.6979 306.661C63.3389 307.203 63.1358 307.646 63.0898 307.99C63.0818 308.042 63.0769 308.094 63.0809 308.142L63.0739 309.524ZM57.4819 302.146L60.7878 304.094C61.1548 303.56 61.3459 303.129 61.3679 302.809L61.3759 301.413C61.3979 301.089 61.2068 300.808 60.7928 300.561C59.9988 300.092 58.8908 300.154 57.4908 300.75L57.4819 302.146Z" fill="#FFC700"/>
<path d="M57.4899 300.749L57.4819 302.146L60.7879 304.093L60.7959 302.693L59.0769 301.683L57.4899 300.749Z" fill="#D37C00"/>
<path d="M60.796 302.693L60.788 304.094C61.155 303.56 61.346 303.129 61.368 302.809L61.376 301.413C61.363 301.625 61.273 301.889 61.103 302.196C61.022 302.35 60.917 302.513 60.796 302.693Z" fill="#D37C00"/>
<path d="M63.0821 308.144L63.0741 309.524C63.0801 309.812 63.2511 310.053 63.5941 310.255C64.4831 310.776 65.6801 310.735 67.1961 310.123L67.2041 308.726C66.6181 308.963 66.0811 309.112 65.5891 309.177C64.8081 309.285 64.1491 309.177 63.6021 308.853C63.4941 308.792 63.4071 308.728 63.3351 308.66C63.1721 308.509 63.0891 308.336 63.0821 308.144Z" fill="#D37C00"/>
<path d="M73.7339 303.247L73.7259 304.643C73.7549 304.499 73.7339 303.247 73.7339 303.247Z" fill="url(#paint5_linear_465_2306)"/>
<path d="M35.3041 302.018H35.3301C35.5241 306.466 38.5241 311.645 44.3481 315.078C56.5261 322.243 76.3891 322.358 88.7251 315.325C94.6291 311.963 97.7261 307.577 98.0261 303.121H98.0441V302.786C98.0531 302.592 98.0531 302.389 98.0441 302.195L98.0791 295.303C97.8321 299.795 94.7171 304.242 88.7611 307.631C76.4251 314.664 56.5611 314.549 44.3921 307.384C38.4971 303.916 35.4881 299.433 35.3561 294.924H35.3381L35.3041 302.018Z" fill="#D37C00"/>
<path d="M35.3572 294.923C35.4892 299.432 38.4982 303.915 44.3932 307.383C56.5622 314.548 76.4252 314.663 88.7622 307.63C94.7182 304.241 97.8332 299.794 98.0802 295.302V295.276C98.3362 290.484 95.3272 285.631 89.0532 281.934C76.8752 274.769 57.0122 274.654 44.6752 281.678C38.3132 285.304 35.1982 290.122 35.3572 294.923Z" fill="#FFFF00"/>
<path d="M42.3941 295.328C42.6871 298.667 45.0131 301.961 49.3841 304.535C58.8321 310.099 74.2581 310.186 83.8321 304.731C88.3001 302.187 90.7041 298.888 91.0391 295.524C91.4211 291.677 89.0991 287.75 84.0571 284.78C74.6051 279.216 59.1831 279.129 49.6091 284.584C44.4631 287.516 42.0521 291.452 42.3941 295.328Z" fill="#D37C00"/>
<path d="M42.394 295.894C42.687 299.233 45.013 302.527 49.384 305.101C58.832 310.665 74.258 310.752 83.832 305.297C88.3 302.753 90.7041 299.454 91.0391 296.09C90.7501 292.747 88.4241 289.456 84.0491 286.879C74.5971 281.315 59.1751 281.228 49.6011 286.683C45.1331 289.227 42.729 292.531 42.394 295.894Z" fill="#FFDB00"/>
<path d="M56.3742 290.408L56.3822 289.007L55.4932 288.482L56.2322 288.062L58.3862 289.331L58.3942 287.931C60.5122 286.943 62.5483 286.398 64.5023 286.301C66.4593 286.204 68.1182 286.554 69.4742 287.354C70.7422 288.101 71.4142 288.95 71.4882 289.902C71.5102 290.186 71.4772 290.494 71.3912 290.83C71.1872 291.613 70.6772 292.531 69.8712 293.586L69.2822 294.343L69.2742 295.74L73.6412 298.31C74.4932 297.755 75.3492 297.059 76.2062 296.212C77.0552 295.364 77.6962 294.588 78.1202 293.882L78.1282 292.485L81.8452 294.671C81.6232 294.994 81.3692 295.313 81.0872 295.627C80.0922 296.734 78.7182 297.81 76.9552 298.861L76.9472 300.258L78.5703 301.216L77.8272 301.636L74.9432 299.939C72.7962 300.955 70.7202 301.512 68.7272 301.596C66.7302 301.689 64.9832 301.295 63.4882 300.414C62.6622 299.929 62.1293 299.402 61.8723 298.828C61.8373 298.752 61.8092 298.672 61.7852 298.587C61.8142 298.475 61.8502 298.359 61.8912 298.239C62.1592 297.488 62.8663 296.38 64.0153 294.906L64.0233 293.509L59.8752 291.065C58.4452 292.033 57.2902 293.115 56.4072 294.314L52.6912 293.373C53.6262 292.341 54.8562 291.351 56.3742 290.408ZM67.4672 298.762C67.4732 299.05 67.6442 299.291 67.9872 299.493C68.8762 300.014 70.0732 299.973 71.5892 299.361L71.5972 297.964L68.0912 295.899C67.7322 296.441 67.5292 296.884 67.4832 297.228C67.4752 297.28 67.4702 297.332 67.4742 297.38L67.4672 298.762ZM61.8752 291.383L65.1812 293.331C65.5482 292.797 65.7392 292.366 65.7612 292.046L65.7692 290.649C65.7912 290.325 65.6002 290.044 65.1862 289.797C64.3932 289.328 63.2842 289.39 61.8842 289.986L61.8752 291.383Z" fill="#D37C00"/>
<path d="M54.2891 287.775L55.493 288.482L56.2321 288.062L58.3851 289.331L58.3931 287.93L56.2401 286.661L54.2891 287.775Z" fill="#D37C00"/>
<path d="M51.7773 293.139L52.6923 293.372C53.6263 292.341 54.8563 291.351 56.3743 290.408L56.3823 289.007C55.9883 289.253 55.6154 289.499 55.2614 289.749C53.7394 290.829 52.5803 291.955 51.7773 293.139Z" fill="#D37C00"/>
<path d="M61.7864 298.586C61.8154 298.474 61.8514 298.358 61.8924 298.238C62.1604 297.487 62.8674 296.379 64.0164 294.905L64.0244 293.508C63.7584 293.851 63.5124 294.173 63.2944 294.48C62.5684 295.48 62.1074 296.266 61.9004 296.841C61.6684 297.488 61.6294 298.073 61.7864 298.586Z" fill="#D37C00"/>
<path d="M69.2814 294.342L69.2734 295.739L73.6404 298.309L73.6484 296.912L70.0194 294.775L69.2814 294.342Z" fill="#D37C00"/>
<path d="M73.6479 296.912L73.64 298.308C74.492 297.753 75.3479 297.057 76.2049 296.21C77.0539 295.362 77.6949 294.586 78.1189 293.88L78.127 292.483C77.703 293.189 77.062 293.966 76.213 294.813C75.356 295.657 74.4999 296.357 73.6479 296.912Z" fill="#D37C00"/>
<path d="M76.9543 298.86L76.9463 300.256L78.5703 301.214L79.7783 300.524L78.0953 299.535L76.9543 298.86Z" fill="#D37C00"/>
<path d="M56.3739 290.408L56.3819 289.007L55.4929 288.482L56.2319 288.062L58.3859 289.331C60.5049 288.343 62.5399 287.794 64.4939 287.697C66.4509 287.6 68.1099 287.954 69.4659 288.754C70.5229 289.372 71.1629 290.064 71.3909 290.83C71.1869 291.613 70.6769 292.531 69.8709 293.586L69.2819 294.343L69.2739 295.74L73.6409 298.31C74.4929 297.755 75.3489 297.059 76.2059 296.212C77.0549 295.364 77.6959 294.588 78.1199 293.882L81.0869 295.627C80.0919 296.734 78.7179 297.81 76.9549 298.861L76.9469 300.258L78.5699 301.216L77.8269 301.636L74.9429 299.939C72.7959 300.955 70.7199 301.512 68.7269 301.596C66.7299 301.689 64.9829 301.295 63.4879 300.414C62.6619 299.929 62.1289 299.402 61.8719 298.828C61.8369 298.752 61.8089 298.672 61.7849 298.587C61.8139 298.475 61.8499 298.359 61.8909 298.239C62.1589 297.488 62.866 296.38 64.015 294.906L64.0229 293.509L59.8749 291.065C58.4449 292.033 57.2899 293.115 56.4069 294.314L52.6909 293.373C53.6259 292.341 54.8559 291.351 56.3739 290.408ZM67.4669 298.762C67.4729 299.05 67.6439 299.291 67.9869 299.493C68.8759 300.014 70.0729 299.973 71.5889 299.361L71.5969 297.964L68.0909 295.899C67.7319 296.441 67.5289 296.884 67.4829 297.228C67.4749 297.28 67.4699 297.332 67.4739 297.38L67.4669 298.762ZM61.8749 291.383L65.1809 293.331C65.5479 292.797 65.7389 292.366 65.7609 292.046L65.7689 290.649C65.7909 290.325 65.5999 290.044 65.1859 289.797C64.3929 289.328 63.2839 289.39 61.8839 289.986L61.8749 291.383Z" fill="#FFC700"/>
<path d="M61.883 289.987L61.875 291.383L65.181 293.331L65.189 291.93L63.47 290.92L61.883 289.987Z" fill="#D37C00"/>
<path d="M65.189 291.93L65.181 293.331C65.548 292.797 65.739 292.366 65.761 292.046L65.769 290.649C65.756 290.861 65.666 291.125 65.496 291.432C65.415 291.587 65.31 291.751 65.189 291.93Z" fill="#D37C00"/>
<path d="M67.4752 297.381L67.4672 298.761C67.4732 299.049 67.6442 299.29 67.9872 299.492C68.8762 300.013 70.0732 299.972 71.5892 299.36L71.5972 297.963C71.0112 298.2 70.4742 298.349 69.9822 298.414C69.2012 298.522 68.5422 298.414 67.9952 298.091C67.8872 298.03 67.8001 297.966 67.7281 297.897C67.5651 297.746 67.4822 297.574 67.4752 297.381Z" fill="#D37C00"/>
<path d="M78.1275 292.484L78.1194 293.881C78.1484 293.737 78.1275 292.484 78.1275 292.484Z" fill="url(#paint6_linear_465_2306)"/>
<path d="M33.954 294.251H33.98C34.174 298.699 37.174 303.878 42.998 307.311C55.176 314.476 75.039 314.591 87.375 307.558C93.279 304.196 96.376 299.81 96.676 295.354H96.694V295.019C96.703 294.825 96.703 294.622 96.694 294.428L96.729 287.536C96.482 292.028 93.367 296.475 87.411 299.864C75.075 306.897 55.211 306.782 43.042 299.617C37.147 296.149 34.138 291.666 34.006 287.157H33.988L33.954 294.251Z" fill="#E98A00"/>
<path d="M34.007 287.156C34.139 291.665 37.1491 296.148 43.0431 299.616C55.2121 306.781 75.0751 306.896 87.4121 299.863C93.3681 296.474 96.4831 292.027 96.7301 287.535V287.509C96.9861 282.717 93.9771 277.864 87.7031 274.167C75.5251 267.002 55.6621 266.887 43.3251 273.911C36.9631 277.537 33.848 282.355 34.007 287.156Z" fill="#FFFF00"/>
<path d="M41.0441 287.561C41.3371 290.9 43.6631 294.194 48.0341 296.768C57.4821 302.332 72.9081 302.42 82.4821 296.964C86.9501 294.42 89.354 291.121 89.689 287.757C90.071 283.91 87.748 279.983 82.707 277.013C73.255 271.449 57.833 271.362 48.259 276.817C43.113 279.749 40.7011 283.685 41.0441 287.561Z" fill="#D37C00"/>
<path d="M41.044 288.127C41.337 291.466 43.663 294.76 48.034 297.334C57.482 302.898 72.908 302.985 82.482 297.53C86.95 294.986 89.354 291.687 89.689 288.323C89.4 284.98 87.074 281.69 82.699 279.112C73.247 273.548 57.825 273.461 48.251 278.916C43.782 281.46 41.379 284.764 41.044 288.127Z" fill="#FFDB00"/>
<path d="M55.0241 282.641L55.0321 281.241L54.1431 280.716L54.8821 280.296L57.0361 281.565L57.0441 280.165C59.1621 279.177 61.1981 278.632 63.1521 278.535C65.1091 278.438 66.7681 278.788 68.1241 279.588C69.3921 280.335 70.0641 281.184 70.1381 282.136C70.1611 282.42 70.1271 282.728 70.0411 283.064C69.8371 283.847 69.3271 284.765 68.5211 285.82L67.9321 286.577L67.9241 287.974L72.2911 290.544C73.1431 289.989 73.9991 289.293 74.8561 288.446C75.7051 287.598 76.3461 286.822 76.7701 286.116L76.7781 284.72L80.4951 286.906C80.2731 287.229 80.0191 287.548 79.7371 287.862C78.7421 288.969 77.3681 290.045 75.6051 291.096L75.5971 292.493L77.2201 293.451L76.4771 293.871L73.5931 292.174C71.4461 293.19 69.3701 293.747 67.3771 293.831C65.3801 293.924 63.6331 293.53 62.1381 292.649C61.3121 292.164 60.7791 291.637 60.5221 291.063C60.4871 290.987 60.4591 290.907 60.4351 290.822C60.4641 290.71 60.5001 290.594 60.5411 290.474C60.8091 289.723 61.5161 288.615 62.6651 287.141L62.6731 285.744L58.5251 283.299C57.0951 284.267 55.9401 285.349 55.0571 286.549L51.3411 285.608C52.2761 284.574 53.5061 283.584 55.0241 282.641ZM66.1171 290.995C66.1231 291.283 66.2941 291.524 66.6371 291.726C67.5261 292.247 68.7231 292.206 70.2391 291.594L70.2471 290.197L66.7411 288.132C66.3821 288.674 66.1791 289.117 66.1331 289.461C66.1251 289.513 66.1201 289.565 66.1241 289.613L66.1171 290.995ZM60.5251 283.616L63.8311 285.564C64.1981 285.03 64.3891 284.599 64.4111 284.279L64.4191 282.882C64.4411 282.558 64.2501 282.277 63.8361 282.03C63.0431 281.561 61.9341 281.623 60.5341 282.219L60.5251 283.616Z" fill="#D37C00"/>
<path d="M52.938 280.008L54.143 280.715L54.882 280.295L57.035 281.564L57.043 280.163L54.89 278.894L52.938 280.008Z" fill="#D37C00"/>
<path d="M50.4272 285.372L51.3422 285.605C52.2762 284.574 53.5062 283.585 55.0242 282.641L55.0322 281.241C54.6382 281.487 54.2653 281.733 53.9113 281.983C52.3893 283.062 51.2302 284.188 50.4272 285.372Z" fill="#D37C00"/>
<path d="M60.4358 290.819C60.4648 290.707 60.5008 290.591 60.5418 290.471C60.8098 289.72 61.5168 288.612 62.6658 287.138L62.6738 285.741C62.4078 286.084 62.1618 286.406 61.9438 286.713C61.2178 287.713 60.7568 288.499 60.5498 289.074C60.3178 289.721 60.2788 290.306 60.4358 290.819Z" fill="#D37C00"/>
<path d="M67.9308 286.575L67.9229 287.972L72.2899 290.542L72.2979 289.145L68.6689 287.008L67.9308 286.575Z" fill="#D37C00"/>
<path d="M72.2979 289.145L72.2899 290.542C73.1419 289.987 73.9979 289.291 74.8549 288.444C75.7039 287.596 76.3449 286.82 76.7689 286.114L76.7769 284.718C76.3529 285.424 75.7119 286.2 74.8629 287.048C74.0059 287.89 73.1499 288.59 72.2979 289.145Z" fill="#D37C00"/>
<path d="M75.6042 291.093L75.5963 292.489L77.2202 293.447L78.4282 292.757L76.7452 291.768L75.6042 291.093Z" fill="#D37C00"/>
<path d="M55.0243 282.641L55.0323 281.241L54.1433 280.716L54.8823 280.296L57.0363 281.565C59.1553 280.577 61.1903 280.028 63.1443 279.931C65.1013 279.834 66.7603 280.188 68.1163 280.988C69.1733 281.606 69.8133 282.298 70.0413 283.064C69.8373 283.847 69.3273 284.765 68.5213 285.82L67.9323 286.577L67.9243 287.974L72.2913 290.544C73.1433 289.989 73.9993 289.293 74.8563 288.446C75.7053 287.598 76.3463 286.822 76.7703 286.116L79.7373 287.862C78.7423 288.969 77.3683 290.045 75.6053 291.096L75.5973 292.493L77.2203 293.451L76.4773 293.871L73.5933 292.174C71.4463 293.19 69.3703 293.747 67.3773 293.831C65.3803 293.924 63.6333 293.53 62.1383 292.649C61.3123 292.164 60.7793 291.637 60.5223 291.063C60.4873 290.987 60.4593 290.907 60.4353 290.822C60.4643 290.71 60.5003 290.594 60.5413 290.474C60.8093 289.723 61.5163 288.615 62.6653 287.141L62.6733 285.744L58.5253 283.299C57.0953 284.267 55.9403 285.349 55.0573 286.549L51.3413 285.608C52.2763 284.574 53.5063 283.584 55.0243 282.641ZM66.1173 290.995C66.1233 291.283 66.2943 291.524 66.6373 291.726C67.5263 292.247 68.7233 292.206 70.2393 291.594L70.2473 290.197L66.7413 288.132C66.3823 288.674 66.1793 289.117 66.1333 289.461C66.1253 289.513 66.1203 289.565 66.1243 289.613L66.1173 290.995ZM60.5253 283.616L63.8313 285.564C64.1983 285.03 64.3893 284.599 64.4113 284.279L64.4193 282.882C64.4413 282.558 64.2503 282.277 63.8363 282.03C63.0433 281.561 61.9343 281.623 60.5343 282.219L60.5253 283.616Z" fill="#FFC700"/>
<path d="M60.5328 282.22L60.5248 283.616L63.8309 285.564L63.8389 284.163L62.1199 283.153L60.5328 282.22Z" fill="#D37C00"/>
<path d="M63.8389 284.163L63.8309 285.564C64.1979 285.03 64.3889 284.599 64.4109 284.279L64.4189 282.882C64.4059 283.094 64.3159 283.358 64.1459 283.665C64.0649 283.82 63.9599 283.984 63.8389 284.163Z" fill="#D37C00"/>
<path d="M66.1251 289.614L66.1171 290.994C66.1231 291.282 66.294 291.523 66.637 291.725C67.526 292.246 68.7231 292.205 70.2391 291.593L70.2471 290.196C69.6611 290.433 69.124 290.582 68.632 290.647C67.851 290.755 67.192 290.647 66.645 290.324C66.537 290.263 66.4501 290.199 66.3781 290.13C66.2151 289.979 66.1321 289.807 66.1251 289.614Z" fill="#D37C00"/>
<path d="M76.7768 284.717L76.7688 286.113C76.7978 285.97 76.7768 284.717 76.7768 284.717Z" fill="url(#paint7_linear_465_2306)"/>
<path d="M38.4417 284.061H38.4688C38.6628 288.508 41.6628 293.688 47.4868 297.121C59.6648 304.286 79.5277 304.401 91.8647 297.368C97.7687 294.006 100.866 289.62 101.166 285.164H101.184V284.829C101.193 284.635 101.193 284.432 101.184 284.238L101.219 277.346C100.972 281.838 97.8567 286.285 91.8997 289.674C79.5637 296.707 59.6998 296.592 47.5308 289.427C41.6358 285.959 38.6268 281.476 38.4948 276.967H38.4767L38.4417 284.061Z" fill="#E98A00"/>
<path d="M38.4948 276.966C38.6268 281.475 41.6358 285.958 47.5308 289.426C59.6998 296.591 79.5628 296.706 91.8998 289.673C97.8558 286.285 100.971 281.837 101.219 277.345V277.319C101.475 272.527 98.4658 267.674 92.1918 263.977C80.0138 256.812 60.1508 256.697 47.8138 263.721C41.4508 267.347 38.3358 272.165 38.4948 276.966Z" fill="#FFFF00"/>
<path d="M45.5318 277.37C45.8248 280.709 48.1508 284.004 52.5218 286.577C61.9698 292.141 77.3958 292.229 86.9698 286.773C91.4378 284.229 93.8418 280.93 94.1768 277.566C94.5588 273.719 92.2358 269.792 87.1948 266.822C77.7428 261.258 62.3208 261.17 52.7468 266.626C47.6008 269.559 45.1898 273.495 45.5318 277.37Z" fill="#D37C00"/>
<path d="M45.5317 277.937C45.8247 281.276 48.1507 284.571 52.5217 287.144C61.9697 292.708 77.3957 292.796 86.9697 287.34C91.4377 284.796 93.8418 281.497 94.1768 278.133C93.8878 274.79 91.5617 271.5 87.1857 268.922C77.7337 263.358 62.3117 263.271 52.7377 268.726C48.2707 271.27 45.8667 274.574 45.5317 277.937Z" fill="#FFDB00"/>
<path d="M59.5129 272.45L59.5209 271.049L58.6318 270.524L59.3708 270.104L61.5248 271.373L61.5328 269.972C63.6508 268.984 65.6869 268.439 67.6409 268.342C69.5979 268.245 71.2569 268.595 72.6129 269.395C73.8809 270.142 74.5529 270.991 74.6269 271.944C74.6489 272.228 74.6158 272.536 74.5298 272.872C74.3248 273.655 73.8159 274.573 73.0099 275.628L72.4208 276.385L72.4128 277.781L76.7798 280.351C77.6318 279.796 78.4878 279.1 79.3448 278.253C80.1938 277.406 80.8349 276.629 81.2589 275.923L81.2668 274.526L84.9839 276.712C84.7619 277.035 84.5079 277.354 84.2259 277.668C83.2309 278.775 81.8569 279.851 80.0939 280.902L80.0859 282.298L81.7089 283.256L80.9659 283.676L78.0818 281.979C75.9358 282.995 73.8588 283.552 71.8658 283.636C69.8688 283.729 68.1219 283.335 66.6269 282.454C65.8009 281.969 65.2679 281.442 65.0109 280.868C64.9749 280.792 64.9479 280.712 64.9239 280.627C64.9529 280.515 64.9888 280.399 65.0298 280.279C65.2978 279.528 66.0049 278.42 67.1539 276.946L67.1619 275.55L63.0139 273.105C61.5839 274.073 60.4288 275.155 59.5458 276.355L55.8298 275.414C56.7638 274.384 57.9949 273.394 59.5129 272.45ZM70.6049 280.805C70.6109 281.093 70.7819 281.334 71.1249 281.536C72.0139 282.057 73.2109 282.016 74.7269 281.404L74.7349 280.007L71.2289 277.942C70.8699 278.484 70.6668 278.927 70.6208 279.271C70.6128 279.323 70.6079 279.375 70.6119 279.423L70.6049 280.805ZM65.0129 273.426L68.3188 275.374C68.6858 274.84 68.8769 274.409 68.8989 274.089L68.9069 272.692C68.9289 272.368 68.7379 272.087 68.3239 271.84C67.5299 271.371 66.4219 271.433 65.0219 272.029L65.0129 273.426Z" fill="#D37C00"/>
<path d="M57.4268 269.817L58.6307 270.525L59.3698 270.105L61.5228 271.373L61.5308 269.973L59.3777 268.704L57.4268 269.817Z" fill="#D37C00"/>
<path d="M54.9146 275.181L55.8295 275.414C56.7635 274.383 57.9935 273.393 59.5115 272.45L59.5195 271.049C59.1265 271.295 58.7526 271.541 58.3986 271.791C56.8766 272.872 55.7176 273.997 54.9146 275.181Z" fill="#D37C00"/>
<path d="M64.9236 280.628C64.9526 280.516 64.9886 280.4 65.0296 280.28C65.2976 279.529 66.0046 278.421 67.1536 276.947L67.1616 275.551C66.8956 275.894 66.6496 276.216 66.4316 276.523C65.7056 277.523 65.2446 278.309 65.0376 278.884C64.8056 279.531 64.7666 280.115 64.9236 280.628Z" fill="#D37C00"/>
<path d="M72.4186 276.385L72.4106 277.782L76.7776 280.352L76.7856 278.955L73.1566 276.818L72.4186 276.385Z" fill="#D37C00"/>
<path d="M76.7856 278.955L76.7776 280.352C77.6296 279.797 78.4856 279.101 79.3426 278.254C80.1916 277.407 80.8326 276.63 81.2566 275.924L81.2646 274.527C80.8406 275.233 80.1996 276.01 79.3506 276.857C78.4936 277.7 77.6376 278.4 76.7856 278.955Z" fill="#D37C00"/>
<path d="M80.093 280.903L80.085 282.299L81.7081 283.257L82.916 282.567L81.233 281.577L80.093 280.903Z" fill="#D37C00"/>
<path d="M59.5126 272.45L59.5206 271.049L58.6315 270.524L59.3705 270.104L61.5245 271.373C63.6425 270.385 65.6786 269.836 67.6326 269.739C69.5896 269.642 71.2486 269.996 72.6046 270.796C73.6616 271.414 74.3015 272.106 74.5295 272.872C74.3245 273.655 73.8156 274.573 73.0096 275.628L72.4205 276.385L72.4125 277.781L76.7795 280.351C77.6315 279.796 78.4875 279.1 79.3445 278.253C80.1935 277.406 80.8345 276.629 81.2585 275.923L84.2256 277.669C83.2306 278.776 81.8566 279.852 80.0936 280.903L80.0856 282.299L81.7086 283.257L80.9656 283.677L78.0815 281.98C75.9355 282.996 73.8585 283.553 71.8655 283.637C69.8685 283.73 68.1216 283.336 66.6266 282.455C65.8006 281.97 65.2676 281.443 65.0106 280.869C64.9746 280.793 64.9476 280.713 64.9236 280.628C64.9526 280.516 64.9885 280.4 65.0295 280.28C65.2975 279.529 66.0046 278.421 67.1536 276.947L67.1616 275.551L63.0135 273.106C61.5835 274.074 60.4285 275.156 59.5455 276.356L55.8295 275.415C56.7635 274.384 57.9946 273.394 59.5126 272.45ZM70.6046 280.805C70.6106 281.093 70.7816 281.334 71.1246 281.536C72.0136 282.057 73.2106 282.016 74.7266 281.404L74.7346 280.007L71.2286 277.942C70.8696 278.484 70.6665 278.927 70.6205 279.271C70.6125 279.323 70.6076 279.375 70.6116 279.423L70.6046 280.805ZM65.0126 273.426L68.3185 275.374C68.6855 274.84 68.8766 274.409 68.8986 274.089L68.9066 272.692C68.9286 272.368 68.7375 272.087 68.3235 271.84C67.5295 271.371 66.4215 271.433 65.0215 272.029L65.0126 273.426Z" fill="#FFC700"/>
<path d="M65.0207 272.03L65.0127 273.426L68.3187 275.374L68.3267 273.973L66.6077 272.963L65.0207 272.03Z" fill="#D37C00"/>
<path d="M68.3267 273.973L68.3187 275.373C68.6857 274.839 68.8767 274.408 68.8987 274.088L68.9067 272.691C68.8937 272.903 68.8037 273.167 68.6337 273.474C68.5527 273.63 68.4477 273.794 68.3267 273.973Z" fill="#D37C00"/>
<path d="M70.6129 279.424L70.6049 280.805C70.6109 281.093 70.7819 281.334 71.1249 281.536C72.0139 282.057 73.2109 282.016 74.7269 281.404L74.7349 280.007C74.1489 280.244 73.6119 280.393 73.1199 280.458C72.3389 280.566 71.6789 280.458 71.1329 280.135C71.0249 280.074 70.9378 280.01 70.8658 279.941C70.7028 279.789 70.6199 279.616 70.6129 279.424Z" fill="#D37C00"/>
<path d="M81.2647 274.527L81.2566 275.924C81.2856 275.779 81.2647 274.527 81.2647 274.527Z" fill="url(#paint8_linear_465_2306)"/>
<path d="M230.544 343.718H230.57C230.764 348.166 233.764 353.345 239.588 356.778C251.766 363.943 271.629 364.058 283.965 357.025C289.869 353.663 292.966 349.277 293.266 344.821H293.284V344.486C293.293 344.292 293.293 344.089 293.284 343.895L293.319 337.003C293.072 341.495 289.957 345.942 284 349.331C271.664 356.364 251.8 356.249 239.631 349.084C233.736 345.616 230.727 341.133 230.595 336.624H230.577L230.544 343.718Z" fill="#E98A00"/>
<path d="M230.597 336.623C230.729 341.132 233.738 345.615 239.633 349.083C251.802 356.248 271.665 356.363 284.002 349.33C289.959 345.941 293.073 341.494 293.321 337.002V336.976C293.577 332.184 290.568 327.331 284.294 323.634C272.116 316.469 252.253 316.354 239.916 323.378C233.553 327.005 230.438 331.823 230.597 336.623Z" fill="#FFFF00"/>
<path d="M237.633 337.028C237.926 340.367 240.252 343.661 244.623 346.235C254.071 351.799 269.497 351.887 279.071 346.431C283.539 343.887 285.943 340.588 286.278 337.224C286.66 333.377 284.337 329.45 279.296 326.48C269.844 320.916 254.422 320.829 244.848 326.284C239.702 329.216 237.291 333.152 237.633 337.028Z" fill="#D37C00"/>
<path d="M237.633 337.595C237.926 340.934 240.252 344.228 244.623 346.802C254.071 352.366 269.497 352.453 279.071 346.998C283.539 344.454 285.943 341.155 286.278 337.791C285.989 334.448 283.663 331.158 279.288 328.58C269.836 323.016 254.414 322.928 244.84 328.384C240.372 330.928 237.969 334.231 237.633 337.595Z" fill="#FFDB00"/>
<path d="M251.614 332.108L251.622 330.707L250.733 330.182L251.472 329.762L253.626 331.031L253.634 329.63C255.752 328.642 257.788 328.097 259.742 328C261.699 327.903 263.358 328.253 264.714 329.053C265.982 329.8 266.654 330.649 266.728 331.601C266.75 331.885 266.717 332.193 266.631 332.529C266.427 333.312 265.917 334.23 265.111 335.285L264.522 336.042L264.514 337.439L268.881 340.009C269.733 339.454 270.589 338.758 271.446 337.911C272.295 337.063 272.936 336.287 273.36 335.581L273.368 334.184L277.085 336.37C276.863 336.693 276.609 337.012 276.327 337.326C275.332 338.433 273.958 339.509 272.195 340.56L272.187 341.957L273.81 342.915L273.067 343.335L270.183 341.638C268.036 342.654 265.96 343.211 263.967 343.295C261.97 343.388 260.223 342.994 258.728 342.113C257.902 341.628 257.369 341.101 257.112 340.527C257.076 340.451 257.049 340.371 257.025 340.286C257.054 340.174 257.09 340.058 257.131 339.938C257.399 339.187 258.106 338.079 259.255 336.605L259.263 335.208L255.115 332.763C253.685 333.731 252.53 334.813 251.647 336.013L247.931 335.072C248.866 334.041 250.096 333.052 251.614 332.108ZM262.707 340.462C262.713 340.75 262.884 340.991 263.227 341.193C264.116 341.714 265.313 341.673 266.829 341.061L266.837 339.665L263.331 337.6C262.972 338.142 262.769 338.585 262.723 338.929C262.715 338.981 262.71 339.033 262.714 339.081L262.707 340.462ZM257.115 333.083L260.421 335.031C260.788 334.497 260.979 334.066 261.001 333.746L261.009 332.349C261.031 332.025 260.84 331.744 260.426 331.497C259.632 331.028 258.524 331.09 257.124 331.686L257.115 333.083Z" fill="#D37C00"/>
<path d="M249.528 329.475L250.733 330.182L251.471 329.762L253.625 331.031L253.633 329.63L251.479 328.362L249.528 329.475Z" fill="#D37C00"/>
<path d="M247.017 334.839L247.932 335.072C248.866 334.041 250.096 333.051 251.614 332.108L251.622 330.707C251.229 330.953 250.855 331.199 250.501 331.449C248.979 332.529 247.82 333.655 247.017 334.839Z" fill="#D37C00"/>
<path d="M257.026 340.286C257.055 340.174 257.091 340.058 257.132 339.938C257.4 339.187 258.107 338.079 259.256 336.605L259.264 335.208C258.998 335.551 258.752 335.873 258.534 336.18C257.808 337.18 257.347 337.966 257.14 338.541C256.908 339.189 256.868 339.773 257.026 340.286Z" fill="#D37C00"/>
<path d="M264.521 336.043L264.513 337.439L268.88 340.009L268.888 338.613L265.258 336.475L264.521 336.043Z" fill="#D37C00"/>
<path d="M268.888 338.613L268.88 340.009C269.732 339.454 270.588 338.758 271.445 337.911C272.294 337.063 272.935 336.287 273.359 335.581L273.367 334.184C272.943 334.89 272.302 335.667 271.453 336.514C270.596 337.358 269.739 338.057 268.888 338.613Z" fill="#D37C00"/>
<path d="M272.194 340.56L272.186 341.957L273.809 342.914L275.018 342.225L273.335 341.235L272.194 340.56Z" fill="#D37C00"/>
<path d="M251.614 332.108L251.622 330.707L250.733 330.182L251.472 329.762L253.626 331.031C255.744 330.043 257.78 329.494 259.734 329.397C261.691 329.3 263.35 329.654 264.706 330.454C265.763 331.072 266.403 331.764 266.631 332.53C266.427 333.313 265.917 334.231 265.111 335.286L264.522 336.043L264.514 337.44L268.881 340.01C269.733 339.455 270.589 338.759 271.446 337.912C272.295 337.064 272.936 336.288 273.36 335.582L276.327 337.327C275.332 338.434 273.958 339.51 272.195 340.561L272.187 341.958L273.81 342.916L273.067 343.336L270.183 341.639C268.036 342.655 265.96 343.212 263.967 343.296C261.97 343.389 260.223 342.995 258.728 342.114C257.902 341.629 257.369 341.102 257.112 340.528C257.076 340.452 257.049 340.372 257.025 340.287C257.054 340.175 257.09 340.059 257.131 339.939C257.399 339.188 258.106 338.08 259.255 336.606L259.263 335.209L255.115 332.764C253.685 333.732 252.53 334.814 251.647 336.014L247.931 335.073C248.866 334.041 250.096 333.052 251.614 332.108ZM262.707 340.462C262.713 340.75 262.884 340.991 263.227 341.193C264.116 341.714 265.313 341.673 266.829 341.061L266.837 339.665L263.331 337.6C262.972 338.142 262.769 338.585 262.723 338.929C262.715 338.981 262.71 339.033 262.714 339.081L262.707 340.462ZM257.115 333.083L260.421 335.031C260.788 334.497 260.979 334.066 261.001 333.746L261.009 332.349C261.031 332.025 260.84 331.744 260.426 331.497C259.632 331.028 258.524 331.09 257.124 331.686L257.115 333.083Z" fill="#FFC700"/>
<path d="M257.122 331.687L257.115 333.083L260.421 335.031L260.429 333.631L258.71 332.62L257.122 331.687Z" fill="#D37C00"/>
<path d="M260.429 333.631L260.421 335.031C260.788 334.497 260.979 334.066 261.001 333.746L261.009 332.349C260.996 332.561 260.906 332.825 260.736 333.132C260.655 333.288 260.55 333.451 260.429 333.631Z" fill="#D37C00"/>
<path d="M262.715 339.082L262.707 340.462C262.713 340.75 262.884 340.991 263.227 341.193C264.116 341.714 265.313 341.673 266.829 341.061L266.837 339.665C266.251 339.902 265.714 340.051 265.222 340.116C264.441 340.224 263.781 340.116 263.235 339.793C263.127 339.732 263.04 339.668 262.968 339.599C262.805 339.446 262.722 339.274 262.715 339.082Z" fill="#D37C00"/>
<path d="M273.367 334.184L273.359 335.581C273.388 335.437 273.367 334.184 273.367 334.184Z" fill="url(#paint9_linear_465_2306)"/>
<path d="M265.8 337.295L265.824 337.3C264.813 341.566 266.17 347.118 270.574 351.602C279.784 360.966 297.9 365.244 311.049 361.151C317.34 359.196 321.341 355.679 322.806 351.508L322.822 351.512L322.912 351.193C322.972 351.01 323.026 350.817 323.07 350.631L324.943 344.09C323.517 348.306 319.483 351.878 313.137 353.847C299.988 357.94 281.873 353.662 272.67 344.3C268.212 339.768 266.66 334.877 267.744 330.565L267.728 330.561L265.8 337.295Z" fill="#E98A00"/>
<path d="M267.744 330.565C266.66 334.877 268.212 339.768 272.67 344.3C281.872 353.662 299.988 357.94 313.137 353.847C319.484 351.878 323.518 348.306 324.943 344.09L324.95 344.065C326.464 339.566 325.012 334.323 320.268 329.493C311.057 320.129 292.942 315.851 279.796 319.935C273.014 322.047 268.881 325.971 267.744 330.565Z" fill="#FFFF00"/>
<path d="M274.064 332.426C273.44 335.66 274.685 339.278 277.99 342.641C285.135 349.911 299.204 353.232 309.408 350.057C314.169 348.578 317.247 345.947 318.452 342.822C319.829 339.247 318.756 335.028 314.944 331.148C307.796 323.878 293.731 320.557 283.526 323.732C278.041 325.439 274.787 328.672 274.064 332.426Z" fill="#D37C00"/>
<path d="M273.913 332.965C273.289 336.199 274.534 339.818 277.839 343.18C284.984 350.45 299.053 353.77 309.257 350.596C314.018 349.117 317.096 346.487 318.301 343.361C318.93 340.124 317.684 336.509 314.376 333.142C307.228 325.872 293.163 322.552 282.958 325.726C278.196 327.205 275.118 329.84 273.913 332.965Z" fill="#FFDB00"/>
<path d="M288.15 330.686L288.531 329.357L287.859 328.671L288.646 328.427L290.275 330.085L290.656 328.756C292.855 328.261 294.861 328.171 296.671 328.489C298.485 328.808 299.907 329.488 300.932 330.533C301.891 331.509 302.278 332.456 302.091 333.377C302.036 333.652 301.922 333.937 301.754 334.238C301.358 334.939 300.648 335.704 299.629 336.538L298.889 337.134L298.509 338.459L301.812 341.817C302.738 341.468 303.706 340.987 304.716 340.362C305.718 339.735 306.511 339.132 307.087 338.55L307.467 337.225L310.279 340.082C309.99 340.342 309.673 340.592 309.331 340.831C308.127 341.674 306.583 342.408 304.692 343.036L304.312 344.361L305.539 345.611L304.748 345.854L302.567 343.636C300.335 344.151 298.289 344.244 296.446 343.906C294.597 343.575 293.107 342.834 291.976 341.683C291.351 341.049 291.005 340.436 290.924 339.837C290.912 339.757 290.908 339.675 290.909 339.59C290.965 339.49 291.03 339.387 291.099 339.282C291.545 338.625 292.486 337.72 293.93 336.561L294.31 335.236L291.174 332.043C289.609 332.663 288.265 333.448 287.138 334.403L283.995 332.729C285.124 331.946 286.512 331.264 288.15 330.686ZM296.052 340.952C295.981 341.227 296.072 341.492 296.332 341.756C297.005 342.438 298.109 342.65 299.658 342.387L300.038 341.062L297.387 338.364C296.914 338.804 296.611 339.182 296.477 339.499C296.456 339.547 296.438 339.595 296.428 339.642L296.052 340.952ZM292.915 332.768L295.415 335.312C295.893 334.882 296.182 334.512 296.288 334.213L296.668 332.888C296.774 332.585 296.676 332.278 296.362 331.956C295.762 331.344 294.733 331.17 293.295 331.443L292.915 332.768Z" fill="#D37C00"/>
<path d="M286.948 327.747L287.86 328.672L288.647 328.428L290.275 330.085L290.657 328.756L289.028 327.099L286.948 327.747Z" fill="#D37C00"/>
<path d="M283.221 332.316L283.995 332.73C285.124 331.946 286.512 331.265 288.151 330.686L288.532 329.357C288.107 329.508 287.7 329.663 287.31 329.827C285.63 330.533 284.271 331.36 283.221 332.316Z" fill="#D37C00"/>
<path d="M290.909 339.592C290.965 339.492 291.03 339.389 291.099 339.284C291.545 338.627 292.486 337.722 293.93 336.563L294.31 335.238C293.975 335.508 293.665 335.763 293.384 336.009C292.453 336.807 291.823 337.457 291.48 337.96C291.095 338.525 290.903 339.072 290.909 339.592Z" fill="#D37C00"/>
<path d="M298.89 337.134L298.51 338.459L301.813 341.817L302.193 340.492L299.449 337.699L298.89 337.134Z" fill="#D37C00"/>
<path d="M302.193 340.492L301.813 341.817C302.739 341.468 303.707 340.987 304.717 340.362C305.719 339.735 306.512 339.132 307.088 338.55L307.468 337.225C306.892 337.807 306.099 338.41 305.097 339.037C304.088 339.658 303.119 340.143 302.193 340.492Z" fill="#D37C00"/>
<path d="M304.693 343.037L304.313 344.362L305.54 345.612L306.828 345.211L305.555 343.917L304.693 343.037Z" fill="#D37C00"/>
<path d="M288.15 330.686L288.531 329.357L287.859 328.671L288.646 328.427L290.275 330.085C292.474 329.591 294.481 329.497 296.291 329.814C298.105 330.133 299.526 330.817 300.551 331.861C301.351 332.67 301.752 333.462 301.755 334.237C301.359 334.938 300.649 335.703 299.63 336.537L298.89 337.133L298.51 338.458L301.813 341.816C302.739 341.467 303.707 340.986 304.717 340.361C305.719 339.734 306.512 339.131 307.088 338.549L309.332 340.83C308.128 341.673 306.584 342.407 304.693 343.035L304.313 344.36L305.54 345.61L304.749 345.853L302.568 343.635C300.336 344.15 298.29 344.243 296.447 343.905C294.598 343.574 293.108 342.833 291.977 341.682C291.352 341.048 291.006 340.435 290.925 339.836C290.913 339.756 290.909 339.674 290.91 339.589C290.966 339.489 291.031 339.386 291.1 339.281C291.546 338.624 292.487 337.719 293.931 336.56L294.311 335.235L291.175 332.042C289.61 332.662 288.266 333.447 287.139 334.402L283.996 332.728C285.124 331.946 286.512 331.264 288.15 330.686ZM296.052 340.952C295.981 341.227 296.072 341.492 296.332 341.756C297.005 342.438 298.109 342.65 299.658 342.387L300.038 341.062L297.387 338.364C296.914 338.804 296.611 339.182 296.477 339.499C296.456 339.547 296.438 339.595 296.428 339.642L296.052 340.952ZM292.915 332.768L295.415 335.312C295.893 334.882 296.182 334.512 296.288 334.213L296.668 332.888C296.774 332.585 296.676 332.278 296.362 331.956C295.762 331.344 294.733 331.17 293.295 331.443L292.915 332.768Z" fill="#FFC700"/>
<path d="M293.295 331.442L292.915 332.768L295.415 335.312L295.796 333.983L294.496 332.662L293.295 331.442Z" fill="#D37C00"/>
<path d="M295.796 333.983L295.415 335.312C295.893 334.882 296.182 334.512 296.288 334.213L296.668 332.888C296.599 333.087 296.447 333.318 296.21 333.574C296.094 333.705 295.955 333.838 295.796 333.983Z" fill="#D37C00"/>
<path d="M296.428 339.642L296.052 340.952C295.981 341.227 296.072 341.492 296.332 341.756C297.005 342.438 298.109 342.65 299.658 342.387L300.038 341.062C299.44 341.164 298.909 341.193 298.442 341.152C297.7 341.09 297.126 340.849 296.713 340.428C296.631 340.348 296.568 340.268 296.521 340.188C296.413 340.008 296.383 339.826 296.428 339.642Z" fill="#D37C00"/>
<path d="M307.468 337.225L307.088 338.55C307.152 338.419 307.468 337.225 307.468 337.225Z" fill="url(#paint10_linear_465_2306)"/>
<path d="M261.381 105.782C263.292 102.485 263.292 98.929 261.381 97.839C259.469 96.749 256.37 98.538 254.459 101.836C252.548 105.133 252.548 108.689 254.459 109.779C256.37 110.868 259.469 109.079 261.381 105.782Z" fill="#0057C0"/>
<path d="M247.106 104.439C247.565 104.174 248.024 103.708 248.374 103.104C250.924 98.7061 254.314 95.1391 257.918 93.0571C261.523 90.9761 264.914 90.6291 267.464 92.0821C268.164 92.4821 269.3 91.8261 270 90.6181C270.701 89.4101 270.701 88.1061 270 87.7081C266.772 85.8681 262.48 86.3071 257.918 88.9411C253.355 91.5761 249.066 96.0911 245.837 101.658C245.136 102.866 245.136 104.169 245.837 104.569C246.189 104.768 246.647 104.704 247.106 104.439Z" fill="#0057C0"/>
<path d="M241.261 101.107C241.72 100.842 242.179 100.376 242.529 99.7722C246.64 92.6812 252.105 86.9282 257.918 83.5722C263.732 80.2162 269.198 79.6572 273.309 82.0012C274.01 82.4012 275.145 81.7452 275.845 80.5372C276.546 79.3282 276.546 78.0262 275.845 77.6262C271.056 74.8962 264.689 75.5462 257.917 79.4552C251.145 83.3652 244.78 90.0662 239.991 98.3262C239.291 99.5342 239.291 100.837 239.991 101.237C240.343 101.436 240.802 101.372 241.261 101.107Z" fill="#0057C0"/>
<path d="M55.569 244.122C57.877 245.374 61.207 245.053 65.557 243.16V250.58L71.331 247.246V240.024C74.18 238.203 76.894 236.062 79.473 233.601C82.052 231.142 84.131 228.749 85.709 226.423L82.533 220.173C81.07 222.256 79.358 224.282 77.395 226.254C75.432 228.228 73.41 229.925 71.331 231.345V220.28C74.065 217.951 76.375 215.778 78.259 213.761C80.145 211.745 81.723 209.475 82.994 206.953C84.265 204.431 84.899 201.691 84.899 198.73C84.899 195.065 83.735 192.589 81.406 191.305C79.077 190.023 75.718 190.361 71.33 192.32V184.966L65.556 188.3V195.522C60.821 198.698 56.915 202.299 53.835 206.33L56.722 212.811C59.609 209.246 62.554 206.397 65.556 204.266V215.529C62.862 217.792 60.581 219.915 58.714 221.899C56.848 223.882 55.279 226.135 54.008 228.657C52.739 231.178 52.104 233.897 52.104 236.813C52.105 240.435 53.259 242.872 55.569 244.122ZM74.508 206.917C73.777 208.047 72.717 209.255 71.331 210.539V201.132C72.794 200.684 73.871 200.691 74.565 201.153C75.257 201.614 75.604 202.419 75.604 203.567C75.604 204.673 75.238 205.789 74.508 206.917ZM62.44 234.49C61.746 234.096 61.401 233.345 61.401 232.241C61.401 231.138 61.758 230.026 62.469 228.908C63.182 227.79 64.211 226.578 65.558 225.27V234.413C64.171 234.861 63.132 234.887 62.44 234.49Z" fill="white"/>
<defs>
<linearGradient id="paint0_linear_465_2306" x1="255.337" y1="346.556" x2="234.148" y2="322.286" gradientUnits="userSpaceOnUse">
<stop stop-color="#FF9200"/>
<stop offset="1" stop-color="#FFC900" stop-opacity="0"/>
</linearGradient>
<linearGradient id="paint1_linear_465_2306" x1="166.146" y1="352.543" x2="144.957" y2="328.272" gradientUnits="userSpaceOnUse">
<stop stop-color="#FF9200"/>
<stop offset="1" stop-color="#FFC900" stop-opacity="0"/>
</linearGradient>
<linearGradient id="paint2_linear_465_2306" x1="148.333" y1="325.075" x2="96.9164" y2="266.179" gradientUnits="userSpaceOnUse">
<stop stop-color="#FF9200"/>
<stop offset="1" stop-color="#FFC900" stop-opacity="0"/>
</linearGradient>
<linearGradient id="paint3_linear_465_2306" x1="59.3084" y1="326.103" x2="32.5118" y2="295.409" gradientUnits="userSpaceOnUse">
<stop stop-color="#FF9200"/>
<stop offset="1" stop-color="#FFC900" stop-opacity="0"/>
</linearGradient>
<linearGradient id="paint4_linear_465_2306" x1="78.5981" y1="314.482" x2="78.8773" y2="314.426" gradientUnits="userSpaceOnUse">
<stop stop-color="#07C3B7"/>
<stop offset="0.4409" stop-color="#346485"/>
<stop offset="1" stop-color="#292375"/>
</linearGradient>
<linearGradient id="paint5_linear_465_2306" x1="73.5901" y1="303.973" x2="73.8694" y2="303.917" gradientUnits="userSpaceOnUse">
<stop stop-color="#07C3B7"/>
<stop offset="0.4409" stop-color="#346485"/>
<stop offset="1" stop-color="#292375"/>
</linearGradient>
<linearGradient id="paint6_linear_465_2306" x1="77.9837" y1="293.211" x2="78.2634" y2="293.154" gradientUnits="userSpaceOnUse">
<stop stop-color="#07C3B7"/>
<stop offset="0.4409" stop-color="#346485"/>
<stop offset="1" stop-color="#292375"/>
</linearGradient>
<linearGradient id="paint7_linear_465_2306" x1="76.6333" y1="285.444" x2="76.9125" y2="285.387" gradientUnits="userSpaceOnUse">
<stop stop-color="#07C3B7"/>
<stop offset="0.4409" stop-color="#346485"/>
<stop offset="1" stop-color="#292375"/>
</linearGradient>
<linearGradient id="paint8_linear_465_2306" x1="81.121" y1="275.254" x2="81.4008" y2="275.197" gradientUnits="userSpaceOnUse">
<stop stop-color="#07C3B7"/>
<stop offset="0.4409" stop-color="#346485"/>
<stop offset="1" stop-color="#292375"/>
</linearGradient>
<linearGradient id="paint9_linear_465_2306" x1="273.223" y1="334.911" x2="273.502" y2="334.854" gradientUnits="userSpaceOnUse">
<stop stop-color="#07C3B7"/>
<stop offset="0.4409" stop-color="#346485"/>
<stop offset="1" stop-color="#292375"/>
</linearGradient>
<linearGradient id="paint10_linear_465_2306" x1="307.143" y1="337.885" x2="307.412" y2="337.907" gradientUnits="userSpaceOnUse">
<stop stop-color="#07C3B7"/>
<stop offset="0.4409" stop-color="#346485"/>
<stop offset="1" stop-color="#292375"/>
</linearGradient>
</defs>
</svg>
