<svg width="477" height="382" viewBox="0 0 477 382" fill="none" xmlns="http://www.w3.org/2000/svg">
<path d="M238.194 381.087C369.745 381.087 476.388 319.517 476.388 243.566C476.388 167.615 369.745 106.045 238.194 106.045C106.643 106.045 0 167.615 0 243.566C0 319.517 106.643 381.087 238.194 381.087Z" fill="#F0F0F0"/>
<path d="M91.9519 267.544L10.7109 220.64L116.324 159.663L197.564 206.569L91.9519 267.544Z" fill="#E0E0E0"/>
<path d="M255.371 232.366L137.574 300.378L218.813 347.282L336.612 279.271L255.371 232.366Z" fill="#E0E0E0"/>
<path d="M389.481 296.378C421.773 296.378 447.951 281.264 447.951 262.62C447.951 243.976 421.773 228.862 389.481 228.862C357.189 228.862 331.011 243.976 331.011 262.62C331.011 281.264 357.189 296.378 389.481 296.378Z" fill="#E0E0E0"/>
<path d="M410.135 236.246C410.135 236.246 409.411 222.939 414.191 211.708C418.972 200.477 426.825 192.643 435.04 190.576C443.255 188.509 451.276 195.032 443.256 201.8C435.237 208.567 420.317 216.613 416.361 237.521L410.135 236.246Z" fill="#27DEBF"/>
<path opacity="0.15" d="M410.135 236.246C410.135 236.246 409.411 222.939 414.191 211.708C418.972 200.477 426.825 192.643 435.04 190.576C443.255 188.509 451.276 195.032 443.256 201.8C435.237 208.567 420.317 216.613 416.361 237.521L410.135 236.246Z" fill="black"/>
<path d="M412.003 232.442C411.972 232.442 411.941 232.439 411.911 232.431C411.668 232.378 411.514 232.137 411.569 231.893C416.695 208.767 431.894 196.902 439.215 193.86C439.444 193.763 439.708 193.874 439.805 194.103C439.9 194.333 439.792 194.597 439.562 194.693C432.391 197.674 417.496 209.326 412.45 232.089C412.401 232.301 412.212 232.445 412.003 232.442Z" fill="white"/>
<path d="M413.312 243.411C413.183 242.344 413.085 241.271 412.942 240.205C412.839 239.441 412.554 238.757 412.465 237.978C412.271 236.276 412.257 234.45 413.129 232.916C413.826 231.689 414.899 230.728 415.952 229.788C417.005 228.849 418.076 227.885 418.769 226.655C419.224 225.848 419.498 224.953 419.897 224.117C421.218 221.35 423.999 219.374 427.013 218.9C428.616 218.648 430.03 218.684 431.609 219.061C433.307 219.467 435.053 219.995 436.815 219.713C439.394 219.3 441.856 218.318 444.524 218.201C447.315 218.079 450.272 218.932 452.121 221.13C453.16 222.365 453.789 224.077 453.307 225.617C452.774 227.314 451.106 228.355 449.539 229.203C447.981 230.043 446.273 230.962 445.56 232.59C444.123 235.878 447.549 239.884 445.973 243.107C445.311 244.458 443.889 245.292 442.448 245.723C441.251 246.091 440.006 246.23 438.778 246.475C438.18 246.53 437.585 246.554 437 246.538C435.271 246.484 433.416 246.614 431.956 247.662C429.66 249.318 429.258 252.501 428.04 255.058C426.579 258.12 423.634 260.35 420.367 261.178C417.627 261.861 413.387 261.711 412.529 260.562C411.877 259.689 413.186 256.684 413.098 255.597C412.872 252.81 412.91 250.002 413.211 247.222C413.354 245.869 413.475 244.767 413.312 243.411Z" fill="#27DEBF"/>
<path d="M414.03 253.407C414.019 253.406 414.008 253.405 413.997 253.403C413.779 253.371 413.628 253.167 413.661 252.948C417.36 228.046 442.43 221.663 448.437 221.417C448.654 221.41 448.843 221.58 448.854 221.801C448.863 222.022 448.691 222.208 448.47 222.218C442.594 222.459 418.072 228.704 414.452 253.067C414.421 253.274 414.235 253.421 414.03 253.407Z" fill="white"/>
<path d="M440.935 237.948C440.856 237.943 440.778 237.914 440.712 237.861C440.641 237.804 433.419 232.137 422.827 234.946C422.613 235 422.394 234.876 422.337 234.662C422.28 234.448 422.408 234.229 422.621 234.172C433.623 231.258 441.138 237.177 441.213 237.237C441.385 237.376 441.412 237.628 441.274 237.8C441.189 237.905 441.061 237.956 440.935 237.948Z" fill="white"/>
<path d="M32.7478 229.184C31.7298 228.596 30.9048 227.104 30.9048 225.851V60.5909C30.9048 59.3379 31.7848 57.8139 32.8698 57.1879L130.492 0.885943C131.577 0.258943 133.282 0.227943 134.3 0.815943C135.318 1.40394 136.143 2.89594 136.143 4.14894L136.144 169.409C136.144 170.662 135.264 172.185 134.179 172.812L36.5558 229.114C35.4708 229.74 33.7658 229.772 32.7478 229.184Z" fill="#FAFAFA"/>
<path d="M36.5558 229.113L134.179 172.811C135.264 172.184 136.144 170.661 136.144 169.408L136.143 4.14776C136.143 2.89476 135.263 2.38676 134.178 3.01376L36.5548 59.3158C35.4698 59.9418 34.5898 61.4658 34.5898 62.7188L34.5908 227.979C34.5908 229.232 35.4708 229.74 36.5558 229.113Z" fill="#F5F5F5"/>
<path d="M36.2997 229.242C35.2197 229.742 33.6897 229.732 32.7497 229.182C31.7297 228.592 30.9097 227.102 30.9097 225.852V60.5948C30.9097 59.9648 31.1297 59.2748 31.4797 58.6548L35.1697 60.7848C34.8097 61.3948 34.5897 62.0948 34.5897 62.7148V227.983C34.5897 229.132 35.3397 229.652 36.2997 229.242Z" fill="#EBEBEB"/>
<path d="M88.6568 42.0151L120.967 23.3171C121.924 22.7651 122.699 23.2121 122.699 24.3171V25.0071C122.699 26.1121 121.924 27.4551 120.967 28.0071L88.6558 46.7051C87.6988 47.2571 86.9238 46.8101 86.9248 45.7051V45.0151C86.9238 43.9111 87.6998 42.5671 88.6568 42.0151Z" fill="#E0E0E0"/>
<path d="M88.6568 53.7283L120.967 35.0303C121.924 34.4783 122.699 34.9263 122.699 36.0303V36.7203C122.699 37.8253 121.924 39.1683 120.967 39.7203L88.6558 58.4183C87.6988 58.9703 86.9238 58.5233 86.9248 57.4183V56.7283C86.9238 55.6233 87.6998 54.2803 88.6568 53.7283Z" fill="#E0E0E0"/>
<path d="M88.6568 65.4399L120.967 46.7419C121.924 46.1899 122.699 46.6369 122.699 47.7419V48.4319C122.699 49.5359 121.924 50.8799 120.967 51.4319L88.6558 70.1299C87.6988 70.6819 86.9238 70.2349 86.9248 69.1299V68.4399C86.9238 67.3359 87.6998 65.9919 88.6568 65.4399Z" fill="#E0E0E0"/>
<path d="M88.6568 77.1533L120.967 58.4553C121.924 57.9033 122.699 58.3503 122.699 59.4553V60.1453C122.699 61.2503 121.924 62.5933 120.967 63.1453L88.6558 81.8433C87.6988 82.3953 86.9238 81.9483 86.9248 80.8433V80.1533C86.9238 79.0483 87.6998 77.7053 88.6568 77.1533Z" fill="#E0E0E0"/>
<path d="M47.254 112.727L120.967 70.1682C121.924 69.6162 122.699 70.0632 122.699 71.1682V71.8582C122.699 72.9632 121.924 74.3062 120.967 74.8582L47.252 117.417C46.295 117.969 45.52 117.522 45.521 116.417V115.727C45.521 114.622 46.297 113.279 47.254 112.727Z" fill="#E0E0E0"/>
<path d="M47.254 124.525L120.967 81.966C121.924 81.414 122.699 81.861 122.699 82.966V83.656C122.699 84.761 121.924 86.104 120.967 86.656L47.252 129.215C46.295 129.767 45.52 129.32 45.521 128.215V127.525C45.521 126.42 46.297 125.077 47.254 124.525Z" fill="#E0E0E0"/>
<path d="M47.254 136.237L120.967 93.6779C121.924 93.1259 122.699 93.5729 122.699 94.6779V95.3679C122.699 96.4729 121.924 97.8159 120.967 98.3679L47.252 140.927C46.295 141.479 45.52 141.031 45.521 139.927V139.237C45.521 138.133 46.297 136.789 47.254 136.237Z" fill="#E0E0E0"/>
<path d="M47.254 147.949L120.967 105.39C121.924 104.838 122.699 105.286 122.699 106.39V107.081C122.699 108.186 121.924 109.529 120.967 110.081L47.252 152.64C46.295 153.192 45.52 152.745 45.521 151.64V150.95C45.521 149.845 46.297 148.502 47.254 147.949Z" fill="#E0E0E0"/>
<path d="M47.254 159.662L120.967 117.103C121.924 116.551 122.699 116.998 122.699 118.103V118.793C122.699 119.898 121.924 121.241 120.967 121.793L47.252 164.352C46.295 164.904 45.52 164.457 45.521 163.352V162.662C45.521 161.557 46.297 160.214 47.254 159.662Z" fill="#E0E0E0"/>
<path d="M47.254 171.374L120.967 128.815C121.924 128.263 122.699 128.71 122.699 129.815V130.505C122.699 131.61 121.924 132.953 120.967 133.505L47.252 176.064C46.295 176.616 45.52 176.169 45.521 175.064V174.374C45.521 173.27 46.297 171.927 47.254 171.374Z" fill="#E0E0E0"/>
<path d="M47.254 183.138L120.967 140.579C121.924 140.027 122.699 140.474 122.699 141.579V142.269C122.699 143.374 121.924 144.717 120.967 145.269L47.252 187.828C46.295 188.38 45.52 187.933 45.521 186.828V186.138C45.521 185.034 46.297 183.691 47.254 183.138Z" fill="#E0E0E0"/>
<path d="M47.254 194.851L120.967 152.292C121.924 151.74 122.699 152.187 122.699 153.292V153.982C122.699 155.087 121.924 156.43 120.967 156.982L47.252 199.541C46.295 200.093 45.52 199.646 45.521 198.541V197.851C45.521 196.746 46.297 195.403 47.254 194.851Z" fill="#E0E0E0"/>
<path d="M47.254 206.563L120.967 164.004C121.924 163.452 122.699 163.9 122.699 165.004V165.695C122.699 166.8 121.924 168.143 120.967 168.695L47.252 211.254C46.295 211.806 45.52 211.359 45.521 210.254V209.564C45.521 208.459 46.297 207.116 47.254 206.563Z" fill="#E0E0E0"/>
<g opacity="0.3">
<path d="M45.98 66.9161L81.529 46.3911L81.53 87.4401L45.98 107.965V66.9161Z" fill="black"/>
</g>
<path d="M51.312 71.0213V83.3363L52.426 82.6723V78.8993C52.426 76.8153 54.122 74.1473 56.215 72.9383L61.471 69.9033V88.2063C61.471 90.6233 59.992 93.4353 58.169 94.4883L54.867 96.3953V97.7023L72.642 87.4403V86.1333C72.642 86.1333 71.164 86.9873 69.34 88.0393C67.516 89.0923 66.038 87.9863 66.038 85.5703V67.2673L71.294 64.2323C73.387 63.0243 75.083 63.7333 75.083 65.8173C75.083 67.9013 75.083 69.5903 75.083 69.5903L76.197 68.9683V56.6533L51.312 71.0213Z" fill="#FAFAFA"/>
<path d="M61.1907 245.594C60.1727 245.006 59.3477 243.514 59.3477 242.261V77.0011C59.3477 75.7481 60.2277 74.2241 61.3127 73.5981L158.935 17.2961C160.02 16.6691 161.725 16.6381 162.743 17.2261C163.761 17.8141 164.586 19.3061 164.586 20.5591L164.587 185.819C164.587 187.072 163.707 188.596 162.622 189.222L64.9987 245.524C63.9137 246.151 62.2087 246.182 61.1907 245.594Z" fill="#FAFAFA"/>
<path d="M64.9987 245.524L162.622 189.222C163.707 188.596 164.587 187.072 164.587 185.819L164.586 20.5589C164.586 19.3059 163.706 18.7979 162.621 19.4249L64.9977 75.7259C63.9127 76.3519 63.0327 77.8759 63.0327 79.1289L63.0337 244.389C63.0347 245.643 63.9137 246.151 64.9987 245.524Z" fill="#F5F5F5"/>
<path d="M64.7425 245.653C63.6625 246.153 62.1325 246.143 61.1925 245.593C60.1725 245.003 59.3525 243.513 59.3525 242.263V77.0049C59.3525 76.3749 59.5725 75.6849 59.9225 75.0649L63.6125 77.1949C63.2525 77.8049 63.0325 78.5049 63.0325 79.1249V244.393C63.0325 245.543 63.7825 246.063 64.7425 245.653Z" fill="#EBEBEB"/>
<path d="M117.1 58.4262L149.41 39.7282C150.367 39.1762 151.142 39.6232 151.142 40.7282V41.4182C151.142 42.5232 150.367 43.8662 149.41 44.4182L117.099 63.1162C116.142 63.6682 115.367 63.2212 115.368 62.1162V61.4262C115.368 60.3212 116.144 58.9782 117.1 58.4262Z" fill="#E0E0E0"/>
<path d="M117.1 70.1384L149.41 51.4404C150.367 50.8884 151.142 51.3364 151.142 52.4404V53.1314C151.142 54.2364 150.367 55.5794 149.41 56.1314L117.099 74.8294C116.142 75.3814 115.367 74.9344 115.368 73.8294V73.1394C115.368 72.0344 116.144 70.6914 117.1 70.1384Z" fill="#E0E0E0"/>
<path d="M117.1 81.851L149.41 63.153C150.367 62.601 151.142 63.048 151.142 64.153V64.843C151.142 65.948 150.367 67.291 149.41 67.843L117.099 86.541C116.142 87.093 115.367 86.646 115.368 85.541V84.851C115.368 83.746 116.144 82.403 117.1 81.851Z" fill="#E0E0E0"/>
<path d="M117.1 93.5634L149.41 74.8654C150.367 74.3134 151.142 74.7604 151.142 75.8654V76.5554C151.142 77.6604 150.367 79.0034 149.41 79.5554L117.099 98.2534C116.142 98.8054 115.367 98.3574 115.368 97.2534V96.5634C115.368 95.4594 116.144 94.1154 117.1 93.5634Z" fill="#E0E0E0"/>
<path d="M75.6969 129.137L149.41 86.5781C150.367 86.0261 151.142 86.4741 151.142 87.5781V88.2691C151.142 89.3741 150.367 90.7171 149.41 91.2691L75.6949 133.828C74.7379 134.38 73.9629 133.933 73.9639 132.828V132.138C73.9639 131.033 74.7399 129.689 75.6969 129.137Z" fill="#E0E0E0"/>
<path d="M75.6969 140.935L149.41 98.3762C150.367 97.8242 151.142 98.2712 151.142 99.3762V100.067C151.142 101.172 150.367 102.515 149.41 103.067L75.6949 145.626C74.7379 146.178 73.9629 145.731 73.9639 144.626V143.936C73.9639 142.831 74.7399 141.487 75.6969 140.935Z" fill="#E0E0E0"/>
<path d="M75.6969 152.648L149.41 110.089C150.367 109.537 151.142 109.984 151.142 111.089V111.779C151.142 112.884 150.367 114.227 149.41 114.779L75.6949 157.338C74.7379 157.89 73.9629 157.443 73.9639 156.338V155.648C73.9639 154.543 74.7399 153.2 75.6969 152.648Z" fill="#E0E0E0"/>
<path d="M75.6969 164.36L149.41 121.801C150.367 121.249 151.142 121.696 151.142 122.801V123.491C151.142 124.596 150.367 125.939 149.41 126.491L75.6949 169.05C74.7379 169.602 73.9629 169.155 73.9639 168.05V167.36C73.9639 166.255 74.7399 164.912 75.6969 164.36Z" fill="#E0E0E0"/>
<path d="M75.6969 176.072L149.41 133.513C150.367 132.961 151.142 133.408 151.142 134.513V135.204C151.142 136.308 150.367 137.652 149.41 138.204L75.6949 180.763C74.7379 181.315 73.9629 180.868 73.9639 179.763V179.073C73.9639 177.968 74.7399 176.625 75.6969 176.072Z" fill="#E0E0E0"/>
<path d="M75.6969 187.785L149.41 145.226C150.367 144.674 151.142 145.121 151.142 146.226V146.916C151.142 148.021 150.367 149.364 149.41 149.916L75.6949 192.475C74.7379 193.027 73.9629 192.579 73.9639 191.475V190.785C73.9639 189.68 74.7399 188.337 75.6969 187.785Z" fill="#E0E0E0"/>
<path d="M75.6969 199.549L149.41 156.99C150.367 156.438 151.142 156.885 151.142 157.99V158.681C151.142 159.786 150.367 161.129 149.41 161.681L75.6949 204.24C74.7379 204.792 73.9629 204.345 73.9639 203.24V202.55C73.9639 201.444 74.7399 200.101 75.6969 199.549Z" fill="#E0E0E0"/>
<path d="M75.6969 211.261L149.41 168.702C150.367 168.15 151.142 168.597 151.142 169.702V170.392C151.142 171.497 150.367 172.84 149.41 173.392L75.6949 215.951C74.7379 216.503 73.9629 216.055 73.9639 214.951V214.261C73.9639 213.157 74.7399 211.814 75.6969 211.261Z" fill="#E0E0E0"/>
<path d="M75.6969 222.974L149.41 180.415C150.367 179.863 151.142 180.311 151.142 181.415V182.106C151.142 183.211 150.367 184.554 149.41 185.106L75.6949 227.665C74.7379 228.217 73.9629 227.77 73.9639 226.665V225.975C73.9639 224.869 74.7399 223.526 75.6969 222.974Z" fill="#E0E0E0"/>
<g opacity="0.3">
<path d="M74.4229 83.3262L109.973 62.8022V103.851L74.4229 124.375V83.3262Z" fill="black"/>
</g>
<path d="M79.7559 87.4315V99.7465L80.8699 99.0825V95.3095C80.8699 93.2255 82.5659 90.5575 84.6589 89.3485L89.9149 86.3135V104.616C89.9149 107.033 88.4359 109.845 86.6129 110.898L83.3109 112.805V114.112L101.086 103.85V102.543C101.086 102.543 99.6079 103.397 97.7839 104.45C95.9599 105.503 94.4819 104.397 94.4819 101.981V83.6785L99.7379 80.6435C101.831 79.4355 103.528 80.1445 103.528 82.2285C103.528 84.3125 103.528 86.0015 103.528 86.0015L104.641 85.3795V73.0645L79.7559 87.4315Z" fill="#FAFAFA"/>
<path d="M89.6316 262.005C88.6136 261.417 87.7886 259.925 87.7886 258.672V93.4117C87.7886 92.1587 88.6686 90.6347 89.7536 90.0087L187.376 33.7067C188.461 33.0797 190.166 33.0487 191.184 33.6367C192.202 34.2247 193.027 35.7167 193.027 36.9697L193.028 202.23C193.028 203.483 192.148 205.006 191.063 205.633L93.4396 261.935C92.3546 262.562 90.6496 262.593 89.6316 262.005Z" fill="#FAFAFA"/>
<path d="M93.4396 261.935L191.063 205.633C192.148 205.007 193.028 203.483 193.028 202.23L193.027 36.9695C193.027 35.7165 192.147 35.2085 191.062 35.8355L93.4386 92.1375C92.3536 92.7635 91.4736 94.2875 91.4736 95.5405L91.4746 260.801C91.4746 262.054 92.3546 262.562 93.4396 261.935Z" fill="#F5F5F5"/>
<path d="M93.1825 262.064C92.1025 262.564 90.5725 262.554 89.6325 262.004C88.6125 261.414 87.7925 259.924 87.7925 258.674V93.4165C87.7925 92.7865 88.0125 92.0966 88.3625 91.4766L92.0525 93.6066C91.6925 94.2166 91.4725 94.9166 91.4725 95.5366V260.805C91.4725 261.954 92.2225 262.474 93.1825 262.064Z" fill="#EBEBEB"/>
<path d="M145.541 74.8369L177.851 56.1389C178.808 55.5869 179.583 56.0339 179.583 57.1389V57.8289C179.583 58.9339 178.808 60.2769 177.851 60.8289L145.54 79.5269C144.583 80.0789 143.808 79.6319 143.809 78.5269V77.8369C143.808 76.7319 144.584 75.3889 145.541 74.8369Z" fill="#E0E0E0"/>
<path d="M145.541 86.5491L177.851 67.8511C178.808 67.2991 179.583 67.7471 179.583 68.8511V69.5421C179.583 70.6471 178.808 71.9901 177.851 72.5421L145.54 91.2401C144.583 91.7921 143.808 91.3451 143.809 90.2401V89.5501C143.808 88.4451 144.584 87.1021 145.541 86.5491Z" fill="#E0E0E0"/>
<path d="M145.541 98.2617L177.851 79.5637C178.808 79.0117 179.583 79.4587 179.583 80.5637V81.2537C179.583 82.3587 178.808 83.7017 177.851 84.2537L145.54 102.952C144.583 103.504 143.808 103.057 143.809 101.952V101.262C143.808 100.157 144.584 98.8137 145.541 98.2617Z" fill="#E0E0E0"/>
<path d="M145.541 109.974L177.851 91.2761C178.808 90.7241 179.583 91.1711 179.583 92.2761V92.9661C179.583 94.0711 178.808 95.4141 177.851 95.9661L145.54 114.664C144.583 115.216 143.808 114.768 143.809 113.664V112.974C143.808 111.87 144.584 110.527 145.541 109.974Z" fill="#E0E0E0"/>
<path d="M104.137 145.548L177.85 102.989C178.807 102.437 179.582 102.885 179.582 103.989V104.68C179.582 105.785 178.807 107.128 177.85 107.68L104.135 150.239C103.178 150.791 102.403 150.344 102.404 149.239V148.549C102.405 147.444 103.181 146.101 104.137 145.548Z" fill="#E0E0E0"/>
<path d="M104.137 157.346L177.85 114.787C178.807 114.235 179.582 114.682 179.582 115.787V116.478C179.582 117.582 178.807 118.926 177.85 119.478L104.135 162.037C103.178 162.589 102.403 162.142 102.404 161.037V160.347C102.405 159.242 103.181 157.899 104.137 157.346Z" fill="#E0E0E0"/>
<path d="M104.137 169.059L177.85 126.5C178.807 125.948 179.582 126.395 179.582 127.5V128.19C179.582 129.295 178.807 130.638 177.85 131.19L104.135 173.749C103.178 174.301 102.403 173.854 102.404 172.749V172.059C102.405 170.954 103.181 169.611 104.137 169.059Z" fill="#E0E0E0"/>
<path d="M104.137 180.771L177.85 138.212C178.807 137.66 179.582 138.107 179.582 139.212V139.902C179.582 141.007 178.807 142.35 177.85 142.902L104.135 185.461C103.178 186.013 102.403 185.566 102.404 184.461V183.771C102.405 182.667 103.181 181.324 104.137 180.771Z" fill="#E0E0E0"/>
<path d="M104.137 192.484L177.85 149.925C178.807 149.373 179.582 149.82 179.582 150.925V151.616C179.582 152.72 178.807 154.064 177.85 154.616L104.135 197.175C103.178 197.727 102.403 197.28 102.404 196.175V195.485C102.405 194.379 103.181 193.036 104.137 192.484Z" fill="#E0E0E0"/>
<path d="M104.137 204.196L177.85 161.637C178.807 161.085 179.582 161.532 179.582 162.637V163.327C179.582 164.432 178.807 165.775 177.85 166.327L104.135 208.886C103.178 209.438 102.403 208.991 102.404 207.886V207.196C102.405 206.092 103.181 204.749 104.137 204.196Z" fill="#E0E0E0"/>
<path d="M104.137 215.96L177.85 173.401C178.807 172.849 179.582 173.296 179.582 174.401V175.092C179.582 176.196 178.807 177.54 177.85 178.092L104.135 220.651C103.178 221.203 102.403 220.756 102.404 219.651V218.961C102.405 217.856 103.181 216.513 104.137 215.96Z" fill="#E0E0E0"/>
<path d="M104.137 227.673L177.85 185.114C178.807 184.562 179.582 185.009 179.582 186.114V186.804C179.582 187.909 178.807 189.252 177.85 189.804L104.135 232.363C103.178 232.915 102.403 232.467 102.404 231.363V230.673C102.405 229.568 103.181 228.225 104.137 227.673Z" fill="#E0E0E0"/>
<path d="M104.137 239.385L177.85 196.826C178.807 196.274 179.582 196.722 179.582 197.826V198.516C179.582 199.621 178.807 200.964 177.85 201.516L104.135 244.075C103.178 244.627 102.403 244.18 102.404 243.075V242.385C102.405 241.281 103.181 239.937 104.137 239.385Z" fill="#E0E0E0"/>
<path d="M102.864 99.7379L138.413 79.2129V120.262L102.864 140.787V99.7379Z" fill="#27DEBF"/>
<path d="M108.196 103.842V116.157L109.31 115.493V111.72C109.31 109.636 111.007 106.968 113.099 105.759L118.355 102.724V121.027C118.355 123.444 116.876 126.256 115.053 127.309L111.751 129.216V130.523L129.526 120.261V118.954C129.526 118.954 128.048 119.808 126.224 120.86C124.4 121.913 122.922 120.807 122.922 118.391V100.088L128.178 97.0531C130.271 95.8451 131.968 96.5541 131.968 98.6381C131.968 100.722 131.968 102.411 131.968 102.411L133.082 101.789V89.4741L108.196 103.842Z" fill="#FAFAFA"/>
<path d="M149.818 290.672L219.709 331.023L328.429 268.254L258.537 227.903L149.818 290.672Z" fill="#263238"/>
<path d="M219.71 331.023L149.819 290.671V297.248C149.819 298.562 150.75 300.175 151.889 300.833L161.468 306.363V301.88L204.179 326.539V331.022L217.641 338.794C218.922 339.533 220.499 339.533 221.78 338.794L219.71 337.599V331.023Z" fill="#37474F"/>
<path d="M328.429 268.254V274.831C328.429 276.151 327.502 277.756 326.36 278.416L316.781 283.946V279.463L235.241 326.54V331.023L221.779 338.795C220.636 339.455 219.709 338.92 219.709 337.6V331.023L328.429 268.254Z" fill="#455A64"/>
<path d="M161.467 306.364L165.35 304.122L161.467 301.88V306.364Z" fill="#263238"/>
<path d="M316.78 283.946L312.897 281.705L316.78 279.463V283.946Z" fill="#37474F"/>
<path d="M326.323 266.45C327.519 265.76 328.488 264.081 328.488 262.7V218.295L259.433 178.426L241.161 188.975V235.879L310.216 275.748L326.323 266.45Z" fill="#27DEBF"/>
<path opacity="0.7" d="M326.323 266.45C327.519 265.76 328.488 264.081 328.488 262.7V218.295L259.433 178.426L241.161 188.975V235.879L310.216 275.748L326.323 266.45Z" fill="white"/>
<path d="M241.161 188.975V235.88L310.216 275.749V228.844L241.161 188.975Z" fill="#27DEBF"/>
<path opacity="0.3" d="M241.161 188.975V235.88L310.216 275.749V228.844L241.161 188.975Z" fill="black"/>
<path d="M241.161 188.975L259.433 178.426L328.488 218.295L310.216 228.844L241.161 188.975Z" fill="#27DEBF"/>
<path opacity="0.15" d="M241.161 188.975L259.433 178.426L328.488 218.295L310.216 228.844L241.161 188.975Z" fill="black"/>
<path d="M157.883 290.997L202.565 316.795V307.413L157.882 281.616L157.883 290.997Z" fill="#27DEBF"/>
<path opacity="0.15" d="M157.883 290.997L202.565 316.795V307.413L157.882 281.616L157.883 290.997Z" fill="black"/>
<path d="M220.978 327.271L306.014 278.176C307.21 277.486 308.179 275.807 308.179 274.426V262.854L239.124 222.985L149.76 274.58L149.759 286.151C149.759 287.532 150.728 289.211 151.924 289.901L157.883 293.342V286.306L202.566 312.103V319.139L216.649 327.27C217.843 327.961 219.782 327.961 220.978 327.271Z" fill="#27DEBF"/>
<path opacity="0.5" d="M220.978 327.271L306.014 278.176C307.21 277.486 308.179 275.807 308.179 274.426V262.854L239.124 222.985L149.76 274.58L149.759 286.151C149.759 287.532 150.728 289.211 151.924 289.901L157.883 293.342V286.306L202.566 312.103V319.139L216.649 327.27C217.843 327.961 219.782 327.961 220.978 327.271Z" fill="white"/>
<path d="M218.812 314.449L308.178 262.854L239.123 222.985L149.759 274.581L218.812 314.449Z" fill="#27DEBF"/>
<path opacity="0.15" d="M218.812 314.449L308.178 262.854L239.123 222.985L149.759 274.581L218.812 314.449Z" fill="black"/>
<path d="M308.178 262.854V276.925L220.977 327.27C219.786 327.958 218.812 327.395 218.812 326.02V314.449L308.178 262.854Z" fill="#27DEBF"/>
<path opacity="0.7" d="M308.178 262.854V276.925L220.977 327.27C219.786 327.958 218.812 327.395 218.812 326.02V314.449L308.178 262.854Z" fill="white"/>
<path d="M157.883 293.342L159.914 292.169V287.479L157.882 286.306L157.883 293.342Z" fill="#27DEBF"/>
<path opacity="0.35" d="M157.883 293.342L159.914 292.169V287.479L157.882 286.306L157.883 293.342Z" fill="black"/>
<path d="M228.969 313.278C230.09 312.63 231 313.155 231 314.451C231 315.746 230.091 317.321 228.969 317.969C227.847 318.616 226.938 318.091 226.938 316.796C226.938 315.5 227.847 313.925 228.969 313.278Z" fill="#455A64"/>
<path d="M300.053 272.235C300.053 272.235 300.053 273.285 300.053 274.58C300.053 275.875 298.115 278.044 295.723 279.425L243.453 309.603C241.062 310.984 239.123 311.053 239.123 309.758V307.413L300.053 272.235Z" fill="#455A64"/>
<path d="M220.978 310.854L306.014 261.759C307.21 261.069 308.179 259.39 308.179 258.009V246.437L239.124 206.568L149.76 258.163L149.759 269.734C149.759 271.115 150.728 272.794 151.924 273.484L216.648 310.853C217.843 311.545 219.782 311.545 220.978 310.854Z" fill="#27DEBF"/>
<path opacity="0.5" d="M220.978 310.854L306.014 261.759C307.21 261.069 308.179 259.39 308.179 258.009V246.437L239.124 206.568L149.76 258.163L149.759 269.734C149.759 271.115 150.728 272.794 151.924 273.484L216.648 310.853C217.843 311.545 219.782 311.545 220.978 310.854Z" fill="white"/>
<path d="M218.812 298.033L308.178 246.438L239.123 206.569L149.759 258.164L218.812 298.033Z" fill="#27DEBF"/>
<path opacity="0.15" d="M218.812 298.033L308.178 246.438L239.123 206.569L149.759 258.164L218.812 298.033Z" fill="black"/>
<path d="M308.178 246.438V260.509L220.977 310.854C219.786 311.542 218.812 310.979 218.812 309.604V298.033L308.178 246.438Z" fill="#27DEBF"/>
<path opacity="0.7" d="M308.178 246.438V260.509L220.977 310.854C219.786 311.542 218.812 310.979 218.812 309.604V298.033L308.178 246.438Z" fill="white"/>
<path d="M228.969 296.86C230.09 296.212 231 296.737 231 298.033C231 299.328 230.091 300.903 228.969 301.551C227.847 302.198 226.938 301.673 226.938 300.378C226.938 299.083 227.847 297.508 228.969 296.86Z" fill="#455A64"/>
<path d="M300.053 255.819C300.053 255.819 300.053 256.869 300.053 258.164C300.053 259.459 298.115 261.628 295.723 263.009L243.453 293.187C241.062 294.568 239.123 294.637 239.123 293.342V290.997L300.053 255.819Z" fill="#455A64"/>
<path d="M220.978 294.438L306.014 245.343C307.21 244.653 308.179 242.974 308.179 241.593V230.021L239.124 190.152L149.76 241.747L149.759 253.318C149.759 254.699 150.728 256.378 151.924 257.068L216.648 294.437C217.843 295.129 219.782 295.129 220.978 294.438Z" fill="#27DEBF"/>
<path opacity="0.5" d="M220.978 294.438L306.014 245.343C307.21 244.653 308.179 242.974 308.179 241.593V230.021L239.124 190.152L149.76 241.747L149.759 253.318C149.759 254.699 150.728 256.378 151.924 257.068L216.648 294.437C217.843 295.129 219.782 295.129 220.978 294.438Z" fill="white"/>
<path d="M218.812 281.617L308.178 230.022L239.123 190.152L149.759 241.748L218.812 281.617Z" fill="#27DEBF"/>
<path opacity="0.15" d="M218.812 281.617L308.178 230.022L239.123 190.152L149.759 241.748L218.812 281.617Z" fill="black"/>
<path d="M308.178 230.022V244.093L220.977 294.438C219.786 295.126 218.812 294.563 218.812 293.188V281.617L308.178 230.022Z" fill="#27DEBF"/>
<path opacity="0.7" d="M308.178 230.022V244.093L220.977 294.438C219.786 295.126 218.812 294.563 218.812 293.188V281.617L308.178 230.022Z" fill="white"/>
<path d="M228.969 280.444C230.09 279.796 231 280.321 231 281.616C231 282.911 230.091 284.486 228.969 285.134C227.847 285.781 226.938 285.256 226.938 283.961C226.938 282.667 227.847 281.092 228.969 280.444Z" fill="#455A64"/>
<path d="M300.053 239.403C300.053 239.403 300.053 240.453 300.053 241.748C300.053 243.043 298.115 245.212 295.723 246.593L243.453 276.771C241.062 278.152 239.123 278.221 239.123 276.926V274.581L300.053 239.403Z" fill="#455A64"/>
<path d="M218.812 279.271L328.488 215.95V164.355L259.433 124.486L149.758 187.807V239.402L218.812 279.271Z" fill="#27DEBF"/>
<path opacity="0.7" d="M218.812 279.271L328.488 215.95V164.355L259.433 124.486L149.758 187.807V239.402L218.812 279.271Z" fill="white"/>
<path d="M328.488 164.355L218.814 227.677L149.758 187.807L259.433 124.486L328.488 164.355Z" fill="#263238"/>
<path d="M218.813 246.438L218.812 279.271L149.758 239.402L149.759 206.568L218.813 246.438Z" fill="#27DEBF"/>
<path opacity="0.5" d="M218.813 246.438L218.812 279.271L149.758 239.402L149.759 206.568L218.813 246.438Z" fill="white"/>
<path d="M149.758 187.807V206.569L218.813 246.438L218.814 227.677L149.758 187.807Z" fill="#37474F"/>
<path d="M218.814 227.677L316.301 171.391L316.302 185.469C316.302 188.367 314.756 191.046 312.246 192.495L218.813 246.438L218.814 227.677Z" fill="#455A64"/>
<path d="M312.24 185.463C312.24 184.168 311.33 183.643 310.209 184.29C309.087 184.938 308.178 186.513 308.178 187.808C308.178 189.103 309.088 189.628 310.209 188.981C311.331 188.333 312.24 186.758 312.24 185.463Z" fill="#FAFAFA"/>
<path d="M301.951 189.058L290.033 195.939C288.837 196.629 287.868 198.239 287.868 199.534C287.868 200.829 288.838 201.319 290.033 200.629L301.951 193.749C303.147 193.059 304.116 191.449 304.116 190.154C304.116 188.859 303.146 188.368 301.951 189.058Z" fill="#FAFAFA"/>
<path d="M328.485 154.981V162.011L316.305 169.041V162.011C316.305 147.501 308.555 134.091 295.985 126.831L247.245 98.6914L259.435 91.6514L308.175 119.791C320.745 127.051 328.485 140.461 328.485 154.981Z" fill="#27DEBF"/>
<path opacity="0.7" d="M328.485 154.981V162.011L316.305 169.041V162.011C316.305 147.501 308.555 134.091 295.985 126.831L247.245 98.6914L259.435 91.6514L308.175 119.791C320.745 127.051 328.485 140.461 328.485 154.981Z" fill="white"/>
<path d="M218.813 218.302V225.332L149.759 185.464V154.975L198.5 183.116C211.07 190.373 218.813 203.786 218.813 218.302Z" fill="#37474F"/>
<path d="M316.305 162.011V169.051L218.815 225.331V218.301C218.815 203.781 211.065 190.371 198.495 183.111L149.755 154.971L247.245 98.6914L295.985 126.831C308.555 134.091 316.305 147.501 316.305 162.011Z" fill="#455A64"/>
<path d="M166.007 274.582V239.403L168.039 238.229L196.471 254.646V289.825L194.439 290.999L166.007 274.582Z" fill="#27DEBF"/>
<path opacity="0.15" d="M166.007 274.582V239.403L168.039 238.229L196.471 254.646V289.825L194.439 290.999L166.007 274.582Z" fill="black"/>
<path d="M166.007 274.581V239.402L194.439 255.818V290.998L166.007 274.581Z" fill="#27DEBF"/>
<path opacity="0.6" d="M166.007 274.581V239.402L194.439 255.818V290.998L166.007 274.581Z" fill="white"/>
<path d="M168.039 238.229L166.007 239.403L194.439 255.819L196.471 254.646L168.039 238.229Z" fill="#27DEBF"/>
<path opacity="0.8" d="M168.039 238.229L166.007 239.403L194.439 255.819L196.471 254.646L168.039 238.229Z" fill="white"/>
<path d="M279.505 129.331C279.505 129.022 279.301 128.712 278.892 128.476L249.457 111.481C248.64 111.009 247.314 111.009 246.497 111.481L203.177 136.492C202.768 136.728 202.564 137.037 202.564 137.346V138.69C202.567 138.997 202.771 139.303 203.177 139.537L232.613 156.531C233.43 157.003 234.756 157.003 235.573 156.531L278.892 131.521C279.295 131.288 279.499 130.984 279.505 130.679V129.331Z" fill="#EBEBEB"/>
<path d="M203.177 136.493L246.497 111.482C247.314 111.01 248.64 111.01 249.457 111.482L278.892 128.477C279.709 128.949 279.709 129.714 278.892 130.186L235.573 155.196C234.756 155.668 233.43 155.668 232.613 155.196L203.177 138.202C202.36 137.73 202.36 136.965 203.177 136.493Z" fill="white"/>
<path d="M234.091 155.55V156.883C233.555 156.883 233.02 156.769 232.61 156.53L203.182 139.543C202.772 139.304 202.567 138.996 202.567 138.688V137.344C202.567 137.663 202.772 137.959 203.182 138.199L232.61 155.197C233.02 155.436 233.555 155.55 234.091 155.55Z" fill="#27DEBF"/>
<path d="M279.505 127.245C279.505 126.936 279.301 126.626 278.892 126.39L249.457 109.396C248.64 108.924 247.315 108.924 246.497 109.396L203.177 134.407C202.769 134.643 202.564 134.951 202.564 135.26V136.605C202.567 136.912 202.771 137.218 203.177 137.452L232.613 154.446C233.43 154.918 234.756 154.918 235.573 154.446L278.892 129.435C279.295 129.202 279.499 128.899 279.504 128.594L279.505 127.245Z" fill="#EBEBEB"/>
<path d="M203.177 134.407L246.497 109.396C247.314 108.924 248.64 108.924 249.457 109.396L278.892 126.39C279.709 126.862 279.709 127.627 278.892 128.099L235.573 153.109C234.756 153.581 233.43 153.581 232.613 153.109L203.177 136.116C202.36 135.644 202.36 134.879 203.177 134.407Z" fill="white"/>
<path d="M234.091 153.464V154.797C233.555 154.797 233.02 154.683 232.61 154.444L203.182 137.457C202.772 137.218 202.567 136.91 202.567 136.602V135.258C202.567 135.577 202.772 135.873 203.182 136.112L232.61 153.11C233.02 153.35 233.555 153.464 234.091 153.464Z" fill="#27DEBF"/>
<path d="M161.944 152.629L206.627 178.427L259.434 147.939V133.868L214.751 108.07L174.131 131.522C166.589 135.876 161.944 143.922 161.944 152.629Z" fill="#455A64"/>
<path d="M259.433 133.867L218.813 157.319C211.272 161.673 206.627 169.718 206.627 178.425V178.426L259.434 147.938L259.433 133.867Z" fill="#263238"/>
<path d="M209.895 166.241C207.785 169.881 206.625 174.071 206.625 178.421V178.431L161.945 152.631C161.945 148.271 163.105 144.091 165.205 140.441L209.895 166.241Z" fill="#37474F"/>
<path d="M182.254 136.213L214.751 117.449L239.123 131.522L206.626 150.284L182.254 136.213Z" fill="#37474F"/>
<path d="M184.286 137.386L206.626 150.284L237.091 132.695L214.751 119.795L184.286 137.386Z" fill="#27DEBF"/>
<path d="M214.751 117.449V119.795L184.286 137.386L182.254 136.213L214.751 117.449Z" fill="#263238"/>
<path opacity="0.4" d="M206.283 146.542L205.249 145.945C204.923 145.757 204.923 145.452 205.249 145.263L208.499 143.387C208.825 143.199 209.354 143.199 209.68 143.387L210.715 143.984C211.041 144.172 211.041 144.477 210.715 144.666L207.465 146.542C207.138 146.73 206.609 146.73 206.283 146.542Z" fill="black"/>
<path opacity="0.4" d="M212.929 142.705L211.895 142.108C211.569 141.92 211.569 141.615 211.895 141.426L215.145 139.55C215.471 139.362 216 139.362 216.326 139.55L217.361 140.147C217.687 140.335 217.687 140.64 217.361 140.829L214.111 142.705C213.784 142.893 213.255 142.893 212.929 142.705Z" fill="black"/>
<path opacity="0.4" d="M219.576 138.868L218.541 138.271C218.215 138.083 218.215 137.778 218.541 137.589L221.791 135.713C222.117 135.525 222.646 135.525 222.972 135.713L224.007 136.31C224.333 136.498 224.333 136.803 224.007 136.992L220.757 138.868C220.43 139.057 219.902 139.057 219.576 138.868Z" fill="black"/>
<path opacity="0.4" d="M226.221 135.031L225.187 134.434C224.861 134.246 224.861 133.941 225.187 133.752L228.436 131.876C228.762 131.688 229.291 131.688 229.617 131.876L230.652 132.473C230.978 132.661 230.978 132.966 230.652 133.155L227.402 135.031C227.076 135.22 226.548 135.22 226.221 135.031Z" fill="black"/>
<g opacity="0.4">
<path d="M194.157 136.882C194.645 136.6 195.923 136.162 196.339 136.079L196.734 136.619L195.602 136.853C195.248 136.925 194.906 137.05 194.646 137.201C193.618 137.795 194.065 138.688 195.924 139.762C197.782 140.835 199.33 141.093 200.359 140.5C200.619 140.35 200.847 140.158 200.972 139.955L201.356 139.289L202.301 139.523C202.156 139.762 201.398 140.5 200.909 140.782L200.742 140.878C199.101 141.826 196.65 141.682 194.635 140.519C192.599 139.343 192.349 137.928 193.99 136.981L194.157 136.882Z" fill="black"/>
<path d="M206.002 133.93C208.037 135.105 208.256 136.538 206.552 137.522C204.849 138.505 202.367 138.379 200.331 137.204C198.316 136.04 198.098 134.607 199.801 133.623C201.504 132.639 203.986 132.766 206.002 133.93ZM201.598 136.485C203.447 137.552 205.068 137.756 206.231 137.085C207.114 136.575 206.605 135.73 204.766 134.668C202.917 133.601 201.297 133.385 200.133 134.056C199.25 134.566 199.76 135.423 201.598 136.485Z" fill="black"/>
<path d="M206.878 129.646C208.457 128.735 210.43 128.663 211.801 129.454C213.276 130.306 213.214 131.481 211.635 132.392L210.275 133.178L212.092 134.227L210.887 134.923L204.313 131.127L206.878 129.646ZM209.755 132.879L210.856 132.243C211.926 131.625 211.822 130.906 210.555 130.174C209.402 129.509 208.207 129.478 207.137 130.096L206.036 130.732L209.755 132.879Z" fill="black"/>
<path d="M210.486 127.588L211.69 126.76L217.257 127.767L216.997 127.258C216.696 126.689 215.761 125.201 215.065 124.799L216.186 124.283L218.014 127.749L220.662 129.278L219.458 129.974L217.256 128.703L210.486 127.588Z" fill="black"/>
</g>
<path d="M159.644 199.834L204.326 225.632V231.322L159.643 205.525L159.644 199.834Z" fill="#263238"/>
<path opacity="0.15" d="M202.565 228.733V255.819L161.944 232.366V205.877L202.565 228.733Z" fill="black"/>
<path d="M202.565 226.131L161.944 202.679L115.601 216.056C114.889 216.261 114.529 216.607 114.532 216.99C114.535 217.321 114.536 219.202 114.532 219.581C114.529 219.915 114.803 220.278 115.364 220.602L151.654 241.554C152.85 242.244 154.894 242.493 156.221 242.111L202.563 228.733V226.131H202.565Z" fill="#37474F"/>
<path d="M202.565 226.131L156.222 239.509C154.896 239.892 152.851 239.643 151.655 238.952L115.365 218C114.169 217.31 114.275 216.44 115.602 216.057L161.945 202.679L202.565 226.131Z" fill="#455A64"/>
<path d="M153.815 239.616V242.226C153.015 242.116 152.235 241.886 151.655 241.556L115.365 220.606C114.805 220.276 114.525 219.916 114.535 219.586V216.986C114.535 217.316 114.805 217.676 115.365 217.996L151.655 238.956C152.235 239.296 153.015 239.516 153.815 239.616Z" fill="#263238"/>
<path d="M193.559 221.06C193.558 220.894 193.421 220.714 193.143 220.553L166.874 205.386C166.276 205.041 165.254 204.917 164.591 205.109L124.07 216.86C123.714 216.963 123.534 217.137 123.536 217.329C123.538 217.494 123.535 219.071 123.536 219.262C123.537 219.428 123.674 219.608 123.952 219.768L150.222 234.935C150.82 235.28 151.842 235.404 152.505 235.212L193.025 223.461C193.373 223.36 193.553 223.192 193.559 223.005C193.564 222.836 193.56 221.251 193.559 221.06Z" fill="#EBEBEB"/>
<path d="M193.025 221.526L152.505 233.277C151.842 233.469 150.82 233.345 150.222 233L123.952 217.833C123.354 217.488 123.407 217.052 124.07 216.86L164.591 205.109C165.254 204.917 166.276 205.041 166.874 205.386L193.143 220.552C193.741 220.898 193.688 221.334 193.025 221.526Z" fill="#FAFAFA"/>
<path d="M193.56 221.06V223.01C193.55 223.19 193.37 223.36 193.03 223.46L152.51 235.21C152.22 235.3 151.87 235.31 151.52 235.28V233.36C151.87 233.39 152.22 233.36 152.51 233.28L193.03 221.53C193.38 221.42 193.56 221.25 193.56 221.06Z" fill="#F0F0F0"/>
<path d="M414.636 245.922H405.285V262.595H414.636V245.922Z" fill="#FFA8A7"/>
<path d="M382.214 245.033L372.868 245.367L372.401 227.723L382.214 227.388V245.033Z" fill="#FFA8A7"/>
<path d="M415.952 101.569C415.952 110.869 415.723 186.06 415.723 186.06C415.941 188.736 417.21 193.326 416.688 203.605C415.98 217.567 415.035 254.259 415.035 254.259C415.035 254.259 410.496 257.022 404.624 254.473C404.624 254.473 395.779 203.653 394.103 189.816C392.641 177.74 390.16 137.082 390.16 137.082L385.091 184.357C385.091 184.357 386.815 191.559 386.25 199.835C385.813 206.235 382.806 239.567 382.806 239.567C382.806 239.567 378.405 242.678 372.009 240.427C372.009 240.427 365.116 189.941 365.008 184.069C364.885 177.374 367.717 101.468 367.717 101.468L415.952 101.569Z" fill="#455A64"/>
<path d="M405.285 257.788V256.395C404.39 256.801 402.311 265.062 398.601 268.587C395.651 271.389 391.628 274.625 390.604 277.749C389.54 280.998 396.207 282.792 398.963 282.283C402.165 281.692 407.714 279.344 409.108 277.168C410.501 274.991 411.154 271.78 412.285 270.185C413.417 268.59 416.027 266.808 416.639 264.962C416.975 263.948 416.576 261.726 416.103 259.849C415.669 258.127 415.2 256.233 414.635 256.395C414.633 256.605 414.635 257.457 414.635 257.457C413.956 258.241 412.078 259.018 409.96 259.103C408.592 259.157 405.273 258.875 405.285 257.788Z" fill="#263238"/>
<path d="M372.769 242.364C372.283 242.382 371.888 243.095 370.817 244.303C369.523 245.762 367.406 247.336 365.316 248.425C361.815 250.251 355.007 253.059 351.926 254.505C350.001 255.408 350.091 257.829 352.081 259.207C354.071 260.585 358.874 261.578 364.642 260.234C367.784 259.502 371.874 256.48 374.463 256.643C377.052 256.806 381.896 256.767 383.807 255.395C385.718 254.024 384.953 251.093 384.413 248.576C383.824 245.828 383.086 241.543 382.213 241.731V242.678C381.089 244.451 375.287 245.173 372.818 243.868L372.769 242.364Z" fill="#263238"/>
<path d="M390.16 137.082C390.16 137.082 382.686 134.889 377.138 129.306C377.138 129.306 379.651 134.206 387.123 138.766L385.525 180.984L390.16 137.082Z" fill="#263238"/>
<path d="M382.377 47.0944C373.781 45.5374 369.448 46.6084 365.774 53.8474C362.597 60.1084 355.087 76.4834 354.375 79.9274C353.738 83.0084 359.348 102.606 359.348 102.606L373.474 101.035L368.784 83.4364L378.186 64.6934L382.377 47.0944Z" fill="#455A64"/>
<path d="M411.323 53.2476C411.323 53.2476 421.582 54.5636 419.342 69.1446L416.268 87.6566L416.313 120.981C409.436 128.772 372.72 125.59 366.871 111.419C366.871 111.419 367.808 82.0826 368.513 66.9076C369.014 56.1196 372.928 45.1506 384.925 47.3876L397.029 48.9106L411.323 53.2476Z" fill="#27DEBF"/>
<path opacity="0.1" d="M390.307 58.1514L388.628 69.8594L384.417 67.9194L389.129 70.4824L390.307 58.1514Z" fill="black"/>
<path d="M399.802 20.6279C399.802 28.3269 393.81 34.5679 386.419 34.5679C379.028 34.5679 373.369 28.3199 373.035 20.6289C372.445 7.01694 379.027 6.68994 386.419 6.68994C393.81 6.68894 399.802 12.9299 399.802 20.6279Z" fill="#263238"/>
<path d="M407.89 15.2262C406.327 12.7832 404.855 13.1522 404.855 13.1522L403.824 25.0112L402.174 25.3492L402.03 41.3562C402.03 41.3562 403.226 40.8412 404.05 39.1902C404.607 38.0732 405.789 31.3022 406.455 27.2442C406.455 27.2442 409.23 17.3212 407.89 15.2262Z" fill="#263238"/>
<path d="M402.404 28.0079C403.179 28.4899 404.286 26.9389 405.242 25.8969C406.198 24.8549 409.32 23.4309 410.877 26.8479C412.463 30.3299 409.502 34.9319 407.045 35.7349C402.81 37.1199 402.174 34.2899 402.174 34.2899L401.851 50.1999C396.229 58.8959 383.494 58.582 388.073 49.779L388.085 44.9369C388.085 44.9369 384.248 45.5439 382.376 45.2419C379.261 44.7409 377.302 42.1809 376.357 38.6699C374.84 33.0299 374.263 28.4769 375.551 17.3849C376.962 5.22795 390.538 5.10194 397.869 9.90794C405.2 14.7149 402.404 28.0079 402.404 28.0079Z" fill="#FFA8A7"/>
<path d="M401.923 46.6342C401.923 46.6342 399.945 50.9112 396.416 53.5332C393.173 55.9432 389.754 56.3642 389.754 56.3642C389.754 56.3642 393.053 58.5482 394.455 61.6412C395.857 64.7342 405.839 57.5962 405.75 51.5552C405.75 51.5552 404.108 44.1112 401.982 43.7212L401.923 46.6342Z" fill="#455A64"/>
<path d="M389.755 56.365C389.755 56.365 386.705 54.849 388.073 49.78L388.085 44.938L386.748 45.117C385.708 46.054 384.07 48.259 383.534 50.685C383.228 52.071 382.476 59.097 383.816 60.492C385.035 61.763 387.022 56.742 389.755 56.365Z" fill="#455A64"/>
<path d="M381.788 16.5362C388.084 16.6982 391.992 15.3692 397.2 14.7522C397.552 14.7102 397.925 14.6752 398.248 14.8212C399.398 15.3432 399.645 18.9202 399.848 19.9542C400.529 23.4362 401.094 29.3392 402.404 29.3652C402.794 29.3731 404.277 26.8102 405.242 25.8951C406.579 24.6281 404.856 13.1582 404.854 13.1502C404.794 12.7512 405.151 12.0322 405.17 11.5901C405.218 10.4811 404.862 9.63615 404.352 8.68615C403.378 6.87215 401.569 5.61315 399.686 4.87715C396.158 3.49815 392.282 3.66716 388.778 2.09116C387.377 1.46116 386.064 0.608156 384.581 0.204156C383.099 -0.199844 381.328 -0.051845 380.29 1.08016C379.603 1.82816 379.351 2.87015 379.182 3.87215C378.448 2.90915 377.667 1.90815 376.56 1.41715C374.511 0.508153 371.971 1.78415 370.918 3.76215C369.865 5.74115 370.025 8.16415 370.675 10.3092C370.888 11.0102 371.152 11.7022 371.541 12.3222C373.505 15.4562 378.383 16.4492 381.788 16.5362Z" fill="#263238"/>
<path d="M404.847 13.7583L409.535 11.1373C408.87 9.73825 407.281 9.19025 405.986 9.91425C404.692 10.6383 404.181 12.3593 404.847 13.7583Z" fill="#263238"/>
<path d="M388.084 44.9384C388.084 44.9384 395.036 43.4794 397.467 42.1344C399.094 41.2334 400.434 39.6724 400.827 38.6714C400.827 38.6714 400.371 40.8204 398.918 42.7554C397.14 45.1224 388.084 46.8654 388.084 46.8654V44.9384Z" fill="#F28F8F"/>
<path d="M389.755 26.1971C389.755 27.0301 390.379 27.7031 391.148 27.7011C391.918 27.6991 392.541 27.0221 392.541 26.1891C392.541 25.3561 391.917 24.6831 391.148 24.6851C390.379 24.6881 389.755 25.3651 389.755 26.1971Z" fill="#263238"/>
<path d="M391.492 20.8539L394.472 22.5669C394.911 21.6749 394.6 20.5689 393.777 20.0959C392.954 19.6229 391.931 19.9619 391.492 20.8539Z" fill="#263238"/>
<path d="M388.714 36.2212L385.533 37.4642C385.848 38.4132 386.815 38.9052 387.693 38.5622C388.572 38.2182 389.029 37.1702 388.714 36.2212Z" fill="#F28F8F"/>
<path d="M377.24 22.6841L379.958 20.5041C379.403 19.6931 378.346 19.5251 377.596 20.1271C376.844 20.7281 376.685 21.8731 377.24 22.6841Z" fill="#263238"/>
<path d="M378.168 25.784C378.168 26.617 378.792 27.29 379.561 27.287C380.33 27.285 380.954 26.608 380.954 25.776C380.954 24.943 380.33 24.27 379.561 24.272C378.792 24.275 378.168 24.951 378.168 25.784Z" fill="#263238"/>
<path d="M385.624 24.6191L385.462 33.4191L380.468 32.2731L385.624 24.6191Z" fill="#F28F8F"/>
<path d="M333.882 121.062L376.294 145.595V119.581L333.881 95.0483L333.882 121.062Z" fill="#E0E0E0"/>
<path d="M405.694 128.62L376.294 145.595V119.581L405.695 102.606L405.694 128.62Z" fill="#F0F0F0"/>
<path d="M333.881 95.0482L363.283 78.0742L405.695 102.606L376.294 119.581L333.881 95.0482Z" fill="#FAFAFA"/>
<path opacity="0.1" d="M355.984 116.557L376.294 128.283L388.48 121.247L376.294 129.009L355.984 116.557Z" fill="black"/>
<path opacity="0.1" d="M343.797 116.075L376.294 134.837L400.666 120.766L376.294 135.546L343.797 116.075Z" fill="black"/>
<path opacity="0.1" d="M337.961 104.7C337.961 104.7 337.289 108.495 337.626 110.415C337.626 110.415 342.945 110.284 351.921 112.76L337.961 104.7Z" fill="black"/>
<path d="M337.961 104.7L351.922 112.76L336.475 108.301L337.961 104.7Z" fill="#FAFAFA"/>
<path opacity="0.1" d="M355.984 127.186L371.289 141.258C371.289 141.258 371.714 139.324 374.652 137.964L355.984 127.186Z" fill="black"/>
<path d="M355.984 127.186L370.357 139.289L374.651 137.964L355.984 127.186Z" fill="#FAFAFA"/>
<path opacity="0.1" d="M400.796 112.951C400.716 112.827 400.666 112.76 400.666 112.76L390.994 118.344L401.88 117.45C402.255 115.43 401.179 113.543 400.796 112.951Z" fill="black"/>
<path d="M390.995 118.344L400.666 112.76L403.887 114.459L390.995 118.344Z" fill="#FAFAFA"/>
<g opacity="0.3">
<path d="M341.354 96.8572C341.225 96.8572 341.099 96.7902 341.029 96.6692C340.926 96.4902 340.987 96.2602 341.167 96.1572L365.539 82.0852C365.718 81.9832 365.947 82.0432 366.052 82.2222C366.156 82.4012 366.094 82.6312 365.914 82.7342L341.542 96.8062C341.483 96.8412 341.417 96.8572 341.354 96.8572Z" fill="#455A64"/>
<path d="M345.415 99.2024C345.286 99.2024 345.16 99.1354 345.09 99.0144C344.986 98.8354 345.048 98.6054 345.228 98.5024L369.6 84.4314C369.778 84.3294 370.008 84.3894 370.113 84.5684C370.216 84.7474 370.155 84.9774 369.975 85.0804L345.603 99.1514C345.544 99.1864 345.479 99.2024 345.415 99.2024Z" fill="#455A64"/>
<path d="M349.478 101.547C349.349 101.547 349.223 101.48 349.153 101.359C349.049 101.18 349.111 100.95 349.291 100.847L373.663 86.7761C373.842 86.6721 374.071 86.7341 374.176 86.9131C374.279 87.0921 374.218 87.3221 374.038 87.4251L349.666 101.496C349.607 101.531 349.541 101.547 349.478 101.547Z" fill="#455A64"/>
<path d="M353.54 103.893C353.411 103.893 353.285 103.826 353.215 103.705C353.111 103.526 353.173 103.296 353.353 103.193L377.724 89.1213C377.899 89.0183 378.13 89.0773 378.237 89.2583C378.341 89.4373 378.279 89.6673 378.099 89.7703L353.728 103.842C353.669 103.877 353.604 103.893 353.54 103.893Z" fill="#455A64"/>
<path d="M357.602 106.238C357.473 106.238 357.347 106.171 357.277 106.05C357.173 105.871 357.235 105.641 357.415 105.538L381.787 91.4673C381.965 91.3643 382.195 91.4263 382.3 91.6043C382.404 91.7833 382.342 92.0133 382.162 92.1163L357.79 106.187C357.731 106.222 357.665 106.238 357.602 106.238Z" fill="#455A64"/>
<path d="M361.664 108.583C361.535 108.583 361.409 108.516 361.339 108.395C361.235 108.216 361.297 107.986 361.477 107.883L385.848 93.812C386.027 93.709 386.256 93.771 386.361 93.949C386.465 94.128 386.403 94.358 386.223 94.461L361.852 108.532C361.793 108.567 361.728 108.583 361.664 108.583Z" fill="#455A64"/>
<path d="M365.726 110.929C365.597 110.929 365.471 110.862 365.401 110.741C365.298 110.562 365.359 110.332 365.539 110.229L389.911 96.157C390.09 96.055 390.319 96.115 390.424 96.294C390.528 96.473 390.466 96.703 390.286 96.806L365.914 110.878C365.855 110.913 365.789 110.929 365.726 110.929Z" fill="#455A64"/>
<path d="M369.788 113.274C369.659 113.274 369.533 113.207 369.463 113.086C369.36 112.907 369.421 112.677 369.601 112.574L393.973 98.5035C394.151 98.4015 394.381 98.4625 394.486 98.6405C394.59 98.8195 394.528 99.0495 394.348 99.1525L369.976 113.223C369.917 113.258 369.852 113.274 369.788 113.274Z" fill="#455A64"/>
<path d="M373.85 115.62C373.721 115.62 373.595 115.553 373.525 115.432C373.422 115.253 373.483 115.023 373.663 114.92L398.035 100.849C398.214 100.747 398.443 100.808 398.548 100.986C398.651 101.165 398.59 101.395 398.41 101.498L374.038 115.569C373.979 115.603 373.913 115.62 373.85 115.62Z" fill="#455A64"/>
</g>
<path d="M414.416 54.4131C417.805 55.2971 420.807 56.2861 423.037 60.6981C425.894 66.3501 438.263 96.3851 437.874 98.6891C437.177 102.814 419.406 120.195 413.666 126.832C409.867 131.225 402.736 135.419 396.605 137.473C391.212 139.279 390.512 137.385 390.512 137.385L401.784 130.877C402.433 130.441 403.852 128.796 402.186 128.784C400.834 128.774 399.481 128.945 398.131 128.834C396.98 128.739 395.839 128.604 394.905 127.858C394.699 127.693 394.497 127.485 394.471 127.222C394.447 126.986 394.573 126.759 394.73 126.58C394.939 126.341 395.494 126.2 395.798 126.085C396.21 125.928 396.636 125.809 397.063 125.701C397.928 125.482 398.81 125.328 399.664 125.066C401.015 124.652 402.247 124.359 403.237 124.014C404.054 123.73 405.055 123.392 406.462 121.453C408.548 118.58 409.969 116.212 410.683 115.106C412.81 111.813 420.518 100.136 422.736 96.6271L410.883 74.6921C407.02 69.0551 408.79 54.4131 414.416 54.4131Z" fill="#FFA8A7"/>
<path d="M411.842 53.353C411.842 53.353 418.286 54.875 420.277 56.475C422.268 58.075 423.754 60.383 427.29 68.484C430.826 76.585 437.078 93.724 437.882 96.061C438.686 98.398 439.06 99.698 434.95 104.412C431.98 107.819 427.926 111.528 427.926 111.528C427.926 111.528 420.431 110.553 418.355 103.38L422.139 96.627C422.139 96.627 410.954 76.844 409.534 72.609C408.115 68.374 406.804 60.905 411.842 53.353Z" fill="#455A64"/>
</svg>
