<svg width="409" height="262" viewBox="0 0 409 262" fill="none" xmlns="http://www.w3.org/2000/svg">
<path d="M32.5693 186.291C32.5693 186.291 -14.8602 123.816 5.13594 126.794C25.1319 129.772 41.5447 158.453 41.5447 158.453C41.5447 158.453 22.5736 81.68 28.7111 78.1226C34.8486 74.5651 33.4461 67.6536 27.1636 49.8069C20.881 31.9602 44.6953 43.5442 47.6667 56.0543C50.6381 68.5645 59.9318 101.578 70.7129 109.974C81.4941 118.37 86.9597 124.423 86.9597 124.423L154.484 62.3894C154.484 62.3894 175.498 38.0602 187.863 34.1805C200.228 30.301 178.89 56.3527 180.622 58.2629C182.353 60.173 222.453 5.97437 233.643 16.6714C244.833 27.3685 209.861 57.5164 209.861 57.5164L302.053 62.3894C302.053 62.3894 342.895 61.848 348.588 51.7047C354.282 41.5614 363.429 41.5614 368.875 41.5614C374.322 41.5614 390.613 46.3557 377.609 54.1597C364.605 61.9638 363.998 63.3667 366.427 74.0664C368.856 84.7663 356.269 105.012 341.821 112.05C327.373 119.089 307.875 144.284 307.875 144.284L308.577 168.369C308.577 168.369 376.159 119.682 384.654 130.428C393.148 141.173 348.588 172.03 348.588 172.03C348.588 172.03 348.991 186.846 345.26 197.613C341.528 208.381 325.862 208.812 316.326 213.994C306.79 219.177 357.871 211.718 363.971 196.548C370.071 181.377 413.796 166.51 407.723 183.245C401.65 199.979 396.283 209.008 396.283 209.008C396.283 209.008 412.52 210.972 408.3 221.678C404.079 232.383 365.072 239.157 351.478 239.37C337.885 239.584 101.084 237.74 101.084 237.74L32.5693 186.291Z" fill="#2B5DAD"/>
<path d="M116.463 199.585L121.254 233.881L304.565 238.833L309.092 198.61L116.463 199.585Z" fill="#1B45A1"/>
<path d="M130.067 236.364C130.067 236.364 121.448 145 74.743 117.031C28.0384 89.0616 25.6505 85.4839 25.6505 85.4839C25.6505 85.4839 23.004 150.342 54.2521 190.209C85.5002 230.076 118.702 238.093 118.702 238.093L130.067 236.364Z" fill="url(#paint0_linear_465_1443)"/>
<path d="M112.02 239.242C112.02 239.242 99.0619 189.288 60.4397 180.437C21.8176 171.586 0 183.009 0 183.009C0 183.009 20.4466 243.124 50.4247 246.613C84.2056 250.545 112.02 239.242 112.02 239.242Z" fill="url(#paint1_linear_465_1443)"/>
<path d="M114.401 239.6C114.232 239.6 114.061 239.535 113.928 239.403C113.804 239.282 101.339 227.094 82.1764 214.856C64.5185 203.579 37.3966 189.95 8.46589 189.061C8.08463 189.05 7.78475 188.718 7.79596 188.32C7.80704 187.922 8.12101 187.612 8.50657 187.621C21.4274 188.018 35.0628 190.935 49.0338 196.291C60.197 200.571 71.5995 206.409 82.9245 213.644C102.201 225.959 114.751 238.232 114.875 238.355C115.153 238.628 115.166 239.084 114.904 239.374C114.768 239.524 114.585 239.6 114.401 239.6Z" fill="#65ACE4"/>
<path d="M119.049 234.602C118.765 234.602 118.498 234.417 118.398 234.122C118.309 233.859 109.299 207.522 93.6594 175.618C84.8289 157.604 71.6717 144.907 58.9476 132.627C49.1253 123.148 39.8479 114.195 33.7861 103.722C33.5889 103.381 33.6937 102.938 34.0202 102.732C34.3467 102.526 34.7712 102.636 34.9683 102.977C40.929 113.275 50.1367 122.161 59.8852 131.569C72.6979 143.934 85.9468 156.719 94.889 174.961C110.572 206.955 119.61 233.377 119.7 233.64C119.827 234.015 119.639 234.427 119.28 234.56C119.203 234.588 119.125 234.602 119.049 234.602Z" fill="#65ACE4"/>
<path d="M22.7764 212.959C22.5397 212.959 22.3092 212.831 22.1807 212.603C21.9873 212.26 22.097 211.818 22.4257 211.617C32.6743 205.326 42.5267 202.867 48.9874 201.912C56.0021 200.875 60.5328 201.323 60.7221 201.343C61.1016 201.382 61.3785 201.735 61.3411 202.131C61.3037 202.526 60.964 202.815 60.5863 202.777C60.5412 202.772 55.9956 202.326 49.1327 203.346C42.8075 204.286 33.1611 206.699 23.1259 212.859C23.0159 212.927 22.8954 212.959 22.7764 212.959Z" fill="#65ACE4"/>
<path d="M41.1283 232.148C40.9485 232.148 40.7691 232.075 40.6338 231.93C40.3675 231.645 40.3733 231.189 40.6463 230.911C40.799 230.756 44.4642 227.06 51.2804 222.92C57.5596 219.107 67.7951 214.211 80.8976 212.542C81.2757 212.493 81.6204 212.775 81.6667 213.17C81.7129 213.565 81.4435 213.925 81.0649 213.973C68.1954 215.612 58.1422 220.421 51.975 224.166C45.3049 228.217 41.6465 231.907 41.6104 231.943C41.476 232.08 41.302 232.148 41.1283 232.148Z" fill="#65ACE4"/>
<path d="M65.802 148.408C64.8149 148.408 63.7571 148.386 62.6344 148.334C56.1078 148.033 46.1119 146.609 35.5545 141.535C35.208 141.368 35.0565 140.94 35.2161 140.579C35.3757 140.217 35.7862 140.06 36.1322 140.226C46.4862 145.202 56.2923 146.599 62.6954 146.894C69.6214 147.214 74.1343 146.352 74.179 146.343C74.5536 146.271 74.9147 146.528 74.9848 146.919C75.055 147.31 74.8079 147.687 74.433 147.76C74.2737 147.791 71.0428 148.408 65.802 148.408Z" fill="#65ACE4"/>
<path d="M76.7496 173.985C70.3098 173.985 61.3553 173.195 50.0505 170.331C49.6799 170.237 49.4524 169.847 49.5424 169.46C49.6325 169.074 50.0059 168.836 50.3763 168.93C64.8003 172.584 75.3235 172.823 81.611 172.38C88.4182 171.9 91.8623 170.54 91.896 170.526C92.2521 170.383 92.6514 170.567 92.7889 170.938C92.9266 171.309 92.7506 171.726 92.3955 171.87C92.2513 171.929 88.781 173.309 81.797 173.811C80.3372 173.916 78.6531 173.985 76.7496 173.985Z" fill="#65ACE4"/>
<path d="M363.569 243.023C359.626 241.394 354.966 239.633 350.072 237.74C326.729 228.707 256.305 218.612 200.141 222.571C184.668 223.661 140.506 229.383 119.048 229.652C95.4098 229.948 107.372 240.874 49.4048 243.17C-8.56263 245.466 17.9979 251.585 41.7149 257.586C57.347 261.541 102.02 260.282 147.495 258.965C146.138 259.15 146.295 259.155 148.295 258.942C155.51 258.733 162.741 258.523 169.875 258.333C196.423 258.662 234.967 261.325 263.491 261.571C301.431 261.897 375.998 263.972 382.566 254.82C385.883 250.199 376.875 246.039 363.569 243.023Z" fill="#1B45A1"/>
<path d="M122.365 69.8764C122.534 68.2982 122.623 66.6952 122.623 65.0701C122.623 64.2126 122.596 63.3616 122.549 62.5166L114.939 59.947C114.47 56.5986 113.55 53.4035 112.244 50.4312L117.29 43.9508C116.123 41.8074 114.785 39.7789 113.293 37.8869L105.682 40.4787C103.463 38.1135 100.928 36.0738 98.1468 34.4346L98.5797 26.0893C96.4557 25.0802 94.2349 24.2545 91.9355 23.6319L87.2356 30.4004C85.4037 30.0785 83.5224 29.9085 81.6028 29.9085C80.2943 29.9085 79.004 29.989 77.7344 30.1406L73.383 23.1216C71.0517 23.6165 68.7923 24.3179 66.6228 25.2064L66.6327 33.564C63.767 35.0498 61.1329 36.948 58.8019 39.1855L51.3348 36.1787C49.7481 37.988 48.3075 39.9393 47.0346 42.0135L51.7468 48.7644C50.2881 51.667 49.2062 54.8078 48.57 58.1173L40.8411 60.2637C40.6721 61.8419 40.5823 63.445 40.5823 65.0702C40.5823 65.9277 40.6093 66.7786 40.6569 67.6237L48.2672 70.1933C48.7356 73.5417 49.6557 76.7368 50.9618 79.7091L45.9157 86.1893C47.0829 88.3327 48.421 90.3613 49.913 92.2532L57.5244 89.6615C59.7428 92.0267 62.278 94.0663 65.0592 95.7055L64.6263 104.051C66.7503 105.06 68.9711 105.886 71.2705 106.508L75.9703 99.7398C77.8022 100.062 79.6835 100.232 81.603 100.232C82.9116 100.232 84.202 100.151 85.4716 99.9997L89.8229 107.019C92.1543 106.524 94.4137 105.822 96.5832 104.934L96.5733 96.5764C99.4389 95.0905 102.073 93.1924 104.404 90.955L111.871 93.9618C113.458 92.1524 114.899 90.2013 116.171 88.127L111.459 81.376C112.918 78.4733 114 75.3326 114.636 72.0231L122.365 69.8764ZM81.6027 81.8606C72.717 81.8606 65.5136 74.3433 65.5136 65.0701C65.5136 55.7969 72.7169 48.2796 81.6027 48.2796C90.4886 48.2796 97.692 55.7969 97.692 65.0701C97.692 74.3431 90.4886 81.8606 81.6027 81.8606Z" fill="url(#paint2_linear_465_1443)"/>
<path d="M378 223.689C379.018 222.05 379.963 220.339 380.82 218.552C381.272 217.609 381.691 216.658 382.084 215.701L375.071 208.504C376.321 204.552 376.995 200.51 377.126 196.491L386.093 192.263C385.94 189.236 385.539 186.236 384.896 183.299L375.158 181.777C373.966 177.901 372.254 174.202 370.06 170.802L374.938 161.873C373.134 159.544 371.127 157.36 368.927 155.354L360.189 160.098C358.344 158.692 356.365 157.424 354.254 156.322C352.815 155.57 351.353 154.917 349.877 154.355L348.794 144.136C345.969 143.341 343.114 142.815 340.26 142.546L335.863 151.743C331.928 151.73 328.03 152.305 324.286 153.426L317.661 145.831C314.961 146.909 312.348 148.227 309.854 149.777L311.476 159.908C308.341 162.262 305.494 165.094 303.049 168.369L293.418 166.289C292.4 167.928 291.455 169.639 290.598 171.426C290.146 172.37 289.727 173.321 289.333 174.277L296.347 181.475C295.096 185.426 294.423 189.468 294.291 193.487L285.324 197.715C285.477 200.742 285.879 203.742 286.522 206.679L296.259 208.201C297.451 212.077 299.163 215.776 301.357 219.176L296.48 228.105C298.283 230.435 300.29 232.618 302.49 234.624L311.229 229.88C313.074 231.286 315.053 232.554 317.164 233.657C318.603 234.408 320.064 235.061 321.541 235.624L322.624 245.842C325.449 246.637 328.303 247.163 331.158 247.432L335.555 238.236C339.49 238.248 343.388 237.673 347.131 236.552L353.757 244.147C356.456 243.069 359.07 241.751 361.563 240.201L359.942 230.07C363.077 227.716 365.923 224.884 368.368 221.609L378 223.689ZM326.853 213.454C317.081 208.35 313.125 195.945 318.016 185.747C322.907 175.55 334.793 171.42 344.565 176.525C354.336 181.629 358.293 194.033 353.402 204.231C348.511 214.429 336.625 218.558 326.853 213.454Z" fill="url(#paint3_linear_465_1443)"/>
<path d="M350.073 228.812C349.759 228.812 349.461 228.623 349.327 228.304C349.147 227.875 349.334 227.373 349.746 227.185C356.853 223.935 362.683 218.15 366.162 210.896C367.828 207.422 368.92 203.727 369.406 199.913C369.466 199.448 369.872 199.12 370.32 199.183C370.766 199.245 371.079 199.672 371.019 200.137C370.509 204.138 369.364 208.014 367.617 211.656C363.969 219.264 357.853 225.332 350.399 228.741C350.293 228.79 350.182 228.812 350.073 228.812Z" fill="white"/>
<path d="M368.412 183.893C368.08 183.893 367.769 183.68 367.648 183.336C366.072 178.849 363.683 174.824 360.549 171.374C360.24 171.034 360.254 170.497 360.58 170.174C360.906 169.851 361.421 169.865 361.73 170.206C365.018 173.825 367.523 178.046 369.176 182.751C369.331 183.192 369.114 183.679 368.692 183.841C368.6 183.876 368.505 183.893 368.412 183.893Z" fill="white"/>
<path d="M351.633 164.295C351.511 164.295 351.386 164.266 351.269 164.205C348.791 162.911 346.175 161.942 343.495 161.326C343.056 161.225 342.779 160.772 342.876 160.314C342.972 159.856 343.406 159.566 343.845 159.667C346.657 160.313 349.399 161.329 351.998 162.686C352.4 162.896 352.562 163.406 352.361 163.826C352.219 164.123 351.931 164.295 351.633 164.295Z" fill="white"/>
<path d="M322.259 156.311C323.38 156.689 324.531 157.007 325.712 157.258C326.336 157.39 326.958 157.5 327.58 157.593L330.622 151.965C333.128 152.111 335.592 151.876 337.954 151.301L341.886 156.296C343.624 155.702 345.305 154.956 346.91 154.067L346.201 147.642C348.262 146.251 350.136 144.559 351.757 142.61L357.756 144.241C358.817 142.715 359.76 141.085 360.567 139.361L356.373 134.596C356.89 133.196 357.304 131.733 357.6 130.213C357.802 129.177 357.942 128.143 358.028 127.115L363.801 124.754C363.801 122.832 363.64 120.935 363.329 119.081L357.253 117.799C356.615 115.301 355.642 112.923 354.376 110.732L357.714 105.286C356.644 103.75 355.448 102.309 354.136 100.981L348.502 103.669C346.618 102.067 344.502 100.725 342.195 99.7111L341.827 93.2616C340.706 92.8843 339.555 92.5658 338.374 92.315C337.751 92.1826 337.128 92.0726 336.506 91.98L333.464 97.6076C330.958 97.4616 328.494 97.6969 326.132 98.2721L322.201 93.2774C320.463 93.8706 318.782 94.6168 317.176 95.5057L317.885 101.931C315.824 103.322 313.95 105.014 312.329 106.962L306.33 105.332C305.269 106.857 304.326 108.488 303.519 110.212L307.713 114.977C307.196 116.377 306.782 117.84 306.486 119.36C306.284 120.396 306.144 121.43 306.058 122.458L300.285 124.819C300.285 126.741 300.446 128.638 300.757 130.492L306.833 131.774C307.471 134.272 308.444 136.65 309.71 138.841L306.372 144.287C307.443 145.823 308.638 147.264 309.95 148.592L315.584 145.904C317.468 147.506 319.584 148.848 321.892 149.862L322.259 156.311ZM319.839 122.195C321.211 115.161 327.786 110.619 334.526 112.05C341.266 113.482 345.619 120.344 344.247 127.378C342.876 134.412 336.3 138.954 329.56 137.522C322.82 136.091 318.468 129.229 319.839 122.195Z" fill="url(#paint4_linear_465_1443)"/>
<path d="M339.264 122.356C339.874 126.623 337.054 130.598 332.965 131.235C328.877 131.872 325.067 128.929 324.457 124.662C323.847 120.395 326.667 116.42 330.756 115.783C334.845 115.146 338.654 118.089 339.264 122.356Z" fill="url(#paint5_linear_465_1443)"/>
<path d="M243.906 234.168V198.61H164.979V234.168H139.317C134.553 234.168 130.691 238.198 130.691 243.17V245.358C130.691 246.974 131.947 248.284 133.495 248.284H275.39C276.939 248.284 278.194 246.974 278.194 245.358V243.17C278.194 238.198 274.332 234.168 269.568 234.168L243.906 234.168Z" fill="#3B77D9"/>
<path d="M164.979 222.985L243.906 216.634V201.657L164.979 202.529V222.985Z" fill="#1F57B5"/>
<path d="M243.906 228.338L164.979 234.168H243.906V228.338Z" fill="#1F57B5"/>
<path d="M324.393 206.735H84.4928C82.6232 206.735 81.1074 205.154 81.1074 203.202V53.3396C81.1074 51.3883 82.6232 49.8066 84.4928 49.8066H324.393C326.262 49.8066 327.778 51.3885 327.778 53.3396V203.202C327.778 205.154 326.262 206.735 324.393 206.735Z" fill="#153F9C"/>
<path d="M317.8 190.854H91.0856C89.4031 190.854 88.0391 189.43 88.0391 187.674V59.3834C88.0391 57.6276 89.4031 56.2041 91.0856 56.2041H317.8C319.482 56.2041 320.846 57.6276 320.846 59.3834V187.674C320.846 189.43 319.482 190.854 317.8 190.854Z" fill="#9DD2F2"/>
<path d="M213.41 201.657H195.475C194.715 201.657 194.093 201.008 194.093 200.214V198.956C194.093 198.162 194.715 197.513 195.475 197.513H213.41C214.17 197.513 214.792 198.162 214.792 198.956V200.214C214.792 201.008 214.17 201.657 213.41 201.657Z" fill="#2A66C6"/>
<path d="M271.095 240.97H216.254C215.45 240.97 214.792 240.283 214.792 239.444V238.223C214.792 237.384 215.45 236.697 216.254 236.697H271.095C271.899 236.697 272.557 237.384 272.557 238.223V239.444C272.557 240.283 271.899 240.97 271.095 240.97Z" fill="#79C3F0"/>
<path opacity="0.3" d="M206.598 68.8902C218.941 68.8902 235.156 64.0445 240.166 62.4475C240.924 62.2058 241.706 62.7455 241.706 63.5102V99.3375C241.706 127.021 207.135 149.464 207.135 149.464C207.135 149.464 172.565 127.021 172.565 99.3375V65.1719C172.565 64.4381 173.289 63.9026 174.031 64.0881C178.798 65.2797 194.26 68.8902 206.598 68.8902Z" fill="#99A8C2"/>
<path d="M203.932 65.8181C215.661 65.8181 231.071 61.2132 235.831 59.6956C236.552 59.4659 237.295 59.9787 237.295 60.7055V94.7521C237.295 121.06 204.443 142.387 204.443 142.387C204.443 142.387 171.59 121.06 171.59 94.7521V62.2846C171.59 61.5872 172.279 61.0785 172.984 61.2547C177.513 62.3871 192.207 65.8181 203.932 65.8181Z" fill="#1B45A1"/>
<path d="M204.443 71.4192C213.242 71.4192 224.182 68.4072 229.677 66.0314C231.316 65.3226 233.172 66.469 233.172 68.1905V95.5116C233.172 118.518 204.443 137.169 204.443 137.169C204.443 137.169 175.713 118.518 175.713 95.5116V69.3785C175.713 67.7256 177.436 66.5824 179.055 67.1588C184.497 69.0964 195.56 71.4192 204.443 71.4192Z" fill="#316CCC"/>
<path d="M204.746 78.8296V129.899C204.746 129.899 181.897 114.704 181.897 96.6498V75.9545C181.897 74.7482 183.158 73.9161 184.337 74.3435C188.604 75.8907 197.645 78.8296 204.746 78.8296Z" fill="#79C3F0"/>
<path d="M204.746 78.8298V129.899C204.746 129.899 228.411 114.705 228.411 96.6501V75.9068C228.411 74.7131 227.174 73.88 226 74.2854C221.572 75.8158 211.937 78.8298 204.746 78.8298Z" fill="#79C3F0"/>
<path d="M195.764 91.1217C196.12 91.389 196.46 91.6679 196.794 91.9511C197.128 92.2378 197.46 92.5141 197.775 92.8263C198.092 93.1333 198.409 93.4434 198.719 93.7615C198.873 93.9209 199.033 94.0787 199.181 94.2409L199.622 94.7319C199.919 95.0586 200.206 95.3928 200.493 95.729C200.776 96.0681 201.044 96.4175 201.321 96.7626C201.6 97.1062 201.855 97.4665 202.117 97.8238C202.248 98.0021 202.377 98.182 202.504 98.3632C202.632 98.5442 202.762 98.7237 202.882 98.9099C203.128 99.2784 203.369 99.6509 203.611 100.024C203.848 100.399 204.075 100.782 204.302 101.164C204.533 101.545 204.746 101.937 204.961 102.328L205.278 102.918C205.382 103.116 205.479 103.318 205.578 103.518C205.676 103.719 205.778 103.918 205.873 104.122L206.149 104.737C206.332 105.146 206.504 105.565 206.667 105.986C206.832 106.409 206.985 106.835 207.13 107.272C207.204 107.49 207.273 107.708 207.341 107.934C207.375 108.048 207.41 108.154 207.443 108.274L207.547 108.648L203.019 108.364C203.111 108.187 203.189 108.041 203.277 107.885L203.535 107.428C203.708 107.126 203.88 106.825 204.057 106.527L205.124 104.754L207.267 101.237C207.987 100.071 208.728 98.9191 209.498 97.7874C210.262 96.6514 211.065 95.5433 211.882 94.4475C212.709 93.3585 213.554 92.285 214.438 91.2442C215.323 90.2046 216.236 89.1909 217.186 88.2151C218.136 87.2394 219.134 86.3135 220.173 85.4431C220.69 85.0062 221.226 84.592 221.774 84.1979C222.321 83.8032 222.881 83.4283 223.457 83.0854C223.574 83.0154 223.724 83.0582 223.791 83.1809C223.85 83.2894 223.825 83.4238 223.738 83.5021C223.244 83.9434 222.767 84.4 222.307 84.8721C221.846 85.344 221.403 85.8333 220.97 86.3309C220.539 86.8297 220.118 87.3376 219.712 87.8593C219.306 88.3807 218.911 88.9099 218.521 89.4434C217.744 90.5132 217.007 91.6142 216.3 92.7359C215.95 93.2987 215.6 93.8617 215.259 94.4307C214.919 95.0006 214.585 95.5743 214.257 96.1518C213.595 97.3031 212.966 98.4752 212.343 99.6491C211.724 100.826 211.123 102.013 210.536 103.207C210.244 103.804 209.956 104.404 209.676 105.008C209.397 105.612 209.133 106.224 208.878 106.84C208.619 107.453 208.375 108.073 208.135 108.692L207.778 109.619L207.439 110.522L205.361 116.067L202.91 110.238L201.986 108.039C201.903 107.851 201.826 107.661 201.748 107.47C201.673 107.279 201.584 107.091 201.508 106.899L201.036 105.749L199.153 101.093C198.998 100.7 198.827 100.315 198.674 99.9195L198.437 99.3282L198.193 98.74C198.035 98.3444 197.868 97.9531 197.716 97.5514C197.556 97.1539 197.386 96.7626 197.231 96.3591C197.07 95.9598 196.917 95.552 196.755 95.1564C196.593 94.7584 196.439 94.3522 196.285 93.9429C196.138 93.5321 195.963 93.1184 195.811 92.6995C195.655 92.2804 195.505 91.8571 195.37 91.422C195.326 91.2812 195.4 91.13 195.535 91.0844C195.616 91.0571 195.701 91.0744 195.764 91.1217Z" fill="#2A66C6"/>
<mask id="mask0_465_1443" style="mask-type:luminance" maskUnits="userSpaceOnUse" x="171" y="59" width="67" height="84">
<path d="M203.932 65.8181C215.661 65.8181 231.071 61.2132 235.831 59.6956C236.552 59.4659 237.295 59.9787 237.295 60.7055V94.7521C237.295 121.06 204.443 142.387 204.443 142.387C204.443 142.387 171.59 121.06 171.59 94.7521V62.2846C171.59 61.5872 172.279 61.0785 172.984 61.2547C177.513 62.3871 192.207 65.8181 203.932 65.8181Z" fill="white"/>
</mask>
<g mask="url(#mask0_465_1443)">
<path d="M180.634 94.4188C183.666 104.736 185.384 121.022 186.187 130.651C177.716 122.409 169.305 112.685 168.881 107.604C168.351 101.249 167.311 82.9232 167.492 70.1846C170.994 74.5275 177.435 83.5311 180.634 94.4188Z" fill="url(#paint6_linear_465_1443)"/>
<path d="M196.494 115.034C194.008 103.002 186.865 72.9746 167.739 63.6612C168.019 59.6952 168.543 57.1347 169.42 57.0793C172.924 56.8577 177.064 58.9629 177.064 58.9629C195.751 58.8521 204.881 88.4356 205.731 93.5324C206.58 98.6293 205.625 143.637 203.82 144.844C203.426 145.108 201.58 143.963 198.926 141.907C198.859 136.494 198.474 124.619 196.494 115.034Z" fill="url(#paint7_linear_465_1443)"/>
</g>
<path opacity="0.5" d="M327.778 78.2661H267.693C266.744 78.2661 265.968 79.0762 265.968 80.0662V89.2172C265.968 90.2073 266.744 91.0174 267.693 91.0174H327.778V78.2661Z" fill="#99A8C2"/>
<path d="M345.805 86.8179H263.325C262.565 86.8179 261.943 86.1688 261.943 85.3755V75.5086C261.943 74.7153 262.565 74.0664 263.325 74.0664H345.805C346.565 74.0664 347.187 74.7155 347.187 75.5086V85.3755C347.187 86.1688 346.565 86.8179 345.805 86.8179Z" fill="#316CCC"/>
<path d="M343.883 84.5191H265.247C264.655 84.5191 264.171 84.0139 264.171 83.3962V77.4881C264.171 76.8706 264.655 76.3652 265.247 76.3652H343.883C344.475 76.3652 344.959 76.8705 344.959 77.4881V83.3962C344.959 84.0139 344.475 84.5191 343.883 84.5191Z" fill="white"/>
<path d="M273.346 82.968C272.99 82.968 272.699 82.664 272.699 82.2924V78.2389C272.699 77.8675 272.99 77.5635 273.346 77.5635C273.702 77.5635 273.994 77.8675 273.994 78.2389V82.2924C273.994 82.6639 273.702 82.968 273.346 82.968Z" fill="#316CCC"/>
<path d="M275.51 81.7501C275.314 82.0606 274.911 82.1475 274.613 81.9434L271.368 79.7165C271.07 79.5124 270.987 79.0913 271.182 78.7808C271.378 78.4703 271.782 78.3834 272.079 78.5876L275.324 80.8146C275.622 81.0185 275.705 81.4397 275.51 81.7501Z" fill="#316CCC"/>
<path d="M271.217 81.8037C271.014 81.4982 271.088 81.0752 271.381 80.8637L274.574 78.5564C274.867 78.345 275.272 78.4219 275.475 78.7273C275.678 79.0328 275.604 79.4559 275.311 79.6673L272.118 81.9746C271.825 82.186 271.42 82.1092 271.217 81.8037Z" fill="#316CCC"/>
<path d="M282.444 82.968C282.089 82.968 281.797 82.664 281.797 82.2924V78.2389C281.797 77.8675 282.088 77.5635 282.444 77.5635C282.801 77.5635 283.092 77.8675 283.092 78.2389V82.2924C283.092 82.6639 282.801 82.968 282.444 82.968Z" fill="#316CCC"/>
<path d="M284.608 81.7501C284.413 82.0606 284.009 82.1475 283.712 81.9434L280.466 79.7165C280.169 79.5124 280.085 79.0913 280.281 78.7808C280.476 78.4703 280.88 78.3834 281.177 78.5876L284.423 80.8146C284.72 81.0185 284.804 81.4397 284.608 81.7501Z" fill="#316CCC"/>
<path d="M280.315 81.8037C280.113 81.4982 280.186 81.0752 280.479 80.8637L283.673 78.5564C283.965 78.345 284.371 78.4219 284.573 78.7273C284.776 79.0328 284.702 79.4559 284.41 79.6673L281.216 81.9746C280.923 82.186 280.518 82.1092 280.315 81.8037Z" fill="#316CCC"/>
<path d="M291.543 82.968C291.187 82.968 290.896 82.664 290.896 82.2924V78.2389C290.896 77.8675 291.187 77.5635 291.543 77.5635C291.899 77.5635 292.19 77.8675 292.19 78.2389V82.2924C292.19 82.6639 291.899 82.968 291.543 82.968Z" fill="#316CCC"/>
<path d="M293.706 81.7501C293.511 82.0606 293.107 82.1475 292.81 81.9434L289.565 79.7165C289.267 79.5124 289.184 79.0913 289.379 78.7808C289.575 78.4703 289.978 78.3834 290.276 78.5876L293.521 80.8146C293.819 81.0185 293.902 81.4397 293.706 81.7501Z" fill="#316CCC"/>
<path d="M289.414 81.8037C289.211 81.4982 289.285 81.0752 289.578 80.8637L292.771 78.5564C293.064 78.345 293.469 78.4219 293.672 78.7273C293.874 79.0328 293.801 79.4559 293.508 79.6673L290.315 81.9746C290.022 82.186 289.616 82.1092 289.414 81.8037Z" fill="#316CCC"/>
<path d="M300.641 82.968C300.285 82.968 299.994 82.664 299.994 82.2924V78.2389C299.994 77.8675 300.285 77.5635 300.641 77.5635C300.997 77.5635 301.288 77.8675 301.288 78.2389V82.2924C301.288 82.6639 300.997 82.968 300.641 82.968Z" fill="#316CCC"/>
<path d="M302.805 81.7501C302.609 82.0606 302.206 82.1475 301.908 81.9434L298.663 79.7165C298.365 79.5124 298.282 79.0913 298.477 78.7808C298.673 78.4703 299.077 78.3834 299.374 78.5876L302.619 80.8146C302.917 81.0185 303 81.4397 302.805 81.7501Z" fill="#316CCC"/>
<path d="M298.512 81.8037C298.309 81.4982 298.383 81.0752 298.676 80.8637L301.869 78.5564C302.162 78.345 302.567 78.4219 302.77 78.7273C302.973 79.0328 302.899 79.4559 302.606 79.6673L299.413 81.9746C299.12 82.186 298.715 82.1092 298.512 81.8037Z" fill="#316CCC"/>
<path d="M309.739 82.968C309.383 82.968 309.092 82.664 309.092 82.2924V78.2389C309.092 77.8675 309.383 77.5635 309.739 77.5635C310.095 77.5635 310.387 77.8675 310.387 78.2389V82.2924C310.387 82.6639 310.095 82.968 309.739 82.968Z" fill="#316CCC"/>
<path d="M311.903 81.7501C311.707 82.0606 311.304 82.1475 311.006 81.9434L307.761 79.7165C307.464 79.5124 307.38 79.0913 307.576 78.7808C307.771 78.4703 308.175 78.3834 308.472 78.5876L311.718 80.8146C312.015 81.0185 312.099 81.4397 311.903 81.7501Z" fill="#316CCC"/>
<path d="M307.61 81.8037C307.408 81.4982 307.481 81.0752 307.774 80.8637L310.968 78.5564C311.26 78.345 311.666 78.4219 311.868 78.7273C312.071 79.0328 311.997 79.4559 311.705 79.6673L308.511 81.9746C308.218 82.186 307.813 82.1092 307.61 81.8037Z" fill="#316CCC"/>
<path d="M322.463 82.5158H316.832C316.647 82.5158 316.496 82.3583 316.496 82.1657V81.9658C316.496 81.7732 316.647 81.6157 316.832 81.6157H322.463C322.648 81.6157 322.799 81.7733 322.799 81.9658V82.1657C322.799 82.3583 322.648 82.5158 322.463 82.5158Z" fill="#316CCC"/>
<path d="M331.747 82.5158H326.116C325.932 82.5158 325.781 82.3583 325.781 82.1657V81.9658C325.781 81.7732 325.932 81.6157 326.116 81.6157H331.747C331.932 81.6157 332.083 81.7733 332.083 81.9658V82.1657C332.083 82.3583 331.932 82.5158 331.747 82.5158Z" fill="#316CCC"/>
<path d="M340.598 82.5158H334.967C334.782 82.5158 334.632 82.3583 334.632 82.1657V81.9658C334.632 81.7732 334.782 81.6157 334.967 81.6157H340.598C340.783 81.6157 340.934 81.7733 340.934 81.9658V82.1657C340.934 82.3583 340.783 82.5158 340.598 82.5158Z" fill="#316CCC"/>
<path d="M143.024 122.205L123.269 142.822C122.597 143.523 121.497 143.523 120.825 142.822L101.069 122.205C100.397 121.504 100.397 120.356 101.069 119.654L120.825 99.0377C121.497 98.3364 122.597 98.3364 123.269 99.0377L143.024 119.654C143.696 120.356 143.696 121.504 143.024 122.205Z" fill="white"/>
<path d="M141.568 122.116L123.184 141.302C122.558 141.954 121.535 141.954 120.91 141.302L102.526 122.116C101.9 121.463 101.9 120.395 102.526 119.743L120.91 100.557C121.535 99.9042 122.558 99.9042 123.184 100.557L141.568 119.743C142.194 120.395 142.194 121.463 141.568 122.116Z" fill="#79C3F0"/>
<path d="M142.157 146.958H101.937C101.23 146.958 100.651 146.354 100.651 145.616V120.389C100.651 119.651 101.23 119.047 101.937 119.047H142.157C142.864 119.047 143.442 119.651 143.442 120.389V145.616C143.442 146.354 142.864 146.958 142.157 146.958Z" fill="white"/>
<path opacity="0.3" d="M143.442 120.599C143.442 119.743 143.51 119.751 142.693 119.207C142.445 119.102 142.152 119.04 141.837 119.04C99.3929 119.04 101.983 118.96 101.4 119.207C100.609 119.735 100.651 119.712 100.651 120.599C100.837 120.982 99.4573 119.982 120.825 134.223C121.497 134.671 122.597 134.671 123.269 134.223C144.636 119.982 143.257 120.982 143.442 120.599Z" fill="#79C3F0"/>
<path d="M130.875 104.986C135.786 104.986 139.767 102.17 139.767 98.6958C139.767 95.2216 135.786 92.4053 130.875 92.4053C125.964 92.4053 121.982 95.2216 121.982 98.6958C121.982 102.17 125.964 104.986 130.875 104.986Z" fill="#3973CF"/>
<path d="M134.849 108.196H126.901C126.194 108.196 125.615 107.592 125.615 106.854V102.281C125.615 101.543 126.194 100.939 126.901 100.939H134.849C135.556 100.939 136.135 101.543 136.135 102.281V106.855C136.135 107.592 135.556 108.196 134.849 108.196Z" fill="#3973CF"/>
<path d="M129.983 97.7229C129.983 99.2644 129.005 102.055 127.799 102.055C126.593 102.055 125.624 100.792 125.214 99.3107C124.635 97.2175 125.883 96.3591 127.042 96.008C128.423 95.5894 129.983 96.1815 129.983 97.7229Z" fill="#1B45A1"/>
<path d="M131.486 97.7229C131.486 99.2644 132.464 102.055 133.67 102.055C134.877 102.055 135.846 100.792 136.256 99.3107C136.835 97.2175 135.586 96.3591 134.428 96.008C133.046 95.5894 131.486 96.1815 131.486 97.7229Z" fill="#1B45A1"/>
<path d="M130.875 101.311C131.855 101.311 132.167 104.707 131.722 104.846C131.276 104.986 130.34 105.126 129.983 104.846C129.627 104.567 130.162 101.311 130.875 101.311Z" fill="#1B45A1"/>
<path d="M113.235 86.5997C118.401 86.5997 122.588 83.6375 122.588 79.9834C122.588 76.3294 118.401 73.3672 113.235 73.3672C108.069 73.3672 103.882 76.3294 103.882 79.9834C103.882 83.6375 108.069 86.5997 113.235 86.5997Z" fill="#3973CF"/>
<path d="M117.415 89.9755H109.055C108.311 89.9755 107.703 89.3404 107.703 88.5643V83.754C107.703 82.9778 108.311 82.3428 109.055 82.3428H117.415C118.159 82.3428 118.767 82.9778 118.767 83.754V88.5643C118.767 89.3404 118.159 89.9755 117.415 89.9755Z" fill="#3973CF"/>
<path d="M112.297 78.9606C112.297 80.5817 111.269 83.5174 110 83.5174C108.731 83.5174 107.712 82.1883 107.281 80.6307C106.671 78.4289 107.985 77.5261 109.203 77.1569C110.656 76.7166 112.297 77.3391 112.297 78.9606Z" fill="#1B45A1"/>
<path d="M113.878 78.9606C113.878 80.5817 114.906 83.5174 116.175 83.5174C117.444 83.5174 118.463 82.1883 118.894 80.6307C119.504 78.4289 118.191 77.5261 116.972 77.1569C115.519 76.7166 113.878 77.3391 113.878 78.9606Z" fill="#1B45A1"/>
<path d="M113.235 82.7344C114.266 82.7344 114.595 86.3061 114.126 86.4528C113.657 86.5995 112.672 86.7463 112.297 86.4528C111.922 86.1592 112.485 82.7344 113.235 82.7344Z" fill="#1B45A1"/>
<path d="M151.557 76.8657C151.557 78.8118 149.327 80.3895 146.575 80.3895C143.824 80.3895 141.594 78.8118 141.594 76.8657C141.594 74.9194 143.824 73.3418 146.575 73.3418C149.327 73.3418 151.557 74.9194 151.557 76.8657Z" fill="#3973CF"/>
<path d="M148.802 82.1877H144.349C143.953 82.1877 143.629 81.8494 143.629 81.436V78.8741C143.629 78.4607 143.953 78.1226 144.349 78.1226H148.802C149.198 78.1226 149.522 78.4607 149.522 78.8741V81.436C149.522 81.8494 149.198 82.1877 148.802 82.1877Z" fill="#3973CF"/>
<path d="M146.076 76.3209C146.076 77.1844 145.528 78.748 144.852 78.748C144.177 78.748 143.634 78.0402 143.404 77.2105C143.079 76.0379 143.779 75.557 144.428 75.3604C145.202 75.1256 146.076 75.4574 146.076 76.3209Z" fill="#1B45A1"/>
<path d="M146.918 76.3209C146.918 77.1844 147.465 78.748 148.141 78.748C148.817 78.748 149.36 78.0402 149.59 77.2105C149.914 76.0379 149.215 75.557 148.566 75.3604C147.792 75.1256 146.918 75.4574 146.918 76.3209Z" fill="#1B45A1"/>
<path d="M146.575 78.3311C147.125 78.3311 147.3 80.2333 147.05 80.3116C146.8 80.3898 146.276 80.4679 146.076 80.3116C145.876 80.1551 146.176 78.3311 146.575 78.3311Z" fill="#1B45A1"/>
<path d="M118.779 112.654C118.779 114.6 116.549 116.178 113.798 116.178C111.047 116.178 108.816 114.6 108.816 112.654C108.816 110.708 111.047 109.13 113.798 109.13C116.549 109.13 118.779 110.708 118.779 112.654Z" fill="#3973CF"/>
<path d="M116.024 117.975H111.572C111.176 117.975 110.852 117.637 110.852 117.224V114.662C110.852 114.248 111.176 113.91 111.572 113.91H116.024C116.42 113.91 116.744 114.248 116.744 114.662V117.224C116.744 117.637 116.42 117.975 116.024 117.975Z" fill="#3973CF"/>
<path d="M113.299 112.109C113.299 112.973 112.751 114.536 112.075 114.536C111.399 114.536 110.856 113.828 110.627 112.998C110.302 111.826 111.002 111.345 111.651 111.148C112.425 110.914 113.299 111.245 113.299 112.109Z" fill="#1B45A1"/>
<path d="M114.14 112.109C114.14 112.973 114.688 114.536 115.364 114.536C116.04 114.536 116.583 113.828 116.812 112.998C117.137 111.826 116.437 111.345 115.788 111.148C115.015 110.914 114.14 111.245 114.14 112.109Z" fill="#1B45A1"/>
<path d="M113.798 114.119C114.347 114.119 114.522 116.021 114.272 116.1C114.023 116.178 113.498 116.256 113.299 116.1C113.099 115.943 113.399 114.119 113.798 114.119Z" fill="#1B45A1"/>
<path d="M128.86 61.3542C135.292 61.3542 140.506 57.6657 140.506 53.1158C140.506 48.5659 135.292 44.8774 128.86 44.8774C122.427 44.8774 117.213 48.5659 117.213 53.1158C117.213 57.6657 122.427 61.3542 128.86 61.3542Z" fill="#3973CF"/>
<path d="M134.064 65.5577H123.655C122.729 65.5577 121.971 64.767 121.971 63.8006V57.8109C121.971 56.8444 122.729 56.0537 123.655 56.0537H134.064C134.99 56.0537 135.748 56.8444 135.748 57.8109V63.8006C135.748 64.767 134.99 65.5577 134.064 65.5577Z" fill="#3973CF"/>
<path d="M127.692 51.8421C127.692 53.8609 126.411 57.5163 124.832 57.5163C123.252 57.5163 121.983 55.8614 121.446 53.922C120.687 51.1804 122.322 50.0562 123.839 49.5964C125.649 49.048 127.692 49.8234 127.692 51.8421Z" fill="#1B45A1"/>
<path d="M129.66 51.8421C129.66 53.8609 130.941 57.5163 132.521 57.5163C134.1 57.5163 135.37 55.8614 135.907 53.922C136.665 51.1804 135.03 50.0562 133.513 49.5964C131.703 49.048 129.66 49.8234 129.66 51.8421Z" fill="#1B45A1"/>
<path d="M128.86 56.5415C130.144 56.5415 130.553 60.9889 129.969 61.1716C129.385 61.3544 128.159 61.5373 127.692 61.1716C127.225 60.8061 127.926 56.5415 128.86 56.5415Z" fill="#1B45A1"/>
<path d="M139.932 140.747H125.502C125.263 140.747 125.068 140.543 125.068 140.294C125.068 140.044 125.263 139.84 125.502 139.84H139.932C140.171 139.84 140.367 140.044 140.367 140.294C140.367 140.543 140.171 140.747 139.932 140.747Z" fill="#3973CF"/>
<path d="M139.932 142.701H125.502C125.263 142.701 125.068 142.497 125.068 142.247C125.068 141.998 125.263 141.794 125.502 141.794H139.932C140.171 141.794 140.367 141.998 140.367 142.247C140.367 142.497 140.171 142.701 139.932 142.701Z" fill="#3973CF"/>
<path d="M128.928 63.3544C121.564 63.3544 115.573 57.1025 115.573 49.4178C115.573 41.7331 121.564 35.4814 128.928 35.4814C136.292 35.4814 142.282 41.7333 142.282 49.4178C142.282 57.1025 136.291 63.3544 128.928 63.3544ZM128.928 37.5195C122.641 37.5195 117.527 42.8571 117.527 49.4178C117.527 55.9787 122.641 61.3163 128.928 61.3163C135.214 61.3163 140.329 55.9787 140.329 49.4178C140.329 42.8571 135.214 37.5195 128.928 37.5195Z" fill="#FB8627"/>
<path d="M128.928 55.1787C125.884 55.1787 123.408 52.5945 123.408 49.418C123.408 46.2415 125.884 43.6572 128.928 43.6572C131.972 43.6572 134.448 46.2415 134.448 49.418C134.448 52.5945 131.972 55.1787 128.928 55.1787ZM128.928 45.6952C126.961 45.6952 125.361 47.3652 125.361 49.4178C125.361 51.4705 126.961 53.1405 128.928 53.1405C130.895 53.1405 132.495 51.4705 132.495 49.4178C132.495 47.3652 130.895 45.6952 128.928 45.6952Z" fill="#FB8627"/>
<path d="M144.781 50.4365H112.938C112.399 50.4365 111.961 49.9803 111.961 49.4175C111.961 48.8547 112.399 48.3984 112.938 48.3984H144.781C145.32 48.3984 145.758 48.8547 145.758 49.4175C145.758 49.9803 145.32 50.4365 144.781 50.4365Z" fill="#FB8627"/>
<path d="M128.928 66.0888C128.389 66.0888 127.951 65.6325 127.951 65.0698V33.4629C127.951 32.9001 128.389 32.4438 128.928 32.4438C129.467 32.4438 129.904 32.9002 129.904 33.4629V65.0698C129.904 65.6327 129.467 66.0888 128.928 66.0888Z" fill="#FB8627"/>
<path d="M107.186 100.041C100.684 100.041 95.3938 94.5202 95.3938 87.7344C95.3938 80.9484 100.684 75.4277 107.186 75.4277C113.689 75.4277 118.979 80.9486 118.979 87.7344C118.979 94.5203 113.689 100.041 107.186 100.041ZM107.186 77.4658C101.761 77.4658 97.3466 82.0724 97.3466 87.7344C97.3466 93.3965 101.761 98.0029 107.186 98.0029C112.612 98.0029 117.026 93.3965 117.026 87.7344C117.026 82.0723 112.612 77.4658 107.186 77.4658Z" fill="#FB8627"/>
<path d="M107.186 92.8968C104.459 92.8968 102.24 90.5808 102.24 87.7342C102.24 84.8877 104.459 82.5718 107.186 82.5718C109.914 82.5718 112.133 84.8877 112.133 87.7342C112.133 90.5808 109.914 92.8968 107.186 92.8968ZM107.186 84.6099C105.535 84.6099 104.192 86.0114 104.192 87.7342C104.192 89.4572 105.535 90.8587 107.186 90.8587C108.837 90.8587 110.18 89.4572 110.18 87.7342C110.18 86.0114 108.837 84.6099 107.186 84.6099Z" fill="#FB8627"/>
<path d="M121.04 88.7534H93.214C92.6747 88.7534 92.2375 88.2972 92.2375 87.7344C92.2375 87.1716 92.6749 86.7153 93.214 86.7153H121.04C121.579 86.7153 122.016 87.1716 122.016 87.7344C122.016 88.2972 121.579 88.7534 121.04 88.7534Z" fill="#FB8627"/>
<path d="M107.186 102.431C106.647 102.431 106.21 101.974 106.21 101.412V73.7925C106.21 73.2297 106.647 72.7734 107.186 72.7734C107.725 72.7734 108.163 73.2297 108.163 73.7925V101.412C108.163 101.974 107.726 102.431 107.186 102.431Z" fill="#FB8627"/>
<path d="M291.973 176.537H231.913C231.393 176.537 230.972 176.098 230.972 175.555V148.306C230.972 147.764 231.393 147.324 231.913 147.324H291.973C292.493 147.324 292.914 147.764 292.914 148.306V175.555C292.914 176.098 292.493 176.537 291.973 176.537Z" fill="#3AA1E0"/>
<path d="M290.46 175.166H233.425C233.005 175.166 232.665 174.811 232.665 174.373V155.792C232.665 155.354 233.005 154.999 233.425 154.999H290.46C290.88 154.999 291.221 155.354 291.221 155.792V174.373C291.221 174.811 290.88 175.166 290.46 175.166Z" fill="white"/>
<path d="M235.531 151.753H233.947C233.714 151.753 233.525 151.556 233.525 151.314V149.914C233.525 149.671 233.714 149.474 233.947 149.474H235.531C235.763 149.474 235.952 149.671 235.952 149.914V151.314C235.952 151.556 235.763 151.753 235.531 151.753Z" fill="white"/>
<path d="M239.943 151.753H238.359C238.126 151.753 237.938 151.556 237.938 151.314V149.914C237.938 149.671 238.126 149.474 238.359 149.474H239.943C240.175 149.474 240.364 149.671 240.364 149.914V151.314C240.364 151.556 240.175 151.753 239.943 151.753Z" fill="white"/>
<path d="M244.355 151.753H242.771C242.538 151.753 242.349 151.556 242.349 151.314V149.914C242.349 149.671 242.538 149.474 242.771 149.474H244.355C244.587 149.474 244.776 149.671 244.776 149.914V151.314C244.776 151.556 244.587 151.753 244.355 151.753Z" fill="white"/>
<path d="M288.838 159.419H257.865C257.356 159.419 256.939 158.984 256.939 158.452C256.939 157.92 257.356 157.485 257.865 157.485H288.838C289.348 157.485 289.765 157.92 289.765 158.452C289.765 158.984 289.348 159.419 288.838 159.419Z" fill="#3AA1E0"/>
<path d="M265.542 174.338H234.569C234.06 174.338 233.643 173.903 233.643 173.371C233.643 172.839 234.06 172.404 234.569 172.404H265.542C266.052 172.404 266.469 172.839 266.469 173.371C266.469 173.903 266.052 174.338 265.542 174.338Z" fill="#3AA1E0"/>
<path d="M271.311 174.338H267.98C267.841 174.338 267.726 174.218 267.726 174.073V172.669C267.726 172.523 267.841 172.404 267.98 172.404H271.311C271.45 172.404 271.565 172.523 271.565 172.669V174.073C271.565 174.218 271.45 174.338 271.311 174.338Z" fill="#3AA1E0"/>
<path d="M276.142 174.338H272.811C272.672 174.338 272.557 174.218 272.557 174.073V172.669C272.557 172.523 272.672 172.404 272.811 172.404H276.142C276.282 172.404 276.396 172.523 276.396 172.669V174.073C276.396 174.218 276.282 174.338 276.142 174.338Z" fill="#3AA1E0"/>
<path d="M289.136 163.632H237.846C237.5 163.632 237.217 163.337 237.217 162.976C237.217 162.616 237.5 162.32 237.846 162.32H289.136C289.482 162.32 289.765 162.616 289.765 162.976C289.765 163.337 289.482 163.632 289.136 163.632Z" fill="#3AA1E0"/>
<path d="M289.136 166.464H237.846C237.5 166.464 237.217 166.169 237.217 165.808C237.217 165.447 237.5 165.152 237.846 165.152H289.136C289.482 165.152 289.765 165.447 289.765 165.808C289.765 166.169 289.482 166.464 289.136 166.464Z" fill="#3AA1E0"/>
<path d="M258.84 114.78H254.384C252.463 114.78 250.9 113.149 250.9 111.145V106.494C250.9 104.489 252.463 102.858 254.384 102.858H258.84C260.761 102.858 262.324 104.489 262.324 106.494V111.145C262.324 113.149 260.761 114.78 258.84 114.78ZM254.384 104.896C253.54 104.896 252.853 105.613 252.853 106.494V111.145C252.853 112.025 253.54 112.742 254.384 112.742H258.84C259.684 112.742 260.371 112.025 260.371 111.145V106.494C260.371 105.613 259.684 104.896 258.84 104.896H254.384Z" fill="#316CCC"/>
<g opacity="0.8">
<path d="M258.841 134.717H254.384C252.373 134.717 250.738 133.01 250.738 130.912V126.261C250.738 124.163 252.373 122.456 254.384 122.456H258.841C260.851 122.456 262.487 124.163 262.487 126.261V130.912C262.487 133.01 260.851 134.717 258.841 134.717ZM254.384 124.834C253.63 124.834 253.016 125.474 253.016 126.261V130.912C253.016 131.699 253.63 132.339 254.384 132.339H258.841C259.595 132.339 260.208 131.699 260.208 130.912V126.261C260.208 125.474 259.595 124.834 258.841 124.834H254.384Z" fill="#316CCC"/>
</g>
<path d="M256.891 112.164C256.875 112.164 256.859 112.163 256.843 112.163C256.557 112.148 256.29 112.003 256.116 111.765L252.913 107.404C252.584 106.958 252.665 106.318 253.093 105.976C253.521 105.633 254.134 105.717 254.462 106.164L256.964 109.569L263.976 101.729C264.344 101.317 264.962 101.295 265.356 101.679C265.751 102.063 265.772 102.708 265.404 103.119L257.605 111.84C257.419 112.047 257.161 112.164 256.891 112.164Z" fill="#FB8627"/>
<path d="M256.891 131.931C256.875 131.931 256.859 131.93 256.843 131.93C256.557 131.915 256.29 131.77 256.116 131.532L252.913 127.171C252.584 126.725 252.665 126.085 253.093 125.743C253.521 125.4 254.134 125.484 254.462 125.931L256.964 129.336L263.976 121.496C264.344 121.084 264.962 121.062 265.356 121.446C265.751 121.83 265.772 122.475 265.404 122.886L257.605 131.607C257.419 131.814 257.161 131.931 256.891 131.931Z" fill="#FB8627"/>
<path d="M269.784 107.735H303.446C304.032 107.735 304.512 107.234 304.512 106.622C304.512 106.01 304.032 105.509 303.446 105.509H269.784C269.198 105.509 268.718 106.01 268.718 106.622C268.718 107.234 269.198 107.735 269.784 107.735Z" fill="#316CCC"/>
<path d="M269.784 112.09H294.82C295.407 112.09 295.887 111.59 295.887 110.978C295.887 110.366 295.407 109.865 294.82 109.865H269.784C269.198 109.865 268.718 110.365 268.718 110.978C268.718 111.59 269.198 112.09 269.784 112.09Z" fill="#316CCC"/>
<path d="M269.784 127.523H303.446C304.032 127.523 304.512 127.022 304.512 126.41C304.512 125.798 304.032 125.297 303.446 125.297H269.784C269.198 125.297 268.718 125.798 268.718 126.41C268.718 127.022 269.198 127.523 269.784 127.523Z" fill="#316CCC"/>
<path d="M269.784 131.878H299.277C299.863 131.878 300.343 131.377 300.343 130.765C300.343 130.153 299.863 129.652 299.277 129.652H269.784C269.198 129.652 268.718 130.153 268.718 130.765C268.718 131.377 269.198 131.878 269.784 131.878Z" fill="#316CCC"/>
<path d="M199.518 173.248H162.834C162.49 173.248 162.211 172.957 162.211 172.599V151.263C162.211 150.905 162.49 150.614 162.834 150.614H199.518C199.862 150.614 200.141 150.905 200.141 151.263V172.599C200.141 172.957 199.862 173.248 199.518 173.248Z" fill="#3AA1E0"/>
<path d="M198.727 172.252H163.624C163.303 172.252 163.043 171.98 163.043 171.645V152.218C163.043 151.883 163.303 151.611 163.624 151.611H198.727C199.049 151.611 199.309 151.883 199.309 152.218V171.645C199.309 171.98 199.049 172.252 198.727 172.252Z" fill="white"/>
<path d="M197.653 170.986H164.699C164.338 170.986 164.045 170.681 164.045 170.304V153.558C164.045 153.181 164.338 152.875 164.699 152.875H197.653C198.014 152.875 198.307 153.181 198.307 153.558V170.304C198.307 170.681 198.014 170.986 197.653 170.986Z" fill="#3AA1E0"/>
<path d="M181.176 168.215C184.501 168.215 187.197 165.402 187.197 161.931C187.197 158.461 184.501 155.647 181.176 155.647C177.851 155.647 175.155 158.461 175.155 161.931C175.155 165.402 177.851 168.215 181.176 168.215Z" fill="white"/>
<path d="M186.231 163.209C186.889 160.301 185.164 157.386 182.377 156.7C179.59 156.013 176.798 157.814 176.14 160.722C175.482 163.63 177.207 166.544 179.994 167.231C182.781 167.918 185.573 166.117 186.231 163.209Z" fill="#3AA1E0"/>
<path d="M183.732 161.642L181.836 162.784L179.941 163.926V161.642V159.358L181.836 160.5L183.732 161.642Z" fill="white"/>
<path opacity="0.5" d="M190.547 158.168H162.212V172.598C162.212 172.957 162.49 173.248 162.834 173.248H191.17V158.818C191.17 158.46 190.891 158.168 190.547 158.168Z" fill="#99A8C2"/>
<path d="M187.241 182.004H150.557C150.213 182.004 149.934 181.713 149.934 181.354V160.019C149.934 159.66 150.213 159.369 150.557 159.369H187.241C187.584 159.369 187.863 159.66 187.863 160.019V181.354C187.863 181.713 187.584 182.004 187.241 182.004Z" fill="#3AA1E0"/>
<path d="M186.45 181.007H151.347C151.026 181.007 150.766 180.735 150.766 180.4V160.973C150.766 160.638 151.026 160.366 151.347 160.366H186.45C186.771 160.366 187.031 160.638 187.031 160.973V180.4C187.031 180.735 186.771 181.007 186.45 181.007Z" fill="white"/>
<path d="M185.376 179.741H152.422C152.061 179.741 151.768 179.436 151.768 179.059V162.313C151.768 161.936 152.061 161.631 152.422 161.631H185.376C185.737 161.631 186.029 161.936 186.029 162.313V179.059C186.029 179.436 185.737 179.741 185.376 179.741Z" fill="#3AA1E0"/>
<path d="M174.92 170.686C174.92 174.157 172.224 176.97 168.899 176.97C165.573 176.97 162.877 174.157 162.877 170.686C162.877 167.216 165.573 164.403 168.899 164.403C172.224 164.403 174.92 167.216 174.92 170.686Z" fill="white"/>
<path d="M174.083 170.686C174.083 173.674 171.762 176.097 168.899 176.097C166.035 176.097 163.714 173.674 163.714 170.686C163.714 167.698 166.035 165.275 168.899 165.275C171.762 165.275 174.083 167.698 174.083 170.686Z" fill="#3AA1E0"/>
<path d="M171.454 170.397L169.559 171.539L167.664 172.681V170.397V168.113L169.559 169.255L171.454 170.397Z" fill="white"/>
<path d="M277.331 36.8431C277.161 36.8431 276.988 36.8082 276.822 36.7345C275.706 36.2399 274.986 35.1053 274.986 33.844V24.9895C274.986 24.2391 275.569 23.6309 276.288 23.6309C277.007 23.6309 277.59 24.2391 277.59 24.9895V33.844C277.59 34.0363 277.716 34.1781 277.841 34.2335C278.502 34.527 278.811 35.3246 278.53 36.0153C278.319 36.5325 277.837 36.8431 277.331 36.8431Z" fill="#153F9C"/>
<path opacity="0.7" d="M332.554 16.9001C331.914 16.8866 331.284 16.9087 330.67 16.9617C330.707 16.5996 330.731 16.2342 330.738 15.865C330.902 7.31993 322.745 0.21913 312.519 0.0049525C304.134 -0.170581 296.963 4.33791 294.561 10.6768C292.807 9.9679 290.854 9.5526 288.79 9.50933C281 9.34618 274.582 14.5424 274.456 21.1155C274.329 27.6886 280.542 33.1494 288.332 33.3126C293.598 33.4229 327.7 33.1847 332.239 33.2798C338.863 33.4186 344.303 29.8642 344.39 25.3411C344.477 20.818 339.178 17.0389 332.554 16.9001Z" fill="#26ABF6"/>
<path d="M312.046 3.39676C312.181 3.3969 312.318 3.39827 312.454 3.40113C316.663 3.4893 320.565 4.91629 323.44 7.41933C326.107 9.74086 327.543 12.7161 327.484 15.7968C327.479 16.0556 327.462 16.3249 327.434 16.5973L327.011 20.6867L330.939 20.3467C331.353 20.311 331.773 20.2929 332.187 20.2929C332.287 20.2929 332.388 20.294 332.489 20.296C335.029 20.3492 337.458 21.0727 339.152 22.2807C339.758 22.7125 341.163 23.8684 341.136 25.2727C341.11 26.6413 339.722 27.7209 339.126 28.1215C337.459 29.2433 335.085 29.8868 332.614 29.8868C332.511 29.8868 332.408 29.8857 332.304 29.8835C331.545 29.8676 329.979 29.8598 327.516 29.8598C323.495 29.8598 317.733 29.88 311.633 29.9012C305.382 29.923 298.918 29.9456 294.301 29.9456C291.265 29.9456 289.334 29.936 288.398 29.9164C285.372 29.853 282.575 28.8243 280.522 27.0196C278.668 25.3896 277.669 23.3169 277.71 21.1836C277.798 16.6169 282.608 12.9018 288.434 12.9024C288.53 12.9024 288.628 12.9033 288.725 12.9054C290.361 12.9395 291.929 13.2555 293.385 13.8441L296.399 15.0625L297.588 11.926C298.476 9.58125 300.321 7.45063 302.781 5.92663C305.453 4.27144 308.657 3.39663 312.046 3.39676ZM312.046 4.98409e-08C303.865 -0.000544239 296.918 4.45691 294.561 10.6768C292.807 9.96784 290.854 9.55254 288.79 9.50927C288.671 9.50682 288.552 9.5056 288.433 9.5056C280.804 9.50505 274.58 14.6427 274.456 21.1155C274.329 27.6887 280.542 33.1495 288.333 33.3127C289.363 33.3343 291.499 33.3425 294.301 33.3425C303.333 33.3425 319.293 33.2569 327.516 33.2569C329.777 33.2569 331.452 33.2633 332.239 33.2797C332.364 33.2825 332.49 33.2837 332.614 33.2837C339.067 33.2837 344.305 29.779 344.39 25.341C344.477 20.8178 339.178 17.0387 332.554 16.8999C332.431 16.8973 332.309 16.8961 332.187 16.8961C331.673 16.8961 331.167 16.9185 330.67 16.9615C330.707 16.5995 330.731 16.234 330.738 15.8648C330.902 7.31974 322.745 0.218937 312.519 0.00475892C312.361 0.00162926 312.203 4.98409e-08 312.046 4.98409e-08Z" fill="white"/>
<path d="M287.947 45.7461H275.256C274.452 45.7461 273.793 45.0593 273.793 44.22V34.8683C273.793 34.029 274.452 33.3423 275.256 33.3423H287.947C288.751 33.3423 289.409 34.029 289.409 34.8683V44.22C289.409 45.0593 288.751 45.7461 287.947 45.7461Z" fill="#153F9C"/>
<path d="M281.89 25.6008C283.303 25.6008 284.448 24.2683 284.448 22.6246C284.448 20.9809 283.303 19.6484 281.89 19.6484C280.477 19.6484 279.332 20.9809 279.332 22.6246C279.332 24.2683 280.477 25.6008 281.89 25.6008Z" fill="white"/>
<path d="M285.462 36.9831H281.728C281.009 36.9831 280.426 36.3748 280.426 35.6245C280.426 34.874 281.009 34.2658 281.728 34.2658H285.462C285.681 34.2658 285.866 34.0725 285.866 33.8439V24.4741C285.866 24.2455 285.681 24.0523 285.462 24.0523H282.061C281.342 24.0523 280.759 23.4441 280.759 22.6936C280.759 21.9432 281.342 21.335 282.061 21.335H285.462C287.121 21.335 288.47 22.7432 288.47 24.4741V33.8439C288.47 35.5749 287.121 36.9831 285.462 36.9831Z" fill="#153F9C"/>
<path d="M283.189 38.1866C283.189 37.2715 282.478 36.5298 281.601 36.5298C280.724 36.5298 280.013 37.2715 280.013 38.1866C280.013 38.789 280.323 39.3148 280.783 39.6047V41.7061C280.783 42.1753 281.151 42.5593 281.601 42.5593C282.051 42.5593 282.419 42.1753 282.419 41.7061V39.6047C282.879 39.3149 283.189 38.789 283.189 38.1866Z" fill="#FFC34E"/>
<path opacity="0.5" d="M138.876 186.894V179.117C138.876 178.04 138.031 177.158 136.999 177.158H81.1072V188.853H136.999C138.031 188.852 138.876 187.971 138.876 186.894Z" fill="#99A8C2"/>
<path opacity="0.5" d="M137 159.784H81.1077V171.478H137C138.032 171.478 138.876 170.597 138.876 169.52V161.743C138.876 160.666 138.032 159.784 137 159.784Z" fill="#99A8C2"/>
<path d="M134.245 168.214H76.7629C75.936 168.214 75.2593 167.508 75.2593 166.645V158.089C75.2593 157.226 75.9359 156.52 76.7629 156.52H134.245C135.072 156.52 135.748 157.226 135.748 158.089V166.645C135.748 167.508 135.072 168.214 134.245 168.214Z" fill="#1B45A1"/>
<path d="M131.653 166.566H79.3549C78.6883 166.566 78.1431 165.997 78.1431 165.301V159.433C78.1431 158.738 78.6883 158.168 79.3549 158.168H131.653C132.319 158.168 132.865 158.738 132.865 159.433V165.301C132.865 165.997 132.319 166.566 131.653 166.566Z" fill="white"/>
<path d="M134.245 185.588H76.7629C75.936 185.588 75.2593 184.882 75.2593 184.019V175.463C75.2593 174.6 75.9359 173.894 76.7629 173.894H134.245C135.072 173.894 135.748 174.6 135.748 175.463V184.019C135.748 184.882 135.072 185.588 134.245 185.588Z" fill="#1B45A1"/>
<path d="M131.653 183.94H79.3549C78.6883 183.94 78.1431 183.371 78.1431 182.675V176.807C78.1431 176.112 78.6883 175.542 79.3549 175.542H131.653C132.319 175.542 132.865 176.112 132.865 176.807V182.675C132.865 183.371 132.319 183.94 131.653 183.94Z" fill="white"/>
<path d="M84.7991 162.367C84.7991 163.113 84.2191 163.719 83.5037 163.719C82.7882 163.719 82.2083 163.114 82.2083 162.367C82.2083 161.62 82.7882 161.015 83.5037 161.015C84.2191 161.015 84.7991 161.62 84.7991 162.367ZM89.5246 161.015C88.8092 161.015 88.2291 161.62 88.2291 162.367C88.2291 163.113 88.809 163.719 89.5246 163.719C90.2402 163.719 90.8202 163.114 90.8202 162.367C90.8202 161.62 90.2402 161.015 89.5246 161.015ZM95.5457 161.015C94.8302 161.015 94.2501 161.62 94.2501 162.367C94.2501 163.113 94.8301 163.719 95.5457 163.719C96.2613 163.719 96.8412 163.114 96.8412 162.367C96.8412 161.62 96.2611 161.015 95.5457 161.015ZM101.567 161.015C100.851 161.015 100.271 161.62 100.271 162.367C100.271 163.113 100.851 163.719 101.567 163.719C102.282 163.719 102.862 163.114 102.862 162.367C102.862 161.62 102.282 161.015 101.567 161.015ZM107.588 161.015C106.872 161.015 106.292 161.62 106.292 162.367C106.292 163.113 106.872 163.719 107.588 163.719C108.303 163.719 108.883 163.114 108.883 162.367C108.883 161.62 108.303 161.015 107.588 161.015ZM113.609 161.015C112.893 161.015 112.313 161.62 112.313 162.367C112.313 163.113 112.893 163.719 113.609 163.719C114.324 163.719 114.904 163.114 114.904 162.367C114.904 161.62 114.324 161.015 113.609 161.015Z" fill="#1B45A1"/>
<path d="M84.7991 179.627C84.7991 180.373 84.2191 180.979 83.5037 180.979C82.7882 180.979 82.2083 180.374 82.2083 179.627C82.2083 178.88 82.7882 178.275 83.5037 178.275C84.2191 178.275 84.7991 178.88 84.7991 179.627ZM89.5246 178.275C88.8092 178.275 88.2291 178.88 88.2291 179.627C88.2291 180.373 88.809 180.979 89.5246 180.979C90.2402 180.979 90.8202 180.374 90.8202 179.627C90.8202 178.88 90.2402 178.275 89.5246 178.275ZM95.5457 178.275C94.8302 178.275 94.2501 178.88 94.2501 179.627C94.2501 180.373 94.8301 180.979 95.5457 180.979C96.2613 180.979 96.8412 180.374 96.8412 179.627C96.8412 178.88 96.2611 178.275 95.5457 178.275ZM101.567 178.275C100.851 178.275 100.271 178.88 100.271 179.627C100.271 180.373 100.851 180.979 101.567 180.979C102.282 180.979 102.862 180.374 102.862 179.627C102.862 178.88 102.282 178.275 101.567 178.275ZM107.588 178.275C106.872 178.275 106.292 178.88 106.292 179.627C106.292 180.373 106.872 180.979 107.588 180.979C108.303 180.979 108.883 180.374 108.883 179.627C108.883 178.88 108.303 178.275 107.588 178.275ZM113.609 178.275C112.893 178.275 112.313 178.88 112.313 179.627C112.313 180.373 112.893 180.979 113.609 180.979C114.324 180.979 114.904 180.374 114.904 179.627C114.904 178.88 114.324 178.275 113.609 178.275Z" fill="#1B45A1"/>
<path d="M125.93 164.505C123.534 164.505 121.637 162.682 121.557 162.604C121.459 162.508 121.403 162.373 121.403 162.232C121.403 162.091 121.459 161.956 121.557 161.859C121.637 161.782 123.534 159.959 125.93 159.959C128.325 159.959 130.222 161.782 130.301 161.859C130.4 161.956 130.456 162.091 130.456 162.232C130.456 162.373 130.4 162.508 130.301 162.604C130.222 162.682 128.325 164.505 125.93 164.505ZM122.671 162.231C123.303 162.711 124.54 163.486 125.93 163.486C127.318 163.486 128.554 162.712 129.188 162.232C128.554 161.752 127.318 160.978 125.93 160.978C124.534 160.978 123.301 161.751 122.671 162.231Z" fill="#1B45A1"/>
<path d="M125.93 164.289C124.842 164.289 123.958 163.366 123.958 162.232C123.958 161.097 124.842 160.174 125.93 160.174C127.017 160.174 127.901 161.097 127.901 162.232C127.901 163.366 127.017 164.289 125.93 164.289ZM125.93 161.193C125.381 161.193 124.934 161.659 124.934 162.232C124.934 162.804 125.381 163.271 125.93 163.271C126.478 163.271 126.925 162.804 126.925 162.232C126.925 161.659 126.478 161.193 125.93 161.193Z" fill="#1B45A1"/>
<path d="M124.724 181.649H121.778C121.225 181.649 120.773 181.177 120.773 180.6V178.981C120.773 178.405 121.225 177.933 121.778 177.933H124.724C125.277 177.933 125.729 178.405 125.729 178.981V180.6C125.729 181.177 125.277 181.649 124.724 181.649Z" fill="#1B45A1"/>
<path d="M129.879 180.925H121.362C121.092 180.925 120.873 180.697 120.873 180.415C120.873 180.134 121.092 179.906 121.362 179.906H129.39V178.577C129.39 178.296 129.609 178.068 129.879 178.068C130.148 178.068 130.367 178.296 130.367 178.577V180.415C130.367 180.697 130.148 180.925 129.879 180.925Z" fill="#1B45A1"/>
<path d="M128.734 180.844C128.465 180.844 128.246 180.616 128.246 180.334V178.822C128.246 178.541 128.465 178.313 128.734 178.313C129.004 178.313 129.223 178.541 129.223 178.822V180.334C129.223 180.616 129.004 180.844 128.734 180.844Z" fill="#1B45A1"/>
<path d="M126.95 180.844C126.68 180.844 126.462 180.616 126.462 180.334V178.284C126.462 178.002 126.68 177.774 126.95 177.774C127.22 177.774 127.438 178.002 127.438 178.284V180.334C127.438 180.616 127.22 180.844 126.95 180.844Z" fill="#1B45A1"/>
<path d="M121.725 180.415C121.525 180.415 121.361 180.244 121.361 180.035V179.447C121.361 179.238 121.525 179.067 121.725 179.067C121.926 179.067 122.089 179.238 122.089 179.447V180.035C122.089 180.244 121.926 180.415 121.725 180.415Z" fill="white"/>
<path d="M76.6367 245.599C76.6367 245.599 44.67 222.428 31.148 235.788C20.3509 246.456 39.5164 258.99 64.0345 255.62C81.2922 253.247 83.2483 256.693 86.2711 256.618C108.765 254.82 139.074 247.796 124.324 236.763C104.231 221.732 90.6391 237.667 83.6379 241.633C76.6367 245.599 76.6367 245.599 76.6367 245.599Z" fill="#0E3A82"/>
<path d="M117.967 236.206C109.565 234.397 77.5581 246.783 77.5581 246.783C77.5581 246.783 49.6854 238.015 43.0172 237.18C36.349 236.345 33.2817 238.989 33.2817 238.989C33.2817 238.989 36.428 235.289 40.0832 234.953C43.7385 234.617 49.0185 233.701 49.0185 233.701C49.0185 233.701 102.364 231.056 109.432 232.727C116.5 234.397 117.967 236.206 117.967 236.206Z" fill="#0F2D5C"/>
<path d="M72.6361 191.115C71.3684 191.323 51.6633 200.294 51.4215 204.051C51.1798 207.809 56.8201 238.293 67.7285 242.259C78.637 246.226 90.8389 242.259 90.8389 242.259C90.8389 242.259 103.641 209.276 99.8406 203.014C96.0399 196.751 78.837 191.115 78.837 191.115H72.6361Z" fill="url(#paint8_linear_465_1443)"/>
<path d="M58.1531 198.215C39.3277 208.742 34.7044 227.749 39.6833 231.938C43.1721 234.874 56.3268 241.367 67.7286 240.949C79.1305 240.532 89.839 241.652 89.839 241.652C89.839 241.652 109.398 237.499 113.299 231.381C117.2 225.264 106.378 205.393 96.6734 199.649C86.9693 193.906 58.1531 198.215 58.1531 198.215Z" fill="url(#paint9_linear_465_1443)"/>
<path d="M76.1029 203.014C73.499 203.014 71.3684 200.79 71.3684 198.073V181.443C71.3684 178.725 73.499 176.502 76.1029 176.502C78.7069 176.502 80.8375 178.725 80.8375 181.443V198.073C80.8375 200.79 78.7069 203.014 76.1029 203.014Z" fill="#F09959"/>
<path d="M76.1029 176.502C73.499 176.502 71.3684 178.725 71.3684 181.443V195.041C74.1599 197.476 76.8626 196.2 80.8375 192.985V181.443C80.8375 178.725 78.7069 176.502 76.1029 176.502Z" fill="#E38540"/>
<path d="M86.4943 182.115C85.7164 183.773 84.4528 184.692 83.6721 184.168C82.8915 183.645 82.8893 181.876 83.6673 180.219C84.4452 178.561 85.7088 177.642 86.4894 178.166C87.2701 178.689 87.2723 180.458 86.4943 182.115Z" fill="#F09959"/>
<path d="M68.1762 180.342C69.0758 181.85 69.2486 183.673 68.562 184.413C67.8754 185.153 66.5893 184.53 65.6896 183.022C64.79 181.514 64.6172 179.691 65.304 178.951C65.9906 178.211 67.2765 178.834 68.1762 180.342Z" fill="#F09959"/>
<path d="M76.3157 192.95C80.8126 192.95 84.458 188.051 84.458 182.008C84.458 175.966 80.8126 171.067 76.3157 171.067C71.8188 171.067 68.1733 175.966 68.1733 182.008C68.1733 188.051 71.8188 192.95 76.3157 192.95Z" fill="#F09959"/>
<path d="M94.0699 209.089C99.4043 212.058 104.053 223.309 104.053 223.309C104.053 223.309 92.0502 225.257 89.5606 227.206C87.0713 229.154 89.9163 226.464 91.3389 221.082C92.7614 215.701 94.0699 209.089 94.0699 209.089Z" fill="#FB8627"/>
<path d="M56.9316 208.278C58.1763 214.216 64.133 230.795 64.133 230.795C64.133 230.795 58.6157 224.237 52.7527 223.866C46.8898 223.494 44.7139 223.402 44.751 224.886C44.7583 225.179 45.7288 218.298 50.2632 214.031C54.7976 209.762 56.9316 208.278 56.9316 208.278Z" fill="#FB8627"/>
<path d="M92.6892 245.662H60.4779C59.18 245.662 58.0722 244.684 57.8577 243.348L53.9737 219.157C53.7022 217.467 54.9514 215.927 56.5939 215.927H96.573C98.2156 215.927 99.4646 217.467 99.1932 219.157L95.3093 243.348C95.0948 244.684 93.9869 245.662 92.6892 245.662Z" fill="#2A66C6"/>
<path d="M92.6892 245.662H60.4779C59.18 245.662 58.0722 244.719 57.8577 243.432L53.9737 220.114C53.7022 218.484 54.9514 217 56.5939 217H96.573C98.2156 217 99.4646 218.484 99.1932 220.114L95.3093 243.432C95.0948 244.719 93.9869 245.662 92.6892 245.662Z" fill="url(#paint10_linear_465_1443)"/>
<path d="M80.8374 255.193C80.6447 255.158 60.0339 249.775 55.4332 253.741C50.8324 257.707 70.8357 257.775 74.4364 256.906C78.0369 256.037 80.8374 255.193 80.8374 255.193Z" fill="#0F2D5C"/>
<path d="M85.4382 256.158C85.4382 256.158 89.839 252.697 95.6399 253.323C101.441 253.95 106.442 255.27 101.441 256.906C96.44 258.542 91.2392 258.751 88.8389 258.542C86.4383 258.333 85.4382 256.158 85.4382 256.158Z" fill="#0F2D5C"/>
<path d="M73.7169 166.585C68.428 168.26 70.2687 183.798 76.3156 183.286C82.3625 182.774 82.6077 176.055 82.1785 171.704C81.7494 167.353 79.1741 164.857 73.7169 166.585Z" fill="#0F2D5C"/>
<path d="M71.8162 178.103C70.3446 176.632 68.3211 181.263 69.1183 183.299C69.9154 185.334 68.8004 186.519 69.8791 188.71C70.9577 190.901 67.892 187.318 67.4628 184.694C67.0335 182.071 66.7883 177.527 66.1752 175.48C65.562 173.432 66.2062 169.882 68.9384 169.145C71.6707 168.408 72.3067 167.097 73.3491 167.033C74.3916 166.969 79.3581 167.481 81.8108 168.889C84.2634 170.297 85.6124 172.408 85.4285 175.608C85.2445 178.807 84.4474 186.998 83.7116 188.341C82.9757 189.685 82.5951 189.367 82.8161 188.598C83.0371 187.829 83.8343 183.222 83.2211 181.559C82.6079 179.895 82.9144 175.8 81.3203 175.48C79.726 175.16 80.094 177.997 78.1932 178.21C76.2923 178.423 71.8162 178.103 71.8162 178.103Z" fill="#0F2D5C"/>
<path d="M309.994 246.8C309.994 246.8 308.711 251.968 304.348 253.274C299.985 254.58 295.731 257.113 301.861 257.191C308.586 257.276 312.44 256.946 315.235 256.457C318.03 255.967 316.199 250.826 315.755 248.378C315.311 245.93 309.994 246.8 309.994 246.8Z" fill="#0F2D5C"/>
<path d="M345.729 243.445C345.729 243.445 346.589 252.948 344.4 253.764C342.21 254.58 339.708 256.539 342.836 256.539C345.963 256.539 349.834 257.31 350.846 253.764C352.08 249.439 354.873 248.71 353.877 246.508C352.882 244.307 349.873 240.218 349.873 240.218L345.729 243.445Z" fill="#0F2D5C"/>
<path d="M300.09 143.406L308.725 248.991C308.725 248.991 313.211 251.154 316.444 251.481C319.678 251.807 326.365 205.305 325.798 196.512C325.231 187.719 331.641 159.795 330.157 150.745C328.672 141.695 300.09 143.406 300.09 143.406Z" fill="#0E3A82"/>
<path d="M317.368 144.01C316.76 143.925 316.146 143.849 315.531 143.781L300.613 149.805L303.365 183.453C310.514 199.851 318.352 214.745 322.649 224.751C324.607 212.851 326.062 200.602 325.798 196.512C325.525 192.278 326.87 183.606 328.172 174.743L317.368 144.01Z" fill="#0F2D5C"/>
<path d="M304.348 160.644C312.72 199.48 345.633 246.801 345.597 246.801C345.562 246.801 351.75 245.685 352.063 242.748C352.375 239.81 348.549 210.563 340.177 202.06C331.805 193.557 331.234 153.191 331.234 153.191L304.348 160.644Z" fill="#0E3A82"/>
<path d="M324.087 106.353C333.504 116.236 339.544 133.232 339.626 137.437C339.708 141.643 328.768 149.148 328.768 149.148L324.087 106.353Z" fill="#FB8627"/>
<path d="M313.493 84.541L317.221 103.905L307.022 115.364L305.666 91.8824L313.493 84.541Z" fill="#F09959"/>
<path d="M317.221 97.8666C317.221 97.8666 322.031 99.6283 327.385 113.813C332.74 127.997 336.459 162.949 336.459 162.949C336.459 162.949 326.171 172.065 311.444 172.061C302.058 172.058 297.319 169.857 297.319 169.857C297.319 169.857 296.381 136.913 297.319 125.022C298.257 113.131 312.575 97.5675 317.221 97.8666Z" fill="url(#paint11_linear_465_1443)"/>
<path d="M309.576 100.839C312.606 97.1546 313.73 91.5264 314.147 87.9416L313.558 84.8818L312.799 85.1914L305.666 91.8826L306.364 103.963C307.359 103.223 308.445 102.214 309.576 100.839Z" fill="#E38540"/>
<path d="M311.163 88.8078C309.992 94.5713 305.62 98.4863 301.399 97.5526C297.178 96.6187 294.704 91.1894 295.875 85.426C297.046 79.6625 301.417 75.7473 305.639 76.6812C309.86 77.615 312.333 83.0443 311.163 88.8078Z" fill="#F09959"/>
<path d="M315.78 93.4928L318.976 99.1263L302.04 112.34C302.04 112.34 303.315 106.216 303.657 103.962C303.999 101.709 315.511 93.019 315.78 93.4928Z" fill="url(#paint12_linear_465_1443)"/>
<path d="M295.723 72.7667C288.61 75.1007 294.424 84.4556 296.709 84.5411C298.994 84.6265 299.828 82.4049 301.705 82.9172C303.582 83.4296 305.354 79.9478 306.501 80.7094C307.648 81.471 306.918 88.5434 306.501 89.7403C306.084 90.937 307.96 91.0459 307.96 91.0459C307.96 91.0459 308.725 86.0409 309.907 86.3673C311.088 86.6937 311.965 90.1754 313.664 91.0459C315.363 91.9163 315.363 91.9163 315.363 91.9163C315.363 91.9163 316.406 84.3632 317.969 82.917C319.533 81.4709 318.553 76.466 316.332 75.4867C314.112 74.5075 313.576 70.0465 310.507 69.7201C307.439 69.3936 304.937 71.5697 300.871 71.0257C296.805 70.4818 297.712 72.1139 295.723 72.7667Z" fill="#153F9C"/>
<path d="M312.957 87.5919C312.372 89.0291 311.07 89.8272 310.049 89.3745C309.029 88.9219 308.676 87.3899 309.261 85.9528C309.846 84.5156 311.148 83.7175 312.169 84.1702C313.189 84.6228 313.542 86.1549 312.957 87.5919Z" fill="#F09959"/>
<path d="M320.683 108.402C320.683 108.402 303.231 128.656 296.948 134.922C296.863 140.755 296.906 147.552 296.989 153.592C300.393 151.843 309.851 146.733 315.235 141.314C321.884 134.623 324.851 119.281 320.683 108.402Z" fill="#FB8627"/>
<path d="M276.057 133.241C276.057 133.241 271.883 127.847 270.219 128.366C268.554 128.885 267.925 128.969 266.465 128.885C265.005 128.802 264.901 131.003 266.986 134.962C269.072 138.92 274.702 139.715 276.057 139.644C277.412 139.573 276.057 133.241 276.057 133.241Z" fill="#F09959"/>
<path d="M318.734 103.962C325.483 105.835 323.287 123.69 319.484 131.061C316.751 136.359 307.619 141.762 302.04 143.277C296.461 144.793 274.313 140.261 274.313 140.261C274.313 140.261 273.423 131.936 275.107 131.936C276.792 131.936 294.722 132.836 300.09 127.772C305.458 122.708 310.584 101.7 318.734 103.962Z" fill="url(#paint13_linear_465_1443)"/>
<path d="M270.662 132.08C270.368 132.08 270.077 131.942 269.885 131.68L266.271 126.738C265.943 126.291 266.026 125.651 266.454 125.31C266.883 124.968 267.496 125.054 267.823 125.501L271.438 130.443C271.765 130.89 271.683 131.53 271.254 131.871C271.077 132.012 270.869 132.08 270.662 132.08Z" fill="#FB8627"/>
<defs>
<linearGradient id="paint0_linear_465_1443" x1="79.0421" y1="202.614" x2="75.0681" y2="87.1051" gradientUnits="userSpaceOnUse">
<stop stop-color="#2A66C6"/>
<stop offset="1" stop-color="#79C3F0"/>
</linearGradient>
<linearGradient id="paint1_linear_465_1443" x1="111.936" y1="249.762" x2="-5.13694" y2="180.423" gradientUnits="userSpaceOnUse">
<stop stop-color="#2A66C6"/>
<stop offset="1" stop-color="#79C3F0"/>
</linearGradient>
<linearGradient id="paint2_linear_465_1443" x1="56.2223" y1="80.9871" x2="155.579" y2="23.7739" gradientUnits="userSpaceOnUse">
<stop stop-color="#6BBEFF"/>
<stop offset="1" stop-color="#0C3AA1"/>
</linearGradient>
<linearGradient id="paint3_linear_465_1443" x1="364.596" y1="161.134" x2="275.181" y2="257.353" gradientUnits="userSpaceOnUse">
<stop stop-color="#6BBEFF"/>
<stop offset="1" stop-color="#0C3AA1"/>
</linearGradient>
<linearGradient id="paint4_linear_465_1443" x1="329.045" y1="92.1438" x2="338.06" y2="182.267" gradientUnits="userSpaceOnUse">
<stop stop-color="#6BBEFF"/>
<stop offset="1" stop-color="#0C3AA1"/>
</linearGradient>
<linearGradient id="paint5_linear_465_1443" x1="328.98" y1="92.1503" x2="337.996" y2="182.274" gradientUnits="userSpaceOnUse">
<stop stop-color="#6BBEFF"/>
<stop offset="1" stop-color="#0C3AA1"/>
</linearGradient>
<linearGradient id="paint6_linear_465_1443" x1="140.832" y1="43.4653" x2="220.774" y2="165.787" gradientUnits="userSpaceOnUse">
<stop stop-color="white"/>
<stop offset="1"/>
</linearGradient>
<linearGradient id="paint7_linear_465_1443" x1="154.4" y1="34.5985" x2="234.342" y2="156.92" gradientUnits="userSpaceOnUse">
<stop stop-color="white"/>
<stop offset="1"/>
</linearGradient>
<linearGradient id="paint8_linear_465_1443" x1="90.1267" y1="187.267" x2="57.5573" y2="243.553" gradientUnits="userSpaceOnUse">
<stop stop-color="#FFC34E"/>
<stop offset="1" stop-color="#FB8627"/>
</linearGradient>
<linearGradient id="paint9_linear_465_1443" x1="95.1242" y1="189.55" x2="59.3748" y2="251.331" gradientUnits="userSpaceOnUse">
<stop stop-color="#FFC34E"/>
<stop offset="1" stop-color="#FB8627"/>
</linearGradient>
<linearGradient id="paint10_linear_465_1443" x1="93.7185" y1="206.781" x2="61.4157" y2="244.951" gradientUnits="userSpaceOnUse">
<stop stop-color="#8FD4FF"/>
<stop offset="1" stop-color="#1355BF"/>
</linearGradient>
<linearGradient id="paint11_linear_465_1443" x1="283.622" y1="104.572" x2="348.849" y2="177.376" gradientUnits="userSpaceOnUse">
<stop stop-color="#FFC34E"/>
<stop offset="1" stop-color="#FB8627"/>
</linearGradient>
<linearGradient id="paint12_linear_465_1443" x1="305.563" y1="98.8469" x2="313.15" y2="107.315" gradientUnits="userSpaceOnUse">
<stop stop-color="#FFC34E"/>
<stop offset="1" stop-color="#FB8627"/>
</linearGradient>
<linearGradient id="paint13_linear_465_1443" x1="269.993" y1="146.045" x2="337.387" y2="111.236" gradientUnits="userSpaceOnUse">
<stop stop-color="#FFC34E"/>
<stop offset="1" stop-color="#FB8627"/>
</linearGradient>
</defs>
</svg>
