<svg height="200px" width="200px" version="1.1" id="Layer_1" xmlns="http://www.w3.org/2000/svg" xmlns:xlink="http://www.w3.org/1999/xlink" viewBox="0 0 511.997 511.997" xml:space="preserve" fill="#000000"><g id="SVGRepo_bgCarrier" stroke-width="0"></g><g id="SVGRepo_tracerCarrier" stroke-linecap="round" stroke-linejoin="round"></g><g id="SVGRepo_iconCarrier"> <circle style="fill:#F4E3C3;" cx="255.998" cy="255.998" r="255.998"></circle> <path style="fill:#FED8B2;" d="M323.127,503.087c92.211-24.993,163.758-100.21,183.45-194.483l-182.61-182.61L291.3,186.274 l-58.573-58.574l26.143,63.286l-67.849,179.997L323.127,503.087z"></path> <path style="fill:#C1321F;" d="M256,163.041c-62.838,0-113.777,22.495-113.777,85.333c0,43.23,24.117,110.981,59.628,130.228 c11.902,6.451,26.353,4.872,37.21-3.217c4.729-3.522,10.588-5.606,16.939-5.606c6.351,0,12.212,2.084,16.939,5.606 c10.857,8.087,25.308,9.668,37.21,3.217c35.51-19.249,59.628-86.998,59.628-130.228C369.777,185.536,318.836,163.041,256,163.041z"></path> <path style="fill:#A82116;" d="M256,163.041c-0.193,0-0.381,0.007-0.574,0.007v206.757c0.193-0.003,0.381-0.024,0.574-0.024 c6.353,0,12.212,2.084,16.939,5.606c10.857,8.087,25.308,9.668,37.21,3.215c35.51-19.249,59.628-86.998,59.628-130.228 C369.777,185.536,318.836,163.041,256,163.041z"></path> <path style="fill:#2C9984;" d="M323.966,125.994c0,0-58.959-7.363-67.968,54.222C256,180.216,308.467,194.226,323.966,125.994z"></path> <path style="fill:#268472;" d="M256.164,180.257c3.188,0.777,52.579,11.705,67.699-53.827L256.164,180.257z"></path> <path style="fill:#935635;" d="M256.007,200.104c-0.121,0-0.243-0.002-0.365-0.007c-4.756-0.198-8.451-4.215-8.254-8.971 c1.234-29.603-24.741-49.438-25.003-49.634c-3.808-2.856-4.58-8.259-1.724-12.067c2.856-3.806,8.259-4.582,12.067-1.724 c1.369,1.026,33.492,25.576,31.885,64.143C264.418,196.477,260.601,200.104,256.007,200.104z"></path> <path style="fill:#804000;" d="M255.426,154.582v45.485c0.074,0.005,0.141,0.028,0.215,0.031c0.122,0.005,0.245,0.007,0.365,0.007 c4.594,0,8.413-3.627,8.606-8.261C265.221,177.239,260.989,164.649,255.426,154.582z"></path> </g></svg>