<svg fill="#b51a00" version="1.1" id="Capa_1" xmlns="http://www.w3.org/2000/svg" xmlns:xlink="http://www.w3.org/1999/xlink" viewBox="0 0 181.127 181.128" xml:space="preserve" stroke="#b51a00"><g id="SVGRepo_bgCarrier" stroke-width="0"></g><g id="SVGRepo_tracerCarrier" stroke-linecap="round" stroke-linejoin="round"></g><g id="SVGRepo_iconCarrier"> <g> <g> <path d="M143.089,113.733l-34.367-5.006L93.359,77.603l-0.992-1.02L149.799,0h-38.971L90.564,27.018L70.299,0H31.329 l57.433,76.583l-0.992,1.02l-15.357,31.125l-34.373,5.006c-1.172,0.17-2.153,0.986-2.515,2.119 c-0.359,1.132-0.061,2.362,0.792,3.19l24.862,24.223l-5.855,34.215c-0.201,1.175,0.28,2.356,1.239,3.051 c0.962,0.694,2.232,0.779,3.282,0.237l30.72-16.154l30.72,16.154l1.449,0.359c0.651,0,1.291-0.195,1.833-0.591 c0.962-0.7,1.437-1.882,1.242-3.051l-5.857-34.221l24.861-24.223c0.853-0.828,1.163-2.059,0.792-3.19 C145.233,114.72,144.258,113.903,143.089,113.733z M114.427,139.94c-0.736,0.719-1.077,1.754-0.907,2.765l5.066,29.605 l-24.448-12.86c4.062-11.191,11.545-27.438,22.231-32.961h-13.323c-7.879,2.734-10.78,19.547-11.858,31.634l-0.624-0.152 l-0.648,0.164c-1.084-12.087-3.998-28.899-11.865-31.639H64.725c10.693,5.517,18.17,21.774,22.235,32.973l-24.424,12.842 l5.063-29.605c0.17-1.011-0.161-2.046-0.904-2.752l-21.503-20.959l29.742-4.323c1.008-0.146,1.894-0.792,2.344-1.705 l13.287-26.944l13.293,26.933c0.45,0.913,1.333,1.559,2.344,1.704l29.739,4.323L114.427,139.94z"></path> <circle cx="90.552" cy="118.744" r="9.384"></circle> </g> </g> </g></svg>