<?xml version="1.0" ?><!-- Uploaded to: SVG Repo, www.svgrepo.com, Generator: SVG Repo Mixer Tools -->
<svg width="800px" height="800px" viewBox="0 0 64 64" data-name="Layer 1" id="Layer_1" xmlns="http://www.w3.org/2000/svg"><defs><style>.cls-1{fill:#0074ff;}.cls-2{fill:#ffb300;}</style></defs><title/><path class="cls-1" d="M53.76,55.76H10.24a2,2,0,0,1-2-2V10.24a2,2,0,0,1,2-2H53.76a2,2,0,0,1,2,2V30.89a2,2,0,1,1-4,0V12.24H12.24V51.76H51.76v-5a2,2,0,0,1,4,0v7A2,2,0,0,1,53.76,55.76Z"/><path class="cls-2" d="M37.92,28.08a2,2,0,0,1-1.41-3.41l7.58-7.59a2,2,0,0,1,3.42,1.41v7.1a2,2,0,0,1-4,0V23.32l-4.18,4.17A2,2,0,0,1,37.92,28.08Z"/><path class="cls-2" d="M45.51,20.49H38.18a2,2,0,0,1,0-4h7.33a2,2,0,0,1,0,4Z"/><path class="cls-2" d="M18.49,47.51a1.89,1.89,0,0,1-.76-.16,2,2,0,0,1-1.24-1.84v-7.1a2,2,0,0,1,4,0v2.27l5.05-5a2,2,0,0,1,2.83,2.83l-8.46,8.46A2,2,0,0,1,18.49,47.51Z"/><path class="cls-2" d="M25.82,47.51H18.49a2,2,0,0,1,0-4h7.33a2,2,0,0,1,0,4Z"/><path class="cls-2" d="M45.51,47.51h-7.1a2,2,0,0,1,0-4h2.27L24.92,27.75a2,2,0,0,1,2.83-2.83L46.92,44.09a2,2,0,0,1-1.41,3.42Z"/><path class="cls-2" d="M45.51,47.51a2,2,0,0,1-2-2V38.18a2,2,0,0,1,4,0v7.33A2,2,0,0,1,45.51,47.51Z"/><path class="cls-2" d="M37.67,39.67a2,2,0,0,1-1.42-.59L17.08,19.91a2,2,0,0,1,1.41-3.42h7.1a2,2,0,0,1,0,4H23.32L39.08,36.25a2,2,0,0,1-1.41,3.42Z"/><path class="cls-2" d="M18.49,27.82a2,2,0,0,1-2-2V18.49a2,2,0,0,1,4,0v7.33A2,2,0,0,1,18.49,27.82Z"/></svg>