<?xml version="1.0" encoding="iso-8859-1"?>
<!-- Uploaded to: SVG Repo, www.svgrepo.com, Generator: SVG Repo Mixer Tools -->
<svg height="800px" width="800px" version="1.1" id="Layer_1" xmlns="http://www.w3.org/2000/svg" xmlns:xlink="http://www.w3.org/1999/xlink" 
	 viewBox="0 0 512 512" xml:space="preserve">
<g>
	<path style="fill:#F0C419;" d="M379.586,202.654c0-68.255-55.331-123.207-123.586-123.207S132.414,134.4,132.414,202.654
		S187.745,326.62,256,326.62S379.586,270.909,379.586,202.654"/>
	<path style="fill:#2980BA;" d="M132.414,202.654c0-9.101,1.05-17.558,2.913-26.103H35.31l35.31,52.966h64.706
		C133.464,220.981,132.414,211.756,132.414,202.654"/>
	<polygon style="fill:#24AE5F;" points="255.808,105.932 158.899,203.036 185.382,229.519 255.808,158.898 256.003,159.092 
		256.188,158.898 326.623,229.519 353.106,203.036 	"/>
	<polygon style="fill:#1F894A;" points="255.898,158.898 203.03,211.863 203.03,282.484 308.961,282.484 308.961,211.863 	"/>
	<path style="fill:#3B97D3;" d="M135.422,229.519L135.422,229.519H70.619c15.175,22.758,37.517,38.727,62.923,46.751l7.962-27.154
		l0,0C138.953,242.822,136.914,236.272,135.422,229.519"/>
	<path style="fill:#D75A4A;" d="M141.502,249.116L141.502,249.116L99.059,393.941c-2.436,8.298,7.009,14.98,14.027,9.922
		l40.625-29.29c9.913-7.141,23.896-3.045,28.39,8.324l17.002,43.087c3.628,9.19,16.825,8.589,19.606-0.892l28.99-98.472l-0.627-0.45
		C199.128,322.711,158.795,291.824,141.502,249.116"/>
	<path style="fill:#3B97D3;" d="M161.192,123.588H0l35.31,52.966h99.928C139.52,156.673,148.577,138.603,161.192,123.588"/>
	<path style="fill:#2980BA;" d="M379.586,202.654c0-9.101-1.05-17.558-2.913-26.103H476.69l-35.31,52.966h-64.706
		C378.536,220.981,379.586,211.756,379.586,202.654"/>
	<path style="fill:#3B97D3;" d="M376.578,229.519L376.578,229.519h64.803c-15.175,22.758-37.517,38.727-62.923,46.751l-7.962-27.154
		l0,0C373.047,242.822,375.086,236.272,376.578,229.519"/>
	<path style="fill:#D75A4A;" d="M370.498,249.116L370.498,249.116l42.443,144.825c2.436,8.298-7.009,14.98-14.027,9.922
		l-40.625-29.29c-9.913-7.141-23.896-3.045-28.39,8.324l-17.002,43.087c-3.628,9.19-16.825,8.589-19.606-0.892l-28.99-98.472
		l0.627-0.45C312.872,322.711,353.205,291.824,370.498,249.116"/>
	<path style="fill:#3B97D3;" d="M350.808,123.588H512l-35.31,52.966h-99.928C372.48,156.673,363.423,138.603,350.808,123.588"/>
</g>
</svg>