<svg width="473" height="470" viewBox="0 0 473 470" fill="none" xmlns="http://www.w3.org/2000/svg">
<path d="M472.265 332.687C472.671 256.851 367.444 194.799 237.235 194.089C107.026 193.38 1.14095 254.282 0.735012 330.118C0.329076 405.954 105.556 468.006 235.765 468.716C365.974 469.425 471.859 408.523 472.265 332.687Z" fill="#FFE666"/>
<path d="M347.988 401.797L228.066 331.975C225.499 330.48 225.821 327.869 228.785 326.142L229.496 325.631C232.46 323.906 236.943 323.718 239.51 325.213L359.433 395.035C361.999 396.53 361.677 399.141 358.714 400.868L358.004 401.378C355.039 403.104 350.555 403.291 347.988 401.797Z" fill="#FFC066"/>
<path d="M351.033 73.7423L231.82 0.393502C231.031 -0.066116 230.317 -0.109345 229.803 0.192137L223.629 3.81106C224.144 3.50957 224.857 3.55281 225.647 4.01243L348.067 75.4101C349.622 76.3157 350.882 78.5171 350.877 80.3192L350.477 358.151C350.475 359.047 350.16 359.677 349.654 359.974L352.621 358.306C353.127 358.009 353.441 357.379 353.444 356.483L353.844 78.6514C353.848 76.8493 352.588 74.6479 351.033 73.7423Z" fill="#E6E6E6"/>
<path d="M350.897 80.2978L350.862 94.8963L350.494 358.129C350.494 359.931 349.233 360.655 347.674 359.754L225.26 288.359C223.684 287.44 222.423 285.249 222.44 283.445L222.79 20.2141L222.825 5.61558C222.843 3.81238 224.104 3.08882 225.664 3.98985L348.094 75.3853C349.635 76.3034 350.897 78.4946 350.897 80.2978Z" fill="#BFBFBF"/>
<path d="M347.448 80.805L347.414 94.8871L347.059 353.611C347.059 355.349 345.842 356.049 344.338 355.179L228.606 287.675C227.085 286.789 225.868 284.675 225.885 282.936L226.223 24.2118L226.257 10.1297C226.274 8.39138 227.491 7.69171 228.995 8.56202L344.744 76.0644C346.231 76.9529 347.448 79.0667 347.448 80.805Z" fill="#1F2125"/>
<path d="M350.897 80.2978L350.862 94.8963L222.789 20.2141L222.824 5.61558C222.842 3.81238 224.103 3.08882 225.663 3.98985L348.093 75.3853C349.635 76.3034 350.897 78.4946 350.897 80.2978Z" fill="#BFBFBF"/>
<path d="M242.511 50.0971L237.252 47.0345C236.408 46.5419 235.722 45.2211 235.722 44.0845C235.722 42.948 236.408 42.4247 237.252 42.9173L242.511 45.9799C243.356 46.4725 244.041 47.7933 244.041 48.9298C244.041 50.0664 243.356 50.5886 242.511 50.0971Z" fill="#006EFF"/>
<path d="M242.511 122.29L237.252 119.227C236.408 118.735 235.722 117.414 235.722 116.277C235.722 115.141 236.408 114.618 237.252 115.11L242.511 118.173C243.356 118.665 244.041 119.986 244.041 121.123C244.041 122.26 243.356 122.783 242.511 122.29Z" fill="#006EFF"/>
<path d="M257.308 130.909L246.778 124.776C245.934 124.283 245.248 122.962 245.248 121.826C245.248 120.689 245.934 120.167 246.778 120.658L257.308 126.792C258.153 127.284 258.838 128.605 258.838 129.742C258.838 130.878 258.153 131.401 257.308 130.909Z" fill="#B3D4FF"/>
<path d="M295.286 153.028L261.639 133.431C260.793 132.94 260.108 131.619 260.108 130.481C260.108 129.344 260.794 128.821 261.639 129.314L295.286 148.911C296.131 149.404 296.816 150.725 296.816 151.861C296.816 152.998 296.131 153.52 295.286 153.028Z" fill="#FFAD66"/>
<path d="M263.277 62.1927L247.328 52.9036C246.483 52.411 245.797 51.0902 245.797 49.9537C245.797 48.8171 246.483 48.2938 247.328 48.7864L263.277 58.0755C264.123 58.5681 264.807 59.8889 264.807 61.0254C264.809 62.162 264.123 62.6842 263.277 62.1927Z" fill="#B3D4FF"/>
<path d="M316.115 92.968L268.159 65.036C267.314 64.5434 266.628 63.2237 266.628 62.086C266.628 60.9495 267.314 60.4261 268.159 60.9187L316.115 88.8507C316.961 89.3434 317.646 90.6642 317.646 91.8007C317.646 92.9373 316.961 93.4594 316.115 92.968Z" fill="#FFAD66"/>
<path d="M247.464 60.039L242.206 56.9764C241.361 56.4838 240.675 55.1629 240.675 54.0264C240.675 52.8899 241.361 52.3666 242.206 52.8592L247.464 55.9218C248.309 56.4144 248.995 57.7352 248.995 58.8717C248.995 60.0094 248.31 60.5316 247.464 60.039Z" fill="#006EFF"/>
<path d="M268.231 72.1351L252.282 62.846C251.436 62.3534 250.751 61.0326 250.751 59.896C250.751 58.7595 251.436 58.2362 252.282 58.7288L268.231 68.0179C269.076 68.5105 269.762 69.8313 269.762 70.9678C269.762 72.1055 269.076 72.6277 268.231 72.1351Z" fill="#B3D4FF"/>
<path d="M321.07 102.91L273.113 74.9779C272.268 74.4852 271.583 73.1644 271.583 72.0279C271.583 70.8914 272.269 70.368 273.113 70.8606L321.07 98.7926C321.915 99.2853 322.6 100.606 322.6 101.743C322.6 102.88 321.915 103.402 321.07 102.91Z" fill="#FFAD66"/>
<path d="M247.464 67.6855L242.206 64.6229C241.361 64.1303 240.675 62.8094 240.675 61.6729C240.675 60.5364 241.361 60.013 242.206 60.5057L247.464 63.5683C248.309 64.0609 248.995 65.3817 248.995 66.5182C248.995 67.6547 248.31 68.1781 247.464 67.6855Z" fill="#006EFF"/>
<path d="M247.464 74.9394L242.206 71.8768C241.361 71.3842 240.675 70.0633 240.675 68.9268C240.675 67.7903 241.361 67.2669 242.206 67.7596L247.464 70.8222C248.309 71.3148 248.995 72.6356 248.995 73.7721C248.995 74.9087 248.31 75.432 247.464 74.9394Z" fill="#006EFF"/>
<path d="M247.464 104.199L242.206 101.136C241.361 100.643 240.675 99.3226 240.675 98.1861C240.675 97.0496 241.361 96.5262 242.206 97.0188L247.464 100.081C248.309 100.574 248.995 101.895 248.995 103.031C248.995 104.168 248.31 104.69 247.464 104.199Z" fill="#006EFF"/>
<path d="M247.464 111.322L242.206 108.259C241.361 107.766 240.675 106.446 240.675 105.309C240.675 104.173 241.361 103.649 242.206 104.142L247.464 107.204C248.309 107.697 248.995 109.018 248.995 110.154C248.995 111.291 248.31 111.813 247.464 111.322Z" fill="#006EFF"/>
<path d="M247.464 131.645L242.206 128.582C241.361 128.09 240.675 126.769 240.675 125.632C240.675 124.496 241.361 123.973 242.206 124.465L247.464 127.528C248.309 128.02 248.995 129.341 248.995 130.478C248.995 131.614 248.31 132.136 247.464 131.645Z" fill="#006EFF"/>
<path d="M261.838 140.017L251.605 134.057C250.76 133.564 250.075 132.244 250.075 131.107C250.075 129.97 250.76 129.447 251.605 129.94L261.838 135.9C262.684 136.393 263.368 137.713 263.368 138.85C263.368 139.986 262.684 140.509 261.838 140.017Z" fill="#B3D4FF"/>
<path d="M301.509 163.123L266.529 142.749C265.684 142.257 264.999 140.937 264.999 139.799C264.999 138.662 265.684 138.139 266.529 138.632L301.509 159.005C302.354 159.498 303.04 160.818 303.04 161.955C303.04 163.093 302.354 163.615 301.509 163.123Z" fill="#FFAD66"/>
<path d="M320.244 153.711L314.985 150.649C314.141 150.157 313.455 148.836 313.455 147.699C313.455 146.562 314.141 146.039 314.985 146.532L320.244 149.594C321.089 150.087 321.774 151.408 321.774 152.544C321.774 153.681 321.089 154.204 320.244 153.711Z" fill="#006EFF"/>
<path d="M244.5 79.6332L239.242 76.5706C238.397 76.078 237.711 74.7572 237.711 73.6207C237.711 72.4841 238.397 71.9608 239.242 72.4534L244.5 75.516C245.345 76.0086 246.031 77.3294 246.031 78.466C246.031 79.6025 245.346 80.1258 244.5 79.6332Z" fill="#006EFF"/>
<path d="M259.043 88.1042L248.98 82.243C248.134 81.7504 247.449 80.4295 247.449 79.293C247.449 78.1565 248.134 77.6332 248.98 78.1258L259.043 83.987C259.889 84.4796 260.574 85.7993 260.574 86.937C260.574 88.0735 259.889 88.5957 259.043 88.1042Z" fill="#B3D4FF"/>
<path d="M313.152 119.619L306.052 115.483C305.207 114.991 304.521 113.67 304.521 112.533C304.521 111.397 305.207 110.873 306.052 111.366L313.152 115.501C313.997 115.994 314.682 117.315 314.682 118.451C314.682 119.588 313.998 120.11 313.152 119.619Z" fill="#B3D4FF"/>
<path d="M279.958 100.285L263.586 90.7493C262.741 90.2567 262.056 88.9359 262.056 87.7994C262.056 86.6628 262.741 86.1395 263.586 86.6321L279.958 96.168C280.804 96.6606 281.489 97.9815 281.489 99.118C281.489 100.256 280.804 100.778 279.958 100.285Z" fill="#FFAD66"/>
<path d="M244.5 87.5732L239.242 84.5106C238.397 84.018 237.711 82.6971 237.711 81.5606C237.711 80.4241 238.397 79.9007 239.242 80.3933L244.5 83.456C245.345 83.9486 246.031 85.2694 246.031 86.4059C246.031 87.5425 245.346 88.0658 244.5 87.5732Z" fill="#006EFF"/>
<path d="M244.5 116.539L239.242 113.476C238.397 112.984 237.711 111.663 237.711 110.526C237.711 109.39 238.397 108.867 239.242 109.359L244.5 112.422C245.345 112.914 246.031 114.235 246.031 115.372C246.031 116.508 245.346 117.03 244.5 116.539Z" fill="#006EFF"/>
<path d="M259.043 96.0439L248.98 90.1815C248.134 89.6889 247.449 88.368 247.449 87.2315C247.449 86.095 248.134 85.5716 248.98 86.0642L259.043 91.9255C259.889 92.4181 260.574 93.739 260.574 94.8755C260.574 96.0132 259.889 96.5353 259.043 96.0439Z" fill="#B3D4FF"/>
<path d="M259.044 118.066L252.366 114.178C251.522 113.686 250.836 112.365 250.836 111.228C250.836 110.091 251.522 109.568 252.366 110.06L259.044 113.949C259.889 114.441 260.574 115.761 260.574 116.899C260.574 118.037 259.889 118.559 259.044 118.066Z" fill="#B3D4FF"/>
<path d="M287.623 134.711L280.945 130.823C280.101 130.33 279.415 129.009 279.415 127.873C279.415 126.736 280.101 126.213 280.945 126.705L287.623 130.594C288.467 131.087 289.153 132.406 289.153 133.544C289.153 134.682 288.467 135.204 287.623 134.711Z" fill="#B3D4FF"/>
<path d="M333.327 147.395L244.662 95.7528C243.816 95.2602 243.131 93.9393 243.131 92.8028C243.131 91.6663 243.816 91.1441 244.662 91.6355L333.327 143.278C334.172 143.77 334.857 145.091 334.857 146.228C334.857 147.365 334.172 147.887 333.327 147.395Z" fill="#F2F2F2"/>
<path d="M276.233 106.056L263.587 98.6893C262.742 98.1967 262.057 96.8758 262.057 95.7393C262.057 94.6028 262.742 94.0794 263.587 94.5721L276.233 101.938C277.079 102.431 277.764 103.752 277.764 104.888C277.764 106.025 277.078 106.547 276.233 106.056Z" fill="#FFAD66"/>
<path d="M276.233 128.077L263.587 120.711C262.742 120.218 262.057 118.898 262.057 117.761C262.057 116.624 262.742 116.101 263.587 116.594L276.233 123.96C277.079 124.453 277.764 125.773 277.764 126.91C277.764 128.048 277.078 128.57 276.233 128.077Z" fill="#FFAD66"/>
<path d="M310.273 147.905L292.419 137.505C291.574 137.013 290.888 135.692 290.888 134.555C290.888 133.419 291.574 132.895 292.419 133.388L310.273 143.787C311.117 144.28 311.803 145.601 311.803 146.737C311.803 147.874 311.118 148.396 310.273 147.905Z" fill="#F2F2F2"/>
<path d="M301.679 112.936L285.306 103.4C284.462 102.908 283.776 101.587 283.776 100.45C283.776 99.3137 284.462 98.7904 285.306 99.283L301.679 108.819C302.523 109.312 303.209 110.632 303.209 111.769C303.209 112.905 302.523 113.428 301.679 112.936Z" fill="#F2F2F2"/>
<path d="M268.231 79.7811L252.282 70.492C251.436 69.9994 250.751 68.6786 250.751 67.542C250.751 66.4055 251.436 65.8822 252.282 66.3748L268.231 75.6638C269.076 76.1565 269.762 77.4773 269.762 78.6138C269.762 79.7504 269.076 80.2725 268.231 79.7811Z" fill="#B3D4FF"/>
<path d="M302.525 99.7552L286.576 90.4661C285.73 89.9735 285.045 88.6527 285.045 87.5162C285.045 86.3796 285.731 85.8563 286.576 86.3489L302.525 95.638C303.371 96.1306 304.056 97.4503 304.056 98.5879C304.056 99.7245 303.37 100.248 302.525 99.7552Z" fill="#B3D4FF"/>
<path d="M281.186 87.326L273.112 82.6229C272.266 82.1303 271.582 80.8106 271.582 79.6729C271.582 78.5364 272.267 78.013 273.112 78.5057L281.186 83.2088C282.031 83.7014 282.717 85.0222 282.717 86.1587C282.717 87.2964 282.032 87.8186 281.186 87.326Z" fill="#FFAD66"/>
<path d="M333.962 118.065L307.915 102.894C307.07 102.401 306.384 101.08 306.384 99.9439C306.384 98.8074 307.07 98.284 307.915 98.7766L333.962 113.947C334.807 114.439 335.492 115.76 335.492 116.897C335.492 118.034 334.806 118.557 333.962 118.065Z" fill="#FFAD66"/>
<path d="M247.464 138.114L242.206 135.051C241.361 134.558 240.675 133.238 240.675 132.101C240.675 130.965 241.361 130.441 242.206 130.934L247.464 133.996C248.309 134.489 248.995 135.81 248.995 136.946C248.995 138.084 248.31 138.606 247.464 138.114Z" fill="#006EFF"/>
<path d="M268.231 150.209L252.282 140.92C251.436 140.428 250.751 139.107 250.751 137.97C250.751 136.834 251.436 136.31 252.282 136.803L268.231 146.092C269.076 146.584 269.762 147.904 269.762 149.042C269.762 150.18 269.076 150.702 268.231 150.209Z" fill="#B3D4FF"/>
<path d="M302.525 170.185L286.576 160.896C285.73 160.403 285.045 159.082 285.045 157.946C285.045 156.809 285.731 156.286 286.576 156.779L302.525 166.068C303.371 166.56 304.056 167.881 304.056 169.018C304.056 170.154 303.37 170.676 302.525 170.185Z" fill="#B3D4FF"/>
<path d="M281.186 157.756L273.112 153.053C272.266 152.56 271.582 151.239 271.582 150.103C271.582 148.966 272.267 148.443 273.112 148.935L281.186 153.638C282.031 154.131 282.717 155.452 282.717 156.588C282.717 157.725 282.032 158.248 281.186 157.756Z" fill="#FFAD66"/>
<path d="M333.962 188.493L307.915 173.323C307.07 172.83 306.384 171.509 306.384 170.373C306.384 169.236 307.07 168.713 307.915 169.205L333.962 184.376C334.807 184.868 335.492 186.188 335.492 187.326C335.492 188.464 334.806 188.986 333.962 188.493Z" fill="#FFAD66"/>
<path d="M242.511 145.566L237.252 142.503C236.408 142.01 235.722 140.689 235.722 139.553C235.722 138.416 236.408 137.893 237.252 138.386L242.511 141.448C243.356 141.941 244.041 143.262 244.041 144.398C244.041 145.536 243.356 146.059 242.511 145.566Z" fill="#006EFF"/>
<path d="M242.511 217.759L237.252 214.697C236.408 214.204 235.722 212.883 235.722 211.747C235.722 210.61 236.408 210.087 237.252 210.579L242.511 213.643C243.356 214.136 244.041 215.457 244.041 216.593C244.041 217.73 243.356 218.252 242.511 217.759Z" fill="#006EFF"/>
<path d="M257.308 226.379L246.778 220.245C245.934 219.753 245.248 218.432 245.248 217.295C245.248 216.159 245.934 215.637 246.778 216.128L257.308 222.261C258.153 222.754 258.838 224.075 258.838 225.211C258.838 226.348 258.153 226.871 257.308 226.379Z" fill="#B3D4FF"/>
<path d="M295.286 248.498L261.639 228.901C260.793 228.408 260.108 227.088 260.108 225.951C260.108 224.814 260.794 224.291 261.639 224.783L295.286 244.381C296.131 244.874 296.816 246.194 296.816 247.331C296.816 248.467 296.131 248.991 295.286 248.498Z" fill="#FFAD66"/>
<path d="M263.277 157.662L247.328 148.373C246.483 147.88 245.797 146.559 245.797 145.423C245.797 144.286 246.483 143.763 247.328 144.256L263.277 153.545C264.123 154.037 264.807 155.358 264.807 156.495C264.809 157.631 264.123 158.155 263.277 157.662Z" fill="#B3D4FF"/>
<path d="M316.115 188.437L268.159 160.505C267.314 160.014 266.628 158.693 266.628 157.555C266.628 156.419 267.314 155.895 268.159 156.388L316.115 184.32C316.961 184.813 317.646 186.133 317.646 187.27C317.646 188.406 316.961 188.93 316.115 188.437Z" fill="#FFAD66"/>
<path d="M247.464 155.51L242.206 152.447C241.361 151.954 240.675 150.634 240.675 149.497C240.675 148.361 241.361 147.837 242.206 148.33L247.464 151.392C248.309 151.885 248.995 153.206 248.995 154.342C248.995 155.479 248.31 156.001 247.464 155.51Z" fill="#006EFF"/>
<path d="M268.231 167.605L252.282 158.316C251.436 157.824 250.751 156.503 250.751 155.366C250.751 154.23 251.436 153.706 252.282 154.199L268.231 163.488C269.076 163.981 269.762 165.302 269.762 166.438C269.762 167.575 269.076 168.097 268.231 167.605Z" fill="#B3D4FF"/>
<path d="M321.07 198.379L273.113 170.447C272.268 169.954 271.583 168.634 271.583 167.497C271.583 166.361 272.269 165.837 273.113 166.33L321.07 194.262C321.915 194.754 322.6 196.075 322.6 197.212C322.6 198.35 321.915 198.872 321.07 198.379Z" fill="#FFAD66"/>
<path d="M247.464 163.155L242.206 160.092C241.361 159.6 240.675 158.279 240.675 157.142C240.675 156.006 241.361 155.482 242.206 155.975L247.464 159.037C248.309 159.53 248.995 160.851 248.995 161.987C248.995 163.125 248.31 163.647 247.464 163.155Z" fill="#006EFF"/>
<path d="M247.464 170.409L242.206 167.346C241.361 166.853 240.675 165.533 240.675 164.396C240.675 163.26 241.361 162.736 242.206 163.229L247.464 166.291C248.309 166.784 248.995 168.105 248.995 169.241C248.995 170.378 248.31 170.901 247.464 170.409Z" fill="#006EFF"/>
<path d="M247.464 199.668L242.206 196.606C241.361 196.113 240.675 194.792 240.675 193.656C240.675 192.519 241.361 191.996 242.206 192.489L247.464 195.551C248.309 196.044 248.995 197.365 248.995 198.501C248.995 199.638 248.31 200.161 247.464 199.668Z" fill="#006EFF"/>
<path d="M247.464 206.791L242.206 203.729C241.361 203.236 240.675 201.915 240.675 200.779C240.675 199.642 241.361 199.119 242.206 199.612L247.464 202.674C248.309 203.167 248.995 204.488 248.995 205.624C248.995 206.762 248.31 207.284 247.464 206.791Z" fill="#006EFF"/>
<path d="M247.464 227.115L242.206 224.052C241.361 223.559 240.675 222.239 240.675 221.102C240.675 219.966 241.361 219.442 242.206 219.935L247.464 222.997C248.309 223.49 248.995 224.811 248.995 225.947C248.995 227.085 248.31 227.607 247.464 227.115Z" fill="#006EFF"/>
<path d="M261.838 235.486L251.605 229.526C250.76 229.034 250.075 227.713 250.075 226.576C250.075 225.44 250.76 224.916 251.605 225.409L261.838 231.369C262.684 231.862 263.368 233.183 263.368 234.319C263.368 235.456 262.684 235.979 261.838 235.486Z" fill="#B3D4FF"/>
<path d="M301.509 258.593L266.529 238.218C265.684 237.727 264.999 236.406 264.999 235.268C264.999 234.132 265.684 233.608 266.529 234.101L301.509 254.474C302.354 254.967 303.04 256.288 303.04 257.424C303.04 258.562 302.354 259.085 301.509 258.593Z" fill="#FFAD66"/>
<path d="M320.244 249.181L314.985 246.118C314.141 245.627 313.455 244.306 313.455 243.168C313.455 242.031 314.141 241.508 314.985 242.001L320.244 245.063C321.089 245.556 321.774 246.877 321.774 248.013C321.774 249.151 321.089 249.673 320.244 249.181Z" fill="#006EFF"/>
<path d="M244.5 175.102L239.242 172.04C238.397 171.547 237.711 170.226 237.711 169.09C237.711 167.953 238.397 167.43 239.242 167.923L244.5 170.985C245.345 171.478 246.031 172.799 246.031 173.935C246.031 175.073 245.346 175.595 244.5 175.102Z" fill="#006EFF"/>
<path d="M259.043 183.574L248.98 177.712C248.134 177.22 247.449 175.899 247.449 174.762C247.449 173.626 248.134 173.102 248.98 173.595L259.043 179.456C259.889 179.949 260.574 181.269 260.574 182.406C260.574 183.543 259.889 184.066 259.043 183.574Z" fill="#B3D4FF"/>
<path d="M313.152 215.088L306.052 210.953C305.207 210.46 304.521 209.14 304.521 208.003C304.521 206.866 305.207 206.343 306.052 206.836L313.152 210.971C313.997 211.464 314.682 212.785 314.682 213.921C314.682 215.059 313.998 215.581 313.152 215.088Z" fill="#B3D4FF"/>
<path d="M279.958 195.756L263.586 186.22C262.741 185.727 262.056 184.407 262.056 183.27C262.056 182.134 262.741 181.61 263.586 182.103L279.958 191.639C280.804 192.131 281.489 193.452 281.489 194.589C281.489 195.725 280.804 196.247 279.958 195.756Z" fill="#FFAD66"/>
<path d="M244.5 183.042L239.242 179.98C238.397 179.487 237.711 178.166 237.711 177.03C237.711 175.893 238.397 175.37 239.242 175.863L244.5 178.925C245.345 179.418 246.031 180.739 246.031 181.875C246.031 183.013 245.346 183.535 244.5 183.042Z" fill="#006EFF"/>
<path d="M244.5 212.009L239.242 208.946C238.397 208.454 237.711 207.133 237.711 205.996C237.711 204.86 238.397 204.336 239.242 204.829L244.5 207.891C245.345 208.384 246.031 209.705 246.031 210.841C246.031 211.978 245.346 212.501 244.5 212.009Z" fill="#006EFF"/>
<path d="M259.043 191.514L248.98 185.651C248.134 185.159 247.449 183.838 247.449 182.701C247.449 181.565 248.134 181.041 248.98 181.534L259.043 187.395C259.889 187.888 260.574 189.209 260.574 190.345C260.574 191.483 259.889 192.006 259.043 191.514Z" fill="#B3D4FF"/>
<path d="M259.044 213.535L252.366 209.647C251.522 209.155 250.836 207.834 250.836 206.697C250.836 205.56 251.522 205.037 252.366 205.53L259.044 209.419C259.889 209.912 260.574 211.233 260.574 212.369C260.574 213.506 259.889 214.028 259.044 213.535Z" fill="#B3D4FF"/>
<path d="M287.623 230.18L280.945 226.292C280.101 225.799 279.415 224.478 279.415 223.342C279.415 222.205 280.101 221.682 280.945 222.175L287.623 226.063C288.467 226.556 289.153 227.877 289.153 229.013C289.153 230.151 288.467 230.673 287.623 230.18Z" fill="#B3D4FF"/>
<path d="M333.327 242.866L244.662 191.223C243.816 190.731 243.131 189.41 243.131 188.273C243.131 187.137 243.816 186.615 244.662 187.106L333.327 238.748C334.172 239.241 334.857 240.562 334.857 241.698C334.857 242.835 334.172 243.357 333.327 242.866Z" fill="#F2F2F2"/>
<path d="M276.233 201.525L263.587 194.159C262.742 193.666 262.057 192.346 262.057 191.209C262.057 190.072 262.742 189.549 263.587 190.041L276.233 197.408C277.079 197.9 277.764 199.221 277.764 200.358C277.764 201.495 277.078 202.018 276.233 201.525Z" fill="#FFAD66"/>
<path d="M276.233 223.547L263.587 216.18C262.742 215.688 262.057 214.368 262.057 213.231C262.057 212.094 262.742 211.571 263.587 212.063L276.233 219.43C277.079 219.922 277.764 221.243 277.764 222.38C277.764 223.517 277.078 224.04 276.233 223.547Z" fill="#FFAD66"/>
<path d="M310.273 243.374L292.419 232.974C291.574 232.482 290.888 231.161 290.888 230.024C290.888 228.888 291.574 228.365 292.419 228.857L310.273 239.257C311.117 239.749 311.803 241.07 311.803 242.207C311.803 243.343 311.118 243.866 310.273 243.374Z" fill="#F2F2F2"/>
<path d="M301.679 208.405L285.306 198.869C284.462 198.377 283.776 197.056 283.776 195.919C283.776 194.783 284.462 194.26 285.306 194.752L301.679 204.288C302.523 204.781 303.209 206.102 303.209 207.238C303.209 208.375 302.523 208.898 301.679 208.405Z" fill="#F2F2F2"/>
<path d="M268.231 175.25L252.282 165.961C251.436 165.469 250.751 164.148 250.751 163.011C250.751 161.875 251.436 161.351 252.282 161.844L268.231 171.133C269.076 171.626 269.762 172.947 269.762 174.083C269.762 175.22 269.076 175.743 268.231 175.25Z" fill="#B3D4FF"/>
<path d="M302.525 195.224L286.576 185.935C285.73 185.443 285.045 184.122 285.045 182.985C285.045 181.849 285.731 181.326 286.576 181.818L302.525 191.107C303.371 191.6 304.056 192.921 304.056 194.057C304.056 195.195 303.37 195.717 302.525 195.224Z" fill="#B3D4FF"/>
<path d="M281.186 182.797L273.112 178.094C272.266 177.601 271.582 176.28 271.582 175.144C271.582 174.007 272.267 173.484 273.112 173.976L281.186 178.679C282.031 179.172 282.717 180.493 282.717 181.629C282.717 182.766 282.032 183.289 281.186 182.797Z" fill="#FFAD66"/>
<path d="M333.962 213.534L307.915 198.363C307.07 197.87 306.384 196.55 306.384 195.413C306.384 194.277 307.07 193.753 307.915 194.246L333.962 209.417C334.807 209.908 335.492 211.229 335.492 212.367C335.492 213.504 334.806 214.027 333.962 213.534Z" fill="#FFAD66"/>
<path d="M247.464 233.584L242.206 230.522C241.361 230.029 240.675 228.708 240.675 227.572C240.675 226.435 241.361 225.912 242.206 226.405L247.464 229.467C248.309 229.96 248.995 231.281 248.995 232.417C248.995 233.554 248.31 234.076 247.464 233.584Z" fill="#006EFF"/>
<path d="M268.231 245.68L252.282 236.391C251.436 235.898 250.751 234.577 250.751 233.441C250.751 232.304 251.436 231.781 252.282 232.274L268.231 241.563C269.076 242.054 269.762 243.375 269.762 244.513C269.762 245.649 269.076 246.171 268.231 245.68Z" fill="#B3D4FF"/>
<path d="M302.525 265.654L286.576 256.365C285.73 255.872 285.045 254.552 285.045 253.415C285.045 252.279 285.731 251.755 286.576 252.248L302.525 261.537C303.371 262.03 304.056 263.35 304.056 264.487C304.056 265.623 303.37 266.146 302.525 265.654Z" fill="#B3D4FF"/>
<path d="M281.186 253.225L273.112 248.522C272.266 248.029 271.582 246.708 271.582 245.572C271.582 244.435 272.267 243.912 273.112 244.405L281.186 249.108C282.031 249.6 282.717 250.921 282.717 252.058C282.717 253.195 282.032 253.718 281.186 253.225Z" fill="#FFAD66"/>
<path d="M333.962 283.964L307.915 268.793C307.07 268.3 306.384 266.979 306.384 265.843C306.384 264.706 307.07 264.183 307.915 264.676L333.962 279.846C334.807 280.338 335.492 281.659 335.492 282.796C335.492 283.933 334.806 284.455 333.962 283.964Z" fill="#FFAD66"/>
<path d="M334.765 77.0566C334.765 79.6129 336.554 82.7278 338.764 84.0146C340.972 85.3001 342.763 84.2705 342.763 81.7142C342.763 79.1579 340.973 76.0429 338.764 74.7562C336.554 73.4707 334.765 74.5002 334.765 77.0566Z" fill="#404040"/>
<path d="M323.591 70.5488C323.591 73.1051 325.381 76.22 327.59 77.5067C329.798 78.7923 331.589 77.7627 331.589 75.2064C331.589 72.65 329.798 69.5351 327.59 68.2484C325.382 66.9628 323.591 67.9924 323.591 70.5488Z" fill="#404040"/>
<path d="M312.419 64.0415C312.419 66.5978 314.21 69.7127 316.418 70.9994C318.626 72.2861 320.417 71.2554 320.417 68.6991C320.417 66.1427 318.626 63.0278 316.418 61.7411C314.21 60.4555 312.419 61.4851 312.419 64.0415Z" fill="#404040"/>
<path d="M292.321 435.05L172.399 365.228C169.832 363.733 170.154 361.122 173.118 359.395L179.927 355.43C182.89 353.704 187.374 353.517 189.941 355.012L309.863 424.834C312.43 426.329 312.109 428.939 309.145 430.666L302.337 434.631C299.372 436.357 294.888 436.544 292.321 435.05Z" fill="#FFC066"/>
<path d="M304.118 84.5482L193.768 20.2768C191.697 19.0698 189.826 19.0356 188.369 19.8695L177.483 26.2223L190.297 36.2747L193.43 35.4738V299.277C193.43 305.464 197.16 312.652 201.758 315.331L298.514 386.779V391.183L309.777 384.549L309.776 384.504C311.408 383.411 312.446 381.12 312.446 377.882V100.602C312.446 94.4141 308.717 87.2274 304.118 84.5482Z" fill="#999999"/>
<path d="M287.243 108.1V95.6508L276.391 103.875L228.964 83.8236L193.43 57.7323V35.4693L190.281 36.2634L177.489 26.2235L188.37 19.8707C189.831 19.0482 191.687 19.0767 193.767 20.2678L304.109 84.5608C307.145 86.3196 309.789 90.0341 311.222 94.1183L287.243 108.1Z" fill="#E6E6E6"/>
<path d="M293.164 390.675L182.815 326.404C178.215 323.725 174.486 316.537 174.486 310.35V33.0698C174.486 26.8832 178.215 24.039 182.815 26.7182L293.164 90.9896C297.764 93.6688 301.492 100.857 301.492 107.043V384.322C301.492 390.51 297.764 393.354 293.164 390.675Z" fill="#CCCCCC"/>
<path d="M176.92 311.987V34.2687C176.92 29.759 179.638 27.6862 182.989 29.6396L292.988 93.7062C296.341 95.6584 299.058 100.897 299.058 105.406V383.125C299.058 387.635 296.341 389.707 292.988 387.754L182.989 323.687C179.638 321.735 176.92 316.497 176.92 311.987Z" fill="#333333"/>
<path d="M295.83 108.355V377.367C295.83 381.369 293.03 382.951 289.597 380.951L186.393 320.842C182.937 318.829 180.136 313.954 180.136 309.954V40.9697C180.136 36.9697 182.937 35.3587 186.393 37.3713L205.247 48.3532C206.034 48.8116 206.726 49.8173 206.945 50.8196L207.819 54.839C208.476 58.6889 211.47 62.9688 214.976 65.0109L260.991 91.812C264.497 93.8542 267.516 93.076 268.149 89.977L269.023 86.9758C269.24 86.2272 269.933 86.0282 270.719 86.4855L289.598 97.481C293.031 99.4799 295.83 104.353 295.83 108.355Z" fill="#80C5FF"/>
<path d="M219.184 61.1132C219.184 63.2531 217.685 64.1155 215.837 63.0381C213.987 61.9607 212.488 59.3532 212.488 57.2132C212.488 55.0733 213.987 54.2109 215.837 55.2883C217.685 56.3646 219.184 58.9721 219.184 61.1132Z" fill="#666666"/>
<path d="M217.67 60.2312C217.67 61.4042 216.849 61.8763 215.836 61.287C214.822 60.6965 214.001 59.2676 214.001 58.0947C214.001 56.9218 214.822 56.4496 215.836 57.0401C216.849 57.6294 217.67 59.0583 217.67 60.2312Z" fill="#333333"/>
<path d="M254.068 76.6743L221.328 57.6048C220.789 57.2908 220.351 56.4477 220.351 55.7231V54.3863C220.351 53.6605 220.789 53.3271 221.328 53.6423L254.068 72.7118C254.607 73.0258 255.044 73.8688 255.044 74.5935V75.9303C255.044 76.655 254.607 76.9883 254.068 76.6743Z" fill="black"/>
<path d="M309.387 143.335C308.738 142.954 307.839 143.008 306.844 143.587C304.87 144.738 303.277 147.519 303.284 149.808L303.377 182.766C303.38 183.896 303.779 184.696 304.422 185.074L306.404 186.235C305.76 185.859 305.361 185.058 305.358 183.928L305.266 150.97C305.259 148.681 306.851 145.898 308.826 144.749C309.819 144.17 310.719 144.116 311.368 144.496L309.387 143.335Z" fill="#E6E6E6"/>
<path d="M308.827 144.748C310.801 143.597 312.404 144.519 312.41 146.808L312.502 179.765C312.509 182.034 310.917 184.837 308.942 185.986C306.967 187.136 305.365 186.194 305.359 183.925L305.267 150.968C305.26 148.681 306.852 145.898 308.827 144.748Z" fill="#BFBFBF"/>
<path d="M309.408 148.453C311.027 147.51 312.342 148.266 312.348 150.144L312.424 177.178C312.428 179.038 311.122 181.338 309.503 182.282C307.883 183.225 306.568 182.453 306.564 180.591L306.488 153.557C306.483 151.68 307.789 149.398 309.408 148.453Z" fill="#CCCCCC"/>
<path d="M213.265 87.515L194 76.2941C193.375 75.9289 192.807 75.896 192.398 76.136L188.777 78.2589C189.186 78.0188 189.753 78.0518 190.379 78.417L209.644 89.6378C210.89 90.3637 211.9 92.127 211.896 93.5719L211.833 115.904C211.831 116.621 211.581 117.124 211.176 117.362L214.797 115.239C215.201 115.002 215.452 114.498 215.453 113.781L215.516 91.449C215.521 90.0042 214.513 88.2419 213.265 87.515Z" fill="#8482FF"/>
<path d="M209.644 89.6388C210.89 90.3646 211.9 92.128 211.896 93.5728L211.833 115.905C211.829 117.35 210.814 117.928 209.568 117.202L190.303 105.981C189.056 105.256 188.052 103.5 188.056 102.055L188.119 79.7229C188.124 78.278 189.134 77.691 190.38 78.4168L209.644 89.6388Z" fill="#4D4BB7"/>
<path d="M198.597 98.9716L196.787 103.873L189.247 99.4813L193.927 92.8202C194.585 91.8851 196.228 92.843 196.885 94.5427L198.597 98.9716Z" fill="white"/>
<path d="M201.569 106.657L196.788 103.873L198.597 98.9717L201.569 106.657Z" fill="#E6E6E6"/>
<path d="M209.109 111.049L201.569 106.658L198.598 98.9716L200.886 92.7827C201.572 90.9283 204.325 92.5324 205.01 95.1843L209.109 111.049Z" fill="white"/>
<path d="M198.632 90.2614C198.632 91.3376 197.879 91.7711 196.948 91.2296C196.019 90.688 195.265 89.3763 195.265 88.3C195.265 87.2238 196.018 86.7904 196.948 87.3319C197.879 87.8734 198.632 89.1851 198.632 90.2614Z" fill="#E6E6E6"/>
<path d="M284.14 172.246L227.072 138.967C226.421 138.588 225.834 138.552 225.409 138.801L221.788 140.924C222.213 140.675 222.8 140.71 223.451 141.09L280.517 174.369C281.811 175.122 282.853 176.943 282.848 178.448L282.826 186.597C282.824 187.343 282.563 187.869 282.142 188.116L285.764 185.993C286.184 185.746 286.446 185.22 286.447 184.474L286.471 176.325C286.474 174.82 285.433 172.999 284.14 172.246Z" fill="#8482FF"/>
<path d="M280.519 174.369C281.812 175.122 282.854 176.942 282.85 178.448L282.827 186.597C282.823 188.096 281.774 188.704 280.481 187.951L223.415 154.672C222.122 153.918 221.079 152.092 221.084 150.593L221.107 142.444C221.111 140.939 222.16 140.337 223.452 141.09L280.519 174.369Z" fill="#4D4BB7"/>
<path d="M278.946 179.358L225.803 148.24C225.306 147.95 224.902 148.259 224.902 148.928C224.902 149.597 225.305 150.374 225.803 150.664L278.946 181.781C279.444 182.071 279.846 181.763 279.846 181.094C279.846 180.425 279.444 179.648 278.946 179.358Z" fill="white"/>
<path d="M284.14 196.735L227.072 163.456C226.421 163.077 225.834 163.041 225.409 163.291L221.788 165.414C222.213 165.165 222.8 165.2 223.451 165.58L280.517 198.859C281.811 199.613 282.853 201.433 282.848 202.938L282.826 211.087C282.824 211.833 282.563 212.359 282.142 212.606L285.764 210.483C286.184 210.236 286.446 209.71 286.447 208.964L286.471 200.816C286.474 199.309 285.433 197.488 284.14 196.735Z" fill="#8482FF"/>
<path d="M280.519 198.858C281.812 199.611 282.854 201.432 282.85 202.937L282.827 211.086C282.823 212.585 281.774 213.193 280.481 212.44L223.415 179.161C222.122 178.408 221.079 176.582 221.084 175.082L221.107 166.933C221.111 165.428 222.16 164.826 223.452 165.579L280.519 198.858Z" fill="#4D4BB7"/>
<path d="M278.946 203.847L225.803 172.729C225.306 172.439 224.902 172.747 224.902 173.416C224.902 174.085 225.305 174.862 225.803 175.152L278.946 206.27C279.444 206.56 279.846 206.252 279.846 205.583C279.846 204.914 279.444 204.137 278.946 203.847Z" fill="white"/>
<path d="M213.265 291.719L194 280.498C193.375 280.133 192.807 280.1 192.398 280.34L188.777 282.463C189.186 282.223 189.753 282.256 190.379 282.621L209.644 293.842C210.89 294.568 211.9 296.331 211.896 297.776L211.833 320.108C211.831 320.825 211.581 321.328 211.176 321.565L214.797 319.442C215.201 319.205 215.452 318.701 215.453 317.984L215.516 295.652C215.521 294.208 214.513 292.445 213.265 291.719Z" fill="#8482FF"/>
<path d="M209.644 293.842C210.89 294.568 211.9 296.331 211.896 297.776L211.833 320.108C211.829 321.553 210.814 322.131 209.568 321.405L190.303 310.184C189.056 309.459 188.052 307.703 188.056 306.258L188.119 283.926C188.124 282.481 189.134 281.894 190.38 282.62L209.644 293.842Z" fill="#4D4BB7"/>
<path d="M209.012 301.429V301.461L199.835 302.238L190.52 290.658C190.52 290.295 190.775 290.148 191.088 290.331L208.444 300.441C208.758 300.624 209.012 301.066 209.012 301.429Z" fill="white"/>
<path d="M199.835 302.973L209.012 302.192V313.466C209.012 313.828 208.758 313.975 208.444 313.793L191.088 303.684C190.775 303.501 190.52 303.058 190.52 302.694V291.386L199.697 302.8L199.835 302.973Z" fill="white"/>
<path d="M283.346 237.125L197.629 187.2C196.758 186.692 195.968 186.645 195.397 186.979L191.776 189.102C192.347 188.767 193.136 188.815 194.008 189.323L279.725 239.248C281.46 240.258 282.856 242.699 282.85 244.709L282.832 251.216C282.83 252.216 282.48 252.921 281.916 253.25L285.537 251.128C286.101 250.796 286.451 250.093 286.453 249.093L286.471 242.586C286.477 240.576 285.08 238.135 283.346 237.125Z" fill="#8482FF"/>
<path d="M279.725 239.248C281.459 240.258 282.856 242.699 282.85 244.709L282.832 251.218C282.826 253.228 281.421 254.041 279.687 253.031L193.969 203.106C192.24 202.099 190.839 199.649 190.844 197.64L190.862 191.132C190.868 189.121 192.279 188.316 194.008 189.324L279.725 239.248Z" fill="#4D4BB7"/>
<path d="M277.465 244.155L194.957 195.808C194.46 195.519 194.057 195.827 194.057 196.496C194.057 197.164 194.46 197.941 194.957 198.232L277.465 246.578C277.962 246.867 278.366 246.56 278.366 245.891C278.365 245.222 277.962 244.445 277.465 244.155Z" fill="white"/>
<path d="M283.346 266.214L197.629 216.288C196.758 215.781 195.968 215.734 195.397 216.069L191.776 218.192C192.347 217.857 193.136 217.905 194.008 218.412L279.725 268.338C281.46 269.348 282.856 271.788 282.85 273.799L282.832 280.306C282.83 281.306 282.48 282.01 281.916 282.34L285.537 280.217C286.101 279.886 286.451 279.183 286.453 278.183L286.471 271.676C286.477 269.663 285.08 267.223 283.346 266.214Z" fill="#8482FF"/>
<path d="M279.725 268.337C281.459 269.347 282.856 271.787 282.85 273.797L282.832 280.306C282.826 282.316 281.421 283.13 279.687 282.119L193.969 232.194C192.24 231.187 190.839 228.738 190.844 226.729L190.862 220.22C190.868 218.21 192.279 217.404 194.008 218.412L279.725 268.337Z" fill="#4D4BB7"/>
<path d="M277.465 273.244L194.957 224.897C194.46 224.608 194.057 224.915 194.057 225.584C194.057 226.253 194.46 227.03 194.957 227.32L277.465 275.667C277.962 275.957 278.366 275.649 278.366 274.98C278.365 274.31 277.962 273.533 277.465 273.244Z" fill="white"/>
<path d="M283.346 295.302L197.629 245.377C196.758 244.869 195.968 244.822 195.397 245.156L191.776 247.279C192.347 246.944 193.136 246.992 194.008 247.499L279.725 297.425C281.46 298.435 282.856 300.875 282.85 302.886L282.832 309.393C282.83 310.393 282.48 311.097 281.916 311.427L285.537 309.304C286.101 308.973 286.451 308.27 286.453 307.27L286.471 300.762C286.477 298.752 285.08 296.312 283.346 295.302Z" fill="#8482FF"/>
<path d="M279.725 297.425C281.459 298.435 282.856 300.875 282.85 302.886L282.832 309.393C282.826 311.403 281.421 312.217 279.687 311.207L193.969 261.281C192.24 260.274 190.839 257.825 190.844 255.816L190.862 249.308C190.868 247.298 192.279 246.493 194.008 247.499L279.725 297.425Z" fill="#4D4BB7"/>
<path d="M277.465 302.331L194.957 253.985C194.46 253.696 194.057 254.003 194.057 254.672C194.057 255.341 194.46 256.118 194.957 256.408L277.465 304.755C277.962 305.045 278.366 304.736 278.366 304.068C278.365 303.399 277.962 302.622 277.465 302.331Z" fill="white"/>
<path d="M248.438 312.167L229.173 300.946C228.547 300.582 227.98 300.548 227.57 300.788L223.949 302.911C224.359 302.671 224.926 302.704 225.552 303.069L244.817 314.29C246.063 315.016 247.072 316.779 247.068 318.224L247.004 340.556C247.002 341.273 246.752 341.776 246.347 342.014L249.968 339.891C250.372 339.654 250.623 339.15 250.624 338.433L250.688 316.101C250.693 314.656 249.684 312.894 248.438 312.167Z" fill="#8482FF"/>
<path d="M244.817 314.291C246.063 315.017 247.072 316.78 247.068 318.225L247.005 340.558C247 342.002 245.985 342.582 244.738 341.855L225.473 330.634C224.227 329.908 223.222 328.153 223.227 326.708L223.29 304.375C223.294 302.93 224.305 302.343 225.551 303.07L244.817 314.291Z" fill="#4D4BB7"/>
<path d="M243.088 334.365L227.176 325.097C226.216 324.538 225.435 323.179 225.435 322.068V313.222C225.435 312.111 226.216 311.662 227.176 312.221L243.088 321.489C244.048 322.048 244.829 323.407 244.829 324.518V333.364C244.829 334.474 244.049 334.923 243.088 334.365ZM227.176 313.06C226.616 312.733 226.161 312.996 226.161 313.645V322.49C226.161 323.138 226.616 323.931 227.176 324.257L243.088 333.524C243.648 333.851 244.104 333.588 244.104 332.941V324.095C244.104 323.447 243.648 322.654 243.088 322.328L227.176 313.06Z" fill="white"/>
<path d="M235.133 328.289C232.8 326.929 230.901 323.627 230.901 320.925C230.901 318.223 232.8 317.132 235.133 318.491C237.466 319.851 239.364 323.153 239.364 325.855C239.364 328.556 237.466 329.648 235.133 328.289ZM235.133 319.331C233.199 318.205 231.627 319.109 231.627 321.347C231.627 323.585 233.2 326.322 235.133 327.448C237.066 328.574 238.639 327.669 238.639 325.431C238.639 323.194 237.066 320.457 235.133 319.331Z" fill="white"/>
<path d="M240.156 320.466L230.108 314.614V312.493C230.108 311.764 230.621 311.469 231.25 311.836L239.012 316.357C239.643 316.724 240.155 317.616 240.155 318.345V320.466H240.156ZM230.834 314.196L239.431 319.203V317.922C239.431 317.656 239.244 317.331 239.014 317.196L231.251 312.675C231.021 312.541 230.834 312.649 230.834 312.915V314.196Z" fill="white"/>
<path d="M284.224 332.972L264.959 321.752C264.332 321.386 263.762 321.352 263.352 321.594L259.73 323.716C260.141 323.475 260.71 323.509 261.337 323.875L280.602 335.095C281.849 335.821 282.853 337.581 282.849 339.027L282.786 361.36C282.783 362.077 282.533 362.583 282.129 362.819L285.751 360.696C286.155 360.46 286.406 359.955 286.408 359.237L286.471 336.904C286.474 335.458 285.471 333.698 284.224 332.972Z" fill="#8482FF"/>
<path d="M280.602 335.095C281.848 335.821 282.853 337.581 282.849 339.027L282.785 361.36C282.781 362.804 281.771 363.386 280.524 362.66L261.259 351.439C260.013 350.713 259.004 348.956 259.007 347.511L259.072 325.177C259.075 323.732 260.091 323.149 261.337 323.875L280.602 335.095Z" fill="#4D4BB7"/>
<path d="M271.013 334.609C266.609 332.044 263.04 333.383 263.04 337.601C263.04 340.332 264.542 343.596 266.793 346.257C266.688 346.969 266.23 348.463 264.216 347.316C264.216 347.316 266.997 350.41 269.633 348.954C270.082 349.291 270.542 349.606 271.013 349.881C275.417 352.445 278.986 351.106 278.986 346.888C278.986 342.671 275.417 337.174 271.013 334.609Z" fill="white"/>
<path d="M282.841 127.958L228.161 96.1102C227.149 95.5209 226.233 95.4663 225.571 95.8542L221.95 97.9771C222.612 97.5892 223.529 97.6438 224.539 98.2331L279.22 130.081C281.23 131.252 282.855 134.092 282.849 136.428L282.794 155.544C282.791 156.702 282.386 157.517 281.732 157.9L285.353 155.777C286.007 155.394 286.412 154.579 286.416 153.421L286.47 134.305C286.478 131.969 284.851 129.129 282.841 127.958Z" fill="#8482FF"/>
<path d="M279.22 130.081C281.23 131.252 282.855 134.092 282.849 136.428L282.794 155.544C282.788 157.875 281.151 158.815 279.142 157.644L224.462 125.797C222.451 124.626 220.826 121.785 220.833 119.455L220.887 100.339C220.893 98.0034 222.53 97.0626 224.539 98.2332L279.22 130.081Z" fill="#4D4BB7"/>
<path d="M277.845 134.67L226.289 104.52C225.791 104.23 225.389 104.538 225.389 105.207C225.389 105.876 225.792 106.653 226.289 106.942L277.845 137.092C278.342 137.382 278.746 137.074 278.746 136.405C278.746 135.736 278.342 134.959 277.845 134.67Z" fill="white"/>
<path d="M277.845 141.89L226.289 111.74C225.791 111.449 225.389 111.758 225.389 112.427C225.389 113.096 225.792 113.873 226.289 114.163L277.845 144.313C278.342 144.603 278.746 144.295 278.746 143.626C278.746 142.956 278.342 142.179 277.845 141.89Z" fill="white"/>
<path d="M277.845 149.11L226.289 118.959C225.791 118.669 225.389 118.977 225.389 119.646C225.389 120.315 225.792 121.092 226.289 121.382L277.845 151.533C278.342 151.823 278.746 151.515 278.746 150.846C278.746 150.176 278.342 149.399 277.845 149.11Z" fill="white"/>
<path d="M213.265 137.488L194 126.267C193.375 125.902 192.807 125.869 192.398 126.109L188.777 128.232C189.186 127.992 189.753 128.025 190.379 128.39L209.644 139.611C210.89 140.337 211.9 142.1 211.896 143.545L211.833 165.877C211.831 166.594 211.581 167.097 211.176 167.335L214.797 165.212C215.201 164.975 215.452 164.471 215.453 163.755L215.516 141.422C215.521 139.977 214.513 138.214 213.265 137.488Z" fill="#8482FF"/>
<path d="M209.644 139.611C210.89 140.337 211.9 142.1 211.896 143.545L211.833 165.877C211.829 167.322 210.814 167.901 209.568 167.174L190.303 155.954C189.056 155.228 188.052 153.472 188.056 152.027L188.119 129.695C188.124 128.25 189.134 127.663 190.38 128.389L209.644 139.611Z" fill="#4D4BB7"/>
<path d="M199.77 140.421C196.134 138.304 193.189 139.997 193.189 144.206C193.189 148.411 196.134 153.538 199.77 155.656C203.402 157.772 206.35 156.077 206.35 151.871C206.35 147.661 203.403 142.536 199.77 140.421ZM198.164 150.612V143.764L203.287 150.173L198.164 150.612Z" fill="white"/>
<path d="M182.875 363.862L187.835 361.652L193.07 335.013L188.109 337.221L182.875 363.862Z" fill="#733118"/>
<path d="M188.651 334.47L193.611 332.262L198.99 304.885L194.029 307.094L188.651 334.47Z" fill="#733118"/>
<path d="M194.57 304.343L199.53 302.135L204.909 274.758L199.95 276.966L194.57 304.343Z" fill="#733118"/>
<path d="M214.847 349.817L219.807 347.609L193.611 332.262L188.651 334.47L214.847 349.817Z" fill="#AB512E"/>
<path d="M200.49 274.217L205.45 272.008L210.828 244.639L205.868 246.848L200.49 274.217Z" fill="#733118"/>
<path d="M220.766 319.691L225.727 317.482L199.53 302.135L194.57 304.343L220.766 319.691Z" fill="#AB512E"/>
<path d="M211.674 217.295L216.634 215.086L212.153 212.404L207.193 214.612L211.674 217.295Z" fill="#AB512E"/>
<path d="M206.408 244.097L211.367 241.889L216.634 215.086L211.674 217.295L206.408 244.097Z" fill="#733118"/>
<path d="M226.686 289.564L231.647 287.356L205.45 272.007L200.49 274.217L226.686 289.564Z" fill="#AB512E"/>
<path d="M232.604 259.444L237.565 257.236L211.367 241.889L206.408 244.097L232.604 259.444Z" fill="#AB512E"/>
<path d="M213.547 381.888L218.507 379.68L247.306 233.113L242.346 235.321L213.547 381.888Z" fill="#733118"/>
<path d="M178.394 361.179L182.876 363.861L188.111 337.221L214.307 352.568L209.072 379.208L213.548 381.888L242.346 235.321L237.87 232.642L232.604 259.444L206.408 244.097L211.674 217.294L207.193 214.612L178.394 361.179ZM226.686 289.564L200.49 274.216L205.868 246.848L232.064 262.196L226.686 289.564ZM220.766 319.69L194.569 304.343L199.948 276.967L226.144 292.316L220.766 319.69ZM188.651 334.47L194.03 307.094L220.227 322.442L214.848 349.818L188.651 334.47Z" fill="#8C3C1D"/>
<path d="M242.347 235.321L247.306 233.113L242.831 230.434L237.871 232.642L242.347 235.321Z" fill="#AB512E"/>
<path d="M244.385 191.11C244.36 190.935 244.299 190.733 244.135 190.672C243.985 190.616 243.821 190.705 243.69 190.799C243.182 191.169 242.779 191.684 242.541 192.27C242.571 191.502 242.617 190.692 242.805 189.948C243 189.181 243.197 188.409 243.373 187.636C243.647 186.433 243.822 185.17 243.542 183.967C243.436 183.512 243.21 183.018 242.765 182.886C242.274 182.74 241.718 183.238 241.802 183.748C241.532 183.681 241.197 183.633 241.016 183.847C240.906 183.979 240.897 184.165 240.893 184.337C240.879 185.081 240.877 185.825 240.887 186.57C240.685 186.316 240.357 186.077 240.065 186.213C239.775 186.349 239.742 186.746 239.759 187.068C239.836 188.534 240.061 190.005 239.897 191.464C239.821 192.131 239.665 192.788 239.465 193.427C239.12 194.527 237.408 198.086 236.713 198.688C235.234 199.97 233.448 200.825 231.667 201.588C228.717 202.853 225.64 203.775 222.595 204.773C220.877 205.336 219.166 205.922 217.49 206.605C216.995 206.806 216.599 206.749 216.094 206.633C213.676 206.078 211.289 205.289 209.148 204.027C208.186 203.459 207.277 202.795 206.456 202.033C205.324 200.981 204.591 199.466 203.274 198.648C201.743 197.698 199.843 197.08 198.394 198.576C197.249 199.758 197.294 201.737 198.062 203.196C198.831 204.655 200.168 205.709 201.479 206.699C206.179 210.246 211.221 213.629 216.965 214.839C217.143 214.877 217.33 214.912 217.507 214.868C217.808 214.791 217.993 214.514 218.122 214.218C218.269 214.393 218.414 214.568 218.576 214.73C218.707 214.861 218.852 214.993 219.034 215.024C219.223 215.055 219.41 214.97 219.584 214.886C221.499 213.964 223.414 213.042 225.278 212.02C227.584 210.756 229.801 209.332 231.933 207.79C233.009 207.011 239.893 202.042 240.951 201.389C241.36 201.136 241.77 200.883 242.138 200.574C242.274 200.46 242.405 200.339 242.491 200.185C242.585 200.022 242.624 199.835 242.663 199.651C242.814 198.927 243.027 198.207 243.111 197.47C243.253 196.225 243.25 194.941 243.725 193.758C243.886 193.357 244.106 192.98 244.244 192.571C244.405 192.104 244.453 191.599 244.385 191.11Z" fill="#FFB78C"/>
<path d="M206.645 200.877C209.135 202.879 211.932 204.472 214.698 206.076C214.786 206.127 214.883 206.19 214.9 206.291C214.912 206.355 214.888 206.418 214.863 206.479C213.986 208.678 212.7 210.775 210.814 212.19C210.231 212.628 209.547 213.003 208.816 213.092C208.52 213.127 208.076 213.15 207.801 213.009C207.543 212.876 207.5 212.677 207.378 212.399C207.14 211.854 206.871 211.323 206.579 210.806C206.008 209.795 205.344 208.838 204.607 207.943C203.279 206.327 201.709 204.901 200.602 203.124C200.214 202.503 199.882 201.828 199.781 201.102C199.697 200.499 199.79 199.846 200.049 199.296C200.322 198.716 200.323 198.327 200.319 197.666C200.319 197.591 200.321 197.508 200.371 197.453C200.441 197.375 200.562 197.389 200.664 197.41C201.779 197.645 202.891 197.979 203.856 198.591C204.554 199.034 205.157 199.611 205.78 200.156C206.062 200.399 206.352 200.641 206.645 200.877Z" fill="#4D4D4D"/>
<path d="M183.527 335.777C183.567 336.836 183.867 338.01 184.769 338.554C185.226 338.829 185.774 338.901 186.306 338.909C187.278 338.925 188.254 338.751 189.16 338.399C190.14 338.019 191.032 337.439 191.999 337.024C196.114 335.255 200.962 336.677 205.243 335.367C206.257 335.058 207.361 334.416 207.473 333.355C207.542 332.71 207.21 332.086 206.796 331.591C205.912 330.533 204.635 329.871 203.317 329.488C201.998 329.104 200.623 328.977 199.259 328.822C196.515 328.511 193.781 328.079 191.022 327.953C189.341 327.876 187.577 327.927 185.998 328.579C185.352 328.846 184.886 329.061 184.678 329.739C184.399 330.639 184.115 331.54 183.901 332.459C183.647 333.545 183.487 334.659 183.527 335.777Z" fill="#1F2125"/>
<path d="M197.184 246.42C197.483 244.168 197.688 241.864 197.238 239.639C197.05 238.709 196.797 237.084 195.873 236.672C194.789 236.189 193.563 236.054 192.39 236.174C191.011 236.313 189.683 236.792 188.441 237.412C186.256 238.501 184.284 240.05 182.79 241.992C180.301 245.226 179.228 249.334 179.917 253.39C180.253 255.369 181.026 257.229 181.567 259.151C182.096 261.03 182.175 262.903 182.107 264.859C182.024 267.305 181.657 269.73 181.392 272.164C180.89 276.773 180.756 281.414 180.768 286.048C180.773 288.404 180.817 290.76 180.87 293.115C180.923 295.578 180.281 297.768 179.861 300.154C178.989 305.102 180.106 309.812 181.29 314.576C182.546 319.634 183.362 324.789 184.295 329.914C184.345 330.19 184.4 330.474 184.565 330.699C184.734 330.929 184.998 331.067 185.259 331.176C186.631 331.745 188.188 331.72 189.633 331.383C191.077 331.046 192.436 330.414 193.783 329.787C192.489 324.142 191.952 318.352 191.726 312.572C191.588 309.071 191.563 305.567 191.551 302.064C191.544 300.312 191.541 298.561 191.528 296.809C191.523 296.021 191.447 295.202 191.544 294.418C191.556 294.32 191.571 294.222 191.588 294.127C191.709 293.449 191.942 292.793 192.077 292.119C192.266 291.182 192.227 290.1 191.566 289.418C191.556 289.409 191.544 289.404 191.535 289.395C192.349 289.051 193.15 288.675 193.916 288.236C194.032 288.17 194.15 288.099 194.228 287.99C194.306 287.881 194.335 287.745 194.362 287.613C195.085 284.041 195.31 280.368 195.031 276.733C194.899 275.008 194.491 273.368 194.328 271.653C194.151 269.777 194.163 267.886 194.277 266.007C194.678 259.412 196.317 252.965 197.184 246.42Z" fill="#BFBFBF"/>
<path d="M216.755 336.871C216.181 335.58 213.73 335.196 212.648 334.857C211.233 334.413 209.794 334.046 208.341 333.749C205.43 333.154 202.465 332.837 199.497 332.735C197.732 332.673 195.917 332.688 194.222 333.248C193.64 333.439 192.966 333.698 192.684 334.289C192.391 334.902 192.259 335.685 192.068 336.336C191.781 337.326 191.536 338.331 191.41 339.355C191.315 340.126 191.291 340.926 191.532 341.664C192.001 343.106 193.498 344.09 195.002 344.087C195.947 344.086 196.854 343.747 197.783 343.57C199.807 343.181 201.886 343.558 203.944 343.668C205.452 343.747 206.965 343.681 208.464 343.517C209.847 343.367 211.618 343.313 212.903 342.756C215.026 341.836 216.735 339.954 216.873 337.545C216.887 337.295 216.845 337.072 216.755 336.871Z" fill="#4D4D4D"/>
<path d="M209.715 239.448C208.644 241.102 206.367 241.417 204.418 241.22C200.663 240.836 197.131 239.163 194.034 236.986C193.16 236.372 192.282 235.701 191.242 235.465C188.214 234.78 187.112 237.818 185.938 239.895C184.285 242.82 182.707 245.869 182.022 249.191C181.243 252.957 181.683 256.968 183.259 260.471C184.019 262.162 185.036 263.739 185.62 265.497C186.673 268.666 186.238 272.114 185.842 275.431C185.109 281.578 184.553 287.787 184.904 293.96C184.845 295.478 184.992 297.016 185.145 298.534C185.306 300.13 185.466 301.726 185.626 303.321C186.028 307.334 186.65 311.138 187.79 314.997C188.778 318.342 190.107 321.588 190.844 324.997C191.614 328.567 191.718 332.245 192.15 335.873C192.171 336.057 192.198 336.25 192.313 336.393C192.441 336.553 192.648 336.616 192.845 336.666C195.225 337.267 197.831 336.897 199.954 335.658C200.758 335.19 201.559 334.481 201.607 333.545C201.626 333.176 201.522 332.813 201.423 332.458C198.641 322.549 198.006 311.862 198.844 301.618C199.041 299.209 200.037 297.185 200.894 294.969C201.803 292.617 202.676 290.251 203.472 287.858C205.075 283.047 206.375 278.116 207.03 273.076C207.684 268.046 207.694 262.947 208.331 257.913C209.027 252.415 210.472 246.978 210.361 241.438C210.344 240.718 210.262 239.91 209.715 239.448Z" fill="#F2F2F2"/>
<path d="M185.349 219.047C186.639 223.608 189.02 228.176 188.118 232.831C187.578 235.619 185.911 238.032 184.24 240.317C184.083 240.532 183.919 240.76 183.883 241.024C183.845 241.311 183.963 241.596 184.089 241.856C185.705 245.228 188.87 247.659 192.327 249.024C195.784 250.389 199.537 250.792 203.245 250.958C205.395 251.053 207.65 251.051 209.561 250.053C210.722 242.496 211.435 234.869 211.695 227.226C211.74 225.905 211.778 224.556 212.234 223.318C212.922 221.459 214.525 219.943 214.729 217.969C214.922 216.117 213.826 214.398 212.716 212.91C208.455 207.194 203.294 202.234 198.158 197.304C196.641 195.848 195.112 194.382 193.34 193.255C192.295 192.59 191.269 192.628 190.227 193.354C189.55 193.825 189.031 194.492 188.584 195.188C187.768 196.456 187.158 197.846 186.612 199.252C186.588 199.314 186.564 199.378 186.539 199.441C184.116 205.779 183.49 212.475 185.349 219.047Z" fill="#1F2125"/>
<path d="M189.345 193.653C189.225 194.178 189.179 194.762 189.496 195.201C189.846 195.686 190.501 195.798 191.085 195.909C193.751 196.415 196.305 197.741 198.045 199.84C198.705 200.637 199.257 201.547 200.078 202.172C200.487 202.483 200.99 202.721 201.497 202.649C202.787 202.467 202.206 201.224 202.213 200.393C202.224 199.219 202.518 197.972 202.702 196.814C203.08 194.435 203.561 192.072 204.143 189.736C203.155 189.483 202.266 188.947 201.392 188.418C200.053 187.607 198.712 186.795 197.458 185.856C196.726 185.308 196.013 184.711 195.174 184.349C194.314 183.978 193.368 183.88 192.439 183.902C191.656 183.92 190.858 183.802 190.529 184.696C190.381 185.099 190.388 185.54 190.393 185.97C190.41 187.598 190.367 189.237 190.086 190.845C189.941 191.667 189.686 192.433 189.454 193.231C189.418 193.365 189.379 193.506 189.345 193.653Z" fill="#FFB78C"/>
<path d="M210.398 178.928C210.48 179.312 210.551 179.721 210.42 180.091C210.334 180.336 210.165 180.548 210.109 180.801C210.024 181.187 210.217 181.573 210.404 181.919C210.99 183.006 211.576 184.094 212.162 185.181C211.655 185.88 210.551 185.872 210.001 186.537C209.723 186.875 209.636 187.329 209.559 187.762C209.239 189.564 208.919 191.366 208.599 193.169C206.852 193.586 205.082 193.914 203.303 194.15C202.878 194.207 202.432 194.254 202.034 194.096C201.696 193.961 201.43 193.69 201.187 193.416C200.578 192.726 200.048 191.965 199.612 191.154C199.413 190.784 199.21 190.381 198.839 190.188C198.51 190.018 198.119 190.051 197.749 190.07C193.655 190.282 189.512 187.889 187.727 184.167C185.942 180.444 186.698 175.607 189.615 172.702C191.783 170.544 194.874 169.536 197.914 169.35C200.099 169.217 202.328 169.498 204.381 170.278C205.423 170.674 206.416 171.202 207.315 171.865C208.328 172.614 208.683 173.543 209.139 174.707C209.673 176.074 210.096 177.488 210.398 178.928Z" fill="#FFE5CC"/>
<path d="M199.447 183.357C198.165 184.081 199.314 186.031 199.77 186.996C200.278 188.073 200.751 189.18 200.992 190.349C201.18 191.258 201.318 192.452 200.983 193.345C200.733 194.013 200.073 194.507 199.482 194.897C198.778 195.362 197.99 195.683 197.184 195.926C193.982 196.887 190.426 196.591 187.423 195.112C185.286 194.06 183.446 192.417 182.122 190.426C181.533 189.541 180.817 188.514 180.908 187.42C181.022 186.055 181.535 184.634 181.887 183.312C182.689 180.299 183.864 177.359 185.639 174.804C187.414 172.248 189.817 170.088 192.676 168.898C196.862 167.154 201.874 166.781 205.671 169.658C206.362 170.182 207.004 170.806 207.391 171.586C208.375 173.572 207.235 176.864 206.345 178.706C205.333 180.801 203.482 182.627 201.197 182.974C200.603 183.064 199.971 183.06 199.447 183.357Z" fill="#733118"/>
<path d="M252.605 193.012C252.542 192.895 252.465 192.773 252.345 192.718C252.224 192.663 252.049 192.708 252.015 192.837C252.179 191.34 252.122 189.817 251.851 188.336C251.815 188.142 251.772 187.939 251.648 187.784C251.524 187.631 251.295 187.544 251.124 187.643C250.98 187.727 250.915 187.92 250.76 187.985C250.636 188.037 250.496 187.991 250.362 187.986C249.874 187.963 249.53 188.445 249.287 188.873C247.221 192.532 245.574 196.433 244.391 200.472C244.107 201.442 243.936 202.587 243.907 203.602C243.9 203.841 243.913 204.084 243.853 204.316C243.811 204.478 243.734 204.631 243.658 204.781C243.427 205.236 230.93 218.134 229.84 218.867C229.683 218.971 229.527 219.074 229.369 219.175C227.536 218.272 225.528 217.73 223.666 216.869C220.03 215.187 217.132 212.265 213.993 209.764C212.091 208.25 210.027 206.871 207.736 206.036C206.671 205.647 205.499 205.324 204.359 205.301C203.537 205.285 203.101 205.672 202.531 206.221C201.587 207.132 200.786 208.163 200.272 209.383C199.684 210.779 199.397 212.353 199.915 213.793C200.41 215.168 201.291 216.384 202.336 217.389C203.747 218.748 205.453 219.753 207.164 220.697C213.726 224.317 220.675 227.247 227.895 229.205C228.714 229.426 229.569 229.638 230.404 229.48C233.417 228.912 244.112 213.97 247.472 209.367C248.87 208.019 250.016 206.402 250.74 204.592C251.102 203.687 251.367 202.746 251.624 201.806C252.018 200.369 252.394 198.927 252.754 197.481C252.942 196.722 253.128 195.954 253.131 195.171C253.132 194.423 252.961 193.67 252.605 193.012Z" fill="#FFE5CC"/>
<path d="M213.095 223.643C214.593 222.061 216.097 220.458 217.283 218.619C218.144 217.284 219.668 214.858 218.846 213.201C218.737 212.982 218.559 212.805 218.383 212.635C215.282 209.635 211.727 207.115 207.878 205.189C207.129 204.814 206.365 204.459 205.555 204.249C204.075 203.864 202.506 203.979 201.016 204.322C200.511 204.438 200.005 204.582 199.558 204.843C196.82 206.434 196.799 210.799 197.61 213.438C198.549 216.496 200.818 219.022 203.515 220.709C206.211 222.396 209.317 223.312 212.44 223.881C212.54 223.899 212.644 223.917 212.744 223.893C212.885 223.861 212.995 223.75 213.095 223.643Z" fill="#4D4D4D"/>
<path d="M110.806 357.554L40.164 357.425C38.1927 357.422 36.5902 356.488 36.5834 355.34L36.544 348.028C36.5383 346.88 38.1307 345.953 40.1019 345.957L110.744 346.085C112.715 346.089 114.318 347.023 114.324 348.17L114.364 355.482C114.371 356.63 112.777 357.558 110.806 357.554Z" fill="#FFC066"/>
<path d="M44.659 332.549C43.1873 332.757 41.7641 333.607 41.0841 334.939C40.1391 336.79 40.7695 339.029 40.5563 341.1C40.3917 342.689 39.7229 344.182 39.4376 345.754C39.088 347.682 39.3305 349.457 40.2394 351.2C40.7255 352.133 41.4078 353.07 42.2897 353.648C43.3836 354.365 44.6308 354.892 45.9322 354.957C47.2347 355.023 48.5959 354.584 49.48 353.617C50.0992 352.938 50.4589 352.024 50.4668 351.102C50.4747 350.188 50.1522 349.3 49.7349 348.488C49.3019 347.644 48.6421 346.843 48.3174 345.95C47.6531 344.122 49.5579 342.573 50.8705 341.736C51.0961 341.591 51.3329 341.45 51.493 341.234C51.6374 341.04 51.7073 340.802 51.7738 340.569C52.0795 339.506 52.3885 338.426 52.3806 337.319C52.3727 336.214 52.0028 335.058 51.1592 334.351C50.3901 333.707 49.3109 333.458 48.3918 333.095C47.2111 332.628 45.9288 332.369 44.659 332.549Z" fill="#6865F7"/>
<path d="M89.7774 335.754C89.3139 333.112 88.3 330.606 87.3313 328.108C84.9687 322.01 82.8069 315.747 79.1666 310.327C76.0992 305.76 72.0788 301.941 68.0934 298.163C67.2961 297.407 66.4199 297.021 65.5774 296.43C65.1658 296.141 63.9625 294.298 64.558 293.788C61.9563 296.019 59.8565 299.235 58.4592 302.65C57.6371 304.66 57.0597 306.739 56.7665 308.727C56.3899 311.288 56.6019 313.988 57.7149 316.32C58.8291 318.654 60.9132 320.574 63.4156 321.15C63.8543 321.251 64.3392 321.331 64.6369 321.671C64.7835 321.839 64.867 322.053 64.9595 322.257C66.0263 324.629 68.3359 326.541 69.8606 328.633C70.7819 329.899 71.6582 331.2 72.5446 332.491C71.9243 332.348 71.3007 332.216 70.6703 332.125C68.6133 331.828 66.5259 331.837 64.4486 331.86C63.5442 331.869 62.6386 331.881 61.7342 331.899C58.9938 331.955 56.2523 332.068 53.5243 332.34C52.1609 332.476 50.8065 332.665 49.4532 332.879C48.8634 332.972 48.5871 333.015 48.1789 333.51C47.8383 333.922 47.5992 334.417 47.4526 334.93C47.2169 335.756 47.2068 336.63 47.2609 337.488C47.3297 338.575 47.5135 339.67 47.9105 340.688C48.1011 341.176 48.3413 341.646 48.6412 342.074C48.7901 342.285 48.9502 342.497 49.1329 342.679C49.3878 342.934 49.3912 342.91 49.7058 342.785C51.9647 341.879 54.1761 341.642 56.6007 341.692C61.2718 341.791 65.9349 342.399 70.4673 343.541C73.4208 344.285 76.3224 345.257 79.3199 345.795C81.6532 346.214 84.3045 346.222 86.5385 345.348C90.56 343.777 90.3987 339.297 89.7774 335.754Z" fill="#333333"/>
<path d="M88.3347 348.134C88.3133 348.218 88.2918 348.301 88.2715 348.385C88.1069 349.069 87.9885 349.771 88.0246 350.474C88.1125 352.187 89.2042 353.498 90.9195 353.689C91.9592 353.805 93.0012 353.572 94.0399 353.452C96.8344 353.131 99.6481 353.63 102.45 353.869C105.253 354.108 108.205 354.055 110.699 352.742C112.001 352.055 113.207 350.896 113.35 349.419C113.373 349.192 113.367 348.956 113.286 348.742C113.163 348.424 112.886 348.196 112.61 347.999C111.599 347.279 110.445 346.79 109.294 346.33C107.998 345.814 106.69 345.329 105.367 344.887C103.049 344.111 100.688 343.464 98.2869 343.008C97.0893 342.781 95.8826 342.602 94.6703 342.479C94.1414 342.426 93.4704 342.492 92.9674 342.326C92.5998 342.204 92.4385 341.799 92.1645 341.552C91.5442 341.878 91.0458 342.585 90.6477 343.148C89.5854 344.65 88.7971 346.349 88.3347 348.134Z" fill="#9996FF"/>
<path d="M112.969 310.219C112.869 308.917 112.629 307.232 111.571 306.339C110.796 305.683 109.924 305.009 108.929 304.83C108.63 304.694 108.322 304.579 108.012 304.483C104.68 303.446 101.097 304.154 97.6519 304.7C92.1723 305.568 86.6363 306.005 81.1037 306.406C77.0562 306.7 72.9795 306.964 68.9265 306.594C67.616 306.475 65.1869 306.557 64.3975 305.386C63.978 304.762 63.6882 304.058 63.5506 303.318C63.4852 302.965 63.2416 301.455 63.5776 301.203C61.3842 302.852 59.8291 305.281 58.9788 307.906C58.4905 309.413 58.1533 311.094 58.0608 312.794C57.8995 315.739 58.4679 318.741 60.2351 321.006C61.6842 322.863 63.8494 324.052 66.1116 324.664C68.3739 325.275 70.7432 325.35 73.0844 325.296C81.3642 325.108 89.5706 323.334 97.2956 320.305C96.7328 321.534 96.2062 322.778 95.7573 324.053C94.9984 326.204 94.4311 328.419 93.865 330.631C93.0034 334.057 92.1137 337.476 91.2374 340.898C91.0559 341.609 90.5168 342.74 90.5856 343.466C90.6442 344.087 91.1765 344.343 91.7066 344.63C93.0531 345.357 94.642 345.517 96.1453 345.487C97.1715 345.467 99.9818 345.507 100.654 344.552C100.903 344.199 109.573 322.385 111.257 317.968C112.226 315.427 113.181 313 112.969 310.219Z" fill="#424242"/>
<path d="M130.228 311.455C130.01 310.956 129.66 310.529 129.314 310.11C129.504 310.072 129.579 309.816 129.505 309.637C129.43 309.458 129.26 309.341 129.098 309.234C128.376 308.756 127.653 308.279 126.931 307.801C126.481 307.504 126.029 307.205 125.536 306.988C124.956 306.732 124.33 306.596 123.705 306.492C122.573 306.303 121.351 306.287 120.247 305.965C119.389 305.715 114.274 301.913 113.484 301.103C111.006 298.558 108.706 295.839 106.194 293.328C103.681 290.817 100.928 288.496 97.7582 286.914C97.0195 286.545 96.2459 286.214 95.4261 286.133C95.2941 286.12 95.1509 286.116 95.0404 286.19C94.9017 286.282 94.8566 286.463 94.8284 286.627C94.3716 289.232 95.2017 292.407 96.8617 294.421C97.7853 295.542 98.8239 296.848 100.013 297.694C101.121 298.484 102.191 299.222 103.247 300.124C104.492 301.188 105.736 302.253 106.981 303.317C108.917 304.972 110.858 306.631 112.957 308.075C114.998 309.48 117.086 310.856 119.314 311.95C121.462 313.005 123.779 313.78 126.017 314.647C126.574 314.863 127.199 315.078 127.749 314.848C127.883 314.791 128.008 314.709 128.15 314.675C128.455 314.601 128.797 314.752 129.079 314.615C129.215 314.548 129.313 314.422 129.406 314.302C129.574 314.082 129.743 313.864 129.911 313.644C130.056 313.455 130.202 313.264 130.298 313.046C130.519 312.544 130.445 311.954 130.228 311.455Z" fill="#FFB78C"/>
<path d="M97.608 276.413C97.1377 274.575 96.6573 272.711 95.7258 271.062C94.7932 269.412 93.3384 267.974 91.5171 267.493C89.1309 266.864 86.6296 267.966 84.5906 269.366C82.6701 270.685 80.9548 272.285 79.3298 273.959C75.7549 277.644 72.595 281.712 69.4971 285.813C67.7965 288.063 66.1117 290.325 64.4427 292.599C62.9135 294.683 61.3888 296.791 60.252 299.118C59.9396 299.758 59.4446 300.644 59.6758 301.368C59.9193 302.132 60.649 302.914 61.1711 303.5C62.3564 304.83 63.8235 305.896 65.4114 306.683C67.9397 307.936 70.7523 308.508 73.5592 308.741C75.0805 308.867 76.6176 308.897 78.1265 308.669C79.4516 308.469 81.3642 308.144 82.2777 307.113C83.3941 305.851 88.1137 300.163 89.5166 298.724C89.6034 298.634 89.697 298.542 89.8165 298.508C89.9958 298.458 90.1797 298.553 90.3466 298.636C91.8149 299.367 93.5899 299.32 95.118 298.728C96.646 298.137 97.9441 297.042 98.9962 295.777C100.156 294.383 101.055 292.735 101.392 290.947C101.616 289.756 101.578 288.503 101.23 287.339C100.893 286.206 100.062 285.431 99.6356 284.373C99.2094 283.317 99.0538 282.065 98.7718 280.96C98.3839 279.446 97.9959 277.93 97.608 276.413Z" fill="#D9D9D9"/>
<path d="M93.8833 266.362C93.7536 266.401 93.6047 266.456 93.5619 266.586C93.5247 266.7 93.5878 266.821 93.6521 266.923C94.0242 267.506 94.508 268.008 94.9174 268.565C95.8624 269.847 96.3981 271.397 96.6913 272.967C96.9834 274.537 97.0443 276.14 97.121 277.735C97.1559 278.464 97.254 279.304 97.8596 279.705C97.9239 279.749 97.9972 279.785 98.075 279.786C98.2555 279.787 98.3728 279.601 98.4562 279.44C99.1001 278.209 99.9268 277.058 100.996 276.179C102.065 275.299 103.393 274.704 104.771 274.653C103.912 273.089 103.78 271.229 103.799 269.439C103.817 267.651 103.965 265.839 103.594 264.09C103.457 263.445 103.238 262.794 102.796 262.308C102.339 261.808 101.656 261.524 100.982 261.557C99.4881 261.629 98.7539 262.921 97.8416 263.885C96.7567 265.028 95.3843 265.895 93.8833 266.362Z" fill="#FFB78C"/>
<path d="M111.653 254.32C113.723 255.032 115.435 256.554 116.599 258.401C117.553 259.915 118.265 261.638 118.061 263.456C117.926 264.647 117.634 265.807 117.358 266.966C117.094 268.072 116.695 269.283 115.7 269.817C115.42 269.968 115.089 270.065 114.895 270.32C114.746 270.514 114.705 270.768 114.666 271.01C114.565 271.661 114.462 272.313 114.361 272.964C114.269 273.546 114.062 274.255 113.487 274.36C113.279 274.397 113.068 274.34 112.86 274.315C111.894 274.197 110.97 274.745 110.235 275.388C109.5 276.031 108.853 276.797 107.999 277.268C106.486 278.102 104.434 277.78 103.245 276.519C102.76 276.005 102.417 275.365 102.195 274.692C102.124 274.477 102.062 274.252 101.917 274.079C101.788 273.923 101.606 273.824 101.431 273.723C98.1574 271.823 96.4049 267.988 95.8659 264.217C95.6696 262.844 95.6144 261.402 96.1241 260.114C96.6068 258.894 97.5529 257.924 98.5397 257.065C99.9911 255.801 101.617 254.683 103.46 254.148C104.772 253.767 106.151 253.693 107.515 253.716C108.914 253.738 110.328 253.865 111.653 254.32Z" fill="#FFE5CC"/>
<path d="M117.822 265.371C117.602 265.724 117.278 266.035 116.799 266.353C115.844 266.984 114.733 267.366 113.639 267.67C112.086 268.102 110.479 268.333 108.948 268.838C107.416 269.344 105.92 270.17 105.007 271.509C104.116 272.816 104.192 274.364 103.529 275.774C103.434 275.975 103.326 276.18 103.144 276.307C102.974 276.428 102.76 276.463 102.553 276.488C98.9175 276.932 95.2411 275.025 92.9699 272.126C90.6998 269.228 89.7085 265.471 89.5822 261.779C89.5732 261.513 89.5698 261.237 89.678 260.994C89.8032 260.713 90.0581 260.516 90.3028 260.333C92.3282 258.824 94.4032 257.381 96.5233 256.01C98.3694 254.816 100.27 253.667 102.347 252.955C106.045 251.69 110.329 251.958 113.615 254.085C115.456 255.277 116.908 257.072 117.725 259.116C118.458 260.952 118.931 263.586 117.822 265.371Z" fill="#733118"/>
<path d="M139.445 362.395L108.043 344.105C107.441 343.753 107.516 343.141 108.212 342.735L139.068 324.763C139.763 324.358 140.817 324.314 141.419 324.664L172.822 342.954C173.425 343.306 173.348 343.919 172.652 344.324L141.797 362.296C141.101 362.702 140.048 362.746 139.445 362.395Z" fill="#FFC066"/>
<path d="M140.619 344.893L110.603 327.41L140.432 310.037L170.448 327.52L140.619 344.893Z" fill="#F2F2F2"/>
<path d="M140.609 342.986L113.877 327.417L140.442 311.945L167.173 327.514L140.609 342.986Z" fill="#E6E6E6"/>
<path d="M140.619 360.257V344.893L170.448 327.52V342.884L140.619 360.257Z" fill="#BFBFBF"/>
<path d="M110.603 327.411V342.775L140.619 360.257V344.893L110.603 327.411Z" fill="#E6E6E6"/>
<path d="M120.392 331.211L118.279 329.987L117.919 325.058L117.17 314.534L119.269 315.562L119.868 323.923L120.392 331.211Z" fill="#4D4D4D"/>
<path d="M119.268 315.56L117.163 314.533L143.345 299.284L145.449 300.311L119.268 315.56Z" fill="#737373"/>
<path d="M147.716 331.831L136.37 338.439L134.586 339.482L134.436 339.573L134.421 339.376L133.297 338.725L131.183 337.501L130.075 336.85L127.962 335.626L126.837 334.976L124.724 333.736L123.63 333.101L121.502 331.861L120.392 331.211L119.868 323.923L119.269 315.561L145.453 300.305L145.558 301.818L145.722 303.965L145.827 305.477V305.492L145.977 307.639L146.082 309.151L146.247 311.313L146.351 312.81L146.501 314.972L146.547 315.501L146.606 316.484L146.771 318.647L147.716 331.831Z" fill="#1F2125"/>
<path d="M123.63 333.101L121.502 331.861L120.888 323.334L120.393 316.469L122.506 317.498L122.836 322.2L123.63 333.101Z" fill="#4D4D4D"/>
<path d="M122.499 317.498L120.395 316.47L146.576 301.221L148.682 302.249L122.499 317.498Z" fill="#737373"/>
<path d="M150.954 333.766L137.869 341.387L136.535 340.616L134.586 339.482L134.436 339.573L134.421 339.376L133.297 338.726L131.184 337.501L130.075 336.851L127.962 335.627L126.837 334.976L124.724 333.736L123.63 333.101L122.836 322.2L122.506 317.498L145.722 303.965L148.675 302.242L148.78 303.768L148.944 305.915L149.05 307.412L149.199 309.59L149.32 311.087L149.47 313.249L149.575 314.746V314.761L149.739 316.907V316.923L149.769 317.376L150.954 333.766Z" fill="#1F2125"/>
<path d="M126.838 334.976L124.724 333.736L123.855 321.611L123.63 318.405L125.729 319.433L125.804 320.476L126.838 334.976Z" fill="#4D4D4D"/>
<path d="M125.731 319.435L123.627 318.408L149.808 303.159L151.913 304.186L125.731 319.435Z" fill="#737373"/>
<path d="M154.131 335.113L140.612 342.99L137.869 341.387L136.535 340.617L134.586 339.482L134.436 339.573L134.422 339.377L133.297 338.726L131.184 337.502L130.075 336.851L127.962 335.627L126.838 334.976L125.803 320.476L125.729 319.433L145.977 307.639L151.913 304.192L152.017 305.689L152.182 307.851L152.287 309.348V309.363L152.437 311.511L152.542 313.022L152.707 315.184L152.992 319.251L154.131 335.113Z" fill="#1F2125"/>
<path d="M130.075 336.851L127.962 335.627L126.853 320.34L128.965 321.368L130.075 336.851Z" fill="#4D4D4D"/>
<path d="M128.963 321.373L126.859 320.345L153.04 305.096L155.145 306.123L128.963 321.373Z" fill="#737373"/>
<path d="M157.113 333.374L154.131 335.112L140.611 342.99L137.869 341.387L136.535 340.616L134.586 339.482L134.436 339.573L134.421 339.376L133.297 338.726L131.184 337.502L130.075 336.851L128.965 321.368L142.799 313.324L146.247 311.314L149.199 309.59L152.182 307.851L155.15 306.127L155.255 307.624L155.42 309.787L155.524 311.283L155.674 313.46L156.228 321.142L157.113 333.374Z" fill="#1F2125"/>
<path d="M133.297 338.726L131.184 337.501L130.09 322.275L132.189 323.303L133.297 338.726Z" fill="#4D4D4D"/>
<path d="M132.195 323.309L130.09 322.282L156.272 307.034L158.377 308.061L132.195 323.309Z" fill="#737373"/>
<path d="M160.081 331.649L157.114 333.374L154.131 335.112L140.611 342.99L137.869 341.387L136.535 340.616L134.586 339.482L134.436 339.573L134.421 339.376L133.297 338.726L132.188 323.303L146.067 315.229L146.502 314.972L149.47 313.249L152.437 311.51L155.42 309.787L158.372 308.062L158.477 309.559L158.642 311.722V311.737L159.451 323.017L160.081 331.649Z" fill="#1F2125"/>
<path d="M136.535 340.616L134.586 339.482L134.436 339.573L134.422 339.376L133.328 324.226L135.426 325.255L136.37 338.439L136.535 340.616Z" fill="#4D4D4D"/>
<path d="M135.426 325.246L133.322 324.219L159.503 308.97L161.607 309.998L135.426 325.246Z" fill="#737373"/>
<path d="M163.033 329.911L160.081 331.649L157.114 333.374L154.131 335.112L140.612 342.989L137.869 341.386L136.535 340.616L136.37 338.439L135.426 325.254L146.771 318.647L149.365 317.135L149.739 316.923L152.377 315.38L152.706 315.184L155.675 313.46L158.642 311.736L161.61 309.998L162.673 324.891L163.033 329.911Z" fill="#1F2125"/>
<path d="M142.809 334.787L146.594 335.147V336.847L140.233 336.286L146.594 328.334V330.034L142.809 334.787Z" fill="#F2F2F2"/>
<path d="M149.457 337.502L148.235 338.214C149.444 333.734 150.345 330.377 150.94 328.143L152.292 323.106L153.516 322.394L149.457 337.502Z" fill="#F2F2F2"/>
<path d="M158.668 325.55L154.869 325.197V323.515L161.244 324.05L154.869 332.028V330.312L158.668 325.55Z" fill="#F2F2F2"/>
<path d="M137.725 327.443C137.565 327.196 137.33 327.009 137.105 326.82C136.458 326.276 135.86 325.675 135.297 325.043C134.161 323.764 133.141 322.321 131.678 321.444C130.577 320.784 118.953 314.904 115.943 313.396C114.232 312.54 112.499 311.725 110.798 310.849C108.81 309.824 107.957 307.891 107.104 305.929C106.223 303.904 105.339 301.872 104.722 299.749C104.173 297.874 103.845 295.942 103.44 294.032C103.05 292.192 102.42 290.381 101.895 288.566C101.554 287.387 101.199 286.193 100.544 285.157C100.078 284.422 99.4724 283.786 98.8149 283.221C97.9782 282.501 96.9497 281.86 95.8558 281.974C95.3596 282.025 94.8904 282.231 94.4574 282.48C91.4971 284.183 90.5983 287.502 90.9659 290.728C91.3133 293.775 92.7331 296.573 94.0255 299.349C95.284 302.052 96.4456 304.804 97.8135 307.454C98.4935 308.772 99.2243 310.063 100.04 311.3C101.254 313.141 102.443 314.683 104.175 316.026C105.085 316.731 106.136 317.219 107.165 317.72C108.504 318.37 120.438 322.589 122.449 323.335C122.667 323.416 122.878 323.519 123.094 323.608C123.305 323.81 123.606 323.889 123.892 323.967C124.121 324.029 124.313 324.144 124.521 324.235C124.741 324.341 124.96 324.449 125.18 324.557C125.497 324.764 125.797 324.996 126.069 325.286C126.635 325.889 127.028 326.629 127.513 327.294C127.786 327.67 128.09 328.026 128.458 328.309C128.974 328.705 129.592 328.939 130.21 329.133C130.902 329.35 131.608 329.523 132.322 329.651C133.33 329.832 134.373 329.922 135.375 329.704C136.145 329.535 136.876 329.184 137.49 328.686C137.629 328.573 137.766 328.449 137.839 328.285C137.961 328.016 137.885 327.69 137.725 327.443Z" fill="#FFE5CC"/>
<path d="M90.4107 287.369C90.369 288.024 90.3994 288.71 90.4659 289.454C90.8042 293.26 92.0008 296.949 93.5931 300.416C93.7431 300.742 93.9032 301.077 94.1705 301.315C94.5258 301.635 95.0659 301.604 95.5136 301.651C97.2447 301.831 98.9949 301.367 100.561 300.6C102.127 299.834 103.532 298.775 104.908 297.7C105.014 297.617 105.124 297.529 105.177 297.404C105.24 297.259 105.214 297.091 105.186 296.935C104.682 294.145 103.875 291.414 102.855 288.772C102.189 287.041 101.414 285.32 100.213 283.914C99.3197 282.868 98.1616 282.001 96.8444 281.592C93.3337 280.502 90.6159 284.175 90.4107 287.369Z" fill="#F2F2F2"/>
<path d="M78.5757 214.045L68.7588 219.8C68.7926 219.781 68.8242 219.756 68.8535 219.726L78.6693 213.972C78.6411 214.001 78.6095 214.026 78.5757 214.045Z" fill="#4D4BB7"/>
<path d="M55.772 191.997L65.5877 186.242C65.6915 186.18 65.8223 186.161 65.9723 186.19L56.1554 191.946C56.0054 191.916 55.8757 191.937 55.772 191.997Z" fill="#4D4BB7"/>
<path d="M70.9466 217.613L80.7623 211.857L78.6704 213.972L68.8535 219.727L70.9466 217.613Z" fill="#4D4BB7"/>
<path d="M56.1562 191.947L65.972 186.191L69.3484 186.889L59.5327 192.644L56.1562 191.947Z" fill="#4D4BB7"/>
<path d="M92.7544 225.448L82.9375 231.203C83.1078 231.103 83.2127 230.891 83.2138 230.585L93.0295 224.829C93.0295 225.135 92.9246 225.349 92.7544 225.448Z" fill="#4D4BB7"/>
<path d="M83.2263 226.483L93.042 220.728L93.0307 224.829L83.2139 230.584L83.2263 226.483Z" fill="#4D4BB7"/>
<path d="M57.6235 176.433L67.4404 170.677C67.6175 170.574 67.861 170.595 68.1159 170.744C68.2152 170.802 68.3155 170.879 68.4148 170.974L58.599 176.729C58.4998 176.633 58.3994 176.557 58.3002 176.499C58.0442 176.352 57.8006 176.329 57.6235 176.433Z" fill="#4D4BB7"/>
<path d="M58.5981 176.729L68.4139 170.975L71.7768 174.203L61.961 179.957L58.5981 176.729Z" fill="#4D4BB7"/>
<path d="M69.4781 184.21L79.295 178.456C76.779 179.93 75.2193 183.065 75.2069 187.522C75.1821 196.505 81.4433 207.446 89.193 211.959L79.3761 217.714C71.6264 213.201 65.3653 202.26 65.3912 193.277C65.4025 188.82 66.9621 185.685 69.4781 184.21Z" fill="#4D4BB7"/>
<path d="M99.1689 212.943L89.352 218.698C86.8011 220.193 83.2702 219.984 79.375 217.714L89.1919 211.958C93.0882 214.227 96.6191 214.437 99.1689 212.943Z" fill="#4D4BB7"/>
<path d="M105.845 225.948L96.0283 231.704C96.352 231.514 96.4106 230.944 96.1298 230.327L105.947 224.572C106.227 225.187 106.169 225.758 105.845 225.948Z" fill="#4D4BB7"/>
<path d="M94.0503 225.788L103.866 220.034L105.947 224.571L96.131 230.326L94.0503 225.788Z" fill="#4D4BB7"/>
<path d="M96.8831 222.954L106.7 217.2C105.907 218.361 104.957 219.304 103.867 220.034L94.0503 225.789C95.1397 225.059 96.0904 224.116 96.8831 222.954Z" fill="#4D4BB7"/>
<path d="M68.9902 170.954L78.8071 165.198L80.881 169.733L71.0653 175.488L68.9902 170.954Z" fill="#4D4BB7"/>
<path d="M78.0422 164.295C77.8471 164.181 77.6498 164.137 77.4795 164.182L72.7419 165.406C72.6991 165.418 72.6596 165.434 72.6235 165.455L62.8066 171.211C62.8427 171.189 62.8822 171.173 62.9251 171.162L67.6626 169.938C67.8329 169.892 68.0303 169.936 68.2254 170.05C68.5175 170.22 68.8039 170.545 68.99 170.954L78.8068 165.198C78.6208 164.79 78.3343 164.465 78.0422 164.295Z" fill="#9996FF"/>
<path d="M111.029 220.717L101.212 226.472C101.314 226.412 101.394 226.312 101.441 226.171L111.258 220.415C111.211 220.556 111.132 220.657 111.029 220.717Z" fill="#4D4BB7"/>
<path d="M71.0649 175.488L80.8818 169.734C82.3129 169.801 83.8331 170.102 85.4277 170.671L75.6108 176.427C74.0151 175.857 72.496 175.554 71.0649 175.488Z" fill="#4D4BB7"/>
<path d="M103.271 220.781L113.086 215.027L111.258 220.415L101.441 226.17L103.271 220.781Z" fill="#4D4BB7"/>
<path d="M112.474 213.276L109.104 210.045L99.2876 215.8L102.657 219.031C103.159 219.515 103.43 220.292 103.27 220.782L113.085 215.027C113.248 214.538 112.976 213.759 112.474 213.276Z" fill="#9996FF"/>
<path d="M99.3044 210.264L109.121 204.509C109.214 205.471 109.262 206.427 109.26 207.356C109.257 208.298 109.204 209.196 109.105 210.046L99.2886 215.802C99.3867 214.952 99.4397 214.053 99.4419 213.111C99.4453 212.182 99.3968 211.224 99.3044 210.264Z" fill="#4D4BB7"/>
<path d="M83.354 180.934L93.1709 175.18C94.7644 176.469 96.2811 177.936 97.7145 179.537L87.8976 185.293C86.4631 183.69 84.9475 182.225 83.354 180.934Z" fill="#4D4BB7"/>
<path d="M83.3653 176.826L93.1822 171.071L93.1709 175.18L83.354 180.934L83.3653 176.826Z" fill="#4D4BB7"/>
<path d="M92.2326 169.412L86.3955 166.013C86.1305 165.858 85.8903 165.843 85.7177 165.944L75.9009 171.7C76.0745 171.598 76.3136 171.613 76.5798 171.767L82.4169 175.166C82.9447 175.473 83.3687 176.215 83.3664 176.826L93.1833 171.071C93.1833 170.46 92.7593 169.718 92.2326 169.412Z" fill="#9996FF"/>
<path d="M94.1382 194.215L103.955 188.46C105.038 190.447 105.979 192.501 106.763 194.579L96.9462 200.335C96.1636 198.255 95.2208 196.203 94.1382 194.215Z" fill="#4D4BB7"/>
<path d="M112.882 205.155L103.065 210.911C103.309 210.767 103.411 210.401 103.301 209.929L113.118 204.173C113.227 204.645 113.126 205.012 112.882 205.155Z" fill="#4D4BB7"/>
<path d="M101.509 202.432L111.325 196.676L113.117 204.173L103.301 209.928L101.509 202.432Z" fill="#4D4BB7"/>
<path d="M110.429 195.391C110.331 195.334 110.231 195.293 110.133 195.275L106.763 194.581L96.9463 200.336L100.316 201.03C100.414 201.049 100.514 201.089 100.613 201.146C101.011 201.378 101.383 201.891 101.509 202.432L111.325 196.676C111.199 196.135 110.827 195.623 110.429 195.391Z" fill="#9996FF"/>
<path d="M96.238 192.112L106.054 186.356L103.955 188.46L94.1382 194.215L96.238 192.112Z" fill="#4D4BB7"/>
<path d="M102.658 219.031C103.16 219.515 103.431 220.292 103.271 220.782L101.443 226.17C101.313 226.558 100.939 226.64 100.539 226.407C100.442 226.35 100.343 226.275 100.247 226.182L96.8843 222.954C96.0927 224.116 95.1409 225.059 94.0515 225.788L96.1321 230.326C96.4423 231.008 96.3385 231.633 95.9179 231.751L91.1747 232.97C91.0078 233.017 90.8127 232.972 90.6187 232.859C90.3255 232.688 90.0345 232.36 89.8473 231.954L87.7802 227.416C86.3423 227.352 84.8222 227.051 83.2276 226.483L83.2163 230.584C83.214 231.203 82.7877 231.441 82.26 231.134L76.4229 227.733C75.8951 227.426 75.471 226.693 75.4733 226.075L75.4846 221.973C73.8911 220.685 72.3754 219.218 70.9477 217.613L68.8547 219.728C68.6663 219.915 68.3765 219.905 68.0833 219.735C67.8893 219.622 67.6954 219.439 67.5262 219.198L62.8112 212.469C62.3872 211.861 62.2868 211.117 62.5992 210.797L64.6979 208.693C63.6152 206.699 62.6736 204.652 61.8966 202.577L58.5258 201.883C58.4277 201.864 58.3285 201.823 58.2304 201.766C57.8278 201.532 57.4545 201.013 57.3282 200.477L55.5362 192.98C55.3783 192.305 55.6535 191.846 56.1553 191.947L59.5317 192.646C59.4449 191.688 59.3908 190.727 59.393 189.784C59.3953 188.857 59.4551 187.962 59.5464 187.109L56.1768 183.878C55.6749 183.394 55.4043 182.616 55.5644 182.127L57.3925 176.739C57.521 176.346 57.8943 176.268 58.2958 176.501C58.395 176.559 58.4954 176.635 58.5946 176.731L61.9575 179.958C62.7435 178.793 63.6942 177.842 64.7836 177.12L62.7029 172.582C62.3928 171.899 62.4965 171.273 62.9228 171.161L67.6593 169.937C67.8296 169.891 68.0269 169.935 68.222 170.049C68.5141 170.219 68.8005 170.544 68.9866 170.952L71.0605 175.487C72.4916 175.553 74.0118 175.856 75.6075 176.425L75.6188 172.315C75.6199 171.704 76.0473 171.459 76.574 171.766L82.4111 175.165C82.9389 175.472 83.3629 176.214 83.3606 176.825L83.3494 180.933C84.9428 182.222 86.4585 183.689 87.893 185.291L89.9793 183.179C90.1665 182.988 90.4563 182.999 90.7484 183.169C90.9435 183.283 91.1397 183.467 91.3066 183.709L96.0273 190.442C96.4456 191.047 96.5449 191.791 96.2325 192.111L94.1338 194.214C95.2164 196.202 96.1581 198.255 96.9419 200.334L100.313 201.028C100.411 201.047 100.51 201.087 100.608 201.144C101.006 201.376 101.378 201.889 101.505 202.429L103.297 209.927C103.453 210.601 103.179 211.061 102.676 210.96L99.2999 210.261C99.3924 211.223 99.4409 212.179 99.4386 213.108C99.4364 214.05 99.3823 214.948 99.2853 215.798L102.658 219.031ZM79.3764 217.714C87.1193 222.224 93.4222 218.6 93.447 209.617C93.4718 200.642 87.2107 189.708 79.4677 185.198C71.7191 180.685 65.4162 184.301 65.3914 193.277C65.3655 202.259 71.6266 213.2 79.3764 217.714Z" fill="#6865F7"/>
<path d="M105.848 184.687L101.128 177.955C100.961 177.712 100.765 177.528 100.57 177.414C100.324 177.271 100.08 177.24 99.8974 177.347L90.0806 183.103C90.2633 182.996 90.5068 183.026 90.7527 183.17C90.9478 183.283 91.144 183.468 91.3109 183.71L96.0316 190.443C96.45 191.048 96.5492 191.792 96.2368 192.111L106.054 186.356C106.366 186.037 106.267 185.293 105.848 184.687Z" fill="#9996FF"/>
<path d="M110.08 224.012L119.896 218.257C119.922 218.242 119.951 218.23 119.981 218.222L110.164 223.977C110.134 223.985 110.106 223.996 110.08 224.012Z" fill="#4D4BB7"/>
<path d="M132.352 236.335L122.535 242.091C122.607 242.049 122.665 241.977 122.699 241.876L132.516 236.122C132.482 236.221 132.424 236.292 132.352 236.335Z" fill="#4D4BB7"/>
<path d="M110.164 223.977L119.981 218.221L122.038 217.687L112.221 223.441L110.164 223.977Z" fill="#4D4BB7"/>
<path d="M123.488 239.532L133.304 233.778L132.516 236.12L122.699 241.875L123.488 239.532Z" fill="#4D4BB7"/>
<path d="M108.169 211.109L117.985 205.353C118.11 205.281 118.284 205.292 118.478 205.406L108.661 211.161C108.468 211.047 108.293 211.036 108.169 211.109Z" fill="#4D4BB7"/>
<path d="M108.661 211.161L118.478 205.406L121.012 206.881L111.195 212.637L108.661 211.161Z" fill="#4D4BB7"/>
<path d="M142.612 240.811L132.795 246.567C132.969 246.465 133.041 246.203 132.962 245.862L142.779 240.107C142.858 240.447 142.785 240.71 142.612 240.811Z" fill="#4D4BB7"/>
<path d="M132.189 242.616L142.006 236.861L142.779 240.107L132.963 245.862L132.189 242.616Z" fill="#4D4BB7"/>
<path d="M142.172 230.627L132.355 236.382C130.53 237.453 128.003 237.303 125.217 235.679L135.033 229.925C137.82 231.547 140.346 231.697 142.172 230.627Z" fill="#4D4BB7"/>
<path d="M118.137 211.691L127.954 205.936C126.151 206.992 125.033 209.239 125.024 212.433C125.006 218.861 129.489 226.693 135.034 229.923L125.218 235.678C119.673 232.448 115.191 224.616 115.209 218.187C115.216 214.995 116.334 212.748 118.137 211.691Z" fill="#4D4BB7"/>
<path d="M112.601 202.824L122.417 197.069C122.549 196.992 122.726 197.013 122.904 197.117C123.043 197.197 123.181 197.327 123.302 197.5L113.485 203.256C113.365 203.084 113.226 202.953 113.087 202.872C112.91 202.769 112.733 202.747 112.601 202.824Z" fill="#9996FF"/>
<path d="M147.707 239.492L137.891 245.248C137.915 245.233 137.938 245.216 137.958 245.194L147.775 239.439C147.755 239.461 147.732 239.479 147.707 239.492Z" fill="#4D4BB7"/>
<path d="M113.486 203.255L123.303 197.5L125.35 200.426L115.533 206.18L113.486 203.255Z" fill="#4D4BB7"/>
<path d="M115.533 206.18L125.35 200.426C126.191 200.015 127.121 199.768 128.12 199.701L118.303 205.457C117.304 205.523 116.374 205.771 115.533 206.18Z" fill="#4D4BB7"/>
<path d="M140.428 242.702L150.245 236.947L147.776 239.44L137.959 245.195L140.428 242.702Z" fill="#4D4BB7"/>
<path d="M150.096 235.761L148.049 232.836L138.232 238.591L140.279 241.516C140.584 241.952 140.651 242.486 140.428 242.702L150.245 236.946C150.468 236.731 150.399 236.197 150.096 235.761Z" fill="#9996FF"/>
<path d="M139.297 235.436L149.114 229.68C148.887 230.876 148.529 231.928 148.049 232.836L138.232 238.592C138.712 237.684 139.071 236.631 139.297 235.436Z" fill="#4D4BB7"/>
<path d="M122.807 203.293L132.624 197.538L133.398 200.79L123.581 206.546L122.807 203.293Z" fill="#4D4BB7"/>
<path d="M131.982 196.614C131.911 196.573 131.839 196.543 131.768 196.531L127.787 195.709C127.681 195.689 127.59 195.704 127.517 195.747L117.7 201.501C117.773 201.458 117.865 201.443 117.97 201.464L121.951 202.285C122.022 202.299 122.094 202.327 122.166 202.369C122.451 202.535 122.717 202.904 122.807 203.293L132.624 197.539C132.534 197.148 132.268 196.78 131.982 196.614Z" fill="#9996FF"/>
<path d="M152.138 231.206L142.321 236.961C142.443 236.889 142.519 236.738 142.519 236.523L152.335 230.768C152.335 230.983 152.26 231.135 152.138 231.206Z" fill="#4D4BB7"/>
<path d="M123.581 206.546L133.397 200.79C133.962 201.046 134.529 201.324 135.113 201.664C135.69 202.001 136.256 202.382 136.821 202.784L127.004 208.54C126.439 208.137 125.874 207.756 125.296 207.419C124.712 207.079 124.146 206.801 123.581 206.546Z" fill="#4D4BB7"/>
<path d="M138.271 224.631L148.088 218.875C148.561 220.339 148.914 221.805 149.131 223.26L139.316 229.016C139.096 227.559 138.744 226.094 138.271 224.631Z" fill="#4D4BB7"/>
<path d="M142.534 231.678L152.35 225.923L152.337 230.769L142.52 236.523L142.534 231.678Z" fill="#4D4BB7"/>
<path d="M151.666 224.736L149.132 223.26L139.315 229.016L141.849 230.491C142.23 230.713 142.533 231.236 142.532 231.679L152.349 225.924C152.351 225.481 152.047 224.958 151.666 224.736Z" fill="#9996FF"/>
<path d="M132.271 213.591L142.088 207.835C143.084 209.064 144.008 210.392 144.844 211.779L135.027 217.534C134.192 216.147 133.266 214.82 132.271 213.591Z" fill="#4D4BB7"/>
<path d="M133.059 211.255L142.876 205.5L142.088 207.836L132.271 213.591L133.059 211.255Z" fill="#4D4BB7"/>
<path d="M142.441 204.244L138.469 200.433C138.398 200.363 138.326 200.309 138.255 200.267C138.074 200.162 137.902 200.146 137.775 200.22L127.958 205.974C128.085 205.9 128.257 205.916 128.438 206.021C128.509 206.062 128.581 206.118 128.652 206.187L132.624 209.997C132.979 210.344 133.175 210.9 133.059 211.254L142.875 205.499C142.992 205.147 142.796 204.591 142.441 204.244Z" fill="#9996FF"/>
<path d="M135.027 217.534L144.844 211.779L146.9 211.244L137.084 216.998L135.027 217.534Z" fill="#4D4BB7"/>
<path d="M141.85 230.491C142.231 230.713 142.535 231.236 142.533 231.679L142.52 236.524C142.519 236.959 142.213 237.134 141.832 236.912L139.298 235.437C139.072 236.632 138.713 237.685 138.233 238.593L140.28 241.517C140.585 241.953 140.653 242.487 140.43 242.703L137.962 245.196C137.826 245.331 137.618 245.323 137.407 245.2C137.268 245.119 137.128 244.99 137.009 244.817L134.962 241.892C134.121 242.301 133.191 242.549 132.192 242.616L132.966 245.862C133.079 246.348 132.881 246.676 132.525 246.601L128.544 245.787C128.475 245.772 128.405 245.744 128.336 245.704C128.049 245.537 127.779 245.166 127.688 244.779L126.914 241.525C126.348 241.269 125.783 240.985 125.206 240.648C124.622 240.308 124.057 239.935 123.492 239.531L122.702 241.874C122.609 242.152 122.338 242.208 122.05 242.041C121.982 242.001 121.912 241.948 121.843 241.883L117.871 238.065C117.516 237.724 117.32 237.168 117.436 236.816L118.225 234.48C117.229 233.251 116.305 231.924 115.469 230.537L113.412 231.073C113.291 231.104 113.152 231.071 113.013 230.991C112.801 230.868 112.593 230.632 112.459 230.34L110.012 224.984C109.791 224.508 109.862 224.055 110.168 223.976L112.225 223.44C111.752 221.977 111.399 220.51 111.18 219.055L108.646 217.58C108.265 217.358 107.962 216.827 107.963 216.392L107.976 211.547C107.978 211.105 108.283 210.937 108.664 211.159L111.198 212.634C111.424 211.439 111.784 210.386 112.263 209.478L110.216 206.554C109.912 206.118 109.844 205.584 110.067 205.36L112.536 202.874C112.671 202.739 112.88 202.746 113.091 202.87C113.229 202.951 113.369 203.08 113.489 203.253L115.536 206.178C116.377 205.769 117.306 205.521 118.305 205.453L117.532 202.208C117.419 201.722 117.616 201.394 117.973 201.461L121.953 202.283C122.025 202.296 122.097 202.325 122.168 202.367C122.453 202.533 122.719 202.902 122.809 203.291L123.583 206.543C124.148 206.799 124.714 207.077 125.298 207.417C125.877 207.754 126.442 208.134 127.007 208.538L127.796 206.194C127.889 205.912 128.156 205.854 128.441 206.02C128.512 206.061 128.585 206.117 128.656 206.186L132.627 209.996C132.983 210.343 133.179 210.899 133.063 211.253L132.273 213.589C133.269 214.818 134.194 216.145 135.029 217.532L137.086 216.996C137.207 216.964 137.347 216.997 137.486 217.078C137.698 217.201 137.905 217.436 138.039 217.729L140.487 223.078C140.708 223.561 140.637 224.013 140.331 224.094L138.274 224.63C138.748 226.093 139.099 227.559 139.318 229.015L141.85 230.491ZM125.217 235.679C130.755 238.905 135.267 236.312 135.285 229.884C135.304 223.456 130.821 215.623 125.283 212.398C119.737 209.168 115.225 211.762 115.207 218.19C115.189 224.617 119.671 232.449 125.217 235.679Z" fill="#6865F7"/>
<path d="M150.3 217.325L147.853 211.976C147.719 211.684 147.511 211.449 147.299 211.325C147.16 211.244 147.022 211.212 146.9 211.244L137.083 217C137.204 216.968 137.344 217.001 137.482 217.082C137.694 217.204 137.902 217.44 138.036 217.732L140.483 223.082C140.683 223.516 140.644 223.926 140.412 224.062L150.229 218.307C150.461 218.169 150.498 217.76 150.3 217.325Z" fill="#9996FF"/>
<path fill-rule="evenodd" clip-rule="evenodd" d="M399.191 313.21V311.314L396.578 309.792V311.689L399.191 313.21Z" fill="#231F20"/>
<path fill-rule="evenodd" clip-rule="evenodd" d="M403.878 315.94V314.044L401.265 312.522V314.418L403.878 315.94Z" fill="#231F20"/>
<path fill-rule="evenodd" clip-rule="evenodd" d="M408.82 318.789L408.028 316.46L405.753 315.135L406.036 317.196C406.968 317.739 407.905 318.291 408.82 318.789Z" fill="#231F20"/>
<path fill-rule="evenodd" clip-rule="evenodd" d="M385.114 305.011V303.115L382.501 301.593V303.49L385.114 305.011Z" fill="#231F20"/>
<path fill-rule="evenodd" clip-rule="evenodd" d="M389.799 307.741V305.845L387.187 304.323V306.219L389.799 307.741Z" fill="#231F20"/>
<path fill-rule="evenodd" clip-rule="evenodd" d="M394.471 310.461V308.565L391.858 307.044V308.939L394.471 310.461Z" fill="#231F20"/>
<path fill-rule="evenodd" clip-rule="evenodd" d="M372.168 293.748L373.732 293.502L373.726 290.865L372.089 290.517C372.093 291.599 372.115 292.675 372.168 293.748Z" fill="#231F20"/>
<path fill-rule="evenodd" clip-rule="evenodd" d="M375.403 299.273L376.388 298.03C375.628 297.58 374.881 296.741 374.386 295.786L373.007 296.512C373.61 297.669 374.5 298.695 375.403 299.273Z" fill="#231F20"/>
<path fill-rule="evenodd" clip-rule="evenodd" d="M380.362 302.242L380.454 300.401L378.178 299.075L377.565 300.61L380.362 302.242Z" fill="#231F20"/>
<path fill-rule="evenodd" clip-rule="evenodd" d="M372.089 277.032L373.726 277.985V274.96L372.089 274.007V277.032Z" fill="#231F20"/>
<path fill-rule="evenodd" clip-rule="evenodd" d="M372.089 282.456L373.726 283.411V280.386L372.089 279.431V282.456Z" fill="#231F20"/>
<path fill-rule="evenodd" clip-rule="evenodd" d="M372.089 287.906L373.726 288.742V285.793L372.089 284.838V287.906Z" fill="#231F20"/>
<path fill-rule="evenodd" clip-rule="evenodd" d="M372.089 260.736L373.726 261.691V258.946L372.089 257.558V260.736Z" fill="#231F20"/>
<path fill-rule="evenodd" clip-rule="evenodd" d="M372.089 266.161L373.726 267.115V264.09L372.089 263.137V266.161Z" fill="#231F20"/>
<path fill-rule="evenodd" clip-rule="evenodd" d="M372.089 271.568L373.726 272.522V269.497L372.089 268.544V271.568Z" fill="#231F20"/>
<path fill-rule="evenodd" clip-rule="evenodd" d="M379.026 253.772L379.368 255.868L381.76 257.262V255.365L379.026 253.772Z" fill="#231F20"/>
<path fill-rule="evenodd" clip-rule="evenodd" d="M374.133 251.38L375.321 253.785C376.021 253.799 376.814 254.412 377.563 254.817L376.814 252.505C375.904 252.036 374.972 251.374 374.133 251.38Z" fill="#231F20"/>
<path fill-rule="evenodd" clip-rule="evenodd" d="M372.112 254.975L373.726 256.823C373.729 256.386 373.717 255.94 373.734 255.511C373.757 255.087 373.86 254.715 374.037 254.429L372.578 252.168C372.357 252.505 372.219 252.94 372.173 253.434C372.135 253.932 372.129 254.453 372.112 254.975Z" fill="#231F20"/>
<path fill-rule="evenodd" clip-rule="evenodd" d="M393.225 262.042V263.939L395.838 265.46V263.565L393.225 262.042Z" fill="#231F20"/>
<path fill-rule="evenodd" clip-rule="evenodd" d="M388.538 259.313V261.208L391.151 262.731V260.834L388.538 259.313Z" fill="#231F20"/>
<path fill-rule="evenodd" clip-rule="evenodd" d="M383.867 256.592V258.488L386.48 260.01V258.114L383.867 256.592Z" fill="#231F20"/>
<path fill-rule="evenodd" clip-rule="evenodd" d="M407.498 270.357L406.942 271.927C407.7 272.375 408.459 272.795 409.217 273.267L410.243 272.065C409.346 271.459 408.429 270.912 407.498 270.357Z" fill="#231F20"/>
<path fill-rule="evenodd" clip-rule="evenodd" d="M402.615 267.512V269.407L405.137 270.876L405.278 269.062L402.615 267.512Z" fill="#231F20"/>
<path fill-rule="evenodd" clip-rule="evenodd" d="M397.944 264.791V266.687L400.557 268.209V266.313L397.944 264.791Z" fill="#231F20"/>
<path fill-rule="evenodd" clip-rule="evenodd" d="M413.288 285.973L411.651 285.02V288.045L413.288 288.998V285.973Z" fill="#231F20"/>
<path fill-rule="evenodd" clip-rule="evenodd" d="M413.286 280.312L411.651 280.025V282.659L413.288 283.552L413.286 280.312Z" fill="#231F20"/>
<path fill-rule="evenodd" clip-rule="evenodd" d="M412.194 274.317L410.847 275.1C411.395 276.033 411.68 277.091 411.651 277.951L413.23 277.77C413.223 276.722 412.857 275.449 412.194 274.317Z" fill="#231F20"/>
<path fill-rule="evenodd" clip-rule="evenodd" d="M413.288 302.269L411.651 301.316V304.34L413.288 305.294V302.269Z" fill="#231F20"/>
<path fill-rule="evenodd" clip-rule="evenodd" d="M413.288 296.844L411.651 295.89V298.915L413.288 299.869V296.844Z" fill="#231F20"/>
<path fill-rule="evenodd" clip-rule="evenodd" d="M413.288 291.437L411.651 290.483V293.508L413.288 294.461V291.437Z" fill="#231F20"/>
<path fill-rule="evenodd" clip-rule="evenodd" d="M412.936 318.744L411.448 316.519C411.163 317.168 410.56 317.471 409.844 317.341L410.991 319.748C411.846 319.874 412.572 319.507 412.936 318.744Z" fill="#231F20"/>
<path fill-rule="evenodd" clip-rule="evenodd" d="M413.288 313.272L411.651 311.944V314.578L413.257 316.473C413.289 315.435 413.289 314.352 413.288 313.272Z" fill="#231F20"/>
<path fill-rule="evenodd" clip-rule="evenodd" d="M413.288 307.732L411.651 306.779V309.803L413.288 310.757V307.732Z" fill="#231F20"/>
<path d="M406.191 323.442L382.071 309.394C381.615 309.128 381.197 309.103 380.895 309.28L376.957 311.59C377.259 311.412 377.677 311.437 378.133 311.703L402.253 325.751C403.169 326.285 403.904 327.569 403.901 328.631L403.822 356.59C403.821 357.109 403.638 357.475 403.344 357.648L407.283 355.339C407.577 355.166 407.76 354.799 407.761 354.281L407.84 326.321C407.842 325.26 407.107 323.975 406.191 323.442Z" fill="#4D4D4D"/>
<path d="M402.252 325.751C403.168 326.285 403.903 327.569 403.9 328.631L403.821 356.59C403.818 357.638 403.078 358.063 402.162 357.53L378.042 343.482C377.138 342.955 376.391 341.664 376.395 340.616L376.473 312.656C376.477 311.594 377.228 311.175 378.132 311.702L402.252 325.751Z" fill="black"/>
<path d="M406.191 275.823L382.071 261.775C381.615 261.509 381.197 261.485 380.895 261.661L376.957 263.97C377.259 263.793 377.677 263.818 378.133 264.084L402.253 278.132C403.169 278.666 403.904 279.95 403.901 281.012L403.822 308.971C403.821 309.49 403.638 309.856 403.344 310.029L407.283 307.719C407.577 307.547 407.76 307.18 407.761 306.661L407.84 278.701C407.842 277.639 407.107 276.356 406.191 275.823Z" fill="#7981F2"/>
<path d="M402.252 278.131C403.168 278.665 403.903 279.949 403.9 281.011L403.821 308.97C403.818 310.018 403.078 310.443 402.162 309.91L378.042 295.862C377.138 295.335 376.391 294.044 376.395 292.996L376.473 265.035C376.477 263.974 377.228 263.555 378.132 264.082L402.252 278.131Z" fill="#4D4BB7"/>
<path d="M406.191 228.202L382.071 214.154C381.615 213.888 381.197 213.863 380.895 214.04L376.957 216.35C377.259 216.172 377.677 216.197 378.133 216.464L402.253 230.512C403.169 231.045 403.904 232.329 403.901 233.391L403.822 261.351C403.821 261.87 403.638 262.236 403.344 262.409L407.283 260.1C407.577 259.927 407.76 259.561 407.761 259.042L407.84 231.081C407.842 230.02 407.107 228.736 406.191 228.202Z" fill="white"/>
<path d="M402.252 230.511C403.168 231.045 403.903 232.329 403.9 233.391L403.821 261.351C403.818 262.399 403.078 262.825 402.162 262.291L378.042 248.243C377.138 247.716 376.391 246.425 376.395 245.377L376.473 217.417C376.477 216.355 377.228 215.937 378.132 216.463L402.252 230.511Z" fill="#E6E6E6"/>
<path d="M406.191 183.573L382.071 169.525C381.615 169.259 381.197 169.233 380.895 169.411L376.957 171.72C377.259 171.543 377.677 171.568 378.133 171.834L402.253 185.882C403.169 186.416 403.904 187.7 403.901 188.762L403.822 216.721C403.821 217.24 403.638 217.606 403.344 217.779L407.283 215.469C407.577 215.296 407.76 214.93 407.761 214.411L407.84 186.452C407.842 185.391 407.107 184.106 406.191 183.573Z" fill="#ADDAFF"/>
<path d="M402.252 185.882C403.168 186.416 403.903 187.7 403.9 188.761L403.821 216.722C403.818 217.77 403.078 218.195 402.162 217.662L378.042 203.614C377.138 203.087 376.391 201.796 376.395 200.748L376.473 172.787C376.477 171.726 377.228 171.307 378.132 171.834L402.252 185.882Z" fill="#80C5FF"/>
<path d="M399.796 375.793L377.584 362.846C376.189 362.034 376.364 360.614 377.975 359.677L380.139 358.421C381.749 357.482 384.186 357.381 385.581 358.193L407.793 371.14C409.188 371.952 409.013 373.372 407.403 374.309L405.239 375.565C403.628 376.504 401.191 376.606 399.796 375.793Z" fill="#FFC066"/>
</svg>
