<svg fill="#000000" viewBox="0 0 24 24" id="up-down-left-right-arrow" data-name="Flat Color" xmlns="http://www.w3.org/2000/svg" class="icon flat-color"><g id="SVGRepo_bgCarrier" stroke-width="0"></g><g id="SVGRepo_tracerCarrier" stroke-linecap="round" stroke-linejoin="round"></g><g id="SVGRepo_iconCarrier"><path id="secondary" d="M20,10a1,1,0,0,0-1,1v1.59L9.71,3.29A1,1,0,0,0,8.29,4.71L17.59,14H16a1,1,0,0,0,0,2h4a1,1,0,0,0,1-1V11A1,1,0,0,0,20,10Z" style="fill: #2ca9bc;"></path><path id="primary" d="M15.71,19.29,6.41,10H8A1,1,0,0,0,8,8H4A1,1,0,0,0,3,9v4a1,1,0,0,0,2,0V11.41l9.29,9.3a1,1,0,0,0,1.42,0A1,1,0,0,0,15.71,19.29Z" style="fill: #000000;"></path></g></svg>
