
<svg width="2322" height="2322" viewBox="0 0 2322 2322" fill="none" xmlns="http://www.w3.org/2000/svg">
<g opacity="0.2">
<path d="M569.157 1199.04L535.808 1176.6L569.157 1154.18L602.507 1176.6L569.157 1199.04Z" fill="#1400FB"/>
<path opacity="0.1" d="M635.863 1243.89L602.507 1221.47L635.863 1199.04L669.213 1221.47L635.863 1243.89Z" fill="#1400FB"/>
<path opacity="0.4" d="M702.569 1288.76L669.219 1266.33L702.569 1243.89L735.925 1266.33L702.569 1288.76Z" fill="#1400FB"/>
<path d="M769.274 1333.62L735.925 1311.18L769.274 1288.76L802.624 1311.19L769.274 1333.62Z" fill="#1400FB"/>
<path opacity="0.4" d="M835.98 1378.48L802.63 1356.05L835.98 1333.62L869.336 1356.05L835.98 1378.48Z" fill="#1400FB"/>
<path d="M902.686 1423.33L869.336 1400.91L902.686 1378.48L936.042 1400.91L902.686 1423.33Z" fill="#1400FB"/>
<path d="M969.391 1468.2L936.042 1445.77L969.391 1423.33L1002.75 1445.77L969.391 1468.2Z" fill="#1400FB"/>
<path d="M1036.1 1513.06L1002.75 1490.63L1036.1 1468.2L1069.45 1490.63L1036.1 1513.06Z" fill="#1400FB"/>
<path opacity="0.1" d="M1102.8 1557.92L1069.45 1535.49L1102.8 1513.06L1136.16 1535.49L1102.8 1557.92Z" fill="#1400FB"/>
<path d="M502.182 1244.08L468.826 1221.65L502.182 1199.22L535.532 1221.65L502.182 1244.08Z" fill="#1400FB"/>
<path d="M568.888 1288.94L535.532 1266.51L568.888 1244.08L602.237 1266.51L568.888 1288.94Z" fill="#1400FB"/>
<path d="M635.593 1333.8L602.238 1311.37L635.593 1288.94L668.943 1311.37L635.593 1333.8Z" fill="#1400FB"/>
<path d="M702.299 1378.66L668.943 1356.23L702.299 1333.8L735.649 1356.23L702.299 1378.66Z" fill="#1400FB"/>
<path d="M769.005 1423.52L735.655 1401.09L769.005 1378.66L802.355 1401.09L769.005 1423.52Z" fill="#1400FB"/>
<path d="M835.71 1468.38L802.361 1445.95L835.71 1423.52L869.06 1445.95L835.71 1468.38Z" fill="#1400FB"/>
<path d="M902.416 1513.24L869.066 1490.81L902.416 1468.38L935.772 1490.81L902.416 1513.24Z" fill="#1400FB"/>
<path d="M969.122 1558.1L935.772 1535.67L969.122 1513.24L1002.48 1535.67L969.122 1558.1Z" fill="#1400FB"/>
<path d="M1035.83 1602.96L1002.48 1580.53L1035.83 1558.1L1069.18 1580.53L1035.83 1602.96Z" fill="#1400FB"/>
<path d="M435.207 1289.12L401.851 1266.69L435.207 1244.26L468.557 1266.69L435.207 1289.12Z" fill="#1400FB"/>
<path d="M501.913 1333.98L468.557 1311.55L501.913 1289.12L535.262 1311.55L501.913 1333.98Z" fill="#1400FB"/>
<path d="M568.618 1378.84L535.262 1356.41L568.618 1333.98L601.968 1356.41L568.618 1378.84Z" fill="#1400FB"/>
<path opacity="0.1" d="M635.324 1423.7L601.968 1401.27L635.324 1378.84L668.674 1401.27L635.324 1423.7Z" fill="#1400FB"/>
<path opacity="0.4" d="M702.03 1468.56L668.674 1446.13L702.03 1423.7L735.379 1446.13L702.03 1468.56Z" fill="#1400FB"/>
<path opacity="0.4" d="M768.735 1513.42L735.385 1490.99L768.735 1468.56L802.085 1490.99L768.735 1513.42Z" fill="#1400FB"/>
<path d="M835.441 1558.28L802.085 1535.85L835.441 1513.42L868.791 1535.85L835.441 1558.28Z" fill="#1400FB"/>
<path d="M902.147 1603.14L868.797 1580.71L902.147 1558.29L935.496 1580.71L902.147 1603.14Z" fill="#1400FB"/>
<path d="M968.852 1648L935.502 1625.58L968.852 1603.14L1002.2 1625.58L968.852 1648Z" fill="#1400FB"/>
<path opacity="0.4" d="M368.232 1334.16L334.876 1311.73L368.232 1289.3L401.581 1311.73L368.232 1334.16Z" fill="#1400FB"/>
<path opacity="0.4" d="M434.937 1379.02L401.581 1356.59L434.937 1334.17L468.287 1356.59L434.937 1379.02Z" fill="#1400FB"/>
<path opacity="0.1" d="M501.643 1423.88L468.287 1401.46L501.643 1379.02L534.993 1401.46L501.643 1423.88Z" fill="#1400FB"/>
<path d="M568.349 1468.75L534.993 1446.31L568.349 1423.88L601.698 1446.31L568.349 1468.75Z" fill="#1400FB"/>
<path d="M635.054 1513.61L601.698 1491.17L635.054 1468.75L668.404 1491.17L635.054 1513.61Z" fill="#1400FB"/>
<path d="M701.76 1558.46L668.404 1536.03L701.76 1513.61L735.11 1536.03L701.76 1558.46Z" fill="#1400FB"/>
<path opacity="0.4" d="M768.466 1603.32L735.11 1580.9L768.466 1558.46L801.815 1580.9L768.466 1603.32Z" fill="#1400FB"/>
<path d="M835.171 1648.19L801.815 1625.76L835.171 1603.32L868.521 1625.76L835.171 1648.19Z" fill="#1400FB"/>
<path d="M901.877 1693.05L868.527 1670.61L901.877 1648.19L935.227 1670.61L901.877 1693.05Z" fill="#1400FB"/>
<path d="M301.25 1379.2L267.901 1356.78L301.25 1334.35L334.606 1356.78L301.25 1379.2Z" fill="#1400FB"/>
<path d="M367.962 1424.06L334.606 1401.64L367.956 1379.2L401.312 1401.64L367.962 1424.06Z" fill="#1400FB"/>
<path d="M434.668 1468.93L401.312 1446.49L434.662 1424.06L468.018 1446.49L434.668 1468.93Z" fill="#1400FB"/>
<path d="M501.374 1513.78L468.018 1491.35L501.367 1468.93L534.723 1491.35L501.374 1513.78Z" fill="#1400FB"/>
<path d="M568.079 1558.64L534.723 1536.22L568.073 1513.79L601.429 1536.22L568.079 1558.64Z" fill="#1400FB"/>
<path d="M634.785 1603.51L601.429 1581.08L634.785 1558.64L668.135 1581.08L634.785 1603.51Z" fill="#1400FB"/>
<path d="M701.491 1648.37L668.135 1625.93L701.491 1603.51L734.84 1625.93L701.491 1648.37Z" fill="#1400FB"/>
<path d="M768.196 1693.23L734.84 1670.79L768.196 1648.37L801.546 1670.79L768.196 1693.23Z" fill="#1400FB"/>
<path d="M834.902 1738.08L801.546 1715.66L834.902 1693.23L868.252 1715.66L834.902 1738.08Z" fill="#1400FB"/>
<path d="M234.275 1424.25L200.926 1401.81L234.275 1379.38L267.631 1401.81L234.275 1424.25Z" fill="#1400FB"/>
<path d="M300.981 1469.11L267.631 1446.67L300.981 1424.25L334.337 1446.67L300.981 1469.11Z" fill="#1400FB"/>
<path opacity="0.4" d="M367.687 1513.96L334.337 1491.54L367.687 1469.11L401.043 1491.54L367.687 1513.96Z" fill="#1400FB"/>
<path d="M434.398 1558.83L401.042 1536.4L434.392 1513.96L467.748 1536.4L434.398 1558.83Z" fill="#1400FB"/>
<path opacity="0.1" d="M501.104 1603.69L467.748 1581.26L501.098 1558.83L534.454 1581.26L501.104 1603.69Z" fill="#1400FB"/>
<path d="M567.81 1648.55L534.454 1626.12L567.804 1603.69L601.159 1626.12L567.81 1648.55Z" fill="#1400FB"/>
<path d="M634.515 1693.4L601.159 1670.98L634.509 1648.55L667.865 1670.98L634.515 1693.4Z" fill="#1400FB"/>
<path d="M701.221 1738.27L667.865 1715.84L701.221 1693.41L734.571 1715.84L701.221 1738.27Z" fill="#1400FB"/>
<path d="M767.927 1783.13L734.571 1760.69L767.927 1738.27L801.276 1760.7L767.927 1783.13Z" fill="#1400FB"/>
<path d="M167.3 1469.28L133.95 1446.86L167.3 1424.43L200.656 1446.86L167.3 1469.28Z" fill="#1400FB"/>
<path d="M234.006 1514.15L200.656 1491.72L234.006 1469.29L267.362 1491.72L234.006 1514.15Z" fill="#1400FB"/>
<path opacity="0.4" d="M300.712 1559.01L267.362 1536.58L300.712 1514.15L334.068 1536.58L300.712 1559.01Z" fill="#1400FB"/>
<path d="M367.417 1603.87L334.067 1581.44L367.417 1559.01L400.773 1581.44L367.417 1603.87Z" fill="#1400FB"/>
<path d="M434.123 1648.73L400.773 1626.3L434.123 1603.87L467.479 1626.3L434.123 1648.73Z" fill="#1400FB"/>
<path opacity="0.1" d="M500.835 1693.59L467.479 1671.16L500.828 1648.73L534.184 1671.16L500.835 1693.59Z" fill="#1400FB"/>
<path opacity="0.4" d="M567.534 1738.45L534.184 1716.02L567.534 1693.59L600.89 1716.02L567.534 1738.45Z" fill="#1400FB"/>
<path d="M634.246 1783.31L600.89 1760.88L634.24 1738.45L667.596 1760.88L634.246 1783.31Z" fill="#1400FB"/>
<path opacity="0.1" d="M700.952 1828.17L667.596 1805.74L700.952 1783.31L734.301 1805.74L700.952 1828.17Z" fill="#1400FB"/>
<path d="M100.325 1514.33L66.9751 1491.9L100.325 1469.47L133.674 1491.9L100.325 1514.33Z" fill="#1400FB"/>
<path opacity="0.4" d="M167.03 1559.19L133.681 1536.76L167.03 1514.33L200.38 1536.76L167.03 1559.19Z" fill="#1400FB"/>
<path d="M233.736 1604.05L200.386 1581.62L233.736 1559.19L267.092 1581.62L233.736 1604.05Z" fill="#1400FB"/>
<path d="M300.442 1648.91L267.092 1626.48L300.442 1604.05L333.798 1626.48L300.442 1648.91Z" fill="#1400FB"/>
<path d="M367.148 1693.77L333.798 1671.34L367.148 1648.91L400.503 1671.34L367.148 1693.77Z" fill="#1400FB"/>
<path d="M433.853 1738.63L400.503 1716.2L433.853 1693.77L467.209 1716.2L433.853 1738.63Z" fill="#1400FB"/>
<path d="M500.559 1783.49L467.209 1761.06L500.559 1738.63L533.915 1761.06L500.559 1783.49Z" fill="#1400FB"/>
<path opacity="0.4" d="M567.264 1828.35L533.915 1805.92L567.264 1783.49L600.62 1805.92L567.264 1828.35Z" fill="#1400FB"/>
<path d="M633.97 1873.21L600.62 1850.78L633.97 1828.36L667.326 1850.78L633.97 1873.21Z" fill="#1400FB"/>
<path d="M33.3497 1559.37L0 1536.94L33.3497 1514.51L66.6994 1536.94L33.3497 1559.37Z" fill="#1400FB"/>
<path opacity="0.1" d="M100.055 1604.24L66.6995 1581.8L100.055 1559.37L133.405 1581.8L100.055 1604.24Z" fill="#1400FB"/>
<path d="M166.761 1649.09L133.411 1626.66L166.761 1604.24L200.111 1626.66L166.761 1649.09Z" fill="#1400FB"/>
<path d="M233.467 1693.95L200.117 1671.53L233.467 1649.09L266.823 1671.53L233.467 1693.95Z" fill="#1400FB"/>
<path d="M300.172 1738.82L266.823 1716.38L300.172 1693.95L333.528 1716.39L300.172 1738.82Z" fill="#1400FB"/>
<path d="M366.878 1783.67L333.528 1761.24L366.878 1738.81L400.234 1761.24L366.878 1783.67Z" fill="#1400FB"/>
<path opacity="0.4" d="M433.584 1828.53L400.234 1806.1L433.584 1783.68L466.94 1806.1L433.584 1828.53Z" fill="#1400FB"/>
<path d="M500.289 1873.39L466.94 1850.97L500.289 1828.53L533.645 1850.97L500.289 1873.39Z" fill="#1400FB"/>
<path d="M566.995 1918.26L533.645 1895.82L566.995 1873.39L600.351 1895.82L566.995 1918.26Z" fill="#1400FB"/>
<path d="M1755 1199.04L1721.64 1176.6L1755 1154.18L1788.35 1176.6L1755 1199.04Z" fill="#1400FB"/>
<path opacity="0.1" d="M1821.7 1243.89L1788.35 1221.47L1821.7 1199.04L1855.05 1221.47L1821.7 1243.89Z" fill="#1400FB"/>
<path opacity="0.4" d="M1888.41 1288.76L1855.05 1266.33L1888.41 1243.89L1921.76 1266.33L1888.41 1288.76Z" fill="#1400FB"/>
<path d="M1955.12 1333.62L1921.76 1311.18L1955.12 1288.76L1988.47 1311.19L1955.12 1333.62Z" fill="#1400FB"/>
<path opacity="0.4" d="M2021.82 1378.48L1988.47 1356.05L2021.82 1333.62L2055.18 1356.05L2021.82 1378.48Z" fill="#1400FB"/>
<path d="M2088.53 1423.33L2055.18 1400.91L2088.53 1378.48L2121.88 1400.91L2088.53 1423.33Z" fill="#1400FB"/>
<path d="M2155.23 1468.2L2121.88 1445.77L2155.23 1423.33L2188.59 1445.77L2155.23 1468.2Z" fill="#1400FB"/>
<path d="M2221.94 1513.06L2188.59 1490.63L2221.94 1468.2L2255.29 1490.63L2221.94 1513.06Z" fill="#1400FB"/>
<path opacity="0.1" d="M2288.64 1557.92L2255.29 1535.49L2288.64 1513.06L2322 1535.49L2288.64 1557.92Z" fill="#1400FB"/>
<path d="M1688.02 1244.08L1654.67 1221.65L1688.02 1199.22L1721.37 1221.65L1688.02 1244.08Z" fill="#1400FB"/>
<path d="M1754.73 1288.94L1721.37 1266.51L1754.73 1244.08L1788.08 1266.51L1754.73 1288.94Z" fill="#1400FB"/>
<path d="M1821.43 1333.8L1788.08 1311.37L1821.43 1288.94L1854.78 1311.37L1821.43 1333.8Z" fill="#1400FB"/>
<path d="M1888.14 1378.66L1854.78 1356.23L1888.14 1333.8L1921.49 1356.23L1888.14 1378.66Z" fill="#1400FB"/>
<path d="M1954.85 1423.52L1921.49 1401.09L1954.85 1378.66L1988.2 1401.09L1954.85 1423.52Z" fill="#1400FB"/>
<path d="M2021.55 1468.38L1988.2 1445.95L2021.55 1423.52L2054.9 1445.95L2021.55 1468.38Z" fill="#1400FB"/>
<path d="M2088.26 1513.24L2054.91 1490.81L2088.26 1468.38L2121.61 1490.81L2088.26 1513.24Z" fill="#1400FB"/>
<path d="M2154.96 1558.1L2121.61 1535.67L2154.96 1513.24L2188.32 1535.67L2154.96 1558.1Z" fill="#1400FB"/>
<path d="M2221.67 1602.96L2188.32 1580.53L2221.67 1558.1L2255.02 1580.53L2221.67 1602.96Z" fill="#1400FB"/>
<path d="M1621.05 1289.12L1587.69 1266.69L1621.05 1244.26L1654.4 1266.69L1621.05 1289.12Z" fill="#1400FB"/>
<path d="M1687.75 1333.98L1654.4 1311.55L1687.75 1289.12L1721.1 1311.55L1687.75 1333.98Z" fill="#1400FB"/>
<path d="M1754.46 1378.84L1721.1 1356.41L1754.46 1333.98L1787.81 1356.41L1754.46 1378.84Z" fill="#1400FB"/>
<path opacity="0.1" d="M1821.17 1423.7L1787.81 1401.27L1821.17 1378.84L1854.51 1401.27L1821.17 1423.7Z" fill="#1400FB"/>
<path opacity="0.4" d="M1887.87 1468.56L1854.52 1446.13L1887.87 1423.7L1921.22 1446.13L1887.87 1468.56Z" fill="#1400FB"/>
<path opacity="0.4" d="M1954.58 1513.42L1921.22 1490.99L1954.58 1468.56L1987.93 1490.99L1954.58 1513.42Z" fill="#1400FB"/>
<path d="M2021.28 1558.28L1987.93 1535.85L2021.28 1513.42L2054.63 1535.85L2021.28 1558.28Z" fill="#1400FB"/>
<path d="M2087.99 1603.14L2054.64 1580.71L2087.99 1558.29L2121.34 1580.71L2087.99 1603.14Z" fill="#1400FB"/>
<path d="M2154.69 1648L2121.34 1625.58L2154.69 1603.14L2188.04 1625.58L2154.69 1648Z" fill="#1400FB"/>
<path opacity="0.4" d="M1554.07 1334.16L1520.72 1311.73L1554.07 1289.3L1587.42 1311.73L1554.07 1334.16Z" fill="#1400FB"/>
<path opacity="0.4" d="M1620.78 1379.02L1587.42 1356.59L1620.77 1334.17L1654.13 1356.59L1620.78 1379.02Z" fill="#1400FB"/>
<path opacity="0.1" d="M1687.48 1423.88L1654.13 1401.46L1687.48 1379.02L1720.83 1401.46L1687.48 1423.88Z" fill="#1400FB"/>
<path d="M1754.19 1468.75L1720.83 1446.31L1754.18 1423.88L1787.54 1446.31L1754.19 1468.75Z" fill="#1400FB"/>
<path d="M1820.9 1513.61L1787.54 1491.17L1820.9 1468.75L1854.25 1491.17L1820.9 1513.61Z" fill="#1400FB"/>
<path d="M1887.6 1558.46L1854.25 1536.03L1887.6 1513.61L1920.95 1536.03L1887.6 1558.46Z" fill="#1400FB"/>
<path opacity="0.4" d="M1954.31 1603.32L1920.95 1580.9L1954.31 1558.46L1987.66 1580.9L1954.31 1603.32Z" fill="#1400FB"/>
<path d="M2021.01 1648.19L1987.66 1625.76L2021.01 1603.32L2054.36 1625.76L2021.01 1648.19Z" fill="#1400FB"/>
<path d="M2087.72 1693.05L2054.36 1670.61L2087.72 1648.19L2121.07 1670.61L2087.72 1693.05Z" fill="#1400FB"/>
<path d="M1487.09 1379.2L1453.74 1356.78L1487.09 1334.35L1520.45 1356.78L1487.09 1379.2Z" fill="#1400FB"/>
<path d="M1553.8 1424.06L1520.45 1401.64L1553.8 1379.2L1587.15 1401.64L1553.8 1424.06Z" fill="#1400FB"/>
<path d="M1620.51 1468.93L1587.15 1446.49L1620.5 1424.06L1653.86 1446.49L1620.51 1468.93Z" fill="#1400FB"/>
<path d="M1687.22 1513.78L1653.86 1491.35L1687.21 1468.93L1720.56 1491.35L1687.22 1513.78Z" fill="#1400FB"/>
<path d="M1753.92 1558.64L1720.56 1536.22L1753.91 1513.79L1787.27 1536.22L1753.92 1558.64Z" fill="#1400FB"/>
<path d="M1820.63 1603.51L1787.27 1581.08L1820.62 1558.64L1853.98 1581.08L1820.63 1603.51Z" fill="#1400FB"/>
<path d="M1887.33 1648.37L1853.98 1625.93L1887.33 1603.51L1920.68 1625.93L1887.33 1648.37Z" fill="#1400FB"/>
<path d="M1954.04 1693.23L1920.68 1670.79L1954.04 1648.37L1987.39 1670.79L1954.04 1693.23Z" fill="#1400FB"/>
<path d="M2020.74 1738.08L1987.39 1715.66L2020.74 1693.23L2054.09 1715.66L2020.74 1738.08Z" fill="#1400FB"/>
<path d="M1420.12 1424.25L1386.77 1401.81L1420.12 1379.38L1453.47 1401.81L1420.12 1424.25Z" fill="#1400FB"/>
<path d="M1486.82 1469.11L1453.47 1446.67L1486.82 1424.25L1520.18 1446.67L1486.82 1469.11Z" fill="#1400FB"/>
<path opacity="0.4" d="M1553.53 1513.96L1520.18 1491.54L1553.53 1469.11L1586.88 1491.54L1553.53 1513.96Z" fill="#1400FB"/>
<path d="M1620.23 1558.83L1586.88 1536.4L1620.23 1513.96L1653.59 1536.4L1620.23 1558.83Z" fill="#1400FB"/>
<path opacity="0.1" d="M1686.94 1603.69L1653.59 1581.26L1686.94 1558.83L1720.3 1581.26L1686.94 1603.69Z" fill="#1400FB"/>
<path d="M1753.65 1648.55L1720.3 1626.12L1753.65 1603.69L1787 1626.12L1753.65 1648.55Z" fill="#1400FB"/>
<path d="M1820.36 1693.4L1787 1670.98L1820.35 1648.55L1853.71 1670.98L1820.36 1693.4Z" fill="#1400FB"/>
<path d="M1887.06 1738.27L1853.71 1715.84L1887.06 1693.41L1920.41 1715.84L1887.06 1738.27Z" fill="#1400FB"/>
<path d="M1953.77 1783.13L1920.41 1760.69L1953.77 1738.27L1987.12 1760.7L1953.77 1783.13Z" fill="#1400FB"/>
<path d="M1353.14 1469.28L1319.79 1446.86L1353.14 1424.43L1386.5 1446.86L1353.14 1469.28Z" fill="#1400FB"/>
<path d="M1419.85 1514.15L1386.5 1491.72L1419.85 1469.29L1453.2 1491.72L1419.85 1514.15Z" fill="#1400FB"/>
<path opacity="0.4" d="M1486.55 1559.01L1453.2 1536.58L1486.55 1514.15L1519.91 1536.58L1486.55 1559.01Z" fill="#1400FB"/>
<path d="M1553.26 1603.87L1519.91 1581.44L1553.26 1559.01L1586.61 1581.44L1553.26 1603.87Z" fill="#1400FB"/>
<path d="M1619.96 1648.73L1586.61 1626.3L1619.96 1603.87L1653.32 1626.3L1619.96 1648.73Z" fill="#1400FB"/>
<path opacity="0.1" d="M1686.67 1693.59L1653.32 1671.16L1686.67 1648.73L1720.03 1671.16L1686.67 1693.59Z" fill="#1400FB"/>
<path opacity="0.4" d="M1753.38 1738.45L1720.03 1716.02L1753.38 1693.59L1786.73 1716.02L1753.38 1738.45Z" fill="#1400FB"/>
<path d="M1820.08 1783.31L1786.73 1760.88L1820.08 1738.45L1853.44 1760.88L1820.08 1783.31Z" fill="#1400FB"/>
<path opacity="0.1" d="M1886.79 1828.17L1853.44 1805.74L1886.79 1783.31L1920.14 1805.74L1886.79 1828.17Z" fill="#1400FB"/>
<path d="M1286.17 1514.33L1252.81 1491.9L1286.17 1469.47L1319.52 1491.9L1286.17 1514.33Z" fill="#1400FB"/>
<path opacity="0.4" d="M1352.87 1559.19L1319.52 1536.76L1352.87 1514.33L1386.23 1536.76L1352.87 1559.19Z" fill="#1400FB"/>
<path d="M1419.58 1604.05L1386.23 1581.62L1419.58 1559.19L1452.93 1581.62L1419.58 1604.05Z" fill="#1400FB"/>
<path d="M1486.28 1648.91L1452.93 1626.48L1486.28 1604.05L1519.63 1626.48L1486.28 1648.91Z" fill="#1400FB"/>
<path d="M1552.99 1693.77L1519.64 1671.34L1552.99 1648.91L1586.34 1671.34L1552.99 1693.77Z" fill="#1400FB"/>
<path d="M1619.69 1738.63L1586.34 1716.2L1619.69 1693.77L1653.05 1716.2L1619.69 1738.63Z" fill="#1400FB"/>
<path d="M1686.4 1783.49L1653.05 1761.06L1686.4 1738.63L1719.76 1761.06L1686.4 1783.49Z" fill="#1400FB"/>
<path opacity="0.4" d="M1753.11 1828.35L1719.76 1805.92L1753.11 1783.49L1786.46 1805.92L1753.11 1828.35Z" fill="#1400FB"/>
<path d="M1819.81 1873.21L1786.46 1850.78L1819.81 1828.36L1853.17 1850.78L1819.81 1873.21Z" fill="#1400FB"/>
<path d="M1219.19 1559.37L1185.84 1536.94L1219.19 1514.51L1252.54 1536.94L1219.19 1559.37Z" fill="#1400FB"/>
<path opacity="0.1" d="M1285.9 1604.24L1252.54 1581.8L1285.9 1559.37L1319.25 1581.8L1285.9 1604.24Z" fill="#1400FB"/>
<path d="M1352.6 1649.09L1319.25 1626.66L1352.6 1604.24L1385.95 1626.66L1352.6 1649.09Z" fill="#1400FB"/>
<path d="M1419.31 1693.95L1385.95 1671.53L1419.31 1649.09L1452.66 1671.53L1419.31 1693.95Z" fill="#1400FB"/>
<path d="M1486.01 1738.82L1452.66 1716.38L1486.01 1693.95L1519.36 1716.39L1486.01 1738.82Z" fill="#1400FB"/>
<path d="M1552.72 1783.67L1519.37 1761.24L1552.72 1738.81L1586.07 1761.24L1552.72 1783.67Z" fill="#1400FB"/>
<path opacity="0.4" d="M1619.43 1828.53L1586.08 1806.1L1619.43 1783.68L1652.78 1806.1L1619.43 1828.53Z" fill="#1400FB"/>
<path d="M1686.13 1873.39L1652.78 1850.97L1686.13 1828.53L1719.49 1850.97L1686.13 1873.39Z" fill="#1400FB"/>
<path d="M1752.84 1918.26L1719.49 1895.82L1752.84 1873.39L1786.19 1895.82L1752.84 1918.26Z" fill="#1400FB"/>
<path d="M1163.54 793.842L1130.18 771.407L1163.54 748.98L1196.88 771.407L1163.54 793.842Z" fill="#1400FB"/>
<path opacity="0.1" d="M1230.24 838.704L1196.88 816.27L1230.24 793.842L1263.59 816.27L1230.24 838.704Z" fill="#1400FB"/>
<path opacity="0.4" d="M1296.95 883.559L1263.59 861.131L1296.95 838.704L1330.3 861.131L1296.95 883.559Z" fill="#1400FB"/>
<path d="M1363.65 928.421L1330.3 905.994L1363.65 883.559L1397 905.994L1363.65 928.421Z" fill="#1400FB"/>
<path opacity="0.4" d="M1430.36 973.283L1397 950.848L1430.36 928.421L1463.71 950.848L1430.36 973.283Z" fill="#1400FB"/>
<path d="M1497.06 1018.14L1463.71 995.711L1497.06 973.283L1530.41 995.711L1497.06 1018.14Z" fill="#1400FB"/>
<path d="M1563.77 1063L1530.41 1040.57L1563.77 1018.15L1597.12 1040.57L1563.77 1063Z" fill="#1400FB"/>
<path d="M1630.47 1107.86L1597.12 1085.43L1630.47 1063L1663.82 1085.43L1630.47 1107.86Z" fill="#1400FB"/>
<path opacity="0.1" d="M1697.18 1152.72L1663.83 1130.29L1697.18 1107.86L1730.54 1130.29L1697.18 1152.72Z" fill="#1400FB"/>
<path d="M1096.56 838.879L1063.2 816.452L1096.55 794.024L1129.91 816.452L1096.56 838.879Z" fill="#1400FB"/>
<path d="M1163.27 883.741L1129.91 861.314L1163.27 838.879L1196.62 861.314L1163.27 883.741Z" fill="#1400FB"/>
<path d="M1229.97 928.603L1196.62 906.176L1229.97 883.741L1263.32 906.176L1229.97 928.603Z" fill="#1400FB"/>
<path d="M1296.68 973.466L1263.32 951.031L1296.68 928.604L1330.03 951.031L1296.68 973.466Z" fill="#1400FB"/>
<path d="M1363.38 1018.32L1330.03 995.893L1363.38 973.465L1396.73 995.893L1363.38 1018.32Z" fill="#1400FB"/>
<path d="M1430.09 1063.18L1396.73 1040.75L1430.09 1018.33L1463.44 1040.75L1430.09 1063.18Z" fill="#1400FB"/>
<path d="M1496.79 1108.04L1463.44 1085.62L1496.79 1063.18L1530.14 1085.62L1496.79 1108.04Z" fill="#1400FB"/>
<path d="M1563.5 1152.91L1530.14 1130.47L1563.5 1108.04L1596.85 1130.47L1563.5 1152.91Z" fill="#1400FB"/>
<path d="M1630.21 1197.76L1596.85 1175.33L1630.21 1152.91L1663.56 1175.33L1630.21 1197.76Z" fill="#1400FB"/>
<path d="M1029.58 883.924L996.229 861.497L1029.58 839.062L1062.93 861.497L1029.58 883.924Z" fill="#1400FB"/>
<path d="M1096.29 928.786L1062.93 906.352L1096.28 883.924L1129.64 906.352L1096.29 928.786Z" fill="#1400FB"/>
<path d="M1163 973.641L1129.64 951.214L1163 928.786L1196.35 951.214L1163 973.641Z" fill="#1400FB"/>
<path opacity="0.1" d="M1229.7 1018.5L1196.35 996.076L1229.7 973.648L1263.05 996.076L1229.7 1018.5Z" fill="#1400FB"/>
<path opacity="0.4" d="M1296.41 1063.37L1263.05 1040.94L1296.41 1018.5L1329.76 1040.94L1296.41 1063.37Z" fill="#1400FB"/>
<path opacity="0.4" d="M1363.11 1108.23L1329.76 1085.79L1363.11 1063.37L1396.46 1085.79L1363.11 1108.23Z" fill="#1400FB"/>
<path d="M1429.82 1153.09L1396.46 1130.65L1429.82 1108.23L1463.17 1130.65L1429.82 1153.09Z" fill="#1400FB"/>
<path d="M1496.52 1197.94L1463.17 1175.52L1496.52 1153.09L1529.87 1175.52L1496.52 1197.94Z" fill="#1400FB"/>
<path d="M1563.23 1242.81L1529.87 1220.38L1563.23 1197.94L1596.58 1220.38L1563.23 1242.81Z" fill="#1400FB"/>
<path opacity="0.4" d="M962.603 928.969L929.254 906.534L962.603 884.106L995.959 906.534L962.603 928.969Z" fill="#1400FB"/>
<path opacity="0.4" d="M1029.31 973.824L995.959 951.396L1029.31 928.969L1062.67 951.396L1029.31 973.824Z" fill="#1400FB"/>
<path opacity="0.1" d="M1096.01 1018.69L1062.67 996.258L1096.01 973.831L1129.37 996.258L1096.01 1018.69Z" fill="#1400FB"/>
<path d="M1162.73 1063.55L1129.37 1041.11L1162.72 1018.69L1196.08 1041.12L1162.73 1063.55Z" fill="#1400FB"/>
<path d="M1229.43 1108.41L1196.08 1085.97L1229.43 1063.55L1262.78 1085.97L1229.43 1108.41Z" fill="#1400FB"/>
<path d="M1296.14 1153.26L1262.78 1130.84L1296.13 1108.41L1329.49 1130.84L1296.14 1153.26Z" fill="#1400FB"/>
<path opacity="0.4" d="M1362.84 1198.13L1329.49 1175.7L1362.84 1153.26L1396.19 1175.7L1362.84 1198.13Z" fill="#1400FB"/>
<path d="M1429.55 1242.99L1396.19 1220.56L1429.55 1198.13L1462.9 1220.56L1429.55 1242.99Z" fill="#1400FB"/>
<path d="M1496.25 1287.85L1462.9 1265.42L1496.25 1242.99L1529.6 1265.42L1496.25 1287.85Z" fill="#1400FB"/>
<path d="M895.628 974.006L862.279 951.578L895.628 929.151L928.984 951.578L895.628 974.006Z" fill="#1400FB"/>
<path d="M962.334 1018.87L928.984 996.441L962.334 974.006L995.69 996.441L962.334 1018.87Z" fill="#1400FB"/>
<path d="M1029.04 1063.73L995.69 1041.3L1029.04 1018.87L1062.4 1041.3L1029.04 1063.73Z" fill="#1400FB"/>
<path d="M1095.75 1108.59L1062.4 1086.16L1095.75 1063.73L1129.1 1086.16L1095.75 1108.59Z" fill="#1400FB"/>
<path d="M1162.46 1153.45L1129.1 1131.02L1162.45 1108.59L1195.81 1131.02L1162.46 1153.45Z" fill="#1400FB"/>
<path d="M1229.16 1198.31L1195.81 1175.88L1229.16 1153.45L1262.51 1175.88L1229.16 1198.31Z" fill="#1400FB"/>
<path d="M1295.86 1243.17L1262.51 1220.74L1295.86 1198.31L1329.22 1220.74L1295.86 1243.17Z" fill="#1400FB"/>
<path d="M1362.57 1288.03L1329.22 1265.6L1362.57 1243.17L1395.92 1265.6L1362.57 1288.03Z" fill="#1400FB"/>
<path d="M1429.28 1332.89L1395.92 1310.46L1429.27 1288.03L1462.63 1310.46L1429.28 1332.89Z" fill="#1400FB"/>
<path d="M828.653 1019.05L795.303 996.616L828.653 974.188L862.003 996.623L828.653 1019.05Z" fill="#1400FB"/>
<path d="M895.359 1063.91L862.009 1041.48L895.359 1019.05L928.715 1041.48L895.359 1063.91Z" fill="#1400FB"/>
<path opacity="0.4" d="M962.065 1108.77L928.715 1086.34L962.065 1063.91L995.421 1086.34L962.065 1108.77Z" fill="#1400FB"/>
<path d="M1028.77 1153.63L995.42 1131.2L1028.77 1108.77L1062.13 1131.2L1028.77 1153.63Z" fill="#1400FB"/>
<path opacity="0.1" d="M1095.48 1198.49L1062.13 1176.06L1095.48 1153.63L1128.83 1176.06L1095.48 1198.49Z" fill="#1400FB"/>
<path d="M1162.18 1243.35L1128.83 1220.92L1162.18 1198.49L1195.54 1220.92L1162.18 1243.35Z" fill="#1400FB"/>
<path d="M1228.89 1288.22L1195.54 1265.78L1228.89 1243.35L1262.24 1265.78L1228.89 1288.22Z" fill="#1400FB"/>
<path d="M1295.6 1333.07L1262.24 1310.64L1295.59 1288.22L1328.95 1310.64L1295.6 1333.07Z" fill="#1400FB"/>
<path d="M1362.3 1377.93L1328.95 1355.5L1362.3 1333.07L1395.65 1355.5L1362.3 1377.93Z" fill="#1400FB"/>
<path d="M761.678 1064.1L728.322 1041.66L761.678 1019.23L795.027 1041.66L761.678 1064.1Z" fill="#1400FB"/>
<path d="M828.383 1108.95L795.034 1086.52L828.383 1064.1L861.733 1086.52L828.383 1108.95Z" fill="#1400FB"/>
<path opacity="0.4" d="M895.089 1153.81L861.739 1131.38L895.089 1108.95L928.439 1131.38L895.089 1153.81Z" fill="#1400FB"/>
<path d="M961.795 1198.67L928.445 1176.25L961.795 1153.81L995.151 1176.25L961.795 1198.67Z" fill="#1400FB"/>
<path d="M1028.5 1243.54L995.151 1221.1L1028.5 1198.67L1061.86 1221.1L1028.5 1243.54Z" fill="#1400FB"/>
<path opacity="0.1" d="M1095.21 1288.39L1061.86 1265.96L1095.21 1243.54L1128.56 1265.96L1095.21 1288.39Z" fill="#1400FB"/>
<path opacity="0.4" d="M1161.91 1333.25L1128.56 1310.83L1161.91 1288.4L1195.27 1310.83L1161.91 1333.25Z" fill="#1400FB"/>
<path d="M1228.62 1378.12L1195.27 1355.68L1228.62 1333.25L1261.97 1355.69L1228.62 1378.12Z" fill="#1400FB"/>
<path opacity="0.1" d="M1295.32 1422.98L1261.97 1400.54L1295.32 1378.12L1328.68 1400.54L1295.32 1422.98Z" fill="#1400FB"/>
<path d="M694.703 1109.13L661.347 1086.71L694.703 1064.27L728.053 1086.71L694.703 1109.13Z" fill="#1400FB"/>
<path opacity="0.4" d="M761.408 1153.99L728.052 1131.57L761.408 1109.13L794.758 1131.57L761.408 1153.99Z" fill="#1400FB"/>
<path d="M828.114 1198.86L794.765 1176.42L828.114 1153.99L861.464 1176.42L828.114 1198.86Z" fill="#1400FB"/>
<path d="M894.82 1243.72L861.464 1221.28L894.82 1198.86L928.169 1221.28L894.82 1243.72Z" fill="#1400FB"/>
<path d="M961.525 1288.57L928.176 1266.15L961.525 1243.72L994.875 1266.15L961.525 1288.57Z" fill="#1400FB"/>
<path d="M1028.23 1333.44L994.881 1311.01L1028.23 1288.57L1061.58 1311.01L1028.23 1333.44Z" fill="#1400FB"/>
<path d="M1094.94 1378.3L1061.59 1355.86L1094.94 1333.44L1128.29 1355.87L1094.94 1378.3Z" fill="#1400FB"/>
<path opacity="0.4" d="M1161.64 1423.15L1128.29 1400.73L1161.64 1378.3L1195 1400.73L1161.64 1423.15Z" fill="#1400FB"/>
<path d="M1228.35 1468.02L1195 1445.59L1228.35 1423.16L1261.7 1445.59L1228.35 1468.02Z" fill="#1400FB"/>
<path d="M627.728 1154.18L594.372 1131.74L627.728 1109.31L661.077 1131.74L627.728 1154.18Z" fill="#1400FB"/>
<path opacity="0.1" d="M694.433 1199.04L661.077 1176.6L694.433 1154.18L727.783 1176.6L694.433 1199.04Z" fill="#1400FB"/>
<path d="M761.139 1243.89L727.783 1221.47L761.139 1199.04L794.489 1221.47L761.139 1243.89Z" fill="#1400FB"/>
<path d="M827.845 1288.76L794.489 1266.33L827.845 1243.89L861.194 1266.33L827.845 1288.76Z" fill="#1400FB"/>
<path d="M894.55 1333.62L861.194 1311.18L894.55 1288.76L927.9 1311.19L894.55 1333.62Z" fill="#1400FB"/>
<path d="M961.256 1378.48L927.906 1356.05L961.256 1333.62L994.606 1356.05L961.256 1378.48Z" fill="#1400FB"/>
<path opacity="0.4" d="M1027.96 1423.34L994.612 1400.91L1027.96 1378.48L1061.31 1400.91L1027.96 1423.34Z" fill="#1400FB"/>
<path d="M1094.67 1468.2L1061.32 1445.77L1094.67 1423.33L1128.02 1445.77L1094.67 1468.2Z" fill="#1400FB"/>
<path d="M1161.37 1513.06L1128.02 1490.63L1161.37 1468.2L1194.73 1490.63L1161.37 1513.06Z" fill="#1400FB"/>
<path d="M1163.54 1602.78L1130.18 1580.35L1163.54 1557.92L1196.88 1580.35L1163.54 1602.78Z" fill="#1400FB"/>
<path opacity="0.1" d="M1230.24 1647.64L1196.88 1625.21L1230.24 1602.78L1263.59 1625.21L1230.24 1647.64Z" fill="#1400FB"/>
<path opacity="0.4" d="M1296.95 1692.5L1263.59 1670.07L1296.95 1647.64L1330.3 1670.07L1296.95 1692.5Z" fill="#1400FB"/>
<path d="M1363.65 1737.36L1330.3 1714.93L1363.65 1692.5L1397 1714.93L1363.65 1737.36Z" fill="#1400FB"/>
<path opacity="0.4" d="M1430.36 1782.22L1397 1759.79L1430.36 1737.36L1463.71 1759.79L1430.36 1782.22Z" fill="#1400FB"/>
<path d="M1497.06 1827.08L1463.71 1804.65L1497.06 1782.22L1530.41 1804.65L1497.06 1827.08Z" fill="#1400FB"/>
<path d="M1563.77 1871.94L1530.41 1849.51L1563.77 1827.08L1597.12 1849.51L1563.77 1871.94Z" fill="#1400FB"/>
<path d="M1630.47 1916.8L1597.12 1894.37L1630.47 1871.94L1663.82 1894.37L1630.47 1916.8Z" fill="#1400FB"/>
<path opacity="0.1" d="M1697.18 1961.66L1663.83 1939.23L1697.18 1916.8L1730.54 1939.23L1697.18 1961.66Z" fill="#1400FB"/>
<path d="M1096.56 1647.82L1063.2 1625.39L1096.55 1602.96L1129.91 1625.39L1096.56 1647.82Z" fill="#1400FB"/>
<path d="M1163.27 1692.68L1129.91 1670.25L1163.27 1647.82L1196.62 1670.25L1163.27 1692.68Z" fill="#1400FB"/>
<path d="M1229.97 1737.54L1196.62 1715.11L1229.97 1692.68L1263.32 1715.11L1229.97 1737.54Z" fill="#1400FB"/>
<path d="M1296.68 1782.4L1263.32 1759.97L1296.68 1737.54L1330.03 1759.97L1296.68 1782.4Z" fill="#1400FB"/>
<path d="M1363.38 1827.26L1330.03 1804.83L1363.38 1782.4L1396.73 1804.83L1363.38 1827.26Z" fill="#1400FB"/>
<path d="M1430.09 1872.12L1396.73 1849.69L1430.09 1827.26L1463.44 1849.69L1430.09 1872.12Z" fill="#1400FB"/>
<path d="M1496.79 1916.99L1463.44 1894.55L1496.79 1872.12L1530.14 1894.55L1496.79 1916.99Z" fill="#1400FB"/>
<path d="M1563.5 1961.84L1530.14 1939.41L1563.5 1916.99L1596.85 1939.41L1563.5 1961.84Z" fill="#1400FB"/>
<path d="M1630.21 2006.7L1596.85 1984.27L1630.21 1961.84L1663.56 1984.27L1630.21 2006.7Z" fill="#1400FB"/>
<path d="M1029.58 1692.87L996.229 1670.43L1029.58 1648L1062.93 1670.43L1029.58 1692.87Z" fill="#1400FB"/>
<path d="M1096.29 1737.72L1062.93 1715.29L1096.28 1692.87L1129.64 1715.29L1096.29 1737.72Z" fill="#1400FB"/>
<path d="M1163 1782.58L1129.64 1760.15L1163 1737.73L1196.35 1760.15L1163 1782.58Z" fill="#1400FB"/>
<path opacity="0.1" d="M1229.7 1827.44L1196.35 1805.02L1229.7 1782.58L1263.05 1805.02L1229.7 1827.44Z" fill="#1400FB"/>
<path opacity="0.4" d="M1296.41 1872.31L1263.05 1849.87L1296.41 1827.44L1329.76 1849.87L1296.41 1872.31Z" fill="#1400FB"/>
<path opacity="0.4" d="M1363.11 1917.16L1329.76 1894.73L1363.11 1872.31L1396.46 1894.73L1363.11 1917.16Z" fill="#1400FB"/>
<path d="M1429.82 1962.02L1396.46 1939.6L1429.82 1917.17L1463.17 1939.6L1429.82 1962.02Z" fill="#1400FB"/>
<path d="M1496.52 2006.88L1463.17 1984.46L1496.52 1962.02L1529.87 1984.46L1496.52 2006.88Z" fill="#1400FB"/>
<path d="M1563.23 2051.75L1529.87 2029.31L1563.23 2006.88L1596.58 2029.31L1563.23 2051.75Z" fill="#1400FB"/>
<path opacity="0.4" d="M962.603 1737.9L929.254 1715.48L962.603 1693.05L995.959 1715.48L962.603 1737.9Z" fill="#1400FB"/>
<path opacity="0.4" d="M1029.31 1782.76L995.959 1760.34L1029.31 1737.9L1062.67 1760.34L1029.31 1782.76Z" fill="#1400FB"/>
<path opacity="0.1" d="M1096.01 1827.63L1062.67 1805.19L1096.01 1782.76L1129.37 1805.19L1096.01 1827.63Z" fill="#1400FB"/>
<path d="M1162.73 1872.49L1129.37 1850.05L1162.72 1827.63L1196.08 1850.05L1162.73 1872.49Z" fill="#1400FB"/>
<path d="M1229.43 1917.34L1196.08 1894.92L1229.43 1872.49L1262.78 1894.92L1229.43 1917.34Z" fill="#1400FB"/>
<path d="M1296.14 1962.21L1262.78 1939.78L1296.13 1917.34L1329.49 1939.78L1296.14 1962.21Z" fill="#1400FB"/>
<path opacity="0.4" d="M1362.84 2007.07L1329.49 1984.63L1362.84 1962.21L1396.19 1984.64L1362.84 2007.07Z" fill="#1400FB"/>
<path d="M1429.55 2051.93L1396.19 2029.49L1429.55 2007.07L1462.9 2029.49L1429.55 2051.93Z" fill="#1400FB"/>
<path d="M1496.25 2096.78L1462.9 2074.36L1496.25 2051.93L1529.6 2074.36L1496.25 2096.78Z" fill="#1400FB"/>
<path d="M895.628 1782.95L862.279 1760.51L895.628 1738.08L928.984 1760.52L895.628 1782.95Z" fill="#1400FB"/>
<path d="M962.334 1827.81L928.984 1805.37L962.334 1782.95L995.69 1805.37L962.334 1827.81Z" fill="#1400FB"/>
<path d="M1029.04 1872.66L995.69 1850.24L1029.04 1827.81L1062.4 1850.24L1029.04 1872.66Z" fill="#1400FB"/>
<path d="M1095.75 1917.53L1062.4 1895.1L1095.75 1872.66L1129.1 1895.1L1095.75 1917.53Z" fill="#1400FB"/>
<path d="M1162.46 1962.39L1129.1 1939.96L1162.45 1917.53L1195.81 1939.96L1162.46 1962.39Z" fill="#1400FB"/>
<path d="M1229.16 2007.25L1195.81 1984.82L1229.16 1962.39L1262.51 1984.82L1229.16 2007.25Z" fill="#1400FB"/>
<path d="M1295.86 2052.11L1262.51 2029.68L1295.86 2007.25L1329.22 2029.68L1295.86 2052.11Z" fill="#1400FB"/>
<path d="M1362.57 2096.97L1329.22 2074.54L1362.57 2052.11L1395.92 2074.54L1362.57 2096.97Z" fill="#1400FB"/>
<path d="M1429.28 2141.83L1395.92 2119.4L1429.27 2096.97L1462.63 2119.4L1429.28 2141.83Z" fill="#1400FB"/>
<path d="M828.653 1827.99L795.303 1805.56L828.653 1783.13L862.003 1805.56L828.653 1827.99Z" fill="#1400FB"/>
<path d="M895.359 1872.85L862.009 1850.42L895.359 1827.99L928.715 1850.42L895.359 1872.85Z" fill="#1400FB"/>
<path opacity="0.4" d="M962.065 1917.71L928.715 1895.28L962.065 1872.85L995.421 1895.28L962.065 1917.71Z" fill="#1400FB"/>
<path d="M1028.77 1962.57L995.42 1940.14L1028.77 1917.71L1062.13 1940.14L1028.77 1962.57Z" fill="#1400FB"/>
<path opacity="0.1" d="M1095.48 2007.43L1062.13 1985L1095.48 1962.57L1128.83 1985L1095.48 2007.43Z" fill="#1400FB"/>
<path d="M1162.18 2052.29L1128.83 2029.86L1162.18 2007.43L1195.54 2029.86L1162.18 2052.29Z" fill="#1400FB"/>
<path d="M1228.89 2097.15L1195.54 2074.72L1228.89 2052.29L1262.24 2074.72L1228.89 2097.15Z" fill="#1400FB"/>
<path d="M1295.6 2142.01L1262.24 2119.58L1295.59 2097.15L1328.95 2119.58L1295.6 2142.01Z" fill="#1400FB"/>
<path d="M1362.3 2186.87L1328.95 2164.44L1362.3 2142.01L1395.65 2164.44L1362.3 2186.87Z" fill="#1400FB"/>
<path d="M761.678 1873.03L728.322 1850.6L761.678 1828.17L795.027 1850.6L761.678 1873.03Z" fill="#1400FB"/>
<path d="M828.383 1917.89L795.034 1895.46L828.383 1873.03L861.733 1895.46L828.383 1917.89Z" fill="#1400FB"/>
<path opacity="0.4" d="M895.089 1962.75L861.739 1940.32L895.089 1917.89L928.439 1940.32L895.089 1962.75Z" fill="#1400FB"/>
<path d="M961.795 2007.61L928.445 1985.18L961.795 1962.75L995.151 1985.18L961.795 2007.61Z" fill="#1400FB"/>
<path d="M1028.5 2052.47L995.151 2030.04L1028.5 2007.62L1061.86 2030.04L1028.5 2052.47Z" fill="#1400FB"/>
<path opacity="0.1" d="M1095.21 2097.33L1061.86 2074.9L1095.21 2052.47L1128.56 2074.9L1095.21 2097.33Z" fill="#1400FB"/>
<path opacity="0.4" d="M1161.91 2142.19L1128.56 2119.76L1161.91 2097.33L1195.27 2119.76L1161.91 2142.19Z" fill="#1400FB"/>
<path d="M1228.62 2187.06L1195.27 2164.62L1228.62 2142.19L1261.97 2164.62L1228.62 2187.06Z" fill="#1400FB"/>
<path opacity="0.1" d="M1295.32 2231.91L1261.97 2209.48L1295.32 2187.06L1328.68 2209.48L1295.32 2231.91Z" fill="#1400FB"/>
<path d="M694.703 1918.07L661.347 1895.64L694.703 1873.21L728.053 1895.64L694.703 1918.07Z" fill="#1400FB"/>
<path opacity="0.4" d="M761.408 1962.94L728.052 1940.5L761.408 1918.07L794.758 1940.5L761.408 1962.94Z" fill="#1400FB"/>
<path d="M828.114 2007.79L794.765 1985.36L828.114 1962.93L861.464 1985.36L828.114 2007.79Z" fill="#1400FB"/>
<path d="M894.82 2052.65L861.464 2030.22L894.82 2007.79L928.169 2030.22L894.82 2052.65Z" fill="#1400FB"/>
<path d="M961.525 2097.51L928.176 2075.09L961.525 2052.65L994.875 2075.09L961.525 2097.51Z" fill="#1400FB"/>
<path d="M1028.23 2142.38L994.881 2119.94L1028.23 2097.51L1061.58 2119.94L1028.23 2142.38Z" fill="#1400FB"/>
<path d="M1094.94 2187.23L1061.59 2164.8L1094.94 2142.38L1128.29 2164.8L1094.94 2187.23Z" fill="#1400FB"/>
<path opacity="0.4" d="M1161.64 2232.09L1128.29 2209.67L1161.64 2187.24L1195 2209.67L1161.64 2232.09Z" fill="#1400FB"/>
<path d="M1228.35 2276.95L1195 2254.53L1228.35 2232.09L1261.7 2254.53L1228.35 2276.95Z" fill="#1400FB"/>
<path d="M627.728 1963.11L594.372 1940.68L627.728 1918.26L661.077 1940.68L627.728 1963.11Z" fill="#1400FB"/>
<path opacity="0.1" d="M694.433 2007.97L661.077 1985.55L694.433 1963.12L727.783 1985.55L694.433 2007.97Z" fill="#1400FB"/>
<path d="M761.139 2052.83L727.783 2030.41L761.139 2007.97L794.489 2030.41L761.139 2052.83Z" fill="#1400FB"/>
<path d="M827.845 2097.7L794.489 2075.26L827.845 2052.83L861.194 2075.26L827.845 2097.7Z" fill="#1400FB"/>
<path d="M894.55 2142.56L861.194 2120.12L894.55 2097.7L927.9 2120.12L894.55 2142.56Z" fill="#1400FB"/>
<path d="M961.256 2187.41L927.906 2164.99L961.256 2142.56L994.606 2164.99L961.256 2187.41Z" fill="#1400FB"/>
<path opacity="0.4" d="M1027.96 2232.28L994.612 2209.85L1027.96 2187.41L1061.31 2209.85L1027.96 2232.28Z" fill="#1400FB"/>
<path d="M1094.67 2277.14L1061.32 2254.7L1094.67 2232.28L1128.02 2254.71L1094.67 2277.14Z" fill="#1400FB"/>
<path d="M1161.37 2322L1128.02 2299.57L1161.37 2277.14L1194.73 2299.57L1161.37 2322Z" fill="#1400FB"/>
</g>
<path opacity="0.4" d="M1670.56 1182.65L397.136 1512.18L712.031 1723.95L788.846 2064.05L961.348 1891.62L1180.56 2039.04L1670.56 1182.65Z" fill="#0B0244"/>
<path d="M761.866 1756.35L2000.95 517.7L869.819 1423.6L761.866 1756.35Z" fill="#24126A"/>
<path d="M2000.95 517.7L653.908 1278.4L211.386 980.79L2000.95 517.7Z" fill="url(#paint0_linear_427_10437)"/>
<path d="M2000.95 517.7L869.819 1423.6L1312.35 1721.2L2000.95 517.7Z" fill="url(#paint1_linear_427_10437)"/>
<path d="M869.819 1423.6L2000.95 517.7L653.908 1278.4L761.867 1756.35L869.819 1423.6Z" fill="url(#paint2_linear_427_10437)"/>
<path d="M634.221 1265.16L2000.95 517.7L653.908 1278.4L634.221 1265.16Z" fill="white"/>
<path d="M869.819 1423.6L2000.95 517.7L887.506 1435.49L869.819 1423.6Z" fill="white"/>
<path d="M1099.19 1046.27C1099.19 1046.27 1094.44 1062.86 1094.87 1066.85C1095.31 1070.83 1105.1 1086.54 1105.78 1087.01C1106.46 1087.49 1114.76 1099.83 1124.06 1105.74C1133.38 1111.66 1134.09 1114.6 1134.96 1114.73C1135.82 1114.86 1137.21 1113.81 1137.21 1113.81C1137.21 1113.81 1138.58 1102.46 1134.49 1096.96C1130.41 1091.46 1136.52 1083.29 1136.52 1083.29L1125.96 1051.21L1099.19 1046.27Z" fill="#FCD1C5"/>
<path d="M1200.41 1401.15C1200.41 1401.15 1183.89 1405.63 1167.94 1406.27C1151.99 1406.9 1108.46 1416.49 1109.3 1434.64C1110.15 1452.88 1132.43 1479.06 1160.7 1483C1188.96 1486.95 1225.47 1477.93 1243.92 1478.55C1262.36 1479.17 1275.36 1458.09 1268.51 1437.82C1261.71 1417.65 1200.41 1401.15 1200.41 1401.15Z" fill="#160A5B"/>
<path d="M1296.78 1352.73C1296.78 1352.73 1302.62 1363.76 1299.52 1370.48C1296.42 1377.21 1288.18 1393.93 1262.61 1377.58C1237.12 1361.29 1187.62 1337.85 1187.62 1337.85C1187.62 1337.85 1159.22 1320.51 1161.09 1300.22C1162.95 1280.03 1189.33 1283.22 1189.33 1283.22L1296.78 1352.73Z" fill="#160A5B"/>
<path d="M1012.24 623.696C1012.24 623.696 995.377 623.951 987.944 620.038C980.517 616.132 958.925 607.875 957.584 607.05C956.249 606.225 944.347 605.313 938.9 601.239C938.9 601.239 932.821 604.7 937.622 610.431C942.429 616.169 951.517 618.038 951.517 618.038L960.072 623.842C960.072 623.842 942.749 634.194 941.188 634.968C939.621 635.742 925.118 648.598 923.651 649.387C922.185 650.182 915.717 656.052 918.224 661.257C918.224 661.257 918.474 662.433 921.708 663.243C921.708 663.243 912.439 668.149 914.726 673.457C917.014 678.779 922.887 676.472 922.887 676.472C922.887 676.472 925.118 685.999 936.306 678.618C936.306 678.618 937.609 690.438 962.429 678.085C962.429 678.085 972.457 675.012 979.796 675.603C987.135 676.202 1007.12 670.186 1017.83 661.403C1028.52 652.65 1012.24 623.696 1012.24 623.696Z" fill="#FCD1C5"/>
<path d="M979.809 675.61C987.148 676.209 1007.13 670.193 1017.84 661.41C1025.04 655.512 1019.99 640.458 1015.94 631.259C1010.88 628.397 1006.43 626.054 1006.43 626.054C1006.43 626.054 1007.18 654.701 1006.63 659.001C1006.07 663.309 983.858 668.419 969.618 670.85C955.359 673.281 936.663 679.713 936.65 679.72C937.753 682.334 942.517 688.006 962.448 678.092C962.448 678.092 972.47 675.019 979.809 675.61Z" fill="#E2B1A6"/>
<path d="M1207.57 568.043C1207.57 568.043 1172.48 575.198 1160.53 579.637C1148.94 583.937 1048.35 607.123 1011.5 617.629C1009.18 618.293 1007.38 620.491 1006.82 623.287C1006.38 625.528 1006.09 628.2 1006.57 630.427C1007.6 635.275 1011.13 683.794 1031.57 675.866C1037.7 673.486 1055.73 669.098 1070.15 666.886C1084.55 664.674 1146.04 659.169 1146.04 659.169L1250.05 589.828L1207.57 568.043Z" fill="#4846A5"/>
<path d="M1132.26 1061.66C1132.26 1061.66 1141.56 1195.38 1164.42 1245.85C1187.55 1296.92 1192.66 1389.69 1197.34 1407.35C1202.04 1425.08 1217 1450.55 1241.11 1456.01C1265.23 1461.48 1269.53 1443.01 1268.54 1431.89C1267.56 1420.8 1261.17 1402.83 1261.3 1390.78C1261.44 1378.76 1264.02 1373.14 1264.5 1367.61C1264.5 1367.61 1292.09 1376.96 1296.78 1352.73C1296.78 1352.73 1294.67 1345.66 1294.38 1342.04C1294.08 1338.43 1298.56 1250.3 1299.45 1239.59C1300.33 1228.91 1296.37 1170.85 1289.16 1142.1C1282 1113.54 1285.72 1052.75 1285.72 1052.75L1205.87 1039.18L1132.26 1061.66Z" fill="#24126A"/>
<path d="M1261.86 1062.21C1261.86 1062.21 1261.14 1083.1 1253.18 1100.58C1253.18 1100.58 1252.06 1171.41 1245.03 1207.1C1245.03 1207.1 1254.03 1278.65 1260.09 1301.14C1266.19 1323.74 1264.5 1367.61 1264.5 1367.61C1264.5 1367.61 1267.63 1368.95 1272.17 1369.16C1276.7 1369.37 1278.67 1282.37 1271.98 1266.91C1265.31 1251.52 1261.29 1183.11 1264.31 1162.23C1267.31 1141.46 1267.51 1081.76 1271.18 1071.23C1274.84 1060.73 1267.12 1055.05 1267.12 1055.05L1261.86 1062.21Z" fill="#160A5B"/>
<path d="M1202.26 569.153C1202.26 569.153 1178.26 588.544 1178.94 622.762L1196.58 618.702C1196.58 618.702 1191.95 580.747 1202.26 569.153Z" fill="#160A5B"/>
<path d="M1203.04 1090.79C1256.03 1093.15 1285.11 1066.72 1285.11 1066.72C1285.38 1058.26 1285.72 1052.74 1285.72 1052.74L1205.87 1039.17L1132.26 1061.66C1132.26 1061.66 1134.1 1088.13 1138.17 1121.97C1151.18 1123.68 1164.5 1087.48 1164.5 1087.48L1200.89 1090.46C1200.89 1090.46 1149.97 1088.42 1203.04 1090.79Z" fill="#160A5B"/>
<path d="M1142.5 1063.76C1142.5 1063.76 1257.04 1118.43 1314.65 1017.44C1316.29 1014.55 1317.1 1011.01 1317.07 1007.44L1316.84 983.644C1316.81 980.614 1317.25 977.621 1318.14 974.832C1320.05 968.802 1320.58 962.231 1319.67 955.814C1315.89 929.086 1305.6 856.132 1303.24 835.814C1300.36 811.007 1313.76 711.639 1333.97 668.646C1353.94 626.178 1306.77 528.467 1306.77 528.467C1306.77 528.467 1295.12 505.521 1271.28 512.836C1271.28 512.836 1293.53 531.628 1280.81 550.734C1268.02 569.949 1230.66 584.762 1230.66 584.762C1230.66 584.762 1161.37 624.681 1137.17 674.252C1137.17 674.252 1128.75 700.045 1127.6 732.774C1126.44 765.787 1128.56 844.787 1127.22 855.701C1125.88 866.652 1121.27 941.308 1121.6 944.79C1121.94 948.294 1142.5 1063.76 1142.5 1063.76Z" fill="#453C9E"/>
<path d="M1177.39 1075.08C1177.39 1075.08 1249.08 865.586 1247.18 788.463C1245.32 712.851 1144.75 939.074 1144.75 939.074L1142.5 1063.76C1142.5 1063.76 1164.21 1073.13 1177.39 1075.08Z" fill="#24126A"/>
<path d="M1144.13 825.593C1146.86 808.269 1148.56 790.835 1148.97 773.387C1149.7 742.987 1157.86 692.548 1205.65 702.14C1273.02 715.661 1242.24 823.849 1234.54 842.633C1226.79 861.52 1196.01 946.425 1194.39 951.236C1192.86 955.755 1144.94 1061 1128.06 1086.09C1126.51 1088.39 1123.85 1088.71 1122.01 1086.9C1115.4 1080.35 1100.52 1064.74 1098.67 1054.93C1096.29 1042.3 1106.56 996.624 1106.56 996.624C1106.56 996.624 1134.29 881.954 1136.57 876.61C1138.29 872.609 1139.7 853.642 1144.13 825.593Z" fill="#4846A5"/>
<path d="M1203.39 571.657C1203.39 571.657 1198.21 557.326 1185.74 555.618C1173.28 553.902 1166.24 549.748 1165.07 544.368C1163.89 538.987 1163.92 532.504 1161 524.452C1158.1 516.421 1155.81 496.753 1155.86 496.279C1155.91 495.804 1146.45 492.293 1146.05 487.423C1145.65 482.561 1150.83 465.295 1150.31 463.945C1149.79 462.594 1144.82 451.833 1145.63 443.547C1146.43 435.282 1147.52 423.302 1151.48 413.198C1155.42 403.131 1182.97 341.784 1251.69 375.272C1320.86 408.971 1266.61 475.874 1272.69 519.969C1272.69 519.969 1278.69 529.328 1267.09 544.791C1255.43 560.319 1222.49 563.101 1203.39 571.657Z" fill="#FCD1C5"/>
<path d="M1267.09 544.784C1278.69 529.321 1272.69 519.962 1272.69 519.962C1271.84 513.844 1272.19 507.266 1273.18 500.404L1245.85 505.887C1245.85 505.887 1206.27 463.448 1208.78 485.81C1211.29 508.31 1201.45 511.975 1201.45 511.975L1209.51 524.328C1211.58 527.496 1210.27 531.154 1208.49 534.556C1196.65 557.21 1168.86 549.792 1168.8 549.8C1172.24 552.493 1177.92 554.53 1185.74 555.604C1198.2 557.319 1203.38 571.643 1203.38 571.643C1222.49 563.101 1255.43 560.32 1267.09 544.784Z" fill="#E2B1A6"/>
<path d="M1148.81 389.625C1148.81 389.625 1143.74 406.065 1151.48 413.191C1159.23 420.331 1166.24 427.055 1166.24 427.055L1165.9 447.978C1165.85 450.993 1166.55 453.957 1167.92 456.505L1177.51 474.341C1179.36 477.786 1180.33 481.794 1180.29 485.89L1180.21 494.417C1180.18 496.921 1181.74 499.046 1183.83 499.36L1186.41 499.747C1188.68 500.09 1190.76 498.177 1191.04 495.468L1192.3 483.649C1192.3 483.649 1197.61 474.231 1208.78 485.81L1218.87 490.869C1221.68 492.278 1223.87 495.023 1224.88 498.454C1227.58 507.609 1233.37 525.678 1237.86 528.744C1243.94 532.891 1267.98 519.093 1271.27 512.836C1274.56 506.594 1283.36 464.58 1288.72 444.54C1294.05 424.609 1292.07 374.848 1240.82 360.962C1189.66 347.099 1156.17 371.745 1148.81 389.625Z" fill="#AA8383"/>
<path d="M1271.28 512.844C1274.57 506.602 1283.37 464.587 1288.73 444.547C1288.73 444.547 1268.6 459.52 1242.76 463.55C1216.86 467.595 1166.16 432.647 1166.16 432.647L1165.91 447.978C1165.85 450.993 1166.56 453.957 1167.93 456.505L1177.52 474.341C1179.37 477.786 1180.33 481.794 1180.3 485.89L1180.21 494.417C1180.19 496.921 1181.75 499.046 1183.84 499.36L1186.41 499.747C1188.69 500.09 1190.76 498.177 1191.05 495.468L1192.31 483.649C1192.31 483.649 1197.62 474.231 1208.78 485.81L1223.38 493.125C1223.38 493.125 1231.8 524.598 1237.88 528.737C1243.96 532.891 1267.99 519.093 1271.28 512.844Z" fill="#936D6D"/>
<path d="M1272.25 514.859C1272.25 514.859 1291.89 529.489 1281.6 549.456C1271.25 569.548 1198.56 604.16 1194.91 609.416C1194.91 609.416 1192.53 579.184 1202.26 569.153C1202.26 569.153 1257.72 557.742 1266.59 541.557C1275.41 525.445 1272.25 514.859 1272.25 514.859Z" fill="#F0F6FF"/>
<path d="M1272.25 514.859C1272.25 514.859 1275.41 525.445 1266.59 541.557C1259.88 553.8 1226.52 563.313 1210.66 567.219C1210.66 567.219 1216.47 571.183 1225.95 590.712C1248.35 577.812 1275.56 561.181 1281.6 549.456C1291.89 529.482 1272.25 514.859 1272.25 514.859Z" fill="#C4CCD6"/>
<path d="M1235.02 719.779C1252.59 785.681 1204.11 886.444 1196.92 915.836C1189.68 945.476 1116.86 1081.57 1116.84 1081.6C1118.8 1083.68 1120.6 1085.5 1122.02 1086.9C1123.86 1088.72 1126.52 1088.39 1128.06 1086.1C1144.94 1061.01 1192.86 955.763 1194.39 951.244C1196.01 946.433 1226.8 861.52 1234.54 842.64C1240.72 827.565 1261.79 754.69 1235.02 719.779Z" fill="#24126A"/>
<path d="M1284.5 579.615C1284.5 579.615 1252.04 600.305 1236.25 609.627C1220.4 618.98 1203.09 631.464 1203.09 631.464L1197.19 624.433L1189.7 642.604C1189.7 642.604 1164.8 659.257 1153.06 673.289C1141.27 687.379 1132.28 705.856 1130.98 710.083C1130.98 710.083 1162.4 664.112 1186.85 650.708L1193.43 647.021L1197.35 632.602L1203.18 639.983C1203.18 639.983 1274.5 592.106 1284.5 579.615Z" fill="#24126A"/>
<path opacity="0.2" d="M665.647 1119.58C758.39 1119.58 833.574 1069.02 833.574 1006.65C833.574 944.277 758.39 893.715 665.647 893.715C572.904 893.715 497.72 944.277 497.72 1006.65C497.72 1069.02 572.904 1119.58 665.647 1119.58Z" fill="#0B0244"/>
<path opacity="0.2" d="M1202.25 1497.47C1295 1497.47 1370.18 1446.91 1370.18 1384.54C1370.18 1322.17 1295 1271.61 1202.25 1271.61C1109.51 1271.61 1034.33 1322.17 1034.33 1384.54C1034.33 1446.91 1109.51 1497.47 1202.25 1497.47Z" fill="#0B0244"/>
<path d="M763.996 584.052C763.996 584.052 776.086 586.454 780.517 583.818C784.942 581.19 796.505 579.416 809.893 584.986C823.299 590.564 822.184 589.717 827.473 590.316C832.763 590.922 841.356 591.557 844.151 593.616C846.947 595.682 852.255 599.602 847.335 607.779C842.409 615.977 823.995 608.268 820.999 607.625C818.003 606.983 814.719 613.167 816.211 618.73C817.702 624.3 845.468 659.664 849.817 663.183C854.173 666.702 872.938 681.318 873.747 687.085C874.562 692.86 873.515 693.677 873.515 693.677C873.515 693.677 878.987 699.445 877.05 704.789C875.113 710.14 866.596 701.942 865.022 703.175C865.022 703.175 866.408 709.118 864.327 710.213C862.246 711.308 850.068 705.796 848.608 704.088C848.608 704.088 847.197 708.658 840.24 703.935C833.296 699.211 806.665 681.58 803.544 678.259C800.423 674.937 789.943 663.636 785.631 660.62C781.319 657.605 773.873 647.319 770.163 643.282C766.452 639.244 749.931 629.498 743.62 628.082C737.315 626.658 763.996 584.052 763.996 584.052Z" fill="#FCD1C5"/>
<path d="M785.211 647.969C779.094 634.952 758.58 624.877 758.58 624.877C759.965 614.284 773.04 585.045 773.04 585.045C768.514 584.95 763.989 584.052 763.989 584.052C763.989 584.052 737.308 626.658 743.62 628.075C749.931 629.491 766.459 639.237 770.163 643.275C773.873 647.312 781.313 657.598 785.631 660.613C789.949 663.629 800.429 674.93 803.544 678.252C806.665 681.581 833.296 699.212 840.24 703.928C847.191 708.651 848.607 704.081 848.607 704.081C850.074 705.789 862.246 711.294 864.327 710.206C866.407 709.111 865.022 703.169 865.022 703.169C865.022 703.169 856.467 697.511 847.661 693.904C838.868 690.312 791.347 661.022 785.211 647.969Z" fill="#E2B1A6"/>
<path d="M744.065 537.146C744.065 537.146 746.678 553.039 745.732 565.976C744.779 578.949 722.454 561.99 723.294 559.749C724.127 557.507 733.892 537.964 733.892 537.964L744.065 537.146Z" fill="#FCD1C5"/>
<path d="M646.673 146.105C646.673 146.105 659.058 145.448 674.125 174.27C688.64 202.027 714.168 301.352 727.549 339.453C728.734 342.834 729.611 346.338 730.144 349.952C734.494 379.672 754.876 519.493 755.81 536.306C755.81 536.306 740.266 548.345 730.282 551.324L708.339 542.848L686.729 289.386L651.725 155.544L646.673 146.105Z" fill="#24126A"/>
<path d="M576.501 980.102C576.501 980.102 572.308 1003.55 574.602 1008.09C576.896 1012.64 603.07 1047.09 605.84 1051.72C608.61 1056.36 622.098 1084.55 646.899 1091.44C671.737 1098.33 688.622 1096.54 691.988 1082.95C695.341 1069.41 680.769 1046.91 674.025 1039.65C667.293 1032.4 638.951 993.111 633.768 987.417C628.591 981.73 621.095 980.832 621.095 980.832L588.755 987.38L576.501 980.102Z" fill="#160A5B"/>
<path d="M676.839 909.943C676.839 909.943 701.583 921.113 714.519 924.909C727.468 928.713 758.317 955.557 757.979 969.041C757.64 982.569 742.447 991.899 727.017 990.563C711.586 989.227 693.26 977.758 690.27 974.706C687.287 971.662 676.707 964.916 664.072 960.332C651.449 955.747 631.104 953.498 627.745 945.657C624.392 937.824 623.903 921.646 623.903 921.646L676.839 909.943Z" fill="#160A5B"/>
<path d="M620.938 905.066C621.126 903.686 621.979 901.357 622.129 900.394C623.251 893.254 622.192 864.27 622.192 864.27L616.739 872.958C616.739 872.958 620.575 901.985 628.027 947.366C629.913 958.871 635.09 970.749 635.855 977.276C638.124 996.703 628.221 1000.5 628.221 1000.5C608.109 1018.13 590.929 1007.49 584.749 1001.81C578.576 996.148 576.482 987.051 567.915 954.33C559.41 921.857 552.014 853.224 553.85 836.915C555.467 822.518 559.967 782.329 559.742 754.703C559.522 727.246 541.39 639.485 541.39 639.485L616.369 622.533L667.55 591.659L706.61 598.522C706.61 598.522 711.548 579.307 716.707 639.128C721.934 699.81 690.37 807.187 690.37 807.187C682.047 860.357 679.922 921.499 675.197 929.778C670.458 938.079 651.794 957.637 634.52 942.43C631.349 939.634 627.726 936.714 625.827 933.713L620.938 905.066Z" fill="#24126A"/>
<path d="M616.739 872.958C616.739 872.958 641.396 794.776 653.085 718.996C664.573 644.538 684.479 634.061 692.752 620.694C692.752 620.694 705.212 627.352 711.812 628.659C712.614 628.819 713.335 628.9 713.93 628.878C719.427 628.673 686.365 676.624 680.424 688.918C674.469 701.256 640.28 806.764 637.905 821.328C635.517 835.937 633.091 937.714 635.861 943.555C638.638 949.403 626.397 939.153 626.397 939.153C626.397 939.153 618.864 916.645 616.739 872.958Z" fill="#160A5B"/>
<path d="M680.737 593.981L667.55 591.667L616.369 622.541L541.39 639.493C541.39 639.493 559.516 727.253 559.742 754.71C559.967 782.343 555.474 822.533 553.85 836.922C552.026 853.093 559.41 921.864 567.915 954.337C571.625 968.515 574.126 978.254 576.269 985.212C579.648 1003.69 591.637 1006.65 591.637 1006.65C591.637 1006.65 562.243 900.598 564.825 838.565C567.369 777.408 574.903 726.501 573.543 714.674C573.543 714.674 658.926 684.099 674.927 619.905C677.422 609.889 679.314 601.318 680.737 593.981Z" fill="#160A5B"/>
<path d="M532.842 159.742C532.842 159.742 526.768 165.692 525.458 171.752C524.148 177.826 516.64 199.377 516.64 199.377C516.64 199.377 480.94 254.562 474.516 271.47C468.06 288.444 465.979 301.125 465.979 301.125L560.519 436.734C560.519 436.734 527.426 569.67 536.659 618.16C545.997 667.213 558.163 685.472 573.042 690.772C587.94 696.079 667.456 657.963 672.953 609.407C678.387 561.406 676.174 555.302 676.174 555.302C676.174 555.302 713.31 566.852 715.629 555.813C717.948 544.811 710.953 465.564 709.042 454.233C707.136 442.932 701.42 317.917 701.42 317.917C701.42 317.917 678.794 202.597 677.503 196.917C676.212 191.244 662.167 147.908 644.085 145.477C626.015 143.046 603.496 176.519 603.496 176.519L532.842 159.742Z" fill="#453C9E"/>
<path d="M537.085 155.574C537.085 155.574 533.349 158.494 532.553 163.29C531.757 168.094 528.674 177.585 535.399 187.492C542.143 197.428 596.583 249.175 618.619 292.686C640.894 336.672 668.459 385.71 670.778 395.872C670.778 395.872 680.819 326.261 671.743 294.219C662.737 262.432 633.868 197.662 627.77 192.843C621.678 188.032 584.223 183.907 584.223 183.907L537.085 155.574Z" fill="#F0F6FF"/>
<path d="M593.323 225.564C593.323 225.564 590.372 231.237 589.5 235.617C589.5 235.617 573.681 226.214 567.075 222.746L591.349 242.399C591.349 242.399 592.778 232.113 593.994 230.572C593.994 230.572 607.845 242.903 609.801 248.386C611.763 253.868 637.353 328.809 637.353 328.809L650.803 354.397L654.269 348.199L632.258 278.376C632.258 278.376 619.86 256.394 619.691 255.876C619.522 255.365 611.136 231.755 611.136 231.755L593.323 225.564Z" fill="#C4CCD6"/>
<path d="M593.323 225.564C593.323 225.564 601.377 208.036 616.965 208.715C616.965 208.715 621.446 230.346 622.7 239.136C622.7 239.136 612.64 244.174 608.591 240.085C604.549 235.99 593.323 225.564 593.323 225.564Z" fill="#160A5B"/>
<path d="M620.343 234.456C620.343 234.456 660.418 292.014 674.407 361.494L671.492 397.332L650.408 353.565C650.408 353.565 615.874 253.051 607.845 234.646C599.848 216.314 620.343 234.456 620.343 234.456Z" fill="#160A5B"/>
<path d="M553.938 465.33C551.255 477.624 548.103 492.904 545.132 509.301C545.157 509.345 604.467 599.515 662.367 636.251C668.001 627.848 671.887 618.825 672.953 609.407C675.823 584.038 676.563 570.4 676.613 563.158L609.274 503.687L553.938 465.33Z" fill="#24126A"/>
<path d="M549.908 332.846C549.908 332.846 567.056 360.099 571.625 362.567C576.194 365.034 613.279 440.785 620.794 455.058C628.334 469.382 648.315 489.436 648.315 489.436L629.425 491.575L555.505 376.109L549.908 332.846Z" fill="#24126A"/>
<path d="M560.394 356.873C552.96 335.066 541.303 315.909 526.304 301.293C509.244 284.67 486.888 268.462 475.042 283.049C454.221 308.681 463.084 356.96 492.021 402.151C521.278 447.845 567.388 512.893 578.281 523.83C588.736 534.328 678.174 612.707 729.449 641.997C733.259 644.172 737.722 642.508 739.997 638.142C747.073 624.541 761.727 596.186 766.973 584.527C768.038 582.154 767.399 579.139 765.506 577.722C746.766 563.698 653.172 493.598 625.464 471.827C621.227 468.498 617.761 463.906 615.373 458.475C607.269 440.063 586.448 394.755 568.115 371.62C564.85 367.495 562.349 362.596 560.55 357.303C560.488 357.157 560.444 357.019 560.394 356.873Z" fill="#4846A5"/>
<path d="M629.224 170.058L661.966 208.612L653.517 212.029L664.304 219.33C664.304 219.33 690.496 291.394 684.786 373.022C684.786 373.022 697.791 308.835 669.619 217.84L660.9 212.701L666.786 210.525L629.224 170.058Z" fill="#24126A"/>
<path d="M536.402 149.04C536.997 150.529 537.323 152.157 537.204 153.814C536.959 157.224 536.615 162.998 536.884 165.459C537.279 169.072 557.799 209.335 599.748 209.693C599.748 209.693 604.781 200.961 605.777 199.253C605.777 199.253 622.75 198.333 629.813 191.12C636.864 183.922 632.527 171.321 632.527 171.321L633.549 156.231C633.674 154.398 634.364 152.705 635.498 151.456C636.996 149.806 638.958 147.375 639.315 145.601C639.678 143.79 638.688 140.659 637.873 138.527C637.322 137.074 637.09 135.504 637.247 133.92C637.623 130.109 637.949 121.984 635.636 111.872C634.972 108.959 634.946 105.886 635.586 102.951C636.632 98.1472 638.105 91.0365 638.281 88.5032C638.55 84.5463 632.79 74.0261 632.533 69.8867C632.276 65.7472 627.325 51.7155 627.325 51.7155C627.325 51.7155 596.144 -15.7345 545.797 13.4678C495.073 42.8818 521.516 106.01 527.784 123.904C527.784 123.904 533.838 138.468 534.904 141.71C535.794 144.418 535.148 145.893 536.402 149.04Z" fill="#FCD1C5"/>
<path d="M631.775 58.819C632.214 63.5936 630.659 68.2878 627.57 71.4782C621.477 77.7567 609.318 88.0651 593.273 90.5473C581.973 92.2922 575.806 92.9565 572.453 93.1682C570.19 93.3142 568.397 95.446 568.272 98.1107C568.04 103.009 567.62 110.471 567.025 115.486C566.787 117.501 566.279 119.443 565.533 121.283L561.961 130.116C561.071 132.314 559.134 133.643 557.097 133.46L556.27 133.387C553.995 133.183 552.171 131.146 551.864 128.474L551.82 128.094C551.03 121.188 547.552 115.004 542.243 112.084C539.56 110.617 536.514 109.952 533.481 111.405C524.8 115.559 528.404 125.378 528.404 125.378C528.404 125.378 517.868 110.646 513.118 91.0292C508.392 71.5074 509.489 36.2018 531.4 17.7386C553.211 -0.636948 581.704 -8.08353 606.015 11.8325C626.097 28.288 630.791 48.1309 631.775 58.819Z" fill="#AA8383"/>
<path d="M548.792 141.506C547.689 139.951 549.093 153.435 537.204 153.814C536.959 157.224 536.615 162.999 536.884 165.459C537.279 169.073 557.799 209.335 599.748 209.693C599.748 209.693 604.781 200.969 605.777 199.253C605.777 199.253 567.275 177.476 560.456 167.583C553.656 157.72 549.896 143.061 548.792 141.506Z" fill="#E2B1A6"/>
<path d="M616.965 208.715C616.965 208.715 628.384 210.241 633.718 213.555C633.718 213.555 635.228 206.663 632.182 199.209C632.182 199.209 635.598 202.407 635.561 218.286C635.561 218.286 618.801 211.942 617.541 211.526L616.965 208.715Z" fill="#C4CCD6"/>
<path d="M744.522 627.432C744.522 627.432 647.406 562.399 614.489 536.474C581.791 510.718 489.771 401.377 470.943 359.289C475.775 373.343 482.895 387.9 492.021 402.151C521.278 447.845 567.388 512.893 578.281 523.83C588.736 534.328 678.174 612.707 729.449 641.997C733.259 644.172 737.722 642.508 739.997 638.142C741.37 635.507 743.03 632.302 744.854 628.783C744.648 627.951 744.522 627.432 744.522 627.432Z" fill="#24126A"/>
<path d="M521.159 202.787L565.527 276.282L576.94 271.565L577.567 285.59C577.567 285.59 630.666 331.664 670.377 427.374C670.377 427.374 617.817 328.795 575.969 295.986L572.164 281.903L563.264 284.283L521.159 202.787Z" fill="#24126A"/>
<path d="M517.172 100.527C516.69 100.33 516.239 100.191 515.787 100.053C520.983 114.99 528.391 125.379 528.391 125.379C528.391 125.379 524.794 115.559 533.468 111.405C536.502 109.952 539.548 110.609 542.23 112.084C547.545 114.997 551.017 121.181 551.807 128.094L551.851 128.474C552.158 131.146 553.982 133.183 556.257 133.387L557.084 133.46C559.121 133.643 561.058 132.307 561.948 130.117L565.527 121.283C566.273 119.443 566.78 117.501 567.018 115.486C567.614 110.471 568.034 103.017 568.266 98.1108C568.266 98.1108 538.67 109.266 517.172 100.527Z" fill="#936D6D"/>
<defs>
<linearGradient id="paint0_linear_427_10437" x1="-464.049" y1="54.2347" x2="1258.68" y2="652.282" gradientUnits="userSpaceOnUse">
<stop stop-color="#AFADFD"/>
<stop offset="0.2938" stop-color="#9C9AFE"/>
<stop offset="0.5625" stop-color="#A19FFC"/>
<stop offset="0.6399" stop-color="#9794FD"/>
<stop offset="1" stop-color="#D0D0FB"/>
</linearGradient>
<linearGradient id="paint1_linear_427_10437" x1="1883.69" y1="2148.3" x2="1296.03" y2="1010.54" gradientUnits="userSpaceOnUse">
<stop stop-color="#8684FB"/>
<stop offset="0.255208" stop-color="#8784FF"/>
<stop offset="0.2938" stop-color="#625FFC"/>
<stop offset="0.6399" stop-color="#8380F4"/>
<stop offset="1" stop-color="#D0D0FB"/>
</linearGradient>
<linearGradient id="paint2_linear_427_10437" x1="1062.33" y1="978.587" x2="2353.7" y2="1451.19" gradientUnits="userSpaceOnUse">
<stop stop-color="#ADACFC"/>
<stop offset="0.2938" stop-color="#ACABFF"/>
<stop offset="0.6399" stop-color="#8581FF"/>
<stop offset="1" stop-color="#E9E9FD"/>
<stop offset="1" stop-color="#B0B0F5"/>
</linearGradient>
</defs>
</svg>
