<svg width="2322" height="2322" viewBox="0 0 2322 2322" fill="none" xmlns="http://www.w3.org/2000/svg">
<path d="M414.087 1193.73C1.59277 1431.88 1.60206 1818.01 414.11 2056.16C826.618 2294.32 1495.41 2294.32 1907.91 2056.16C2320.41 1818.01 2320.4 1431.88 1907.89 1193.73C1495.38 955.573 826.585 955.573 414.087 1193.73Z" fill="#FAFAFA"/>
<path d="M1009.41 2155.73C1119.46 2155.73 1208.68 2104.22 1208.68 2040.68C1208.68 1977.14 1119.46 1925.63 1009.41 1925.63C899.352 1925.63 810.136 1977.14 810.136 2040.68C810.136 2104.22 899.352 2155.73 1009.41 2155.73Z" fill="#E0E0E0"/>
<path d="M1343.23 2073.01C1461.27 2073.01 1556.97 2017.76 1556.97 1949.61C1556.97 1881.46 1461.27 1826.21 1343.23 1826.21C1225.19 1826.21 1129.5 1881.46 1129.5 1949.61C1129.5 2017.76 1225.19 2073.01 1343.23 2073.01Z" fill="#E0E0E0"/>
<path d="M345.532 1896.24L302.25 1921.22C302.621 1897.58 301.043 1852.82 288.504 1794.63C259.804 1661.25 201.568 1638.08 173.193 1586.16C143.379 1531.54 181.692 1498.8 217.822 1504.42C250.098 1509.39 301.228 1549.1 326.817 1631.07C360.579 1739.13 352.266 1846.97 345.532 1896.24Z" fill="#2E2AE9"/>
<path opacity="0.5" d="M345.532 1896.24L302.25 1921.22C302.621 1897.58 301.043 1852.82 288.504 1794.63C259.804 1661.25 201.568 1638.08 173.193 1586.16C143.379 1531.54 181.692 1498.8 217.822 1504.42C250.098 1509.39 301.228 1549.1 326.817 1631.07C360.579 1739.13 352.266 1846.97 345.532 1896.24Z" fill="white"/>
<path d="M320.078 1885.67C318.834 1885.5 317.975 1884.35 318.151 1883.11C341.102 1722.56 269.51 1584.23 211.344 1537.28C210.369 1536.49 210.215 1535.07 211 1534.09C211.799 1533.1 213.22 1532.96 214.2 1533.74C273.197 1581.37 345.848 1721.44 322.646 1883.75C322.47 1884.99 321.323 1885.85 320.078 1885.67Z" fill="white"/>
<path d="M323.845 1908.78L302.25 1921.22L298.721 1923.27C291.615 1890.99 272.621 1857.32 236.63 1821.24C194.416 1778.93 135.577 1739.41 145.979 1703.88C156.336 1668.36 203.844 1677.74 236.63 1698.78C267.415 1718.56 332.993 1791.52 323.845 1908.78Z" fill="#2E2AE9"/>
<path opacity="0.65" d="M323.845 1908.78L302.25 1921.22L298.721 1923.27C291.615 1890.99 272.621 1857.32 236.63 1821.24C194.416 1778.93 135.577 1739.41 145.979 1703.88C156.336 1668.36 203.844 1677.74 236.63 1698.78C267.415 1718.56 332.993 1791.52 323.845 1908.78Z" fill="white"/>
<path d="M312.332 1898.78C311.269 1898.63 310.428 1897.73 310.386 1896.62C307.372 1817.94 221.036 1716.1 179.922 1699.39C178.757 1698.92 178.199 1697.6 178.673 1696.43C179.138 1695.27 180.452 1694.7 181.631 1695.19C224.742 1712.7 311.798 1814.67 314.928 1896.44C314.979 1897.7 313.999 1898.76 312.745 1898.8C312.606 1898.81 312.471 1898.8 312.332 1898.78Z" fill="white"/>
<path d="M484.174 2136.81L858.908 1567.79L606.139 1421.85L231.406 1990.87L484.174 2136.81Z" fill="#2E2AE9"/>
<path opacity="0.2" d="M484.174 2136.81L858.908 1567.79L606.139 1421.85L231.406 1990.87L484.174 2136.81Z" fill="white"/>
<path d="M858.903 1567.79L484.174 2136.81L635.833 2049.24L909.128 1635.89L858.903 1567.79Z" fill="#2E2AE9"/>
<path opacity="0.2" d="M858.903 1567.79L484.174 2136.81L635.833 2049.24L909.128 1635.89L858.903 1567.79Z" fill="black"/>
<path d="M1538.93 333.932L1563.7 444.77L1665.49 504.329L1640.15 392.372L1538.93 333.932Z" fill="#2E2AE9"/>
<path opacity="0.2" d="M1538.93 333.932L1563.7 444.77L1665.49 504.329L1640.15 392.372L1538.93 333.932Z" fill="black"/>
<path d="M1319.49 880.549L1640.15 392.372L1538.93 333.932L1923.8 225.351L1993.91 596.615L1892.92 538.31L1572.25 1026.49L1319.49 880.549Z" fill="#2E2AE9"/>
<path opacity="0.2" d="M1319.49 880.549L1640.15 392.372L1538.93 333.932L1923.8 225.351L1993.91 596.615L1892.92 538.31L1572.25 1026.49L1319.49 880.549Z" fill="white"/>
<path d="M1892.92 538.31L1572.42 1026.48L1629.18 1091L1918.64 650.453L2019.37 708.638L1993.91 596.615L1892.92 538.31Z" fill="#2E2AE9"/>
<path opacity="0.2" d="M1892.92 538.31L1572.42 1026.48L1629.18 1091L1918.64 650.453L2019.37 708.638L1993.91 596.615L1892.92 538.31Z" fill="black"/>
<path d="M1376.25 945.538L1319.49 881.023L1572.42 1026.48L1629.18 1091L1376.25 945.538Z" fill="#2E2AE9"/>
<path opacity="0.4" d="M1376.25 945.538L1319.49 881.023L1572.42 1026.48L1629.18 1091L1376.25 945.538Z" fill="black"/>
<path opacity="0.2" d="M1918.64 650.453L1892.92 538.31L1993.91 596.615L2019.37 708.638L1918.64 650.453Z" fill="black"/>
<path d="M1527.51 1837.27C1527.51 1864.1 1527.3 1900.4 1527.44 1923.51C1527.48 1928.54 1527.51 1934.73 1527.51 1942.96C1527.55 1942.99 1527.55 1943.03 1527.51 1943.06C1523.82 1967.23 1505.95 1990.82 1473.91 2009.32C1401.47 2051.14 1284 2051.14 1211.55 2009.32C1174.2 1987.77 1156.12 1959.28 1157.32 1931.04V1930.83C1157.53 1928.44 1157.78 1925.94 1158.09 1923.34C1158.09 1923.23 1158.13 1923.13 1158.13 1923.05C1161.26 1895.58 1163.51 1868.11 1165.06 1842.33C1167.52 1801.43 1167.18 1783.42 1166.84 1761.4C1166.43 1734.23 1155.14 1712.88 1126.48 1688.79C1097.81 1664.67 1040.84 1582.3 1040.84 1582.3L1418.73 1388.06L1526.18 1728.36C1526.18 1728.35 1527.51 1810.44 1527.51 1837.27Z" fill="#FFA8A7"/>
<path d="M1421.64 1317.64C1421.64 1317.64 1414.51 1346.27 1380.74 1308.4C1346.97 1270.53 1291.73 1212.65 1233.52 1156.96C1205.61 1130.27 1093.8 1040.33 1018.78 972.361C994.884 947.706 960.923 930.44 937.582 948.38C914.241 966.319 914.171 1010.39 928.874 1032.24C941.887 1051.57 969.769 1078.42 991.058 1097.7C990.923 1098.87 990.793 1100.02 990.653 1101.19C986.627 1136.33 979.434 1175.85 976.02 1218.46C973.986 1243.83 943.392 1275.82 943.805 1301.88C952.805 1338.88 1001.98 1378.85 1036.75 1406.62C1071.52 1434.38 1086.66 1445.69 1086.27 1454.45C1085.67 1467.89 1029.36 1419.02 1004.3 1401.82C1005.7 1481.57 954.737 1491.17 954.737 1491.17C962.39 1506.52 1005.85 1540.34 1067.62 1619.42C1092 1650.64 1340.18 1445.2 1340.18 1445.2L1399.11 1407.37L1440.58 1338.75L1421.64 1317.64Z" fill="#FFA8A7"/>
<path d="M1401.03 1388.02C1377.74 1417.24 1286.3 1510.62 1358.26 1634.38C1350.52 1627.03 1346.44 1621.4 1344.79 1619.18C1334.45 1605.54 1326.36 1590.17 1320.6 1574.06C1320.38 1573.46 1320.21 1572.9 1320 1572.34C1303.65 1525.21 1309.24 1477.28 1339.72 1436.76C1363.74 1404.93 1407.46 1374.02 1413.3 1339.69C1413.51 1338.42 1413.65 1337.19 1413.72 1335.96C1414.74 1346.66 1415.94 1369.34 1401.03 1388.02Z" fill="#F28F8F"/>
<path opacity="0.5" d="M924.295 965.999C915.128 986.985 917.845 1015.86 928.87 1032.24C941.882 1051.58 969.765 1078.43 991.053 1097.71C990.946 1098.64 990.839 1099.56 990.733 1100.49C1000.12 1108.54 1010.21 1117.08 1021.28 1126.83C1047.93 1150.28 1083.18 1180.54 1109.79 1204.04C1123.11 1215.8 1186.42 1266.73 1209.38 1287.22C1174.03 1248.46 1094.65 1178.09 1054.7 1138.76C1024.54 1109.07 980.089 1067.65 965.604 1051.15C951.119 1034.66 942.667 1023.36 937.577 1017.13C919.819 995.368 923.729 970.244 924.295 965.999Z" fill="#F28F8F"/>
<path d="M992.037 1525.55C1004.55 1524.42 1020.62 1515.15 1027.11 1504.39C1036.46 1488.91 1038.23 1476.88 1035.7 1452.74C1035.06 1446.56 1033.53 1435.42 1028.88 1419.46C1020.6 1413.5 1011.98 1407.1 1004.3 1401.82C1005.69 1481.58 954.732 1491.17 954.732 1491.17C958.201 1498.13 969.031 1508.89 985.559 1525.91C987.728 1525.86 989.892 1525.75 992.037 1525.55Z" fill="#F28F8F"/>
<path d="M951.221 1203.34C949.224 1205.18 977.455 1232.37 980.423 1234.03C990.876 1239.85 1010.86 1232.6 1019.51 1225.37C1024.96 1220.81 1028.95 1214.67 1031.71 1208.11C1041.11 1185.79 1036.52 1160.33 1031.75 1136.57C1031 1132.85 1029.94 1128.68 1026.63 1126.83C1026.07 1139.25 1015.11 1144.67 1006.99 1152.13C999.245 1159.24 991.503 1166.35 983.757 1173.46C972.909 1183.42 962.065 1193.38 951.221 1203.34Z" fill="#F28F8F"/>
<path d="M1015.41 1217.97L1163.19 1367.13L990.654 1222.51L1015.41 1217.97Z" fill="#F28F8F"/>
<path d="M995.214 1345.41C1009.52 1340.79 1021.46 1329.26 1026.43 1315.06C1030.66 1302.97 1029.93 1289.77 1029.12 1276.98C1028.42 1266.1 1027.65 1255.02 1023.64 1244.88L954.505 1268.35C948.509 1279.94 943.628 1291.39 943.796 1301.88C947.464 1316.97 957.054 1332.26 970.582 1346.96C978.477 1348.3 987.593 1347.87 995.214 1345.41Z" fill="#F28F8F"/>
<path d="M976.819 1096.58C1007.2 1093.81 1023.14 1107.14 1029.93 1134.38C1032.51 1144.68 1032.77 1161.01 1029.93 1181.26C1027.09 1201.52 1007.91 1225.78 983.219 1222.14C982.824 1222.08 982.424 1222.02 982.025 1221.96C942.105 1215.47 937.582 1194.02 937.582 1159.41C937.582 1124.8 949.791 1099.05 976.819 1096.58Z" fill="#FFA8A7"/>
<path opacity="0.5" d="M1012.68 1104.61C1014.89 1106.52 1027.77 1119.14 1027.88 1154.06C1028.01 1192.25 1008.85 1200.16 987.709 1203.56C966.565 1206.96 938.046 1193.8 938.046 1174.68L938.032 1174.68C939.862 1200.37 948.347 1216.49 982.025 1221.96C982.429 1222.02 982.828 1222.08 983.223 1222.14C1007.92 1225.78 1027.1 1201.51 1029.94 1181.26C1032.78 1161.01 1032.51 1144.68 1029.94 1134.38C1026.6 1121.02 1021.04 1111.02 1012.68 1104.61Z" fill="#F28F8F"/>
<path d="M977.506 1218.29C1005.25 1215.76 1019.82 1227.94 1026.03 1252.82C1028.37 1262.23 1028.62 1277.15 1026.03 1295.65C1023.43 1314.15 1005.91 1336.31 983.353 1332.99C982.991 1332.94 982.629 1332.88 982.262 1332.82C945.797 1326.9 941.664 1307.31 941.664 1275.69C941.664 1244.07 952.819 1220.55 977.506 1218.29Z" fill="#FFA8A7"/>
<path opacity="0.5" d="M1016.18 1231.46C1020.09 1237.26 1022.93 1251.54 1020.63 1273.17C1017.62 1301.5 1011.55 1315.28 986.753 1317.06C961.062 1318.91 945.277 1307.02 942.565 1294.5C945.008 1315.12 953.701 1328.17 982.262 1332.82C982.629 1332.88 982.996 1332.94 983.353 1332.99C1005.91 1336.31 1023.43 1314.14 1026.03 1295.64C1028.62 1277.15 1028.38 1262.23 1026.03 1252.82C1023.85 1244.1 1020.62 1236.97 1016.18 1231.46Z" fill="#F28F8F"/>
<path d="M978.997 1389.97C1007.79 1387.34 1029.35 1401.03 1029.35 1425.8V1470.24C1029.35 1493.91 1008.47 1512.44 985.062 1509C984.686 1508.94 984.31 1508.89 983.929 1508.82C946.085 1502.67 946.54 1468.1 946.085 1449.95C945.63 1431.8 953.376 1392.3 978.997 1389.97Z" fill="#FFA8A7"/>
<path opacity="0.5" d="M1015.32 1397.88C1027.9 1411.05 1023 1437.85 1022.03 1464.28C1021.36 1482.61 1011.82 1497.81 986.753 1497.81C961.689 1497.81 950.464 1482.49 947.06 1467.5L947.046 1467.47C949.122 1484.78 956.358 1504.34 983.929 1508.82C984.31 1508.88 984.691 1508.94 985.062 1509C1008.47 1512.44 1029.35 1493.9 1029.35 1470.24V1425.8C1029.35 1413.58 1024.09 1404.08 1015.32 1397.88Z" fill="#F28F8F"/>
<path d="M659.769 1381.22L1279.24 911.548L1532.17 1057.48L912.537 1527.16L659.769 1381.22Z" fill="#2E2AE9"/>
<path d="M1532.17 1057.48L1588.94 1121.99L962.762 1595.26L912.537 1527.16L1532.17 1057.48Z" fill="#2E2AE9"/>
<path opacity="0.2" d="M1532.17 1057.48L1588.94 1121.99L962.762 1595.26L912.537 1527.16L1532.17 1057.48Z" fill="black"/>
<path d="M659.769 1381.23L709.993 1449.33L962.762 1595.26L912.537 1527.16L659.769 1381.23Z" fill="#2E2AE9"/>
<path opacity="0.4" d="M659.769 1381.23L709.993 1449.33L962.762 1595.26L912.537 1527.16L659.769 1381.23Z" fill="black"/>
<path d="M1526.17 1728.35C1526.17 1662.49 1530.97 1574.12 1541.86 1497.93C1552.76 1421.74 1550.66 1356.52 1547.32 1338.1C1543.99 1319.68 1543.04 1292.9 1514.61 1258.91C1501.21 1242.9 1471.82 1219.54 1447.32 1190.76C1422.59 1161.72 1399.52 1129.48 1386.44 1111.85C1373.36 1094.22 1340.88 1122.6 1342.46 1178.82C1343.75 1224.75 1375.13 1264.93 1387.26 1282.11C1402.05 1303.06 1412.56 1323.3 1413.74 1335.94C1414.74 1346.63 1415.95 1369.29 1401.03 1388.02C1377.75 1417.24 1286.3 1510.62 1358.27 1634.38V1747.93L1526.17 1728.35Z" fill="#FFA8A7"/>
<path d="M1392.31 1146.22C1392.31 1146.22 1420.22 1184.09 1429.14 1188.95C1438.05 1193.82 1440.59 1182.72 1440.59 1182.72L1440.56 1182.67C1427.74 1164.66 1403.83 1131.9 1386.43 1111.85C1388.67 1115.62 1393.78 1129.48 1392.31 1146.22Z" fill="#FFA8A7"/>
<path opacity="0.6" d="M1392.31 1146.22C1392.31 1146.22 1420.22 1184.1 1429.14 1188.95C1437.48 1193.49 1440.59 1182.72 1440.59 1182.72L1440.56 1182.67C1427.74 1164.66 1403.83 1131.9 1386.43 1111.85C1388.67 1115.62 1393.78 1129.48 1392.31 1146.22Z" fill="white"/>
<path d="M1440.59 1182.72L1440.56 1182.67C1440.59 1182.72 1437.88 1178.42 1436.41 1176.87C1437.69 1185.74 1431.25 1189.85 1431.25 1189.85C1438.59 1192 1440.59 1182.72 1440.59 1182.72Z" fill="#F28F8F"/>
<path d="M1166.55 1997.63C1158.6 1984.23 1145.39 1971.63 1126.87 1960.94C1061.99 1923.48 956.813 1923.48 891.936 1960.94C873.411 1971.63 860.199 1984.23 852.253 1997.63H843.281V2031.58H843.397C844.59 2055.17 860.738 2078.57 891.936 2096.58C956.808 2134.03 1061.99 2134.03 1126.87 2096.58C1158.06 2078.57 1174.33 2055.17 1175.52 2031.57V2031.58V1997.63H1166.55Z" fill="#2E2AE9"/>
<path opacity="0.25" d="M1166.55 1997.63C1158.6 1984.23 1145.39 1971.63 1126.87 1960.94C1061.99 1923.48 956.813 1923.48 891.936 1960.94C873.411 1971.63 860.199 1984.23 852.253 1997.63H843.281V2031.58H843.397C844.59 2055.17 860.738 2078.57 891.936 2096.58C956.808 2134.03 1061.99 2134.03 1126.87 2096.58C1158.06 2078.57 1174.33 2055.17 1175.52 2031.57V2031.58V1997.63H1166.55Z" fill="black"/>
<path opacity="0.1" d="M1009.41 1932.85C966.899 1932.85 924.379 1942.21 891.94 1960.94C873.415 1971.63 860.203 1984.23 852.262 1997.64H843.285V2031.58H843.401C844.599 2055.17 860.747 2078.57 891.94 2096.58C924.379 2115.3 966.899 2124.67 1009.41 2124.67V1932.85Z" fill="black"/>
<path opacity="0.1" d="M918.681 1948.42C909.226 1951.98 900.249 1956.15 891.945 1960.94C873.42 1971.63 860.208 1984.23 852.267 1997.64H843.29V2031.58H843.406C844.604 2055.17 860.751 2078.57 891.945 2096.58C900.249 2101.37 909.23 2105.53 918.681 2109.1V1948.42Z" fill="black"/>
<path opacity="0.5" d="M1100.13 1948.42C1109.59 1951.98 1118.56 1956.15 1126.87 1960.94C1145.39 1971.63 1158.6 1984.23 1166.54 1997.64H1175.52V2031.58V2031.57C1174.32 2055.17 1158.06 2078.56 1126.87 2096.58C1118.56 2101.37 1109.58 2105.53 1100.13 2109.1V1948.42Z" fill="#2E2AE9"/>
<path d="M891.941 1929.83C827.064 1967.28 827.073 2028.01 891.941 2065.47C948.704 2098.24 1036.32 2102.34 1100.8 2077.76L1100.81 2077.76C1101.67 2077.43 1102.53 2077.1 1103.39 2076.75C1111.64 2073.47 1119.52 2069.71 1126.87 2065.47C1180.97 2034.23 1189.96 1986.82 1153.82 1950.21C1153.81 1950.19 1153.8 1950.19 1153.8 1950.19C1146.62 1942.9 1137.64 1936.05 1126.87 1929.83C1062 1892.38 956.817 1892.37 891.941 1929.83Z" fill="#2E2AE9"/>
<path opacity="0.2" d="M891.941 1929.83C827.064 1967.28 827.073 2028.01 891.941 2065.47C948.704 2098.24 1036.32 2102.34 1100.8 2077.76L1100.81 2077.76C1101.67 2077.43 1102.53 2077.1 1103.39 2076.75C1111.64 2073.47 1119.52 2069.71 1126.87 2065.47C1180.97 2034.23 1189.96 1986.82 1153.82 1950.21C1153.81 1950.19 1153.8 1950.19 1153.8 1950.19C1146.62 1942.9 1137.64 1936.05 1126.87 1929.83C1062 1892.38 956.817 1892.37 891.941 1929.83Z" fill="black"/>
<path opacity="0.5" d="M1153.82 1950.21C1154.52 1951 1177.21 1974.94 1171.19 2009.38C1165.45 2042.35 1119.29 2070.09 1103.39 2076.76C1111.64 2073.48 1119.52 2069.72 1126.87 2065.47C1180.97 2034.23 1189.96 1986.82 1153.82 1950.21Z" fill="#F5F5F5"/>
<path opacity="0.5" d="M864.992 2045.09C864.295 2044.31 841.604 2020.37 847.618 1985.92C853.363 1952.96 899.52 1925.22 915.43 1918.55C907.173 1921.83 899.302 1925.59 891.945 1929.84C837.847 1961.07 828.857 2008.48 864.992 2045.09Z" fill="#F5F5F5"/>
<path d="M1118.66 2060.56C1178.96 2025.74 1178.96 1969.29 1118.66 1934.48C1058.35 1899.66 960.574 1899.66 900.267 1934.48C839.96 1969.29 839.96 2025.74 900.267 2060.56C960.574 2095.38 1058.35 2095.38 1118.66 2060.56Z" fill="#2E2AE9"/>
<path opacity="0.4" d="M1118.66 2060.56C1178.96 2025.74 1178.96 1969.29 1118.66 1934.48C1058.35 1899.66 960.574 1899.66 900.267 1934.48C839.96 1969.29 839.96 2025.74 900.267 2060.56C960.574 2095.38 1058.35 2095.38 1118.66 2060.56Z" fill="white"/>
<path opacity="0.2" d="M1156.87 2024.14C1169.28 2001.2 1165.24 1975.91 1144.75 1954.46C1140.96 1950.49 1136.59 1946.66 1131.66 1943C1127.85 1940.14 1123.66 1937.39 1119.16 1934.76C1116.7 1933.32 1114.17 1931.95 1111.56 1930.64C1117.97 1941.2 1115.62 1952.52 1079.25 1954.64C1008.08 1958.8 1098.27 2026.81 1098.27 2026.81C1098.27 2026.81 1144.15 2004.66 1156.87 2024.14Z" fill="white"/>
<path opacity="0.5" d="M1149.53 2005.33C1160.21 2004.13 1165.5 1993.15 1161.35 1980.8C1157.2 1968.44 1145.18 1959.4 1134.5 1960.59C1123.82 1961.79 1118.52 1972.77 1122.67 1985.13C1126.82 1997.48 1138.85 2006.52 1149.53 2005.33Z" fill="white"/>
<path d="M1036.95 2062.01C1033.45 2035.59 917.914 1962.41 917.914 1962.41C917.914 1962.41 892.293 1952.13 900.801 1934.23C896.357 1936.78 892.238 1939.44 888.448 1942.21C885.778 1944.14 883.28 1946.12 880.944 1948.16C846.55 1977.94 846.504 2017.06 880.957 2046.88C883.279 2048.91 885.792 2050.9 888.448 2052.83C891.992 2055.42 895.795 2057.9 899.905 2060.29C903.825 2062.59 907.921 2064.71 912.147 2066.7C915.514 2068.29 919.015 2069.79 922.558 2071.19C926.088 2072.58 929.701 2073.88 933.388 2075.09C944.367 2078.7 955.953 2081.45 967.856 2083.37C970.424 2083.78 973.025 2084.16 975.612 2084.5C986.966 2085.95 998.506 2086.68 1010.08 2086.66C1024.28 2086.63 1038.48 2085.48 1052.24 2083.2C1052.23 2083.19 1033.65 2079.4 1036.95 2062.01Z" fill="#2E2AE9"/>
<path opacity="0.3" d="M1036.95 2062.01C1033.45 2035.59 917.914 1962.41 917.914 1962.41C917.914 1962.41 892.293 1952.13 900.801 1934.23C896.357 1936.78 892.238 1939.44 888.448 1942.21C885.778 1944.14 883.28 1946.12 880.944 1948.16C846.55 1977.94 846.504 2017.06 880.957 2046.88C883.279 2048.91 885.792 2050.9 888.448 2052.83C891.992 2055.42 895.795 2057.9 899.905 2060.29C903.825 2062.59 907.921 2064.71 912.147 2066.7C915.514 2068.29 919.015 2069.79 922.558 2071.19C926.088 2072.58 929.701 2073.88 933.388 2075.09C944.367 2078.7 955.953 2081.45 967.856 2083.37C970.424 2083.78 973.025 2084.16 975.612 2084.5C986.966 2085.95 998.506 2086.68 1010.08 2086.66C1024.28 2086.63 1038.48 2085.48 1052.24 2083.2C1052.23 2083.19 1033.65 2079.4 1036.95 2062.01Z" fill="white"/>
<path d="M928.062 1950.55C884.965 1975.43 883.219 2015.12 922.805 2041.22C924.486 2042.32 926.25 2043.42 928.08 2044.48C973.011 2070.42 1045.83 2070.42 1090.76 2044.48C1135.69 2018.54 1135.7 1976.49 1090.77 1950.55C1088.94 1949.49 1087.04 1948.47 1085.13 1947.5C1039.93 1924.65 971.158 1925.67 928.062 1950.55Z" fill="#2E2AE9"/>
<path opacity="0.2" d="M928.062 1950.55C884.965 1975.43 883.219 2015.12 922.805 2041.22C924.486 2042.32 926.25 2043.42 928.08 2044.48C973.011 2070.42 1045.83 2070.42 1090.76 2044.48C1135.69 2018.54 1135.7 1976.49 1090.77 1950.55C1088.94 1949.49 1087.04 1948.47 1085.13 1947.5C1039.93 1924.65 971.158 1925.67 928.062 1950.55Z" fill="black"/>
<path d="M1009.47 2061C1070.2 2061 1119.44 2032.58 1119.44 1997.51C1119.44 1962.45 1070.2 1934.03 1009.47 1934.03C948.739 1934.03 899.506 1962.45 899.506 1997.51C899.506 2032.58 948.739 2061 1009.47 2061Z" fill="#2E2AE9"/>
<path opacity="0.5" d="M1009.47 2061C1070.2 2061 1119.44 2032.58 1119.44 1997.51C1119.44 1962.45 1070.2 1934.03 1009.47 1934.03C948.739 1934.03 899.506 1962.45 899.506 1997.51C899.506 2032.58 948.739 2061 1009.47 2061Z" fill="black"/>
<path d="M931.712 1970.33C974.655 1945.53 1044.28 1945.53 1087.23 1970.33C1104.79 1980.47 1115.16 1993.18 1118.36 2006.37C1115.16 2019.55 1104.79 2032.27 1087.23 2042.4C1044.29 2067.2 974.66 2067.2 931.717 2042.4C914.153 2032.27 903.783 2019.55 900.588 2006.37C903.783 1993.18 914.153 1980.47 931.712 1970.33Z" fill="#2E2AE9"/>
<path opacity="0.35" d="M931.712 1970.33C974.655 1945.53 1044.28 1945.53 1087.23 1970.33C1104.79 1980.47 1115.16 1993.18 1118.36 2006.37C1115.16 2019.55 1104.79 2032.27 1087.23 2042.4C1044.29 2067.2 974.66 2067.2 931.717 2042.4C914.153 2032.27 903.783 2019.55 900.588 2006.37C903.783 1993.18 914.153 1980.47 931.712 1970.33Z" fill="black"/>
<path d="M1078.71 2016.64C1078.7 2014.5 1078.74 2005.76 1078.72 2003.51C1078.68 1998.13 1074.99 1992.91 1066.98 1988.22C1066.89 1988.16 1066.79 1988.1 1066.7 1988.05C1051.94 1979.52 1036.68 1980.63 1023.09 1984.06C1023.05 1984.07 1023.01 1984.07 1022.97 1984.07C1017.19 1985.53 1011.7 1987.41 1006.69 1989.13C999.77 1991.53 994.09 1993.49 989.228 1994.53C989.214 1994.54 989.214 1994.54 989.2 1994.55C986.163 1995.2 983.437 1995.5 980.896 1995.34C978.468 1995.2 976.211 1994.59 974.019 1993.52C974.204 1993.39 974.372 1993.26 974.567 1993.13C975.105 1992.77 975.686 1992.42 976.294 1992.07C977.831 1991.18 979.359 1990.42 980.896 1989.78C989.46 1986.16 997.708 1986.33 1005.35 1989.23L1019.45 1975V1961.96C1006.92 1957.71 993.895 1957.26 980.896 1960.56C976.8 1961.6 972.709 1963.02 968.641 1964.8L954.542 1956.66L937.712 1966.37V1979.42L943.475 1982.75C941.826 1985.31 940.991 1987.85 941 1990.36C941.009 1992.53 941.023 2001.2 941.018 2003.38C941.004 2008.78 944.882 2013.97 953 2018.66C960.839 2023.19 968.636 2025.07 976.229 2025.35L976.243 2025.34C977.78 2025.41 979.35 2025.39 980.887 2025.32C989.688 2024.9 998.121 2022.55 1005.84 2019.93C1007.5 2019.38 1009.11 2018.82 1010.7 2018.26L996.51 2032.49V2045.54C1016.54 2053.57 1036.1 2049.75 1050.89 2043.18L1064.81 2051.22L1081.63 2041.51V2028.46L1075.86 2025.12C1077.75 2022.29 1078.73 2019.44 1078.71 2016.64ZM1043.23 2015.51C1041.94 2016.26 1040.63 2016.91 1039.33 2017.47C1029.32 2021.75 1019.01 2020.84 1011.82 2017.88C1024.99 2013.23 1035.99 2009.17 1045.37 2014.16C1044.71 2014.61 1044.01 2015.07 1043.23 2015.51Z" fill="#2E2AE9"/>
<path d="M1023.09 1984.06C1023.05 1984.07 1023.02 1984.07 1022.98 1984.07C1017.2 1985.53 1011.71 1987.41 1006.7 1989.13C999.774 1991.53 994.095 1993.49 989.232 1994.53C989.219 1994.54 989.219 1994.54 989.205 1994.55C986.167 1995.2 983.441 1995.5 980.901 1995.34C978.054 1995.17 975.44 1994.42 972.9 1992.95C967.485 1989.83 966.7 1985.25 974.571 1980.09C975.11 1979.72 975.691 1979.37 976.299 1979.02C977.836 1978.13 979.364 1977.37 980.901 1976.73C989.465 1973.11 997.712 1973.28 1005.35 1976.18L1019.45 1961.96C1006.92 1957.71 993.895 1957.26 980.901 1960.56C976.805 1961.6 972.714 1963.02 968.646 1964.8L954.546 1956.66L937.717 1966.37L951.653 1974.42C951.653 1974.42 951.611 1974.46 951.523 1974.53C937.382 1985.27 937.09 1996.42 953.005 2005.61C960.844 2010.14 968.641 2012.02 976.234 2012.3L976.248 2012.29C977.785 2012.35 979.355 2012.34 980.892 2012.27C989.692 2011.85 998.126 2009.49 1005.85 2006.88C1022 2001.48 1035.08 1995.11 1045.95 2001.39C1053.24 2005.6 1051.22 2010.89 1043.22 2015.51C1041.93 2016.25 1040.62 2016.91 1039.31 2017.46C1029.08 2021.85 1018.51 2020.79 1011.29 2017.66L996.51 2032.48C1016.54 2040.51 1036.1 2036.7 1050.89 2030.13L1064.81 2038.17L1081.64 2028.45L1067.72 2020.41C1081.71 2009.58 1083.32 1997.79 1066.98 1988.22C1066.89 1988.15 1066.79 1988.09 1066.7 1988.04C1051.95 1979.52 1036.68 1980.63 1023.09 1984.06Z" fill="#2E2AE9"/>
<g opacity="0.3">
<path d="M1023.09 1984.06C1023.05 1984.07 1023.02 1984.07 1022.98 1984.07C1017.2 1985.53 1011.71 1987.41 1006.7 1989.13C999.774 1991.53 994.095 1993.49 989.232 1994.53C989.219 1994.54 989.219 1994.54 989.205 1994.55C986.167 1995.2 983.441 1995.5 980.901 1995.34C978.054 1995.17 975.44 1994.42 972.9 1992.95C967.485 1989.83 966.7 1985.25 974.571 1980.09C975.11 1979.72 975.691 1979.37 976.299 1979.02C977.836 1978.13 979.364 1977.37 980.901 1976.73C989.465 1973.11 997.712 1973.28 1005.35 1976.18L1019.45 1961.96C1006.92 1957.71 993.895 1957.26 980.901 1960.56C976.805 1961.6 972.714 1963.02 968.646 1964.8L954.546 1956.66L937.717 1966.37L951.653 1974.42C951.653 1974.42 951.611 1974.46 951.523 1974.53C937.382 1985.27 937.09 1996.42 953.005 2005.61C960.844 2010.14 968.641 2012.02 976.234 2012.3L976.248 2012.29C977.785 2012.35 979.355 2012.34 980.892 2012.27C989.692 2011.85 998.126 2009.49 1005.85 2006.88C1022 2001.48 1035.08 1995.11 1045.95 2001.39C1053.24 2005.6 1051.22 2010.89 1043.22 2015.51C1041.93 2016.25 1040.62 2016.91 1039.31 2017.46C1029.08 2021.85 1018.51 2020.79 1011.29 2017.66L996.51 2032.48C1016.54 2040.51 1036.1 2036.7 1050.89 2030.13L1064.81 2038.17L1081.64 2028.45L1067.72 2020.41C1081.71 2009.58 1083.32 1997.79 1066.98 1988.22C1066.89 1988.15 1066.79 1988.09 1066.7 1988.04C1051.95 1979.52 1036.68 1980.63 1023.09 1984.06Z" fill="white"/>
</g>
<path opacity="0.45" d="M937.73 1966.37L954.714 1958.67L968.65 1964.79L954.551 1956.66L937.73 1966.37Z" fill="#F5F5F5"/>
<path opacity="0.45" d="M978.951 1961.09C988.025 1959.12 1002.7 1958.56 1015.12 1962.31L1005.35 1976.17L1019.45 1961.95C1004.44 1957.17 991.15 1957.49 978.951 1961.09Z" fill="#F5F5F5"/>
<path opacity="0.45" d="M1066.71 1988.04C1066.8 1988.1 1066.9 1988.15 1066.98 1988.22C1083.33 1997.79 1081.72 2009.59 1067.72 2020.42C1080.12 2006.9 1077.89 1997.48 1064.41 1989.7C1050.97 1981.94 1033.75 1982.02 1023.09 1984.05C1036.68 1980.63 1051.94 1979.52 1066.71 1988.04Z" fill="#F5F5F5"/>
<path opacity="0.45" d="M1067.73 2020.42L1078.4 2028.62L1064.82 2038.17L1081.65 2028.46L1067.73 2020.42Z" fill="#F5F5F5"/>
<path opacity="0.45" d="M1039.33 2017.46C1024.55 2024.47 1012.51 2019.81 1012.51 2019.81L996.528 2032.49L1011.31 2017.67C1018.52 2020.79 1029.09 2021.85 1039.33 2017.46Z" fill="#F5F5F5"/>
<path opacity="0.45" d="M989.205 1994.55C982.842 1997.05 973.684 1996.63 969.05 1992.64C964.187 1988.46 967.308 1983.98 974.567 1980.08C966.695 1985.25 967.48 1989.83 972.895 1992.95C975.435 1994.42 978.05 1995.17 980.896 1995.34C983.441 1995.5 986.172 1995.2 989.205 1994.55Z" fill="#F5F5F5"/>
<path opacity="0.45" d="M951.528 1974.52C950.339 1975.58 940.21 1985.02 944.678 1994.46C949.424 2004.53 964.276 2010.99 976.253 2012.29L976.239 2012.3C968.646 2012.02 960.848 2010.13 953.009 2005.61C937.094 1996.42 937.387 1985.27 951.528 1974.52Z" fill="#F5F5F5"/>
<path d="M1197.98 1949.83C1190.03 1936.42 1176.82 1923.82 1158.29 1913.13C1093.42 1875.67 988.239 1875.67 923.362 1913.13C904.837 1923.82 891.625 1936.42 883.679 1949.83H874.707V1983.77H874.823C876.016 2007.36 892.168 2030.76 923.362 2048.77C988.234 2086.22 1093.42 2086.22 1158.29 2048.77C1189.49 2030.76 1205.75 2007.36 1206.95 1983.76V1983.77V1949.83H1197.98Z" fill="#2E2AE9"/>
<path opacity="0.25" d="M1197.98 1949.83C1190.03 1936.42 1176.82 1923.82 1158.29 1913.13C1093.42 1875.67 988.239 1875.67 923.362 1913.13C904.837 1923.82 891.625 1936.42 883.679 1949.83H874.707V1983.77H874.823C876.016 2007.36 892.168 2030.76 923.362 2048.77C988.234 2086.22 1093.42 2086.22 1158.29 2048.77C1189.49 2030.76 1205.75 2007.36 1206.95 1983.76V1983.77V1949.83H1197.98Z" fill="black"/>
<path opacity="0.1" d="M1040.84 1885.04C998.325 1885.04 955.805 1894.4 923.366 1913.13C904.841 1923.83 891.629 1936.42 883.688 1949.83H874.711V1983.77H874.827C876.025 2007.37 892.173 2030.76 923.366 2048.77C955.805 2067.5 998.325 2076.86 1040.84 2076.86V1885.04Z" fill="black"/>
<path opacity="0.1" d="M950.102 1900.61C940.647 1904.17 931.67 1908.34 923.367 1913.13C904.842 1923.82 891.63 1936.42 883.688 1949.83H874.711V1983.77H874.828C876.026 2007.36 892.173 2030.76 923.367 2048.77C931.67 2053.56 940.647 2057.72 950.102 2061.29V1900.61Z" fill="black"/>
<path opacity="0.5" d="M1131.56 1900.61C1141.01 1904.17 1149.99 1908.34 1158.29 1913.13C1176.82 1923.82 1190.03 1936.42 1197.97 1949.83H1206.95V1983.77V1983.76C1205.75 2007.36 1189.49 2030.76 1158.29 2048.77C1149.99 2053.56 1141.01 2057.72 1131.56 2061.29V1900.61Z" fill="#2E2AE9"/>
<path d="M923.362 1882.02C858.485 1919.48 858.494 1980.21 923.362 2017.66C980.125 2050.43 1067.74 2054.53 1132.23 2029.95L1132.24 2029.95C1133.09 2029.62 1133.95 2029.29 1134.81 2028.95C1143.06 2025.66 1150.94 2021.9 1158.29 2017.66C1212.39 1986.42 1221.38 1939.01 1185.24 1902.4C1185.23 1902.38 1185.22 1902.38 1185.22 1902.38C1178.04 1895.09 1169.06 1888.24 1158.29 1882.02C1093.43 1844.57 988.238 1844.57 923.362 1882.02Z" fill="#2E2AE9"/>
<path opacity="0.2" d="M923.362 1882.02C858.485 1919.48 858.494 1980.21 923.362 2017.66C980.125 2050.43 1067.74 2054.53 1132.23 2029.95L1132.24 2029.95C1133.09 2029.62 1133.95 2029.29 1134.81 2028.95C1143.06 2025.66 1150.94 2021.9 1158.29 2017.66C1212.39 1986.42 1221.38 1939.01 1185.24 1902.4C1185.23 1902.38 1185.22 1902.38 1185.22 1902.38C1178.04 1895.09 1169.06 1888.24 1158.29 1882.02C1093.43 1844.57 988.238 1844.57 923.362 1882.02Z" fill="black"/>
<path opacity="0.5" d="M1185.25 1902.4C1185.94 1903.19 1208.63 1927.13 1202.62 1961.58C1196.87 1994.54 1150.72 2022.28 1134.81 2028.95C1143.07 2025.67 1150.94 2021.91 1158.3 2017.66C1212.39 1986.43 1221.39 1939.01 1185.25 1902.4Z" fill="#F5F5F5"/>
<path opacity="0.5" d="M896.417 1997.28C895.721 1996.5 873.03 1972.56 879.044 1938.11C884.789 1905.15 930.945 1877.41 946.856 1870.74C938.599 1874.02 930.727 1877.78 923.371 1882.03C869.268 1913.26 860.282 1960.67 896.417 1997.28Z" fill="#F5F5F5"/>
<path d="M1150.08 2012.76C1210.39 1977.94 1210.39 1921.49 1150.08 1886.67C1089.78 1851.86 992 1851.86 931.693 1886.67C871.386 1921.49 871.386 1977.94 931.693 2012.76C992 2047.57 1089.78 2047.57 1150.08 2012.76Z" fill="#2E2AE9"/>
<path opacity="0.4" d="M1150.08 2012.76C1210.39 1977.94 1210.39 1921.49 1150.08 1886.67C1089.78 1851.86 992 1851.86 931.693 1886.67C871.386 1921.49 871.386 1977.94 931.693 2012.76C992 2047.57 1089.78 2047.57 1150.08 2012.76Z" fill="white"/>
<path opacity="0.2" d="M1188.3 1976.34C1200.71 1953.4 1196.66 1928.11 1176.17 1906.66C1172.38 1902.69 1168.01 1898.86 1163.09 1895.2C1159.27 1892.34 1155.09 1889.59 1150.59 1886.96C1148.12 1885.52 1145.59 1884.15 1142.98 1882.84C1149.4 1893.4 1147.04 1904.71 1110.68 1906.84C1039.5 1910.99 1129.7 1979.01 1129.7 1979.01C1129.7 1979.01 1175.58 1956.86 1188.3 1976.34Z" fill="white"/>
<path opacity="0.5" d="M1180.96 1957.52C1191.64 1956.33 1196.93 1945.34 1192.78 1932.99C1188.63 1920.64 1176.6 1911.59 1165.92 1912.79C1155.24 1913.99 1149.95 1924.97 1154.1 1937.32C1158.25 1949.68 1170.27 1958.72 1180.96 1957.52Z" fill="white"/>
<path d="M1068.38 2014.21C1064.87 1987.78 949.336 1914.61 949.336 1914.61C949.336 1914.61 923.715 1904.33 932.223 1886.42C927.778 1888.97 923.659 1891.64 919.865 1894.41C917.195 1896.34 914.696 1898.31 912.36 1900.35C877.967 1930.13 877.92 1969.26 912.374 1999.08C914.696 2001.1 917.209 2003.09 919.865 2005.03C923.408 2007.61 927.212 2010.09 931.322 2012.48C935.241 2014.78 939.337 2016.91 943.563 2018.9C946.93 2020.49 950.432 2021.99 953.975 2023.38C957.505 2024.78 961.118 2026.08 964.805 2027.29C975.783 2030.89 987.366 2033.64 999.273 2035.57C1001.84 2035.98 1004.44 2036.36 1007.02 2036.69C1018.38 2038.15 1029.92 2038.88 1041.49 2038.86C1055.7 2038.83 1069.89 2037.68 1083.65 2035.4C1083.66 2035.39 1065.07 2031.59 1068.38 2014.21Z" fill="#2E2AE9"/>
<path opacity="0.3" d="M1068.38 2014.21C1064.87 1987.78 949.336 1914.61 949.336 1914.61C949.336 1914.61 923.715 1904.33 932.223 1886.42C927.778 1888.97 923.659 1891.64 919.865 1894.41C917.195 1896.34 914.696 1898.31 912.36 1900.35C877.967 1930.13 877.92 1969.26 912.374 1999.08C914.696 2001.1 917.209 2003.09 919.865 2005.03C923.408 2007.61 927.212 2010.09 931.322 2012.48C935.241 2014.78 939.337 2016.91 943.563 2018.9C946.93 2020.49 950.432 2021.99 953.975 2023.38C957.505 2024.78 961.118 2026.08 964.805 2027.29C975.783 2030.89 987.366 2033.64 999.273 2035.57C1001.84 2035.98 1004.44 2036.36 1007.02 2036.69C1018.38 2038.15 1029.92 2038.88 1041.49 2038.86C1055.7 2038.83 1069.89 2037.68 1083.65 2035.4C1083.66 2035.39 1065.07 2031.59 1068.38 2014.21Z" fill="white"/>
<path d="M959.483 1902.74C916.387 1927.62 914.641 1967.32 954.226 1993.41C955.907 1994.52 957.672 1995.62 959.502 1996.67C1004.43 2022.62 1077.25 2022.62 1122.18 1996.67C1167.11 1970.73 1167.13 1928.68 1122.19 1902.74C1120.37 1901.69 1118.47 1900.67 1116.55 1899.7C1071.35 1876.84 1002.58 1877.86 959.483 1902.74Z" fill="#2E2AE9"/>
<path opacity="0.2" d="M959.483 1902.74C916.387 1927.62 914.641 1967.32 954.226 1993.41C955.907 1994.52 957.672 1995.62 959.502 1996.67C1004.43 2022.62 1077.25 2022.62 1122.18 1996.67C1167.11 1970.73 1167.13 1928.68 1122.19 1902.74C1120.37 1901.69 1118.47 1900.67 1116.55 1899.7C1071.35 1876.84 1002.58 1877.86 959.483 1902.74Z" fill="black"/>
<path d="M963.138 1904.81C920.195 1929.61 920.195 1969.8 963.138 1994.6C1006.08 2019.39 1075.71 2019.39 1118.66 1994.6C1161.6 1969.8 1161.6 1929.61 1118.66 1904.81C1075.71 1880.02 1006.08 1880.02 963.138 1904.81Z" fill="#2E2AE9"/>
<path opacity="0.5" d="M963.138 1904.81C920.195 1929.61 920.195 1969.8 963.138 1994.6C1006.08 2019.39 1075.71 2019.39 1118.66 1994.6C1161.6 1969.8 1161.6 1929.61 1118.66 1904.81C1075.71 1880.02 1006.08 1880.02 963.138 1904.81Z" fill="black"/>
<path d="M963.138 1922.52C1006.08 1897.73 1075.71 1897.73 1118.66 1922.52C1136.22 1932.66 1146.59 1945.38 1149.78 1958.56C1146.59 1971.75 1136.22 1984.46 1118.66 1994.6C1075.71 2019.39 1006.09 2019.39 963.138 1994.6C945.574 1984.46 935.204 1971.74 932.009 1958.56C935.209 1945.38 945.579 1932.66 963.138 1922.52Z" fill="#2E2AE9"/>
<path opacity="0.35" d="M963.138 1922.52C1006.08 1897.73 1075.71 1897.73 1118.66 1922.52C1136.22 1932.66 1146.59 1945.38 1149.78 1958.56C1146.59 1971.75 1136.22 1984.46 1118.66 1994.6C1075.71 2019.39 1006.09 2019.39 963.138 1994.6C945.574 1984.46 935.204 1971.74 932.009 1958.56C935.209 1945.38 945.579 1932.66 963.138 1922.52Z" fill="black"/>
<path d="M1110.14 1968.83C1110.13 1966.69 1110.17 1957.96 1110.15 1955.71C1110.11 1950.33 1106.42 1945.11 1098.41 1940.42C1098.32 1940.35 1098.22 1940.29 1098.13 1940.24C1083.36 1931.71 1068.11 1932.83 1054.51 1936.25C1054.47 1936.26 1054.44 1936.26 1054.4 1936.27C1048.62 1937.73 1043.13 1939.6 1038.12 1941.32C1031.2 1943.73 1025.52 1945.68 1020.65 1946.73C1020.64 1946.74 1020.64 1946.74 1020.63 1946.75C1017.59 1947.39 1014.86 1947.69 1012.32 1947.54C1009.89 1947.39 1007.64 1946.79 1005.44 1945.71C1005.63 1945.59 1005.8 1945.46 1005.99 1945.33C1006.53 1944.97 1007.11 1944.62 1007.72 1944.27C1009.26 1943.38 1010.79 1942.62 1012.32 1941.98C1020.89 1938.35 1029.13 1938.52 1036.77 1941.42L1050.87 1927.2V1914.15C1038.34 1909.9 1025.32 1909.46 1012.32 1912.75C1008.23 1913.79 1004.14 1915.22 1000.07 1916.99L985.968 1908.85L969.143 1918.57V1931.62L974.906 1934.95C973.257 1937.5 972.421 1940.05 972.431 1942.56C972.44 1944.73 972.454 1953.4 972.449 1955.58C972.435 1960.98 976.313 1966.17 984.431 1970.86C992.27 1975.39 1000.07 1977.27 1007.66 1977.55L1007.67 1977.54C1009.21 1977.6 1010.78 1977.59 1012.32 1977.52C1021.12 1977.1 1029.56 1974.75 1037.28 1972.13C1038.93 1971.57 1040.54 1971.01 1042.14 1970.45L1027.94 1984.68V1997.73C1047.98 2005.76 1067.54 2001.95 1082.32 1995.38L1096.24 2003.42L1113.06 1993.7V1980.65L1107.29 1977.32C1109.18 1974.48 1110.15 1971.63 1110.14 1968.83ZM1074.65 1967.71C1073.36 1968.46 1072.05 1969.11 1070.75 1969.66C1060.75 1973.95 1050.44 1973.03 1043.24 1970.07C1056.41 1965.43 1067.41 1961.36 1076.79 1966.35C1076.13 1966.8 1075.43 1967.26 1074.65 1967.71Z" fill="#2E2AE9"/>
<path d="M1054.52 1936.25C1054.48 1936.26 1054.44 1936.26 1054.4 1936.26C1048.62 1937.72 1043.14 1939.6 1038.12 1941.32C1031.2 1943.72 1025.52 1945.68 1020.66 1946.72C1020.64 1946.73 1020.64 1946.73 1020.63 1946.74C1017.6 1947.39 1014.87 1947.69 1012.33 1947.53C1009.48 1947.36 1006.87 1946.61 1004.33 1945.14C998.911 1942.02 998.126 1937.44 1005.99 1932.28C1006.53 1931.91 1007.11 1931.57 1007.72 1931.21C1009.26 1930.33 1010.79 1929.56 1012.32 1928.92C1020.89 1925.3 1029.13 1925.47 1036.77 1928.37L1050.87 1914.15C1038.34 1909.9 1025.32 1909.45 1012.32 1912.75C1008.23 1913.79 1004.14 1915.21 1000.07 1916.99L985.968 1908.85L969.143 1918.56L983.079 1926.61C983.079 1926.61 983.037 1926.65 982.949 1926.72C968.808 1937.46 968.516 1948.61 984.431 1957.8C992.27 1962.33 1000.07 1964.21 1007.66 1964.49L1007.67 1964.48C1009.21 1964.55 1010.78 1964.53 1012.32 1964.46C1021.12 1964.04 1029.55 1961.68 1037.27 1959.07C1053.42 1953.67 1066.5 1947.31 1077.38 1953.58C1084.67 1957.79 1082.65 1963.08 1074.64 1967.7C1073.35 1968.45 1072.04 1969.1 1070.74 1969.66C1060.5 1974.04 1049.93 1972.98 1042.72 1969.85L1027.94 1984.67C1047.97 1992.7 1067.53 1988.89 1082.31 1982.32L1096.23 1990.36L1113.06 1980.64L1099.13 1972.6C1113.13 1961.77 1114.74 1949.98 1098.39 1940.41C1098.31 1940.34 1098.2 1940.28 1098.12 1940.23C1083.37 1931.71 1068.11 1932.83 1054.52 1936.25Z" fill="#2E2AE9"/>
<g opacity="0.3">
<path d="M1054.52 1936.25C1054.48 1936.26 1054.44 1936.26 1054.4 1936.26C1048.62 1937.72 1043.14 1939.6 1038.12 1941.32C1031.2 1943.72 1025.52 1945.68 1020.66 1946.72C1020.64 1946.73 1020.64 1946.73 1020.63 1946.74C1017.6 1947.39 1014.87 1947.69 1012.33 1947.53C1009.48 1947.36 1006.87 1946.61 1004.33 1945.14C998.911 1942.02 998.126 1937.44 1005.99 1932.28C1006.53 1931.91 1007.11 1931.57 1007.72 1931.21C1009.26 1930.33 1010.79 1929.56 1012.32 1928.92C1020.89 1925.3 1029.13 1925.47 1036.77 1928.37L1050.87 1914.15C1038.34 1909.9 1025.32 1909.45 1012.32 1912.75C1008.23 1913.79 1004.14 1915.21 1000.07 1916.99L985.968 1908.85L969.143 1918.56L983.079 1926.61C983.079 1926.61 983.037 1926.65 982.949 1926.72C968.808 1937.46 968.516 1948.61 984.431 1957.8C992.27 1962.33 1000.07 1964.21 1007.66 1964.49L1007.67 1964.48C1009.21 1964.55 1010.78 1964.53 1012.32 1964.46C1021.12 1964.04 1029.55 1961.68 1037.27 1959.07C1053.42 1953.67 1066.5 1947.31 1077.38 1953.58C1084.67 1957.79 1082.65 1963.08 1074.64 1967.7C1073.35 1968.45 1072.04 1969.1 1070.74 1969.66C1060.5 1974.04 1049.93 1972.98 1042.72 1969.85L1027.94 1984.67C1047.97 1992.7 1067.53 1988.89 1082.31 1982.32L1096.23 1990.36L1113.06 1980.64L1099.13 1972.6C1113.13 1961.77 1114.74 1949.98 1098.39 1940.41C1098.31 1940.34 1098.2 1940.28 1098.12 1940.23C1083.37 1931.71 1068.11 1932.83 1054.52 1936.25Z" fill="white"/>
</g>
<path opacity="0.45" d="M969.152 1918.56L986.14 1910.86L1000.08 1916.99L985.977 1908.85L969.152 1918.56Z" fill="#F5F5F5"/>
<path opacity="0.45" d="M1010.38 1913.28C1019.45 1911.32 1034.13 1910.76 1046.54 1914.5L1036.78 1928.37L1050.88 1914.15C1035.87 1909.36 1022.57 1909.69 1010.38 1913.28Z" fill="#F5F5F5"/>
<path opacity="0.45" d="M1098.13 1940.24C1098.22 1940.29 1098.32 1940.35 1098.41 1940.42C1114.76 1949.99 1113.14 1961.78 1099.15 1972.61C1111.55 1959.1 1109.31 1949.68 1095.84 1941.9C1082.39 1934.14 1065.17 1934.22 1054.51 1936.25C1068.11 1932.83 1083.37 1931.71 1098.13 1940.24Z" fill="#F5F5F5"/>
<path opacity="0.45" d="M1099.15 1972.61L1109.82 1980.81L1096.25 1990.37L1113.07 1980.65L1099.15 1972.61Z" fill="#F5F5F5"/>
<path opacity="0.45" d="M1070.75 1969.66C1055.97 1976.67 1043.93 1972 1043.93 1972L1027.95 1984.68L1042.73 1969.86C1049.94 1972.99 1060.51 1974.04 1070.75 1969.66Z" fill="#F5F5F5"/>
<path opacity="0.45" d="M1020.63 1946.74C1014.27 1949.24 1005.11 1948.81 1000.48 1944.83C995.618 1940.64 998.739 1936.16 1006 1932.27C998.126 1937.44 998.911 1942.01 1004.33 1945.14C1006.87 1946.61 1009.49 1947.36 1012.33 1947.53C1014.87 1947.69 1017.6 1947.39 1020.63 1946.74Z" fill="#F5F5F5"/>
<path opacity="0.45" d="M982.954 1926.72C981.765 1927.77 971.636 1937.21 976.104 1946.65C980.85 1956.72 995.697 1963.18 1007.68 1964.48L1007.66 1964.49C1000.07 1964.21 992.274 1962.33 984.435 1957.8C968.52 1948.61 968.813 1937.46 982.954 1926.72Z" fill="#F5F5F5"/>
<path d="M1160.25 1893.92C1152.31 1880.52 1139.09 1867.92 1120.57 1857.23C1055.7 1819.77 950.52 1819.77 885.643 1857.23C867.118 1867.92 853.906 1880.52 845.96 1893.92H836.988V1927.86H837.104C838.298 1951.46 854.45 1974.85 885.643 1992.86C950.515 2030.31 1055.7 2030.31 1120.57 1992.86C1151.77 1974.85 1168.04 1951.46 1169.23 1927.86V1893.92L1160.25 1893.92Z" fill="#2E2AE9"/>
<path opacity="0.25" d="M1160.25 1893.92C1152.31 1880.52 1139.09 1867.92 1120.57 1857.23C1055.7 1819.77 950.52 1819.77 885.643 1857.23C867.118 1867.92 853.906 1880.52 845.96 1893.92H836.988V1927.86H837.104C838.298 1951.46 854.45 1974.85 885.643 1992.86C950.515 2030.31 1055.7 2030.31 1120.57 1992.86C1151.77 1974.85 1168.04 1951.46 1169.23 1927.86V1893.92L1160.25 1893.92Z" fill="black"/>
<path opacity="0.1" d="M1003.11 1829.14C960.597 1829.14 918.077 1838.5 885.639 1857.23C867.114 1867.92 853.901 1880.52 845.956 1893.93H836.979V1927.86H837.095C838.293 1951.46 854.44 1974.85 885.634 1992.86C918.072 2011.59 960.593 2020.95 1003.11 2020.95L1003.11 1829.14Z" fill="black"/>
<path opacity="0.1" d="M912.379 1844.71C902.924 1848.27 893.947 1852.44 885.643 1857.23C867.118 1867.92 853.906 1880.52 845.96 1893.93H836.983V1927.86H837.099C838.298 1951.46 854.445 1974.85 885.639 1992.86C893.942 1997.65 902.919 2001.81 912.374 2005.39V1844.71H912.379Z" fill="black"/>
<path opacity="0.5" d="M1093.83 1844.71C1103.29 1848.27 1112.27 1852.44 1120.57 1857.23C1139.09 1867.92 1152.31 1880.52 1160.25 1893.93H1169.22V1927.86C1168.03 1951.46 1151.76 1974.85 1120.57 1992.87C1112.27 1997.66 1103.28 2001.82 1093.83 2005.39V1844.71Z" fill="#2E2AE9"/>
<path d="M885.639 1826.12C820.762 1863.58 820.771 1924.31 885.639 1961.76C942.402 1994.53 1030.02 1998.63 1094.5 1974.05L1094.51 1974.05C1095.37 1973.72 1096.23 1973.39 1097.08 1973.04C1105.34 1969.76 1113.21 1966 1120.57 1961.76C1174.67 1930.52 1183.66 1883.11 1147.52 1846.5C1147.51 1846.48 1147.5 1846.48 1147.5 1846.48C1140.32 1839.19 1131.34 1832.34 1120.57 1826.12C1055.7 1788.67 950.515 1788.67 885.639 1826.12Z" fill="#2E2AE9"/>
<path opacity="0.2" d="M885.639 1826.12C820.762 1863.58 820.771 1924.31 885.639 1961.76C942.402 1994.53 1030.02 1998.63 1094.5 1974.05L1094.51 1974.05C1095.37 1973.72 1096.23 1973.39 1097.08 1973.04C1105.34 1969.76 1113.21 1966 1120.57 1961.76C1174.67 1930.52 1183.66 1883.11 1147.52 1846.5C1147.51 1846.48 1147.5 1846.48 1147.5 1846.48C1140.32 1839.19 1131.34 1832.34 1120.57 1826.12C1055.7 1788.67 950.515 1788.67 885.639 1826.12Z" fill="black"/>
<path opacity="0.5" d="M1147.52 1846.5C1148.22 1847.28 1170.91 1871.22 1164.89 1905.67C1159.15 1938.64 1112.99 1966.38 1097.08 1973.04C1105.34 1969.76 1113.21 1966 1120.57 1961.75C1174.67 1930.52 1183.66 1883.11 1147.52 1846.5Z" fill="#F5F5F5"/>
<path opacity="0.5" d="M858.694 1941.38C857.998 1940.6 835.307 1916.66 841.321 1882.21C847.066 1849.25 893.222 1821.5 909.133 1814.83C900.876 1818.12 893.004 1821.87 885.648 1826.12C831.545 1857.36 822.555 1904.77 858.694 1941.38Z" fill="#F5F5F5"/>
<path d="M1003.17 1982.96C1088.45 1982.96 1157.59 1943.05 1157.59 1893.81C1157.59 1844.57 1088.45 1804.65 1003.17 1804.65C917.884 1804.65 848.747 1844.57 848.747 1893.81C848.747 1943.05 917.884 1982.96 1003.17 1982.96Z" fill="#2E2AE9"/>
<path opacity="0.4" d="M1003.17 1982.96C1088.45 1982.96 1157.59 1943.05 1157.59 1893.81C1157.59 1844.57 1088.45 1804.65 1003.17 1804.65C917.884 1804.65 848.747 1844.57 848.747 1893.81C848.747 1943.05 917.884 1982.96 1003.17 1982.96Z" fill="white"/>
<path opacity="0.2" d="M855.759 1920.44C843.346 1897.5 847.395 1872.21 867.885 1850.75C871.674 1846.79 876.044 1842.96 880.967 1839.3C884.784 1836.44 888.968 1833.69 893.469 1831.06C895.934 1829.62 898.461 1828.25 901.075 1826.94C894.657 1837.5 897.012 1848.81 933.379 1850.94C1004.55 1855.09 914.357 1923.11 914.357 1923.11C914.357 1923.11 868.479 1900.96 855.759 1920.44Z" fill="white"/>
<path opacity="0.5" d="M863.101 1901.62C852.42 1900.43 847.126 1889.44 851.278 1877.09C855.43 1864.74 867.453 1855.69 878.134 1856.89C888.815 1858.09 894.109 1869.07 889.958 1881.42C885.806 1893.77 873.783 1902.82 863.101 1901.62Z" fill="white"/>
<path d="M975.681 1958.31C979.188 1931.88 1094.72 1858.71 1094.72 1858.71C1094.72 1858.71 1120.34 1848.43 1111.83 1830.52C1116.28 1833.07 1120.4 1835.74 1124.19 1838.51C1126.86 1840.44 1129.36 1842.41 1131.7 1844.45C1166.09 1874.23 1166.14 1913.36 1131.69 1943.17C1129.37 1945.2 1126.85 1947.19 1124.2 1949.12C1120.65 1951.71 1116.85 1954.19 1112.74 1956.58C1108.82 1958.88 1104.72 1961 1100.5 1962.99C1097.13 1964.58 1093.63 1966.08 1090.09 1967.48C1086.56 1968.88 1082.94 1970.17 1079.26 1971.38C1068.28 1974.99 1056.7 1977.74 1044.79 1979.66C1042.22 1980.08 1039.62 1980.45 1037.04 1980.79C1025.68 1982.24 1014.14 1982.97 1002.57 1982.95C988.369 1982.92 974.172 1981.77 960.407 1979.49C960.407 1979.49 978.983 1975.69 975.681 1958.31Z" fill="#2E2AE9"/>
<path opacity="0.3" d="M975.681 1958.31C979.188 1931.88 1094.72 1858.71 1094.72 1858.71C1094.72 1858.71 1120.34 1848.43 1111.83 1830.52C1116.28 1833.07 1120.4 1835.74 1124.19 1838.51C1126.86 1840.44 1129.36 1842.41 1131.7 1844.45C1166.09 1874.23 1166.14 1913.36 1131.69 1943.17C1129.37 1945.2 1126.85 1947.19 1124.2 1949.12C1120.65 1951.71 1116.85 1954.19 1112.74 1956.58C1108.82 1958.88 1104.72 1961 1100.5 1962.99C1097.13 1964.58 1093.63 1966.08 1090.09 1967.48C1086.56 1968.88 1082.94 1970.17 1079.26 1971.38C1068.28 1974.99 1056.7 1977.74 1044.79 1979.66C1042.22 1980.08 1039.62 1980.45 1037.04 1980.79C1025.68 1982.24 1014.14 1982.97 1002.57 1982.95C988.369 1982.92 974.172 1981.77 960.407 1979.49C960.407 1979.49 978.983 1975.69 975.681 1958.31Z" fill="white"/>
<path d="M1084.57 1846.84C1127.67 1871.72 1129.41 1911.42 1089.83 1937.51C1088.14 1938.62 1086.38 1939.71 1084.55 1940.77C1039.62 1966.71 966.802 1966.71 921.871 1940.77C876.94 1914.83 876.926 1872.78 921.853 1846.84C923.682 1845.79 925.582 1844.76 927.5 1843.79C972.704 1820.94 1041.47 1821.96 1084.57 1846.84Z" fill="#2E2AE9"/>
<path opacity="0.2" d="M1084.57 1846.84C1127.67 1871.72 1129.41 1911.42 1089.83 1937.51C1088.14 1938.62 1086.38 1939.71 1084.55 1940.77C1039.62 1966.71 966.802 1966.71 921.871 1940.77C876.94 1914.83 876.926 1872.78 921.853 1846.84C923.682 1845.79 925.582 1844.76 927.5 1843.79C972.704 1820.94 1041.47 1821.96 1084.57 1846.84Z" fill="black"/>
<path d="M1080.92 1848.91C1123.86 1873.7 1123.86 1913.9 1080.92 1938.7C1037.98 1963.49 968.348 1963.49 925.401 1938.7C882.458 1913.9 882.458 1873.7 925.401 1848.91C968.348 1824.12 1037.98 1824.12 1080.92 1848.91Z" fill="#2E2AE9"/>
<path opacity="0.5" d="M1080.92 1848.91C1123.86 1873.7 1123.86 1913.9 1080.92 1938.7C1037.98 1963.49 968.348 1963.49 925.401 1938.7C882.458 1913.9 882.458 1873.7 925.401 1848.91C968.348 1824.12 1037.98 1824.12 1080.92 1848.91Z" fill="black"/>
<path d="M1080.92 1866.62C1037.98 1841.83 968.348 1841.83 925.401 1866.62C907.837 1876.76 897.472 1889.48 894.272 1902.66C897.472 1915.84 907.842 1928.56 925.401 1938.7C968.344 1963.49 1037.97 1963.49 1080.91 1938.7C1098.48 1928.56 1108.85 1915.84 1112.04 1902.66C1108.85 1889.48 1098.48 1876.76 1080.92 1866.62Z" fill="#2E2AE9"/>
<path opacity="0.35" d="M1080.92 1866.62C1037.98 1841.83 968.348 1841.83 925.401 1866.62C907.837 1876.76 897.472 1889.48 894.272 1902.66C897.472 1915.84 907.842 1928.56 925.401 1938.7C968.344 1963.49 1037.97 1963.49 1080.91 1938.7C1098.48 1928.56 1108.85 1915.84 1112.04 1902.66C1108.85 1889.48 1098.48 1876.76 1080.92 1866.62Z" fill="black"/>
<path d="M856.382 1877.04L860.57 1845.26L864.759 1877.04L919.8 1879.46L864.759 1881.87L860.57 1913.65L856.382 1881.87L801.336 1879.46L856.382 1877.04Z" fill="white"/>
<g opacity="0.3">
<path d="M1851.9 1941.57C1851.66 1941.57 1851.42 1941.51 1851.21 1941.39L1761.28 1889.47C1760.86 1889.22 1760.59 1888.77 1760.59 1888.27C1760.59 1887.77 1760.86 1887.32 1761.28 1887.07L1873.7 1822.17C1874.13 1821.92 1874.65 1821.92 1875.08 1822.17L1965.01 1874.09C1965.43 1874.34 1965.69 1874.79 1965.69 1875.29C1965.69 1875.79 1965.43 1876.24 1965.01 1876.49L1852.6 1941.39C1852.38 1941.51 1852.14 1941.57 1851.9 1941.57ZM1764.74 1888.27L1851.9 1938.6L1961.54 1875.29L1874.38 1824.97L1764.74 1888.27Z" fill="#2E2AE9"/>
</g>
<path d="M1851.9 1927.21L1851.89 1461.76L1784.45 1422.82L1784.46 1888.27L1851.9 1927.21Z" fill="#2E2AE9"/>
<path opacity="0.2" d="M1851.9 1927.21L1851.89 1461.76L1784.45 1422.82L1784.46 1888.27L1851.9 1927.21Z" fill="black"/>
<path d="M1851.9 1927.21L1941.83 1875.29L1941.84 1409.85L1851.89 1461.76L1851.9 1927.21Z" fill="#2E2AE9"/>
<path d="M1941.84 1409.85L1874.4 1370.91L1784.45 1422.82L1851.89 1461.76L1941.84 1409.85Z" fill="#2E2AE9"/>
<path opacity="0.25" d="M1941.84 1409.85L1874.4 1370.91L1784.45 1422.82L1851.89 1461.76L1941.84 1409.85Z" fill="white"/>
<path opacity="0.3" d="M1941.84 1409.85L1851 1459.92L1821.5 1443.46L1784.44 1422.82L1820.84 1444.6L1850.67 1462.41C1849.97 1472.53 1849.77 1886.07 1849.91 1896.2C1850.06 1906.54 1850.55 1916.88 1851.9 1927.21C1853.24 1916.88 1853.72 1906.53 1853.87 1896.19C1854 1886.39 1853.81 1473.18 1853.16 1463.38L1941.84 1409.85Z" fill="white"/>
<g opacity="0.3">
<path d="M1683.29 2038.92C1683.06 2038.92 1682.81 2038.86 1682.6 2038.74L1592.67 1986.82C1592.25 1986.57 1591.99 1986.12 1591.99 1985.62C1591.99 1985.13 1592.25 1984.67 1592.67 1984.42L1705.09 1919.53C1705.52 1919.28 1706.04 1919.28 1706.47 1919.53L1796.4 1971.45C1796.82 1971.69 1797.09 1972.15 1797.09 1972.65C1797.09 1973.14 1796.82 1973.6 1796.4 1973.84L1683.99 2038.74C1683.77 2038.86 1683.53 2038.92 1683.29 2038.92ZM1596.13 1985.62L1683.29 2035.94L1792.93 1972.64L1705.77 1922.32L1596.13 1985.62Z" fill="#2E2AE9"/>
</g>
<path d="M1683.29 2024.56L1683.28 1745.3L1615.83 1706.36L1615.85 1985.62L1683.29 2024.56Z" fill="#2E2AE9"/>
<path opacity="0.1" d="M1683.29 2024.56L1683.28 1745.3L1615.83 1706.36L1615.85 1985.62L1683.29 2024.56Z" fill="white"/>
<path d="M1683.29 2024.56L1773.22 1972.64L1773.23 1693.39L1683.28 1745.3L1683.29 2024.56Z" fill="#2E2AE9"/>
<path opacity="0.3" d="M1683.29 2024.56L1773.22 1972.64L1773.23 1693.39L1683.28 1745.3L1683.29 2024.56Z" fill="white"/>
<path d="M1773.23 1693.39L1705.78 1654.45L1615.83 1706.36L1683.28 1745.3L1773.23 1693.39Z" fill="#2E2AE9"/>
<path opacity="0.55" d="M1773.23 1693.39L1705.78 1654.45L1615.83 1706.36L1683.28 1745.3L1773.23 1693.39Z" fill="white"/>
<path opacity="0.3" d="M1684.48 1746.96L1773.23 1693.39L1682.37 1743.47C1672.58 1737.92 1662.73 1732.47 1652.89 1727L1615.83 1706.36L1652.23 1728.14C1662.18 1734.1 1672.11 1740.07 1682.11 1745.95C1681.79 1756.45 1681.47 1807.1 1681.37 1817.6C1681.26 1828.31 1681.22 1949.57 1681.3 1960.28C1681.36 1970.99 1681.54 1981.71 1681.9 1992.42C1682.17 2003.13 1682.6 2013.85 1683.29 2024.56C1683.98 2013.85 1684.41 2003.13 1684.68 1992.42C1685.03 1981.71 1685.21 1970.99 1685.27 1960.28C1685.35 1949.57 1685.3 1828.31 1685.19 1817.6C1685.09 1807.44 1684.78 1757.12 1684.48 1746.96Z" fill="white"/>
<g opacity="0.3">
<path d="M1514.68 2136.27C1514.44 2136.27 1514.2 2136.21 1513.99 2136.09L1424.06 2084.17C1423.63 2083.92 1423.37 2083.47 1423.37 2082.97C1423.37 2082.47 1423.63 2082.02 1424.06 2081.77L1536.47 2016.87C1536.9 2016.62 1537.42 2016.62 1537.86 2016.87L1627.78 2068.79C1628.21 2069.04 1628.47 2069.49 1628.47 2069.99C1628.47 2070.49 1628.21 2070.94 1627.78 2071.19L1515.37 2136.09C1515.16 2136.21 1514.91 2136.27 1514.68 2136.27ZM1427.52 2082.97L1514.68 2133.3L1624.32 2069.99L1537.16 2019.67L1427.52 2082.97Z" fill="#2E2AE9"/>
</g>
<path d="M1514.68 2121.91L1514.66 2023.77L1447.22 1984.83L1447.23 2082.97L1514.68 2121.91Z" fill="#2E2AE9"/>
<path opacity="0.45" d="M1514.68 2121.91L1514.66 2023.77L1447.22 1984.83L1447.23 2082.97L1514.68 2121.91Z" fill="black"/>
<path d="M1514.68 2121.91L1604.6 2069.99L1604.62 1971.86L1514.66 2023.77L1514.68 2121.91Z" fill="#2E2AE9"/>
<path opacity="0.3" d="M1514.68 2121.91L1604.6 2069.99L1604.62 1971.86L1514.66 2023.77L1514.68 2121.91Z" fill="black"/>
<path d="M1604.62 1971.86L1537.17 1932.92L1447.22 1984.83L1514.66 2023.77L1604.62 1971.86Z" fill="#2E2AE9"/>
<path opacity="0.15" d="M1604.62 1971.86L1537.17 1932.92L1447.22 1984.83L1514.66 2023.77L1604.62 1971.86Z" fill="black"/>
<path opacity="0.3" d="M1604.62 1971.86L1513.78 2021.93L1484.27 2005.47L1447.22 1984.83L1483.61 2006.61L1513.43 2024.4C1512.74 2030.57 1512.55 2096.63 1512.69 2102.79C1512.84 2109.17 1513.33 2115.54 1514.68 2121.91C1516.02 2115.54 1516.5 2109.17 1516.65 2102.79C1516.78 2096.94 1516.6 2031.2 1515.99 2025.36L1604.62 1971.86Z" fill="white"/>
<g opacity="0.3">
<path d="M2020.52 1844.23C2020.28 1844.23 2020.04 1844.16 2019.82 1844.04L1929.9 1792.12C1929.47 1791.87 1929.21 1791.42 1929.21 1790.92C1929.21 1790.42 1929.47 1789.97 1929.9 1789.72L2042.31 1724.82C2042.74 1724.58 2043.26 1724.58 2043.69 1724.82L2133.62 1776.74C2134.05 1776.99 2134.31 1777.44 2134.31 1777.94C2134.31 1778.44 2134.05 1778.89 2133.62 1779.14L2021.21 1844.04C2020.99 1844.16 2020.75 1844.23 2020.52 1844.23ZM1933.36 1790.93L2020.52 1841.25L2130.16 1777.95L2043 1727.62L1933.36 1790.93Z" fill="#2E2AE9"/>
</g>
<path d="M2020.52 1829.87L2020.5 1185.56L1953.06 1146.62L1953.07 1790.93L2020.52 1829.87Z" fill="#2E2AE9"/>
<path opacity="0.3" d="M2020.52 1829.87L2020.5 1185.56L1953.06 1146.62L1953.07 1790.93L2020.52 1829.87Z" fill="white"/>
<path d="M2020.52 1829.87L2110.44 1777.95L2110.46 1133.64L2020.5 1185.56L2020.52 1829.87Z" fill="#2E2AE9"/>
<path opacity="0.55" d="M2020.52 1829.87L2110.44 1777.95L2110.46 1133.64L2020.5 1185.56L2020.52 1829.87Z" fill="white"/>
<path d="M2110.46 1133.64L2043.01 1094.7L1953.06 1146.62L2020.5 1185.56L2110.46 1133.64Z" fill="#2E2AE9"/>
<path opacity="0.75" d="M2110.46 1133.64L2043.01 1094.7L1953.06 1146.62L2020.5 1185.56L2110.46 1133.64Z" fill="white"/>
<path opacity="0.3" d="M2021.7 1187.22L2110.46 1133.65L2019.6 1183.73C2009.81 1178.18 1999.96 1172.73 1990.12 1167.26L1953.06 1146.62L1989.46 1168.4C1999.4 1174.36 2009.34 1180.33 2019.34 1186.21C2019.02 1198.11 2018.69 1347.34 2018.6 1359.23C2018.49 1371.35 2018.44 1745.08 2018.53 1757.19C2018.59 1769.3 2018.77 1781.41 2019.12 1793.53C2019.39 1805.64 2019.83 1817.75 2020.52 1829.87C2021.2 1817.75 2021.63 1805.64 2021.9 1793.53C2022.26 1781.41 2022.43 1769.3 2022.49 1757.19C2022.58 1745.08 2022.53 1371.35 2022.41 1359.23C2022.32 1347.67 2022 1198.78 2021.7 1187.22Z" fill="white"/>
<path opacity="0.5" d="M454.977 788.741L194.444 939.161L324.718 699.851L454.977 788.741Z" fill="#2E2AE9"/>
<path opacity="0.3" d="M454.977 898.136L194.444 1048.56L324.718 809.245L454.977 898.136Z" fill="#2E2AE9"/>
<path opacity="0.15" d="M454.977 1007.53L194.444 1157.95L324.718 918.639L454.977 1007.53Z" fill="#2E2AE9"/>
<path opacity="0.2" d="M1047.29 1319.21C1068.04 1301.32 1095.55 1284.54 1129.04 1269.35C1166.69 1252.28 1211.95 1237.15 1243.38 1218.58C1284.22 1194.45 1299.8 1165.37 1296.81 1136.1C1295.13 1119.52 1285.25 1101.14 1247.57 1088.93C1237.93 1085.8 1226.17 1083.13 1213.51 1082.52C1194.92 1081.62 1178.81 1085.26 1165.83 1089.18C1096.61 1110.13 1067.22 1142.32 1044 1173.59C1020.77 1204.87 992.571 1222.99 941.882 1252.47C920.19 1265.08 896.919 1277.43 876.43 1290.2C876.262 1290.3 876.1 1290.41 875.933 1290.51C865.586 1297 854.185 1303.01 846.035 1309.97C833.036 1321.08 821.593 1332.53 816.912 1344.65C812.231 1356.77 814.567 1369.67 828.387 1381.74C831.945 1384.85 836.575 1388.03 844.479 1390.14C851.171 1391.93 859.549 1392.76 867.639 1393.03C884.125 1393.59 900.054 1392.02 913.517 1389.39C926.98 1386.75 938.204 1383.09 948.565 1379.22C993.746 1362.36 1022.51 1340.56 1047.29 1319.21Z" fill="black"/>
<path d="M834.996 702.865C831.202 712.933 820.149 734.319 820.841 737.017C822.726 744.401 823.093 748.906 821.463 757.52C820.488 762.67 775.938 780.183 775.938 780.183L774.856 773.138C774.127 768.387 774.721 763.539 776.616 759.122C781.775 747.076 792.313 720.735 795.596 699.461L834.996 702.865Z" fill="#FFA8A7"/>
<path d="M822.164 752.996L775.023 774.191L775.943 780.187C775.943 780.187 820.493 762.674 821.468 757.524C821.774 755.866 821.993 754.394 822.164 752.996Z" fill="#F28F8F"/>
<path d="M679.199 843.624L665.03 989.162C664.343 996.216 668.936 1000.78 674.685 1004.97L689.132 1015.3C693.122 1018.16 695.397 1019.21 700.858 1018.82C703.245 1018.67 707.379 1017.13 709.357 1016.26C709.487 1016.25 709.589 1016.19 709.691 1016.13L710.564 1015.74L875.793 940.651C887.868 935.162 896.092 923.654 897.379 910.456L910.284 777.935C910.577 774.921 908.803 771.01 906.337 769.25L881.663 751.631C879.207 749.852 874.948 749.434 872.194 750.707L684.762 835.887C683.355 836.491 682.05 837.707 681.052 839.087C680.049 840.498 679.343 842.128 679.199 843.624Z" fill="#6E4242"/>
<path d="M679.199 843.624L665.03 989.162C664.343 996.217 668.936 1000.78 674.685 1004.97L689.132 1015.3C693.122 1018.16 695.397 1019.21 700.858 1018.82C703.245 1018.67 707.379 1017.13 709.357 1016.26L709.362 1016.2C702.985 1018.47 698.49 1014.83 699.196 1007.61L712.547 870.48C712.77 868.191 713.815 865.725 715.338 863.598L681.056 839.087C680.049 840.499 679.343 842.129 679.199 843.624Z" fill="#263238"/>
<path d="M712.538 870.481C712.979 865.916 716.76 860.635 720.93 858.741L898.08 778.232C905.083 775.051 910.201 778.71 909.458 786.364L897.388 910.438C896.106 923.64 887.872 935.153 875.798 940.642L710.564 1015.74C703.561 1018.92 698.444 1015.26 699.187 1007.6L712.538 870.481Z" fill="#455A64"/>
<path d="M902.663 784.051C902.543 784.227 902.612 784.813 902.529 785.69L890.464 909.769C889.423 920.459 882.703 929.859 872.919 934.308L707.685 1009.41C706.877 1009.77 706.324 1009.89 706.018 1009.92C706.097 1009.74 706.027 1009.15 706.115 1008.29L719.467 871.158C719.699 868.795 721.654 866.059 723.814 865.075L900.964 784.576C901.809 784.186 902.371 784.079 902.663 784.051ZM902.831 777.085C901.4 777.085 899.798 777.452 898.084 778.237L720.934 858.74C716.764 860.635 712.984 865.92 712.543 870.48L699.191 1007.61C698.625 1013.39 701.406 1016.89 705.818 1016.89C707.248 1016.89 708.851 1016.52 710.569 1015.74L875.807 940.642C887.877 935.153 896.111 923.64 897.397 910.437L909.462 786.364C910.015 780.587 907.238 777.085 902.831 777.085Z" fill="#6E4242"/>
<path d="M889.656 757.338L701.797 843.684C696.396 846.164 692.722 851.328 692.146 857.244L677.564 1007.03L680.118 1008.86L694.854 857.504C695.332 852.572 698.43 848.226 702.93 846.154L892.205 759.158L889.656 757.338Z" fill="#2E2AE9"/>
<path opacity="0.2" d="M695.17 849.178C693.498 851.523 692.434 854.291 692.146 857.24L677.564 1007.03L680.118 1008.86L694.854 857.504C695.091 855.038 695.982 852.726 697.38 850.766L695.17 849.178Z" fill="black"/>
<path opacity="0.2" d="M697.38 850.766C698.778 848.802 700.677 847.195 702.93 846.154L892.205 759.158L889.656 757.338L701.797 843.684C699.108 844.919 696.837 846.837 695.17 849.178" fill="black"/>
<path d="M824.7 769.789L822.508 792.326L830.825 798.275L833.742 768.345C833.891 766.812 832.864 766.078 831.466 766.715L824.7 769.789Z" fill="#2E2AE9"/>
<path opacity="0.4" d="M824.7 769.789L822.508 792.326L830.825 798.275L833.742 768.345C833.891 766.812 832.864 766.078 831.466 766.715L824.7 769.789Z" fill="black"/>
<path d="M760.594 786.029L757.042 822.512L764.983 828.201L770.964 825.475L773.881 795.549C774.029 794.012 775.302 792.233 776.709 791.597L822.044 771.001L831.462 766.719C832.864 766.083 833.89 766.812 833.742 768.349L830.825 798.275L836.825 795.549L840.373 759.075C840.387 758.922 840.392 758.754 840.378 758.596C840.336 757.143 839.482 755.457 838.349 754.654L834.968 752.225C833.719 751.329 831.555 751.115 830.138 751.756L763.408 782.077C761.997 782.727 760.743 784.496 760.594 786.029Z" fill="#2E2AE9"/>
<path opacity="0.2" d="M768.531 791.718L764.983 828.206L770.964 825.48L773.881 795.554C774.029 794.017 775.302 792.238 776.709 791.602L822.043 771.006L831.461 766.724C832.864 766.088 833.89 766.817 833.742 768.354L830.825 798.28L836.825 795.554L840.373 759.08C840.387 758.926 840.392 758.759 840.378 758.601C840.285 757.394 839.333 756.883 838.079 757.45L771.35 787.77C769.952 788.416 768.679 790.185 768.531 791.718Z" fill="black"/>
<path d="M814.929 768.108C815.904 768.14 816.847 768.423 817.627 769.018C818.844 766.975 821.198 765.66 823.576 765.702C824.621 765.721 825.833 766.143 826.102 767.151C826.191 767.485 826.163 767.838 826.13 768.187C825.81 771.544 825.345 774.888 824.746 778.204C824.31 780.6 823.702 783.168 821.863 784.766C820.353 786.075 818.129 786.493 816.248 785.82C815.57 787.408 814.195 788.653 812.602 789.294C812.231 789.442 807.545 789.851 807.833 789.303C806.073 792.596 802.191 795.986 797.175 794.987C797.175 794.987 795.926 798.591 789.313 797.815C782.695 797.04 779.769 789.744 779.769 789.744C780.141 787.705 780.842 786.888 783.118 786.006C784.246 785.569 785.458 785.063 786.536 784.524C788.091 783.749 789.099 781.942 790.218 780.623C791.361 779.281 792.684 778.013 794.333 777.382C795.981 776.755 798.02 776.889 799.302 778.097C799.451 776.732 800.365 775.585 801.313 774.591C802.167 773.699 803.231 772.807 804.508 772.673C804.884 772.636 807.903 773.16 807.536 773.95C808.441 771.995 809.7 770.119 811.544 769.009C812.551 768.396 813.759 768.066 814.929 768.108Z" fill="#FFA8A7"/>
<path d="M841.627 699.465C838.743 712.798 831.494 724.775 834.717 735.976C836.89 743.546 837.485 742.77 836.607 750.484C836.282 753.345 835.112 757.877 834.132 760.585C833.551 762.196 832.985 763.808 832.4 765.419C831.787 767.11 831.164 768.814 830.277 770.379C829.135 772.399 827.565 774.15 826.079 775.905C823.465 778.994 820.753 782.073 817.4 784.339C817.218 784.46 817.028 784.566 816.819 784.631C815.988 784.905 815.04 784.525 814.451 783.879C811.539 780.679 813.74 776.026 815.268 772.789C816.972 769.186 818.979 765.54 818.895 761.435C818.886 760.928 818.853 759.322 818.9 756.781C818.876 756.791 814.78 755.76 814.78 755.76C814.78 755.76 801.466 752.555 801.225 746.109C800.983 739.668 806.101 733.459 809.937 725.917C813.865 718.194 815.379 713.425 819.308 693.906L841.627 699.465Z" fill="#FFA8A7"/>
<path d="M830.277 770.374C827.245 775.315 823.362 779.718 819.016 783.558C818.287 784.111 817.66 785.068 816.341 785.179C810.127 784.009 813.053 775.803 815.143 772.19C816.847 768.767 818.788 765.34 818.895 761.43C819.16 765.354 817.4 769.06 815.811 772.506C814.181 775.863 811.27 782.732 816.304 784.255C821.588 781.111 826.339 775.273 830.277 770.374Z" fill="#F28F8F"/>
<path d="M817.841 755.532C816.22 754.706 814.441 754.097 812.904 753.103C811.711 752.328 810.712 751.264 809.913 750.094C807.977 747.257 806.249 743.527 806.811 740.026C806.848 739.812 806.602 739.422 806.477 739.78C805.051 743.723 806.147 748.209 808.27 751.71C809.263 753.35 810.749 754.664 812.37 755.662C813.206 756.178 814.107 756.568 815.064 756.809C816.15 757.083 816.926 757.107 817.938 756.633C818.305 756.461 818.147 755.685 817.841 755.532Z" fill="#F28F8F"/>
<path d="M920.784 432.111C892.001 429.895 869.022 435.607 854.148 473.461C837.346 516.213 820.804 549.19 812.477 580.301C804.146 611.406 791.839 709.808 791.839 709.808C791.839 709.808 813.587 728.746 837.513 720.108L873.731 608.267L920.784 517.764V432.111Z" fill="#E6E6E6"/>
<path d="M1247.56 1138.19C1249.58 1136.79 1252.52 1141.97 1252.59 1145.21C1252.79 1154.51 1246.53 1168.12 1232.97 1180.16C1219.4 1192.2 1186.86 1205.01 1177.49 1209.78C1168.12 1214.54 1154.89 1228.02 1146.58 1234.59C1131.43 1246.56 1117.46 1248.31 1109.03 1245.99C1105.73 1245.09 1103.79 1242.11 1102.37 1239.4C1099 1232.99 1098.84 1231.4 1099.58 1231.06L1247.56 1138.19Z" fill="#6E4242"/>
<path d="M1091.1 1211.61C1093.21 1218.54 1097.95 1229.42 1102.36 1235.24C1106.91 1238.88 1113.56 1238.68 1118.4 1237.68C1131.19 1235.02 1141.5 1228.41 1152.05 1219.17C1158.38 1213.64 1165.28 1207.63 1174.16 1203.29C1183.92 1198.53 1205.99 1189 1215.56 1183.83C1223.69 1179.44 1233.12 1172.03 1238.63 1164.43C1243.28 1158.01 1249.19 1146.26 1248.59 1140.22C1244.31 1127.69 1239.37 1121.57 1230.66 1121.37C1221.47 1121.16 1211.13 1125.88 1196.87 1132.48C1192.61 1134.46 1187.31 1137.1 1184.99 1138.08C1176.2 1141.78 1168.11 1145.48 1161.61 1148.58C1156.04 1151.24 1150.56 1153.78 1144.25 1153.83C1141.25 1153.86 1138.81 1153.53 1136.4 1151.74C1133.47 1149.55 1131.13 1145.29 1128.45 1146.47C1128.45 1146.47 1086.06 1180.55 1082.49 1183.05C1078.37 1185.94 1084.71 1190.6 1091.1 1211.61Z" fill="#455A64"/>
<path d="M1188.37 1135.63C1190.24 1135.77 1192.69 1136.89 1194.11 1137.8C1196.07 1139.03 1197.69 1140.36 1199.29 1142.03C1201.25 1144.08 1198.57 1146.19 1195.89 1144.1C1194.06 1142.66 1192.07 1140.98 1188.91 1139.47C1187.4 1138.74 1184.66 1138.22 1183.22 1138.83C1182.13 1139.29 1180.71 1139.91 1180.71 1139.91C1180.36 1137.78 1185.89 1135.43 1188.37 1135.63Z" fill="#FAFAFA"/>
<path d="M1165.87 1144.95C1167.44 1143.83 1169.05 1143.52 1171.02 1143.84C1173.34 1144.21 1175.34 1145.44 1177.1 1146.93C1178.52 1148.14 1181.83 1151.42 1182.92 1152.95C1183.95 1154.39 1180.3 1156.36 1178.98 1154.9C1177.67 1153.46 1175.18 1150.84 1173.54 1149.49C1172.54 1148.65 1168.42 1145.67 1165.7 1146.65L1164.54 1147.21C1164.23 1146.68 1164.74 1145.92 1165.17 1145.52C1165.39 1145.31 1165.62 1145.12 1165.87 1144.95Z" fill="#FAFAFA"/>
<path d="M1153.27 1151.5C1154.71 1151.25 1155.54 1150.97 1156.9 1151.55C1158.18 1152.11 1159.9 1153.19 1160.9 1154.18C1163.66 1156.94 1164.58 1158.39 1166.22 1161.14C1167.37 1163.09 1163.48 1164.58 1162.63 1163.33C1159.91 1159.37 1158.39 1156.64 1154.71 1154.7C1151.68 1153.11 1149.78 1153.18 1149.78 1153.18C1149.69 1152.77 1150.19 1152.43 1150.57 1152.29C1151.16 1152.07 1152.64 1151.61 1153.27 1151.5Z" fill="#FAFAFA"/>
<path d="M1053.33 1134.27C1053.33 1134.27 1077.14 1176.38 1083.71 1185.76C1085.81 1188.76 1092.53 1186.68 1096.38 1186.3C1100.22 1185.92 1106.3 1185.33 1110.44 1186.49C1122.67 1189.92 1129.62 1188.44 1126.73 1172.1C1126.13 1168.76 1127.26 1166.53 1131.23 1165.19C1134.19 1164.18 1137.59 1163.85 1139.99 1161.8C1140.26 1161.3 1139.65 1160.8 1139.14 1160.54C1135.21 1158.62 1132.99 1157.26 1130.25 1151.32C1121.78 1132.94 1114.03 1095.09 1114.03 1095.09L1053.33 1134.27Z" fill="#FFA8A7"/>
<path d="M873.025 1228.45C880.316 1216.78 884.259 1194.33 900.304 1148.72L959.799 1192.28L925.721 1258.72C923.784 1262.05 923.715 1267.06 923.037 1268.04C915.086 1279.46 873.025 1228.45 873.025 1228.45Z" fill="#FFA8A7"/>
<path d="M850.99 1253.32C851.078 1252.65 850.72 1247.15 850.892 1246.49C852.439 1240.57 856.098 1238.93 860.793 1235.62C866.617 1231.52 872.259 1226.62 873.755 1224.54C875.329 1222.36 875.631 1221.23 878.073 1220.24C882.234 1218.55 888.922 1218.41 897.156 1222.74C910.651 1229.83 914.775 1238.37 913.995 1247.62C913.405 1254.67 912.815 1264.06 919.034 1268.25C921.62 1270 925.712 1258.72 925.712 1258.72C929.548 1265.15 924.16 1274.05 921.351 1287.07C919.424 1296 919.893 1299.89 920.975 1308.96C922.34 1320.4 923.919 1320.35 929.989 1321.14C935.218 1321.83 950.046 1320.84 959.065 1327.13C971.497 1335.82 968.176 1347.37 968.176 1347.37C966.57 1351.76 953.046 1373.08 903.653 1365.12C889.326 1362.81 859.228 1340.29 859.688 1338.18C860.115 1336.23 859.641 1333.69 859.572 1331.71C859.4 1326.66 859.182 1321.61 858.963 1316.57C858.764 1311.96 859.233 1306.61 858.123 1302.14C857.138 1298.16 856.669 1294.34 856.284 1290.21C855.336 1280.07 854.394 1269.93 853.446 1259.79C853.172 1256.87 850.595 1256.2 850.99 1253.32Z" fill="#455A64"/>
<path d="M844.767 1251.32C839.895 1256.03 842.858 1269.71 849.392 1286.12C852.29 1293.41 857.686 1305.94 856.103 1319.26C854.519 1332.59 854.24 1338.88 857.672 1345.13C863.045 1354.9 891.764 1367.4 908.687 1371.32C908.687 1371.32 893.18 1351.85 891.481 1322.44C889.776 1293.03 887.533 1274.07 874.084 1261.03C857.078 1244.53 844.767 1251.32 844.767 1251.32Z" fill="#263238"/>
<path d="M968.176 1347.37C968.176 1347.37 958.271 1365.94 920.055 1365.33C905.013 1365.09 896.961 1357.76 896.589 1334.9C896.143 1307.34 893.923 1279.51 885.012 1265.83C876.1 1252.14 861.903 1245.51 850.892 1246.49C848.979 1246.79 846.559 1248.62 844.767 1251.32C844.767 1251.32 855.787 1247.69 872.932 1261.92C885.592 1272.43 889.015 1294.37 888.824 1321.62C888.741 1333.35 888.03 1346.65 891.462 1355.54C894.629 1363.74 901.646 1369.36 909.708 1371.62C930.486 1377.46 958.916 1367.84 966.11 1359.06C970.238 1353.21 968.176 1347.37 968.176 1347.37Z" fill="#6E4242"/>
<path d="M922.266 1316.14C922.266 1316.14 925.052 1318.11 925.359 1320.7C925.66 1323.29 924.764 1329.28 919.335 1332.67C917.037 1334.11 915.03 1333.6 918.685 1328.77C922.34 1323.94 922.266 1316.14 922.266 1316.14Z" fill="#FAFAFA"/>
<path d="M920.213 1301.88C920.213 1301.88 921.425 1302.66 921.732 1306.49C921.894 1308.55 918.699 1316.82 914.677 1318.79C910.656 1320.76 912.829 1316.12 914.575 1313.85C916.488 1311.35 919.86 1305.68 920.213 1301.88Z" fill="#FAFAFA"/>
<path d="M921.569 1286.12C921.569 1286.12 922.874 1286.49 921.481 1291.76C921.007 1293.54 915.746 1298.76 913.15 1299.07C910.558 1299.38 909.3 1298.08 912.481 1295.77C914.988 1293.96 921.081 1288.68 921.569 1286.12Z" fill="#FAFAFA"/>
<path d="M1019.07 697.148C1019.07 697.148 1042.19 724.855 1056.17 776.677C1073.14 839.585 1079.71 887.97 1085.01 923.084C1088.35 945.143 1091.54 966.422 1099.22 1008.84C1106.52 1049.15 1124.64 1136.36 1124.64 1136.36C1124.64 1136.36 1121.46 1149.65 1103.52 1157.5C1085.59 1165.35 1066.18 1162.34 1066.18 1162.34C1066.18 1162.34 1053.88 1141.33 1028.24 1091.85C1010.85 1058.28 1007.98 1040 1004.61 1022.81C1002.1 1009.88 999.101 984.612 999.347 972.993L903.109 809.464C903.109 809.464 892.79 798.722 883.799 776.148C870.197 742 887.566 692.802 887.566 692.802L1019.07 697.148Z" fill="#6E4242"/>
<path d="M1019.07 697.148C1019.07 697.148 1042.19 724.855 1056.17 776.677C1073.14 839.585 1079.71 887.97 1085.01 923.084C1088.35 945.143 1091.54 966.422 1099.22 1008.84C1106.52 1049.15 1124.64 1136.36 1124.64 1136.36C1124.64 1136.36 1121.46 1149.65 1103.52 1157.5C1085.59 1165.35 1066.18 1162.34 1066.18 1162.34C1066.18 1162.34 1053.88 1141.33 1028.24 1091.85C1010.85 1058.28 1007.98 1040 1004.61 1022.81C1002.1 1009.88 999.101 984.612 999.347 972.993L903.109 809.464C903.109 809.464 892.79 798.722 883.799 776.148C870.197 742 887.566 692.802 887.566 692.802L1019.07 697.148Z" fill="#6E4242"/>
<path d="M1083.12 910.484C1078.06 876.685 1071.2 832.386 1056.17 776.677C1051.83 760.599 1046.62 746.853 1041.49 735.526L919.414 733.381C910.331 754.609 903.142 781.13 923.023 813.527L928.256 852.174L999.351 972.983C999.105 984.607 1002.1 1009.87 1004.62 1022.8C1007.98 1039.99 1010.85 1058.27 1028.25 1091.84C1029.01 1093.31 1029.72 1094.68 1030.46 1096.11C1038.18 1084.6 1050.22 1065.94 1054.83 1055.04C1061.82 1038.47 1066.62 1006.55 1073.95 966.124C1076.65 951.231 1080.14 929.636 1083.12 910.484Z" fill="#263238"/>
<path d="M938.84 697.148C932.803 703.334 917.77 724.065 915.318 755.969C914.278 769.478 918.123 794.946 933.904 814.107C938.733 884.877 952.721 1021.18 952.721 1021.18C934.02 1040.44 929.176 1052.86 918.351 1087.37C911.78 1108.33 892.609 1171.67 885.202 1195.3C930.569 1197.27 939.114 1236.14 939.114 1236.14C939.114 1236.14 994.104 1147.5 1021.86 1097.42C1042.37 1060.4 1045 1051.58 1050.57 1029.53C1056.14 1007.48 1057.18 987.036 1063.93 940.986C1070.67 894.936 1082.63 831.504 1085.93 786.169C1089.23 740.839 1089.85 692.792 1089.85 692.792L938.84 697.148Z" fill="#6E4242"/>
<path d="M878.844 752.616C883.433 751.302 889.962 746.913 892.433 742.971C893.914 740.598 894.81 737.226 895.943 732.954C897.183 728.291 898.725 722.481 901.656 715.947L905.153 717.512C902.352 723.772 900.917 729.173 899.649 733.943C898.428 738.526 897.471 742.144 895.683 745.005C892.753 749.7 885.16 755.013 879.174 756.443C879.044 755.161 878.928 753.889 878.844 752.616Z" fill="#263238"/>
<path d="M969.737 793.167C968.761 793.144 967.935 793.06 967.289 792.921C961.735 791.695 957.416 787.961 948.815 776.96C942.263 768.582 942.936 762.563 944.041 752.597C944.45 748.938 948.305 729.373 948.546 724.218L952.219 726.261C951.969 731.537 948.263 749.305 947.849 753.02C946.749 762.93 946.252 767.453 951.834 774.601C959.789 784.771 963.588 788.18 968.111 789.178C972.495 790.167 991.921 786.949 997.099 783.368C1000.09 781.288 1005.1 755.718 1008.02 733.213L1011.82 733.71C1010.34 745.083 1005.07 782.519 999.282 786.522C994.141 790.074 977.455 793.372 969.737 793.167Z" fill="#263238"/>
<path d="M886.59 452.641C873.624 477.426 875.231 499.625 878.97 534.394C882.42 566.461 884.84 586.324 887.793 625.988C891.169 671.304 885.132 699.883 885.132 699.883C885.132 699.883 886.414 719.086 942.913 733.473C1042.21 758.765 1089.85 729.949 1089.85 729.949C1089.85 729.949 1092.25 674.026 1088.4 600.883C1084.09 518.939 1082.66 506.948 1076.32 487.457C1071.66 476.688 1062.85 467.005 1050.92 461.586C1041.06 457.109 1017.46 449.386 1003.45 443.98C970.842 431.4 933.156 432.18 933.156 432.18C904.883 430.276 893.32 439.773 886.59 452.641Z" fill="#F5F5F5"/>
<path d="M926.218 436.582C928.322 436.582 930.551 436.661 932.845 436.815L933.049 436.829L933.254 436.824C933.281 436.824 933.709 436.815 934.489 436.815C940.749 436.815 973.424 437.367 1001.78 448.313C1007.45 450.501 1014.77 453.097 1021.84 455.609C1032.38 459.347 1043.27 463.216 1049 465.816C1059.14 470.419 1067.5 478.899 1071.97 489.106C1077.94 507.529 1079.38 517.764 1083.76 601.129C1087.09 664.292 1085.72 715.12 1085.31 727.088C1078.69 730.283 1056.83 739.227 1019.46 739.227C996.129 739.227 970.759 735.777 944.056 728.978C897.3 717.071 890.65 702.28 889.855 699.907C890.882 694.506 895.507 667.101 892.419 625.644C889.92 592.068 887.803 572.661 885.123 548.09L883.581 533.902C879.848 499.207 878.338 478.425 890.696 454.801C895.414 445.787 903.318 436.582 926.218 436.582ZM926.218 431.938C902.924 431.938 892.739 440.883 886.586 452.641C873.62 477.426 875.227 499.625 878.965 534.394C882.416 566.461 884.835 586.324 887.789 625.988C891.165 671.304 885.123 699.883 885.123 699.883C885.123 699.883 886.405 719.086 942.904 733.473C973.183 741.182 998.669 743.867 1019.46 743.867C1066.84 743.867 1089.84 729.949 1089.84 729.949C1089.84 729.949 1092.24 674.026 1088.39 600.883C1084.08 518.939 1082.65 506.948 1076.31 487.457C1071.65 476.693 1062.84 467.005 1050.91 461.586C1041.05 457.109 1017.45 449.386 1003.44 443.98C974.451 432.793 941.446 432.171 934.48 432.171C933.611 432.171 933.147 432.18 933.147 432.18C930.727 432.017 928.415 431.938 926.218 431.938Z" fill="#E0E0E0"/>
<path d="M1005.89 415.907L1003.22 446.051C986.729 449.646 946.642 447.068 939.119 436.819L940.698 409.196L1005.89 415.907Z" fill="#FFA8A7"/>
<path d="M1048.86 338.64C1048.86 338.64 1056.52 344.431 1062.33 364.442L1050.98 372.764C1047.25 358.706 1043.22 344.389 1048.86 338.64Z" fill="#F28F8F"/>
<path d="M1019.61 282.629C1047.77 284.5 1052.48 299.175 1048.29 347.204C1058.18 392.803 1044.53 410.84 1038.65 416.812C1025.38 423.922 1011.89 425.097 993.551 420.319C979.578 416.678 944.176 406.178 929.348 384.212C911.905 358.368 907.345 319.07 925.926 304.446C952.071 283.859 1008.39 281.886 1019.61 282.629Z" fill="#FFA8A7"/>
<path d="M1038.65 416.813C1035.39 420.115 1016.55 426.082 1004.94 424.81L1005.9 415.907C1005.9 415.907 1022.02 418.921 1038.65 416.813Z" fill="#F28F8F"/>
<path d="M1022.55 315.801C1021.95 317.863 1021.06 319.841 1019.91 321.653C1016.74 326.636 1012.22 329.315 1007.39 332.338C1009.15 338.213 1011.04 344.292 1011.12 350.524C1011.14 352.517 1010.98 354.625 1009.86 356.292C1007.87 359.236 1004.53 358.949 1002.99 356.218C1001.14 352.939 999.844 349.526 997.257 346.679C994.266 343.387 990.18 340.893 985.689 340.451C968.701 338.798 968.636 365.246 975.449 374.199C986.595 388.856 995.748 379.452 995.748 379.452C995.748 379.452 1001.48 402.054 985.099 411.848C985.099 411.848 958.707 418.317 940.698 409.197C932.455 392.232 921.337 382.331 912.486 364.266C897.003 332.664 904.419 304.906 914.97 299.199C912.003 284.44 920.98 269.937 940.071 260.932C958.889 252.053 984.895 256.581 1004.91 259.785C1016.79 261.689 1029.09 260.993 1040.69 257.76C1042.34 257.301 1044 256.79 1045.7 256.794C1047.41 256.804 1049.21 257.421 1050.2 258.815C1051.49 260.63 1051.03 263.171 1050.05 265.163C1049.07 267.155 1047.61 268.92 1046.88 271.024C1051 269.9 1055.31 272.97 1057.17 276.819C1059.77 282.211 1058.69 288.931 1055.28 293.849C1051.87 298.767 1046.42 302.008 1040.68 303.713C1034.94 305.413 1028.88 305.696 1022.89 305.654C1023.7 308.988 1023.51 312.499 1022.55 315.801Z" fill="#263238"/>
<path d="M1004.37 433.188C1008.67 432.979 1013.35 441.867 1021.8 450.663C1021.8 450.663 997.986 464.474 962.469 459.124C926.956 453.774 920.139 432.161 920.139 432.161C920.139 432.161 928.257 425.929 932.534 421.726C937.735 416.618 940.28 416.534 940.28 416.534L939.862 423.807C939.862 423.807 946.675 430.861 968.32 435.24C989.971 439.615 1004.37 433.188 1004.37 433.188Z" fill="#E6E6E6"/>
<path d="M1130.07 642.326C1130.07 642.326 1119.91 591.414 1112.51 555.715C1105.11 520.021 1107.97 478.787 1051.79 464.66C1042.49 478.838 1036.43 500.558 1039.57 527.647C1042.7 554.735 1055.06 597.219 1058.17 611.578C1061.28 625.937 1071.8 654.535 1085.2 674.434C1103.01 700.896 1136.22 745.664 1149.67 762.118C1155.89 769.734 1161.29 777.443 1167.01 785.542C1172.99 793.985 1180.91 800.547 1187.99 808.098C1191.26 811.586 1195.95 814.084 1200.53 815.366C1203.55 816.211 1206.55 815.05 1209.41 815.839C1212.37 816.652 1214.16 819.387 1217.67 819.485C1221.56 819.592 1224.72 816.908 1228.24 817.247C1231.91 817.6 1235.5 818.932 1239.35 818.835C1242.83 818.742 1245.2 818.25 1248.52 819.638C1251.24 820.781 1255.05 824.384 1258.15 822.545C1261.63 820.479 1260.57 816.685 1259.34 813.55C1257.16 808.019 1251.08 802.59 1245.89 799.841C1239.88 796.655 1234.69 792.118 1228.31 789.638C1222.55 787.4 1217.51 782.468 1213.35 777.852C1210.45 774.624 1208.55 769.641 1214.44 769.571C1221.38 769.492 1229.98 772.125 1236.3 767.742C1240.67 764.709 1239.19 760.845 1234.95 759.011C1227.86 755.936 1221.42 752.514 1214.81 748.413C1208.23 744.331 1202.15 739.58 1195.48 735.698C1192.01 733.678 1188.2 731.992 1184.46 730.441C1173.99 726.094 1169.44 715.627 1164.16 706.385C1156.81 693.498 1138.3 659.457 1130.07 642.326Z" fill="#FFA8A7"/>
<path d="M1049.06 587.902C1049.06 587.902 1039.21 549.181 1036.68 533.001C1034.15 516.821 1032.72 474.737 1049.48 460.954C1061.58 463.898 1093.94 469.657 1103.26 500.094C1112.58 530.53 1126.65 610.695 1126.65 610.695L1168.78 710.202C1168.78 710.202 1168.95 719.472 1151.29 731.43C1133.64 743.393 1124.64 739.315 1124.64 739.315C1124.64 739.315 1089.85 686.657 1072.97 660.702C1061.64 643.268 1058.85 631.714 1049.06 587.902Z" fill="#E6E6E6"/>
<path d="M730.738 421.527L730.812 361.675L781.149 356.372C782.245 356.255 783.229 356.497 784.042 356.975C786.48 358.406 809.626 371.804 810.429 372.268C812.89 373.684 813.796 377.26 811.506 379.671L757.158 436.843L730.738 421.527Z" fill="#2E2AE9"/>
<path d="M572.833 556.56L572.828 371.357C572.828 368.669 574.718 365.395 577.045 364.052L728.072 277.033C730.403 275.686 734.17 275.705 736.482 277.075L759.967 290.947C762.285 292.317 764.161 295.605 764.161 298.293L764.165 483.496C764.165 486.185 762.275 489.459 759.949 490.801L608.921 577.82C606.59 579.167 602.824 579.149 600.511 577.779L577.026 563.907C574.713 562.542 572.833 559.249 572.833 556.56Z" fill="#2E2AE9"/>
<path opacity="0.15" d="M608.234 578.155C606.228 578.93 604.704 577.806 604.695 575.382L604.704 390.189C604.709 388.837 605.178 387.351 605.949 386.028L573.975 367.35C573.26 368.641 572.819 370.062 572.828 371.367V556.574C572.823 559.254 574.695 562.537 577.022 563.916L600.502 577.783C602.615 579.014 605.912 579.158 608.234 578.155Z" fill="black"/>
<path d="M807.578 371.683L764.17 376.257L764.166 298.294C764.166 295.605 762.276 294.513 759.949 295.86L608.921 382.875C606.595 384.222 604.705 387.491 604.705 390.18L604.709 575.383C604.709 578.072 606.595 579.163 608.926 577.816L759.953 490.797C762.285 489.45 764.175 486.181 764.175 483.492L764.17 429.463L811.511 379.661C814.548 376.471 811.962 371.218 807.578 371.683Z" fill="#2E2AE9"/>
<path opacity="0.35" d="M807.578 371.683L764.17 376.257L764.166 298.294C764.166 295.605 762.276 294.513 759.949 295.86L608.921 382.875C606.595 384.222 604.705 387.491 604.705 390.18L604.709 575.383C604.709 578.072 606.595 579.163 608.926 577.816L759.953 490.797C762.285 489.45 764.175 486.181 764.175 483.492L764.17 429.463L811.511 379.661C814.548 376.471 811.962 371.218 807.578 371.683Z" fill="white"/>
<path d="M728.402 455.381C728.732 454.522 728.732 453.644 728.365 453.231L721.9 446.065C720.442 444.43 720.154 441.305 721.106 437.687C721.148 437.618 721.153 437.562 721.157 437.511C721.157 437.511 721.157 437.511 721.181 437.478C722.105 433.949 724.111 430.689 726.424 428.998L736.766 421.48C737.374 421.048 737.852 420.175 737.964 419.306C738.517 414.95 738.791 410.455 738.805 406.02C738.818 401.761 738.549 397.6 738.006 393.597C737.899 392.891 737.435 392.548 736.826 392.803L726.493 397.173C724.19 398.111 722.188 397.22 721.273 394.791C721.246 394.698 721.232 394.628 721.204 394.535C720.256 392.069 720.558 388.545 722.03 385.275L728.509 370.688C728.871 369.866 728.894 368.956 728.546 368.506C724.849 363.555 720.298 360.049 714.967 358.177C714.489 357.992 713.848 358.386 713.36 359.134L705.205 372.434C703.394 375.383 700.844 377.274 698.555 377.352C698.518 377.366 698.485 377.329 698.444 377.348C696.163 377.376 694.608 375.574 694.357 372.667L693.196 359.547C693.131 358.776 692.666 358.428 692.081 358.595C685.951 360.643 678.976 364.665 672.818 369.662C672.247 370.136 671.782 371.023 671.713 371.877L670.496 386.376C670.259 389.566 668.666 393.17 666.409 395.738C666.367 395.808 666.33 395.822 666.284 395.891C663.99 398.422 661.44 399.486 659.643 398.59L651.525 394.665C651.047 394.424 650.392 394.805 649.89 395.529C644.578 403.521 639.994 412.266 636.265 421.503C635.917 422.344 635.935 423.24 636.302 423.653L642.748 430.8C644.197 432.361 644.471 435.593 643.524 439.159C643.514 439.266 643.491 439.355 643.463 439.443C642.493 443.042 640.556 446.144 638.243 447.834L627.841 455.404C627.274 455.822 626.773 456.728 626.684 457.564C626.127 461.971 625.835 466.448 625.825 470.883C625.821 475.267 626.09 479.432 626.633 483.199C626.736 483.955 627.223 484.267 627.818 483.993L638.183 479.66C640.468 478.703 642.465 479.646 643.431 482.13C643.426 482.186 643.459 482.223 643.454 482.274C644.415 484.81 644.118 488.284 642.646 491.553L636.181 506.158C635.796 507.018 635.777 507.872 636.102 508.355C639.813 513.324 644.387 516.798 649.7 518.702C650.183 518.888 650.843 518.456 651.312 517.694L659.466 504.389C661.278 501.44 663.832 499.55 666.112 499.522C666.149 499.508 666.205 499.508 666.242 499.494C668.504 499.453 670.045 501.231 670.31 504.162L671.471 517.281C671.536 518.052 671.977 518.433 672.586 518.233C675.651 517.211 678.883 515.73 682.203 513.826C685.51 511.903 688.752 509.674 691.849 507.166C692.42 506.693 692.866 505.787 692.954 504.951L694.171 490.452C694.426 487.225 695.978 483.691 698.239 481.127C698.3 481.076 698.36 481.025 698.378 480.993C700.673 478.411 703.19 477.356 705.024 478.239L713.137 482.219C713.597 482.442 714.27 482.079 714.758 481.336C720.094 473.311 724.659 464.599 728.402 455.381ZM682.292 476.507C666.535 485.539 653.764 475.815 653.81 454.824C653.843 433.814 666.665 409.34 682.408 400.289C698.132 391.271 710.894 401.046 710.866 422.056C710.834 443.065 697.998 467.474 682.292 476.507Z" fill="white"/>
</svg>
