<svg width="96" height="96" viewBox="0 0 96 96" fill="none" xmlns="http://www.w3.org/2000/svg">
<g clip-path="url(#clip0_404_7091)">
<path d="M71 0H25C11.1929 0 0 11.1929 0 25V71C0 84.8071 11.1929 96 25 96H71C84.8071 96 96 84.8071 96 71V25C96 11.1929 84.8071 0 71 0Z" fill="url(#paint0_linear_404_7091)"/>
<path d="M67 27.5342H50C48.8954 27.5342 48 28.4296 48 29.5342V33.5342C48 34.6387 48.8954 35.5342 50 35.5342H67C68.1046 35.5342 69 34.6387 69 33.5342V29.5342C69 28.4296 68.1046 27.5342 67 27.5342Z" fill="white"/>
<path d="M70 39.5342H53C51.8954 39.5342 51 40.4296 51 41.5342V45.5342C51 46.6387 51.8954 47.5342 53 47.5342H70C71.1046 47.5342 72 46.6387 72 45.5342V41.5342C72 40.4296 71.1046 39.5342 70 39.5342Z" fill="white"/>
<path opacity="0.531" d="M76 19.5342H61C59.8954 19.5342 59 20.4296 59 21.5342V25.5342C59 26.6387 59.8954 27.5342 61 27.5342H76C77.1046 27.5342 78 26.6387 78 25.5342V21.5342C78 20.4296 77.1046 19.5342 76 19.5342Z" fill="white"/>
<path opacity="0.531" d="M74 36.5342H59C57.8954 36.5342 57 37.4296 57 38.5342V42.5342C57 43.6387 57.8954 44.5342 59 44.5342H74C75.1046 44.5342 76 43.6387 76 42.5342V38.5342C76 37.4296 75.1046 36.5342 74 36.5342Z" fill="white"/>
<mask id="mask0_404_7091" style="mask-type:luminance" maskUnits="userSpaceOnUse" x="0" y="0" width="96" height="96">
<path d="M71 0H25C11.1929 0 0 11.1929 0 25V71C0 84.8071 11.1929 96 25 96H71C84.8071 96 96 84.8071 96 71V25C96 11.1929 84.8071 0 71 0Z" fill="white"/>
</mask>
<g mask="url(#mask0_404_7091)">
<path opacity="0.394" d="M49.279 201.454L13.6484 37.6465L189.92 92.0255L49.279 201.454Z" fill="url(#paint1_linear_404_7091)"/>
</g>
<path d="M30 48L31.3471 52.1459H35.7063L32.1796 54.7082L33.5267 58.8541L30 56.2918L26.4733 58.8541L27.8204 54.7082L24.2937 52.1459H28.6529L30 48Z" fill="#D9D9D9"/>
<path d="M42 60L43.3471 64.1459H47.7063L44.1796 66.7082L45.5267 70.8541L42 68.2918L38.4733 70.8541L39.8204 66.7082L36.2937 64.1459H40.6529L42 60Z" fill="#D9D9D9"/>
<path d="M54 72L55.3471 76.1459H59.7063L56.1796 78.7082L57.5267 82.8541L54 80.2918L50.4733 82.8541L51.8204 78.7082L48.2937 76.1459H52.6529L54 72Z" fill="#D9D9D9"/>
</g>
<defs>
<linearGradient id="paint0_linear_404_7091" x1="51.168" y1="19.68" x2="48" y2="99.36" gradientUnits="userSpaceOnUse">
<stop stop-color="#2466FF"/>
<stop offset="1" stop-color="#000F67"/>
</linearGradient>
<linearGradient id="paint1_linear_404_7091" x1="97.2022" y1="127.978" x2="41.113" y2="24.2793" gradientUnits="userSpaceOnUse">
<stop stop-color="white" stop-opacity="0.102"/>
<stop offset="1" stop-color="white"/>
</linearGradient>
<clipPath id="clip0_404_7091">
<rect width="96" height="96" fill="white"/>
</clipPath>
</defs>
</svg>
