<svg width="97" height="99" viewBox="0 0 97 99" fill="none" xmlns="http://www.w3.org/2000/svg">
<g clip-path="url(#clip0_404_7169)">
<path d="M71.999 2.47705H25.999C12.1919 2.47705 0.999023 13.6699 0.999023 27.4771V73.4771C0.999023 87.2842 12.1919 98.4771 25.999 98.4771H71.999C85.8061 98.4771 96.999 87.2842 96.999 73.4771V27.4771C96.999 13.6699 85.8061 2.47705 71.999 2.47705Z" fill="url(#paint0_linear_404_7169)"/>
<mask id="mask0_404_7169" style="mask-type:luminance" maskUnits="userSpaceOnUse" x="0" y="0" width="97" height="99">
<path d="M70 0H27C12.0883 0 0 12.0883 0 27V71.258C0 86.1697 12.0883 98.258 27 98.258H70C84.9117 98.258 97 86.1697 97 71.258V27C97 12.0883 84.9117 0 70 0Z" fill="white"/>
</mask>
<g mask="url(#mask0_404_7169)">
<path opacity="0.554" d="M153.616 71H62V153.17H153.616V71Z" fill="white"/>
<path opacity="0.251" d="M51.396 59.698C51.396 52.6851 45.7109 47 38.698 47C31.6851 47 26 52.6851 26 59.698V59.962C26 66.9749 31.6851 72.66 38.698 72.66C45.7109 72.66 51.396 66.9749 51.396 59.962V59.698Z" fill="white"/>
</g>
<mask id="mask1_404_7169" style="mask-type:luminance" maskUnits="userSpaceOnUse" x="46" y="9" width="36" height="46">
<path d="M81.0401 9H46.2795V54.9545H81.0401V9Z" fill="white"/>
</mask>
<g mask="url(#mask1_404_7169)">
<path opacity="0.534" d="M65.8488 33.6648C66.6542 34.4703 67.2028 35.4964 67.425 36.6136C67.6472 37.7308 67.5332 38.8888 67.0973 39.9412C66.6614 40.9935 65.9233 41.893 64.9762 42.5258C64.0291 43.1587 62.9156 43.4965 61.7765 43.4965C60.6374 43.4965 59.524 43.1587 58.5769 42.5258C57.6298 41.893 56.8916 40.9935 56.4557 39.9412C56.0198 38.8888 55.9058 37.7308 56.128 36.6136C56.3503 35.4964 56.8988 34.4703 57.7043 33.6648C58.239 33.1299 58.8738 32.7056 59.5725 32.4161C60.2713 32.1266 61.0202 31.9775 61.7765 31.9775C62.5328 31.9775 63.2818 32.1266 63.9805 32.4161C64.6792 32.7056 65.3141 33.1299 65.8488 33.6648Z" fill="white"/>
<path opacity="0.811" d="M73.0117 16.6766C73.3765 17.0412 73.6249 17.5059 73.7256 18.0117C73.8263 18.5176 73.7748 19.0419 73.5774 19.5185C73.3801 19.995 73.0459 20.4023 72.617 20.6889C72.1882 20.9755 71.684 21.1284 71.1682 21.1284C70.6524 21.1284 70.1482 20.9755 69.7194 20.6889C69.2905 20.4023 68.9563 19.995 68.7589 19.5185C68.5616 19.0419 68.51 18.5176 68.6107 18.0117C68.7114 17.5059 68.9599 17.0412 69.3247 16.6766C69.5667 16.4344 69.8541 16.2422 70.1704 16.1112C70.4867 15.9801 70.8258 15.9126 71.1682 15.9126C71.5106 15.9126 71.8496 15.9801 72.166 16.1112C72.4823 16.2422 72.7697 16.4344 73.0117 16.6766Z" fill="white"/>
</g>
<mask id="mask2_404_7169" style="mask-type:luminance" maskUnits="userSpaceOnUse" x="39" y="9" width="52" height="52">
<path d="M90.3815 33.7218L65.6597 9L39.0001 35.6596L63.7219 60.3814L90.3815 33.7218Z" fill="white"/>
</mask>
<g mask="url(#mask2_404_7169)">
<path d="M39.0407 35.6447L39.0011 35.6585L39.0298 35.6872C39.0322 35.6727 39.0359 35.6585 39.0407 35.6447Z" fill="white"/>
<path d="M58.5147 50.9743C59.0329 50.4559 59.6481 50.0448 60.3253 49.7644C61.0025 49.484 61.7284 49.3398 62.4613 49.3402C63.1943 49.3405 63.92 49.4854 64.5969 49.7665C65.2738 50.0476 65.8887 50.4594 66.4063 50.9783C66.5989 51.1803 66.7757 51.3968 66.9352 51.6259L70.8751 40.876L78.0203 21.3606L58.5088 28.5097L47.7599 32.4505C47.986 32.607 48.1996 32.7809 48.3986 32.9706C48.9164 33.4884 49.3271 34.1031 49.6073 34.7796C49.8875 35.4561 50.0318 36.1812 50.0318 36.9134C50.0318 37.6457 49.8875 38.3708 49.6073 39.0473C49.3271 39.7238 48.9164 40.3385 48.3986 40.8563C47.6528 41.5991 46.7107 42.1139 45.6827 42.3403L57.0327 53.6902C57.259 52.6622 57.7738 51.7201 58.5167 50.9743M58.7876 40.5933C58.0078 39.8134 57.4767 38.8199 57.2615 37.7383C57.0464 36.6566 57.1568 35.5355 57.5788 34.5166C58.0009 33.4977 58.7156 32.6269 59.6325 32.0142C60.5495 31.4015 61.6276 31.0744 62.7304 31.0744C63.8332 31.0744 64.9113 31.4015 65.8283 32.0142C66.7452 32.6269 67.4599 33.4977 67.882 34.5166C68.304 35.5355 68.4144 36.6566 68.1993 37.7383C67.9841 38.8199 67.4531 39.8134 66.6732 40.5933C65.6275 41.639 64.2093 42.2264 62.7304 42.2264C61.2516 42.2264 59.8333 41.639 58.7876 40.5933Z" fill="white"/>
<path d="M63.6841 60.3437L63.7197 60.3793L63.7385 60.3269C63.7207 60.3328 63.7029 60.3407 63.6841 60.3437Z" fill="white"/>
</g>
<path d="M35.2066 63.5074L45.4679 46.1305L52.7541 53.5407L35.2066 63.5074Z" fill="white"/>
</g>
<defs>
<linearGradient id="paint0_linear_404_7169" x1="-1.30498" y1="32.4291" x2="92.103" y2="3.82105" gradientUnits="userSpaceOnUse">
<stop stop-color="#2466FF"/>
<stop offset="1" stop-color="#000F67"/>
</linearGradient>
<clipPath id="clip0_404_7169">
<rect width="97" height="98.477" fill="white"/>
</clipPath>
</defs>
</svg>
