
<svg width="96" height="97" viewBox="0 0 96 97" fill="none" xmlns="http://www.w3.org/2000/svg">
<g clip-path="url(#clip0_404_7155)">
<path d="M71 0.134766H25C11.1929 0.134766 0 11.3276 0 25.1348V71.1348C0 84.9419 11.1929 96.1348 25 96.1348H71C84.8071 96.1348 96 84.9419 96 71.1348V25.1348C96 11.3276 84.8071 0.134766 71 0.134766Z" fill="url(#paint0_linear_404_7155)"/>
<mask id="mask0_404_7155" style="mask-type:luminance" maskUnits="userSpaceOnUse" x="0" y="0" width="96" height="96">
<path d="M71 0H25C11.1929 0 0 11.1929 0 25V71C0 84.8071 11.1929 96 25 96H71C84.8071 96 96 84.8071 96 71V25C96 11.1929 84.8071 0 71 0Z" fill="white"/>
</mask>
<g mask="url(#mask0_404_7155)">
<path opacity="0.55" d="M113.711 200.22C157.734 200.22 193.422 166.816 193.422 125.61C193.422 84.404 157.734 51 113.711 51C69.6878 51 34 84.404 34 125.61C34 166.816 69.6878 200.22 113.711 200.22Z" fill="white"/>
</g>
<path d="M63.5 24C67.0899 24 70 21.0899 70 17.5C70 13.9101 67.0899 11 63.5 11C59.9101 11 57 13.9101 57 17.5C57 21.0899 59.9101 24 63.5 24Z" fill="#060607"/>
<path d="M64.0847 49.8265C60.9035 49.8267 57.7938 48.8837 55.1486 47.1165C52.5035 45.3494 50.4418 42.8375 49.2243 39.8986C48.0068 36.9597 47.6882 33.7257 48.3087 30.6057C48.9293 27.4857 50.4611 24.6198 52.7105 22.3704C54.9599 20.121 57.8258 18.5892 60.9458 17.9686C64.0658 17.3481 67.2998 17.6667 70.2387 18.8842C73.1776 20.1017 75.6895 22.1634 77.4566 24.8086C79.2238 27.4537 80.1668 30.5635 80.1665 33.7446C80.1614 38.0082 78.4653 42.0956 75.4505 45.1104C72.4357 48.1253 68.3483 49.8213 64.0847 49.8265ZM64.0847 25.2267C62.4006 25.2267 60.7543 25.7261 59.3541 26.6617C57.9538 27.5974 56.8625 28.9272 56.218 30.4831C55.5735 32.039 55.4049 33.751 55.7334 35.4027C56.062 37.0544 56.873 38.5716 58.0638 39.7624C59.2546 40.9533 60.7718 41.7642 62.4235 42.0928C64.0752 42.4213 65.7873 42.2527 67.3431 41.6082C68.899 40.9638 70.2289 39.8724 71.1645 38.4721C72.1001 37.0719 72.5995 35.4256 72.5995 33.7416C72.5963 31.4845 71.6981 29.3209 70.1018 27.7253C68.5056 26.1296 66.3417 25.2321 64.0847 25.2297V25.2267Z" fill="white"/>
<path d="M46.0834 42.9996L39 50.083L48.4441 59.5271L55.5275 52.4437L46.0834 42.9996Z" fill="#D4D4D6"/>
<circle cx="41" cy="58" r="4" fill="#D9D9D9"/>
</g>
<defs>
<linearGradient id="paint0_linear_404_7155" x1="48" y1="0.134766" x2="48" y2="96.1348" gradientUnits="userSpaceOnUse">
<stop stop-color="#AB0404" stop-opacity="0.96"/>
<stop stop-color="#AB0404" stop-opacity="0.96"/>
<stop offset="0.0001" stop-color="#FF0606" stop-opacity="0.993125"/>
<stop offset="1" stop-color="#BC0707"/>
</linearGradient>
<clipPath id="clip0_404_7155">
<rect width="96" height="96.134" fill="white"/>
</clipPath>
</defs>
</svg>
